<svg width="48" height="48" viewBox="0 0 48 48" fill="none" xmlns="http://www.w3.org/2000/svg">
<g clip-path="url(#clip0_1331_8011)">
<mask id="mask0_1331_8011" style="mask-type:luminance" maskUnits="userSpaceOnUse" x="0" y="0" width="48" height="48">
<path d="M0 0H48V48H0V0Z" fill="white"/>
</mask>
<g mask="url(#mask0_1331_8011)">
<path d="M16.9766 10.708C17.2254 10.5859 17.5108 10.5607 17.7773 10.6367C18.0439 10.7128 18.273 10.885 18.4199 11.1201L18.4238 11.127C18.7991 11.7066 18.612 12.5159 17.9873 12.9229C12.529 16.476 11.3489 20.7777 10.8594 23.5547L10.6846 24.5488L11.5811 24.0859C12.5481 23.5871 13.8528 23.3977 15.1641 23.5195C18.5263 23.8309 21.1621 26.5877 21.1621 30C21.162 31.7238 20.4767 33.3768 19.2578 34.5957C18.0393 35.8141 16.3872 36.4985 14.6641 36.499C13.7044 36.4901 12.7559 36.2908 11.874 35.9121C10.9915 35.5331 10.193 34.9825 9.52539 34.292H9.52441C7.55983 32.2072 6.5 29.8761 6.5 26.0195C6.50002 19.6884 10.6718 13.9146 16.9766 10.708ZM36.9766 10.708C37.2254 10.5859 37.5108 10.5607 37.7773 10.6367C38.0439 10.7128 38.273 10.885 38.4199 11.1201L38.4238 11.127C38.7991 11.7066 38.612 12.5159 37.9873 12.9229C32.529 16.476 31.3489 20.7777 30.8594 23.5547L30.6846 24.5488L31.5811 24.0859C32.5481 23.5871 33.8528 23.3977 35.1641 23.5195C38.5263 23.8309 41.1621 26.5877 41.1621 30C41.162 31.7238 40.4767 33.3768 39.2578 34.5957C38.0393 35.8141 36.3872 36.4985 34.6641 36.499C33.7044 36.4901 32.7559 36.2908 31.874 35.9121C30.9915 35.5331 30.193 34.9825 29.5254 34.292H29.5244C27.5598 32.2072 26.5 29.8761 26.5 26.0195C26.5 19.6885 30.6738 13.9146 36.9766 10.708Z" fill="#53CCC7" stroke="#53CCC7"/>
</g>
</g>
<defs>
<clipPath id="clip0_1331_8011">
<rect width="48" height="48" fill="white"/>
</clipPath>
</defs>
</svg>
