<svg width="115" height="70" viewBox="0 0 115 70" fill="none" xmlns="http://www.w3.org/2000/svg">
<path d="M1.78648 65V51.12H3.66648V65H1.78648ZM10.7465 65V51.12H12.6265V65H10.7465ZM3.06648 58.68V56.96H11.2065V58.68H3.06648ZM19.6276 65.2C18.7609 65.2 17.9742 64.9867 17.2676 64.56C16.5609 64.12 16.0009 63.5267 15.5876 62.78C15.1876 62.0333 14.9876 61.1933 14.9876 60.26C14.9876 59.3267 15.1876 58.4867 15.5876 57.74C16.0009 56.9933 16.5542 56.4 17.2476 55.96C17.9542 55.52 18.7476 55.3 19.6276 55.3C20.3476 55.3 20.9876 55.4533 21.5476 55.76C22.1209 56.0533 22.5809 56.4667 22.9276 57C23.2742 57.52 23.4676 58.1267 23.5076 58.82V61.68C23.4676 62.36 23.2742 62.9667 22.9276 63.5C22.5942 64.0333 22.1409 64.4533 21.5676 64.76C21.0076 65.0533 20.3609 65.2 19.6276 65.2ZM19.9276 63.5C20.8209 63.5 21.5409 63.2 22.0876 62.6C22.6342 61.9867 22.9076 61.2067 22.9076 60.26C22.9076 59.6067 22.7809 59.04 22.5276 58.56C22.2876 58.0667 21.9409 57.6867 21.4876 57.42C21.0342 57.14 20.5076 57 19.9076 57C19.3076 57 18.7742 57.14 18.3076 57.42C17.8542 57.7 17.4942 58.0867 17.2276 58.58C16.9742 59.06 16.8476 59.6133 16.8476 60.24C16.8476 60.88 16.9742 61.4467 17.2276 61.94C17.4942 62.42 17.8609 62.8 18.3276 63.08C18.7942 63.36 19.3276 63.5 19.9276 63.5ZM22.7876 65V62.44L23.1276 60.12L22.7876 57.82V55.5H24.6076V65H22.7876ZM32.2282 65.2C31.5082 65.2 30.8549 65.0533 30.2682 64.76C29.6949 64.4533 29.2349 64.0333 28.8882 63.5C28.5415 62.9667 28.3482 62.36 28.3082 61.68V58.82C28.3482 58.1267 28.5415 57.52 28.8882 57C29.2482 56.4667 29.7149 56.0533 30.2882 55.76C30.8749 55.4533 31.5215 55.3 32.2282 55.3C33.0949 55.3 33.8749 55.52 34.5682 55.96C35.2749 56.4 35.8282 56.9933 36.2282 57.74C36.6282 58.4867 36.8282 59.3267 36.8282 60.26C36.8282 61.1933 36.6282 62.0333 36.2282 62.78C35.8282 63.5267 35.2749 64.12 34.5682 64.56C33.8749 64.9867 33.0949 65.2 32.2282 65.2ZM27.2282 68.98V55.5H29.0282V58L28.6882 60.3L29.0282 62.62V68.98H27.2282ZM31.9282 63.5C32.5282 63.5 33.0549 63.36 33.5082 63.08C33.9615 62.8 34.3215 62.42 34.5882 61.94C34.8549 61.4467 34.9882 60.88 34.9882 60.24C34.9882 59.6133 34.8549 59.0533 34.5882 58.56C34.3215 58.0667 33.9615 57.6867 33.5082 57.42C33.0549 57.14 32.5349 57 31.9482 57C31.3482 57 30.8215 57.14 30.3682 57.42C29.9149 57.6867 29.5615 58.0667 29.3082 58.56C29.0549 59.0533 28.9282 59.62 28.9282 60.26C28.9282 60.8867 29.0482 61.4467 29.2882 61.94C29.5415 62.42 29.8949 62.8 30.3482 63.08C30.8149 63.36 31.3415 63.5 31.9282 63.5ZM43.8688 65.2C43.1488 65.2 42.4955 65.0533 41.9088 64.76C41.3355 64.4533 40.8755 64.0333 40.5288 63.5C40.1822 62.9667 39.9888 62.36 39.9488 61.68V58.82C39.9888 58.1267 40.1822 57.52 40.5288 57C40.8888 56.4667 41.3555 56.0533 41.9288 55.76C42.5155 55.4533 43.1622 55.3 43.8688 55.3C44.7355 55.3 45.5155 55.52 46.2088 55.96C46.9155 56.4 47.4688 56.9933 47.8688 57.74C48.2688 58.4867 48.4688 59.3267 48.4688 60.26C48.4688 61.1933 48.2688 62.0333 47.8688 62.78C47.4688 63.5267 46.9155 64.12 46.2088 64.56C45.5155 64.9867 44.7355 65.2 43.8688 65.2ZM38.8688 68.98V55.5H40.6688V58L40.3288 60.3L40.6688 62.62V68.98H38.8688ZM43.5688 63.5C44.1688 63.5 44.6955 63.36 45.1488 63.08C45.6022 62.8 45.9622 62.42 46.2288 61.94C46.4955 61.4467 46.6288 60.88 46.6288 60.24C46.6288 59.6133 46.4955 59.0533 46.2288 58.56C45.9622 58.0667 45.6022 57.6867 45.1488 57.42C44.6955 57.14 44.1755 57 43.5888 57C42.9888 57 42.4622 57.14 42.0088 57.42C41.5555 57.6867 41.2022 58.0667 40.9488 58.56C40.6955 59.0533 40.5688 59.62 40.5688 60.26C40.5688 60.8867 40.6888 61.4467 40.9288 61.94C41.1822 62.42 41.5355 62.8 41.9888 63.08C42.4555 63.36 42.9822 63.5 43.5688 63.5ZM53.2584 65.08L49.1384 55.5H51.1384L54.1984 63H53.5584L56.7784 55.5H58.7784L54.3384 65.08H53.2584ZM50.5384 68.98L53.3384 63.24L54.3384 65.08L52.5384 68.98H50.5384ZM71.192 65.2C70.192 65.2 69.2653 65.02 68.412 64.66C67.5586 64.2867 66.812 63.7733 66.172 63.12C65.5453 62.4667 65.0586 61.7067 64.712 60.84C64.3653 59.9733 64.192 59.0467 64.192 58.06C64.192 57.06 64.3653 56.1267 64.712 55.26C65.0586 54.3933 65.5453 53.64 66.172 53C66.812 52.3467 67.552 51.84 68.392 51.48C69.2453 51.1067 70.172 50.92 71.172 50.92C72.2653 50.92 73.2253 51.1067 74.052 51.48C74.8786 51.8533 75.612 52.36 76.252 53L74.952 54.3C74.512 53.8067 73.972 53.42 73.332 53.14C72.7053 52.86 71.9853 52.72 71.172 52.72C70.4386 52.72 69.7653 52.8533 69.152 53.12C68.5386 53.3733 68.0053 53.74 67.552 54.22C67.0986 54.7 66.7453 55.2667 66.492 55.92C66.252 56.5733 66.132 57.2867 66.132 58.06C66.132 58.8333 66.252 59.5467 66.492 60.2C66.7453 60.8533 67.0986 61.42 67.552 61.9C68.0053 62.38 68.5386 62.7533 69.152 63.02C69.7653 63.2733 70.4386 63.4 71.172 63.4C72.0386 63.4 72.792 63.26 73.432 62.98C74.072 62.6867 74.612 62.2933 75.052 61.8L76.352 63.08C75.712 63.7467 74.9586 64.2667 74.092 64.64C73.2386 65.0133 72.272 65.2 71.192 65.2ZM78.3415 65V50.72H80.1415V65H78.3415ZM82.7951 65V55.5H84.5951V65H82.7951ZM83.6951 53.6C83.3617 53.6 83.0884 53.4933 82.8751 53.28C82.6617 53.0533 82.5551 52.7733 82.5551 52.44C82.5551 52.12 82.6617 51.8533 82.8751 51.64C83.0884 51.4133 83.3617 51.3 83.6951 51.3C84.0284 51.3 84.3017 51.4133 84.5151 51.64C84.7284 51.8533 84.8351 52.12 84.8351 52.44C84.8351 52.7733 84.7284 53.0533 84.5151 53.28C84.3017 53.4933 84.0284 53.6 83.6951 53.6ZM91.6477 65.2C90.7011 65.2 89.8477 64.9867 89.0877 64.56C88.3277 64.12 87.7277 63.5267 87.2877 62.78C86.8477 62.0333 86.6277 61.1867 86.6277 60.24C86.6277 59.3067 86.8411 58.4667 87.2677 57.72C87.7077 56.9733 88.2944 56.3867 89.0277 55.96C89.7744 55.52 90.6077 55.3 91.5277 55.3C92.4077 55.3 93.1811 55.5 93.8477 55.9C94.5277 56.3 95.0544 56.8533 95.4277 57.56C95.8144 58.2667 96.0077 59.0667 96.0077 59.96C96.0077 60.0933 96.0011 60.24 95.9877 60.4C95.9744 60.5467 95.9477 60.72 95.9077 60.92H87.8877V59.42H94.9477L94.2877 60C94.2877 59.36 94.1744 58.82 93.9477 58.38C93.7211 57.9267 93.4011 57.58 92.9877 57.34C92.5744 57.0867 92.0744 56.96 91.4877 56.96C90.8744 56.96 90.3344 57.0933 89.8677 57.36C89.4011 57.6267 89.0411 58 88.7877 58.48C88.5344 58.96 88.4077 59.5267 88.4077 60.18C88.4077 60.8467 88.5411 61.4333 88.8077 61.94C89.0744 62.4333 89.4544 62.82 89.9477 63.1C90.4411 63.3667 91.0077 63.5 91.6477 63.5C92.1811 63.5 92.6677 63.4067 93.1077 63.22C93.5611 63.0333 93.9477 62.7533 94.2677 62.38L95.4277 63.56C94.9744 64.0933 94.4144 64.5 93.7477 64.78C93.0944 65.06 92.3944 65.2 91.6477 65.2ZM104.69 65V59.46C104.69 58.74 104.464 58.1467 104.01 57.68C103.557 57.2133 102.97 56.98 102.25 56.98C101.77 56.98 101.344 57.0867 100.97 57.3C100.597 57.5133 100.304 57.8067 100.09 58.18C99.8771 58.5533 99.7704 58.98 99.7704 59.46L99.0304 59.04C99.0304 58.32 99.1904 57.68 99.5104 57.12C99.8304 56.56 100.277 56.12 100.85 55.8C101.424 55.4667 102.07 55.3 102.79 55.3C103.51 55.3 104.144 55.48 104.69 55.84C105.25 56.2 105.69 56.6733 106.01 57.26C106.33 57.8333 106.49 58.4467 106.49 59.1V65H104.69ZM97.9704 65V55.5H99.7704V65H97.9704ZM110.27 65V51.52H112.07V65H110.27ZM107.93 57.14V55.5H114.41V57.14H107.93Z" fill="#73BE5F"/>
<path d="M54 2C51.2311 2 48.5243 2.82109 46.222 4.35943C43.9197 5.89777 42.1253 8.08427 41.0657 10.6424C40.0061 13.2006 39.7288 16.0155 40.269 18.7313C40.8092 21.447 42.1426 23.9416 44.1005 25.8995C46.0584 27.8574 48.553 29.1908 51.2687 29.731C53.9845 30.2712 56.7994 29.9939 59.3576 28.9343C61.9157 27.8747 64.1022 26.0803 65.6406 23.778C67.1789 21.4757 68 18.7689 68 16C67.996 12.2882 66.5198 8.72954 63.8951 6.10489C61.2705 3.48024 57.7118 2.00397 54 2ZM54 28C51.6266 28 49.3066 27.2962 47.3332 25.9776C45.3598 24.6591 43.8217 22.7849 42.9135 20.5922C42.0052 18.3995 41.7676 15.9867 42.2306 13.6589C42.6936 11.3311 43.8365 9.19295 45.5147 7.51472C47.193 5.83649 49.3312 4.6936 51.6589 4.23058C53.9867 3.76755 56.3995 4.00519 58.5922 4.91345C60.7849 5.8217 62.6591 7.35977 63.9776 9.33316C65.2962 11.3065 66 13.6266 66 16C65.9966 19.1815 64.7312 22.2318 62.4815 24.4815C60.2318 26.7312 57.1815 27.9966 54 28ZM61.862 19.507C61.0223 20.8449 59.8655 21.955 58.494 22.7387C57.1226 23.5225 55.579 23.9557 54 24C52.4213 23.9556 50.8779 23.5225 49.5067 22.7389C48.1355 21.9554 46.9787 20.8456 46.139 19.508C46.012 19.2801 45.9792 19.0115 46.0475 18.7597C46.1157 18.5079 46.2797 18.2927 46.5045 18.1601C46.7292 18.0275 46.9968 17.988 47.2503 18.05C47.5037 18.112 47.7229 18.2706 47.861 18.492C48.5273 19.5268 49.4331 20.3859 50.5017 20.9965C51.5703 21.6071 52.7702 21.9513 54 22C55.2298 21.9512 56.4297 21.607 57.4983 20.9964C58.5669 20.3857 59.4726 19.5267 60.139 18.492C60.2758 18.2681 60.4952 18.1069 60.7498 18.0433C61.0044 17.9796 61.2738 18.0186 61.4999 18.1518C61.726 18.285 61.8906 18.5017 61.9584 18.7553C62.0261 19.0088 61.9915 19.2788 61.862 19.507ZM55 13C55 12.2044 55.3161 11.4413 55.8787 10.8787C56.4413 10.3161 57.2044 10 58 10C58.7957 10 59.5587 10.3161 60.1213 10.8787C60.6839 11.4413 61 12.2044 61 13C61 13.2652 60.8946 13.5196 60.7071 13.7071C60.5196 13.8946 60.2652 14 60 14C59.7348 14 59.4804 13.8946 59.2929 13.7071C59.1054 13.5196 59 13.2652 59 13C59 12.7348 58.8946 12.4804 58.7071 12.2929C58.5196 12.1054 58.2652 12 58 12C57.7348 12 57.4804 12.1054 57.2929 12.2929C57.1054 12.4804 57 12.7348 57 13C57 13.2652 56.8946 13.5196 56.7071 13.7071C56.5196 13.8946 56.2652 14 56 14C55.7348 14 55.4804 13.8946 55.2929 13.7071C55.1054 13.5196 55 13.2652 55 13ZM47 13C47 12.2044 47.3161 11.4413 47.8787 10.8787C48.4413 10.3161 49.2044 10 50 10C50.7957 10 51.5587 10.3161 52.1213 10.8787C52.6839 11.4413 53 12.2044 53 13C53 13.2652 52.8946 13.5196 52.7071 13.7071C52.5196 13.8946 52.2652 14 52 14C51.7348 14 51.4804 13.8946 51.2929 13.7071C51.1054 13.5196 51 13.2652 51 13C51 12.7348 50.8946 12.4804 50.7071 12.2929C50.5196 12.1054 50.2652 12 50 12C49.7348 12 49.4804 12.1054 49.2929 12.2929C49.1054 12.4804 49 12.7348 49 13C49 13.2652 48.8946 13.5196 48.7071 13.7071C48.5196 13.8946 48.2652 14 48 14C47.7348 14 47.4804 13.8946 47.2929 13.7071C47.1054 13.5196 47 13.2652 47 13Z" fill="#73BE5F"/>
</svg>
