<svg width="48" height="42" viewBox="0 0 48 42" fill="none" xmlns="http://www.w3.org/2000/svg">
<path d="M24.0001 25.2751C26.3611 25.2751 28.2751 23.3611 28.2751 21.0001C28.2751 18.6391 26.3611 16.7251 24.0001 16.7251C21.6391 16.7251 19.7251 18.6391 19.7251 21.0001C19.7251 23.3611 21.6391 25.2751 24.0001 25.2751Z" fill="#61DAFB"/>
<path d="M40.2374 13.9501C39.4124 13.6501 38.5499 13.3501 37.6499 13.0876C37.8749 12.1876 38.0624 11.2876 38.2124 10.4251C38.9999 5.4751 38.1374 1.9876 35.7374 0.637598C35.0249 0.225097 34.2374 0.0375977 33.3374 0.0375977C30.7124 0.0375977 27.3749 1.9876 23.9999 5.2501C20.6249 1.9876 17.2874 0.0375977 14.6624 0.0375977C13.7624 0.0375977 12.9749 0.225097 12.2624 0.637598C9.8624 2.0251 8.9999 5.5126 9.7874 10.4251C9.9374 11.2876 10.1249 12.1876 10.3499 13.0876C9.4499 13.3501 8.5874 13.6126 7.7624 13.9501C3.0749 15.7501 0.524902 18.2251 0.524902 21.0001C0.524902 23.7751 3.1124 26.2501 7.7624 28.0501C8.5874 28.3501 9.4499 28.6501 10.3499 28.9126C10.1249 29.8126 9.9374 30.7126 9.7874 31.5751C8.9999 36.5251 9.8624 40.0126 12.2624 41.3626C12.9749 41.7751 13.7624 41.9626 14.6624 41.9626C17.3249 41.9626 20.6624 40.0126 23.9999 36.7501C27.3749 40.0126 30.7124 41.9626 33.3374 41.9626C34.2374 41.9626 35.0249 41.7751 35.7374 41.3626C38.1374 39.9751 38.9999 36.4876 38.2124 31.5751C38.0624 30.7126 37.8749 29.8126 37.6499 28.9126C38.5499 28.6501 39.4124 28.3876 40.2374 28.0501C44.9249 26.2501 47.4749 23.7751 47.4749 21.0001C47.4749 18.2251 44.9249 15.7501 40.2374 13.9501ZM34.6874 2.5126C36.2249 3.4126 36.7499 6.1876 36.1124 10.1251C35.9999 10.9126 35.8124 11.7376 35.5874 12.6001C33.6374 12.1501 31.5749 11.8501 29.3999 11.6626C28.1249 9.8626 26.8124 8.2501 25.4999 6.7876C28.2749 4.0501 31.0874 2.1751 33.3749 2.1751C33.8624 2.1751 34.3124 2.2876 34.6874 2.5126ZM30.4874 24.7501C29.8124 25.9501 29.0249 27.1501 28.1999 28.3501C26.8124 28.4626 25.4249 28.5001 23.9999 28.5001C22.5374 28.5001 21.1499 28.4626 19.7999 28.3501C18.9749 27.1501 18.2249 25.9501 17.5499 24.7501C16.8374 23.5126 16.1624 22.2376 15.5624 21.0001C16.1624 19.7626 16.8374 18.4876 17.5499 17.2501C18.2249 16.0501 19.0124 14.8501 19.8374 13.6501C21.2249 13.5376 22.6124 13.5001 24.0374 13.5001C25.4999 13.5001 26.8874 13.5376 28.2374 13.6501C29.0624 14.8501 29.8124 16.0501 30.4874 17.2501C31.1999 18.4876 31.8749 19.7626 32.4749 21.0001C31.8374 22.2376 31.1999 23.4751 30.4874 24.7501ZM33.5999 23.5126C34.1624 24.8251 34.6124 26.1001 35.0249 27.3751C33.7499 27.6751 32.3999 27.9001 30.9749 28.0876C31.4249 27.3751 31.9124 26.6251 32.3249 25.8376C32.7749 25.0501 33.1874 24.2626 33.5999 23.5126ZM23.9999 33.6751C23.0999 32.7001 22.2374 31.6501 21.4124 30.5626C22.2749 30.6001 23.1374 30.6376 23.9999 30.6376C24.8624 30.6376 25.7249 30.6001 26.5874 30.5626C25.7624 31.6501 24.8999 32.7001 23.9999 33.6751ZM17.0249 28.0501C15.5999 27.8626 14.2499 27.6376 12.9749 27.3376C13.3874 26.1001 13.8374 24.7876 14.3999 23.4751C14.8124 24.2251 15.2249 25.0126 15.6749 25.7626C16.1249 26.5876 16.5749 27.3001 17.0249 28.0501ZM14.3999 18.4876C13.8374 17.1751 13.3874 15.9001 12.9749 14.6251C14.2499 14.3251 15.5999 14.1001 17.0249 13.9126C16.5749 14.6251 16.0874 15.3751 15.6749 16.1626C15.2249 16.9501 14.8124 17.7376 14.3999 18.4876ZM23.9999 8.3251C24.8999 9.3001 25.7624 10.3501 26.5874 11.4376C25.7249 11.4001 24.8624 11.3626 23.9999 11.3626C23.1374 11.3626 22.2749 11.4001 21.4124 11.4376C22.2374 10.3501 23.0999 9.3001 23.9999 8.3251ZM32.3249 16.2001L30.9749 13.9501C32.3999 14.1376 33.7499 14.3626 35.0249 14.6626C34.6124 15.9001 34.1624 17.2126 33.5999 18.5251C33.1874 17.7376 32.7749 16.9501 32.3249 16.2001ZM11.8874 10.1251C11.2499 6.1876 11.7749 3.4126 13.3124 2.5126C13.6874 2.2876 14.1374 2.1751 14.6249 2.1751C16.8749 2.1751 19.6874 4.0126 22.4999 6.7876C21.1874 8.2126 19.8749 9.8626 18.5999 11.6626C16.4249 11.8501 14.3624 12.1876 12.4124 12.6001C12.1874 11.7376 12.0374 10.9126 11.8874 10.1251ZM2.6249 21.0001C2.6249 19.2376 4.7624 17.3626 8.5124 15.9751C9.2624 15.6751 10.0874 15.4126 10.9124 15.1876C11.5124 17.0626 12.2624 19.0501 13.1624 21.0376C12.2624 23.0251 11.4749 24.9751 10.9124 26.8501C5.7374 25.3501 2.6249 23.1001 2.6249 21.0001ZM13.3124 39.4876C11.7749 38.5876 11.2499 35.8126 11.8874 31.8751C11.9999 31.0876 12.1874 30.2626 12.4124 29.4001C14.3624 29.8501 16.4249 30.1501 18.5999 30.3376C19.8749 32.1376 21.1874 33.7501 22.4999 35.2126C19.7249 37.9501 16.9124 39.8251 14.6249 39.8251C14.1374 39.8251 13.6874 39.7126 13.3124 39.4876ZM36.1124 31.8751C36.7499 35.8126 36.2249 38.5876 34.6874 39.4876C34.3124 39.7126 33.8624 39.8251 33.3749 39.8251C31.1249 39.8251 28.3124 37.9876 25.4999 35.2126C26.8124 33.7876 28.1249 32.1376 29.3999 30.3376C31.5749 30.1501 33.6374 29.8126 35.5874 29.4001C35.8124 30.2626 35.9624 31.0876 36.1124 31.8751ZM39.4874 26.0251C38.7374 26.3251 37.9124 26.5876 37.0874 26.8126C36.4874 24.9376 35.7374 22.9501 34.8374 20.9626C35.7374 18.9751 36.5249 17.0251 37.0874 15.1501C42.2624 16.6501 45.3749 18.9001 45.3749 21.0001C45.3749 22.7626 43.1999 24.6376 39.4874 26.0251Z" fill="#61DAFB"/>
</svg>
