<svg width="40" height="40" viewBox="0 0 40 40" fill="none" xmlns="http://www.w3.org/2000/svg">
<path d="M34.4444 7.77745H33.3333V5.55523C33.3333 4.96586 33.0991 4.40063 32.6824 3.98388C32.2656 3.56713 31.7004 3.33301 31.111 3.33301H8.88881C8.29944 3.33301 7.73421 3.56713 7.31746 3.98388C6.90071 4.40063 6.66659 4.96586 6.66658 5.55523V7.77745H5.55547C4.9661 7.77745 4.40087 8.01158 3.98413 8.42833C3.56738 8.84507 3.33325 9.4103 3.33325 9.99967V28.8886C3.33325 29.4779 3.56738 30.0432 3.98413 30.4599C4.40087 30.8767 4.9661 31.1108 5.55547 31.1108H16.4755L15.1421 35.5552H13.8888V36.6663H26.111V35.5552H24.8577L23.5244 31.1108H34.4444C35.0337 31.1108 35.599 30.8767 36.0157 30.4599C36.4325 30.0432 36.6666 29.4779 36.6666 28.8886V9.99967C36.6666 9.4103 36.4325 8.84507 36.0157 8.42833C35.599 8.01158 35.0337 7.77745 34.4444 7.77745ZM4.44436 9.99967C4.44436 9.70499 4.56143 9.42237 4.7698 9.214C4.97817 9.00563 5.26079 8.88856 5.55547 8.88856H6.66658V25.5552H7.7777V5.55523C7.7777 5.26054 7.89476 4.97793 8.10313 4.76956C8.31151 4.56118 8.59412 4.44412 8.88881 4.44412H31.111C31.4057 4.44412 31.6883 4.56118 31.8967 4.76956C32.1051 4.97793 32.2221 5.26054 32.2221 5.55523V25.5552H33.3333V8.88856H34.4444C34.739 8.88856 35.0217 9.00563 35.23 9.214C35.4384 9.42237 35.5555 9.70499 35.5555 9.99967V26.6663H4.44436V9.99967ZM23.6977 35.5552H16.3021L17.6355 31.1108H22.3644L23.6977 35.5552ZM35.5555 28.8886C35.5555 29.1832 35.4384 29.4659 35.23 29.6742C35.0217 29.8826 34.739 29.9997 34.4444 29.9997H5.55547C5.26079 29.9997 4.97817 29.8826 4.7698 29.6742C4.56143 29.4659 4.44436 29.1832 4.44436 28.8886V27.7775H35.5555V28.8886Z" fill="#02060B"/>
<path d="M10 5.55566H8.88892V6.66678H10V5.55566Z" fill="#02060B"/>
<path d="M12.2222 5.55566H11.1111V6.66678H12.2222V5.55566Z" fill="#02060B"/>
<path d="M14.4444 5.55566H13.3333V6.66678H14.4444V5.55566Z" fill="#02060B"/>
<path d="M30.0967 12.3411L27.2241 12.9824L27.4662 14.0668L30.3388 13.4255L30.0967 12.3411Z" fill="#02060B"/>
<path d="M27.3851 6.27362L25.7183 7.94043L26.5039 8.7261L28.1707 7.0593L27.3851 6.27362Z" fill="#02060B"/>
<path d="M28.5819 17.8363L28.085 18.8301L30.3071 19.9412L30.804 18.9473L28.5819 17.8363Z" fill="#02060B"/>
<path d="M24.625 6.89506C24.5248 6.44655 24.2506 6.05621 23.8626 5.80991C23.4746 5.56362 23.0047 5.48153 22.5561 5.58173C22.1076 5.68192 21.7173 5.95618 21.471 6.34417C21.2247 6.73216 21.1426 7.20211 21.2428 7.65062L21.4139 8.41728L14.4256 12.8256L11.6478 13.4456C10.8376 13.6225 10.1167 14.0817 9.61391 14.7411C9.1111 15.4006 8.85916 16.2173 8.90311 17.0454C8.94705 17.8735 9.28401 18.659 9.85378 19.2615C10.4236 19.8641 11.189 20.2444 12.0134 20.3345L12.9611 24.5801C12.9935 24.7234 13.0814 24.8481 13.2055 24.9268C13.3296 25.0056 13.4799 25.0319 13.6234 25.0001L15.9211 24.4867C15.9924 24.4709 16.0598 24.4412 16.1196 24.3992C16.1794 24.3573 16.2303 24.304 16.2694 24.2424C16.3086 24.1808 16.3352 24.1121 16.3478 24.0402C16.3604 23.9683 16.3587 23.8946 16.3428 23.8234L15.4373 19.7678L15.9506 19.6534L24.15 20.6706L24.3167 21.4134C24.4024 21.7973 24.6161 22.1407 24.9227 22.3871C25.2293 22.6335 25.6106 22.7684 26.0039 22.7695C26.2638 22.7696 26.5203 22.7113 26.7546 22.599C26.989 22.4867 27.195 22.3232 27.3577 22.1205C27.5203 21.9179 27.6354 21.6813 27.6944 21.4282C27.7533 21.1751 27.7547 20.9121 27.6984 20.6584L24.625 6.89506ZM10.0795 17.3806C9.94182 16.7627 10.0551 16.1154 10.3943 15.5809C10.7336 15.0464 11.2712 14.6685 11.8889 14.5301L14.2189 14.0101L14.7395 16.3401L15.2595 18.6701L14.6534 18.8056L12.9311 19.1906C12.3132 19.3281 11.666 19.2147 11.1316 18.8753C10.5973 18.536 10.2194 17.9984 10.0811 17.3806H10.0795ZM15.135 23.5223L13.9211 23.7934L13.1373 20.2817L13.1667 20.2751L14.3484 20.0112L15.135 23.5223ZM16.3778 18.5878L15.2667 13.6078L21.67 9.56895L23.8923 19.5195L16.3778 18.5878ZM26.1556 21.6401C26.0752 21.6596 25.9918 21.663 25.9101 21.6499C25.8284 21.6368 25.7502 21.6076 25.6799 21.564C25.6097 21.5203 25.5489 21.4631 25.501 21.3956C25.4531 21.3282 25.4192 21.2519 25.4011 21.1712L22.3273 7.40784C22.3095 7.32824 22.3076 7.24592 22.3216 7.16558C22.3357 7.08523 22.3654 7.00845 22.4092 6.93962C22.4529 6.87079 22.5098 6.81126 22.5766 6.76443C22.6434 6.71761 22.7187 6.68441 22.7984 6.66673C22.9593 6.63079 23.1278 6.66023 23.267 6.74858C23.4062 6.83693 23.5046 6.97695 23.5406 7.13784L26.6111 20.9006C26.6459 21.059 26.6177 21.2246 26.5326 21.3626C26.4475 21.5005 26.3121 21.6 26.155 21.6401H26.1556Z" fill="#02060B"/>
</svg>
