<svg width="40" height="40" viewBox="0 0 40 40" fill="none" xmlns="http://www.w3.org/2000/svg">
<path d="M4.99994 17.6667V24.4083C4.99879 25.7455 5.35513 27.0586 6.03205 28.2117C6.70897 29.3648 7.68185 30.316 8.84994 30.9667L9.99994 31.6083V34.1667C9.99994 34.3877 10.0877 34.5997 10.244 34.7559C10.4003 34.9122 10.6123 35 10.8333 35H17.4999C17.721 35 17.9329 34.9122 18.0892 34.7559C18.2455 34.5997 18.3333 34.3877 18.3333 34.1667V27.925C18.3333 25.6917 18.1499 24.8667 16.9416 23.65L14.8833 21.5833C14.3809 21.1123 13.7325 20.8274 13.0457 20.7758C12.359 20.7243 11.6753 20.9093 11.1083 21.3L10.2749 17.1333C10.1579 16.4729 9.79558 15.8811 9.26054 15.4765C8.72549 15.072 8.0573 14.8847 7.38995 14.9522C6.7226 15.0197 6.10542 15.3369 5.66217 15.8404C5.21892 16.3438 4.98237 16.9962 4.99994 17.6667ZM8.6416 17.5L9.89994 23.7667C9.89994 23.8667 9.89994 23.9583 9.89994 24.0583C9.89584 24.1389 9.89584 24.2195 9.89994 24.3C9.89994 24.4083 9.9666 24.5167 9.99994 24.625L10.0666 24.825C10.1222 24.946 10.1863 25.063 10.2583 25.175C10.2801 25.2212 10.3051 25.2657 10.3333 25.3083C10.4355 25.4639 10.5527 25.609 10.6833 25.7417L12.6749 27.7333C12.8319 27.8903 13.0447 27.9784 13.2666 27.9784C13.4885 27.9784 13.7013 27.8903 13.8583 27.7333C14.0152 27.5764 14.1033 27.3636 14.1033 27.1417C14.1033 26.9198 14.0152 26.7069 13.8583 26.55L11.8666 24.5583C11.6325 24.324 11.501 24.0063 11.501 23.675C11.501 23.3438 11.6325 23.0261 11.8666 22.7917C12.1041 22.5635 12.4206 22.4361 12.7499 22.4361C13.0793 22.4361 13.3958 22.5635 13.6333 22.7917L15.6916 24.8583C16.4499 25.6167 16.5999 25.9333 16.5999 27.95V33.3333H11.6666V31.1167C11.6663 30.969 11.6269 30.8241 11.5522 30.6967C11.4775 30.5693 11.3703 30.464 11.2416 30.3917L9.6666 29.5583C8.74974 29.0489 7.98718 28.3017 7.45923 27.3954C6.93128 26.4891 6.65746 25.4572 6.6666 24.4083V17.6667C6.6787 17.4249 6.77806 17.1958 6.94626 17.0217C7.11446 16.8477 7.34008 16.7406 7.58126 16.7202C7.82245 16.6999 8.06283 16.7677 8.25782 16.9111C8.45281 17.0545 8.58917 17.2637 8.6416 17.5ZM32.3333 15C31.7174 14.9983 31.1201 15.2111 30.6441 15.6019C30.1681 15.9928 29.8431 16.5372 29.7249 17.1417L28.8916 21.3083C28.3251 20.9161 27.6411 20.7302 26.9539 20.7818C26.2668 20.8334 25.6182 21.1193 25.1166 21.5917L23.0583 23.6583C21.8499 24.8667 21.6666 25.6917 21.6666 27.925V34.1667C21.6666 34.3877 21.7544 34.5997 21.9107 34.7559C22.067 34.9122 22.2789 35 22.4999 35H29.1666C29.3876 35 29.5996 34.9122 29.7559 34.7559C29.9121 34.5997 29.9999 34.3877 29.9999 34.1667V31.6083L31.1499 30.9667C32.318 30.316 33.2909 29.3648 33.9678 28.2117C34.6447 27.0586 35.0011 25.7455 34.9999 24.4083V17.6667C34.9977 16.9601 34.7161 16.2831 34.2165 15.7835C33.7168 15.2839 33.0398 15.0022 32.3333 15ZM33.3333 24.4083C33.3349 25.4501 33.0576 26.4734 32.53 27.3717C32.0024 28.27 31.2439 29.0107 30.3333 29.5167L28.7583 30.35C28.6295 30.4224 28.5224 30.5276 28.4477 30.655C28.373 30.7824 28.3335 30.9273 28.3333 31.075V33.3333H23.3333V27.925C23.3333 25.9083 23.4833 25.5917 24.2416 24.8333L26.2999 22.7667C26.5374 22.5385 26.854 22.4111 27.1833 22.4111C27.5126 22.4111 27.8291 22.5385 28.0666 22.7667C28.3007 23.0011 28.4322 23.3188 28.4322 23.65C28.4322 23.9813 28.3007 24.299 28.0666 24.5333L26.0749 26.525C25.918 26.6819 25.8299 26.8948 25.8299 27.1167C25.8299 27.3386 25.918 27.5514 26.0749 27.7083C26.2319 27.8653 26.4447 27.9534 26.6666 27.9534C26.8885 27.9534 27.1013 27.8653 27.2583 27.7083L29.2499 25.7167C29.3776 25.5815 29.4946 25.4366 29.5999 25.2833C29.6309 25.2323 29.6588 25.1795 29.6833 25.125C29.7497 25.0212 29.8082 24.9126 29.8583 24.8C29.8869 24.7319 29.912 24.6624 29.9333 24.5917C29.9333 24.4833 29.9999 24.3833 30.0249 24.2667C30.0295 24.1834 30.0295 24.0999 30.0249 24.0167C30.0249 23.925 30.0249 23.8417 30.0249 23.75L31.3583 17.5C31.4107 17.2637 31.5471 17.0545 31.7421 16.9111C31.937 16.7677 32.1774 16.6999 32.4186 16.7202C32.6598 16.7406 32.8854 16.8477 33.0536 17.0217C33.2218 17.1958 33.3212 17.4249 33.3333 17.6667V24.4083ZM19.4166 23.0917C19.5724 23.2444 19.7818 23.3299 19.9999 23.3299C20.2181 23.3299 20.4275 23.2444 20.5833 23.0917L29.1666 14.6167C29.6912 14.0961 30.1075 13.4769 30.3917 12.7947C30.6758 12.1124 30.8221 11.3807 30.8221 10.6417C30.8221 9.90265 30.6758 9.17093 30.3917 8.48871C30.1075 7.80648 29.6912 7.18724 29.1666 6.66668C28.0935 5.61615 26.6516 5.02783 25.1499 5.02783C23.6483 5.02783 22.2063 5.61615 21.1333 6.66668L19.9999 7.75835L18.8666 6.66668C17.7935 5.61615 16.3516 5.02783 14.8499 5.02783C13.3483 5.02783 11.9063 5.61615 10.8333 6.66668C10.3049 7.18767 9.88536 7.80847 9.599 8.493C9.31264 9.17754 9.16517 9.91216 9.16517 10.6542C9.16517 11.3962 9.31264 12.1308 9.599 12.8154C9.88536 13.4999 10.3049 14.1207 10.8333 14.6417L19.4166 23.0917ZM12.0083 7.83335C12.7673 7.08674 13.7894 6.66833 14.8541 6.66833C15.9188 6.66833 16.9409 7.08674 17.6999 7.83335L19.4166 9.50001C19.5724 9.6527 19.7818 9.73823 19.9999 9.73823C20.2181 9.73823 20.4275 9.6527 20.5833 9.50001L22.2999 7.83335C23.06 7.08872 24.0817 6.67168 25.1458 6.67168C26.2098 6.67168 27.2315 7.08872 27.9916 7.83335C28.3633 8.19796 28.6585 8.63302 28.86 9.11307C29.0615 9.59312 29.1654 10.1085 29.1654 10.6292C29.1654 11.1498 29.0615 11.6652 28.86 12.1453C28.6585 12.6253 28.3633 13.0604 27.9916 13.425L19.9999 21.325L12.0083 13.425C11.6366 13.0604 11.3414 12.6253 11.1399 12.1453C10.9383 11.6652 10.8345 11.1498 10.8345 10.6292C10.8345 10.1085 10.9383 9.59312 11.1399 9.11307C11.3414 8.63302 11.6366 8.19796 12.0083 7.83335Z" fill="black"/>
<path d="M17.4998 15.0002H19.1665V16.6668C19.1665 16.8878 19.2543 17.0998 19.4106 17.2561C19.5669 17.4124 19.7788 17.5002 19.9998 17.5002C20.2209 17.5002 20.4328 17.4124 20.5891 17.2561C20.7454 17.0998 20.8332 16.8878 20.8332 16.6668V15.0002H22.4998C22.7209 15.0002 22.9328 14.9124 23.0891 14.7561C23.2454 14.5998 23.3332 14.3878 23.3332 14.1668C23.3332 13.9458 23.2454 13.7339 23.0891 13.5776C22.9328 13.4213 22.7209 13.3335 22.4998 13.3335H20.8332V11.6668C20.8332 11.4458 20.7454 11.2339 20.5891 11.0776C20.4328 10.9213 20.2209 10.8335 19.9998 10.8335C19.7788 10.8335 19.5669 10.9213 19.4106 11.0776C19.2543 11.2339 19.1665 11.4458 19.1665 11.6668V13.3335H17.4998C17.2788 13.3335 17.0669 13.4213 16.9106 13.5776C16.7543 13.7339 16.6665 13.9458 16.6665 14.1668C16.6665 14.3878 16.7543 14.5998 16.9106 14.7561C17.0669 14.9124 17.2788 15.0002 17.4998 15.0002Z" fill="black"/>
</svg>
