<svg width="40" height="32" viewBox="0 0 40 32" fill="none" xmlns="http://www.w3.org/2000/svg">
<g clip-path="url(#clip0_1641_7249)">
<path d="M0.684591 -0.00390625C0.504466 -0.00177147 0.332316 0.0713584 0.204939 0.199858C0.077563 0.328358 0.0050681 0.502032 0.00295176 0.683745V20.1609C0.00292233 20.1646 0.00292233 20.1683 0.00295176 20.172V25.7409C0.00224731 25.9245 0.0734954 26.1009 0.201173 26.2318C0.32885 26.3626 0.502609 26.4372 0.684591 26.4394H15.1768V30.6088H8.96395C8.78196 30.611 8.6082 30.6856 8.48051 30.8164C8.35283 30.9473 8.28159 31.1237 8.28231 31.3073C8.28441 31.4891 8.3569 31.6627 8.48428 31.7912C8.61166 31.9197 8.78382 31.9929 8.96395 31.995H31.0405C31.2206 31.9929 31.3927 31.9197 31.5201 31.7912C31.6475 31.6627 31.72 31.4891 31.7221 31.3073C31.7228 31.1237 31.6516 30.9473 31.5239 30.8164C31.3962 30.6856 31.2224 30.611 31.0405 30.6088H24.8276V26.4394H39.3198C39.3468 26.4392 39.3738 26.4373 39.4006 26.4339C39.5673 26.412 39.7203 26.3295 39.8309 26.2019C39.9415 26.0743 40.0022 25.9103 40.0014 25.7408V20.1716V0.683618C39.9993 0.501929 39.9268 0.328285 39.7994 0.199816C39.672 0.0713459 39.4999 -0.00177087 39.3198 -0.00390625H0.684591ZM1.37701 1.38227H38.6274V19.4732H1.37701V1.38227ZM2.75915 2.07807C2.66857 2.07807 2.57888 2.09606 2.4952 2.13103C2.41152 2.166 2.33549 2.21727 2.27144 2.28188C2.20739 2.34649 2.15659 2.42318 2.12193 2.5076C2.08726 2.59202 2.06942 2.6825 2.06942 2.77388C2.06942 2.86525 2.08726 2.95574 2.12193 3.04016C2.15659 3.12458 2.20739 3.20127 2.27144 3.26588C2.33549 3.33049 2.41152 3.38176 2.4952 3.41673C2.57888 3.45169 2.66857 3.46968 2.75915 3.46968C2.93885 3.46975 3.11148 3.39907 3.2403 3.27267C3.36912 3.14627 3.44395 2.97412 3.44887 2.79291C3.45379 2.97412 3.52862 3.14627 3.65744 3.27267C3.78626 3.39907 3.95889 3.46975 4.13859 3.46968C4.31829 3.46975 4.49093 3.39907 4.61975 3.27267C4.74856 3.14627 4.8234 2.97412 4.82831 2.79291C4.83323 2.97412 4.90806 3.14627 5.03688 3.27267C5.1657 3.39907 5.33833 3.46975 5.51804 3.46968C5.60861 3.46968 5.6983 3.45169 5.78198 3.41673C5.86566 3.38176 5.9417 3.33049 6.00574 3.26588C6.06979 3.20127 6.12059 3.12458 6.15526 3.04016C6.18992 2.95574 6.20776 2.86525 6.20776 2.77388C6.20776 2.6825 6.18992 2.59202 6.15526 2.5076C6.12059 2.42318 6.06979 2.34649 6.00574 2.28188C5.9417 2.21727 5.86566 2.166 5.78198 2.13103C5.6983 2.09606 5.60861 2.07807 5.51804 2.07807C5.33787 2.07802 5.16484 2.14908 5.03595 2.27606C4.90706 2.40305 4.83253 2.57587 4.82831 2.75757C4.82409 2.57587 4.74957 2.40305 4.62067 2.27606C4.49178 2.14908 4.31875 2.07802 4.13859 2.07807C3.95843 2.07802 3.7854 2.14908 3.65651 2.27606C3.52761 2.40305 3.45309 2.57587 3.44887 2.75757C3.44465 2.57587 3.37012 2.40305 3.24123 2.27606C3.11234 2.14908 2.93931 2.07802 2.75915 2.07807ZM8.96395 2.08364C8.78196 2.08579 8.6082 2.16042 8.48051 2.29127C8.35283 2.42211 8.28159 2.59856 8.28231 2.78216C8.28441 2.96388 8.3569 3.13754 8.48428 3.26605C8.61166 3.39455 8.78382 3.46769 8.96395 3.46981H26.8967C27.0788 3.47054 27.2537 3.39866 27.3834 3.26983C27.5131 3.14099 27.587 2.96565 27.5891 2.78203C27.5895 2.6902 27.5718 2.59922 27.5372 2.51431C27.5025 2.4294 27.4515 2.35225 27.3871 2.28732C27.3228 2.22238 27.2463 2.17094 27.1621 2.13596C27.078 2.10098 26.9878 2.08315 26.8967 2.08351L8.96395 2.08364ZM29.6556 2.08364C29.4736 2.08579 29.2999 2.16042 29.1722 2.29127C29.0445 2.42211 28.9733 2.59856 28.974 2.78216C28.9761 2.96388 29.0486 3.13754 29.1759 3.26605C29.3033 3.39455 29.4755 3.46769 29.6556 3.46981H36.5609C36.7411 3.46769 36.9133 3.39454 37.0406 3.26601C37.168 3.13748 37.2405 2.96377 37.2426 2.78203C37.2433 2.59843 37.172 2.42198 37.0444 2.29114C36.9167 2.1603 36.7429 2.08566 36.5609 2.08351L29.6556 2.08364ZM19.3098 5.56538C16.2712 5.56538 13.7893 8.06647 13.7893 11.1318C13.7893 14.1972 16.2712 16.6901 19.3098 16.6901C20.5813 16.6901 21.7397 16.2345 22.6749 15.5024L25.0323 17.8806C25.0964 17.9456 25.1726 17.9972 25.2565 18.0324C25.3405 18.0676 25.4304 18.0857 25.5213 18.0857C25.6122 18.0857 25.7022 18.0676 25.7861 18.0324C25.87 17.9972 25.9462 17.9456 26.0103 17.8806C26.1396 17.7501 26.2123 17.5732 26.2123 17.3886C26.2123 17.2041 26.1396 17.0272 26.0103 16.8967L23.6556 14.5184C24.3802 13.5782 24.8276 12.4114 24.8276 11.1318C24.8275 8.06647 22.3483 5.56538 19.3098 5.56538ZM19.3098 6.95156C21.6028 6.95156 23.4427 8.81854 23.4427 11.1318C23.4427 13.4451 21.6029 15.3039 19.3098 15.3039C17.0167 15.3039 15.1768 13.4451 15.1768 11.1318C15.1769 8.81854 17.0167 6.95156 19.3098 6.95156ZM8.96395 9.73478C8.78199 9.73693 8.60824 9.81155 8.48056 9.94236C8.35288 10.0732 8.28162 10.2496 8.28231 10.4332C8.28159 10.6168 8.35283 10.7932 8.48051 10.9241C8.6082 11.0549 8.78196 11.1295 8.96395 11.1317H12.4153C12.5063 11.1321 12.5965 11.1142 12.6807 11.0792C12.7648 11.0443 12.8413 10.9928 12.9057 10.9279C12.97 10.863 13.021 10.7858 13.0557 10.7009C13.0904 10.616 13.108 10.525 13.1077 10.4332C13.108 10.3413 13.0904 10.2504 13.0557 10.1655C13.021 10.0805 12.97 10.0034 12.9057 9.93846C12.8413 9.87352 12.7648 9.82208 12.6807 9.7871C12.5965 9.75212 12.5063 9.73429 12.4153 9.73465L8.96395 9.73478ZM26.2151 9.73478C26.1241 9.73442 26.0339 9.75225 25.9497 9.78723C25.8655 9.8222 25.7891 9.87365 25.7247 9.93859C25.6603 10.0035 25.6093 10.0807 25.5747 10.1656C25.54 10.2505 25.5223 10.3415 25.5227 10.4333C25.5223 10.5251 25.54 10.6161 25.5747 10.701C25.6093 10.7859 25.6603 10.8631 25.7247 10.928C25.7891 10.993 25.8655 11.0444 25.9497 11.0794C26.0339 11.1144 26.1241 11.1322 26.2151 11.1318H29.6556C29.7467 11.1322 29.8369 11.1144 29.921 11.0794C30.0052 11.0444 30.0817 10.9929 30.1461 10.928C30.2104 10.863 30.2614 10.7859 30.2961 10.7009C30.3308 10.616 30.3484 10.525 30.348 10.4332C30.3484 10.3413 30.3307 10.2504 30.2961 10.1655C30.2614 10.0805 30.2104 10.0034 30.146 9.93846C30.0817 9.87352 30.0052 9.82208 29.921 9.7871C29.8368 9.75212 29.7466 9.73429 29.6556 9.73465L26.2151 9.73478ZM8.96395 12.518C8.78199 12.5201 8.60824 12.5948 8.48056 12.7256C8.35288 12.8564 8.28162 13.0328 8.28231 13.2164C8.28087 13.4005 8.3518 13.5776 8.47956 13.7091C8.60731 13.8405 8.78149 13.9155 8.96395 13.9176H12.4153C12.5065 13.918 12.5969 13.9001 12.6813 13.8649C12.7656 13.8298 12.8422 13.7781 12.9066 13.7129C12.971 13.6477 13.022 13.5702 13.0565 13.485C13.091 13.3997 13.1084 13.3085 13.1077 13.2164C13.108 13.1246 13.0904 13.0336 13.0557 12.9487C13.021 12.8638 12.97 12.7866 12.9057 12.7217C12.8413 12.6567 12.7648 12.6053 12.6807 12.5703C12.5965 12.5353 12.5063 12.5175 12.4153 12.5179L8.96395 12.518ZM26.2151 12.518C26.1241 12.5176 26.0339 12.5355 25.9497 12.5704C25.8655 12.6054 25.7891 12.6569 25.7247 12.7218C25.6603 12.7867 25.6093 12.8639 25.5747 12.9488C25.54 13.0337 25.5223 13.1247 25.5227 13.2165C25.522 13.3086 25.5394 13.3999 25.5739 13.4851C25.6084 13.5703 25.6593 13.6478 25.7237 13.713C25.7881 13.7782 25.8647 13.8299 25.9491 13.8651C26.0334 13.9002 26.1238 13.9181 26.2151 13.9178H29.6556C29.7469 13.9181 29.8373 13.9002 29.9217 13.8651C30.006 13.8299 30.0826 13.7782 30.147 13.713C30.2114 13.6477 30.2624 13.5703 30.2969 13.485C30.3314 13.3998 30.3488 13.3085 30.348 13.2164C30.3484 13.1246 30.3307 13.0336 30.2961 12.9487C30.2614 12.8638 30.2104 12.7866 30.146 12.7217C30.0817 12.6567 30.0052 12.6053 29.921 12.5703C29.8368 12.5353 29.7466 12.5175 29.6556 12.5179L26.2151 12.518ZM8.96395 15.3038C8.78196 15.306 8.6082 15.3806 8.48051 15.5114C8.35283 15.6423 8.28159 15.8187 8.28231 16.0023C8.28159 16.1859 8.35283 16.3624 8.48051 16.4932C8.60819 16.6241 8.78196 16.6987 8.96395 16.7009H13.7893C13.8803 16.7012 13.9705 16.6834 14.0547 16.6484C14.1389 16.6134 14.2154 16.562 14.2797 16.4971C14.3441 16.4321 14.3951 16.355 14.4298 16.2701C14.4644 16.1851 14.4821 16.0942 14.4817 16.0023C14.4821 15.9105 14.4644 15.8195 14.4297 15.7346C14.3951 15.6497 14.3441 15.5726 14.2797 15.5076C14.2154 15.4427 14.1389 15.3912 14.0547 15.3563C13.9705 15.3213 13.8803 15.3035 13.7893 15.3038H8.96395ZM26.2151 15.3038C26.1241 15.3035 26.0339 15.3213 25.9497 15.3563C25.8655 15.3912 25.7891 15.4427 25.7247 15.5076C25.6603 15.5726 25.6093 15.6497 25.5747 15.7346C25.54 15.8195 25.5223 15.9105 25.5227 16.0023C25.5223 16.0942 25.54 16.1851 25.5746 16.2701C25.6093 16.355 25.6603 16.4321 25.7247 16.4971C25.789 16.562 25.8655 16.6134 25.9497 16.6484C26.0339 16.6834 26.1241 16.7012 26.2151 16.7009H29.6556C29.7466 16.7012 29.8368 16.6834 29.921 16.6484C30.0052 16.6134 30.0817 16.562 30.146 16.4971C30.2104 16.4321 30.2614 16.355 30.2961 16.2701C30.3307 16.1851 30.3484 16.0942 30.348 16.0023C30.3484 15.9105 30.3307 15.8195 30.2961 15.7346C30.2614 15.6497 30.2104 15.5726 30.146 15.5076C30.0817 15.4427 30.0052 15.3912 29.921 15.3563C29.8368 15.3213 29.7466 15.3035 29.6556 15.3038H26.2151ZM1.37701 20.8703H38.6274V25.0424H15.8693H1.37701V20.8703ZM16.5509 26.4394H23.4535V30.6088H16.5509V26.4394Z" fill="#02060B"/>
</g>
<defs>
<clipPath id="clip0_1641_7249">
<rect width="40" height="32" fill="white"/>
</clipPath>
</defs>
</svg>
