<svg width="30" height="30" viewBox="0 0 30 30" fill="none" xmlns="http://www.w3.org/2000/svg">
<g clip-path="url(#clip0_1641_5684)">
<path d="M5.3125 0H24.6875C27.625 0 30 2.4359 30 5.44872V24.5513C30 27.5641 27.625 30 24.6875 30H5.3125C2.375 30 0 27.5641 0 24.5513V5.44872C0 2.4359 2.375 0 5.3125 0Z" fill="#001E36"/>
<path fill-rule="evenodd" clip-rule="evenodd" d="M6.25 8.40255V21.383C6.25 21.4965 6.3 21.547 6.4 21.547H8.775H8.825C8.9125 21.5344 8.975 21.4587 8.9625 21.3704V17.3211C9.19994 17.3211 9.375 17.3211 9.5 17.3337C9.625 17.3464 9.825 17.3464 10.125 17.3464C11.15 17.3464 12.0875 17.2328 12.9375 16.9174C13.75 16.6147 14.45 16.0849 14.95 15.3784C15.45 14.672 15.7 13.7764 15.7 12.6915C15.7 12.1239 15.6 11.5814 15.4125 11.0516C15.2125 10.5092 14.9 10.0172 14.5 9.61355C14.025 9.1468 13.45 8.79361 12.825 8.57911C12.125 8.31424 11.275 8.18811 10.25 8.18811C9.875 8.18811 9.5 8.18811 9.1125 8.20067C8.92544 8.2068 8.74419 8.20992 8.56875 8.21299C8.38081 8.21624 8.19956 8.21942 8.025 8.22592C7.86131 8.23205 7.7035 8.23517 7.55013 8.23824C7.38731 8.24149 7.2295 8.24467 7.075 8.25117C6.7875 8.2638 6.5875 8.2638 6.375 8.2638C6.2875 8.2638 6.25 8.31424 6.25 8.40255ZM8.975 14.9369V10.6984C9.0625 10.6858 9.2375 10.6732 9.4875 10.6858C9.725 10.6732 10.0125 10.6732 10.3375 10.6732C10.85 10.6605 11.35 10.7362 11.8125 10.9255C12.175 11.0642 12.475 11.3165 12.6875 11.6445C12.8875 11.9851 12.9875 12.3762 12.975 12.7672C12.975 13.3222 12.85 13.7512 12.5875 14.0665C12.3125 14.3819 11.9625 14.6215 11.5625 14.7351C11.1 14.8865 10.6125 14.9622 10.125 14.9622H9.4625C9.32325 14.9622 9.17325 14.9513 9.0125 14.9397C9.00006 14.9387 8.98756 14.9379 8.975 14.9369Z" fill="#31A8FF"/>
<path d="M23.5 14.1675C23.125 13.9657 22.725 13.8269 22.3 13.7386C21.8375 13.6377 21.375 13.5746 20.9 13.5746C20.65 13.562 20.3875 13.5998 20.15 13.6629C19.9875 13.7007 19.85 13.789 19.7625 13.9152C19.7 14.0161 19.6625 14.1422 19.6625 14.2558C19.6625 14.3693 19.7125 14.4828 19.7875 14.5838C19.9 14.7225 20.05 14.836 20.2125 14.9243C20.5 15.0757 20.8 15.2145 21.1 15.3407C21.775 15.5677 22.425 15.8831 23.025 16.2615C23.4375 16.5264 23.775 16.8797 24.0125 17.3085C24.2125 17.7122 24.3125 18.1537 24.3 18.6078C24.3125 19.2007 24.1375 19.7936 23.8125 20.2856C23.4625 20.7902 22.975 21.1812 22.4125 21.4083C21.8 21.6732 21.05 21.812 20.15 21.812C19.575 21.812 19.0125 21.7615 18.45 21.648C18.0125 21.5723 17.575 21.4335 17.175 21.2443C17.0875 21.1938 17.025 21.1055 17.0375 21.0047V18.8097C17.0375 18.7718 17.05 18.7214 17.0875 18.6962C17.125 18.6709 17.1625 18.6835 17.2 18.7088C17.6875 18.9989 18.2 19.2007 18.75 19.3269C19.225 19.453 19.725 19.5161 20.225 19.5161C20.7 19.5161 21.0375 19.453 21.2625 19.3395C21.4625 19.2512 21.6 19.0367 21.6 18.8097C21.6 18.6331 21.5 18.4691 21.3 18.3051C21.1 18.1411 20.6875 17.9519 20.075 17.7122C19.4375 17.4852 18.85 17.1824 18.3 16.804C17.9125 16.5264 17.5875 16.1606 17.35 15.7317C17.15 15.328 17.05 14.8865 17.0625 14.445C17.0625 13.9026 17.2125 13.3853 17.4875 12.9186C17.8 12.414 18.2625 12.0103 18.8 11.7581C19.3875 11.4553 20.125 11.3165 21.0125 11.3165C21.525 11.3165 22.05 11.3544 22.5625 11.4301C22.9375 11.4805 23.3 11.5815 23.6375 11.7202C23.6875 11.7328 23.7375 11.7833 23.7625 11.8338C23.775 11.8842 23.7875 11.9347 23.7875 11.9852V14.0413C23.7875 14.0918 23.7625 14.1422 23.725 14.1675C23.6125 14.1927 23.55 14.1927 23.5 14.1675Z" fill="#31A8FF"/>
</g>
<defs>
<clipPath id="clip0_1641_5684">
<rect width="30" height="30" fill="white"/>
</clipPath>
</defs>
</svg>
