<svg width="24" height="28" viewBox="0 0 24 28" fill="none" xmlns="http://www.w3.org/2000/svg">
<path d="M1.92308 9.07884C0.973159 9.07837 0.203237 9.85017 0.203003 10.7994L0.204175 18.0031C0.204409 18.9556 0.9748 19.7244 1.92496 19.7242C2.87558 19.7242 3.64574 18.9554 3.6448 18.0034V10.7985C3.64433 9.84947 2.87347 9.07837 1.92308 9.07884ZM15.7964 2.60962L16.9971 0.417046C17.0611 0.302437 17.0192 0.156655 16.9032 0.0917335C16.786 0.0296241 16.6414 0.0718116 16.5793 0.187124L15.3664 2.40267C14.3459 1.94845 13.2038 1.69392 11.9953 1.69509C10.7902 1.69392 9.64855 1.94775 8.6323 2.39939L7.418 0.189468C7.35496 0.0729834 7.20964 0.030796 7.09503 0.0943116C6.97831 0.157358 6.93542 0.303374 7.00035 0.417749L8.20152 2.60892C5.84136 3.82603 4.24667 6.144 4.24808 8.80533L19.7445 8.80345C19.745 6.14306 18.1531 3.82978 15.7964 2.60962ZM8.47082 5.99798C8.11433 5.99728 7.82324 5.70712 7.82324 5.34853C7.82324 4.99158 8.11339 4.69814 8.47152 4.69837C8.83082 4.69814 9.12144 4.99158 9.12191 5.34853C9.12191 5.70666 8.83058 5.99775 8.47082 5.99798ZM15.5269 5.99681C15.1688 5.99728 14.8772 5.70689 14.8772 5.34736C14.8786 4.99111 15.1683 4.69767 15.5271 4.69626C15.8836 4.69744 16.1759 4.99111 16.1757 5.34759C16.1764 5.70619 15.885 5.99705 15.5269 5.99681ZM4.31136 9.40392L4.31394 20.5684C4.31324 21.5839 5.13472 22.4038 6.14956 22.4038L7.39949 22.4042L7.40089 26.2161C7.40066 27.1653 8.17222 27.9369 9.12003 27.9369C10.0707 27.9369 10.8408 27.1646 10.8411 26.2149L10.8401 22.404L13.1625 22.4033L13.1635 26.2149C13.1635 27.1635 13.9353 27.9367 14.8833 27.9348C15.8339 27.9355 16.6046 27.1632 16.6043 26.2135L16.6032 22.4028L17.8575 22.4019C18.87 22.4024 19.6936 21.5816 19.6941 20.5658L19.692 9.40134L4.31136 9.40392ZM23.7959 10.7968C23.7957 9.84642 23.0257 9.07627 22.0753 9.07673C21.1254 9.0758 20.3557 9.84712 20.3557 10.7975L20.3571 18.0017C20.3569 18.9528 21.1266 19.7216 22.0772 19.7218C23.0274 19.7216 23.7968 18.9528 23.7971 18.0008L23.7959 10.7968Z" fill="#A4C439"/>
</svg>
