<svg width="303" height="274" viewBox="0 0 303 274" fill="none" xmlns="http://www.w3.org/2000/svg">
<rect x="77.3554" y="48.1842" width="180" height="180" fill="#F1F1F1"/>
<path d="M110.688 176.857C110.215 176.857 109.845 176.724 109.58 176.459C109.334 176.194 109.211 175.824 109.211 175.351V158.127C109.211 157.635 109.343 157.265 109.608 157.019C109.874 156.754 110.243 156.621 110.717 156.621H117.51C119.67 156.621 121.337 157.133 122.512 158.156C123.686 159.179 124.274 160.628 124.274 162.504C124.274 163.717 124.008 164.759 123.478 165.631C122.947 166.502 122.171 167.165 121.147 167.62C120.143 168.075 118.931 168.302 117.51 168.302L117.765 167.904H118.504C119.262 167.904 119.916 168.094 120.465 168.473C121.034 168.852 121.545 169.458 122 170.292L124.444 174.839C124.634 175.18 124.719 175.512 124.7 175.834C124.7 176.137 124.586 176.383 124.359 176.573C124.151 176.762 123.847 176.857 123.45 176.857C123.033 176.857 122.692 176.772 122.426 176.601C122.18 176.412 121.953 176.137 121.744 175.777L118.76 170.263C118.362 169.524 117.907 169.032 117.396 168.785C116.884 168.52 116.212 168.387 115.378 168.387H112.166V175.351C112.166 175.824 112.043 176.194 111.797 176.459C111.551 176.724 111.181 176.857 110.688 176.857ZM112.166 166.171H117.026C118.466 166.171 119.556 165.867 120.295 165.261C121.034 164.655 121.403 163.755 121.403 162.561C121.403 161.386 121.034 160.496 120.295 159.889C119.556 159.283 118.466 158.98 117.026 158.98H112.166V166.171ZM134.307 176.914C132.792 176.914 131.484 176.629 130.385 176.061C129.305 175.474 128.462 174.649 127.856 173.588C127.269 172.508 126.975 171.229 126.975 169.752C126.975 168.312 127.269 167.052 127.856 165.972C128.443 164.892 129.249 164.048 130.272 163.442C131.295 162.836 132.46 162.533 133.767 162.533C134.734 162.533 135.596 162.694 136.354 163.016C137.112 163.319 137.756 163.774 138.286 164.38C138.836 164.967 139.243 165.687 139.509 166.54C139.793 167.393 139.935 168.349 139.935 169.411C139.935 169.733 139.84 169.979 139.651 170.149C139.461 170.301 139.177 170.377 138.798 170.377H129.249V168.615H138.002L137.519 169.013C137.519 168.065 137.377 167.26 137.093 166.597C136.827 165.934 136.42 165.432 135.871 165.091C135.34 164.731 134.677 164.551 133.881 164.551C132.991 164.551 132.233 164.759 131.607 165.176C131.001 165.593 130.537 166.171 130.215 166.909C129.893 167.648 129.732 168.511 129.732 169.496V169.666C129.732 171.334 130.12 172.594 130.897 173.446C131.693 174.28 132.839 174.697 134.336 174.697C134.904 174.697 135.501 174.621 136.126 174.469C136.771 174.318 137.377 174.062 137.945 173.702C138.267 173.513 138.552 173.427 138.798 173.446C139.063 173.465 139.272 173.551 139.423 173.702C139.594 173.854 139.698 174.043 139.736 174.271C139.774 174.498 139.736 174.735 139.622 174.981C139.509 175.208 139.31 175.417 139.025 175.606C138.381 176.042 137.633 176.374 136.78 176.601C135.927 176.809 135.103 176.914 134.307 176.914ZM147.924 176.914C147.091 176.914 146.229 176.819 145.338 176.629C144.466 176.44 143.661 176.118 142.922 175.663C142.676 175.493 142.505 175.303 142.411 175.095C142.316 174.886 142.278 174.678 142.297 174.469C142.335 174.242 142.42 174.053 142.553 173.901C142.704 173.731 142.884 173.626 143.093 173.588C143.32 173.551 143.557 173.598 143.803 173.731C144.542 174.147 145.253 174.441 145.935 174.612C146.617 174.763 147.29 174.839 147.953 174.839C148.957 174.839 149.715 174.659 150.226 174.299C150.738 173.939 150.994 173.456 150.994 172.849C150.994 172.357 150.823 171.978 150.482 171.713C150.141 171.428 149.63 171.211 148.947 171.059L146.247 170.519C145.073 170.273 144.182 169.837 143.576 169.212C142.97 168.586 142.666 167.791 142.666 166.824C142.666 165.953 142.903 165.195 143.377 164.551C143.851 163.906 144.514 163.414 145.366 163.073C146.219 162.713 147.204 162.533 148.322 162.533C149.156 162.533 149.942 162.637 150.681 162.845C151.42 163.054 152.102 163.366 152.727 163.783C152.974 163.916 153.135 164.096 153.211 164.323C153.286 164.532 153.296 164.74 153.239 164.948C153.201 165.157 153.106 165.346 152.955 165.517C152.803 165.668 152.614 165.763 152.386 165.801C152.178 165.82 151.941 165.763 151.676 165.631C151.107 165.271 150.539 165.015 149.971 164.863C149.421 164.712 148.872 164.636 148.322 164.636C147.318 164.636 146.56 164.825 146.049 165.204C145.556 165.564 145.31 166.057 145.31 166.682C145.31 167.156 145.461 167.544 145.764 167.847C146.067 168.151 146.541 168.368 147.185 168.501L149.885 169.041C151.117 169.287 152.045 169.704 152.671 170.292C153.315 170.879 153.637 171.675 153.637 172.679C153.637 173.986 153.116 175.019 152.074 175.777C151.032 176.535 149.649 176.914 147.924 176.914ZM163.339 176.914C161.823 176.914 160.516 176.629 159.417 176.061C158.337 175.474 157.494 174.649 156.888 173.588C156.3 172.508 156.007 171.229 156.007 169.752C156.007 168.312 156.3 167.052 156.888 165.972C157.475 164.892 158.28 164.048 159.303 163.442C160.327 162.836 161.492 162.533 162.799 162.533C163.765 162.533 164.628 162.694 165.385 163.016C166.143 163.319 166.788 163.774 167.318 164.38C167.868 164.967 168.275 165.687 168.54 166.54C168.824 167.393 168.967 168.349 168.967 169.411C168.967 169.733 168.872 169.979 168.682 170.149C168.493 170.301 168.209 170.377 167.83 170.377H158.28V168.615H167.034L166.551 169.013C166.551 168.065 166.409 167.26 166.124 166.597C165.859 165.934 165.452 165.432 164.902 165.091C164.372 164.731 163.709 164.551 162.913 164.551C162.022 164.551 161.264 164.759 160.639 165.176C160.033 165.593 159.569 166.171 159.247 166.909C158.924 167.648 158.763 168.511 158.763 169.496V169.666C158.763 171.334 159.152 172.594 159.929 173.446C160.724 174.28 161.871 174.697 163.368 174.697C163.936 174.697 164.533 174.621 165.158 174.469C165.802 174.318 166.409 174.062 166.977 173.702C167.299 173.513 167.583 173.427 167.83 173.446C168.095 173.465 168.303 173.551 168.455 173.702C168.625 173.854 168.73 174.043 168.768 174.271C168.805 174.498 168.768 174.735 168.654 174.981C168.54 175.208 168.341 175.417 168.057 175.606C167.413 176.042 166.664 176.374 165.812 176.601C164.959 176.809 164.135 176.914 163.339 176.914ZM173.545 176.857C173.072 176.857 172.712 176.734 172.465 176.487C172.219 176.222 172.096 175.862 172.096 175.407V164.039C172.096 163.565 172.219 163.205 172.465 162.959C172.712 162.713 173.053 162.589 173.489 162.589C173.943 162.589 174.284 162.713 174.512 162.959C174.758 163.205 174.881 163.565 174.881 164.039V166.114H174.597C174.9 164.977 175.459 164.115 176.274 163.527C177.089 162.94 178.131 162.599 179.4 162.504C179.741 162.485 180.006 162.571 180.196 162.76C180.404 162.949 180.518 163.243 180.537 163.641C180.575 164.039 180.49 164.361 180.281 164.607C180.073 164.835 179.751 164.967 179.315 165.005L178.775 165.062C177.543 165.176 176.605 165.564 175.961 166.227C175.317 166.891 174.995 167.8 174.995 168.956V175.407C174.995 175.862 174.872 176.222 174.625 176.487C174.398 176.734 174.038 176.857 173.545 176.857ZM186.993 176.914C186.027 176.914 185.155 176.724 184.379 176.345C183.621 175.966 183.024 175.455 182.588 174.811C182.152 174.166 181.934 173.437 181.934 172.622C181.934 171.599 182.19 170.794 182.702 170.206C183.232 169.6 184.094 169.174 185.288 168.927C186.501 168.662 188.13 168.529 190.176 168.529H191.512V170.292H190.205C188.841 170.292 187.761 170.358 186.965 170.491C186.169 170.623 185.601 170.851 185.26 171.173C184.937 171.476 184.776 171.902 184.776 172.452C184.776 173.172 185.023 173.759 185.515 174.214C186.008 174.649 186.69 174.867 187.562 174.867C188.263 174.867 188.879 174.706 189.409 174.384C189.94 174.043 190.356 173.588 190.66 173.02C190.982 172.452 191.143 171.798 191.143 171.059V167.791C191.143 166.711 190.915 165.934 190.461 165.46C190.006 164.986 189.257 164.749 188.215 164.749C187.609 164.749 186.974 164.825 186.311 164.977C185.667 165.128 184.994 165.384 184.293 165.744C183.971 165.896 183.696 165.943 183.469 165.886C183.242 165.829 183.062 165.706 182.929 165.517C182.796 165.308 182.721 165.091 182.702 164.863C182.702 164.617 182.759 164.38 182.872 164.153C183.005 163.925 183.223 163.755 183.526 163.641C184.36 163.243 185.184 162.959 185.999 162.788C186.813 162.618 187.581 162.533 188.301 162.533C189.57 162.533 190.612 162.732 191.427 163.129C192.261 163.527 192.876 164.134 193.274 164.948C193.672 165.763 193.871 166.815 193.871 168.103V175.407C193.871 175.862 193.757 176.222 193.53 176.487C193.303 176.734 192.971 176.857 192.535 176.857C192.119 176.857 191.787 176.734 191.541 176.487C191.294 176.222 191.171 175.862 191.171 175.407V173.56H191.427C191.275 174.261 190.991 174.867 190.574 175.379C190.176 175.872 189.674 176.251 189.068 176.516C188.462 176.781 187.77 176.914 186.993 176.914ZM203.935 176.914C202.514 176.914 201.283 176.62 200.241 176.033C199.217 175.426 198.422 174.583 197.853 173.503C197.285 172.404 197.001 171.116 197.001 169.638C197.001 168.539 197.162 167.554 197.484 166.682C197.806 165.792 198.261 165.043 198.848 164.437C199.454 163.831 200.184 163.366 201.036 163.044C201.908 162.703 202.874 162.533 203.935 162.533C204.598 162.533 205.29 162.637 206.01 162.845C206.749 163.035 207.431 163.357 208.056 163.812C208.303 163.963 208.454 164.153 208.511 164.38C208.587 164.588 208.596 164.806 208.54 165.034C208.502 165.261 208.397 165.46 208.227 165.631C208.075 165.782 207.886 165.877 207.658 165.915C207.431 165.934 207.185 165.867 206.92 165.716C206.465 165.394 206.001 165.166 205.527 165.034C205.053 164.882 204.598 164.806 204.163 164.806C203.481 164.806 202.874 164.92 202.344 165.147C201.832 165.356 201.396 165.668 201.036 166.085C200.676 166.483 200.402 166.985 200.212 167.592C200.042 168.198 199.956 168.889 199.956 169.666C199.956 171.22 200.316 172.442 201.036 173.333C201.775 174.204 202.817 174.64 204.163 174.64C204.598 174.64 205.053 174.574 205.527 174.441C206.001 174.308 206.465 174.081 206.92 173.759C207.185 173.607 207.431 173.551 207.658 173.588C207.886 173.626 208.066 173.731 208.198 173.901C208.35 174.053 208.445 174.242 208.483 174.469C208.54 174.678 208.53 174.896 208.454 175.123C208.378 175.351 208.217 175.54 207.971 175.692C207.365 176.127 206.702 176.44 205.982 176.629C205.281 176.819 204.598 176.914 203.935 176.914ZM212.513 176.857C212.058 176.857 211.707 176.734 211.461 176.487C211.215 176.222 211.092 175.862 211.092 175.407V157.872C211.092 157.398 211.215 157.038 211.461 156.792C211.707 156.545 212.058 156.422 212.513 156.422C212.967 156.422 213.318 156.545 213.564 156.792C213.83 157.038 213.962 157.398 213.962 157.872V165.744H213.564C213.981 164.683 214.635 163.887 215.525 163.357C216.416 162.807 217.439 162.533 218.595 162.533C219.694 162.533 220.603 162.741 221.323 163.158C222.062 163.556 222.612 164.172 222.972 165.005C223.332 165.82 223.512 166.853 223.512 168.103V175.407C223.512 175.862 223.388 176.222 223.142 176.487C222.896 176.734 222.545 176.857 222.091 176.857C221.617 176.857 221.257 176.734 221.011 176.487C220.764 176.222 220.641 175.862 220.641 175.407V168.274C220.641 167.08 220.404 166.208 219.931 165.659C219.476 165.109 218.756 164.835 217.771 164.835C216.615 164.835 215.686 165.195 214.985 165.915C214.303 166.635 213.962 167.601 213.962 168.814V175.407C213.962 176.374 213.479 176.857 212.513 176.857Z" fill="#0C0C0C" fill-opacity="0.9"/>
<path d="M132.187 116.576C131.391 116.576 130.576 116.509 129.743 116.377C128.928 116.263 128.142 116.093 127.384 115.865C126.645 115.638 125.982 115.354 125.394 115.013C124.977 114.785 124.684 114.492 124.513 114.132C124.343 113.753 124.276 113.374 124.314 112.995C124.371 112.616 124.513 112.284 124.74 112C124.987 111.697 125.29 111.507 125.65 111.432C126.029 111.337 126.446 111.403 126.9 111.631C127.677 112.066 128.52 112.388 129.43 112.597C130.358 112.805 131.277 112.909 132.187 112.909C133.57 112.909 134.555 112.701 135.143 112.284C135.73 111.848 136.024 111.308 136.024 110.664C136.024 110.115 135.815 109.679 135.398 109.357C134.982 109.035 134.252 108.76 133.21 108.533L129.998 107.851C128.179 107.472 126.825 106.827 125.934 105.918C125.063 104.989 124.627 103.777 124.627 102.28C124.627 101.333 124.826 100.471 125.224 99.6937C125.622 98.9169 126.18 98.2442 126.9 97.6758C127.62 97.1074 128.473 96.6716 129.458 96.3684C130.463 96.0653 131.562 95.9137 132.755 95.9137C133.816 95.9137 134.858 96.0463 135.882 96.3116C136.905 96.5579 137.805 96.9274 138.582 97.42C138.96 97.6474 139.216 97.9411 139.349 98.3011C139.5 98.6421 139.548 98.9927 139.491 99.3527C139.453 99.6937 139.311 99.9969 139.065 100.262C138.837 100.527 138.544 100.698 138.184 100.774C137.824 100.849 137.388 100.764 136.876 100.518C136.251 100.196 135.588 99.959 134.887 99.8074C134.186 99.6558 133.466 99.58 132.727 99.58C131.931 99.58 131.249 99.6842 130.68 99.8927C130.131 100.101 129.705 100.395 129.402 100.774C129.117 101.153 128.975 101.588 128.975 102.081C128.975 102.631 129.174 103.076 129.572 103.417C129.97 103.758 130.662 104.033 131.647 104.241L134.858 104.923C136.715 105.321 138.098 105.965 139.008 106.856C139.917 107.727 140.372 108.883 140.372 110.323C140.372 111.271 140.183 112.133 139.804 112.909C139.425 113.667 138.875 114.321 138.155 114.871C137.435 115.42 136.573 115.846 135.569 116.149C134.565 116.434 133.437 116.576 132.187 116.576ZM149.518 116.576C148.21 116.576 147.111 116.358 146.221 115.922C145.349 115.486 144.696 114.852 144.26 114.018C143.843 113.184 143.634 112.133 143.634 110.863V105.52H142.441C141.91 105.52 141.493 105.378 141.19 105.094C140.906 104.809 140.764 104.421 140.764 103.928C140.764 103.398 140.906 103 141.19 102.735C141.493 102.451 141.91 102.308 142.441 102.308H143.634V100.148C143.634 99.4284 143.824 98.8884 144.203 98.5284C144.582 98.1495 145.112 97.96 145.794 97.96C146.496 97.96 147.026 98.1495 147.386 98.5284C147.746 98.8884 147.926 99.4284 147.926 100.148V102.308H150.626C151.157 102.308 151.564 102.451 151.848 102.735C152.132 103 152.274 103.398 152.274 103.928C152.274 104.421 152.132 104.809 151.848 105.094C151.564 105.378 151.157 105.52 150.626 105.52H147.926V110.693C147.926 111.488 148.106 112.085 148.466 112.483C148.845 112.881 149.442 113.08 150.257 113.08C150.541 113.08 150.806 113.052 151.052 112.995C151.299 112.938 151.526 112.9 151.734 112.881C152 112.862 152.218 112.947 152.388 113.137C152.559 113.307 152.644 113.696 152.644 114.302C152.644 114.757 152.568 115.155 152.417 115.496C152.265 115.837 152 116.083 151.621 116.235C151.374 116.329 151.033 116.405 150.598 116.462C150.181 116.538 149.821 116.576 149.518 116.576ZM161.267 116.576C159.619 116.576 158.198 116.282 157.004 115.695C155.829 115.088 154.92 114.245 154.276 113.165C153.65 112.066 153.338 110.778 153.338 109.3C153.338 107.86 153.641 106.6 154.247 105.52C154.854 104.421 155.697 103.568 156.777 102.962C157.876 102.337 159.117 102.024 160.5 102.024C161.504 102.024 162.414 102.195 163.228 102.536C164.043 102.858 164.744 103.332 165.332 103.957C165.919 104.563 166.364 105.312 166.667 106.202C166.97 107.074 167.122 108.049 167.122 109.129C167.122 109.489 167.008 109.764 166.781 109.954C166.554 110.124 166.222 110.209 165.786 110.209H156.862V107.993H164.024L163.569 108.391C163.569 107.614 163.456 106.969 163.228 106.458C163.001 105.927 162.669 105.529 162.234 105.264C161.817 104.999 161.296 104.866 160.67 104.866C159.969 104.866 159.373 105.027 158.88 105.349C158.387 105.672 158.008 106.136 157.743 106.742C157.478 107.348 157.345 108.078 157.345 108.931V109.158C157.345 110.598 157.677 111.659 158.34 112.341C159.022 113.023 160.026 113.364 161.353 113.364C161.807 113.364 162.328 113.307 162.916 113.194C163.503 113.08 164.053 112.9 164.564 112.654C165 112.445 165.388 112.379 165.729 112.455C166.07 112.512 166.336 112.663 166.525 112.909C166.715 113.156 166.819 113.44 166.838 113.762C166.876 114.084 166.809 114.406 166.639 114.728C166.468 115.032 166.184 115.287 165.786 115.496C165.142 115.856 164.413 116.121 163.598 116.292C162.802 116.481 162.025 116.576 161.267 116.576ZM171.778 121.635C171.077 121.635 170.537 121.445 170.158 121.066C169.798 120.706 169.618 120.166 169.618 119.446V104.241C169.618 103.54 169.798 103.009 170.158 102.649C170.537 102.271 171.058 102.081 171.721 102.081C172.422 102.081 172.953 102.271 173.313 102.649C173.673 103.009 173.853 103.54 173.853 104.241V106.174L173.54 105.065C173.825 104.156 174.393 103.426 175.246 102.877C176.117 102.308 177.112 102.024 178.23 102.024C179.442 102.024 180.503 102.318 181.413 102.905C182.341 103.493 183.061 104.326 183.573 105.406C184.085 106.486 184.34 107.775 184.34 109.272C184.34 110.768 184.085 112.066 183.573 113.165C183.061 114.264 182.351 115.107 181.441 115.695C180.532 116.282 179.461 116.576 178.23 116.576C177.131 116.576 176.155 116.311 175.302 115.78C174.45 115.231 173.872 114.52 173.569 113.648H173.91V119.446C173.91 120.166 173.72 120.706 173.341 121.066C172.981 121.445 172.46 121.635 171.778 121.635ZM176.951 113.364C177.557 113.364 178.088 113.213 178.542 112.909C179.016 112.606 179.376 112.161 179.622 111.574C179.888 110.967 180.02 110.2 180.02 109.272C180.02 107.888 179.736 106.875 179.168 106.231C178.599 105.567 177.86 105.236 176.951 105.236C176.345 105.236 175.805 105.378 175.331 105.662C174.876 105.946 174.516 106.392 174.251 106.998C173.986 107.585 173.853 108.343 173.853 109.272C173.853 110.655 174.137 111.687 174.706 112.369C175.274 113.033 176.022 113.364 176.951 113.364ZM197.177 116.263C196.476 116.263 195.955 116.102 195.613 115.78C195.291 115.439 195.13 114.946 195.13 114.302C195.13 113.885 195.235 113.497 195.443 113.137C195.651 112.777 195.936 112.407 196.296 112.028L201.639 106.401C202.435 105.548 203.003 104.791 203.344 104.127C203.704 103.464 203.884 102.801 203.884 102.138C203.884 101.304 203.609 100.669 203.06 100.234C202.529 99.7979 201.752 99.58 200.729 99.58C200.18 99.58 199.611 99.6653 199.024 99.8358C198.456 99.9874 197.859 100.243 197.233 100.603C196.817 100.831 196.428 100.916 196.068 100.859C195.727 100.783 195.433 100.622 195.187 100.376C194.941 100.111 194.78 99.7979 194.704 99.4379C194.628 99.0779 194.666 98.7179 194.818 98.3579C194.969 97.9979 195.253 97.6948 195.67 97.4484C196.504 96.9369 197.413 96.5579 198.399 96.3116C199.384 96.0463 200.36 95.9137 201.326 95.9137C202.823 95.9137 204.083 96.1411 205.106 96.5958C206.129 97.0316 206.906 97.6758 207.437 98.5284C207.967 99.3811 208.232 100.423 208.232 101.655C208.232 102.451 208.109 103.227 207.863 103.985C207.617 104.743 207.228 105.511 206.698 106.287C206.186 107.045 205.504 107.86 204.651 108.732L199.678 113.791V112.654H207.38C207.986 112.654 208.441 112.805 208.744 113.108C209.066 113.412 209.227 113.857 209.227 114.444C209.227 115.032 209.066 115.486 208.744 115.808C208.441 116.112 207.986 116.263 207.38 116.263H197.177Z" fill="#0C0C0C" fill-opacity="0.9"/>
<path d="M31.1712 88.1207V6.44079C31.1712 3.98821 33.1594 2 35.612 2H117.292M31.1712 185.879V267.559C31.1712 270.012 33.1594 272 35.612 272H117.292M215.051 2H296.73C299.183 2 301.171 3.98821 301.171 6.44079V88.1207M301.171 185.879V267.559C301.171 270.012 299.183 272 296.73 272H215.051" stroke="#02060B" stroke-width="3.55263"/>
<path d="M62.2567 85.0855V37.5263C62.2567 35.0737 64.2449 33.0855 66.6975 33.0855H114.257M62.2567 189.086V236.645C62.2567 239.097 64.2449 241.086 66.6975 241.086H114.257M218.257 33.0855H265.816C268.269 33.0855 270.257 35.0737 270.257 37.5263V85.0855M270.257 189.086V236.645C270.257 239.097 268.269 241.086 265.816 241.086H218.257" stroke="#02060B" stroke-width="0.888158"/>
<rect x="0.0856628" y="105.914" width="60" height="60" fill="#02060B"/>
<path d="M15.5142 136.061C15.5142 132.564 15.5142 130.815 16.0274 129.416C16.8765 127.101 18.7007 125.277 21.0154 124.428C22.4146 123.914 24.1633 123.914 27.6606 123.914H32.5192C36.0166 123.914 37.7653 123.914 39.1644 124.428C41.4792 125.277 43.3034 127.101 44.1525 129.416C44.6656 130.815 44.6656 132.564 44.6656 136.061V136.061C44.6656 139.558 44.6656 141.307 44.1525 142.706C43.3034 145.021 41.4792 146.845 39.1644 147.694C37.7653 148.207 36.0166 148.207 32.5192 148.207H27.6606C24.1633 148.207 22.4146 148.207 21.0154 147.694C18.7007 146.845 16.8765 145.021 16.0274 142.706C15.5142 141.307 15.5142 139.558 15.5142 136.061V136.061Z" stroke="#FBFBFB" stroke-width="1.33224" stroke-linejoin="round"/>
<path d="M15.5141 129.583L20.8179 133.708C24.7608 136.774 26.7323 138.308 28.9843 138.607C29.7185 138.705 30.4623 138.705 31.1965 138.607C33.4485 138.307 35.4199 136.774 39.3627 133.707L44.6655 129.583" stroke="#FBFBFB" stroke-width="1.33224" stroke-linejoin="round"/>
</svg>
