<svg width="28" height="28" viewBox="0 0 28 28" fill="none" xmlns="http://www.w3.org/2000/svg">
<path fill-rule="evenodd" clip-rule="evenodd" d="M5.99996 0.166748C2.77829 0.166748 0.166626 2.77841 0.166626 6.00008V14.3334V21.6667C0.166626 24.8884 2.77829 27.5001 5.99996 27.5001H21.6666C24.8883 27.5001 27.5 24.8884 27.5 21.6667V14.3334V6.00008C27.5 2.77841 24.8883 0.166748 21.6666 0.166748H13.8333H5.99996ZM1.83329 6.00008C1.83329 3.69888 3.69876 1.83341 5.99996 1.83341H13.8333H21.6666C23.9678 1.83341 25.8333 3.69888 25.8333 6.00008V14.3334V21.6667C25.8333 23.9679 23.9678 25.8334 21.6666 25.8334H5.99996C3.69876 25.8334 1.83329 23.9679 1.83329 21.6667V14.3334V6.00008ZM15.5802 8.78358C15.6448 8.32788 15.3276 7.90618 14.872 7.84165C14.4163 7.77711 13.9945 8.09421 13.93 8.54992L12.4197 19.2166C12.3551 19.6723 12.6722 20.094 13.1279 20.1585C13.5836 20.223 14.0053 19.9059 14.0699 19.4502L15.5802 8.78358ZM11.2569 10.847C11.5866 10.5258 11.5935 9.99825 11.2724 9.66858C10.9512 9.33888 10.4236 9.33198 10.0939 9.65311L7.11056 12.5593C6.29643 13.3524 6.29643 14.6474 7.11056 15.4405L10.0939 18.3467C10.4236 18.6678 10.9512 18.6609 11.2724 18.3313C11.5935 18.0016 11.5866 17.474 11.2569 17.1528L8.27353 14.2467C8.13099 14.1078 8.13099 13.892 8.27353 13.7532L11.2569 10.847ZM17.906 9.65311C17.5763 9.33198 17.0487 9.33888 16.7276 9.66858C16.4064 9.99825 16.4133 10.5258 16.743 10.847L19.7264 13.7532C19.8689 13.892 19.8689 14.1078 19.7264 14.2467L16.743 17.1528C16.4133 17.474 16.4064 18.0016 16.7276 18.3313C17.0487 18.6609 17.5763 18.6678 17.906 18.3467L20.8894 15.4405C21.7035 14.6474 21.7035 13.3524 20.8894 12.5593L17.906 9.65311Z" fill="#02060B"/>
</svg>
