<svg width="32" height="32" viewBox="0 0 32 32" fill="none" xmlns="http://www.w3.org/2000/svg">
<g clip-path="url(#clip0_953_2166)">
<path d="M13.96 19.4335C13.96 19.4335 13.96 19.4869 13.96 19.5135V19.5669C13.9682 19.5946 13.9794 19.6214 13.9933 19.6469L14.0267 19.7069C14.0429 19.7341 14.0631 19.7589 14.0867 19.7802C14.0867 19.7802 14.0867 19.8135 14.0867 19.8269H14.12L14.1533 19.8669H14.1867L14.26 19.9069L14.3267 19.9402H14.3733C14.4242 19.9467 14.4758 19.9467 14.5267 19.9402C14.5798 19.9466 14.6335 19.9466 14.6867 19.9402L22.2333 18.0535C22.3411 18.026 22.4403 17.9719 22.5218 17.8962C22.6033 17.8205 22.6645 17.7256 22.7 17.6202L23.5933 14.9535L26.3133 12.2335C26.4375 12.1086 26.5072 11.9396 26.5072 11.7635C26.5072 11.5874 26.4375 11.4184 26.3133 11.2935L22.6667 7.59352C22.5418 7.46935 22.3728 7.39966 22.1967 7.39966C22.0205 7.39966 21.8516 7.46935 21.7267 7.59352L19.0067 10.3135L16.34 11.2069C16.2346 11.2423 16.1397 11.3036 16.064 11.3851C15.9883 11.4666 15.9342 11.5658 15.9067 11.6735L14 19.2202C14 19.2202 14 19.2735 14 19.3002L13.96 19.4335ZM22.16 9.00685L24.9933 11.8402L23.1067 13.7269L20.2733 10.8935L22.16 9.00685ZM17.06 12.3402L19.1533 11.6735L22.34 14.8602L21.6733 16.9535L16.82 18.1669L18.3533 16.6335C18.4562 16.6564 18.5613 16.6676 18.6667 16.6669C18.9304 16.6669 19.1882 16.5887 19.4074 16.4421C19.6267 16.2956 19.7976 16.0874 19.8985 15.8438C19.9994 15.6001 20.0258 15.332 19.9744 15.0734C19.9229 14.8148 19.796 14.5772 19.6095 14.3907C19.423 14.2042 19.1854 14.0773 18.9268 14.0258C18.6682 13.9744 18.4001 14.0008 18.1564 14.1017C17.9128 14.2026 17.7046 14.3735 17.558 14.5928C17.4115 14.812 17.3333 15.0698 17.3333 15.3335C17.3348 15.4483 17.3505 15.5625 17.38 15.6735L15.8467 17.2069L17.06 12.3402Z" fill="#02060B"/>
<path d="M30 0.666748H2C1.46957 0.666748 0.960859 0.877462 0.585786 1.25253C0.210714 1.62761 0 2.13631 0 2.66675L0 30.6667C0 30.8436 0.0702379 31.0131 0.195262 31.1382C0.320286 31.2632 0.489856 31.3334 0.666667 31.3334H31.3333C31.5101 31.3334 31.6797 31.2632 31.8047 31.1382C31.9298 31.0131 32 30.8436 32 30.6667V2.66675C32 2.13631 31.7893 1.62761 31.4142 1.25253C31.0391 0.877462 30.5304 0.666748 30 0.666748ZM1.33333 2.66675C1.33333 2.48994 1.40357 2.32037 1.5286 2.19534C1.65362 2.07032 1.82319 2.00008 2 2.00008H30C30.1768 2.00008 30.3464 2.07032 30.4714 2.19534C30.5964 2.32037 30.6667 2.48994 30.6667 2.66675V4.66675H1.33333V2.66675ZM30.6667 30.0001H1.33333V6.00008H30.6667V30.0001Z" fill="#02060B"/>
<path d="M3.33334 4.00008C3.70153 4.00008 4.00001 3.7016 4.00001 3.33341C4.00001 2.96522 3.70153 2.66675 3.33334 2.66675C2.96515 2.66675 2.66667 2.96522 2.66667 3.33341C2.66667 3.7016 2.96515 4.00008 3.33334 4.00008Z" fill="#02060B"/>
<path d="M5.99999 4.00008C6.36818 4.00008 6.66666 3.7016 6.66666 3.33341C6.66666 2.96522 6.36818 2.66675 5.99999 2.66675C5.63181 2.66675 5.33333 2.96522 5.33333 3.33341C5.33333 3.7016 5.63181 4.00008 5.99999 4.00008Z" fill="#02060B"/>
<path d="M8.66667 4.00008C9.03486 4.00008 9.33333 3.7016 9.33333 3.33341C9.33333 2.96522 9.03486 2.66675 8.66667 2.66675C8.29848 2.66675 8 2.96522 8 3.33341C8 3.7016 8.29848 4.00008 8.66667 4.00008Z" fill="#02060B"/>
<path d="M9.91333 22.1866C9.96 22.2666 10.0133 22.34 10.0667 22.42C9.99076 22.6231 9.96553 22.8416 9.99315 23.0567C10.0208 23.2717 10.1004 23.4768 10.2252 23.6541C10.35 23.8314 10.5161 23.9756 10.7092 24.0742C10.9023 24.1728 11.1165 24.2229 11.3333 24.22C11.4927 24.2183 11.6506 24.1889 11.8 24.1333L12.0333 24.2866L16.22 28.4733C16.282 28.5358 16.3557 28.5854 16.4369 28.6192C16.5182 28.6531 16.6053 28.6705 16.6933 28.6705C16.7813 28.6705 16.8685 28.6531 16.9497 28.6192C17.031 28.5854 17.1047 28.5358 17.1667 28.4733C17.2291 28.4113 17.2787 28.3376 17.3126 28.2564C17.3464 28.1751 17.3639 28.088 17.3639 28C17.3639 27.912 17.3464 27.8248 17.3126 27.7436C17.2787 27.6623 17.2291 27.5886 17.1667 27.5266L14.9067 25.2733C15.1333 25.2733 15.3533 25.3066 15.5733 25.3066C16.9162 25.3032 18.2268 24.8942 19.3333 24.1333C19.4829 24.1884 19.6407 24.2177 19.8 24.22C20.0648 24.2215 20.3241 24.1442 20.5448 23.9977C20.7655 23.8513 20.9376 23.6425 21.0392 23.3979C21.1407 23.1534 21.1671 22.8841 21.115 22.6244C21.0629 22.3647 20.9347 22.1265 20.7467 21.94C20.6228 21.816 20.4758 21.7177 20.3139 21.6506C20.1521 21.5835 19.9785 21.5489 19.8033 21.5489C19.6281 21.5489 19.4546 21.5835 19.2927 21.6506C19.1309 21.7177 18.9838 21.816 18.86 21.94C18.7123 22.0913 18.6017 22.2748 18.5369 22.4761C18.4721 22.6773 18.4549 22.8909 18.4867 23.1C17.6517 23.6476 16.6797 23.9497 15.6815 23.9721C14.6832 23.9945 13.6987 23.7362 12.84 23.2266L12.6333 23.02C12.655 22.8235 12.6328 22.6247 12.5682 22.438C12.5037 22.2512 12.3984 22.0811 12.26 21.94C12.1189 21.8016 11.9488 21.6963 11.762 21.6317C11.5752 21.5672 11.3764 21.5449 11.18 21.5666L10.98 21.36C10.4694 20.5019 10.21 19.5177 10.2312 18.5195C10.2524 17.5212 10.5534 16.5489 11.1 15.7133H11.3133C11.6645 15.7154 12.0023 15.5788 12.2533 15.3333C12.5017 15.0835 12.6411 14.7456 12.6411 14.3933C12.6411 14.0411 12.5017 13.7031 12.2533 13.4533C12.1295 13.3293 11.9824 13.231 11.8206 13.1639C11.6587 13.0968 11.4852 13.0623 11.31 13.0623C11.1348 13.0623 10.9613 13.0968 10.7994 13.1639C10.6375 13.231 10.4905 13.3293 10.3667 13.4533C10.1244 13.7082 9.9926 14.0484 10 14.4C10.0007 14.5601 10.0324 14.7186 10.0933 14.8666C9.18489 16.1691 8.77118 17.753 8.92666 19.3333L7.14 17.5466C7.01446 17.4211 6.8442 17.3506 6.66666 17.3506C6.48913 17.3506 6.31887 17.4211 6.19333 17.5466C6.06779 17.6722 5.99727 17.8424 5.99727 18.02C5.99727 18.1975 6.06779 18.3678 6.19333 18.4933L9.91333 22.1866Z" fill="#02060B"/>
</g>
<defs>
<clipPath id="clip0_953_2166">
<rect width="32" height="32" fill="white"/>
</clipPath>
</defs>
</svg>
