<svg width="70" height="70" viewBox="0 0 70 70" fill="none" xmlns="http://www.w3.org/2000/svg">
<path d="M9.00152 30.0641V41.2999C8.99961 43.5283 9.59349 45.7168 10.7217 47.6386C11.8498 49.5603 13.4712 51.1456 15.418 52.2301L17.3346 53.2995V57.5633C17.3346 57.9316 17.4809 58.2849 17.7414 58.5453C18.0018 58.8058 18.3551 58.9521 18.7234 58.9521H29.8342C30.2026 58.9521 30.5558 58.8058 30.8163 58.5453C31.0767 58.2849 31.2231 57.9316 31.2231 57.5633V47.1608C31.2231 43.4387 30.9175 42.0637 28.9037 40.036L25.4732 36.5917C24.636 35.8067 23.5553 35.3318 22.4108 35.2459C21.2663 35.16 20.1268 35.4682 19.1818 36.1195L17.7929 29.1752C17.5979 28.0745 16.994 27.0881 16.1023 26.414C15.2106 25.7398 14.097 25.4276 12.9848 25.5401C11.8725 25.6526 10.8439 26.1813 10.1052 27.0203C9.36649 27.8593 8.97224 28.9466 9.00152 30.0641ZM15.0708 29.7863L17.1679 40.2305C17.1679 40.3971 17.1679 40.5499 17.1679 40.7166C17.1611 40.8507 17.1611 40.9852 17.1679 41.1193C17.1679 41.2999 17.279 41.4804 17.3346 41.661L17.4457 41.9943C17.5384 42.196 17.6452 42.3909 17.7651 42.5776C17.8015 42.6546 17.8432 42.7288 17.8901 42.7998C18.0605 43.059 18.2559 43.3009 18.4735 43.522L21.7928 46.8414C22.0543 47.1029 22.409 47.2498 22.7789 47.2498C23.1487 47.2498 23.5034 47.1029 23.765 46.8414C24.0265 46.5798 24.1734 46.2251 24.1734 45.8553C24.1734 45.4854 24.0265 45.1307 23.765 44.8692L20.4456 41.5499C20.0555 41.1592 19.8364 40.6298 19.8364 40.0777C19.8364 39.5256 20.0555 38.9961 20.4456 38.6055C20.8414 38.2253 21.369 38.0129 21.9178 38.0129C22.4666 38.0129 22.9942 38.2253 23.39 38.6055L26.8204 42.0498C28.0843 43.3137 28.3343 43.8415 28.3343 47.2025V56.1744H20.1123V52.4801C20.1119 52.234 20.0461 51.9924 19.9216 51.7801C19.7971 51.5678 19.6185 51.3924 19.404 51.2718L16.7791 49.8829C15.251 49.0339 13.9801 47.7886 13.1002 46.2782C12.2203 44.7677 11.764 43.0479 11.7792 41.2999V30.0641C11.7994 29.6612 11.965 29.2793 12.2453 28.9892C12.5256 28.6992 12.9016 28.5206 13.3036 28.4867C13.7056 28.4528 14.1062 28.5658 14.4312 28.8048C14.7561 29.0438 14.9834 29.3925 15.0708 29.7863ZM54.5557 25.6198C53.5292 25.6169 52.5338 25.9716 51.7405 26.623C50.9471 27.2743 50.4055 28.1817 50.2086 29.1891L48.8197 36.1334C47.8756 35.4796 46.7356 35.1698 45.5904 35.2558C44.4452 35.3418 43.3643 35.8182 42.5283 36.6056L39.0978 40.0499C37.084 42.0637 36.7785 43.4387 36.7785 47.1608V57.5633C36.7785 57.9316 36.9248 58.2849 37.1852 58.5453C37.4457 58.8058 37.799 58.9521 38.1673 58.9521H49.2781C49.6464 58.9521 49.9997 58.8058 50.2601 58.5453C50.5206 58.2849 50.6669 57.9316 50.6669 57.5633V53.2995L52.5835 52.2301C54.5303 51.1456 56.1517 49.5603 57.2799 47.6386C58.408 45.7168 59.0019 43.5283 59 41.2999V30.0641C58.9963 28.8865 58.5269 27.7582 57.6942 26.9255C56.8616 26.0929 55.7333 25.6235 54.5557 25.6198ZM56.2223 41.2999C56.2251 43.0361 55.7628 44.7414 54.8836 46.2386C54.0043 47.7358 52.7402 48.9702 51.2225 49.8135L48.5975 51.2023C48.383 51.3229 48.2044 51.4984 48.0799 51.7107C47.9555 51.923 47.8896 52.1645 47.8892 52.4106V56.1744H39.5561V47.1608C39.5561 43.7998 39.8061 43.272 41.07 42.0082L44.5004 38.5638C44.8962 38.1836 45.4238 37.9712 45.9726 37.9712C46.5215 37.9712 47.049 38.1836 47.4448 38.5638C47.8349 38.9545 48.0541 39.4839 48.0541 40.036C48.0541 40.5881 47.8349 41.1176 47.4448 41.5082L44.1255 44.8275C43.8639 45.0891 43.717 45.4438 43.717 45.8136C43.717 46.1835 43.8639 46.5382 44.1255 46.7997C44.387 47.0612 44.7417 47.2081 45.1115 47.2081C45.4814 47.2081 45.8361 47.0612 46.0976 46.7997L49.417 43.4804C49.6297 43.255 49.8247 43.0136 50.0003 42.7582C50.052 42.6731 50.0983 42.585 50.1392 42.4943C50.2499 42.3213 50.3474 42.1403 50.4308 41.9526C50.4786 41.8392 50.5203 41.7233 50.5558 41.6054C50.5558 41.4249 50.6669 41.2582 50.7086 41.0638C50.7162 40.925 50.7162 40.7859 50.7086 40.6471C50.7086 40.4943 50.7086 40.3555 50.7086 40.2027L52.9307 29.7863C53.0181 29.3925 53.2454 29.0438 53.5704 28.8048C53.8953 28.5658 54.296 28.4528 54.6979 28.4867C55.0999 28.5206 55.4759 28.6992 55.7562 28.9892C56.0365 29.2793 56.2021 29.6612 56.2223 30.0641V41.2999ZM33.0286 39.1055C33.2882 39.36 33.6372 39.5025 34.0008 39.5025C34.3643 39.5025 34.7133 39.36 34.973 39.1055L49.2781 24.9809C50.1523 24.1134 50.8462 23.0813 51.3198 21.9443C51.7933 20.8073 52.0371 19.5878 52.0371 18.3561C52.0371 17.1245 51.7933 15.905 51.3198 14.7679C50.8462 13.6309 50.1523 12.5989 49.2781 11.7313C47.4897 9.98051 45.0866 9 42.5838 9C40.0811 9 37.678 9.98051 35.8896 11.7313L34.0008 13.5507L32.1119 11.7313C30.3235 9.98051 27.9204 9 25.4177 9C22.915 9 20.5118 9.98051 18.7234 11.7313C17.8429 12.5996 17.1437 13.6343 16.6664 14.7751C16.1891 15.916 15.9434 17.1403 15.9434 18.377C15.9434 19.6136 16.1891 20.838 16.6664 21.9788C17.1437 23.1197 17.8429 24.1543 18.7234 25.0226L33.0286 39.1055ZM20.6817 13.6757C21.9468 12.4314 23.6502 11.7341 25.4246 11.7341C27.1991 11.7341 28.9025 12.4314 30.1675 13.6757L33.0286 16.4534C33.2882 16.7079 33.6372 16.8504 34.0008 16.8504C34.3643 16.8504 34.7133 16.7079 34.973 16.4534L37.834 13.6757C39.1008 12.4347 40.8035 11.7397 42.5769 11.7397C44.3503 11.7397 46.053 12.4347 47.3198 13.6757C47.9392 14.2834 48.4312 15.0085 48.7671 15.8085C49.103 16.6086 49.276 17.4676 49.276 18.3353C49.276 19.203 49.103 20.062 48.7671 20.8621C48.4312 21.6621 47.9392 22.3872 47.3198 22.9949L34.0008 36.1611L20.6817 22.9949C20.0623 22.3872 19.5703 21.6621 19.2344 20.8621C18.8985 20.062 18.7255 19.203 18.7255 18.3353C18.7255 17.4676 18.8985 16.6086 19.2344 15.8085C19.5703 15.0085 20.0623 14.2834 20.6817 13.6757Z" fill="url(#paint0_linear_1746_6440)"/>
<path d="M29.8342 25.619H32.6119V28.3967C32.6119 28.7651 32.7582 29.1183 33.0186 29.3788C33.2791 29.6393 33.6324 29.7856 34.0007 29.7856C34.369 29.7856 34.7223 29.6393 34.9828 29.3788C35.2432 29.1183 35.3895 28.7651 35.3895 28.3967V25.619H38.1672C38.5356 25.619 38.8888 25.4727 39.1493 25.2123C39.4098 24.9518 39.5561 24.5985 39.5561 24.2302C39.5561 23.8618 39.4098 23.5086 39.1493 23.2481C38.8888 22.9877 38.5356 22.8413 38.1672 22.8413H35.3895V20.0637C35.3895 19.6953 35.2432 19.342 34.9828 19.0816C34.7223 18.8211 34.369 18.6748 34.0007 18.6748C33.6324 18.6748 33.2791 18.8211 33.0186 19.0816C32.7582 19.342 32.6119 19.6953 32.6119 20.0637V22.8413H29.8342C29.4658 22.8413 29.1126 22.9877 28.8521 23.2481C28.5916 23.5086 28.4453 23.8618 28.4453 24.2302C28.4453 24.5985 28.5916 24.9518 28.8521 25.2123C29.1126 25.4727 29.4658 25.619 29.8342 25.619Z" fill="url(#paint1_linear_1746_6440)"/>
<defs>
<linearGradient id="paint0_linear_1746_6440" x1="59" y1="33.9761" x2="9" y2="33.9761" gradientUnits="userSpaceOnUse">
<stop stop-color="#2058FF"/>
<stop offset="1" stop-color="#004BC2"/>
</linearGradient>
<linearGradient id="paint1_linear_1746_6440" x1="39.5561" y1="24.2302" x2="28.4453" y2="24.2302" gradientUnits="userSpaceOnUse">
<stop stop-color="#2058FF"/>
<stop offset="1" stop-color="#004BC2"/>
</linearGradient>
</defs>
</svg>
