<svg width="50" height="43" viewBox="0 0 50 43" fill="none" xmlns="http://www.w3.org/2000/svg">
<path d="M3.93701 15.8467H6.88977V18.701H3.93701V15.8467ZM8.66142 15.8467H11.5158V18.701H8.66142V15.8467ZM3.93701 20.3742H6.79135V23.327H3.93701V20.3742ZM8.66142 20.3742H11.6142V23.327H8.66142V20.3742ZM3.93701 25.0986H6.79135V27.953H3.93701V25.0986ZM8.66142 25.0986H11.6142V27.953H8.66142V25.0986ZM3.93701 29.5278H6.79135V32.4805H3.93701V29.5278ZM8.66142 29.5278H11.6142V32.4805H8.66142V29.5278ZM3.93701 34.2522H6.79135V37.1065H3.93701V34.2522ZM8.66142 34.2522H11.6142V37.1065H8.66142V34.2522Z" fill="url(#paint0_linear_1746_6463)"/>
<path d="M50 11.3189H36.3189V0H13.6811V11.3189H0V42.815H50V11.3189ZM13.6811 41.0433H1.67323V13.0906H13.6811L13.6811 41.0433ZM28.5433 41.1417H21.4567V30.8071H28.5433V41.1417ZM19.7835 29.0354V41.1417H15.4528V1.67323H34.5472L34.4488 41.1417H30.315V29.0354H19.7835V29.0354ZM48.2284 41.0433H36.3189V13.0906H48.2284V41.0433Z" fill="url(#paint1_linear_1746_6463)"/>
<path d="M38.484 15.8465H41.3384V18.7008H38.484V15.8465ZM43.11 15.8465H46.0628V18.7008H43.11V15.8465ZM38.3856 20.374H41.3384V23.3268H38.3856V20.374ZM43.2084 20.374H46.0628V23.3268H43.2084V20.374ZM38.3856 25.0984H41.3384V27.9528H38.3856V25.0984ZM43.2084 25.0984H46.0628V27.9528H43.2084V25.0984ZM38.3856 29.5276H41.3384V32.4803H38.3856V29.5276ZM43.2084 29.5276H46.0628V32.4803H43.2084V29.5276ZM38.3856 34.252H41.3384V37.1063H38.3856V34.252ZM43.2084 34.252H46.0628V37.1063H43.2084V34.252ZM17.7163 13.8779H20.6691V16.7323H17.7163V13.8779ZM29.1336 13.8779H32.0864V16.7323H29.1336V13.8779ZM17.7163 18.4055H20.6691V21.3583H17.7163V18.4055ZM29.2321 18.4055H32.0864V21.3583H29.2321V18.4055ZM17.7163 23.1299H20.6691V25.9843H17.7163V23.1299ZM29.2321 23.1299H32.0864V25.9843H29.2321V23.1299ZM23.425 13.7795H26.3777V16.7323H23.425V13.7795ZM17.7163 9.25196H20.6691V12.1063H17.7163V9.25196ZM29.1336 9.25196H32.0864V12.1063H29.1336V9.25196ZM23.425 9.25196H26.3777V12.1063H23.425V9.25196ZM17.7163 4.62598H20.6691V7.48031H17.7163V4.62598ZM29.1336 4.62598H32.0864V7.48031H29.1336V4.62598ZM23.425 4.62598H26.3777V7.48031H23.425V4.62598ZM23.425 18.4055H26.3777V21.2598H23.425V18.4055ZM23.425 23.0315H26.3777V25.9843H23.425V23.0315Z" fill="url(#paint2_linear_1746_6463)"/>
<defs>
<linearGradient id="paint0_linear_1746_6463" x1="11.6142" y1="26.4766" x2="3.93701" y2="26.4766" gradientUnits="userSpaceOnUse">
<stop stop-color="#2058FF"/>
<stop offset="1" stop-color="#004BC2"/>
</linearGradient>
<linearGradient id="paint1_linear_1746_6463" x1="50" y1="21.4075" x2="0" y2="21.4075" gradientUnits="userSpaceOnUse">
<stop stop-color="#2058FF"/>
<stop offset="1" stop-color="#004BC2"/>
</linearGradient>
<linearGradient id="paint2_linear_1746_6463" x1="46.0628" y1="20.8661" x2="17.7163" y2="20.8661" gradientUnits="userSpaceOnUse">
<stop stop-color="#2058FF"/>
<stop offset="1" stop-color="#004BC2"/>
</linearGradient>
</defs>
</svg>
