<svg width="40" height="40" viewBox="0 0 40 40" fill="none" xmlns="http://www.w3.org/2000/svg">
<path d="M34.0912 22.9964H34.0887L23.2387 23.9602C22.3893 23.1658 21.2524 22.6758 20.0006 22.6758C18.7499 22.6758 17.6137 23.1652 16.7643 23.9583L5.85618 22.9939C4.06118 22.9939 3.25806 25.3889 3.25806 27.7627C3.25806 30.1352 4.06056 32.5289 5.90868 32.5289H5.91118L12.4724 31.9495L11.6993 32.722C11.4981 32.9227 11.4581 33.2339 11.6018 33.4795C11.7456 33.7252 12.0368 33.8433 12.3106 33.7658L15.2449 32.9395L14.8287 35.6108C14.7868 35.882 14.9262 36.1489 15.1737 36.2689C15.2606 36.3114 15.3543 36.332 15.4462 36.332C15.6162 36.332 15.7831 36.2633 15.9043 36.1327L19.5981 32.1589C19.7306 32.1702 19.8637 32.1795 19.9993 32.1795C20.1349 32.1795 20.2681 32.1702 20.4006 32.1589L24.0943 36.1327C24.2156 36.2633 24.3824 36.332 24.5524 36.332C24.6443 36.332 24.7381 36.312 24.8249 36.2689C25.0724 36.1495 25.2118 35.882 25.1699 35.6108L24.7537 32.9395L27.6881 33.7658C27.9631 33.8439 28.2531 33.7252 28.3968 33.4795C28.5406 33.2339 28.5006 32.9227 28.2993 32.722L27.5256 31.9495L34.1437 32.5314C35.9387 32.5314 36.7418 30.1364 36.7418 27.7627C36.7418 25.3902 35.9393 22.9964 34.0912 22.9964ZM5.85618 31.2814C5.11306 31.2814 4.50806 29.7033 4.50806 27.7627C4.50806 25.822 5.11306 24.2439 5.80118 24.2414L15.8449 25.1289C15.4662 25.8108 15.2493 26.5939 15.2493 27.4277C15.2493 27.9527 15.3387 28.4564 15.4962 28.9295L13.8506 30.5733L5.85618 31.2814ZM16.3781 33.787L16.6299 32.1702C16.6624 31.9595 16.5862 31.747 16.4268 31.6064C16.2674 31.4652 16.0481 31.4164 15.8424 31.472L14.2774 31.9127L14.6024 31.5883C14.6081 31.582 14.6149 31.577 14.6199 31.5708L16.0818 30.1102C16.6037 30.8695 17.3399 31.4695 18.2031 31.8239L16.3781 33.787ZM16.4987 27.4277C16.4987 26.5189 16.8493 25.6927 17.4193 25.0695C17.4356 25.0552 17.4481 25.0383 17.4624 25.022C18.1012 24.3483 19.0012 23.9258 19.9999 23.9258C21.9306 23.9258 23.5012 25.497 23.5012 27.4277C23.5012 29.3583 21.9306 30.9283 19.9999 30.9283C18.0693 30.9283 16.4987 29.3583 16.4987 27.4277ZM24.1568 31.4714C23.9518 31.4158 23.7324 31.4645 23.5724 31.6058C23.4137 31.747 23.3368 31.9589 23.3693 32.1695L23.6212 33.7864L21.7962 31.8227C22.6593 31.4683 23.3962 30.8689 23.9174 30.1089L25.3793 31.5695C25.3849 31.5758 25.3912 31.5808 25.3968 31.587L25.7218 31.9114L24.1568 31.4714ZM35.0481 30.3677C34.8718 30.7845 34.5712 31.2814 34.1987 31.2839L26.1499 30.5733L24.5043 28.9295C24.6624 28.457 24.7512 27.9533 24.7512 27.4277C24.7512 26.5952 24.5343 25.8127 24.1568 25.1314L34.1437 24.2439C34.8868 24.2439 35.4918 25.822 35.4918 27.7627C35.4918 28.752 35.3299 29.7008 35.0481 30.3677Z" fill="black"/>
<path d="M20.0001 25C18.662 25 17.5732 26.0888 17.5732 27.4275C17.5732 28.7657 18.662 29.8544 20.0001 29.8544C21.3382 29.8544 22.427 28.7657 22.427 27.4275C22.427 26.0888 21.3382 25 20.0001 25ZM20.0001 28.6044C19.3507 28.6044 18.8232 28.0763 18.8232 27.4275C18.8232 26.7782 19.3507 26.25 20.0001 26.25C20.6495 26.25 21.177 26.7782 21.177 27.4275C21.177 28.0763 20.6495 28.6044 20.0001 28.6044ZM5.45258 12.0888L11.4101 14.7207V19.3625C11.4101 20.4219 12.9351 20.8057 14.427 21.0413C15.9026 21.2744 17.882 21.4025 20.0001 21.4025C23.9188 21.4025 28.5901 21.0488 28.5901 19.3625V14.7207L30.4438 13.9019V14.4944C30.0026 14.7663 29.7007 15.3125 29.6882 15.9682L29.3663 18.5738C29.3445 18.7519 29.4001 18.93 29.5188 19.0644C29.637 19.1988 29.8076 19.2757 29.987 19.2757H32.1513C32.3307 19.2757 32.5013 19.1988 32.6195 19.0644C32.7382 18.93 32.7938 18.7519 32.772 18.5738L32.4501 15.9682C32.4376 15.3125 32.1357 14.7657 31.6945 14.4944V13.3494L34.5482 12.0888C34.7745 11.9888 34.9207 11.7644 34.9207 11.5169C34.9207 11.2694 34.7751 11.0457 34.5488 10.9457L20.2532 4.62129C20.092 4.54941 19.9082 4.54941 19.747 4.62129L5.45195 10.9457C5.2257 11.0457 5.08008 11.27 5.08008 11.5169C5.08008 11.7644 5.22633 11.9888 5.45258 12.0888ZM30.6938 18.0257L30.9332 16.0863C30.9363 16.0607 30.9376 16.035 30.9376 16.0094C30.9376 15.7882 31.0151 15.6363 31.0682 15.5775C31.1213 15.6369 31.1988 15.7888 31.1988 16.0094C31.1988 16.035 31.2001 16.0607 31.2032 16.0863L31.4426 18.0257H30.6938ZM12.6595 12.6419C12.7688 12.1732 15.3151 11.3357 20.0001 11.3357C24.6851 11.3357 27.2313 12.1732 27.3401 12.64V17.8825C25.4407 16.9807 21.8482 16.8507 20.0001 16.8507C18.152 16.8507 14.5588 16.9807 12.6601 17.8825L12.6595 12.6419ZM12.7101 19.2882C13.0982 18.8425 15.4613 18.1007 20.0001 18.1007C24.5601 18.1007 26.9226 18.8494 27.2926 19.2869C26.7307 19.6594 24.2126 20.1519 20.0001 20.1519C15.7938 20.1519 13.277 19.6613 12.7101 19.2882ZM31.6938 11.9825V11.0494L32.7495 11.5163L31.6938 11.9825ZM20.0001 5.87566L30.4438 10.4957V12.5338L28.5901 13.3525V12.6388C28.5901 10.2688 22.0151 10.0844 20.0001 10.0844C17.9851 10.0844 11.4101 10.2688 11.4101 12.6388V13.3525L7.2507 11.515L20.0001 5.87566Z" fill="black"/>
</svg>
