<svg width="40" height="34" viewBox="0 0 40 34" fill="none" xmlns="http://www.w3.org/2000/svg">
<g clip-path="url(#clip0_1715_5609)">
<path d="M3.14966 12.584H5.51187V14.8507H3.14966V12.584ZM6.92918 12.584H9.21265V14.8507H6.92918V12.584ZM3.14966 16.1794H5.43313V18.5242H3.14966V16.1794ZM6.92918 16.1794H9.29139V18.5242H6.92918V16.1794ZM3.14966 19.9311H5.43313V22.1978H3.14966V19.9311ZM6.92918 19.9311H9.29139V22.1978H6.92918V19.9311ZM3.14966 23.4483H5.43313V25.7932H3.14966V23.4483ZM6.92918 23.4483H9.29139V25.7932H6.92918V23.4483ZM3.14966 27.2001H5.43313V29.4668H3.14966V27.2001ZM6.92918 27.2001H9.29139V29.4668H6.92918V27.2001Z" fill="#282D35"/>
<path d="M40 8.98851H29.0551V0H10.9449V8.98851H0V34H40V8.98851ZM10.9449 32.5931H1.33858V10.3954H10.9449L10.9449 32.5931ZM22.8346 32.6713H17.1653V24.4644H22.8346V32.6713ZM15.8268 23.0575V32.6713H12.3622V1.32873H27.6378L27.5591 32.6713H24.252V23.0575H15.8268V23.0575ZM38.5827 32.5931H29.0551V10.3954H38.5827V32.5931Z" fill="#282D35"/>
<path d="M30.7875 12.5837H33.071V14.8504H30.7875V12.5837ZM34.4883 12.5837H36.8505V14.8504H34.4883V12.5837ZM30.7088 16.1791H33.071V18.5239H30.7088V16.1791ZM34.567 16.1791H36.8505V18.5239H34.567V16.1791ZM30.7088 19.9308H33.071V22.1975H30.7088V19.9308ZM34.567 19.9308H36.8505V22.1975H34.567V19.9308ZM30.7088 23.4481H33.071V25.7929H30.7088V23.4481ZM34.567 23.4481H36.8505V25.7929H34.567V23.4481ZM30.7088 27.1998H33.071V29.4665H30.7088V27.1998ZM34.567 27.1998H36.8505V29.4665H34.567V27.1998ZM14.1733 11.0205H16.5355V13.2871H14.1733V11.0205ZM23.3072 11.0205H25.6694V13.2871H23.3072V11.0205ZM14.1733 14.6159H16.5355V16.9607H14.1733V14.6159ZM23.3859 14.6159H25.6694V16.9607H23.3859V14.6159ZM14.1733 18.3676H16.5355V20.6343H14.1733V18.3676ZM23.3859 18.3676H25.6694V20.6343H23.3859V18.3676ZM18.7403 10.9423H21.1025V13.2871H18.7403V10.9423ZM14.1733 7.3469H16.5355V9.61357H14.1733V7.3469ZM23.3072 7.3469H25.6694V9.61357H23.3072V7.3469ZM18.7403 7.3469H21.1025V9.61357H18.7403V7.3469ZM14.1733 3.67334H16.5355V5.94001H14.1733V3.67334ZM23.3072 3.67334H25.6694V5.94001H23.3072V3.67334ZM18.7403 3.67334H21.1025V5.94001H18.7403V3.67334ZM18.7403 14.6159H21.1025V16.8825H18.7403V14.6159ZM18.7403 18.2894H21.1025V20.6343H18.7403V18.2894Z" fill="#282D35"/>
</g>
<defs>
<clipPath id="clip0_1715_5609">
<rect width="40" height="34" fill="white"/>
</clipPath>
</defs>
</svg>
