<svg width="40" height="40" viewBox="0 0 40 40" fill="none" xmlns="http://www.w3.org/2000/svg">
<path d="M6.25 22.9062V36.875C6.25 37.0408 6.31585 37.1997 6.43306 37.3169C6.55027 37.4342 6.70924 37.5 6.875 37.5H33.125C33.2908 37.5 33.4497 37.4342 33.5669 37.3169C33.6842 37.1997 33.75 37.0408 33.75 36.875V22.9062C34.4804 22.648 35.113 22.1699 35.5606 21.5375C36.0083 20.9052 36.2491 20.1497 36.25 19.375V18.125C36.2492 18.0546 36.2365 17.9849 36.2125 17.9188L33.7125 11.6687C33.6699 11.5468 33.5905 11.441 33.4853 11.366C33.3801 11.2911 33.2542 11.2505 33.125 11.25H32.5V8.75C32.5 8.58424 32.4342 8.42527 32.3169 8.30806C32.1997 8.19085 32.0408 8.125 31.875 8.125H26.25C26.25 6.4674 25.5915 4.87769 24.4194 3.70558C23.2473 2.53348 21.6576 1.875 20 1.875C18.3424 1.875 16.7527 2.53348 15.5806 3.70558C14.4085 4.87769 13.75 6.4674 13.75 8.125H8.125C7.95924 8.125 7.80027 8.19085 7.68306 8.30806C7.56585 8.42527 7.5 8.58424 7.5 8.75V11.25H6.875C6.74983 11.2499 6.6275 11.2873 6.52387 11.3576C6.42023 11.4278 6.34007 11.5275 6.29375 11.6437L3.79375 17.8937C3.76466 17.9674 3.74981 18.0458 3.75 18.125V19.375C3.75089 20.1497 3.99171 20.9052 4.43938 21.5375C4.88704 22.1699 5.51956 22.648 6.25 22.9062ZM5 19.375V18.75H10V19.375C10 20.038 9.73661 20.6739 9.26777 21.1428C8.79893 21.6116 8.16304 21.875 7.5 21.875C6.83696 21.875 6.20108 21.6116 5.73223 21.1428C5.26339 20.6739 5 20.038 5 19.375ZM16.8063 12.5L16.3063 17.5H11.4625L12.9625 12.5H16.8063ZM27.0313 12.5L28.5313 17.5H23.6938L23.1938 12.5H27.0313ZM16.25 19.375C16.25 20.038 15.9866 20.6739 15.5178 21.1428C15.0489 21.6116 14.413 21.875 13.75 21.875C13.087 21.875 12.4511 21.6116 11.9822 21.1428C11.5134 20.6739 11.25 20.038 11.25 19.375V18.75H16.25V19.375ZM17.5 18.75H22.5V19.375C22.5 20.038 22.2366 20.6739 21.7678 21.1428C21.2989 21.6116 20.663 21.875 20 21.875C19.337 21.875 18.7011 21.6116 18.2322 21.1428C17.7634 20.6739 17.5 20.038 17.5 19.375V18.75ZM23.75 18.75H28.75V19.375C28.75 20.038 28.4866 20.6739 28.0178 21.1428C27.5489 21.6116 26.913 21.875 26.25 21.875C25.587 21.875 24.9511 21.6116 24.4822 21.1428C24.0134 20.6739 23.75 20.038 23.75 19.375V18.75ZM21.9313 12.5L22.4313 17.5H17.5688L18.0688 12.5H21.9313ZM11.25 36.25V29.375C11.25 28.5462 11.5792 27.7513 12.1653 27.1653C12.7513 26.5792 13.5462 26.25 14.375 26.25C15.2038 26.25 15.9987 26.5792 16.5847 27.1653C17.1708 27.7513 17.5 28.5462 17.5 29.375V36.25H11.25ZM32.5 36.25H18.75V29.375C18.75 28.2147 18.2891 27.1019 17.4686 26.2814C16.6481 25.4609 15.5353 25 14.375 25C13.2147 25 12.1019 25.4609 11.2814 26.2814C10.4609 27.1019 10 28.2147 10 29.375V36.25H7.5V23.125C8.1192 23.1245 8.72866 22.9708 9.27395 22.6774C9.81925 22.384 10.2834 21.9602 10.625 21.4438C10.9671 21.9594 11.4314 22.3825 11.9767 22.6751C12.522 22.9677 13.1312 23.1209 13.75 23.1209C14.3688 23.1209 14.978 22.9677 15.5233 22.6751C16.0686 22.3825 16.5329 21.9594 16.875 21.4438C17.2171 21.9594 17.6814 22.3825 18.2267 22.6751C18.772 22.9677 19.3812 23.1209 20 23.1209C20.6188 23.1209 21.228 22.9677 21.7733 22.6751C22.3186 22.3825 22.7829 21.9594 23.125 21.4438C23.4671 21.9594 23.9314 22.3825 24.4767 22.6751C25.022 22.9677 25.6312 23.1209 26.25 23.1209C26.8688 23.1209 27.478 22.9677 28.0233 22.6751C28.5686 22.3825 29.0329 21.9594 29.375 21.4438C29.7166 21.9602 30.1808 22.384 30.7261 22.6774C31.2713 22.9708 31.8808 23.1245 32.5 23.125V36.25ZM35 19.375C35 20.038 34.7366 20.6739 34.2678 21.1428C33.7989 21.6116 33.163 21.875 32.5 21.875C31.837 21.875 31.2011 21.6116 30.7322 21.1428C30.2634 20.6739 30 20.038 30 19.375V18.75H35V19.375ZM34.7 17.5H29.8375L28.3375 12.5H32.7125L34.7 17.5ZM8.75 9.375H14.375C14.5408 9.375 14.6997 9.30915 14.8169 9.19194C14.9342 9.07473 15 8.91576 15 8.75C15 7.42392 15.5268 6.15215 16.4645 5.21447C17.4022 4.27678 18.6739 3.75 20 3.75C21.3261 3.75 22.5979 4.27678 23.5355 5.21447C24.4732 6.15215 25 7.42392 25 8.75C25 8.91576 25.0658 9.07473 25.1831 9.19194C25.3003 9.30915 25.4592 9.375 25.625 9.375H31.25V11.25H8.75V9.375ZM7.3 12.5H11.675L10.175 17.5H5.3L7.3 12.5Z" fill="black"/>
<path d="M13.125 30.625C12.9592 30.625 12.8003 30.6908 12.6831 30.8081C12.5658 30.9253 12.5 31.0842 12.5 31.25V32.5C12.5 32.6658 12.5658 32.8247 12.6831 32.9419C12.8003 33.0592 12.9592 33.125 13.125 33.125C13.2908 33.125 13.4497 33.0592 13.5669 32.9419C13.6842 32.8247 13.75 32.6658 13.75 32.5V31.25C13.75 31.0842 13.6842 30.9253 13.5669 30.8081C13.4497 30.6908 13.2908 30.625 13.125 30.625ZM29.375 25H21.875C21.7092 25 21.5503 25.0658 21.4331 25.1831C21.3158 25.3003 21.25 25.4592 21.25 25.625V33.125C21.25 33.2908 21.3158 33.4497 21.4331 33.5669C21.5503 33.6842 21.7092 33.75 21.875 33.75H29.375C29.5408 33.75 29.6997 33.6842 29.8169 33.5669C29.9342 33.4497 30 33.2908 30 33.125V25.625C30 25.4592 29.9342 25.3003 29.8169 25.1831C29.6997 25.0658 29.5408 25 29.375 25ZM28.75 32.5H22.5V26.25H28.75V32.5Z" fill="black"/>
</svg>
