<svg width="40" height="42" viewBox="0 0 40 42" fill="none" xmlns="http://www.w3.org/2000/svg">
<g clip-path="url(#clip0_1641_7265)">
<path d="M35.1915 22.3757V17.9657H36.5566C35.9786 14.2732 34.4202 11.1398 31.8229 8.55051C29.3682 6.10363 26.4215 4.6127 22.9871 3.99451V6.56589H16.4834V4.20407C13.2551 4.9936 10.5273 6.56343 8.2793 8.96408C5.91549 11.4886 4.4955 14.4847 3.95409 17.9621H5.41066V22.3744H1.06472V17.967C1.47505 17.967 1.87867 17.9485 2.28046 17.9731C2.57677 17.991 2.69932 17.9041 2.74688 17.5892C3.13587 15.003 4.05347 12.6171 5.49541 10.4464C7.43121 7.53293 9.99439 5.37204 13.1795 3.96863C13.2526 3.93658 13.3234 3.90021 13.4788 3.82625C13.3264 3.80591 13.2575 3.78804 13.1886 3.78804C10.4163 3.7868 7.64338 3.7905 4.87108 3.78311C4.64793 3.78311 4.53269 3.83734 4.44672 4.06169C4.03152 5.14152 2.9054 5.71287 1.76465 5.44476C0.635488 5.17912 -0.0961521 4.10607 0.0105455 2.8703C0.10383 1.78739 1.00862 0.909104 2.11401 0.830213C3.20477 0.751937 4.06078 1.27768 4.4705 2.30327C4.54489 2.49002 4.6461 2.51468 4.81254 2.51406C6.28619 2.51036 7.75923 2.51344 9.23287 2.51344C11.5577 2.51344 13.8818 2.51221 16.2066 2.51159C16.2773 2.51159 16.3481 2.50543 16.4597 2.49988V0H22.9773V2.49372C23.1182 2.50112 23.2255 2.51221 23.3328 2.51221C27.255 2.51344 31.1772 2.51159 35.0994 2.51776C35.3421 2.51776 35.4652 2.46044 35.5634 2.2102C35.9554 1.21358 36.9547 0.685989 38.0693 0.84747C39.0454 0.988612 39.8484 1.81698 39.9794 2.81853C40.1343 3.99883 39.4002 5.14707 38.3119 5.42566C37.1157 5.73198 35.9877 5.16741 35.5335 4.02533C35.4683 3.86138 35.3957 3.78434 35.2073 3.78496C32.535 3.79112 29.8627 3.78927 27.1904 3.78989C27.1715 3.78989 27.152 3.80036 27.0611 3.82748C27.2154 3.90576 27.3215 3.96493 27.4312 4.01485C31.5272 5.88052 34.5226 8.87409 36.4121 12.9925C37.0992 14.4908 37.5492 16.0656 37.787 17.6995C37.8168 17.906 37.8955 17.9756 38.0997 17.9701C38.5741 17.9571 39.049 17.9657 39.5447 17.9657V22.3757H35.1921H35.1915ZM21.6927 5.2876V1.28322H17.7565C17.7467 1.35225 17.7364 1.39232 17.7364 1.43238C17.7382 2.64349 17.7461 3.85522 17.7388 5.06633C17.7376 5.31287 17.8638 5.32026 18.0455 5.31903C19.1728 5.31225 20.2995 5.31225 21.4269 5.30855C21.5159 5.30855 21.6043 5.29499 21.6927 5.2876ZM38.7302 3.16923C38.7332 2.55844 38.2558 2.06783 37.6589 2.06906C37.0968 2.07029 36.6273 2.55474 36.6218 3.13841C36.6163 3.74613 37.1053 4.24783 37.6955 4.24043C38.2595 4.23304 38.7271 3.74859 38.7302 3.16923ZM3.37243 3.17478C3.37914 2.57754 2.91272 2.07892 2.33899 2.06968C1.75612 2.05981 1.27384 2.5344 1.26287 3.12855C1.2519 3.74551 1.71832 4.22749 2.32436 4.22626C2.90113 4.22502 3.36573 3.75845 3.37182 3.17539L3.37243 3.17478ZM4.14858 19.2712H2.31034C2.31034 19.8413 2.30363 20.3843 2.31948 20.926C2.32131 20.9914 2.43898 21.0881 2.51824 21.1079C2.64262 21.1387 2.78041 21.1165 2.91211 21.1165C3.32366 21.1165 3.7352 21.1165 4.14797 21.1165V19.2705L4.14858 19.2712ZM38.2845 19.2638H36.4609V21.0894H38.2845V19.2638Z" fill="#02060B"/>
<path d="M10.1782 25.5594C10.7739 24.3193 11.344 23.1291 11.9177 21.9396C14.123 17.3645 16.3319 12.7912 18.5287 8.21181C18.6592 7.94 18.803 7.83769 19.1006 7.85187C19.6585 7.87775 20.2182 7.86789 20.7766 7.85557C20.9846 7.85125 21.101 7.91042 21.1967 8.11073C22.3838 10.5964 23.58 13.0778 24.7751 15.5592C26.3249 18.7771 27.876 21.9951 29.4259 25.213C29.474 25.3128 29.5167 25.4158 29.585 25.568C26.5103 27.3813 24.6385 30.0611 23.9678 33.6205H24.9805V35.7826H26.3139C26.3219 35.9139 26.3335 36.0125 26.3335 36.1111C26.3347 37.9589 26.3304 39.8073 26.3414 41.6551C26.3426 41.914 26.2591 41.991 26.0127 41.9904C24.3672 41.988 22.7216 41.9984 21.0766 41.9997C18.6384 42.0015 16.1996 41.9991 13.7614 41.9984C13.6621 41.9984 13.5633 41.9984 13.4456 41.9984V35.803H14.7607V33.6421H15.8051C15.1357 30.0673 13.2767 27.3881 10.1794 25.5588L10.1782 25.5594ZM19.2561 9.83957C19.2286 9.83094 19.2006 9.82231 19.1731 9.81307C16.7227 14.8979 14.2724 19.9833 11.814 25.0842C11.9945 25.2278 12.161 25.3597 12.3268 25.4928C13.381 26.3397 14.3656 27.2592 15.1052 28.4075C16.0698 29.904 16.6612 31.5607 17.0532 33.292C17.116 33.5687 17.2203 33.6415 17.4952 33.639C19.1 33.6242 20.7053 33.626 22.3106 33.6402C22.5673 33.6427 22.6539 33.5613 22.7088 33.3148C23.0173 31.928 23.4904 30.5998 24.1288 29.3308C24.9702 27.6586 26.2707 26.4068 27.7193 25.2882C27.865 25.1754 27.9705 25.0983 27.8608 24.8715C26.4261 21.9168 25.0031 18.9565 23.577 15.9968C22.8569 14.5028 22.1387 13.0076 21.4187 11.5136C21.1461 10.9471 20.8718 10.382 20.598 9.81615C20.5724 9.82108 20.5474 9.82539 20.5218 9.83033C20.5218 10.1317 20.5224 10.4331 20.5218 10.7345C20.5126 13.7324 20.5053 16.7303 20.4901 19.7282C20.4883 20.0517 20.5322 20.3051 20.9163 20.3537C21.0108 20.3655 21.101 20.4363 21.187 20.49C22.1576 21.094 22.5917 22.2928 22.2369 23.3837C21.8784 24.4845 20.8266 25.1852 19.6664 25.0959C18.5701 25.0114 17.6111 24.1134 17.4446 23.0151C17.2678 21.849 17.8739 20.7309 18.9482 20.3112C19.2128 20.2077 19.2615 20.0702 19.2609 19.8151C19.2536 16.6317 19.2567 13.4483 19.2567 10.2642C19.2567 10.1225 19.2567 9.98071 19.2567 9.83895L19.2561 9.83957ZM14.712 40.6998H25.0482V37.0967H14.712V40.6998ZM16.0874 35.7746H23.7081V34.9093C23.5794 34.9093 23.4703 34.9093 23.3612 34.9093C21.1571 34.9093 18.953 34.9093 16.7496 34.9093C16.2151 34.9093 15.9818 35.1813 16.0496 35.7253C16.0509 35.7339 16.0612 35.7413 16.088 35.7752L16.0874 35.7746ZM19.9194 21.3923C19.2457 21.3732 18.7092 21.8804 18.6817 22.5627C18.6543 23.2395 19.1939 23.8151 19.8664 23.8274C20.5187 23.8392 21.0748 23.2992 21.0955 22.6324C21.1162 21.9735 20.5834 21.4114 19.9194 21.3929V21.3923Z" fill="#02060B"/>
</g>
<defs>
<clipPath id="clip0_1641_7265">
<rect width="40" height="42" fill="white"/>
</clipPath>
</defs>
</svg>
