<svg width="66" height="67" viewBox="0 0 66 67" fill="none" xmlns="http://www.w3.org/2000/svg">
<path d="M19.1531 15.2719C19.8181 14.007 21.1074 13.1929 22.5353 13.1363L41.824 12.372C43.252 12.3154 44.6016 13.0249 45.3646 14.2332L55.6709 30.5556C56.4339 31.7639 56.4942 33.2875 55.8293 34.5524L46.8469 51.6391C46.1819 52.904 44.8926 53.7181 43.4647 53.7747L24.176 54.539C22.748 54.5956 21.3984 53.8861 20.6354 52.6778L10.3291 36.3554C9.56614 35.1471 9.50577 33.6235 10.1707 32.3586L19.1531 15.2719Z" fill="#02060B"/>
<path d="M24.2499 34.4999H21.2499C21.051 34.4999 20.8603 34.579 20.7196 34.7196C20.579 34.8603 20.4999 35.051 20.4999 35.2499V42.7499C20.4999 42.9489 20.579 43.1396 20.7196 43.2803C20.8603 43.4209 21.051 43.4999 21.2499 43.4999H24.2499C24.4489 43.4999 24.6396 43.4209 24.7803 43.2803C24.9209 43.1396 24.9999 42.9489 24.9999 42.7499V35.2499C24.9999 35.051 24.9209 34.8603 24.7803 34.7196C24.6396 34.579 24.4489 34.4999 24.2499 34.4999ZM23.4999 41.9999H21.9999V35.9999H23.4999V41.9999ZM32.4999 29.9999H29.4999C29.301 29.9999 29.1103 30.079 28.9696 30.2196C28.829 30.3603 28.7499 30.551 28.7499 30.7499V42.7499C28.7499 42.9489 28.829 43.1396 28.9696 43.2803C29.1103 43.4209 29.301 43.4999 29.4999 43.4999H32.4999C32.6989 43.4999 32.8896 43.4209 33.0303 43.2803C33.1709 43.1396 33.2499 42.9489 33.2499 42.7499V30.7499C33.2499 30.551 33.1709 30.3603 33.0303 30.2196C32.8896 30.079 32.6989 29.9999 32.4999 29.9999ZM31.7499 41.9999H30.2499V31.4999H31.7499V41.9999ZM40.7499 25.4999H37.7499C37.551 25.4999 37.3603 25.579 37.2196 25.7196C37.079 25.8603 36.9999 26.051 36.9999 26.2499V42.7499C36.9999 42.9489 37.079 43.1396 37.2196 43.2803C37.3603 43.4209 37.551 43.4999 37.7499 43.4999H40.7499C40.9489 43.4999 41.1396 43.4209 41.2803 43.2803C41.4209 43.1396 41.4999 42.9489 41.4999 42.7499V26.2499C41.4999 26.051 41.4209 25.8603 41.2803 25.7196C41.1396 25.579 40.9489 25.4999 40.7499 25.4999ZM39.9999 41.9999H38.4999V26.9999H39.9999V41.9999ZM34.7499 24.5924C34.7354 24.5274 34.7127 24.4644 34.6824 24.4049C34.6784 24.3851 34.6784 24.3647 34.6824 24.3449C34.6383 24.2737 34.5825 24.2103 34.5174 24.1574C34.4501 24.1144 34.3769 24.0815 34.2999 24.0599L31.2999 23.3099C31.109 23.2463 30.9006 23.2611 30.7205 23.3511C30.5405 23.4411 30.4036 23.599 30.3399 23.7899C30.2763 23.9809 30.2911 24.1893 30.3811 24.3694C30.4711 24.5494 30.629 24.6863 30.8199 24.7499L31.9224 25.0274L20.8974 30.8399C20.8036 30.8821 20.7195 30.943 20.6502 31.019C20.581 31.095 20.5281 31.1844 20.4949 31.2817C20.4616 31.379 20.4487 31.4821 20.457 31.5846C20.4653 31.6871 20.4946 31.7868 20.543 31.8775C20.5915 31.9682 20.658 32.048 20.7386 32.1118C20.8192 32.1757 20.912 32.2224 21.0114 32.2489C21.1107 32.2753 21.2145 32.2811 21.3162 32.2658C21.4178 32.2505 21.5153 32.2145 21.6024 32.1599L32.8524 26.1599L32.4999 27.5699C32.4522 27.7689 32.4854 27.9786 32.5923 28.153C32.6992 28.3274 32.871 28.4522 33.0699 28.4999C33.2689 28.5477 33.4786 28.5144 33.653 28.4076C33.8274 28.3007 33.9522 28.1289 33.9999 27.9299L34.7499 24.9299C34.7654 24.8431 34.7654 24.7543 34.7499 24.6674C34.7471 24.6425 34.7471 24.6174 34.7499 24.5924Z" fill="white"/>
</svg>
