<svg width="66" height="66" viewBox="0 0 66 66" fill="none" xmlns="http://www.w3.org/2000/svg">
<path d="M14.6619 23.3597C18.1061 16.8081 24.7838 12.5916 32.1797 12.2986C39.5756 12.0055 46.566 15.6804 50.5177 21.9388C54.4695 28.1973 54.7822 36.0887 51.3381 42.6402C47.8939 49.1918 41.2162 53.4082 33.8203 53.7013C26.4244 53.9944 19.434 50.3195 15.4823 44.061C11.5305 37.8025 11.2178 29.9112 14.6619 23.3597Z" fill="#02060B"/>
<path d="M25.3 38.8444C24.9134 39.231 24.9134 39.8578 25.3 40.2444C25.6866 40.631 26.3134 40.631 26.7 40.2444L25.3 38.8444ZM40.99 25.5444C40.9899 24.9977 40.5467 24.5545 40 24.5545L31.0905 24.5545C30.5437 24.5545 30.1005 24.9977 30.1005 25.5444C30.1005 26.0912 30.5437 26.5344 31.0905 26.5344L39.0101 26.5344L39.0101 34.454C39.0101 35.0007 39.4533 35.4439 40 35.4439C40.5467 35.4439 40.9899 35.0007 40.9899 34.454L40.99 25.5444ZM26.7 40.2444L40.7 26.2444L39.3 24.8444L25.3 38.8444L26.7 40.2444Z" fill="white"/>
</svg>
