<svg width="32" height="30" viewBox="0 0 32 30" fill="none" xmlns="http://www.w3.org/2000/svg">
<path d="M3.98698 22.7994C4.04596 23.2142 4.15347 23.6207 4.30729 24.0104C4.46725 24.4254 4.71103 24.8031 5.02344 25.1197C6.03385 26.1223 7.34635 26.1197 8.78385 26.1197H9.46615C10.0573 25.2682 11.4453 24.6718 13.0599 24.6718C15.2135 24.6718 16.9661 25.7317 16.9661 27.0416C16.9661 28.3515 15.2188 29.4114 13.0599 29.4114C11.4792 29.4114 10.1172 28.8385 9.50521 28.0156H8.78385C6.9401 28.0156 5.25521 28.0156 3.69271 26.4687C3.19727 25.9702 2.80909 25.3755 2.55208 24.7213C2.31107 24.1044 2.15343 23.4581 2.08333 22.7994C1.52696 22.7859 0.99787 22.5556 0.608741 22.1577C0.219611 21.7598 0.00119188 21.2258 0 20.6692L0 12.9869C0.00137526 12.4224 0.226249 11.8814 0.625443 11.4822C1.02464 11.083 1.56566 10.8581 2.13021 10.8567H2.28125C2.66667 6.91141 5.14583 3.82547 8.4974 1.97912C10.4855 0.890603 12.6809 0.233932 14.9401 0.0520357C17.2361 -0.148609 19.5476 0.178296 21.6979 1.00776C25.4609 2.49474 28.6146 5.6536 29.8359 10.8567H29.8698C30.4343 10.8581 30.9754 11.083 31.3746 11.4822C31.7738 11.8814 31.9986 12.4224 32 12.9869V20.6692C31.9986 21.2338 31.7738 21.7748 31.3746 22.174C30.9754 22.5732 30.4343 22.7981 29.8698 22.7994H27.7396V11.0442C26.6484 6.77079 24.0339 4.16662 20.9323 2.94787C19.0774 2.23408 17.0838 1.95437 15.1042 2.13016C13.1424 2.28461 11.2353 2.85167 9.50781 3.79422C6.60677 5.4036 4.48958 8.07287 4.31771 11.4713C4.3134 11.5734 4.2941 11.6743 4.26042 11.7708V22.7994H3.98698Z" fill="#02060B"/>
</svg>
