<svg width="13" height="14" viewBox="0 0 13 14" fill="none" xmlns="http://www.w3.org/2000/svg">
<path d="M0.46967 11.773C0.176777 12.0658 0.176777 12.5407 0.46967 12.8336C0.762563 13.1265 1.23744 13.1265 1.53033 12.8336L0.46967 11.773ZM12.3566 1.69668C12.3566 1.28247 12.0208 0.946682 11.6066 0.946682L4.8566 0.946681C4.44239 0.946681 4.1066 1.28247 4.1066 1.69668C4.1066 2.1109 4.44239 2.44668 4.8566 2.44668H10.8566V8.44668C10.8566 8.8609 11.1924 9.19668 11.6066 9.19668C12.0208 9.19668 12.3566 8.8609 12.3566 8.44668L12.3566 1.69668ZM1 12.3033L1.53033 12.8336L12.1369 2.22701L11.6066 1.69668L11.0763 1.16635L0.46967 11.773L1 12.3033Z" fill="url(#paint0_linear_1641_6855)"/>
<defs>
<linearGradient id="paint0_linear_1641_6855" x1="11.9602" y1="2.05024" x2="1.35355" y2="12.6568" gradientUnits="userSpaceOnUse">
<stop stop-color="#2058FF"/>
<stop offset="1" stop-color="#004BC2"/>
</linearGradient>
</defs>
</svg>
