<svg width="48" height="48" viewBox="0 0 48 48" fill="none" xmlns="http://www.w3.org/2000/svg">
<mask id="mask0_503_531" style="mask-type:luminance" maskUnits="userSpaceOnUse" x="0" y="0" width="48" height="48">
<path d="M0 0H48V48H0V0Z" fill="white"/>
</mask>
<g mask="url(#mask0_503_531)">
<path d="M9.166 34.6399C7.106 32.4559 6 29.9999 6 26.0199C6 19.4559 10.322 13.5299 16.756 10.2599C17.1161 10.0832 17.5289 10.0462 17.9146 10.1563C18.3004 10.2664 18.6315 10.5157 18.844 10.8559C19.384 11.6899 19.092 12.7999 18.26 13.3419C12.96 16.7919 11.828 20.9419 11.352 23.6419C12.426 23.0879 13.832 22.8939 15.21 23.0219C18.818 23.3559 21.662 26.3179 21.662 29.9999C21.662 31.8565 20.9245 33.6369 19.6117 34.9497C18.299 36.2624 16.5185 36.9999 14.662 36.9999C13.6352 36.9907 12.6204 36.7773 11.6769 36.3721C10.7333 35.967 9.87981 35.3781 9.166 34.6399ZM29.166 34.6399C27.106 32.4559 26 29.9999 26 26.0199C26 19.4559 30.324 13.5299 36.756 10.2599C37.1161 10.0832 37.5289 10.0462 37.9146 10.1563C38.3004 10.2664 38.6315 10.5157 38.844 10.8559C39.384 11.6899 39.092 12.7999 38.26 13.3419C32.96 16.7919 31.828 20.9419 31.352 23.6419C32.426 23.0879 33.832 22.8939 35.21 23.0219C38.818 23.3559 41.662 26.3179 41.662 29.9999C41.662 31.8565 40.9245 33.6369 39.6117 34.9497C38.299 36.2624 36.5185 36.9999 34.662 36.9999C33.6352 36.9907 32.6204 36.7773 31.6769 36.3721C30.7333 35.967 29.8798 35.3781 29.166 34.6399Z" fill="#02060B"/>
</g>
</svg>
