<svg width="50" height="50" viewBox="0 0 50 50" fill="none" xmlns="http://www.w3.org/2000/svg">
<g clip-path="url(#clip0_1476_5171)">
<path fill-rule="evenodd" clip-rule="evenodd" d="M25 0C38.8062 0 50 11.1938 50 25C50 38.8062 38.8062 50 25 50C11.1938 50 0 38.8062 0 25C0 11.1938 11.1938 0 25 0Z" fill="#2394E0"/>
<path fill-rule="evenodd" clip-rule="evenodd" d="M4.78516 37.9151C3.31217 35.6812 2.20947 33.1788 1.5625 30.4973L5.96517 32.6213L5.98958 33.9356C5.98958 34.4198 5.16764 35.4452 4.90316 35.8359L4.78516 37.9151ZM31.8644 2.64494C40.2547 5.43221 46.5495 12.8175 47.762 21.81L46.9686 21.7245C46.8262 22.3349 46.696 22.3471 46.696 23.0795C46.696 23.7265 47.5098 24.1578 47.5098 25.5209C47.5098 25.8871 46.6512 26.6155 46.6146 26.7457L45.341 25.2524V27.1526L45.1497 27.1445L44.8079 23.637L44.0959 23.8608L43.2495 21.2525L40.4622 24.1659L40.4297 26.2981L39.5182 26.9084L38.5498 21.4397L37.972 21.8629L36.6618 20.0929L34.7046 20.1498L33.9559 19.2913L33.1869 19.5029L31.6772 17.7735L31.3843 17.9729L32.3202 20.3655H33.4066V19.8243H33.9478C34.3384 20.9067 34.7616 20.2638 34.7616 20.9107C34.7616 23.169 31.9743 24.8292 30.1473 25.2524C30.245 25.6593 30.2083 26.0662 30.6885 26.0662C31.7098 26.0662 31.2012 25.8871 32.3161 25.7935C32.2632 28.1007 29.6712 30.8554 28.5645 32.5684L29.0609 36.1044C29.1911 36.8735 27.4658 37.6832 26.8799 38.5499L27.1606 39.9049L26.3672 40.2263C26.2288 41.6179 24.8779 43.1601 23.3602 43.1601H21.7326C21.7326 41.2558 20.3735 38.5336 20.3735 37.1868C20.3735 36.0434 20.9147 35.8888 20.9147 34.4727C20.9147 33.1625 19.5597 31.2867 19.5597 30.9449V28.7721H18.4733C18.3105 28.1658 18.4123 27.9583 17.6595 27.9583H17.3869C16.2028 27.9583 16.4022 28.4994 15.214 28.4994H14.1276C13.147 28.4994 11.4136 25.3582 11.4136 24.9716V21.7164C11.4136 20.3126 12.6994 18.7826 13.5864 18.1886V16.8336L14.8071 15.5925L15.4867 15.4786C16.9434 15.4786 16.7684 14.6648 17.6595 14.6648H20.1009V16.565L22.7865 17.7125L23.0387 16.5528C24.2554 16.8376 24.5728 17.3788 26.0702 17.3788H26.6113C27.6408 17.3788 27.6978 16.0116 27.6978 14.9374L25.5249 15.1531L24.5768 13.0942L23.6369 13.3424C23.8078 14.0789 23.8973 13.7737 23.8973 14.3962C23.8973 14.7625 23.5962 14.8031 23.3521 14.9374L22.4121 12.553L20.3898 11.1085L20.1213 11.373L21.8424 13.1837C21.6146 13.8347 21.5861 15.7105 20.638 14.3962L21.5251 13.969L19.3115 11.6497L17.985 12.1664L16.6748 13.4197C16.5365 14.4288 16.2638 14.9374 15.2059 14.9374C14.502 14.9374 14.9251 14.7543 13.8468 14.6648V11.9508H16.2882L15.4948 10.1441L15.2018 10.3232V9.77791L19.1691 7.95093C19.0959 7.38127 19.0023 7.68644 19.0023 7.06388C19.0023 7.02726 19.2668 6.52677 19.2749 6.51864L20.3003 7.15747L20.0562 5.98967L18.4733 6.31519L18.1803 4.8951C19.4336 4.23592 22.1965 1.90845 23.0754 1.90845H23.8892C24.7477 1.90845 27.0426 2.7548 27.417 3.26343L25.2401 3.0437L26.8555 4.37427L27.0101 3.80461L28.2145 3.47502L28.2308 2.72225H28.776V3.53605L31.8644 2.64494Z" fill="#A1E367"/>
</g>
<defs>
<clipPath id="clip0_1476_5171">
<rect width="50" height="50" fill="white"/>
</clipPath>
</defs>
</svg>
