<svg width="25" height="26" viewBox="0 0 25 26" fill="none" xmlns="http://www.w3.org/2000/svg">
<rect y="0.278076" width="25" height="25" rx="12.5" fill="url(#paint0_linear_1643_10188)"/>
<g clip-path="url(#clip0_1643_10188)">
<path d="M12.7529 9.63369C10.9784 9.63369 9.54701 11.0364 9.54701 12.7755C9.54701 14.5145 10.9784 15.9173 12.7529 15.9173C14.5275 15.9173 15.9588 14.5145 15.9588 12.7755C15.9588 11.0364 14.5275 9.63369 12.7529 9.63369ZM12.7529 14.8181C11.6062 14.8181 10.6687 13.902 10.6687 12.7755C10.6687 11.6489 11.6034 10.7329 12.7529 10.7329C13.9025 10.7329 14.8372 11.6489 14.8372 12.7755C14.8372 13.902 13.8997 14.8181 12.7529 14.8181ZM16.8377 9.50517C16.8377 9.9126 16.5029 10.238 16.09 10.238C15.6742 10.238 15.3422 9.90986 15.3422 9.50517C15.3422 9.10049 15.677 8.77236 16.09 8.77236C16.5029 8.77236 16.8377 9.10049 16.8377 9.50517ZM18.9611 10.2489C18.9136 9.26728 18.6848 8.39775 17.951 7.68135C17.22 6.96494 16.3327 6.74072 15.331 6.6915C14.2987 6.63408 11.2044 6.63408 10.172 6.6915C9.17313 6.73799 8.28585 6.96221 7.55204 7.67861C6.81822 8.39502 6.59222 9.26455 6.54199 10.2462C6.4834 11.2579 6.4834 14.2903 6.54199 15.302C6.58943 16.2837 6.81822 17.1532 7.55204 17.8696C8.28585 18.586 9.17034 18.8102 10.172 18.8595C11.2044 18.9169 14.2987 18.9169 15.331 18.8595C16.3327 18.813 17.22 18.5888 17.951 17.8696C18.6821 17.1532 18.9108 16.2837 18.9611 15.302C19.0197 14.2903 19.0197 11.2606 18.9611 10.2489ZM17.6274 16.3876C17.4097 16.9235 16.9884 17.3364 16.4387 17.5524C15.6156 17.8724 13.6625 17.7985 12.7529 17.7985C11.8433 17.7985 9.88741 17.8696 9.0671 17.5524C8.52023 17.3392 8.09891 16.9263 7.87849 16.3876C7.55204 15.581 7.62737 13.6669 7.62737 12.7755C7.62737 11.8841 7.55483 9.96728 7.87849 9.16338C8.09612 8.62744 8.51744 8.21455 9.0671 7.99853C9.8902 7.67861 11.8433 7.75244 12.7529 7.75244C13.6625 7.75244 15.6184 7.68135 16.4387 7.99853C16.9856 8.21182 17.4069 8.62471 17.6274 9.16338C17.9538 9.97002 17.8785 11.8841 17.8785 12.7755C17.8785 13.6669 17.9538 15.5837 17.6274 16.3876Z" fill="white"/>
</g>
<defs>
<linearGradient id="paint0_linear_1643_10188" x1="25" y1="12.7781" x2="0" y2="12.7781" gradientUnits="userSpaceOnUse">
<stop stop-color="#2058FF"/>
<stop offset="1" stop-color="#004BC2"/>
</linearGradient>
<clipPath id="clip0_1643_10188">
<rect width="12.5" height="14" fill="white" transform="translate(6.5 5.77808)"/>
</clipPath>
</defs>
</svg>
