<svg width="426" height="8" viewBox="0 0 426 8" fill="none" xmlns="http://www.w3.org/2000/svg">
<path d="M7.22043 4.3859C7.22043 2.47247 5.66928 0.921334 3.75586 0.921334C1.84244 0.921334 0.29129 2.47247 0.29129 4.3859C0.29129 6.29933 1.84244 7.85047 3.75586 7.85047C5.66928 7.85047 7.22043 6.29933 7.22043 4.3859ZM425.756 3.73626L422.459 3.73626L422.459 5.03547L425.756 5.03547L425.756 3.73626ZM415.865 3.73626L409.271 3.73626L409.271 5.03547L415.865 5.03547L415.865 3.73626ZM402.678 3.73626L396.084 3.73626L396.084 5.03547L402.678 5.03547L402.678 3.73626ZM389.49 3.73626L382.896 3.73626L382.896 5.03547L389.49 5.03547L389.49 3.73626ZM376.303 3.73626L369.709 3.73626L369.709 5.03548L376.303 5.03547L376.303 3.73626ZM363.115 3.73626L356.521 3.73626L356.521 5.03548L363.115 5.03548L363.115 3.73626ZM349.928 3.73626L343.334 3.73627L343.334 5.03548L349.928 5.03548L349.928 3.73626ZM336.74 3.73627L330.146 3.73627L330.146 5.03548L336.74 5.03548L336.74 3.73627ZM323.553 3.73627L316.959 3.73627L316.959 5.03548L323.553 5.03548L323.553 3.73627ZM310.365 3.73627L303.771 3.73627L303.771 5.03548L310.365 5.03548L310.365 3.73627ZM297.178 3.73627L290.584 3.73627L290.584 5.03548L297.178 5.03548L297.178 3.73627ZM283.99 3.73627L277.396 3.73627L277.396 5.03548L283.99 5.03548L283.99 3.73627ZM270.803 3.73627L264.209 3.73627L264.209 5.03548L270.803 5.03548L270.803 3.73627ZM257.615 3.73627L251.021 3.73627L251.021 5.03549L257.615 5.03549L257.615 3.73627ZM244.428 3.73627L237.834 3.73627L237.834 5.03549L244.428 5.03549L244.428 3.73627ZM231.24 3.73627L224.646 3.73628L224.646 5.03549L231.24 5.03549L231.24 3.73627ZM218.053 3.73628L211.459 3.73628L211.459 5.03549L218.053 5.03549L218.053 3.73628ZM204.865 3.73628L198.271 3.73628L198.271 5.03549L204.865 5.03549L204.865 3.73628ZM191.678 3.73628L185.084 3.73628L185.084 5.03549L191.678 5.03549L191.678 3.73628ZM178.49 3.73628L171.896 3.73628L171.896 5.03549L178.49 5.03549L178.49 3.73628ZM165.303 3.73628L158.709 3.73628L158.709 5.03549L165.303 5.03549L165.303 3.73628ZM152.115 3.73628L145.521 3.73628L145.521 5.0355L152.115 5.03549L152.115 3.73628ZM138.928 3.73628L132.334 3.73628L132.334 5.0355L138.928 5.0355L138.928 3.73628ZM125.74 3.73628L119.146 3.73628L119.146 5.0355L125.74 5.0355L125.74 3.73628ZM112.553 3.73629L105.959 3.73629L105.959 5.0355L112.553 5.0355L112.553 3.73629ZM99.3652 3.73629L92.7715 3.73629L92.7715 5.0355L99.3652 5.0355L99.3652 3.73629ZM86.1777 3.73629L79.584 3.73629L79.584 5.0355L86.1777 5.0355L86.1777 3.73629ZM72.9902 3.73629L66.3965 3.73629L66.3965 5.0355L72.9902 5.0355L72.9902 3.73629ZM59.8027 3.73629L53.209 3.73629L53.209 5.0355L59.8027 5.0355L59.8027 3.73629ZM46.6152 3.73629L40.0215 3.73629L40.0215 5.0355L46.6152 5.0355L46.6152 3.73629ZM33.4277 3.73629L26.834 3.73629L26.834 5.03551L33.4277 5.0355L33.4277 3.73629ZM20.2402 3.73629L13.6465 3.73629L13.6465 5.03551L20.2402 5.03551L20.2402 3.73629ZM7.05273 3.73629L3.75586 3.73629L3.75586 5.03551L7.05273 5.03551L7.05273 3.73629Z" fill="black"/>
</svg>
