<svg width="35" height="36" viewBox="0 0 35 36" fill="none" xmlns="http://www.w3.org/2000/svg">
<path fill-rule="evenodd" clip-rule="evenodd" d="M17.9636 5C10.5349 5 4.5 11.0308 4.5 18.4595C4.5 25.8882 10.5349 31.9231 17.9636 31.9231C25.3923 31.9231 31.4231 25.8882 31.4231 18.4595C31.4231 11.0308 25.3923 5 17.9636 5ZM17.9636 6.0355C19.5955 6.03441 21.2115 6.35503 22.7193 6.979C24.2272 7.60298 25.5972 8.51808 26.7511 9.67197C27.905 10.8259 28.8201 12.1959 29.4441 13.7037C30.068 15.2116 30.3887 16.8276 30.3876 18.4595C30.3876 25.328 24.8321 30.8855 17.9636 30.8855C11.0951 30.8855 5.5355 25.328 5.5355 18.4595C5.5355 11.591 11.0951 6.0355 17.9636 6.0355ZM23.6609 14.655C23.5442 14.6557 23.431 14.6958 23.3399 14.7689L15.4857 20.8277L12.6794 17.3556C12.6379 17.2996 12.5854 17.2526 12.5253 17.2174C12.4651 17.1822 12.3984 17.1594 12.3293 17.1506C12.2601 17.1418 12.1898 17.147 12.1228 17.166C12.0557 17.185 11.9931 17.2173 11.9388 17.2611C11.8845 17.3048 11.8396 17.3591 11.8068 17.4206C11.774 17.4821 11.754 17.5497 11.7479 17.6191C11.7418 17.6886 11.7499 17.7586 11.7715 17.8249C11.7931 17.8911 11.8279 17.9524 11.8738 18.0049L15.3158 22.268L23.9747 15.588C24.0619 15.5227 24.1262 15.4315 24.1585 15.3275C24.1908 15.2234 24.1895 15.1118 24.1548 15.0086C24.12 14.9054 24.0536 14.8157 23.9649 14.7524C23.8762 14.6891 23.7699 14.6544 23.6609 14.655Z" stroke="url(#paint0_linear_1911_10937)"/>
<defs>
<linearGradient id="paint0_linear_1911_10937" x1="31.4231" y1="18.4615" x2="4.5" y2="18.4615" gradientUnits="userSpaceOnUse">
<stop stop-color="#2058FF"/>
<stop offset="1" stop-color="#004BC2"/>
</linearGradient>
</defs>
</svg>
