<svg width="100" height="100" viewBox="0 0 100 100" fill="none" xmlns="http://www.w3.org/2000/svg">
<rect x="7.15883" y="7.05811" width="85.5566" height="85.5563" rx="42.7781" fill="white"/>
<path d="M40.3226 57.7026C39.8399 58.1853 39.8399 58.968 40.3226 59.4507C40.8053 59.9334 41.588 59.9334 42.0707 59.4507L40.3226 57.7026ZM59.9137 41.0958C59.9137 40.4131 59.3603 39.8597 58.6776 39.8597L47.5528 39.8597C46.8701 39.8597 46.3167 40.4131 46.3167 41.0958C46.3167 41.7785 46.8701 42.3319 47.5528 42.3319H57.4415V52.2205C57.4415 52.9032 57.9949 53.4566 58.6776 53.4566C59.3603 53.4566 59.9137 52.9032 59.9137 52.2205L59.9137 41.0958ZM42.0707 59.4507L59.5516 41.9698L57.8035 40.2217L40.3226 57.7026L42.0707 59.4507Z" fill="#02060B"/>
<path d="M51.2818 13.1249C50.3078 13.1249 49.4837 12.9417 48.8095 12.5755C48.1435 12.2092 47.6357 11.6889 47.2861 11.0147C46.9365 10.3404 46.7617 9.54128 46.7617 8.61729C46.7617 7.91805 46.8616 7.28957 47.0614 6.73185C47.2695 6.17412 47.565 5.69964 47.9479 5.3084C48.3391 4.90884 48.8136 4.605 49.3713 4.3969C49.9291 4.18047 50.5617 4.07225 51.2693 4.07225C51.7354 4.07225 52.2016 4.13052 52.6677 4.24706C53.1422 4.35528 53.5876 4.54257 54.0038 4.80895C54.1453 4.90051 54.2369 5.01289 54.2785 5.14608C54.3284 5.27927 54.3368 5.41662 54.3035 5.55813C54.2702 5.69132 54.2077 5.80786 54.1162 5.90775C54.0246 6.00764 53.9081 6.07007 53.7665 6.09504C53.6334 6.12001 53.4835 6.08672 53.317 5.99515C53.0007 5.81202 52.6802 5.67883 52.3556 5.59559C52.0309 5.51234 51.6688 5.47072 51.2693 5.47072C50.6533 5.47072 50.133 5.59559 49.7085 5.84531C49.2839 6.08672 48.9635 6.4405 48.747 6.90666C48.5389 7.37281 48.4349 7.94302 48.4349 8.61729C48.4349 9.64117 48.6804 10.4195 49.1716 10.9522C49.6627 11.485 50.3911 11.7514 51.3567 11.7514C51.6896 11.7514 52.0268 11.7181 52.3681 11.6515C52.7094 11.5849 53.0423 11.4933 53.367 11.3768L53.0548 12.0885V9.4289H51.6813C51.4732 9.4289 51.3109 9.37479 51.1944 9.26658C51.0861 9.15836 51.032 9.01269 51.032 8.82955C51.032 8.6381 51.0861 8.49242 51.1944 8.39253C51.3109 8.29264 51.4732 8.2427 51.6813 8.2427H53.7416C53.9497 8.2427 54.1078 8.30097 54.2161 8.41751C54.3326 8.52572 54.3909 8.68388 54.3909 8.89199V11.9262C54.3909 12.1093 54.3534 12.2633 54.2785 12.3882C54.2119 12.513 54.0995 12.6046 53.9414 12.6629C53.5751 12.7961 53.1547 12.9084 52.6802 13C52.2058 13.0832 51.7396 13.1249 51.2818 13.1249Z" fill="black"/>
<path d="M58.845 14.2065C58.1702 14.058 57.6167 13.804 57.1844 13.4446C56.7521 13.0853 56.4528 12.6443 56.2865 12.1219C56.1284 11.6013 56.1191 11.0239 56.2586 10.3898C56.3946 9.77191 56.6397 9.25903 56.9937 8.85111C57.3558 8.44499 57.7891 8.16106 58.2935 7.99933C58.8078 7.83126 59.3536 7.81075 59.9308 7.93781C60.3535 8.03086 60.7163 8.18317 61.0192 8.39474C61.3302 8.6081 61.575 8.8708 61.7535 9.18285C61.9401 9.49668 62.0532 9.854 62.0929 10.2548C62.1424 10.6493 62.1162 11.0782 62.0142 11.5416C61.982 11.6879 61.9041 11.7901 61.7805 11.8481C61.6668 11.8998 61.5165 11.9051 61.3295 11.8639L57.4151 11.0023L57.6084 10.1243L61.035 10.8786L60.7997 11.0185C60.882 10.6446 60.894 10.3191 60.8356 10.042C60.7854 9.7667 60.6689 9.54076 60.4862 9.36416C60.3134 9.18122 60.0725 9.05575 59.7636 8.98775C59.4221 8.9126 59.1116 8.92947 58.8319 9.03838C58.5621 9.14095 58.33 9.32425 58.1355 9.58829C57.9509 9.84598 57.8148 10.174 57.7271 10.5724L57.7083 10.6577C57.5616 11.3243 57.606 11.8583 57.8416 12.2596C58.087 12.6546 58.5146 12.9192 59.1244 13.0534C59.3357 13.0999 59.5769 13.1274 59.8477 13.1359C60.1285 13.1381 60.4011 13.1001 60.6655 13.0219C60.8577 12.9619 61.0171 12.9544 61.1436 12.9992C61.2719 13.036 61.3636 13.1031 61.4189 13.2005C61.4823 13.2997 61.5087 13.412 61.4981 13.5376C61.4893 13.655 61.439 13.7675 61.3471 13.8751C61.2634 13.9845 61.1385 14.0678 60.9725 14.125C60.6486 14.2413 60.2898 14.3029 59.8961 14.31C59.5124 14.3108 59.162 14.2763 58.845 14.2065Z" fill="black"/>
<path d="M66.8798 17.2246C66.3888 16.9974 66.0155 16.7238 65.7599 16.4038C65.512 16.0873 65.3821 15.7337 65.3702 15.343C65.3619 14.9447 65.4678 14.5076 65.688 14.0317L66.8047 11.6179L66.2154 11.3453C66.0341 11.2614 65.9153 11.1514 65.8591 11.0153C65.8063 10.8716 65.8184 10.7167 65.8952 10.5505C65.9756 10.3767 66.0859 10.2672 66.2261 10.222C66.3662 10.1768 66.527 10.1961 66.7083 10.28L67.2976 10.5527L67.7747 9.52141C67.883 9.28721 68.0256 9.13764 68.2024 9.07268C68.3868 9.01122 68.5923 9.03292 68.8189 9.13778C69.0455 9.24264 69.1913 9.38347 69.2563 9.56027C69.3213 9.73707 69.2996 9.94257 69.1912 10.1768L68.7141 11.208L69.9153 11.7638C70.0966 11.8476 70.2154 11.9576 70.2717 12.0937C70.328 12.2298 70.3159 12.3848 70.2355 12.5585C70.1586 12.7247 70.0484 12.8342 69.9047 12.887C69.7645 12.9322 69.6038 12.9129 69.4225 12.829L68.2213 12.2733L67.1412 14.6077C66.9735 14.9703 66.927 15.279 67.0017 15.5337C67.0765 15.7885 67.2914 15.9979 67.6465 16.1622C67.7749 16.2216 67.8935 16.2627 68.0022 16.2855C68.1109 16.3083 68.2048 16.3334 68.2838 16.3608C68.378 16.3952 68.4395 16.4603 68.4685 16.5563C68.501 16.6447 68.4718 16.7871 68.3809 16.9835C68.311 17.1346 68.2216 17.2584 68.1128 17.3548C68.0151 17.4471 67.8915 17.4863 67.7421 17.4722C67.6299 17.457 67.4892 17.424 67.3201 17.3733C67.1475 17.3301 67.0007 17.2805 66.8798 17.2246Z" fill="black"/>
<path d="M78.1072 26.2544C77.9402 26.0577 77.8647 25.8597 77.881 25.6602C77.909 25.4617 78.0213 25.2789 78.218 25.1118L83.8233 20.3507C84.0263 20.1782 84.2248 20.0969 84.4189 20.1068C84.6184 20.1231 84.8017 20.2295 84.9687 20.4262C85.1358 20.6229 85.2085 20.8178 85.1869 21.0109C85.1706 21.2104 85.061 21.3963 84.858 21.5688L79.2527 26.33C79.056 26.497 78.8574 26.5783 78.657 26.5738C78.4629 26.5639 78.2797 26.4574 78.1072 26.2544Z" fill="black"/>
<path d="M81.7344 31.384C81.6174 31.1634 81.5866 30.9631 81.6419 30.783C81.7045 30.599 81.8498 30.4466 82.0778 30.3258L86.2478 28.1149C86.4758 27.9941 86.6799 27.9613 86.8599 28.0166C87.04 28.0719 87.1866 28.2061 87.2996 28.4194C87.4127 28.6327 87.4416 28.8294 87.3863 29.0094C87.331 29.1895 87.1894 29.34 86.9614 29.4608L86.2112 29.8585L86.4227 29.591C86.8983 29.5461 87.325 29.6402 87.703 29.8732C88.0921 30.1097 88.4018 30.4449 88.6318 30.8789C88.8619 31.3128 88.9701 31.7124 88.9564 32.0776C88.9428 32.4429 88.8076 32.7831 88.5507 33.0983C88.3012 33.4096 87.9263 33.6978 87.4262 33.963L84.7565 35.3783C84.5285 35.4992 84.3208 35.534 84.1334 35.4826C83.9534 35.4273 83.8048 35.2893 83.6879 35.0687C83.5709 34.848 83.5381 34.644 83.5895 34.4566C83.6521 34.2727 83.7974 34.1202 84.0254 33.9994L86.629 32.6191C87.0482 32.3968 87.3105 32.1541 87.4159 31.8909C87.5253 31.6351 87.4922 31.3417 87.3167 31.0108C87.1023 30.6063 86.802 30.3509 86.4159 30.2447C86.0411 30.1419 85.6441 30.2016 85.2249 30.4239L82.8089 31.7047C82.3382 31.9543 81.98 31.8474 81.7344 31.384Z" fill="black"/>
<path d="M86.6564 48.5213C86.6424 48.2637 86.7022 48.0604 86.8359 47.9114C86.9783 47.7703 87.1783 47.6927 87.436 47.6788L94.1687 47.3137L94.0369 44.8825C94.0252 44.6664 94.0741 44.4928 94.1837 44.3618C94.3021 44.2387 94.4652 44.1715 94.673 44.1602C94.8891 44.1485 95.0544 44.1979 95.1687 44.3084C95.2918 44.4268 95.3593 44.594 95.371 44.8101L95.7212 51.2686C95.7329 51.4847 95.6837 51.6541 95.5736 51.7768C95.4723 51.9073 95.3136 51.9784 95.0975 51.9902C94.8897 52.0014 94.7201 51.9481 94.5887 51.8302C94.466 51.7201 94.3988 51.557 94.3871 51.3409L94.2553 48.9096L87.5225 49.2747C87.2648 49.2887 87.0576 49.2332 86.9008 49.1083C86.7522 48.983 86.6708 48.7873 86.6564 48.5213Z" fill="black"/>
<path d="M86.0683 56.3694C86.1707 55.7451 86.3869 55.2238 86.717 54.8056C87.047 54.3873 87.4671 54.0892 87.977 53.9113C88.4952 53.7348 89.0747 53.699 89.7154 53.8041C90.2001 53.8835 90.6199 54.0241 90.9749 54.2257C91.3367 54.4368 91.631 54.7002 91.8576 55.0157C92.0925 55.3325 92.2487 55.6914 92.3264 56.0921C92.4124 56.4942 92.4169 56.9294 92.3402 57.3976C92.2378 58.0219 92.0216 58.5432 91.6915 58.9615C91.3615 59.3798 90.9414 59.6779 90.4315 59.8557C89.9215 60.0336 89.3461 60.0701 88.7054 59.965C88.2207 59.8856 87.7975 59.7403 87.4356 59.5291C87.0724 59.3261 86.7734 59.0662 86.5386 58.7494C86.3119 58.4339 86.1557 58.075 86.0697 57.6729C85.992 57.2722 85.9916 56.8377 86.0683 56.3694ZM87.2389 56.5613C87.1891 56.8653 87.2192 57.1444 87.3294 57.3986C87.4396 57.6529 87.6283 57.8652 87.8956 58.0355C88.1698 58.2154 88.5246 58.3411 88.9599 58.4125C89.6171 58.5202 90.1288 58.4607 90.4949 58.2339C90.8693 58.0085 91.0942 57.6658 91.1696 57.2057C91.2194 56.9018 91.1893 56.6227 91.0791 56.3685C90.9772 56.1155 90.7891 55.8991 90.5149 55.7192C90.2476 55.5489 89.8963 55.428 89.4609 55.3566C88.812 55.2502 88.2962 55.3091 87.9136 55.5332C87.5392 55.7586 87.3143 56.1013 87.2389 56.5613Z" fill="black"/>
<path d="M84.0314 63.4501C84.2194 62.9784 84.46 62.6217 84.7534 62.3802C85.0545 62.1417 85.4099 62.0145 85.8195 61.9985C86.226 61.9902 86.6883 62.0893 87.2064 62.2957L90.0135 63.4142C90.261 63.5128 90.418 63.647 90.4847 63.817C90.5592 63.99 90.5502 64.1925 90.4577 64.4245C90.3653 64.6565 90.2326 64.8097 90.0596 64.8841C89.8912 64.9694 89.6833 64.9627 89.4358 64.8641L86.6055 63.7364C86.2034 63.5762 85.8733 63.5388 85.6153 63.6241C85.3573 63.7095 85.1574 63.9301 85.0157 64.2858C84.8616 64.6724 84.8667 65.0419 85.0311 65.3941C85.2031 65.7494 85.5095 66.0148 85.9503 66.1905L88.5022 67.2072C88.7497 67.3058 88.9068 67.4401 88.9735 67.61C89.0479 67.7831 89.0389 67.9856 88.9464 68.2176C88.854 68.4495 88.7213 68.6028 88.5483 68.6772C88.3799 68.7624 88.172 68.7558 87.9245 68.6572L83.5399 66.9102C83.045 66.713 82.8915 66.3785 83.0794 65.9068C83.1688 65.6826 83.3 65.5332 83.473 65.4588C83.6538 65.3874 83.864 65.3995 84.1037 65.495L84.9853 65.8463L84.5726 65.87C84.2197 65.5412 83.9974 65.1659 83.9056 64.744C83.8108 64.3299 83.8527 63.8986 84.0314 63.4501Z" fill="black"/>
<path d="M79.7241 71.3216C80.0838 70.7911 80.5036 70.4019 80.9834 70.154C81.4702 69.9108 81.9858 69.8178 82.5302 69.8752C83.0746 69.9325 83.6155 70.1434 84.153 70.5078C84.5595 70.7834 84.8815 71.0872 85.119 71.4192C85.3587 71.7628 85.5118 72.123 85.5781 72.4999C85.6513 72.8814 85.6367 73.2738 85.5342 73.677C85.4387 74.0849 85.2555 74.4887 84.9845 74.8883C84.8304 75.1156 84.6335 75.3392 84.394 75.559C84.1498 75.7856 83.8759 75.9671 83.5724 76.1032C83.4288 76.1667 83.297 76.183 83.1772 76.1521C83.0574 76.1211 82.9528 76.0603 82.8635 75.9695C82.7811 75.8835 82.7253 75.7803 82.6962 75.66C82.6694 75.5513 82.6783 75.4417 82.723 75.3312C82.7747 75.2254 82.8712 75.135 83.0126 75.0599C83.205 74.969 83.3755 74.8584 83.5243 74.7279C83.68 74.6022 83.8069 74.467 83.905 74.3223C84.0591 74.0949 84.1567 73.8694 84.1977 73.6458C84.2456 73.4268 84.2427 73.2086 84.189 72.9912C84.1375 72.7853 84.0328 72.5836 83.8751 72.3861C83.7173 72.1886 83.5075 72.0011 83.2457 71.8236C82.7358 71.4779 82.251 71.3252 81.7913 71.3655C81.3337 71.4173 80.9531 71.6672 80.6495 72.115C80.5514 72.2597 80.4716 72.4218 80.4102 72.6014C80.3441 72.7879 80.3021 72.9908 80.2842 73.21C80.2668 73.3692 80.2174 73.4865 80.136 73.5621C80.0499 73.6445 79.948 73.6911 79.8302 73.7017C79.7192 73.717 79.6074 73.6965 79.4947 73.6402C79.3889 73.5886 79.3018 73.5094 79.2334 73.4026C79.1603 73.3028 79.1277 73.1802 79.1358 73.0348C79.1522 72.714 79.2158 72.4051 79.3266 72.1081C79.4374 71.8112 79.5699 71.549 79.7241 71.3216Z" fill="black"/>
<path d="M76.2235 75.5381C76.4048 75.3664 76.5896 75.283 76.7779 75.2881C76.9719 75.2993 77.1576 75.3985 77.3351 75.5859L82.4357 80.9705C82.6131 81.1578 82.6993 81.3457 82.6942 81.5339C82.6891 81.7222 82.5959 81.9022 82.4146 82.074C82.2333 82.2457 82.0485 82.329 81.8602 82.3239C81.6659 82.3246 81.48 82.2312 81.3025 82.0439L79.0785 79.696L79.2055 79.5758C79.3759 80.022 79.3994 80.4584 79.276 80.8849C79.1522 81.3232 78.9121 81.7112 78.5555 82.0489C78.199 82.3867 77.8429 82.5978 77.4873 82.6824C77.1317 82.767 76.7677 82.7277 76.3953 82.5645C76.0286 82.4074 75.6506 82.1233 75.2613 81.7124L73.1833 79.5186C73.0058 79.3313 72.9168 79.1405 72.9161 78.9461C72.9212 78.7578 73.0144 78.5778 73.1957 78.4061C73.377 78.2344 73.5649 78.1482 73.7592 78.1476C73.9532 78.1587 74.1389 78.2579 74.3164 78.4453L76.3429 80.5846C76.6692 80.9291 76.9733 81.1169 77.2551 81.1481C77.5308 81.185 77.8047 81.0747 78.0766 80.8171C78.409 80.5022 78.5747 80.1446 78.5738 79.7442C78.5725 79.3555 78.4088 78.9889 78.0825 78.6445L76.2019 76.6592C75.8356 76.2725 75.8427 75.8987 76.2235 75.5381Z" fill="black"/>
<path d="M63.8648 88.7317C64.036 88.7707 64.1561 88.8532 64.2249 88.9793C64.2938 89.1054 64.3022 89.2607 64.2501 89.4452L63.8836 90.8599L63.5669 90.624L64.9274 90.0866C65.1062 90.0176 65.2641 90.0039 65.4011 90.0456C65.5408 90.0951 65.6385 90.2027 65.6943 90.3684C65.7475 90.5262 65.7335 90.667 65.6523 90.791C65.5711 90.915 65.4371 90.9997 65.2504 91.045L63.838 91.4287L63.9355 91.0532L65.0875 91.9695C65.2432 92.0927 65.3318 92.2254 65.3534 92.3675C65.3749 92.5095 65.3279 92.6439 65.2125 92.7707C65.1076 92.9026 64.9775 92.9597 64.8222 92.9417C64.6668 92.9238 64.5218 92.8453 64.3871 92.7062L63.46 91.7537L63.6375 91.6939L63.4759 93.0132C63.4529 93.2055 63.3849 93.3557 63.2721 93.464C63.1592 93.5723 63.0172 93.607 62.846 93.5681C62.6747 93.5291 62.5586 93.4453 62.4977 93.3165C62.4288 93.1903 62.4191 93.0311 62.4685 92.8388L62.8391 91.4359L63.1399 91.6639L61.7834 92.2132C61.6072 92.2901 61.4493 92.3038 61.3097 92.2542C61.17 92.2047 61.0736 92.101 61.0204 91.9432C60.9646 91.7776 60.9773 91.6327 61.0585 91.5088C61.1423 91.3927 61.2763 91.308 61.4604 91.2547L62.8688 90.8593L62.7713 91.2347L61.6233 90.3303C61.4702 90.2149 61.3829 90.0862 61.3614 89.9441C61.3347 89.8126 61.3777 89.6795 61.4904 89.5449C61.6111 89.4077 61.7477 89.344 61.9004 89.3541C62.0479 89.3746 62.189 89.4545 62.3237 89.5936L63.2548 90.5579L63.0773 90.6177L63.2467 89.2826C63.2697 89.0903 63.3377 88.9401 63.4505 88.8318C63.5581 88.734 63.6962 88.7007 63.8648 88.7317Z" fill="black"/>
<path d="M44.6314 86.1876C45.5996 86.2929 46.3991 86.5641 47.0298 87.0011C47.6522 87.4372 48.1008 88.0093 48.3754 88.7174C48.6501 89.4255 48.7375 90.2389 48.6376 91.1574C48.562 91.8526 48.3947 92.4666 48.1358 92.9994C47.8686 93.5314 47.5235 93.9711 47.1006 94.3187C46.6684 94.6736 46.1639 94.9244 45.5869 95.0709C45.0091 95.2258 44.3684 95.265 43.665 95.1885C43.2016 95.1381 42.7445 95.0298 42.2936 94.8635C41.8336 94.7046 41.4112 94.4703 41.0262 94.1605C40.8954 94.0541 40.8165 93.9325 40.7895 93.7956C40.7543 93.6578 40.7609 93.5204 40.8093 93.3833C40.8568 93.2545 40.9314 93.1454 41.0333 93.0559C41.1351 92.9665 41.2577 92.9171 41.4011 92.9076C41.5362 92.8971 41.6815 92.9464 41.8372 93.0555C42.1318 93.2717 42.436 93.4388 42.7498 93.5566C43.0635 93.6745 43.419 93.755 43.8162 93.7982C44.4286 93.8648 44.9593 93.7969 45.4084 93.5946C45.8565 93.4005 46.2134 93.0834 46.4789 92.6434C46.7362 92.2025 46.9013 91.6469 46.9742 90.9765C47.0849 89.9587 46.9249 89.1584 46.4943 88.5756C46.0636 87.9929 45.3683 87.6493 44.4084 87.5449C44.0774 87.5089 43.7386 87.5056 43.3921 87.5349C43.0456 87.5642 42.7047 87.6192 42.3694 87.7L42.7566 87.0262L42.4691 89.6702L43.8345 89.8187C44.0414 89.8412 44.1969 89.9125 44.3011 90.0327C44.397 90.152 44.435 90.3027 44.4152 90.4847C44.3945 90.6751 44.325 90.814 44.2066 90.9016C44.0799 90.9883 43.9132 91.0204 43.7063 90.9979L41.6581 90.7752C41.4512 90.7527 41.3003 90.6777 41.2053 90.5501C41.1012 90.4299 41.0603 90.2664 41.0828 90.0595L41.4109 87.0431C41.4307 86.861 41.4846 86.712 41.5726 86.596C41.6523 86.479 41.7739 86.4002 41.9374 86.3593C42.3159 86.2665 42.746 86.2003 43.2276 86.1605C43.7083 86.1291 44.1762 86.1381 44.6314 86.1876Z" fill="black"/>
<path d="M37.229 84.2941C37.8837 84.5147 38.4066 84.827 38.7975 85.231C39.1884 85.6351 39.4383 86.1057 39.5471 86.6431C39.648 87.1778 39.5948 87.7528 39.3875 88.3681C39.1855 88.9676 38.8865 89.451 38.4904 89.8183C38.0865 90.1829 37.625 90.4183 37.1061 90.5245C36.5767 90.636 36.0319 90.5974 35.4718 90.4087C35.0616 90.2704 34.7174 90.0798 34.4391 89.8367C34.153 89.591 33.9381 89.3034 33.7944 88.9738C33.6428 88.6417 33.5689 88.2742 33.5729 87.8715C33.5663 87.474 33.6387 87.0504 33.7902 86.6008C33.8381 86.4588 33.9265 86.3656 34.0557 86.3213C34.1743 86.2822 34.3243 86.2932 34.5057 86.3543L38.304 87.6341L38.017 88.4861L34.692 87.3657L34.9411 87.252C34.8188 87.6149 34.7717 87.9372 34.7997 88.219C34.8199 88.4981 34.9113 88.7353 35.0738 88.9306C35.2259 89.1312 35.4518 89.2819 35.7515 89.3829C36.0828 89.4946 36.3934 89.5114 36.6832 89.4333C36.9625 89.3605 37.2131 89.2034 37.435 88.962C37.6463 88.7257 37.8171 88.4143 37.9474 88.0278L37.9753 87.945C38.1932 87.2981 38.2068 86.7625 38.016 86.3381C37.8147 85.9189 37.4182 85.6096 36.8266 85.4102C36.6215 85.3411 36.3847 85.2877 36.1163 85.25C35.8374 85.2175 35.5623 85.2258 35.291 85.275C35.0935 85.3138 34.9342 85.3041 34.8133 85.2458C34.6898 85.1954 34.6058 85.1187 34.5614 85.0159C34.5091 84.9105 34.495 84.7959 34.5191 84.6723C34.5405 84.5565 34.6027 84.4501 34.7057 84.353C34.8008 84.2533 34.9339 84.184 35.1052 84.1451C35.4397 84.0645 35.8031 84.042 36.1952 84.0775C36.5767 84.1182 36.9213 84.1904 37.229 84.2941Z" fill="black"/>
<path d="M29.568 80.4252C30.0316 80.7042 30.3731 81.0165 30.5925 81.3623C30.8048 81.7037 30.8957 82.0693 30.8653 82.459C30.8305 82.8558 30.678 83.2789 30.4076 83.7283L29.0364 86.0072L29.5928 86.3419C29.764 86.4449 29.8702 86.5671 29.9114 86.7085C29.9483 86.857 29.9196 87.0097 29.8252 87.1666C29.7265 87.3307 29.605 87.4276 29.4608 87.4574C29.3165 87.4872 29.1588 87.4506 28.9877 87.3476L28.4313 87.0129L27.8455 87.9865C27.7125 88.2076 27.5545 88.3409 27.3718 88.3863C27.1818 88.4275 26.9799 88.3837 26.7659 88.255C26.5519 88.1262 26.4222 87.9705 26.3767 87.7877C26.3313 87.6049 26.3751 87.4029 26.5081 87.1818L27.0939 86.2082L25.9598 85.5258C25.7886 85.4228 25.6824 85.3007 25.6412 85.1593C25.6 85.0179 25.6287 84.8652 25.7274 84.7011C25.8218 84.5442 25.9433 84.4473 26.0918 84.4103C26.2361 84.3805 26.3938 84.4171 26.5649 84.5201L27.699 85.2025L29.0251 82.9985C29.2311 82.6561 29.3107 82.3543 29.264 82.093C29.2172 81.8317 29.0262 81.6002 28.6909 81.3985C28.5697 81.3255 28.4562 81.2718 28.3506 81.2374C28.245 81.203 28.1544 81.168 28.0788 81.1322C27.9889 81.0878 27.9348 81.0164 27.9163 80.9178C27.8936 80.8264 27.938 80.688 28.0496 80.5026C28.1354 80.3599 28.2377 80.2466 28.3562 80.1625C28.4634 80.0812 28.5905 80.0557 28.7375 80.0858C28.8474 80.1131 28.9837 80.1611 29.1463 80.2298C29.3133 80.2914 29.4538 80.3565 29.568 80.4252Z" fill="black"/>
<path d="M19.3828 70.2345C19.5276 70.4481 19.5812 70.6532 19.5435 70.8497C19.4942 71.044 19.3628 71.2136 19.1492 71.3584L13.062 75.4857C12.8415 75.6351 12.6353 75.6945 12.4434 75.6636C12.2469 75.6259 12.0762 75.5003 11.9314 75.2867C11.7866 75.0731 11.7354 74.8715 11.7778 74.6818C11.8155 74.4853 11.9446 74.3123 12.165 74.1628L18.2523 70.0356C18.4658 69.8908 18.672 69.8314 18.8708 69.8576C19.0626 69.8884 19.2333 70.0141 19.3828 70.2345Z" fill="black"/>
<path d="M16.3308 64.7426C16.4232 64.9745 16.4322 65.1771 16.3578 65.3501C16.2756 65.5262 16.1147 65.662 15.875 65.7575L11.4903 67.5045C11.2506 67.6 11.0442 67.6106 10.8712 67.5361C10.6982 67.4617 10.567 67.3124 10.4776 67.0881C10.3883 66.8638 10.3808 66.6652 10.4553 66.4922C10.5297 66.3191 10.6868 66.1849 10.9265 66.0894L11.7153 65.7751L11.4761 66.0182C10.9985 66.0114 10.5844 65.8717 10.2339 65.5992C9.87253 65.322 9.60097 64.9553 9.41918 64.499C9.2374 64.0428 9.17303 63.6339 9.22607 63.2722C9.27911 62.9106 9.45036 62.587 9.7398 62.3014C10.0215 62.0189 10.4253 61.7729 10.9511 61.5634L13.7582 60.4449C13.998 60.3494 14.2082 60.3373 14.389 60.4087C14.562 60.4831 14.6947 60.6363 14.7871 60.8683C14.8796 61.1003 14.8901 61.3067 14.8188 61.4874C14.7366 61.6635 14.5757 61.7994 14.3359 61.8949L11.5984 62.9856C11.1577 63.1612 10.8706 63.3741 10.7374 63.6244C10.601 63.8669 10.6022 64.1621 10.7408 64.5101C10.9103 64.9354 11.1812 65.2218 11.5535 65.3691C11.915 65.5118 12.3162 65.4953 12.757 65.3197L15.2973 64.3076C15.7922 64.1104 16.1367 64.2554 16.3308 64.7426Z" fill="black"/>
<path d="M13.2909 47.1737C13.2769 47.4314 13.1955 47.627 13.0465 47.7607C12.8897 47.8855 12.6824 47.941 12.4248 47.927L5.69201 47.562L5.56019 49.9933C5.54848 50.2094 5.48105 50.3766 5.35792 50.495C5.22693 50.6046 5.05754 50.6538 4.84974 50.6425C4.63363 50.6308 4.4747 50.5638 4.37295 50.4416C4.26334 50.3106 4.21439 50.137 4.22611 49.9209L4.57628 43.4625C4.588 43.2464 4.65519 43.0833 4.77787 42.9732C4.89269 42.8544 5.05815 42.8008 5.27427 42.8126C5.48207 42.8238 5.64493 42.8952 5.76285 43.0266C5.87291 43.1493 5.92208 43.3187 5.91036 43.5348L5.77854 45.9661L12.5113 46.3311C12.769 46.3451 12.969 46.4226 13.1114 46.5637C13.2455 46.7044 13.3053 46.9077 13.2909 47.1737Z" fill="black"/>
<path d="M14.7242 39.4352C14.5549 40.0448 14.2836 40.5396 13.9103 40.9197C13.5369 41.2999 13.0871 41.5508 12.5609 41.6725C12.0266 41.792 11.4467 41.7649 10.8211 41.5912C10.3479 41.4598 9.94569 41.2747 9.61459 41.0359C9.2777 40.7869 9.01365 40.4932 8.82246 40.1551C8.62324 39.8147 8.50667 39.4411 8.47276 39.0342C8.43083 38.6252 8.47333 38.1921 8.60027 37.7349C8.76952 37.1253 9.04082 36.6305 9.41418 36.2503C9.78753 35.8702 10.2373 35.6193 10.7635 35.4976C11.2898 35.3759 11.8657 35.4019 12.4913 35.5756C12.9645 35.7069 13.3696 35.8972 13.7065 36.1462C14.0456 36.3872 14.3148 36.6779 14.514 37.0183C14.7052 37.3565 14.8218 37.7301 14.8637 38.1392C14.8976 38.546 14.8511 38.978 14.7242 39.4352ZM13.5812 39.1178C13.6636 38.8211 13.6638 38.5403 13.5818 38.2757C13.4997 38.011 13.3351 37.7795 13.0878 37.5813C12.8346 37.3728 12.4955 37.2095 12.0704 37.0915C11.4288 36.9133 10.9137 36.9172 10.5251 37.103C10.1286 37.2867 9.86794 37.6031 9.74323 38.0522C9.66084 38.349 9.66065 38.6297 9.74267 38.8944C9.81666 39.1568 9.98022 39.3923 10.2333 39.6008C10.4807 39.7991 10.8169 39.9572 11.242 40.0752C11.8756 40.2512 12.3947 40.2484 12.7993 40.067C13.1959 39.8834 13.4565 39.567 13.5812 39.1178Z" fill="black"/>
<path d="M17.5144 32.6163C17.2766 33.0649 16.9987 33.3934 16.681 33.6018C16.3559 33.8063 15.9888 33.8944 15.5799 33.866C15.1748 33.8303 14.7259 33.6818 14.2332 33.4206L11.5635 32.0052C11.3281 31.8804 11.1865 31.7299 11.1386 31.5538C11.0833 31.3737 11.1141 31.1734 11.2311 30.9527C11.3481 30.7321 11.4966 30.5941 11.6766 30.5388C11.8533 30.4723 12.0592 30.5014 12.2946 30.6262L14.9863 32.0533C15.3688 32.256 15.6929 32.3289 15.9586 32.2719C16.2244 32.215 16.4469 32.0173 16.6263 31.679C16.8212 31.3113 16.8561 30.9435 16.7308 30.5756C16.5982 30.2037 16.3222 29.9067 15.903 29.6845L13.476 28.3978C13.2407 28.273 13.099 28.1225 13.0511 27.9464C12.9958 27.7663 13.0267 27.5659 13.1436 27.3453C13.2606 27.1247 13.4091 26.9867 13.5892 26.9314C13.7658 26.8649 13.9718 26.894 14.2071 27.0188L18.3772 29.2296C18.8478 29.4791 18.9643 29.8282 18.7264 30.2768C18.6133 30.4901 18.4668 30.6244 18.2867 30.6797C18.0993 30.7311 17.8916 30.6963 17.6636 30.5755L16.8252 30.131L17.238 30.152C17.5533 30.517 17.7337 30.9141 17.7793 31.3435C17.8289 31.7654 17.7406 32.1897 17.5144 32.6163Z" fill="black"/>
<path d="M22.6477 25.2566C22.2328 25.7451 21.7733 26.0866 21.2695 26.2812C20.7593 26.4704 20.2367 26.507 19.7016 26.3911C19.1666 26.2753 18.6517 26.0071 18.1568 25.5868C17.7825 25.2689 17.4952 24.932 17.295 24.5763C17.0938 24.2088 16.9806 23.8341 16.9554 23.4523C16.9239 23.0651 16.9808 22.6766 17.1263 22.2868C17.2653 21.8916 17.4912 21.51 17.8037 21.1421C17.9816 20.9327 18.2014 20.7317 18.4633 20.5391C18.7306 20.3402 19.0224 20.1895 19.3389 20.0869C19.4886 20.0393 19.6213 20.0374 19.7371 20.0811C19.8528 20.1248 19.9502 20.1966 20.0292 20.2965C20.1019 20.3909 20.1461 20.4995 20.162 20.6223C20.177 20.7333 20.1562 20.8413 20.0998 20.9462C20.0371 21.0458 19.9313 21.1253 19.7826 21.1847C19.5816 21.2542 19.4001 21.3457 19.2381 21.4593C19.0697 21.5675 18.9289 21.6882 18.8158 21.8215C18.6379 22.0308 18.5165 22.2445 18.4516 22.4624C18.3803 22.6749 18.3596 22.8921 18.3895 23.1141C18.4184 23.3243 18.5007 23.5361 18.6361 23.7495C18.7716 23.9629 18.9599 24.172 19.201 24.3768C19.6705 24.7755 20.1359 24.9798 20.5974 24.9894C21.0578 24.9874 21.4632 24.7802 21.8135 24.3678C21.9267 24.2345 22.0235 24.082 22.104 23.9101C22.1899 23.7318 22.2536 23.5347 22.295 23.3187C22.3295 23.1624 22.3913 23.051 22.4804 22.9847C22.5749 22.9121 22.6813 22.8768 22.7996 22.879C22.9115 22.8758 23.0205 22.9083 23.1264 22.9764C23.226 23.0392 23.3041 23.1273 23.3606 23.2408C23.4224 23.348 23.4415 23.4734 23.4178 23.6171C23.3668 23.9342 23.2702 24.2344 23.1279 24.5176C22.9856 24.8009 22.8255 25.0472 22.6477 25.2566Z" fill="black"/>
<path d="M26.5833 21.4429C26.3845 21.5941 26.1917 21.6569 26.0051 21.6315C25.8134 21.5994 25.6395 21.4807 25.4834 21.2753L20.9948 15.3707C20.8387 15.1653 20.7733 14.9693 20.7987 14.7826C20.8241 14.596 20.9363 14.4271 21.1351 14.276C21.3339 14.1249 21.5266 14.062 21.7132 14.0874C21.9065 14.1078 22.0812 14.2207 22.2374 14.4262L24.1945 17.0007L24.0553 17.1065C23.9341 16.6444 23.9579 16.2081 24.1267 15.7974C24.2972 15.3751 24.5779 15.0153 24.9688 14.7181C25.3598 14.4209 25.7366 14.2495 26.0993 14.2038C26.4619 14.1582 26.8196 14.2366 27.1722 14.4391C27.5197 14.635 27.8648 14.9582 28.2074 15.4089L30.036 17.8144C30.1922 18.0198 30.2601 18.2192 30.2397 18.4125C30.2143 18.5991 30.1021 18.768 29.9033 18.9191C29.7045 19.0702 29.5085 19.1356 29.3152 19.1152C29.1236 19.0831 28.9496 18.9644 28.7935 18.759L27.0102 16.4131C26.723 16.0353 26.4411 15.8157 26.1643 15.7543C25.8941 15.6877 25.61 15.7678 25.3118 15.9945C24.9473 16.2716 24.7439 16.6092 24.7015 17.0074C24.6607 17.3939 24.7839 17.776 25.071 18.1538L26.7259 20.3307C27.0483 20.7548 27.0008 21.1256 26.5833 21.4429Z" fill="black"/>
<path d="M36.5497 9.6629C36.3837 9.60569 36.2733 9.51066 36.2185 9.37783C36.1637 9.24499 36.1721 9.08971 36.2438 8.91199L36.7612 7.54514L37.0505 7.81388L35.6398 8.2011C35.4546 8.25039 35.2962 8.24691 35.1645 8.19067C35.031 8.12629 34.9454 8.00874 34.9079 7.83802C34.8721 7.67543 34.9012 7.53689 34.9954 7.42242C35.0895 7.30794 35.2319 7.23825 35.4224 7.21335L36.868 6.98466L36.7304 7.34735L35.6843 6.31189C35.5428 6.17256 35.469 6.03111 35.463 5.88753C35.457 5.74396 35.5182 5.61542 35.6466 5.50192C35.7651 5.38207 35.9006 5.33945 36.0532 5.37407C36.2057 5.40869 36.3414 5.50241 36.4603 5.65524L37.2789 6.70243L37.096 6.74269L37.3992 5.44855C37.4429 5.25994 37.5268 5.1179 37.6506 5.02244C37.7745 4.92698 37.9195 4.90786 38.0855 4.96508C38.2515 5.02229 38.3579 5.11821 38.4045 5.25284C38.4594 5.38567 38.4518 5.54502 38.3819 5.73088L37.8618 7.08552L37.5874 6.82629L38.9954 6.42688C39.1788 6.36947 39.3372 6.37294 39.4707 6.43732C39.6042 6.50169 39.6889 6.61517 39.7247 6.77777C39.7623 6.94849 39.734 7.09109 39.6398 7.20557C39.5439 7.31192 39.4016 7.3816 39.2128 7.41463L37.77 7.65552L37.9075 7.29283L38.951 8.3161C39.0907 8.4473 39.1635 8.58468 39.1695 8.72825C39.1819 8.86191 39.1248 8.98955 38.9981 9.11119C38.8633 9.23461 38.7206 9.28308 38.5699 9.2566C38.4255 9.22019 38.2938 9.12557 38.175 8.97275L37.3537 7.91336L37.5366 7.8731L37.2238 9.18211C37.1801 9.37073 37.0963 9.51277 36.9724 9.60822C36.8548 9.69376 36.714 9.71199 36.5497 9.6629Z" fill="black"/>
</svg>
