<svg width="48" height="48" viewBox="0 0 48 48" fill="none" xmlns="http://www.w3.org/2000/svg">
<path d="M40.8 37.4399C39.3744 37.4399 38.1936 38.4815 37.9632 39.8399H32.688C32.3952 39.8399 32.16 39.6047 32.16 39.3119V33.5999C32.16 33.5903 32.1552 33.5807 32.1552 33.5663C36.816 31.8287 40.848 28.6175 43.608 24.2639C43.7088 24.1055 43.7088 23.9087 43.608 23.7503C40.8528 19.3919 36.816 16.1711 32.1552 14.4335C32.1552 14.4239 32.16 14.4143 32.16 14.3999V8.68795C32.16 8.39515 32.3952 8.15995 32.688 8.15995H37.9632C38.1936 9.51835 39.3744 10.5599 40.8 10.5599C42.3888 10.5599 43.68 9.26875 43.68 7.67995C43.68 6.09115 42.3888 4.79995 40.8 4.79995C39.3744 4.79995 38.1936 5.84155 37.9632 7.19995H32.688C31.8672 7.19995 31.2 7.86715 31.2 8.68795V14.0927C29.0592 13.4015 26.7984 13.0223 24.48 12.9743V10.0367C25.8384 9.80635 26.88 8.62555 26.88 7.19995C26.88 5.61115 25.5888 4.31995 24 4.31995C22.4112 4.31995 21.12 5.61115 21.12 7.19995C21.12 8.62555 22.1616 9.80635 23.52 10.0367V12.9743C21.2016 13.0223 18.9408 13.3967 16.8 14.0927V8.68795C16.8 7.86715 16.1328 7.19995 15.312 7.19995H10.0368C9.80641 5.84155 8.62561 4.79995 7.20001 4.79995C5.61121 4.79995 4.32001 6.09115 4.32001 7.67995C4.32001 9.26875 5.61121 10.5599 7.20001 10.5599C8.62561 10.5599 9.80641 9.51835 10.0368 8.15995H15.312C15.6048 8.15995 15.84 8.39515 15.84 8.68795V14.3999C15.84 14.4095 15.8448 14.4191 15.8448 14.4335C11.184 16.1711 7.14721 19.3919 4.39201 23.7503C4.29121 23.9087 4.29121 24.1055 4.39201 24.2639C7.15201 28.6175 11.184 31.8287 15.8448 33.5663C15.8448 33.5759 15.84 33.5855 15.84 33.5999V39.3119C15.84 39.6047 15.6048 39.8399 15.312 39.8399H10.0368C9.80641 38.4815 8.62561 37.4399 7.20001 37.4399C5.61121 37.4399 4.32001 38.7311 4.32001 40.3199C4.32001 41.9087 5.61121 43.1999 7.20001 43.1999C8.62561 43.1999 9.80641 42.1583 10.0368 40.7999H15.312C16.1328 40.7999 16.8 40.1327 16.8 39.3119V33.9071C18.9408 34.5983 21.2016 34.9775 23.52 35.0207V37.9583C22.1616 38.1887 21.12 39.3695 21.12 40.7951C21.12 42.3839 22.4112 43.6751 24 43.6751C25.5888 43.6751 26.88 42.3839 26.88 40.7951C26.88 39.3695 25.8384 38.1887 24.48 37.9583V35.0207C26.7984 34.9727 29.0592 34.5983 31.2 33.9071V39.3119C31.2 40.1327 31.8672 40.7999 32.688 40.7999H37.9632C38.1936 42.1583 39.3744 43.1999 40.8 43.1999C42.3888 43.1999 43.68 41.9087 43.68 40.3199C43.68 38.7311 42.3888 37.4399 40.8 37.4399ZM40.8 5.75995C41.8608 5.75995 42.72 6.61915 42.72 7.67995C42.72 8.74075 41.8608 9.59995 40.8 9.59995C39.7392 9.59995 38.88 8.74075 38.88 7.67995C38.88 6.61915 39.7392 5.75995 40.8 5.75995ZM7.20001 9.59995C6.13921 9.59995 5.28001 8.74075 5.28001 7.67995C5.28001 6.61915 6.13921 5.75995 7.20001 5.75995C8.26081 5.75995 9.12001 6.61915 9.12001 7.67995C9.12001 8.74075 8.26081 9.59995 7.20001 9.59995ZM7.20001 42.2399C6.13921 42.2399 5.28001 41.3807 5.28001 40.3199C5.28001 39.2591 6.13921 38.3999 7.20001 38.3999C8.26081 38.3999 9.12001 39.2591 9.12001 40.3199C9.12001 41.3807 8.26081 42.2399 7.20001 42.2399ZM22.08 7.19995C22.08 6.13915 22.9392 5.27995 24 5.27995C25.0608 5.27995 25.92 6.13915 25.92 7.19995C25.92 8.26075 25.0608 9.11995 24 9.11995C22.9392 9.11995 22.08 8.26075 22.08 7.19995ZM5.37121 24.0047C9.48481 17.6831 16.4256 13.9199 24 13.9199C31.5744 13.9199 38.5152 17.6831 42.6288 24.0047C38.5104 30.3215 31.5696 34.0799 24 34.0799C16.4304 34.0799 9.48961 30.3215 5.37121 24.0047ZM25.92 40.7999C25.92 41.8607 25.0608 42.7199 24 42.7199C22.9392 42.7199 22.08 41.8607 22.08 40.7999C22.08 39.7391 22.9392 38.8799 24 38.8799C25.0608 38.8799 25.92 39.7391 25.92 40.7999ZM40.8 42.2399C39.7392 42.2399 38.88 41.3807 38.88 40.3199C38.88 39.2591 39.7392 38.3999 40.8 38.3999C41.8608 38.3999 42.72 39.2591 42.72 40.3199C42.72 41.3807 41.8608 42.2399 40.8 42.2399ZM32.16 23.9999C32.16 19.5023 28.4976 15.8399 24 15.8399C19.5024 15.8399 15.84 19.5023 15.84 23.9999C15.84 28.4975 19.5024 32.1599 24 32.1599C28.4976 32.1599 32.16 28.4975 32.16 23.9999ZM16.824 24.4799H18.24C18.504 24.4799 18.72 24.2639 18.72 23.9999C18.72 23.7359 18.504 23.5199 18.24 23.5199H16.824C17.064 19.9343 19.9344 17.0639 23.52 16.8239V18.2399C23.52 18.5039 23.736 18.7199 24 18.7199C24.264 18.7199 24.48 18.5039 24.48 18.2399V16.8239C28.0656 17.0639 30.936 19.9343 31.176 23.5199H29.76C29.496 23.5199 29.28 23.7359 29.28 23.9999C29.28 24.2639 29.496 24.4799 29.76 24.4799H31.176C30.936 28.0655 28.0656 30.9359 24.48 31.1759V29.7599C24.48 29.4959 24.264 29.2799 24 29.2799C23.736 29.2799 23.52 29.4959 23.52 29.7599V31.1759C19.9344 30.9359 17.064 28.0655 16.824 24.4799ZM24 26.3999C25.3248 26.3999 26.4 25.3247 26.4 23.9999C26.4 22.6751 25.3248 21.5999 24 21.5999C22.6752 21.5999 21.6 22.6751 21.6 23.9999C21.6 25.3247 22.6752 26.3999 24 26.3999ZM24 22.5599C24.792 22.5599 25.44 23.2079 25.44 23.9999C25.44 24.7919 24.792 25.4399 24 25.4399C23.208 25.4399 22.56 24.7919 22.56 23.9999C22.56 23.2079 23.208 22.5599 24 22.5599Z" fill="black"/>
</svg>
