<svg width="41" height="40" viewBox="0 0 41 40" fill="none" xmlns="http://www.w3.org/2000/svg">
<path d="M20.6094 16.8866C20.6094 17.2599 20.9094 17.5532 21.276 17.5532C22.036 17.5532 22.6494 18.1732 22.6494 18.9266C22.6494 19.2932 22.9494 19.5932 23.316 19.5932C23.6827 19.5932 23.9827 19.2932 23.9827 18.9266C23.9827 17.4332 22.7694 16.2199 21.276 16.2199C20.9094 16.2199 20.6094 16.5199 20.6094 16.8866ZM31.4627 19.5932C31.836 19.5932 32.1294 19.2932 32.1294 18.9266C32.1294 12.9399 27.2627 8.07324 21.276 8.07324C20.9094 8.07324 20.6094 8.37324 20.6094 8.73991C20.6094 9.10658 20.9094 9.40658 21.276 9.40658C26.5294 9.40658 30.796 13.6799 30.796 18.9266C30.796 19.2932 31.096 19.5932 31.4627 19.5932Z" fill="url(#paint0_linear_768_1953)"/>
<path d="M26.7228 18.9267C26.7228 19.2933 27.0228 19.5933 27.3895 19.5933C27.7562 19.5933 28.0562 19.2933 28.0562 18.9267C28.0562 15.1867 25.0162 12.1467 21.2762 12.1467C20.9095 12.1467 20.6095 12.4467 20.6095 12.8133C20.6095 13.1867 20.9095 13.48 21.2762 13.48C24.2828 13.48 26.7228 15.9267 26.7228 18.9267ZM21.2762 4C20.9095 4 20.6095 4.3 20.6095 4.66667C20.6095 5.03333 20.9095 5.33333 21.2762 5.33333C28.7762 5.33333 34.8762 11.4333 34.8762 18.9267C34.8762 19.2933 35.1695 19.5933 35.5428 19.5933C35.9095 19.5933 36.2095 19.2933 36.2095 18.9267C36.2095 10.6933 29.5095 4 21.2762 4ZM27.7895 25.9533L26.9162 26.4267C25.4428 27.2333 23.5762 26.96 22.3828 25.7667L15.3428 18.7267C14.1495 17.5333 13.8762 15.6667 14.6828 14.1867L15.1562 13.32C15.6895 12.3333 15.8828 11.2267 15.7228 10.12C15.5717 9.01557 15.0609 7.99169 14.2695 7.20667C13.2962 6.23333 12.0028 5.7 10.6228 5.7C9.24283 5.7 7.94283 6.23333 6.9695 7.20667L6.6295 7.55333C4.8295 9.35333 4.62283 12.4533 6.04283 16.2933C7.38283 19.96 10.0828 23.9333 13.6295 27.48C19.0362 32.8867 25.0562 36 29.3762 36C31.0828 36 32.5295 35.5133 33.5562 34.4867L33.9028 34.14C34.3829 33.6605 34.7637 33.0909 35.0234 32.4641C35.283 31.8372 35.4165 31.1652 35.4162 30.4867C35.4068 29.1202 34.8637 27.8116 33.9028 26.84C32.2962 25.2333 29.7828 24.8733 27.7895 25.9533Z" fill="url(#paint1_linear_768_1953)"/>
<defs>
<linearGradient id="paint0_linear_768_1953" x1="32.1294" y1="13.8332" x2="20.6094" y2="13.8332" gradientUnits="userSpaceOnUse">
<stop stop-color="#2058FF"/>
<stop offset="1" stop-color="#004BC2"/>
</linearGradient>
<linearGradient id="paint1_linear_768_1953" x1="36.2095" y1="20" x2="5.11035" y2="20" gradientUnits="userSpaceOnUse">
<stop stop-color="#2058FF"/>
<stop offset="1" stop-color="#004BC2"/>
</linearGradient>
</defs>
</svg>
