<svg width="181" height="43" viewBox="0 0 181 43" fill="none" xmlns="http://www.w3.org/2000/svg">
<path d="M0.666667 37C0.666667 39.9455 3.05448 42.3333 6 42.3333C8.94552 42.3333 11.3333 39.9455 11.3333 37C11.3333 34.0545 8.94552 31.6667 6 31.6667C3.05448 31.6667 0.666667 34.0545 0.666667 37ZM180.184 37.983C180.727 37.8815 181.084 37.3592 180.983 36.8163L179.33 27.9695C179.228 27.4266 178.706 27.0687 178.163 27.1702C177.62 27.2716 177.262 27.7939 177.364 28.3368L178.833 36.2007L170.969 37.6702C170.427 37.7717 170.069 38.294 170.17 38.8369C170.272 39.3798 170.794 39.7376 171.337 39.6362L180.184 37.983ZM6.58818 37.8087C7.13521 37.4109 7.68028 37.0164 8.22342 36.6254L7.05487 35.0023C6.50909 35.3952 5.96142 35.7916 5.41182 36.1913L6.58818 37.8087ZM11.4593 34.3202C12.5555 33.5476 13.6438 32.7894 14.7246 32.0453L13.5904 30.3979C12.5035 31.1463 11.4091 31.9087 10.3071 32.6853L11.4593 34.3202ZM18.0012 29.8175C19.1175 29.0684 20.2257 28.3347 21.3262 27.6166L20.2332 25.9417C19.1253 26.6646 18.0099 27.403 16.8866 28.1569L18.0012 29.8175ZM24.6437 25.4842C25.7833 24.7629 26.9148 24.0587 28.0385 23.3715L26.995 21.6653C25.8623 22.358 24.7222 23.0676 23.5741 23.7942L24.6437 25.4842ZM31.4246 21.3382C32.5813 20.6567 33.7298 19.9936 34.8706 19.349L33.8867 17.6078C32.7351 18.2585 31.5761 18.9276 30.4093 19.615L31.4246 21.3382ZM38.3447 17.43C39.5146 16.7988 40.6765 16.1875 41.8309 15.596L40.9188 13.816C39.7515 14.4143 38.577 15.0321 37.3951 15.6698L38.3447 17.43ZM45.3994 13.8188C46.6016 13.2377 47.7959 12.6785 48.983 12.141L48.1581 10.3191C46.9553 10.8636 45.7458 11.4299 44.529 12.0181L45.3994 13.8188ZM52.5928 10.5645C53.8287 10.0449 55.0571 9.5493 56.2786 9.07768L55.5583 7.2119C54.3179 7.69082 53.0712 8.19379 51.8176 8.7209L52.5928 10.5645ZM59.9893 7.7115C61.2425 7.27279 62.4891 6.85974 63.7297 6.47221L63.1334 4.56318C61.8707 4.95762 60.6026 5.3778 59.3285 5.82381L59.9893 7.7115ZM67.5203 5.36258C68.8033 5.01243 70.0806 4.68995 71.3531 4.39497L70.9014 2.44664C69.6034 2.74754 68.3011 3.07634 66.9937 3.43314L67.5203 5.36258ZM75.2115 3.58202C76.51 3.33607 77.8042 3.11901 79.0951 2.93069L78.8064 0.951637C77.4872 1.14408 76.1651 1.36582 74.8393 1.61696L75.2115 3.58202ZM83.0035 2.44724C84.3161 2.31413 85.6262 2.21084 86.9348 2.13723L86.8224 0.140387C85.4838 0.21569 84.1439 0.321337 82.8017 0.457449L83.0035 2.44724ZM90.8714 2.00511C92.1841 1.99086 93.4963 2.00641 94.809 2.05165L94.8779 0.0528396C93.5351 0.0065642 92.1927 -0.00935233 90.8497 0.0052312L90.8714 2.00511ZM98.7429 2.27576C100.049 2.37947 101.357 2.51237 102.667 2.67435L102.913 0.689456C101.574 0.523941 100.237 0.388084 98.9012 0.282039L98.7429 2.27576ZM106.564 3.24041C107.852 3.45504 109.143 3.6974 110.437 3.96741L110.846 2.00952C109.525 1.73412 108.208 1.48677 106.893 1.26763L106.564 3.24041ZM114.285 4.84775C115.555 5.16359 116.829 5.50554 118.108 5.87353L118.661 3.95141C117.359 3.57693 116.061 3.22872 114.768 2.90693L114.285 4.84775ZM121.881 7.02804C123.119 7.4297 124.364 7.85524 125.615 8.30458L126.291 6.4223C125.021 5.96613 123.757 5.53384 122.498 5.12558L121.881 7.02804ZM129.322 9.69796C130.541 10.1758 131.766 10.6757 132.999 11.1976L133.779 9.35587C132.53 8.82728 131.288 8.32063 130.053 7.83604L129.322 9.69796ZM136.611 12.7799C137.802 13.3185 138.999 13.877 140.205 14.4554L141.07 12.6522C139.851 12.0676 138.64 11.5027 137.436 10.9578L136.611 12.7799ZM143.776 16.2151C144.936 16.8016 146.104 17.4059 147.28 18.0281L148.216 16.2603C147.029 15.6325 145.85 15.0224 144.678 14.4301L143.776 16.2151ZM150.779 19.9186C151.925 20.5505 153.079 21.1989 154.242 21.8637L155.235 20.1275C154.064 19.4578 152.9 18.8043 151.745 18.1671L150.779 19.9186ZM157.664 23.8542C158.801 24.5256 159.945 25.2122 161.097 25.9138L162.137 24.2055C160.977 23.4995 159.826 22.8084 158.682 22.1324L157.664 23.8542ZM164.452 27.984C165.568 28.682 166.692 29.3937 167.825 30.119L168.904 28.4348C167.765 27.7057 166.635 26.9901 165.512 26.2882L164.452 27.984ZM171.15 32.272C172.25 32.9917 173.357 33.7239 174.473 34.4686L175.583 32.8051C174.463 32.0572 173.35 31.3216 172.245 30.5985L171.15 32.272ZM177.769 36.6883C178.322 37.0642 178.877 37.4431 179.435 37.825L180.565 36.175C180.006 35.7918 179.448 35.4114 178.893 35.034L177.769 36.6883ZM0.666667 37C0.666667 39.9455 3.05448 42.3333 6 42.3333C8.94552 42.3333 11.3333 39.9455 11.3333 37C11.3333 34.0545 8.94552 31.6667 6 31.6667C3.05448 31.6667 0.666667 34.0545 0.666667 37ZM180.184 37.983C180.727 37.8815 181.084 37.3592 180.983 36.8163L179.33 27.9695C179.228 27.4266 178.706 27.0687 178.163 27.1702C177.62 27.2716 177.262 27.7939 177.364 28.3368L178.833 36.2007L170.969 37.6702C170.427 37.7717 170.069 38.294 170.17 38.8369C170.272 39.3798 170.794 39.7376 171.337 39.6362L180.184 37.983ZM6.58818 37.8087C7.13521 37.4109 7.68028 37.0164 8.22342 36.6254L7.05487 35.0023C6.50909 35.3952 5.96142 35.7916 5.41182 36.1913L6.58818 37.8087ZM11.4593 34.3202C12.5555 33.5476 13.6438 32.7894 14.7246 32.0453L13.5904 30.3979C12.5035 31.1463 11.4091 31.9087 10.3071 32.6853L11.4593 34.3202ZM18.0012 29.8175C19.1175 29.0684 20.2257 28.3347 21.3262 27.6166L20.2332 25.9417C19.1253 26.6646 18.0099 27.403 16.8866 28.1569L18.0012 29.8175ZM24.6437 25.4842C25.7833 24.7629 26.9148 24.0587 28.0385 23.3715L26.995 21.6653C25.8623 22.358 24.7222 23.0676 23.5741 23.7942L24.6437 25.4842ZM31.4246 21.3382C32.5813 20.6567 33.7298 19.9936 34.8706 19.349L33.8867 17.6078C32.7351 18.2585 31.5761 18.9276 30.4093 19.615L31.4246 21.3382ZM38.3447 17.43C39.5146 16.7988 40.6765 16.1875 41.8309 15.596L40.9188 13.816C39.7515 14.4143 38.577 15.0321 37.3951 15.6698L38.3447 17.43ZM45.3994 13.8188C46.6016 13.2377 47.7959 12.6785 48.983 12.141L48.1581 10.3191C46.9553 10.8636 45.7458 11.4299 44.529 12.0181L45.3994 13.8188ZM52.5928 10.5645C53.8287 10.0449 55.0571 9.5493 56.2786 9.07768L55.5583 7.2119C54.3179 7.69082 53.0712 8.19379 51.8176 8.7209L52.5928 10.5645ZM59.9893 7.7115C61.2425 7.27279 62.4891 6.85974 63.7297 6.47221L63.1334 4.56318C61.8707 4.95762 60.6026 5.3778 59.3285 5.82381L59.9893 7.7115ZM67.5203 5.36258C68.8033 5.01243 70.0806 4.68995 71.3531 4.39497L70.9014 2.44664C69.6034 2.74754 68.3011 3.07634 66.9937 3.43314L67.5203 5.36258ZM75.2115 3.58202C76.51 3.33607 77.8042 3.11901 79.0951 2.93069L78.8064 0.951637C77.4872 1.14408 76.1651 1.36582 74.8393 1.61696L75.2115 3.58202ZM83.0035 2.44724C84.3161 2.31413 85.6262 2.21084 86.9348 2.13723L86.8224 0.140387C85.4838 0.21569 84.1439 0.321337 82.8017 0.457449L83.0035 2.44724ZM90.8714 2.00511C92.1841 1.99086 93.4963 2.00641 94.809 2.05165L94.8779 0.0528396C93.5351 0.0065642 92.1927 -0.00935233 90.8497 0.0052312L90.8714 2.00511ZM98.7429 2.27576C100.049 2.37947 101.357 2.51237 102.667 2.67435L102.913 0.689456C101.574 0.523941 100.237 0.388084 98.9012 0.282039L98.7429 2.27576ZM106.564 3.24041C107.852 3.45504 109.143 3.6974 110.437 3.96741L110.846 2.00952C109.525 1.73412 108.208 1.48677 106.893 1.26763L106.564 3.24041ZM114.285 4.84775C115.555 5.16359 116.829 5.50554 118.108 5.87353L118.661 3.95141C117.359 3.57693 116.061 3.22872 114.768 2.90693L114.285 4.84775ZM121.881 7.02804C123.119 7.4297 124.364 7.85524 125.615 8.30458L126.291 6.4223C125.021 5.96613 123.757 5.53384 122.498 5.12558L121.881 7.02804ZM129.322 9.69796C130.541 10.1758 131.766 10.6757 132.999 11.1976L133.779 9.35587C132.53 8.82728 131.288 8.32063 130.053 7.83604L129.322 9.69796ZM136.611 12.7799C137.802 13.3185 138.999 13.877 140.205 14.4554L141.07 12.6522C139.851 12.0676 138.64 11.5027 137.436 10.9578L136.611 12.7799ZM143.776 16.2151C144.936 16.8016 146.104 17.4059 147.28 18.0281L148.216 16.2603C147.029 15.6325 145.85 15.0224 144.678 14.4301L143.776 16.2151ZM150.779 19.9186C151.925 20.5505 153.079 21.1989 154.242 21.8637L155.235 20.1275C154.064 19.4578 152.9 18.8043 151.745 18.1671L150.779 19.9186ZM157.664 23.8542C158.801 24.5256 159.945 25.2122 161.097 25.9138L162.137 24.2055C160.977 23.4995 159.826 22.8084 158.682 22.1324L157.664 23.8542ZM164.452 27.984C165.568 28.682 166.692 29.3937 167.825 30.119L168.904 28.4348C167.765 27.7057 166.635 26.9901 165.512 26.2882L164.452 27.984ZM171.15 32.272C172.25 32.9917 173.357 33.7239 174.473 34.4686L175.583 32.8051C174.463 32.0572 173.35 31.3216 172.245 30.5985L171.15 32.272ZM177.769 36.6883C178.322 37.0642 178.877 37.4431 179.435 37.825L180.565 36.175C180.006 35.7918 179.448 35.4114 178.893 35.034L177.769 36.6883Z" fill="url(#paint0_linear_118_614)"/>
<defs>
<linearGradient id="paint0_linear_118_614" x1="180" y1="19" x2="6" y2="19" gradientUnits="userSpaceOnUse">
<stop stop-color="#2575FC"/>
<stop offset="1" stop-color="#0052D3"/>
</linearGradient>
</defs>
</svg>
