<svg width="80" height="80" viewBox="0 0 80 80" fill="none" xmlns="http://www.w3.org/2000/svg">
<circle cx="40" cy="40" r="40" fill="#F1F1F1"/>
<g clip-path="url(#clip0_963_1591)">
<path fill-rule="evenodd" clip-rule="evenodd" d="M40 20C51.0449 20 60 28.9551 60 40C60 51.0449 51.0449 60 40 60C28.9551 60 20 51.0449 20 40C20 28.9551 28.9551 20 40 20Z" fill="#2394E0"/>
<path fill-rule="evenodd" clip-rule="evenodd" d="M23.8281 50.332C22.6497 48.5448 21.7676 46.5429 21.25 44.3977L24.7721 46.0969L24.7917 47.1484C24.7917 47.5357 24.1341 48.356 23.9225 48.6685L23.8281 50.332ZM45.4915 22.1158C52.2038 24.3456 57.2396 30.2538 58.2096 37.4478L57.5749 37.3795C57.4609 37.8678 57.3568 37.8775 57.3568 38.4635C57.3568 38.981 58.0078 39.3261 58.0078 40.4166C58.0078 40.7096 57.321 41.2922 57.2917 41.3964L56.2728 40.2017V41.7219L56.1198 41.7154L55.8464 38.9094L55.2767 39.0885L54.5996 37.0019L52.3698 39.3326L52.3438 41.0383L51.6146 41.5266L50.8398 37.1516L50.3776 37.4902L49.3294 36.0741L47.7637 36.1197L47.1647 35.4329L46.5495 35.6021L45.3418 34.2187L45.1074 34.3782L45.8561 36.2922H46.7253V35.8593H47.1582C47.4707 36.7252 47.8092 36.2109 47.8092 36.7284C47.8092 38.5351 45.5794 39.8632 44.1178 40.2017C44.196 40.5273 44.1667 40.8528 44.5508 40.8528C45.3678 40.8528 44.9609 40.7096 45.8529 40.6347C45.8105 42.4804 43.737 44.6842 42.8516 46.0546L43.2487 48.8834C43.3529 49.4986 41.9727 50.1464 41.5039 50.8398L41.7285 51.9237L41.0938 52.1809C40.9831 53.2942 39.9023 54.5279 38.6882 54.5279H37.3861C37.3861 53.0045 36.2988 50.8267 36.2988 49.7493C36.2988 48.8346 36.7318 48.7109 36.7318 47.578C36.7318 46.5299 35.6478 45.0292 35.6478 44.7558V43.0175H34.7786C34.6484 42.5325 34.7298 42.3665 34.1276 42.3665H33.9095C32.9622 42.3665 33.1217 42.7994 32.1712 42.7994H31.3021C30.5176 42.7994 29.1309 40.2864 29.1309 39.9771V37.373C29.1309 36.2499 30.1595 35.026 30.8691 34.5507V33.4667L31.8457 32.4739L32.3893 32.3827C33.5547 32.3827 33.4147 31.7317 34.1276 31.7317H36.0807V33.2519L38.2292 34.1698L38.431 33.2421C39.4043 33.47 39.6582 33.9029 40.8561 33.9029H41.2891C42.1126 33.9029 42.1582 32.8092 42.1582 31.9498L40.4199 32.1223L39.6615 30.4752L38.9095 30.6737C39.0462 31.2629 39.1178 31.0188 39.1178 31.5168C39.1178 31.8098 38.877 31.8424 38.6816 31.9498L37.9297 30.0422L36.3118 28.8866L36.097 29.0982L37.474 30.5468C37.2917 31.0676 37.2689 32.5683 36.5104 31.5168L37.2201 31.1751L35.4492 29.3196L34.388 29.733L33.3398 30.7356C33.2292 31.5429 33.0111 31.9498 32.1647 31.9498C31.6016 31.9498 31.9401 31.8033 31.0775 31.7317V29.5605H33.0306L32.3958 28.1152L32.1615 28.2584V27.8222L35.3353 26.3606C35.2767 25.9049 35.2018 26.149 35.2018 25.651C35.2018 25.6217 35.4134 25.2213 35.4199 25.2148L36.2402 25.7258L36.0449 24.7916L34.7786 25.052L34.5443 23.9159C35.5469 23.3886 37.7572 21.5266 38.4603 21.5266H39.1113C39.7982 21.5266 41.6341 22.2037 41.9336 22.6106L40.1921 22.4348L41.4844 23.4993L41.6081 23.0435L42.5716 22.7799L42.5846 22.1777H43.0208V22.8287L45.4915 22.1158Z" fill="#A1E367"/>
</g>
<defs>
<clipPath id="clip0_963_1591">
<rect width="40" height="40" fill="white" transform="translate(20 20)"/>
</clipPath>
</defs>
</svg>
