<svg width="80" height="80" viewBox="0 0 80 80" fill="none" xmlns="http://www.w3.org/2000/svg">
<circle cx="40" cy="40" r="40" fill="#FFF3ED"/>
<g clip-path="url(#clip0_93_926)">
<path d="M60 40C60 40.7687 59.9562 41.5312 59.8688 42.2812C59.2563 47.6875 56.4875 52.4375 52.4437 55.6625C49.025 58.375 44.7 60 40 60C28.9563 60 20 51.0438 20 40C20 38.475 20.1688 36.9875 20.4938 35.5625C22.5125 26.65 30.4813 20 40 20C44.5438 20 48.7312 21.5188 52.0938 24.0688C56.4688 27.3938 59.4313 32.4875 59.925 38.2812C59.975 38.8438 60 39.4188 60 40Z" fill="#E8BBA2"/>
<path d="M47.3624 28.6125L46.7999 29.6438C46.2937 30.575 45.1249 30.9125 44.2062 30.3937L40.2249 28.175C39.1937 27.6437 37.9562 27.7812 37.0624 28.5188C35.4187 29.875 32.9374 32.1438 32.3562 33.8937C31.4562 36.5688 30.1812 36.25 28.9749 35.875C27.7624 35.4875 27.3124 35.0437 27.1874 34.2125C27.0624 33.3812 25.4687 32.6812 24.7624 33.8312C24.5499 34.1812 24.3749 34.525 24.2187 34.8375C23.9312 35.425 23.7749 36.05 23.6562 36.6875C23.5999 36.9813 23.4624 37.3062 23.1062 37.4C22.6499 37.525 21.3312 36.8438 20.4937 35.5625C22.5124 26.65 30.4812 20 39.9999 20L41.0062 22.2C41.1624 22.55 41.4499 22.8187 41.7999 22.9562L46.0499 24.65C46.4562 24.8125 46.7624 25.15 46.8937 25.5687L47.4812 27.5187C47.5874 27.8875 47.5437 28.2812 47.3624 28.6125ZM59.9249 38.2812L57.7687 38.575C56.8999 38.6938 56.1374 37.9875 56.1874 37.1187L56.2187 36.5375C56.2374 36.1187 56.0937 35.7125 55.8124 35.4062C54.7437 34.2375 53.2874 32.2375 52.1124 30.5562C50.8874 28.8 50.7624 26.5 51.7937 24.6125L52.0937 24.0688C56.4687 27.3938 59.4312 32.4875 59.9249 38.2812ZM59.8687 42.2812C59.2562 47.6875 56.4874 52.4375 52.4437 55.6625H52.4249L51.7999 52.3062C51.6937 51.7437 51.3687 51.2438 50.8937 50.9188L50.2249 50.45C49.7499 50.1188 49.5312 49.5125 49.7062 48.95L50.1374 47.55L49.9187 46.3313C49.7999 45.625 50.1999 44.9438 50.8749 44.7188L52.8874 44.0375C53.2187 43.9312 53.5124 43.7437 53.7499 43.4937L55.2374 41.95C55.8562 41.3187 56.7874 41.1125 57.6187 41.4188L59.8624 42.275C59.8624 42.275 59.8624 42.2812 59.8687 42.2812ZM45.1874 36.925L45.9874 38.7875C46.7249 40.5063 46.1124 42.5 44.5312 43.5063L42.3874 44.875L40.2812 48.4125V51.1375L39.0874 55.0563C39.0874 55.0563 36.4562 56.825 34.8812 54.05V53.0312C34.8812 52.5625 34.6499 52.1187 34.2687 51.85L33.9062 51.5938C33.3999 51.2375 33.0812 50.6812 33.0187 50.0688L32.7499 47.2C32.7062 46.7125 32.5124 46.2437 32.1937 45.8687L31.1562 44.6187C30.6874 44.0562 30.7874 43.2125 31.3812 42.775L31.8437 42.4375C32.1437 42.2125 32.3999 41.9312 32.5874 41.6063L35.0249 37.4125L37.0374 36.5C37.3749 36.35 37.7499 36.325 38.0999 36.4438L38.9499 36.7188C39.4499 36.8813 39.9999 36.7687 40.3874 36.4125L40.8312 36.0187C41.0999 35.775 41.4499 35.6438 41.8124 35.6438H43.2374C44.0874 35.6438 44.8562 36.15 45.1874 36.925Z" fill="#D8A284"/>
</g>
<defs>
<clipPath id="clip0_93_926">
<rect width="40" height="40" fill="white" transform="translate(20 20)"/>
</clipPath>
</defs>
</svg>
