<svg width="80" height="80" viewBox="0 0 80 80" fill="none" xmlns="http://www.w3.org/2000/svg">
<circle cx="40" cy="40" r="40" fill="#E6F2D9"/>
<path fill-rule="evenodd" clip-rule="evenodd" d="M39.1925 48.725L34.6687 56.5625C34.3437 57.125 33.75 57.48 33.1012 57.4987C32.4512 57.5187 31.8375 57.2 31.48 56.6587L29.3012 53.3587L25.355 53.1213C24.7062 53.0825 24.1237 52.7113 23.815 52.1388C23.5075 51.5662 23.5175 50.875 23.8425 50.3125L28.5837 42.1012C27.4962 40.19 26.875 37.98 26.875 35.625C26.875 28.3812 32.7562 22.5 40 22.5C47.2437 22.5 53.125 28.3812 53.125 35.625C53.125 38.0363 52.4737 40.2963 51.3375 42.2388L55.9987 50.3125C56.3237 50.875 56.3337 51.5662 56.0262 52.1388C55.7187 52.7113 55.1362 53.0825 54.4875 53.1213L50.54 53.3587L48.3625 56.6587C48.0037 57.2 47.39 57.5187 46.7412 57.4987C46.0912 57.48 45.4987 57.125 45.1737 56.5625L40.6537 48.7337C40.4375 48.745 40.2187 48.75 40 48.75C39.7287 48.75 39.46 48.7412 39.1925 48.725ZM30.1825 44.3325L26.5137 50.6862L30.075 50.9C30.4675 50.9237 30.8262 51.1312 31.0437 51.46L33.0087 54.4362L36.5562 48.2925C34.0575 47.6138 31.8537 46.215 30.1825 44.3325ZM49.7212 44.44C48.0312 46.3025 45.8137 47.6775 43.3062 48.3288L46.8325 54.4362L48.7987 51.46C49.015 51.1312 49.3737 50.9237 49.7675 50.9L53.3275 50.6862L49.7212 44.44ZM40 25C34.1362 25 29.375 29.7613 29.375 35.625C29.375 41.4888 34.1362 46.25 40 46.25C45.8637 46.25 50.625 41.4888 50.625 35.625C50.625 29.7613 45.8637 25 40 25ZM40 28.125C44.1387 28.125 47.5 31.4862 47.5 35.625C47.5 39.7638 44.1387 43.125 40 43.125C35.8612 43.125 32.5 39.7638 32.5 35.625C32.5 31.4862 35.8612 28.125 40 28.125ZM40 30.625C37.24 30.625 35 32.865 35 35.625C35 38.385 37.24 40.625 40 40.625C42.76 40.625 45 38.385 45 35.625C45 32.865 42.76 30.625 40 30.625Z" fill="#91C160"/>
</svg>
