<svg width="80" height="80" viewBox="0 0 80 80" fill="none" xmlns="http://www.w3.org/2000/svg">
<circle cx="40" cy="40" r="40" fill="#F1F1F1"/>
<g clip-path="url(#clip0_963_1600)">
<path d="M40.3782 40.4993C39.7312 40.4918 39.2098 39.9661 39.2174 39.324C39.225 38.6857 39.7578 38.1713 40.4087 38.1788C41.0557 38.1863 41.5771 38.712 41.5695 39.3541C41.5619 39.9924 41.029 40.5068 40.3782 40.4993ZM40.401 38.7871C40.0928 38.7871 39.8378 39.0274 39.8339 39.3315C39.8301 39.6357 40.0775 39.8873 40.3858 39.891C40.6941 39.891 40.9491 39.6507 40.9529 39.3466C40.9567 39.0424 40.7093 38.7908 40.401 38.7871Z" fill="url(#paint0_linear_963_1600)"/>
<path d="M40.4733 40.4092C39.8263 40.4017 39.3048 39.876 39.3125 39.2339C39.3201 38.5956 39.8529 38.0812 40.5037 38.0887C41.1508 38.0962 41.6722 38.6219 41.6646 39.264C41.657 39.9023 41.1241 40.4167 40.4733 40.4092ZM40.4961 38.697C40.1878 38.6932 39.9328 38.9373 39.929 39.2415C39.9252 39.5456 40.1726 39.7972 40.4809 39.8009C40.7892 39.8047 41.0442 39.5606 41.048 39.2565C41.0518 38.9523 40.8044 38.7007 40.4961 38.697Z" fill="url(#paint1_linear_963_1600)"/>
<path d="M53.7678 49.5412L53.6575 49.6463L52.6945 50.5475L46.9931 55.8944L47.0045 55.9583L48.4356 64.8536L48.4584 65L48.3214 64.9287L43.3165 62.2514L40.3059 60.6443L40.2412 60.6068L40.1727 60.6443L37.5579 61.9586H37.5541L32.8004 64.3542L32.0544 64.7297L31.9174 64.7972L31.944 64.6508V64.647L32.1077 63.7684L32.572 61.2864L33.6073 55.733V55.7292L31.3579 53.5101L28.9982 51.1858L27.1104 49.3196L27 49.2107L27.1522 49.192L29.9877 48.8202L36.1916 48.0092L36.2639 47.9979L36.3019 47.9303L38.3572 43.9464L39.5827 41.5658L40.4315 39.9174L40.5038 39.7822L40.5685 39.9212L41.52 41.8812L44.5116 48.0505L44.5154 48.0617L44.5382 48.103L44.6448 48.1181L51.3853 49.1694L53.6118 49.5186H53.6156L53.7678 49.5412Z" fill="url(#paint2_linear_963_1600)"/>
<path d="M40.2564 53.9043L40.1727 60.6443L37.558 61.9585H37.5542L32.8004 64.3541L32.0544 64.7296L35.8224 59.7544L40.2564 53.9043Z" fill="url(#paint3_linear_963_1600)"/>
<path d="M40.1803 53.784L36.9223 58.0796C36.9223 58.0796 36.9223 58.0834 36.9223 58.0871L31.9517 64.6431L32.1153 63.7645L32.5797 61.2825L33.6073 55.7891L40.1879 53.7803L40.1803 53.784Z" fill="url(#paint4_linear_963_1600)"/>
<path d="M53.6574 49.6462L52.6945 50.5474L52.0893 51.1144L47.0539 55.8343L45.3108 55.256L40.5494 53.6715L46.2813 51.9104L53.6574 49.6462Z" fill="url(#paint5_linear_963_1600)"/>
<path d="M48.3214 64.9286L43.3165 62.2514L40.3059 60.6443L40.3934 53.8743L48.3214 64.9286Z" fill="url(#paint6_linear_963_1600)"/>
<path d="M40.108 53.664L39.3125 53.908L33.5464 55.6653L28.9981 51.1858L27.1104 49.3196L40.108 53.664Z" fill="url(#paint7_linear_963_1600)"/>
<path d="M48.4356 64.8535L40.5038 53.7954L45.307 55.395L47.0045 55.9582L47.8114 60.9785L48.4356 64.8535Z" fill="url(#paint8_linear_963_1600)"/>
<path d="M40.4314 39.9175L40.264 53.4613L40.2335 53.42L36.3019 47.9304L38.3571 43.9465L39.5827 41.5659L40.4314 39.9175Z" fill="url(#paint9_linear_963_1600)"/>
<path d="M53.6118 49.5185L47.0806 51.5236L40.5419 53.5325L44.6448 48.1179L51.3853 49.1693L53.6118 49.5185Z" fill="url(#paint10_linear_963_1600)"/>
<path d="M44.5153 48.0429L44.5115 48.0504L40.3972 53.4762L40.5685 39.9023L41.5238 41.8737L44.5153 48.0429Z" fill="url(#paint11_linear_963_1600)"/>
<path d="M40.1536 53.5362L27.1522 49.1918L29.9877 48.8201L36.1916 48.009L39.6284 52.804L40.1536 53.5362Z" fill="url(#paint12_linear_963_1600)"/>
<g style="mix-blend-mode:color-burn" opacity="0.1">
<path d="M33.6073 55.7292L33.6111 55.733V55.7292H33.6073Z" fill="#848484"/>
</g>
<g style="mix-blend-mode:color-burn" opacity="0.1">
<path d="M47.0539 55.8342L46.993 55.8943L47.0539 55.8342Z" fill="#848484"/>
</g>
<g style="mix-blend-mode:color-burn" opacity="0.1">
<path d="M33.5464 55.6692L33.6073 55.7293L33.5464 55.6692Z" fill="#848484"/>
</g>
<g style="mix-blend-mode:color-burn" opacity="0.1">
<path d="M33.5996 55.793L33.611 55.7329L33.5996 55.793Z" fill="#848484"/>
</g>
<g style="mix-blend-mode:color-burn" opacity="0.1">
<path d="M46.2814 51.9105L40.5495 53.6715L47.0578 55.8381L46.9969 55.8982L47.0083 55.962L40.5076 53.7992L48.4394 64.8536L48.4622 65L48.3252 64.9287L40.3934 53.8743L40.3097 60.6443L40.2412 60.6106L40.1727 60.6443L40.2564 53.9081L35.8224 59.7582L32.0544 64.7334L31.9174 64.801L31.944 64.6508L36.9147 58.091V58.0873L40.1727 53.7879L33.592 55.7968L33.6035 55.7367L33.5426 55.6729L40.1042 53.6715L27.1104 49.3196L27 49.2107L27.1522 49.192L40.1537 53.5364L36.1916 48.0092L36.2639 47.9979L36.3019 47.9266L40.264 53.4575L40.4353 39.9174L40.5038 39.7822L40.5685 39.9174L40.3972 53.4913L44.5154 48.058L44.5344 48.0993L44.641 48.1181L40.5381 53.5288L47.0768 51.52L53.608 49.5149L53.7602 49.5374L53.6498 49.6425L46.2738 51.9067L46.2814 51.9105Z" fill="#848484"/>
</g>
<g style="mix-blend-mode:color-burn" opacity="0.1">
<path d="M46.2814 51.9105L40.5495 53.6715L47.0578 55.8381L46.9969 55.8982L47.0083 55.962L40.5076 53.7992L48.4394 64.8536L48.4622 65L48.3252 64.9287L40.3934 53.8743L40.3097 60.6443L40.2412 60.6106L40.1727 60.6443L40.2564 53.9081L35.8224 59.7582L32.0544 64.7334L31.9174 64.801L31.944 64.6508L36.9147 58.091V58.0873L40.1727 53.7879L33.592 55.7968L33.6035 55.7367L33.5426 55.6729L40.1042 53.6715L27.1104 49.3196L27 49.2107L27.1522 49.192L40.1537 53.5364L36.1916 48.0092L36.2639 47.9979L36.3019 47.9266L40.264 53.4575L40.4353 39.9174L40.5038 39.7822L40.5685 39.9174L40.3972 53.4913L44.5154 48.058L44.5344 48.0993L44.641 48.1181L40.5381 53.5288L47.0768 51.52L53.608 49.5149L53.7602 49.5374L53.6498 49.6425L46.2738 51.9067L46.2814 51.9105Z" fill="#848484"/>
</g>
<path style="mix-blend-mode:soft-light" opacity="0.8" d="M41.2155 41.2316C41.2155 41.2316 40.6294 46.0078 40.4772 47.4647C40.4201 47.9829 40.3934 48.4034 40.3896 48.6588C40.382 48.3358 40.363 47.9791 40.3363 47.5999C40.1993 45.6586 40.0661 42.6772 39.8187 41.1115L40.4353 39.9174L40.5038 39.7822L40.5685 39.9174V39.8986L41.2117 41.2279L41.2155 41.2316Z" fill="url(#paint13_linear_963_1600)"/>
<path style="mix-blend-mode:soft-light" opacity="0.8" d="M53.7678 49.5413L53.6574 49.6464L52.9609 50.2998C50.9361 50.7391 48.1767 51.5088 46.2813 51.9106C46.2775 51.9106 46.2737 51.9106 46.2699 51.9106C46.2699 51.9106 46.582 51.7679 47.0806 51.5201C48.0778 51.032 52.3824 49.3235 52.3824 49.3235L53.6117 49.515L53.764 49.5375L53.7678 49.5413Z" fill="url(#paint14_linear_963_1600)"/>
<g style="mix-blend-mode:soft-light" opacity="0.2">
<path d="M40.3553 50.4762C40.3553 50.4762 39.9633 53.6791 43.3545 52.7479C41.0557 53.5927 41.3868 55.0721 42.1556 56.2211C42.1556 56.3225 40.3972 53.4913 38.4371 56.1798C38.4371 56.1798 40.3934 53.8706 37.4437 52.684C37.6074 52.6991 40.382 54.0508 40.3591 50.4724L40.3553 50.4762Z" fill="white"/>
</g>
<g style="mix-blend-mode:color-burn" opacity="0.3">
<path d="M40.3288 53.5402C40.3288 53.5402 40.2907 53.4989 40.2603 53.4576C40.2489 53.4463 40.2412 53.435 40.2336 53.4238L36.302 47.9341L38.3573 43.9502C38.3687 46.3458 38.6275 50.8742 40.2641 53.4388C40.2869 53.4763 40.3098 53.5101 40.3326 53.5439L40.3288 53.5402Z" fill="#848484"/>
</g>
<g style="mix-blend-mode:color-burn" opacity="0.2">
<path d="M39.6285 52.8042C36.9985 50.401 32.2447 49.2521 29.9916 48.824L36.1954 48.0129L39.6285 52.8042Z" fill="#848484"/>
</g>
<g style="mix-blend-mode:color-burn" opacity="0.1">
<path d="M39.3125 53.9081L33.5502 55.6691L29.002 51.1858C34.2771 55.3011 35.6168 54.1409 39.3163 53.9081H39.3125Z" fill="#848484"/>
</g>
<g style="mix-blend-mode:color-burn" opacity="0.3">
<path d="M40.3287 53.7841C40.3287 53.7841 40.3135 53.7841 40.3059 53.7841C40.3173 53.7841 40.3249 53.7804 40.3287 53.7841Z" fill="#848484"/>
</g>
<g style="mix-blend-mode:color-burn" opacity="0.3">
<path d="M39.3125 53.9081C39.0004 54.0357 38.6997 54.1784 38.4105 54.3248C33.7595 56.7092 32.5987 61.1813 32.572 61.2864L33.5997 55.793L33.6225 55.7855L39.3125 53.9043V53.9081Z" fill="#848484"/>
</g>
<g style="mix-blend-mode:soft-light" opacity="0.9">
<path d="M36.9185 58.0873C36.8538 58.185 36.4161 58.8496 35.8261 59.7508C34.9165 61.1326 33.6453 63.0738 32.8041 64.3505L32.0582 64.726L31.9211 64.7936L31.9478 64.6434L32.1114 63.761L36.9223 58.0798L36.9185 58.0873Z" fill="white"/>
</g>
<g style="mix-blend-mode:color-burn" opacity="0.3">
<path d="M43.3164 62.2514L40.3058 60.6443L40.2373 60.6105L40.1688 60.6443L37.5541 61.9622C39.2744 60.5729 39.9937 56.8481 40.2411 55.1396C40.3173 54.5989 40.3477 54.261 40.3477 54.261C40.3515 54.5313 40.3629 54.7904 40.3782 55.042C40.6636 60.021 42.8483 61.9059 43.3164 62.2551V62.2514Z" fill="#848484"/>
</g>
<g style="mix-blend-mode:color-burn" opacity="0.3">
<path d="M52.0893 51.1145L47.0578 55.8344L45.3108 55.2524C45.3108 55.2524 48.9722 53.0933 52.0893 51.1145Z" fill="#848484"/>
</g>
<g style="mix-blend-mode:color-burn" opacity="0.3">
<path d="M47.8114 60.9785C46.7952 58.23 45.307 55.395 45.307 55.395L47.0045 55.9583L47.8114 60.9785Z" fill="#848484"/>
</g>
<path d="M54 32.2537L52.664 32.8207L51.389 33.3539L49.3794 34.2025L45.1585 35.9823L43.3355 36.752L42.0566 37.289L40.557 37.9198L38.6997 37.0825L37.4399 36.5155L35.5331 35.6556L31.3845 33.7857L29.4853 32.9296L28.2255 32.3626L27.2626 31.927L32.5796 15L49.1092 15.2028L54 32.2537Z" fill="#12518F"/>
<path d="M42.0186 19.9001L35.5331 35.6555L32.1039 34.1123L38.3153 16.9487L42.0186 19.9001Z" fill="#D1D1D1"/>
<path d="M36.1458 15.2216L29.9839 33.1549L28.8611 32.648L34.7414 15.0264L35.9213 15.0414L36.1458 15.2216Z" fill="#D1D1D1"/>
<path d="M44.4316 21.8301L38.6997 37.0825L37.4399 36.5155L43.3012 20.929L44.4316 21.8301Z" fill="#D1D1D1"/>
<path style="mix-blend-mode:multiply" opacity="0.5" d="M54 32.2537L52.664 32.8207L51.389 33.3539L49.3794 34.2025L45.1585 35.9823L43.3355 36.752L42.0566 37.289L40.557 37.9198L38.6997 37.0825L37.4399 36.5155L35.5331 35.6556L31.3845 33.7857L29.4853 32.9296L28.2255 32.3626L27.2626 31.927L32.5796 15L49.1092 15.2028L54 32.2537Z" fill="url(#paint15_linear_963_1600)"/>
<path d="M53.9999 32.2537L52.664 32.8207L51.389 33.3539L49.3794 34.2025L48.9227 34.394L45.6381 35.7795L45.1585 35.9823L43.3354 36.752L42.0566 37.289L40.557 37.9198L32.5796 15L49.1092 15.2028L53.9999 32.2537Z" fill="#1E8AF3"/>
<path d="M48.9228 34.394L45.6382 35.7795L39.0309 15.0789L43.0729 15.1277L48.9228 34.394Z" fill="white"/>
<path d="M43.3355 36.7521L42.0567 37.2891L34.7833 15.0264L36.241 15.0451L43.3355 36.7521Z" fill="white"/>
<path d="M52.664 32.8207L51.389 33.3539L45.4402 15.1577L46.8979 15.1765L52.664 32.8207Z" fill="white"/>
<path style="mix-blend-mode:multiply" opacity="0.5" d="M53.9999 32.2537L52.664 32.8207L51.389 33.3539L49.3794 34.2025L45.1585 35.9823L43.3354 36.752L42.0566 37.289L40.557 37.9198L32.5796 15L49.1092 15.2028L53.9999 32.2537Z" fill="url(#paint16_linear_963_1600)"/>
<path d="M40.8539 38.7384C40.8539 38.9449 40.6865 39.1064 40.4885 39.1064C40.2906 39.1064 40.1308 38.9374 40.1346 38.7309L40.1498 37.5294C40.1498 37.3228 40.3173 37.1614 40.5152 37.1614C40.7131 37.1614 40.873 37.3303 40.8692 37.5369L40.8539 38.7384Z" fill="url(#paint17_linear_963_1600)"/>
<path style="mix-blend-mode:color-burn" opacity="0.2" d="M53.6118 49.5185L52.3824 49.327L51.3853 49.1693L44.6448 48.118L44.5382 48.0992L44.5192 48.0579V48.0466V48.0391L41.5276 41.8661L40.8235 40.4129C40.991 40.3491 41.1394 40.244 41.2612 40.1163C41.5048 39.906 41.6646 39.6019 41.6685 39.2602C41.6761 38.7458 41.3373 38.3065 40.8654 38.1525V37.7883L42.0605 37.2851L43.3393 36.7482L45.1662 35.9784L49.3871 34.1986L51.3967 33.35L52.6717 32.8168L54.0076 32.2536L49.1092 15.2027L46.8979 15.1764H46.7191L43.0767 15.1313L41.5276 15.1126L36.066 15.045H35.9251L35.4684 15.0375L34.7909 15.0299L32.5873 15.0037L27.2626 31.9269L28.2255 32.3625L29.4853 32.9332L31.3884 33.7893L32.1077 34.1123L35.5369 35.6593L37.4399 36.5191L38.6997 37.0861L40.146 37.7395V38.1488C39.9405 38.2088 39.7654 38.3215 39.6246 38.4717C39.381 38.6819 39.2212 38.9861 39.2174 39.3278C39.2098 39.8873 39.6094 40.3641 40.146 40.4768L39.5827 41.5732L38.3572 43.95L36.3019 47.934L36.2639 48.0053L36.1916 48.0166L29.9877 48.8276L27.1522 49.1994L27 49.2181L27.1104 49.327L28.9982 51.1895L31.3579 53.5175L33.5844 55.7103L33.6073 55.7366L32.572 61.2938L32.1077 63.7758L31.944 64.6545L31.9174 64.8047L32.0544 64.7371L32.8004 64.3616L37.5541 61.9697L40.1689 60.6518L40.2374 60.618L40.3059 60.6518L43.3165 62.2588L48.3252 64.9361L48.4622 65.0074L48.4394 64.861L47.0083 55.9657L46.9969 55.9018L52.6945 50.5586L53.6575 49.6575L53.7678 49.5523L53.6156 49.5298L53.6118 49.5185ZM40.1537 38.8434C40.1993 38.9936 40.3287 39.1062 40.4886 39.1062C40.6104 39.1062 40.7169 39.0424 40.7816 38.9448C40.8882 39.0462 40.9529 39.1889 40.9529 39.3466C40.9529 39.4742 40.9034 39.5944 40.8273 39.6845C40.7398 39.7521 40.6294 39.7934 40.5114 39.7971L40.5038 39.7821L40.4962 39.7971C40.4962 39.7971 40.4886 39.7971 40.481 39.7971C40.1727 39.7934 39.9253 39.5418 39.9291 39.2377C39.9291 39.11 39.9786 38.9936 40.0547 38.8997C40.0851 38.8772 40.1156 38.8584 40.1498 38.8396L40.1537 38.8434Z" fill="url(#paint18_radial_963_1600)"/>
</g>
<defs>
<linearGradient id="paint0_linear_963_1600" x1="39.2172" y1="39.3254" x2="41.5692" y2="39.355" gradientUnits="userSpaceOnUse">
<stop stop-color="#F4A11C"/>
<stop offset="1" stop-color="#F4951C"/>
</linearGradient>
<linearGradient id="paint1_linear_963_1600" x1="39.7035" y1="38.7869" x2="41.504" y2="39.882" gradientUnits="userSpaceOnUse">
<stop stop-color="#FFF68B"/>
<stop offset="1" stop-color="#FFE446"/>
</linearGradient>
<linearGradient id="paint2_linear_963_1600" x1="26.9631" y1="52.1799" x2="53.7287" y2="52.5161" gradientUnits="userSpaceOnUse">
<stop stop-color="#CB7B30"/>
<stop offset="0.44" stop-color="#FFDA37"/>
<stop offset="1" stop-color="#FEFB80"/>
</linearGradient>
<linearGradient id="paint3_linear_963_1600" x1="32.9903" y1="58.1003" x2="39.8029" y2="60.7961" gradientUnits="userSpaceOnUse">
<stop stop-color="#FFD463"/>
<stop offset="1" stop-color="#FFC531"/>
</linearGradient>
<linearGradient id="paint4_linear_963_1600" x1="35.9528" y1="58.6058" x2="35.3328" y2="55.0353" gradientUnits="userSpaceOnUse">
<stop stop-color="#FFF68B"/>
<stop offset="1" stop-color="#FFE446"/>
</linearGradient>
<linearGradient id="paint5_linear_963_1600" x1="40.5612" y1="52.6239" x2="53.6149" y2="52.7879" gradientUnits="userSpaceOnUse">
<stop stop-color="#F4A11C"/>
<stop offset="1" stop-color="#FF671B"/>
</linearGradient>
<linearGradient id="paint6_linear_963_1600" x1="44.4277" y1="59.3555" x2="40.0095" y2="62.4436" gradientUnits="userSpaceOnUse">
<stop stop-color="#F29D1D"/>
<stop offset="1" stop-color="#F2B61D"/>
</linearGradient>
<linearGradient id="paint7_linear_963_1600" x1="35.2564" y1="56.1678" x2="32.562" y2="48.3232" gradientUnits="userSpaceOnUse">
<stop offset="0.17" stop-color="#FFC420"/>
<stop offset="1" stop-color="#FFB820"/>
</linearGradient>
<linearGradient id="paint8_linear_963_1600" x1="44.4549" y1="60.5199" x2="44.5259" y2="54.7115" gradientUnits="userSpaceOnUse">
<stop offset="0.17" stop-color="#FFC420"/>
<stop offset="1" stop-color="#FFB820"/>
</linearGradient>
<linearGradient id="paint9_linear_963_1600" x1="36.8036" y1="47.2308" x2="40.4814" y2="46.6562" gradientUnits="userSpaceOnUse">
<stop stop-color="#FFF68B"/>
<stop offset="1" stop-color="#FFE446"/>
</linearGradient>
<linearGradient id="paint10_linear_963_1600" x1="43.3825" y1="50.747" x2="50.8067" y2="52.3547" gradientUnits="userSpaceOnUse">
<stop stop-color="#FFA91F"/>
<stop offset="1" stop-color="#FF8C2E"/>
</linearGradient>
<linearGradient id="paint11_linear_963_1600" x1="40.2778" y1="46.7099" x2="45.5923" y2="46.225" gradientUnits="userSpaceOnUse">
<stop stop-color="#F4A11C"/>
<stop offset="1" stop-color="#F4951C"/>
</linearGradient>
<linearGradient id="paint12_linear_963_1600" x1="31.66" y1="52.1808" x2="42.0136" y2="47.8455" gradientUnits="userSpaceOnUse">
<stop stop-color="#FFA91F"/>
<stop offset="1" stop-color="#FF8C2E"/>
</linearGradient>
<linearGradient id="paint13_linear_963_1600" x1="39.7801" y1="44.2141" x2="41.1768" y2="44.2317" gradientUnits="userSpaceOnUse">
<stop stop-color="white"/>
<stop offset="1" stop-color="white"/>
</linearGradient>
<linearGradient id="paint14_linear_963_1600" x1="46.2849" y1="50.5837" x2="53.7518" y2="50.6775" gradientUnits="userSpaceOnUse">
<stop stop-color="white"/>
<stop offset="1" stop-color="white"/>
</linearGradient>
<linearGradient id="paint15_linear_963_1600" x1="35.715" y1="38.4491" x2="41.592" y2="26.6335" gradientUnits="userSpaceOnUse">
<stop stop-color="#888888"/>
<stop offset="0.08" stop-color="#ACACAC"/>
<stop offset="0.15" stop-color="#CACACA"/>
<stop offset="0.23" stop-color="#E1E1E1"/>
<stop offset="0.31" stop-color="#F2F2F2"/>
<stop offset="0.4" stop-color="#FBFBFB"/>
<stop offset="0.52" stop-color="white"/>
<stop offset="0.6" stop-color="#F9F9F9"/>
<stop offset="0.69" stop-color="#EBEBEB"/>
<stop offset="0.79" stop-color="#D2D2D2"/>
<stop offset="0.89" stop-color="#B0B0B0"/>
<stop offset="1" stop-color="#858585"/>
</linearGradient>
<linearGradient id="paint16_linear_963_1600" x1="41.1974" y1="16.2217" x2="46.9473" y2="34.9335" gradientUnits="userSpaceOnUse">
<stop stop-color="#888888"/>
<stop offset="0.08" stop-color="#ACACAC"/>
<stop offset="0.15" stop-color="#CACACA"/>
<stop offset="0.23" stop-color="#E1E1E1"/>
<stop offset="0.31" stop-color="#F2F2F2"/>
<stop offset="0.4" stop-color="#FBFBFB"/>
<stop offset="0.52" stop-color="white"/>
<stop offset="0.6" stop-color="#F9F9F9"/>
<stop offset="0.69" stop-color="#EBEBEB"/>
<stop offset="0.79" stop-color="#D2D2D2"/>
<stop offset="0.89" stop-color="#B0B0B0"/>
<stop offset="1" stop-color="#858585"/>
</linearGradient>
<linearGradient id="paint17_linear_963_1600" x1="40.2801" y1="37.431" x2="40.7156" y2="38.863" gradientUnits="userSpaceOnUse">
<stop stop-color="#FFCE47"/>
<stop offset="1" stop-color="#FFB820"/>
</linearGradient>
<radialGradient id="paint18_radial_963_1600" cx="0" cy="0" r="1" gradientUnits="userSpaceOnUse" gradientTransform="translate(40.5 39.9999) scale(20.3014 20.0285)">
<stop stop-color="white"/>
<stop offset="0.17" stop-color="#F0F0F0"/>
<stop offset="0.48" stop-color="#C8C8C8"/>
<stop offset="0.92" stop-color="#898989"/>
<stop offset="1" stop-color="#7D7D7D"/>
</radialGradient>
<clipPath id="clip0_963_1600">
<rect width="27" height="50" fill="white" transform="translate(27 15)"/>
</clipPath>
</defs>
</svg>
