<svg width="33" height="61" viewBox="0 0 33 61" fill="none" xmlns="http://www.w3.org/2000/svg">
<g clip-path="url(#clip0_963_1600)">
<path d="M16.0539 31.0992C15.2774 31.0902 14.6517 30.4593 14.6609 29.6888C14.67 28.9228 15.3094 28.3055 16.0904 28.3146C16.8668 28.3236 17.4926 28.9544 17.4834 29.7249C17.4743 30.4909 16.8349 31.1082 16.0539 31.0992ZM16.0813 29.0445C15.7113 29.0445 15.4053 29.3329 15.4008 29.6979C15.3962 30.0628 15.6931 30.3647 16.063 30.3692C16.433 30.3692 16.739 30.0808 16.7435 29.7159C16.7481 29.3509 16.4512 29.049 16.0813 29.0445Z" fill="url(#paint0_linear_963_1600)"/>
<path d="M16.168 30.9913C15.3916 30.9822 14.7659 30.3514 14.775 29.5809C14.7841 28.8149 15.4235 28.1976 16.2045 28.2066C16.981 28.2157 17.6067 28.8465 17.5976 29.617C17.5884 30.383 16.949 31.0003 16.168 30.9913ZM16.1954 28.9366C15.8255 28.9321 15.5195 29.225 15.5149 29.5899C15.5103 29.9549 15.8072 30.2568 16.1771 30.2613C16.5471 30.2658 16.8531 29.9729 16.8577 29.608C16.8622 29.243 16.5654 28.9411 16.1954 28.9366Z" fill="url(#paint1_linear_963_1600)"/>
<path d="M32.1214 41.9495L31.9889 42.0757L30.8334 43.1571L23.9917 49.5734L24.0054 49.65L25.7227 60.3244L25.7501 60.5001L25.5857 60.4145L19.5798 57.2018L15.9671 55.2733L15.8894 55.2283L15.8072 55.2733L12.6695 56.8504H12.665L6.96047 59.7251L6.06529 60.1757L5.90087 60.2568L5.93284 60.0811V60.0766L6.12924 59.0222L6.68644 56.0438L7.92873 49.3797V49.3751L5.22949 46.7122L2.3978 43.9231L0.13245 41.6836L0 41.553L0.18269 41.5304L3.58528 41.0844L11.0299 40.1111L11.1167 40.0976L11.1623 40.0165L13.6286 35.2358L15.0993 32.3791L16.1178 30.401L16.2046 30.2388L16.2822 30.4055L17.424 32.7575L21.0139 40.1607L21.0184 40.1742L21.0458 40.2238L21.1737 40.2418L29.2623 41.5034L31.9341 41.9225H31.9387L32.1214 41.9495Z" fill="url(#paint2_linear_963_1600)"/>
<path d="M15.9077 47.1853L15.8072 55.2733L12.6695 56.8504H12.665L6.96049 59.7251L6.06531 60.1757L10.5869 54.2054L15.9077 47.1853Z" fill="url(#paint3_linear_963_1600)"/>
<path d="M15.8164 47.0411L11.9068 52.1958C11.9068 52.1958 11.9068 52.2003 11.9068 52.2048L5.94202 60.0721L6.13841 59.0177L6.69561 56.0393L7.92877 49.4473L15.8255 47.0366L15.8164 47.0411Z" fill="url(#paint4_linear_963_1600)"/>
<path d="M31.989 42.0757L30.8335 43.1571L30.1073 43.8375L24.0648 49.5013L21.973 48.8074L16.2594 46.906L23.1377 44.7927L31.989 42.0757Z" fill="url(#paint5_linear_963_1600)"/>
<path d="M25.5856 60.4147L19.5797 57.202L15.967 55.2735L16.0721 47.1494L25.5856 60.4147Z" fill="url(#paint6_linear_963_1600)"/>
<path d="M15.7296 46.8971L14.775 47.19L7.85565 49.2987L2.3978 43.9232L0.132446 41.6838L15.7296 46.8971Z" fill="url(#paint7_linear_963_1600)"/>
<path d="M25.7227 60.3244L16.2046 47.0547L21.9684 48.9742L24.0054 49.6501L24.9737 55.6744L25.7227 60.3244Z" fill="url(#paint8_linear_963_1600)"/>
<path d="M16.1178 30.4011L15.9168 46.6538L15.8803 46.6042L11.1624 40.0166L13.6287 35.2359L15.0993 32.3792L16.1178 30.4011Z" fill="url(#paint9_linear_963_1600)"/>
<path d="M31.9341 41.9226L24.0968 44.3288L16.2502 46.7394L21.1737 40.2419L29.2623 41.5036L31.9341 41.9226Z" fill="url(#paint10_linear_963_1600)"/>
<path d="M21.0184 40.1518L21.0138 40.1608L16.0767 46.6717L16.2822 30.3831L17.4286 32.7486L21.0184 40.1518Z" fill="url(#paint11_linear_963_1600)"/>
<path d="M15.7844 46.7437L0.182739 41.5304L3.58533 41.0843L11.0299 40.1111L15.1542 45.8651L15.7844 46.7437Z" fill="url(#paint12_linear_963_1600)"/>
<g style="mix-blend-mode:color-burn" opacity="0.1">
<path d="M7.92871 49.3752L7.93252 49.379V49.3752H7.92871Z" fill="#848484"/>
</g>
<g style="mix-blend-mode:color-burn" opacity="0.1">
<path d="M24.0648 49.5012L23.9917 49.5733L24.0648 49.5012Z" fill="#848484"/>
</g>
<g style="mix-blend-mode:color-burn" opacity="0.1">
<path d="M7.85571 49.303L7.92879 49.3751L7.85571 49.303Z" fill="#848484"/>
</g>
<g style="mix-blend-mode:color-burn" opacity="0.1">
<path d="M7.91956 49.4517L7.93326 49.3796L7.91956 49.4517Z" fill="#848484"/>
</g>
<g style="mix-blend-mode:color-burn" opacity="0.1">
<path d="M23.1376 44.7927L16.2594 46.9059L24.0694 49.5058L23.9963 49.5779L24.01 49.6545L16.2091 47.0591L25.7273 60.3244L25.7547 60.5001L25.5902 60.4145L16.0721 47.1493L15.9716 55.2733L15.8894 55.2328L15.8072 55.2733L15.9077 47.1898L10.5869 54.2099L6.06529 60.1802L5.90087 60.2613L5.93284 60.0811L11.8977 52.2093V52.2048L15.8072 47.0456L7.91046 49.4563L7.92416 49.3842L7.85108 49.3076L15.725 46.9059L0.13245 41.6836L0 41.553L0.18269 41.5304L15.7844 46.7437L11.0299 40.1111L11.1167 40.0976L11.1623 40.012L15.9168 46.6491L16.1224 30.401L16.2046 30.2388L16.2822 30.401L16.0767 46.6897L21.0184 40.1697L21.0413 40.2192L21.1692 40.2418L16.2457 46.7347L24.0922 44.3241L31.9296 41.918L32.1123 41.945L31.9798 42.0712L23.1285 44.7882L23.1376 44.7927Z" fill="#848484"/>
</g>
<g style="mix-blend-mode:color-burn" opacity="0.1">
<path d="M23.1376 44.7927L16.2594 46.9059L24.0694 49.5058L23.9963 49.5779L24.01 49.6545L16.2091 47.0591L25.7273 60.3244L25.7547 60.5001L25.5902 60.4145L16.0721 47.1493L15.9716 55.2733L15.8894 55.2328L15.8072 55.2733L15.9077 47.1898L10.5869 54.2099L6.06529 60.1802L5.90087 60.2613L5.93284 60.0811L11.8977 52.2093V52.2048L15.8072 47.0456L7.91046 49.4563L7.92416 49.3842L7.85108 49.3076L15.725 46.9059L0.13245 41.6836L0 41.553L0.18269 41.5304L15.7844 46.7437L11.0299 40.1111L11.1167 40.0976L11.1623 40.012L15.9168 46.6491L16.1224 30.401L16.2046 30.2388L16.2822 30.401L16.0767 46.6897L21.0184 40.1697L21.0413 40.2192L21.1692 40.2418L16.2457 46.7347L24.0922 44.3241L31.9296 41.918L32.1123 41.945L31.9798 42.0712L23.1285 44.7882L23.1376 44.7927Z" fill="#848484"/>
</g>
<path style="mix-blend-mode:soft-light" opacity="0.8" d="M17.0586 31.978C17.0586 31.978 16.3553 37.7095 16.1726 39.4578C16.1041 40.0796 16.0721 40.5842 16.0675 40.8906C16.0584 40.5031 16.0356 40.0751 16.0036 39.62C15.8392 37.2904 15.6793 33.7128 15.3824 31.8338L16.1223 30.401L16.2045 30.2388L16.2822 30.401V30.3785L17.0541 31.9735L17.0586 31.978Z" fill="url(#paint13_linear_963_1600)"/>
<path style="mix-blend-mode:soft-light" opacity="0.8" d="M32.1214 41.9496L31.9889 42.0757L31.1531 42.8598C28.7233 43.3869 25.4121 44.3106 23.1376 44.7928C23.133 44.7928 23.1285 44.7928 23.1239 44.7928C23.1239 44.7928 23.4984 44.6215 24.0967 44.3242C25.2933 43.7384 30.4589 41.6882 30.4589 41.6882L31.9341 41.918L32.1168 41.9451L32.1214 41.9496Z" fill="url(#paint14_linear_963_1600)"/>
<g style="mix-blend-mode:soft-light" opacity="0.2">
<path d="M16.0264 43.0714C16.0264 43.0714 15.556 46.9149 19.6254 45.7974C16.8668 46.8113 17.2641 48.5866 18.1867 49.9654C18.1867 50.087 16.0766 46.6896 13.7245 49.9158C13.7245 49.9158 16.0721 47.1447 12.5325 45.7208C12.7289 45.7389 16.0584 47.361 16.031 43.0669L16.0264 43.0714Z" fill="white"/>
</g>
<g style="mix-blend-mode:color-burn" opacity="0.3">
<path d="M15.9945 46.7482C15.9945 46.7482 15.9488 46.6986 15.9123 46.6491C15.8986 46.6355 15.8894 46.622 15.8803 46.6085L11.1624 40.0209L13.6287 35.2402C13.6424 38.115 13.9529 43.549 15.9168 46.6265C15.9443 46.6716 15.9717 46.7121 15.9991 46.7527L15.9945 46.7482Z" fill="#848484"/>
</g>
<g style="mix-blend-mode:color-burn" opacity="0.2">
<path d="M15.1541 45.8652C11.9981 42.9814 6.29365 41.6027 3.58984 41.089L11.0344 40.1157L15.1541 45.8652Z" fill="#848484"/>
</g>
<g style="mix-blend-mode:color-burn" opacity="0.1">
<path d="M14.775 47.1898L7.86019 49.3031L2.40234 43.9231C8.73254 48.8615 10.3402 47.4692 14.7796 47.1898H14.775Z" fill="#848484"/>
</g>
<g style="mix-blend-mode:color-burn" opacity="0.3">
<path d="M15.9944 47.0411C15.9944 47.0411 15.9762 47.0411 15.967 47.0411C15.9807 47.0411 15.9899 47.0366 15.9944 47.0411Z" fill="#848484"/>
</g>
<g style="mix-blend-mode:color-burn" opacity="0.3">
<path d="M14.775 47.1898C14.4005 47.343 14.0397 47.5142 13.6925 47.69C8.11138 50.5512 6.71837 55.9177 6.6864 56.0438L7.91956 49.4517L7.94696 49.4427L14.775 47.1853V47.1898Z" fill="#848484"/>
</g>
<g style="mix-blend-mode:soft-light" opacity="0.9">
<path d="M11.9022 52.2048C11.8245 52.322 11.2993 53.1195 10.5914 54.2009C9.49981 55.8591 7.97435 58.1886 6.96499 59.7206L6.06982 60.1712L5.9054 60.2523L5.93737 60.072L6.13376 59.0132L11.9067 52.1958L11.9022 52.2048Z" fill="white"/>
</g>
<g style="mix-blend-mode:color-burn" opacity="0.3">
<path d="M19.5797 57.2017L15.967 55.2732L15.8848 55.2327L15.8026 55.2732L12.6649 56.8548C14.7293 55.1876 15.5925 50.7178 15.8894 48.6677C15.9807 48.0188 16.0173 47.6133 16.0173 47.6133C16.0218 47.9377 16.0355 48.2486 16.0538 48.5505C16.3964 54.5253 19.0179 56.7872 19.5797 57.2063V57.2017Z" fill="#848484"/>
</g>
<g style="mix-blend-mode:color-burn" opacity="0.3">
<path d="M30.1073 43.8374L24.0694 49.5013L21.973 48.8029C21.973 48.8029 26.3667 46.212 30.1073 43.8374Z" fill="#848484"/>
</g>
<g style="mix-blend-mode:color-burn" opacity="0.3">
<path d="M24.9736 55.6743C23.7542 52.376 21.9684 48.9741 21.9684 48.9741L24.0054 49.65L24.9736 55.6743Z" fill="#848484"/>
</g>
<path d="M32.4 21.2044L30.7969 21.8848L29.2669 22.5246L26.8554 23.543L21.7903 25.6787L19.6026 26.6024L18.068 27.2468L16.2686 28.0038L14.0397 26.9989L12.528 26.3186L10.2398 25.2867L5.26151 23.0428L2.98245 22.0155L1.4707 21.3351L0.315186 20.8124L6.69562 0.5L26.5311 0.743316L32.4 21.2044Z" fill="#12518F"/>
<path d="M18.0224 6.38023L10.2398 25.2868L6.12476 23.4349L13.5785 2.83862L18.0224 6.38023Z" fill="#D1D1D1"/>
<path d="M10.9751 0.765799L3.58073 22.2858L2.2334 21.6775L9.28978 0.531494L10.7056 0.549518L10.9751 0.765799Z" fill="#D1D1D1"/>
<path d="M20.918 8.69615L14.0397 26.9989L12.528 26.3186L19.5615 7.61475L20.918 8.69615Z" fill="#D1D1D1"/>
<path style="mix-blend-mode:multiply" opacity="0.5" d="M32.4 21.2044L30.7969 21.8848L29.2669 22.5246L26.8554 23.543L21.7903 25.6787L19.6026 26.6024L18.068 27.2468L16.2686 28.0038L14.0397 26.9989L12.528 26.3186L10.2398 25.2867L5.26151 23.0428L2.98245 22.0155L1.4707 21.3351L0.315186 20.8124L6.69562 0.5L26.5311 0.743316L32.4 21.2044Z" fill="url(#paint15_linear_963_1600)"/>
<path d="M32.4001 21.2044L30.797 21.8848L29.267 22.5246L26.8555 23.543L26.3074 23.7728L22.3659 25.4354L21.7904 25.6787L19.6027 26.6024L18.0681 27.2468L16.2686 28.0038L6.69568 0.5L26.5312 0.743316L32.4001 21.2044Z" fill="#1E8AF3"/>
<path d="M26.3074 23.7729L22.3659 25.4355L14.4371 0.594727L19.2875 0.653303L26.3074 23.7729Z" fill="white"/>
<path d="M19.6027 26.6024L18.0681 27.2467L9.34009 0.531494L11.0893 0.554023L19.6027 26.6024Z" fill="white"/>
<path d="M30.7969 21.8848L29.2669 22.5246L22.1283 0.689209L23.8775 0.711738L30.7969 21.8848Z" fill="white"/>
<path style="mix-blend-mode:multiply" opacity="0.5" d="M32.4001 21.2044L30.797 21.8848L29.267 22.5246L26.8555 23.543L21.7904 25.6787L19.6027 26.6024L18.0681 27.2468L16.2686 28.0038L6.69568 0.5L26.5312 0.743316L32.4001 21.2044Z" fill="url(#paint16_linear_963_1600)"/>
<path d="M16.6248 28.986C16.6248 29.2338 16.4238 29.4275 16.1863 29.4275C15.9488 29.4275 15.757 29.2248 15.7616 28.977L15.7798 27.5351C15.7798 27.2873 15.9808 27.0935 16.2183 27.0935C16.4558 27.0935 16.6476 27.2963 16.643 27.5441L16.6248 28.986Z" fill="url(#paint17_linear_963_1600)"/>
<path style="mix-blend-mode:color-burn" opacity="0.2" d="M31.9341 41.9222L30.4589 41.6924L29.2623 41.5032L21.1737 40.2415L21.0458 40.219L21.023 40.1695V40.1559V40.1469L17.4332 32.7393L16.5882 30.9955C16.7892 30.9189 16.9673 30.7928 17.1134 30.6396C17.4057 30.3872 17.5976 30.0223 17.6021 29.6122C17.6113 28.9949 17.2048 28.4677 16.6385 28.283V27.8459L18.0726 27.2422L19.6072 26.5978L21.7994 25.6741L26.8645 23.5383L29.276 22.52L30.806 21.8802L32.4091 21.2043L26.5311 0.743205L23.8775 0.711664H23.6629L19.292 0.657594L17.4332 0.635064L10.8792 0.553959H10.7102L10.1621 0.544947L9.34914 0.535936L6.70471 0.504395L0.31514 20.8123L1.47065 21.335L2.98241 22.0199L5.26603 23.0472L6.12924 23.4347L10.2443 25.2911L12.5279 26.323L14.0397 27.0033L15.7752 27.7874V28.2785C15.5286 28.3506 15.3185 28.4858 15.1495 28.666C14.8572 28.9183 14.6654 29.2833 14.6608 29.6933C14.6517 30.3647 15.1313 30.937 15.7752 31.0721L15.0993 32.3878L13.6286 35.24L11.1623 40.0208L11.1167 40.1064L11.0299 40.1199L3.58528 41.0932L0.18269 41.5392L0 41.5618L0.13245 41.6924L2.3978 43.9273L5.22949 46.721L7.90132 49.3524L7.92873 49.3839L6.68644 56.0526L6.12924 59.031L5.93284 60.0854L5.90087 60.2656L6.06529 60.1845L6.96047 59.7339L12.665 56.8637L15.8026 55.2821L15.8849 55.2415L15.9671 55.2821L19.5798 57.2106L25.5902 60.4233L25.7547 60.5089L25.7273 60.3332L24.01 49.6588L23.9963 49.5822L30.8334 43.1704L31.9889 42.089L32.1214 41.9628L31.9387 41.9358L31.9341 41.9222ZM15.7844 29.1121C15.8392 29.2923 15.9945 29.4275 16.1863 29.4275C16.3324 29.4275 16.4603 29.3509 16.538 29.2337C16.6659 29.3554 16.7435 29.5266 16.7435 29.7159C16.7435 29.8691 16.6841 30.0133 16.5928 30.1214C16.4877 30.2025 16.3553 30.2521 16.2137 30.2566L16.2046 30.2385L16.1954 30.2566C16.1954 30.2566 16.1863 30.2566 16.1772 30.2566C15.8072 30.2521 15.5103 29.9502 15.5149 29.5852C15.5149 29.432 15.5743 29.2923 15.6656 29.1797C15.7022 29.1526 15.7387 29.1301 15.7798 29.1076L15.7844 29.1121Z" fill="url(#paint18_radial_963_1600)"/>
</g>
<defs>
<linearGradient id="paint0_linear_963_1600" x1="14.6607" y1="29.6905" x2="17.483" y2="29.726" gradientUnits="userSpaceOnUse">
<stop stop-color="#F4A11C"/>
<stop offset="1" stop-color="#F4951C"/>
</linearGradient>
<linearGradient id="paint1_linear_963_1600" x1="15.2443" y1="29.0445" x2="17.4049" y2="30.3586" gradientUnits="userSpaceOnUse">
<stop stop-color="#FFF68B"/>
<stop offset="1" stop-color="#FFE446"/>
</linearGradient>
<linearGradient id="paint2_linear_963_1600" x1="-0.044327" y1="45.1159" x2="32.0745" y2="45.5194" gradientUnits="userSpaceOnUse">
<stop stop-color="#CB7B30"/>
<stop offset="0.44" stop-color="#FFDA37"/>
<stop offset="1" stop-color="#FEFB80"/>
</linearGradient>
<linearGradient id="paint3_linear_963_1600" x1="7.18829" y1="52.2205" x2="15.3634" y2="55.4555" gradientUnits="userSpaceOnUse">
<stop stop-color="#FFD463"/>
<stop offset="1" stop-color="#FFC531"/>
</linearGradient>
<linearGradient id="paint4_linear_963_1600" x1="10.7434" y1="52.8273" x2="9.99939" y2="48.5426" gradientUnits="userSpaceOnUse">
<stop stop-color="#FFF68B"/>
<stop offset="1" stop-color="#FFE446"/>
</linearGradient>
<linearGradient id="paint5_linear_963_1600" x1="16.2736" y1="45.6489" x2="31.9379" y2="45.8457" gradientUnits="userSpaceOnUse">
<stop stop-color="#F4A11C"/>
<stop offset="1" stop-color="#FF671B"/>
</linearGradient>
<linearGradient id="paint6_linear_963_1600" x1="20.9132" y1="53.7268" x2="15.6114" y2="57.4326" gradientUnits="userSpaceOnUse">
<stop stop-color="#F29D1D"/>
<stop offset="1" stop-color="#F2B61D"/>
</linearGradient>
<linearGradient id="paint7_linear_963_1600" x1="9.90771" y1="49.9017" x2="6.67446" y2="40.4882" gradientUnits="userSpaceOnUse">
<stop offset="0.17" stop-color="#FFC420"/>
<stop offset="1" stop-color="#FFB820"/>
</linearGradient>
<linearGradient id="paint8_linear_963_1600" x1="20.946" y1="55.1241" x2="21.0312" y2="48.154" gradientUnits="userSpaceOnUse">
<stop offset="0.17" stop-color="#FFC420"/>
<stop offset="1" stop-color="#FFB820"/>
</linearGradient>
<linearGradient id="paint9_linear_963_1600" x1="11.7644" y1="39.1771" x2="16.1778" y2="38.4876" gradientUnits="userSpaceOnUse">
<stop stop-color="#FFF68B"/>
<stop offset="1" stop-color="#FFE446"/>
</linearGradient>
<linearGradient id="paint10_linear_963_1600" x1="19.659" y1="43.3968" x2="28.5681" y2="45.3261" gradientUnits="userSpaceOnUse">
<stop stop-color="#FFA91F"/>
<stop offset="1" stop-color="#FF8C2E"/>
</linearGradient>
<linearGradient id="paint11_linear_963_1600" x1="15.9333" y1="38.5521" x2="22.3108" y2="37.9703" gradientUnits="userSpaceOnUse">
<stop stop-color="#F4A11C"/>
<stop offset="1" stop-color="#F4951C"/>
</linearGradient>
<linearGradient id="paint12_linear_963_1600" x1="5.59211" y1="45.1172" x2="18.0164" y2="39.9149" gradientUnits="userSpaceOnUse">
<stop stop-color="#FFA91F"/>
<stop offset="1" stop-color="#FF8C2E"/>
</linearGradient>
<linearGradient id="paint13_linear_963_1600" x1="15.336" y1="35.5571" x2="17.0121" y2="35.5781" gradientUnits="userSpaceOnUse">
<stop stop-color="white"/>
<stop offset="1" stop-color="white"/>
</linearGradient>
<linearGradient id="paint14_linear_963_1600" x1="23.142" y1="43.2005" x2="32.1022" y2="43.313" gradientUnits="userSpaceOnUse">
<stop stop-color="white"/>
<stop offset="1" stop-color="white"/>
</linearGradient>
<linearGradient id="paint15_linear_963_1600" x1="10.458" y1="28.6389" x2="17.5105" y2="14.4602" gradientUnits="userSpaceOnUse">
<stop stop-color="#888888"/>
<stop offset="0.08" stop-color="#ACACAC"/>
<stop offset="0.15" stop-color="#CACACA"/>
<stop offset="0.23" stop-color="#E1E1E1"/>
<stop offset="0.31" stop-color="#F2F2F2"/>
<stop offset="0.4" stop-color="#FBFBFB"/>
<stop offset="0.52" stop-color="white"/>
<stop offset="0.6" stop-color="#F9F9F9"/>
<stop offset="0.69" stop-color="#EBEBEB"/>
<stop offset="0.79" stop-color="#D2D2D2"/>
<stop offset="0.89" stop-color="#B0B0B0"/>
<stop offset="1" stop-color="#858585"/>
</linearGradient>
<linearGradient id="paint16_linear_963_1600" x1="17.037" y1="1.96598" x2="23.9369" y2="24.4202" gradientUnits="userSpaceOnUse">
<stop stop-color="#888888"/>
<stop offset="0.08" stop-color="#ACACAC"/>
<stop offset="0.15" stop-color="#CACACA"/>
<stop offset="0.23" stop-color="#E1E1E1"/>
<stop offset="0.31" stop-color="#F2F2F2"/>
<stop offset="0.4" stop-color="#FBFBFB"/>
<stop offset="0.52" stop-color="white"/>
<stop offset="0.6" stop-color="#F9F9F9"/>
<stop offset="0.69" stop-color="#EBEBEB"/>
<stop offset="0.79" stop-color="#D2D2D2"/>
<stop offset="0.89" stop-color="#B0B0B0"/>
<stop offset="1" stop-color="#858585"/>
</linearGradient>
<linearGradient id="paint17_linear_963_1600" x1="15.9362" y1="27.417" x2="16.4588" y2="29.1354" gradientUnits="userSpaceOnUse">
<stop stop-color="#FFCE47"/>
<stop offset="1" stop-color="#FFB820"/>
</linearGradient>
<radialGradient id="paint18_radial_963_1600" cx="0" cy="0" r="1" gradientUnits="userSpaceOnUse" gradientTransform="translate(16.2 30.4999) scale(24.3617 24.0342)">
<stop stop-color="white"/>
<stop offset="0.17" stop-color="#F0F0F0"/>
<stop offset="0.48" stop-color="#C8C8C8"/>
<stop offset="0.92" stop-color="#898989"/>
<stop offset="1" stop-color="#7D7D7D"/>
</radialGradient>
<clipPath id="clip0_963_1600">
<rect width="32.4" height="60" fill="white" transform="translate(0 0.5)"/>
</clipPath>
</defs>
</svg>
