<svg width="30" height="31" viewBox="0 0 30 31" fill="none" xmlns="http://www.w3.org/2000/svg">
<rect y="0.820312" width="30" height="30" rx="15" fill="white"/>
<g clip-path="url(#clip0_2487_5620)">
<path d="M11.2056 23.0188V13.7079H7.98974V23.0188H11.2056ZM9.59811 12.4359C10.7196 12.4359 11.4176 11.721 11.4176 10.8275C11.3967 9.91387 10.7196 9.21875 9.61939 9.21875C8.51936 9.21875 7.8 9.91388 7.8 10.8275C7.8 11.721 8.49788 12.4359 9.57712 12.4359H9.59801H9.59811ZM12.9856 23.0188H16.2016V17.8191C16.2016 17.5409 16.2224 17.2629 16.3074 17.0639C16.5399 16.508 17.069 15.9321 17.9574 15.9321C19.1211 15.9321 19.5866 16.7859 19.5866 18.0376V23.0187H22.8023V17.6799C22.8023 14.82 21.2158 13.4893 19.0999 13.4893C17.365 13.4893 16.6033 14.4225 16.1802 15.0581H16.2016V13.7077H12.9857C13.0279 14.5814 12.9857 23.0186 12.9857 23.0186L12.9856 23.0188Z" fill="url(#paint0_linear_2487_5620)"/>
</g>
<defs>
<linearGradient id="paint0_linear_2487_5620" x1="22.8023" y1="16.1188" x2="7.8" y2="16.1188" gradientUnits="userSpaceOnUse">
<stop stop-color="#2058FF"/>
<stop offset="1" stop-color="#004BC2"/>
</linearGradient>
<clipPath id="clip0_2487_5620">
<rect width="15" height="13.8" fill="white" transform="translate(7.8 9.21875)"/>
</clipPath>
</defs>
</svg>
