<svg width="30" height="31" viewBox="0 0 30 31" fill="none" xmlns="http://www.w3.org/2000/svg">
<rect y="0.820312" width="30" height="30" rx="15" fill="white"/>
<g clip-path="url(#clip0_2487_5624)">
<path d="M15.3033 12.0471C13.1739 12.0471 11.4562 13.7304 11.4562 15.8173C11.4562 17.9042 13.1739 19.5875 15.3033 19.5875C17.4328 19.5875 19.1504 17.9042 19.1504 15.8173C19.1504 13.7304 17.4328 12.0471 15.3033 12.0471ZM15.3033 18.2684C13.9272 18.2684 12.8022 17.1692 12.8022 15.8173C12.8022 14.4654 13.9239 13.3662 15.3033 13.3662C16.6828 13.3662 17.8045 14.4654 17.8045 15.8173C17.8045 17.1692 16.6795 18.2684 15.3033 18.2684ZM20.2051 11.8929C20.2051 12.3818 19.8033 12.7723 19.3078 12.7723C18.8089 12.7723 18.4105 12.3786 18.4105 11.8929C18.4105 11.4073 18.8123 11.0136 19.3078 11.0136C19.8033 11.0136 20.2051 11.4073 20.2051 11.8929ZM22.7531 12.7854C22.6962 11.6075 22.4216 10.564 21.5411 9.70434C20.6638 8.84465 19.5991 8.57559 18.3971 8.51652C17.1582 8.44762 13.4451 8.44762 12.2062 8.51652C11.0076 8.5723 9.94285 8.84137 9.06227 9.70105C8.18169 10.5607 7.91049 11.6042 7.85022 12.7821C7.77991 13.9962 7.77991 17.6351 7.85022 18.8492C7.90714 20.0271 8.18169 21.0706 9.06227 21.9303C9.94285 22.79 11.0042 23.059 12.2062 23.1181C13.4451 23.187 17.1582 23.187 18.3971 23.1181C19.5991 23.0623 20.6638 22.7932 21.5411 21.9303C22.4183 21.0706 22.6928 20.0271 22.7531 18.8492C22.8234 17.6351 22.8234 13.9995 22.7531 12.7854ZM21.1527 20.1518C20.8915 20.795 20.3859 21.2904 19.7263 21.5496C18.7386 21.9335 16.3949 21.845 15.3033 21.845C14.2118 21.845 11.8647 21.9303 10.8804 21.5496C10.2241 21.2937 9.71852 20.7982 9.45401 20.1518C9.06227 19.1839 9.15267 16.887 9.15267 15.8173C9.15267 14.7476 9.06562 12.4475 9.45401 11.4828C9.71517 10.8396 10.2208 10.3442 10.8804 10.085C11.8681 9.70105 14.2118 9.78965 15.3033 9.78965C16.3949 9.78965 18.742 9.70434 19.7263 10.085C20.3826 10.3409 20.8882 10.8364 21.1527 11.4828C21.5444 12.4507 21.454 14.7476 21.454 15.8173C21.454 16.887 21.5444 19.1871 21.1527 20.1518Z" fill="url(#paint0_linear_2487_5624)"/>
</g>
<defs>
<linearGradient id="paint0_linear_2487_5624" x1="22.8058" y1="15.8173" x2="7.79749" y2="15.8173" gradientUnits="userSpaceOnUse">
<stop stop-color="#2058FF"/>
<stop offset="1" stop-color="#004BC2"/>
</linearGradient>
<clipPath id="clip0_2487_5624">
<rect width="15" height="16.8" fill="white" transform="translate(7.8 7.42188)"/>
</clipPath>
</defs>
</svg>
