<svg width="80" height="80" viewBox="0 0 80 80" fill="none" xmlns="http://www.w3.org/2000/svg">
<circle cx="40" cy="40" r="40" fill="#EFFFF5"/>
<path d="M26.6666 38.3334C26.6666 39.3223 26.9598 40.289 27.5092 41.1113C28.0587 41.9335 28.8395 42.5744 29.7532 42.9528C30.6668 43.3313 31.6721 43.4303 32.642 43.2373C33.6119 43.0444 34.5029 42.5682 35.2021 41.869C35.9014 41.1697 36.3776 40.2788 36.5705 39.3089C36.7634 38.339 36.6644 37.3336 36.286 36.42C35.9076 35.5064 35.2667 34.7255 34.4444 34.1761C33.6222 33.6267 32.6555 33.3334 31.6666 33.3334C30.3405 33.3334 29.0687 33.8602 28.1311 34.7979C27.1934 35.7356 26.6666 37.0073 26.6666 38.3334ZM33.3333 38.3334C33.3333 38.6631 33.2355 38.9853 33.0524 39.2594C32.8692 39.5335 32.6089 39.7471 32.3044 39.8732C31.9999 39.9994 31.6647 40.0324 31.3414 39.9681C31.0181 39.9038 30.7212 39.745 30.4881 39.5119C30.255 39.2788 30.0963 38.9819 30.0319 38.6586C29.9676 38.3353 30.0006 38.0002 30.1268 37.6956C30.2529 37.3911 30.4666 37.1308 30.7406 36.9476C31.0147 36.7645 31.337 36.6668 31.6666 36.6668C32.1086 36.6668 32.5325 36.8423 32.8451 37.1549C33.1577 37.4675 33.3333 37.8914 33.3333 38.3334ZM51.6666 33.3334C51.6666 32.0149 51.2756 30.7259 50.5431 29.6296C49.8105 28.5333 48.7693 27.6788 47.5511 27.1742C46.333 26.6696 44.9925 26.5376 43.6993 26.7948C42.4061 27.0521 41.2182 27.687 40.2859 28.6194C39.3535 29.5517 38.7186 30.7396 38.4614 32.0328C38.2041 33.326 38.3361 34.6665 38.8407 35.8846C39.3453 37.1028 40.1998 38.144 41.2961 38.8765C42.3925 39.6091 43.6814 40.0001 44.9999 40.0001C46.768 40.0001 48.4637 39.2977 49.714 38.0475C50.9642 36.7972 51.6666 35.1015 51.6666 33.3334ZM41.6666 33.3334C41.6666 32.6741 41.8621 32.0297 42.2284 31.4815C42.5946 30.9334 43.1152 30.5061 43.7243 30.2538C44.3334 30.0015 45.0036 29.9355 45.6502 30.0641C46.2968 30.1928 46.8908 30.5102 47.3569 30.9764C47.8231 31.4426 48.1406 32.0365 48.2692 32.6831C48.3978 33.3297 48.3318 33.9999 48.0795 34.609C47.8272 35.2181 47.4 35.7387 46.8518 36.105C46.3037 36.4713 45.6592 36.6668 44.9999 36.6668C44.1159 36.6668 43.268 36.3156 42.6429 35.6904C42.0178 35.0653 41.6666 34.2175 41.6666 33.3334ZM44.9999 41.6668C43.214 41.6705 41.4528 42.0841 39.852 42.8759C38.2511 43.6676 36.8534 44.8163 35.7666 46.2334C35.1733 45.9083 34.5402 45.6618 33.8833 45.5001H33.6166C32.3357 45.1851 30.9975 45.1851 29.7166 45.5001H29.4333C27.6886 45.9387 26.1407 46.9478 25.0354 48.3671C23.9301 49.7865 23.331 51.5345 23.3333 53.3334H26.6666C26.6647 52.2767 27.0165 51.2498 27.6658 50.4161C28.3152 49.5825 29.2249 48.9902 30.2499 48.7334H30.5166C31.2719 48.547 32.0613 48.547 32.8166 48.7334H33.0833C33.443 48.8233 33.7901 48.9577 34.1166 49.1334C33.5992 50.4733 33.3336 51.8971 33.3333 53.3334H36.6666C36.6666 51.1233 37.5446 49.0037 39.1074 47.4409C40.6702 45.8781 42.7898 45.0001 44.9999 45.0001C47.2101 45.0001 49.3297 45.8781 50.8925 47.4409C52.4553 49.0037 53.3333 51.1233 53.3333 53.3334H56.6666C56.6666 50.2392 55.4374 47.2718 53.2495 45.0838C51.0616 42.8959 48.0941 41.6668 44.9999 41.6668Z" fill="#7DCE9D"/>
</svg>
