<svg width="30" height="31" viewBox="0 0 30 31" fill="none" xmlns="http://www.w3.org/2000/svg">
<rect y="0.818604" width="30" height="30" rx="15" fill="white"/>
<g clip-path="url(#clip0_2307_2212)">
<path d="M15.3033 12.0452C13.1739 12.0452 11.4562 13.7285 11.4562 15.8153C11.4562 17.9022 13.1739 19.5855 15.3033 19.5855C17.4328 19.5855 19.1504 17.9022 19.1504 15.8153C19.1504 13.7285 17.4328 12.0452 15.3033 12.0452ZM15.3033 18.2664C13.9272 18.2664 12.8022 17.1672 12.8022 15.8153C12.8022 14.4635 13.9239 13.3643 15.3033 13.3643C16.6828 13.3643 17.8045 14.4635 17.8045 15.8153C17.8045 17.1672 16.6795 18.2664 15.3033 18.2664ZM20.2051 11.891C20.2051 12.3799 19.8033 12.7703 19.3078 12.7703C18.8089 12.7703 18.4105 12.3766 18.4105 11.891C18.4105 11.4053 18.8123 11.0116 19.3078 11.0116C19.8033 11.0116 20.2051 11.4053 20.2051 11.891ZM22.7531 12.7835C22.6962 11.6055 22.4216 10.5621 21.5411 9.70238C20.6638 8.84269 19.5991 8.57363 18.3971 8.51457C17.1582 8.44566 13.4451 8.44566 12.2062 8.51457C11.0076 8.57035 9.94285 8.83941 9.06227 9.6991C8.18169 10.5588 7.91049 11.6022 7.85022 12.7802C7.77991 13.9943 7.77991 17.6332 7.85022 18.8472C7.90714 20.0252 8.18169 21.0686 9.06227 21.9283C9.94285 22.788 11.0042 23.0571 12.2062 23.1161C13.4451 23.185 17.1582 23.185 18.3971 23.1161C19.5991 23.0603 20.6638 22.7913 21.5411 21.9283C22.4183 21.0686 22.6928 20.0252 22.7531 18.8472C22.8234 17.6332 22.8234 13.9975 22.7531 12.7835ZM21.1527 20.1499C20.8915 20.793 20.3859 21.2885 19.7263 21.5477C18.7386 21.9316 16.3949 21.843 15.3033 21.843C14.2118 21.843 11.8647 21.9283 10.8804 21.5477C10.2241 21.2917 9.71852 20.7963 9.45401 20.1499C9.06227 19.1819 9.15267 16.885 9.15267 15.8153C9.15267 14.7457 9.06562 12.4455 9.45401 11.4808C9.71517 10.8377 10.2208 10.3422 10.8804 10.083C11.8681 9.6991 14.2118 9.78769 15.3033 9.78769C16.3949 9.78769 18.742 9.70238 19.7263 10.083C20.3826 10.3389 20.8882 10.8344 21.1527 11.4808C21.5444 12.4488 21.454 14.7457 21.454 15.8153C21.454 16.885 21.5444 19.1852 21.1527 20.1499Z" fill="url(#paint0_linear_2307_2212)"/>
</g>
<defs>
<linearGradient id="paint0_linear_2307_2212" x1="22.8058" y1="15.8153" x2="7.79749" y2="15.8153" gradientUnits="userSpaceOnUse">
<stop stop-color="#2058FF"/>
<stop offset="1" stop-color="#004BC2"/>
</linearGradient>
<clipPath id="clip0_2307_2212">
<rect width="15" height="16.8" fill="white" transform="translate(7.8 7.4187)"/>
</clipPath>
</defs>
</svg>
