<svg width="25" height="28" viewBox="0 0 25 28" fill="none" xmlns="http://www.w3.org/2000/svg">
<g clip-path="url(#clip0_1225_379)">
<path d="M12.5056 7.71092C8.9565 7.71092 6.09378 10.5164 6.09378 13.9945C6.09378 17.4726 8.9565 20.2781 12.5056 20.2781C16.0547 20.2781 18.9174 17.4726 18.9174 13.9945C18.9174 10.5164 16.0547 7.71092 12.5056 7.71092ZM12.5056 18.0797C10.2121 18.0797 8.33708 16.2476 8.33708 13.9945C8.33708 11.7414 10.2065 9.90936 12.5056 9.90936C14.8047 9.90936 16.6741 11.7414 16.6741 13.9945C16.6741 16.2476 14.7991 18.0797 12.5056 18.0797ZM20.6752 7.45389C20.6752 8.26873 20.0056 8.91952 19.1797 8.91952C18.3482 8.91952 17.6842 8.26327 17.6842 7.45389C17.6842 6.64452 18.3538 5.98827 19.1797 5.98827C20.0056 5.98827 20.6752 6.64452 20.6752 7.45389ZM24.9219 8.94139C24.827 6.97811 24.3694 5.23905 22.9018 3.80624C21.4398 2.37342 19.6652 1.92499 17.6619 1.82655C15.5971 1.71171 9.40851 1.71171 7.34378 1.82655C5.34601 1.91952 3.57146 2.36796 2.10383 3.80077C0.636195 5.23358 0.184187 6.97264 0.0837402 8.93592C-0.0334472 10.9594 -0.0334472 17.0242 0.0837402 19.0476C0.178606 21.0109 0.636195 22.75 2.10383 24.1828C3.57146 25.6156 5.34043 26.064 7.34378 26.1625C9.40851 26.2773 15.5971 26.2773 17.6619 26.1625C19.6652 26.0695 21.4398 25.6211 22.9018 24.1828C24.3639 22.75 24.8214 21.0109 24.9219 19.0476C25.0391 17.0242 25.0391 10.9648 24.9219 8.94139ZM22.2545 21.2187C21.8192 22.2906 20.9766 23.1164 19.8773 23.5484C18.2311 24.1883 14.3248 24.0406 12.5056 24.0406C10.6864 24.0406 6.77458 24.1828 5.13396 23.5484C4.04021 23.1219 3.19758 22.2961 2.75673 21.2187C2.10383 19.6054 2.2545 15.7773 2.2545 13.9945C2.2545 12.2117 2.10941 8.37811 2.75673 6.7703C3.192 5.69842 4.03463 4.87264 5.13396 4.44061C6.78016 3.80077 10.6864 3.94842 12.5056 3.94842C14.3248 3.94842 18.2366 3.80624 19.8773 4.44061C20.971 4.86717 21.8136 5.69295 22.2545 6.7703C22.9074 8.38358 22.7567 12.2117 22.7567 13.9945C22.7567 15.7773 22.9074 19.6109 22.2545 21.2187Z" fill="url(#paint0_linear_1225_379)"/>
</g>
<defs>
<linearGradient id="paint0_linear_1225_379" x1="25.0098" y1="13.9945" x2="-0.00415039" y2="13.9945" gradientUnits="userSpaceOnUse">
<stop stop-color="#2058FF"/>
<stop offset="1" stop-color="#004BC2"/>
</linearGradient>
<clipPath id="clip0_1225_379">
<rect width="25" height="28" fill="white"/>
</clipPath>
</defs>
</svg>
