<svg width="25" height="26" viewBox="0 0 25 26" fill="none" xmlns="http://www.w3.org/2000/svg">
<rect y="0.221924" width="25" height="25" rx="12.5" fill="url(#paint0_linear_1641_5844)"/>
<g clip-path="url(#clip0_1641_5844)">
<path d="M12.7528 9.57754C10.9783 9.57754 9.54689 10.9803 9.54689 12.7193C9.54689 14.4584 10.9783 15.8611 12.7528 15.8611C14.5274 15.8611 15.9587 14.4584 15.9587 12.7193C15.9587 10.9803 14.5274 9.57754 12.7528 9.57754ZM12.7528 14.7619C11.606 14.7619 10.6685 13.8459 10.6685 12.7193C10.6685 11.5928 11.6033 10.6768 12.7528 10.6768C13.9024 10.6768 14.8371 11.5928 14.8371 12.7193C14.8371 13.8459 13.8996 14.7619 12.7528 14.7619ZM16.8376 9.44902C16.8376 9.85644 16.5028 10.1818 16.0899 10.1818C15.6741 10.1818 15.3421 9.85371 15.3421 9.44902C15.3421 9.04433 15.6769 8.71621 16.0899 8.71621C16.5028 8.71621 16.8376 9.04433 16.8376 9.44902ZM18.9609 10.1928C18.9135 9.21113 18.6847 8.3416 17.9509 7.62519C17.2199 6.90879 16.3326 6.68457 15.3309 6.63535C14.2986 6.57793 11.2043 6.57793 10.1719 6.63535C9.17301 6.68184 8.28573 6.90605 7.55191 7.62246C6.8181 8.33887 6.59209 9.2084 6.54187 10.19C6.48328 11.2018 6.48328 14.2342 6.54187 15.2459C6.5893 16.2275 6.8181 17.0971 7.55191 17.8135C8.28573 18.5299 9.17022 18.7541 10.1719 18.8033C11.2043 18.8607 14.2986 18.8607 15.3309 18.8033C16.3326 18.7568 17.2199 18.5326 17.9509 17.8135C18.6819 17.0971 18.9107 16.2275 18.9609 15.2459C19.0195 14.2342 19.0195 11.2045 18.9609 10.1928ZM17.6272 16.3314C17.4096 16.8674 16.9883 17.2803 16.4386 17.4963C15.6155 17.8162 13.6624 17.7424 12.7528 17.7424C11.8432 17.7424 9.88729 17.8135 9.06698 17.4963C8.52011 17.283 8.09879 16.8701 7.87836 16.3314C7.55191 15.5248 7.62725 13.6107 7.62725 12.7193C7.62725 11.8279 7.5547 9.91113 7.87836 9.10723C8.096 8.57129 8.51732 8.1584 9.06698 7.94238C9.89008 7.62246 11.8432 7.69629 12.7528 7.69629C13.6624 7.69629 15.6183 7.62519 16.4386 7.94238C16.9855 8.15566 17.4068 8.56855 17.6272 9.10723C17.9537 9.91387 17.8784 11.8279 17.8784 12.7193C17.8784 13.6107 17.9537 15.5275 17.6272 16.3314Z" fill="white"/>
</g>
<defs>
<linearGradient id="paint0_linear_1641_5844" x1="25" y1="12.7219" x2="0" y2="12.7219" gradientUnits="userSpaceOnUse">
<stop stop-color="#2058FF"/>
<stop offset="1" stop-color="#004BC2"/>
</linearGradient>
<clipPath id="clip0_1641_5844">
<rect width="12.5" height="14" fill="white" transform="translate(6.5 5.72192)"/>
</clipPath>
</defs>
</svg>
