<svg width="25" height="23" viewBox="0 0 25 23" fill="none" xmlns="http://www.w3.org/2000/svg">
<g clip-path="url(#clip0_1225_375)">
<path d="M5.67608 23V7.48188H0.316229V23H5.67608ZM2.99685 5.36188C4.86592 5.36188 6.02933 4.17028 6.02933 2.68116C5.9945 1.15847 4.86599 -6.10352e-05 3.03231 -6.10352e-05C1.19892 -6.10352e-05 0 1.15849 0 2.68116C0 4.17034 1.16312 5.36188 2.96185 5.36188H2.99668H2.99685ZM8.64273 23H14.0026V14.3339C14.0026 13.8701 14.0374 13.4068 14.1789 13.0753C14.5664 12.1486 15.4483 11.1889 16.9289 11.1889C18.8685 11.1889 19.6444 12.6119 19.6444 14.698V22.9998H25.0039V14.1019C25.0039 9.33539 22.3596 7.11757 18.8332 7.11757C15.9417 7.11757 14.6722 8.67287 13.9669 9.73218H14.0027V7.48156H8.64285C8.71319 8.93769 8.64285 22.9996 8.64285 22.9996L8.64273 23Z" fill="url(#paint0_linear_1225_375)"/>
</g>
<defs>
<linearGradient id="paint0_linear_1225_375" x1="25.0039" y1="11.5" x2="0" y2="11.5" gradientUnits="userSpaceOnUse">
<stop stop-color="#2058FF"/>
<stop offset="1" stop-color="#004BC2"/>
</linearGradient>
<clipPath id="clip0_1225_375">
<rect width="25" height="23" fill="white"/>
</clipPath>
</defs>
</svg>
