<svg width="30" height="31" viewBox="0 0 30 31" fill="none" xmlns="http://www.w3.org/2000/svg">
<rect y="0.818604" width="30" height="30" rx="15" fill="white"/>
<g clip-path="url(#clip0_2307_2208)">
<path d="M11.2056 23.0185V13.7077H7.98974V23.0185H11.2056ZM9.59811 12.4357C10.7196 12.4357 11.4176 11.7207 11.4176 10.8272C11.3967 9.91363 10.7196 9.21851 9.61939 9.21851C8.51936 9.21851 7.8 9.91364 7.8 10.8272C7.8 11.7207 8.49788 12.4357 9.57712 12.4357H9.59801H9.59811ZM12.9856 23.0185H16.2016V17.8189C16.2016 17.5406 16.2224 17.2626 16.3074 17.0637C16.5399 16.5077 17.069 15.9319 17.9574 15.9319C19.1211 15.9319 19.5866 16.7857 19.5866 18.0374V23.0184H22.8023V17.6797C22.8023 14.8198 21.2158 13.4891 19.0999 13.4891C17.365 13.4891 16.6033 14.4223 16.1802 15.0579H16.2016V13.7075H12.9857C13.0279 14.5812 12.9857 23.0183 12.9857 23.0183L12.9856 23.0185Z" fill="url(#paint0_linear_2307_2208)"/>
</g>
<defs>
<linearGradient id="paint0_linear_2307_2208" x1="22.8023" y1="16.1185" x2="7.8" y2="16.1185" gradientUnits="userSpaceOnUse">
<stop stop-color="#2058FF"/>
<stop offset="1" stop-color="#004BC2"/>
</linearGradient>
<clipPath id="clip0_2307_2208">
<rect width="15" height="13.8" fill="white" transform="translate(7.8 9.21851)"/>
</clipPath>
</defs>
</svg>
