<svg width="25" height="26" viewBox="0 0 25 26" fill="none" xmlns="http://www.w3.org/2000/svg">
<rect y="0.221924" width="25" height="25" rx="12.5" fill="url(#paint0_linear_1641_5840)"/>
<g clip-path="url(#clip0_1641_5840)">
<path d="M9.33804 18.7219V10.9629H6.65811V18.7219H9.33804ZM7.99842 9.9029C8.93296 9.9029 9.51466 9.30709 9.51466 8.56254C9.49725 7.80119 8.93299 7.22192 8.01616 7.22192C7.09946 7.22192 6.5 7.8012 6.5 8.56254C6.5 9.30713 7.08156 9.9029 7.98093 9.9029H7.99834H7.99842ZM10.8214 18.7219H13.5013V14.3889C13.5013 14.157 13.5187 13.9254 13.5895 13.7596C13.7832 13.2963 14.2242 12.8164 14.9645 12.8164C15.9342 12.8164 16.3222 13.5279 16.3222 14.571V18.7219H19.0019V14.2729C19.0019 11.8896 17.6798 10.7807 15.9166 10.7807C14.4709 10.7807 13.8361 11.5584 13.4835 12.088H13.5014V10.9627H10.8214C10.8566 11.6908 10.8214 18.7218 10.8214 18.7218L10.8214 18.7219Z" fill="white"/>
</g>
<defs>
<linearGradient id="paint0_linear_1641_5840" x1="25" y1="12.7219" x2="0" y2="12.7219" gradientUnits="userSpaceOnUse">
<stop stop-color="#2058FF"/>
<stop offset="1" stop-color="#004BC2"/>
</linearGradient>
<clipPath id="clip0_1641_5840">
<rect width="12.5" height="11.5" fill="white" transform="translate(6.5 7.22192)"/>
</clipPath>
</defs>
</svg>
