<svg width="80" height="80" viewBox="0 0 80 80" fill="none" xmlns="http://www.w3.org/2000/svg">
<circle cx="40" cy="40" r="40" fill="#C9EBFF"/>
<path d="M45.625 21.875H44.375C43.6846 21.875 43.125 22.4346 43.125 23.125V56.875C43.125 57.5654 43.6846 58.125 44.375 58.125H45.625C46.3154 58.125 46.875 57.5654 46.875 56.875V23.125C46.875 22.4346 46.3154 21.875 45.625 21.875Z" fill="#56B5EF"/>
<path d="M57.7564 41.9312C57.8729 42.0467 57.9655 42.1841 58.0288 42.3356C58.0921 42.487 58.1249 42.6494 58.1252 42.8135C58.1256 42.9777 58.0935 43.1402 58.0309 43.2919C57.9682 43.4436 57.8763 43.5815 57.7602 43.6975C57.6442 43.8136 57.5063 43.9055 57.3546 43.9682C57.2029 44.0308 57.0404 44.0629 56.8762 44.0625C56.7121 44.0622 56.5497 44.0294 56.3983 43.9661C56.2468 43.9028 56.1094 43.8102 55.9939 43.6937L55.5251 43.2249L54.0626 41.7687L53.8564 41.9749L52.1314 43.6937C52.0162 43.8105 51.8791 43.9032 51.7278 43.9665C51.5765 44.0298 51.4141 44.0624 51.2501 44.0624C51.0861 44.0624 50.9238 44.0298 50.7725 43.9665C50.6212 43.9032 50.484 43.8105 50.3689 43.6937C50.238 43.5642 50.1395 43.4058 50.0814 43.2312C49.9971 43.0101 49.9794 42.7691 50.0305 42.5381C50.0816 42.3071 50.1992 42.0961 50.3689 41.9312L52.2939 39.9999L50.3689 38.0687C50.2516 37.9538 50.1585 37.8167 50.0949 37.6654C50.0313 37.514 49.9985 37.3516 49.9985 37.1874C49.9985 37.0233 50.0313 36.8608 50.0949 36.7095C50.1585 36.5581 50.2516 36.421 50.3689 36.3062C50.4974 36.1745 50.6543 36.074 50.8276 36.0123C51.0009 35.9506 51.1861 35.9292 51.3689 35.9499C51.6579 35.972 51.929 36.0987 52.1314 36.3062L53.0314 37.1999L54.0626 38.2312L55.9939 36.3062C56.2116 36.0869 56.5039 35.9575 56.8126 35.9437C56.9868 35.9324 57.1613 35.9589 57.3242 36.0215C57.4871 36.0841 57.6346 36.1812 57.7564 36.3062C57.8736 36.421 57.9667 36.5581 58.0303 36.7095C58.0939 36.8608 58.1267 37.0233 58.1267 37.1874C58.1267 37.3516 58.0939 37.514 58.0303 37.6654C57.9667 37.8167 57.8736 37.9538 57.7564 38.0687L55.8314 39.9999L57.7564 41.9312ZM57.7564 25.8812L54.0064 29.6312C53.8912 29.748 53.7541 29.8407 53.6028 29.904C53.4515 29.9673 53.2891 29.9999 53.1251 29.9999C52.9611 29.9999 52.7988 29.9673 52.6475 29.904C52.4962 29.8407 52.359 29.748 52.2439 29.6312L50.3689 27.7562C50.2516 27.6413 50.1585 27.5042 50.0949 27.3529C50.0313 27.2015 49.9985 27.0391 49.9985 26.8749C49.9985 26.7108 50.0313 26.5483 50.0949 26.397C50.1585 26.2456 50.2516 26.1085 50.3689 25.9937C50.5201 25.8371 50.7112 25.7247 50.9215 25.6685C51.1318 25.6124 51.3535 25.6146 51.5626 25.6749C51.6995 25.7024 51.8292 25.7578 51.9439 25.8374C52.0106 25.8842 52.0733 25.9365 52.1314 25.9937L53.1251 26.9812L55.9939 24.1187C56.2114 23.8954 56.5073 23.7654 56.8189 23.7562C56.9921 23.7444 57.1659 23.7707 57.3279 23.8333C57.4898 23.896 57.6361 23.9934 57.7564 24.1187C57.8736 24.2335 57.9667 24.3707 58.0303 24.522C58.0939 24.6733 58.1267 24.8358 58.1267 24.9999C58.1267 25.1641 58.0939 25.3265 58.0303 25.4779C57.9667 25.6292 57.8736 25.7663 57.7564 25.8812ZM58.1251 52.1874C58.1251 52.9909 57.8869 53.7763 57.4405 54.4444C56.9941 55.1125 56.3596 55.6332 55.6173 55.9407C54.8749 56.2482 54.0581 56.3286 53.2701 56.1719C52.482 56.0151 51.7581 55.6282 51.19 55.06C50.6218 54.4919 50.2349 53.768 50.0782 52.98C49.9214 52.1919 50.0019 51.3751 50.3094 50.6328C50.6168 49.8904 51.1375 49.256 51.8056 48.8096C52.4737 48.3632 53.2591 48.1249 54.0626 48.1249C54.4782 48.1231 54.8916 48.1864 55.2876 48.3124C56.111 48.573 56.8299 49.0891 57.3401 49.7859C57.8503 50.4826 58.1253 51.3238 58.1251 52.1874Z" fill="#168FD6"/>
<path d="M38.75 35.625H32.5C31.8096 35.625 31.25 36.1846 31.25 36.875V43.125C31.25 43.8154 31.8096 44.375 32.5 44.375H38.75C39.4404 44.375 40 43.8154 40 43.125V36.875C40 36.1846 39.4404 35.625 38.75 35.625Z" fill="#CCDDE7"/>
<path d="M38.75 23.75H26.25C25.5596 23.75 25 24.3096 25 25V31.25C25 31.9404 25.5596 32.5 26.25 32.5H38.75C39.4404 32.5 40 31.9404 40 31.25V25C40 24.3096 39.4404 23.75 38.75 23.75Z" fill="#CCDDE7"/>
<path d="M38.75 47.5H23.125C22.4346 47.5 21.875 48.0596 21.875 48.75V55C21.875 55.6904 22.4346 56.25 23.125 56.25H38.75C39.4404 56.25 40 55.6904 40 55V48.75C40 48.0596 39.4404 47.5 38.75 47.5Z" fill="#CCDDE7"/>
<path opacity="0.2" d="M37.4 35.625V41.2562C37.4 41.4204 37.3677 41.583 37.3049 41.7347C37.2421 41.8863 37.1501 42.0241 37.034 42.1402C36.9179 42.2563 36.7801 42.3484 36.6284 42.4112C36.4767 42.474 36.3142 42.5063 36.15 42.5062H31.25V36.875C31.251 36.5438 31.383 36.2264 31.6172 35.9922C31.8514 35.758 32.1688 35.626 32.5 35.625H37.4ZM37.4 23.75V29.3813C37.4 29.5454 37.3677 29.708 37.3049 29.8597C37.2421 30.0113 37.1501 30.1491 37.034 30.2652C36.9179 30.3813 36.7801 30.4734 36.6284 30.5362C36.4767 30.599 36.3142 30.6313 36.15 30.6313H25V25C25.001 24.6688 25.133 24.3514 25.3672 24.1172C25.6014 23.883 25.9188 23.751 26.25 23.75H37.4ZM37.4 47.5V53.1312C37.4 53.2954 37.3677 53.458 37.3049 53.6097C37.2421 53.7613 37.1501 53.8992 37.034 54.0152C36.9179 54.1313 36.7801 54.2234 36.6284 54.2862C36.4767 54.349 36.3142 54.3813 36.15 54.3812H21.875V48.75C21.876 48.4188 22.008 48.1014 22.2422 47.8672C22.4764 47.633 22.7938 47.501 23.125 47.5H37.4ZM56.525 42.8687C56.4091 42.9854 56.2713 43.0779 56.1196 43.1411C55.9678 43.2042 55.805 43.2367 55.6406 43.2367C55.4762 43.2367 55.3135 43.2042 55.1617 43.1411C55.0099 43.0779 54.8721 42.9854 54.7562 42.8687L53.8562 41.975L52.825 40.9437L50.9 42.8687C50.6825 43.0884 50.3901 43.2178 50.0812 43.2312C49.9969 43.0102 49.9792 42.7692 50.0303 42.5382C50.0814 42.3072 50.1991 42.0962 50.3687 41.9312L52.2937 40L50.3687 38.0688C50.1908 37.8863 50.0728 37.6538 50.0307 37.4024C49.9886 37.151 50.0244 36.8927 50.1332 36.6622C50.2419 36.4317 50.4186 36.2399 50.6394 36.1126C50.8603 35.9853 51.1147 35.9286 51.3687 35.95L52.825 37.4062L53.0312 37.2L54.0625 38.2313L55.9937 36.3062C56.2115 36.0869 56.5038 35.9576 56.8125 35.9438C56.8938 36.1653 56.9099 36.4054 56.8589 36.6358C56.808 36.8662 56.6921 37.0772 56.525 37.2437L54.5937 39.175L56.525 41.1063C56.6409 41.2219 56.7329 41.3592 56.7956 41.5105C56.8583 41.6617 56.8906 41.8238 56.8906 41.9875C56.8906 42.1512 56.8583 42.3133 56.7956 42.4645C56.7329 42.6158 56.6409 42.7531 56.525 42.8687ZM56.4687 24.8438L52.7187 28.5938C52.6042 28.7113 52.4671 28.8046 52.3157 28.8679C52.1643 28.9313 52.0016 28.9635 51.8375 28.9625C51.7338 28.9638 51.6305 28.949 51.5312 28.9188L50.3687 27.7562C50.2515 27.6414 50.1584 27.5043 50.0948 27.353C50.0312 27.2016 49.9984 27.0391 49.9984 26.875C49.9984 26.7109 50.0312 26.5484 50.0948 26.397C50.1584 26.2457 50.2515 26.1086 50.3687 25.9938C50.52 25.8372 50.711 25.7248 50.9214 25.6686C51.1317 25.6125 51.3533 25.6147 51.5625 25.675L51.8375 25.9438L51.9437 25.8375C52.0704 25.9049 52.9983 26.8658 53.125 26.9812L55.9937 24.1188C56.2113 23.8955 56.5071 23.7655 56.8187 23.7563C56.8504 23.9523 56.8352 24.153 56.7744 24.342C56.7136 24.5311 56.6088 24.703 56.4687 24.8438ZM56.25 50.9375C56.2462 51.5746 56.0933 52.202 55.8035 52.7695C55.5137 53.3369 55.0951 53.8286 54.5811 54.2053C54.0672 54.5819 53.4723 54.833 52.8439 54.9384C52.2155 55.0439 51.5712 55.0007 50.9625 54.8125C50.4012 54.1382 50.0726 53.3007 50.0257 52.4246C49.9787 51.5485 50.2159 50.6807 50.7019 49.9502C51.1879 49.2198 51.8968 48.6658 52.723 48.3707C53.5493 48.0756 54.4487 48.0552 55.2875 48.3125C55.9102 49.0453 56.2514 49.9759 56.25 50.9375ZM45 21.875V55.625C44.999 55.9562 44.867 56.2736 44.6328 56.5078C44.3986 56.742 44.0812 56.874 43.75 56.875H43.125V23.125C43.126 22.7938 43.258 22.4764 43.4922 22.2422C43.7264 22.008 44.0438 21.876 44.375 21.875H45Z" fill="white"/>
<path d="M45.625 21.2561H44.375C43.8779 21.2566 43.4013 21.4544 43.0498 21.8059C42.6983 22.1574 42.5005 22.634 42.5 23.1311V56.8811C42.5005 57.3782 42.6983 57.8548 43.0498 58.2063C43.4013 58.5578 43.8779 58.7556 44.375 58.7561H45.625C46.1221 58.7556 46.5987 58.5578 46.9502 58.2063C47.3017 57.8548 47.4995 57.3782 47.5 56.8811V23.1311C47.4995 22.634 47.3017 22.1574 46.9502 21.8059C46.5987 21.4544 46.1221 21.2566 45.625 21.2561ZM46.25 56.8811C46.2498 57.0468 46.1839 57.2057 46.0668 57.3229C45.9496 57.44 45.7907 57.5059 45.625 57.5061H44.375C44.2093 57.5059 44.0504 57.44 43.9332 57.3229C43.8161 57.2057 43.7502 57.0468 43.75 56.8811V23.1311C43.7502 22.9654 43.8161 22.8065 43.9332 22.6893C44.0504 22.5722 44.2093 22.5063 44.375 22.5061H45.625C45.7907 22.5063 45.9496 22.5722 46.0668 22.6893C46.1839 22.8065 46.2498 22.9654 46.25 23.1311V56.8811ZM58.75 37.1936C58.7447 36.8252 58.6316 36.4664 58.4247 36.1615C58.2177 35.8566 57.9261 35.619 57.5857 35.4781C57.2452 35.3371 56.871 35.2989 56.5091 35.3682C56.1472 35.4375 55.8136 35.6112 55.5493 35.868L54.0625 37.3547L52.5757 35.8679C52.2227 35.5229 51.748 35.3309 51.2544 35.3337C50.7608 35.3366 50.2883 35.5339 49.9393 35.8829C49.5903 36.2319 49.393 36.7044 49.3902 37.198C49.3874 37.6916 49.5793 38.1663 49.9243 38.5193L51.4111 40.0061L49.9243 41.4929C49.5748 41.8456 49.3787 42.3221 49.3787 42.8186C49.3787 43.3152 49.5748 43.7916 49.9243 44.1443C50.2815 44.4851 50.7563 44.6753 51.25 44.6753C51.7437 44.6753 52.2185 44.4851 52.5757 44.1443L54.0625 42.6575L55.5493 44.1443C55.9022 44.4895 56.377 44.6816 56.8707 44.6789C57.3644 44.6761 57.837 44.4788 58.1861 44.1297C58.5352 43.7807 58.7325 43.308 58.7352 42.8143C58.738 42.3207 58.5459 41.8459 58.2007 41.4929L56.7139 40.0061C57.4951 39.1211 58.8004 38.331 58.75 37.1936ZM57.3169 37.6355C54.4927 40.5614 54.5138 39.4621 57.3169 42.3767C57.4298 42.4948 57.4919 42.6523 57.4901 42.8157C57.4883 42.979 57.4225 43.1352 57.307 43.2507C57.1915 43.3662 57.0354 43.4319 56.872 43.4337C56.7087 43.4355 56.5511 43.3733 56.433 43.2604C53.5065 40.4351 54.6059 40.4585 51.6918 43.2605C51.5738 43.3734 51.4162 43.4356 51.2528 43.4337C51.0895 43.4319 50.9334 43.3662 50.8179 43.2506C50.7024 43.1351 50.6367 42.979 50.6348 42.8156C50.633 42.6523 50.6952 42.4947 50.8081 42.3767C53.6325 39.4507 53.6109 40.55 50.8077 37.6349C50.6946 37.5168 50.6323 37.3591 50.6341 37.1956C50.6358 37.0321 50.7016 36.8759 50.8173 36.7603C50.933 36.6448 51.0893 36.5791 51.2528 36.5775C51.4163 36.5759 51.574 36.6385 51.6919 36.7517L53.6206 38.6804C53.6786 38.7385 53.7475 38.7845 53.8233 38.8159C53.8991 38.8473 53.9804 38.8635 54.0625 38.8635C54.1445 38.8635 54.2258 38.8473 54.3016 38.8159C54.3774 38.7845 54.4463 38.7385 54.5043 38.6804L56.4331 36.7517C56.5511 36.6385 56.7088 36.5761 56.8723 36.5778C57.0358 36.5795 57.1922 36.6452 57.3078 36.7608C57.4234 36.8765 57.4891 37.0328 57.4908 37.1963C57.4925 37.3598 57.4301 37.5175 57.3169 37.6355ZM55.5493 23.6804L53.125 26.1047L52.5757 25.5554C52.3114 25.2987 51.9777 25.1249 51.6159 25.0556C51.254 24.9864 50.8797 25.0246 50.5393 25.1656C50.1989 25.3066 49.9072 25.5442 49.7003 25.8491C49.4934 26.154 49.3803 26.5128 49.375 26.8812C49.3743 27.1275 49.4225 27.3715 49.5168 27.599C49.611 27.8266 49.7496 28.0332 49.9243 28.2068L51.7993 30.0818C52.152 30.4313 52.6284 30.6274 53.125 30.6274C53.6215 30.6274 54.098 30.4313 54.4507 30.0818L58.2004 26.3324C58.5463 25.9797 58.7391 25.5047 58.7368 25.0106C58.7344 24.5165 58.5372 24.0433 58.1879 23.6939C57.8385 23.3445 57.3654 23.147 56.8714 23.1445C56.3773 23.142 55.9022 23.3346 55.5493 23.6804ZM57.3169 25.448L53.5669 29.198C53.4477 29.3114 53.2895 29.3747 53.125 29.3747C52.9605 29.3747 52.8022 29.3114 52.6831 29.198L50.8078 27.3224C50.6954 27.2042 50.6336 27.0467 50.6357 26.8836C50.6378 26.7205 50.7035 26.5647 50.8189 26.4494C50.9343 26.3342 51.0902 26.2686 51.2533 26.2667C51.4164 26.2648 51.5738 26.3267 51.6919 26.4392L52.6831 27.4304C52.7411 27.4885 52.81 27.5345 52.8858 27.5659C52.9616 27.5974 53.0429 27.6135 53.125 27.6135C53.2071 27.6135 53.2883 27.5974 53.3641 27.5659C53.44 27.5345 53.5089 27.4885 53.5669 27.4304L56.4331 24.5642C56.5511 24.451 56.7088 24.3886 56.8723 24.3903C57.0358 24.392 57.1922 24.4577 57.3078 24.5733C57.4234 24.689 57.4891 24.8453 57.4908 25.0088C57.4925 25.1723 57.4301 25.33 57.3169 25.448ZM54.0625 47.5061C52.8197 47.5075 51.6282 48.0018 50.7494 48.8805C49.8707 49.7593 49.3764 50.9508 49.375 52.1936C49.5949 58.3976 58.531 58.396 58.75 52.1935C58.7486 50.9508 58.2543 49.7593 57.3755 48.8805C56.4968 48.0017 55.3053 47.5075 54.0625 47.5061ZM54.0625 55.6311C49.5197 55.4865 49.5207 48.9001 54.0626 48.7561C58.6053 48.9007 58.6042 55.4871 54.0625 55.6311ZM38.75 35.0061H32.5C32.0029 35.0066 31.5263 35.2044 31.1748 35.5559C30.8233 35.9074 30.6255 36.384 30.625 36.8811V43.1311C30.6255 43.6282 30.8233 44.1048 31.1748 44.4563C31.5263 44.8078 32.0029 45.0056 32.5 45.0061H38.75C39.2471 45.0056 39.7237 44.8078 40.0752 44.4563C40.4267 44.1048 40.6245 43.6282 40.625 43.1311V36.8811C40.6245 36.384 40.4267 35.9074 40.0752 35.5559C39.7237 35.2044 39.2471 35.0066 38.75 35.0061ZM39.375 43.1311C39.3748 43.2968 39.3089 43.4557 39.1918 43.5729C39.0746 43.69 38.9157 43.7559 38.75 43.7561H32.5C32.3343 43.7559 32.1754 43.69 32.0582 43.5729C31.9411 43.4557 31.8752 43.2968 31.875 43.1311V36.8811C31.8752 36.7154 31.9411 36.5565 32.0582 36.4393C32.1754 36.3222 32.3343 36.2563 32.5 36.2561H38.75C38.9157 36.2563 39.0746 36.3222 39.1918 36.4393C39.3089 36.5565 39.3748 36.7154 39.375 36.8811V43.1311ZM38.75 23.1311H26.25C25.7529 23.1316 25.2763 23.3294 24.9248 23.6809C24.5733 24.0324 24.3755 24.509 24.375 25.0061V31.2561C24.3755 31.7532 24.5733 32.2298 24.9248 32.5813C25.2763 32.9328 25.7529 33.1306 26.25 33.1311H38.75C39.2471 33.1306 39.7237 32.9328 40.0752 32.5813C40.4267 32.2298 40.6245 31.7532 40.625 31.2561V25.0061C40.6245 24.509 40.4267 24.0324 40.0752 23.6809C39.7237 23.3294 39.2471 23.1316 38.75 23.1311ZM39.375 31.2561C39.3748 31.4218 39.3089 31.5807 39.1918 31.6979C39.0746 31.815 38.9157 31.8809 38.75 31.8811H26.25C26.0843 31.8809 25.9254 31.815 25.8082 31.6979C25.6911 31.5807 25.6252 31.4218 25.625 31.2561V25.0061C25.6252 24.8404 25.6911 24.6815 25.8082 24.5643C25.9254 24.4472 26.0843 24.3813 26.25 24.3811H38.75C38.9157 24.3813 39.0746 24.4472 39.1918 24.5643C39.3089 24.6815 39.3748 24.8404 39.375 25.0061V31.2561ZM38.75 46.8811H23.125C22.6279 46.8816 22.1513 47.0794 21.7998 47.4309C21.4483 47.7824 21.2505 48.259 21.25 48.7561V55.0061C21.2505 55.5032 21.4483 55.9798 21.7998 56.3313C22.1513 56.6828 22.6279 56.8806 23.125 56.8811H38.75C39.2471 56.8806 39.7237 56.6828 40.0752 56.3313C40.4267 55.9798 40.6245 55.5032 40.625 55.0061V48.7561C40.6245 48.259 40.4267 47.7824 40.0752 47.4309C39.7237 47.0794 39.2471 46.8816 38.75 46.8811ZM39.375 55.0061C39.3748 55.1718 39.3089 55.3307 39.1918 55.4479C39.0746 55.565 38.9157 55.6309 38.75 55.6311H23.125C22.9593 55.6309 22.8004 55.565 22.6832 55.4479C22.5661 55.3307 22.5002 55.1718 22.5 55.0061V48.7561C22.5002 48.5904 22.5661 48.4315 22.6832 48.3143C22.8004 48.1972 22.9593 48.1313 23.125 48.1311H38.75C38.9157 48.1313 39.0746 48.1972 39.1918 48.3143C39.3089 48.4315 39.3748 48.5904 39.375 48.7561V55.0061Z" fill="#043968"/>
</svg>
