<svg width="66" height="66" viewBox="0 0 66 66" fill="none" xmlns="http://www.w3.org/2000/svg">
<path d="M19.1531 14.8166C19.8181 13.5517 21.1074 12.7376 22.5353 12.681L41.824 11.9167C43.252 11.8601 44.6016 12.5696 45.3646 13.7779L55.6709 30.1003C56.4339 31.3086 56.4942 32.8322 55.8293 34.0971L46.8469 51.1838C46.1819 52.4487 44.8926 53.2628 43.4647 53.3194L24.176 54.0837C22.748 54.1403 21.3984 53.4308 20.6354 52.2224L10.3291 35.9001C9.56614 34.6918 9.50577 33.1682 10.1707 31.9032L19.1531 14.8166Z" fill="url(#paint0_linear_2270_7985)"/>
<path d="M42.679 41.2631L38.981 37.595C40.4164 35.8052 41.1116 33.5334 40.9235 31.2468C40.7354 28.9602 39.6784 26.8326 37.9698 25.3014C36.2611 23.7702 34.0308 22.9518 31.7373 23.0146C29.4439 23.0773 27.2616 24.0164 25.6393 25.6388C24.0169 27.2611 23.0778 29.4434 23.0151 31.7368C22.9523 34.0303 23.7707 36.2606 25.3019 37.9693C26.833 39.6779 28.9607 40.7349 31.2473 40.923C33.5339 41.1111 35.8057 40.4159 37.5955 38.9805L41.2636 42.6486C41.3563 42.742 41.4665 42.8162 41.588 42.8668C41.7094 42.9174 41.8397 42.9435 41.9713 42.9435C42.1029 42.9435 42.2332 42.9174 42.3546 42.8668C42.4761 42.8162 42.5863 42.742 42.679 42.6486C42.8587 42.4628 42.9591 42.2144 42.9591 41.9559C42.9591 41.6974 42.8587 41.449 42.679 41.2631ZM32.0035 38.9805C30.6235 38.9805 29.2745 38.5713 28.1271 37.8046C26.9797 37.0379 26.0853 35.9482 25.5572 34.6732C25.0291 33.3982 24.8909 31.9953 25.1602 30.6418C25.4294 29.2883 26.0939 28.0451 27.0697 27.0693C28.0456 26.0934 29.2888 25.4289 30.6423 25.1597C31.9958 24.8905 33.3987 25.0286 34.6737 25.5567C35.9486 26.0848 37.0384 26.9792 37.8051 28.1266C38.5718 29.274 38.981 30.623 38.981 32.003C38.981 33.8536 38.2459 35.6283 36.9373 36.9368C35.6288 38.2454 33.8541 38.9805 32.0035 38.9805Z" fill="white"/>
<defs>
<linearGradient id="paint0_linear_2270_7985" x1="53.2278" y1="20.2279" x2="12.7722" y2="45.7724" gradientUnits="userSpaceOnUse">
<stop stop-color="#2058FF"/>
<stop offset="1" stop-color="#004BC2"/>
</linearGradient>
</defs>
</svg>
