<svg width="48" height="48" viewBox="0 0 48 48" fill="none" xmlns="http://www.w3.org/2000/svg">
<path d="M24 18C24.2652 18 24.5196 17.8946 24.7071 17.7071C24.8946 17.5196 25 17.2652 25 17C25 16.7348 24.8946 16.4804 24.7071 16.2929C24.5196 16.1054 24.2652 16 24 16C22.4178 16 20.871 16.4692 19.5554 17.3482C18.2399 18.2273 17.2145 19.4767 16.609 20.9385C16.0035 22.4003 15.845 24.0089 16.1537 25.5607C16.4624 27.1126 17.2243 28.538 18.3431 29.6569C19.462 30.7757 20.8874 31.5376 22.4393 31.8463C23.9911 32.155 25.5997 31.9965 27.0615 31.391C28.5233 30.7855 29.7727 29.7602 30.6518 28.4446C31.5308 27.129 32 25.5823 32 24C32 23.7348 31.8946 23.4804 31.7071 23.2929C31.5196 23.1054 31.2652 23 31 23C30.7348 23 30.4804 23.1054 30.2929 23.2929C30.1054 23.4804 30 23.7348 30 24C30 25.1867 29.6481 26.3467 28.9888 27.3334C28.3295 28.3201 27.3925 29.0892 26.2961 29.5433C25.1997 29.9974 23.9933 30.1162 22.8295 29.8847C21.6656 29.6532 20.5965 29.0818 19.7574 28.2426C18.9182 27.4035 18.3468 26.3344 18.1153 25.1705C17.8838 24.0067 18.0026 22.8003 18.4567 21.7039C18.9109 20.6075 19.6799 19.6705 20.6666 19.0112C21.6533 18.3519 22.8133 18 24 18Z" fill="#02060B"/>
<path d="M43.08 18.0605C42.9975 17.8112 42.8203 17.6042 42.5866 17.4844C42.353 17.3645 42.0816 17.3413 41.8309 17.4197C41.5803 17.4981 41.3705 17.6719 41.2469 17.9036C41.1232 18.1353 41.0956 18.4063 41.17 18.6582C42.3817 22.5167 42.2642 26.6701 40.8363 30.454C39.4084 34.2378 36.7527 37.4334 33.2939 39.5295C29.8352 41.6256 25.7734 42.501 21.7583 42.0158C17.7432 41.5305 14.0069 39.7126 11.1471 36.8528C8.28739 33.993 6.46945 30.2567 5.98417 26.2417C5.4989 22.2266 6.37433 18.1647 8.47041 14.706C10.5665 11.2473 13.7621 8.59153 17.5459 7.16365C21.3298 5.73577 25.4832 5.61828 29.3418 6.82997C29.5941 6.90605 29.8663 6.87951 30.0992 6.75611C30.3321 6.63271 30.5069 6.42241 30.5857 6.17089C30.6645 5.91936 30.6408 5.64692 30.5199 5.41271C30.399 5.1785 30.1906 5.00144 29.94 4.91997C25.6559 3.5759 21.0448 3.7074 16.8443 5.29344C12.6438 6.87949 9.09655 9.82844 6.76996 13.6686C4.44338 17.5088 3.47188 22.0182 4.01086 26.4758C4.54985 30.9333 6.56817 35.0812 9.743 38.2562C12.9178 41.4311 17.0657 43.4496 21.5232 43.9888C25.9807 44.5279 30.4902 43.5566 34.3305 41.2301C38.1707 38.9037 41.1198 35.3566 42.706 31.1561C44.2922 26.9557 44.4239 22.3446 43.08 18.0605Z" fill="#02060B"/>
<path d="M25.9043 11.1387C25.9069 10.8643 25.8049 10.5992 25.6192 10.3972C25.4335 10.1952 25.1779 10.0713 24.9043 10.0508C24.6055 10.0254 24.3066 10 24 10C21.2311 10 18.5243 10.8211 16.222 12.3594C13.9197 13.8978 12.1253 16.0843 11.0657 18.6424C10.0061 21.2006 9.72882 24.0155 10.269 26.7313C10.8092 29.447 12.1426 31.9416 14.1005 33.8995C16.0584 35.8574 18.553 37.1908 21.2687 37.731C23.9845 38.2712 26.7994 37.9939 29.3576 36.9343C31.9157 35.8747 34.1022 34.0803 35.6406 31.778C37.1789 29.4757 38 26.7689 38 24C38 23.6383 37.9778 23.277 37.9336 22.918C37.9142 22.7849 37.8683 22.657 37.7985 22.5419C37.7287 22.4269 37.6366 22.3271 37.5275 22.2483C37.4184 22.1696 37.2946 22.1136 37.1634 22.0836C37.0323 22.0537 36.8964 22.0504 36.764 22.0739C36.6315 22.0975 36.5051 22.1474 36.3923 22.2208C36.2795 22.2941 36.1826 22.3894 36.1074 22.5009C36.0321 22.6124 35.98 22.7379 35.9542 22.8699C35.9283 23.002 35.9293 23.1378 35.957 23.2695C35.9785 23.5117 36 23.752 36 23.9995C36.0001 26.3729 35.2964 28.693 33.9779 30.6665C32.6594 32.6399 30.7853 34.1781 28.5926 35.0864C26.3998 35.9947 23.987 36.2325 21.6592 35.7695C19.3314 35.3065 17.1932 34.1637 15.5149 32.4855C13.8366 30.8072 12.6937 28.6691 12.2306 26.3413C11.7676 24.0135 12.0052 21.6007 12.9134 19.4079C13.8216 17.2152 15.3597 15.341 17.3331 14.0224C19.3065 12.7038 21.6266 12 24 12C24.248 12 24.4883 12.0215 24.73 12.043L24.9175 12.0586C25.0429 12.0639 25.1682 12.0443 25.2859 12.0008C25.4037 11.9573 25.5116 11.8908 25.6034 11.8052C25.6953 11.7196 25.7692 11.6166 25.8208 11.5022C25.8725 11.3877 25.9008 11.2642 25.9043 11.1387Z" fill="#02060B"/>
<path d="M30.0001 13V16.5859L23.2931 23.293C23.1976 23.3853 23.1214 23.4956 23.069 23.6176C23.0166 23.7396 22.989 23.8708 22.9878 24.0036C22.9867 24.1364 23.012 24.2681 23.0623 24.391C23.1125 24.5139 23.1868 24.6255 23.2807 24.7194C23.3746 24.8133 23.4862 24.8876 23.6091 24.9379C23.732 24.9881 23.8637 25.0134 23.9965 25.0123C24.1293 25.0111 24.2605 24.9835 24.3825 24.9311C24.5045 24.8787 24.6148 24.8025 24.7071 24.707L31.4142 18H35.0001C35.1314 18 35.2614 17.9742 35.3827 17.9239C35.5041 17.8736 35.6143 17.7999 35.7071 17.707L41.7071 11.707C41.8469 11.5672 41.9421 11.389 41.9807 11.1951C42.0192 11.0011 41.9994 10.8001 41.9238 10.6174C41.8481 10.4347 41.7199 10.2785 41.5555 10.1686C41.3911 10.0587 41.1978 10.0001 41.0001 10H38.0001V7.00003C38 6.80228 37.9414 6.60898 37.8315 6.44457C37.7216 6.28016 37.5654 6.15202 37.3827 6.07635C37.2 6.00068 36.999 5.98088 36.8051 6.01945C36.6111 6.05802 36.4329 6.15322 36.2931 6.29303L30.2931 12.293C30.2002 12.3858 30.1265 12.4961 30.0762 12.6174C30.0259 12.7387 30.0001 12.8687 30.0001 13ZM32.0001 13.4141L36.0001 9.41413V11C36.0001 11.2652 36.1054 11.5196 36.293 11.7071C36.4805 11.8947 36.7349 12 37.0001 12H38.586L34.586 16H32.0001V13.4141Z" fill="#02060B"/>
</svg>
