<svg width="30" height="30" viewBox="0 0 30 30" fill="none" xmlns="http://www.w3.org/2000/svg">
<g clip-path="url(#clip0_1641_5669)">
<path d="M24.75 0H5.25C2.35051 0 0 2.43156 0 5.43103V24.569C0 27.5684 2.35051 30 5.25 30H24.75C27.6495 30 30 27.5684 30 24.569V5.43103C30 2.43156 27.6495 0 24.75 0Z" fill="#330000"/>
<path d="M15.0986 18.627H10.6248L9.46985 21.962C9.45651 22.072 9.38693 22.127 9.2611 22.127H7.1611C7.0211 22.127 6.97235 22.0583 7.01485 21.9208L11.0673 9.88452C11.1818 9.51804 11.2383 9.13593 11.2348 8.75202C11.2326 8.73507 11.2343 8.71782 11.2397 8.70163C11.2452 8.68543 11.2544 8.67071 11.2665 8.65862C11.2785 8.64653 11.2933 8.63739 11.3095 8.63191C11.3257 8.62642 11.3429 8.62475 11.3598 8.62702H14.2998C14.3848 8.62702 14.4336 8.66202 14.4473 8.72952L18.9823 21.942C19.0248 22.067 18.9898 22.127 18.8773 22.127H16.5261C16.4826 22.1296 16.4393 22.1191 16.4019 22.0968C16.3644 22.0745 16.3345 22.0415 16.3161 22.002L15.0986 18.627ZM11.1248 16.377H14.6098C14.5261 16.1933 12.9586 11.1358 12.8461 10.7095H12.8261L11.1248 16.377ZM21.4886 11.127C21.2915 11.1354 21.0947 11.1043 20.9098 11.0354C20.725 10.9664 20.5558 10.8612 20.4123 10.7258C20.2719 10.583 20.1628 10.4126 20.0917 10.2254C20.0207 10.0382 19.9894 9.83823 19.9998 9.63827C19.9905 9.43576 20.0234 9.23353 20.0963 9.0444C20.1693 8.85526 20.2807 8.68333 20.4236 8.53952C20.5683 8.40182 20.739 8.2944 20.9257 8.22357C21.1125 8.15273 21.3115 8.11991 21.5111 8.12702C21.7111 8.1166 21.911 8.14789 22.0982 8.21891C22.2854 8.28992 22.4558 8.3991 22.5986 8.53952C22.7352 8.68673 22.8411 8.85975 22.91 9.04842C22.9789 9.2371 23.0095 9.43763 22.9998 9.63827C23.0103 9.83823 22.979 10.0382 22.908 10.2254C22.8369 10.4126 22.7278 10.583 22.5873 10.7258C22.4401 10.8624 22.2671 10.9683 22.0784 11.0372C21.8898 11.1061 21.6892 11.1366 21.4886 11.127ZM20.2498 21.9395V12.2945C20.2465 12.2717 20.2485 12.2485 20.2557 12.2266C20.2629 12.2048 20.2752 12.1849 20.2915 12.1686C20.3077 12.1523 20.3276 12.1401 20.3495 12.1329C20.3713 12.1257 20.3946 12.1236 20.4173 12.127H22.5823C22.6051 12.1239 22.6282 12.1261 22.6499 12.1334C22.6717 12.1408 22.6914 12.153 22.7076 12.1692C22.7239 12.1854 22.7361 12.2052 22.7434 12.2269C22.7508 12.2487 22.7529 12.2718 22.7498 12.2945V21.9595C22.7532 21.9823 22.7512 22.0055 22.744 22.0274C22.7368 22.0493 22.7245 22.0691 22.7082 22.0854C22.692 22.1017 22.6721 22.1139 22.6502 22.1212C22.6284 22.1284 22.6051 22.1304 22.5823 22.127H20.4373C20.4119 22.1305 20.386 22.1281 20.3616 22.1199C20.3373 22.1118 20.3151 22.0981 20.297 22.0799C20.2788 22.0617 20.2651 22.0396 20.2569 22.0152C20.2487 21.9909 20.2463 21.965 20.2498 21.9395Z" fill="#FF9A00"/>
</g>
<defs>
<clipPath id="clip0_1641_5669">
<rect width="30" height="30" fill="white"/>
</clipPath>
</defs>
</svg>
