<svg width="32" height="32" viewBox="0 0 32 32" fill="none" xmlns="http://www.w3.org/2000/svg">
<path d="M23 20C19.965 20 17.5 22.465 17.5 25.5C17.5 28.535 19.965 31 23 31C26.035 31 28.5 28.535 28.5 25.5C28.5 22.465 26.035 20 23 20ZM23 30C20.52 30 18.5 27.98 18.5 25.5C18.5 23.02 20.52 21 23 21C25.48 21 27.5 23.02 27.5 25.5C27.5 27.98 25.48 30 23 30Z" fill="#02060B"/>
<path d="M24.62 23.175L21.97 26.265L20.85 25.145C20.655 24.95 20.34 24.95 20.145 25.145C19.95 25.34 19.95 25.655 20.145 25.85L21.645 27.35C21.74 27.445 21.865 27.495 22 27.495C22.005 27.495 22.015 27.495 22.02 27.495C22.16 27.49 22.29 27.425 22.38 27.32L25.38 23.82C25.56 23.61 25.535 23.295 25.325 23.115C25.115 22.935 24.8 22.96 24.62 23.17V23.175ZM13 23.715L11 23.125V21.155C12.1 20.335 12.855 18.995 12.98 17.45C14.13 17.225 15 16.215 15 15V12.93C15 10.21 12.79 8 10.07 8H6.905C4.2 8 1.995 10.2 1.995 12.91V15C1.995 16.215 2.865 17.225 4.015 17.45C4.14 18.99 4.895 20.335 5.995 21.155V23.125L4 23.715C2.23 24.21 0.994995 25.875 0.994995 27.76V30.5C0.994995 30.775 1.22 31 1.495 31H15.495C15.77 31 15.995 30.775 15.995 30.5V27.76C15.995 25.87 14.76 24.205 12.995 23.715H13ZM4 14.735V16.415C3.42 16.21 3 15.655 3 15V12.91C3 10.755 4.755 9 6.91 9H10.075C12.24 9 14.005 10.76 14.005 12.93V15C14.005 15.65 13.585 16.21 13.005 16.415V14.74C13.005 14.055 12.45 13.5 11.765 13.5H9.1C8.845 13.5 8.605 13.405 8.425 13.225L7.35 12.175C7.255 12.085 7.13 12.03 7 12.03C6.985 12.03 6.96499 12.03 6.95 12.03C6.805 12.045 6.67 12.125 6.585 12.245L5.885 13.275C5.79 13.41 5.63499 13.495 5.47 13.495H5.24C4.89499 13.485 4.605 13.62 4.37 13.85C4.135 14.085 4.005 14.395 4.005 14.73L4 14.735ZM5 17V14.735C5 14.65 5.045 14.59 5.07 14.565C5.095 14.54 5.155 14.52 5.235 14.5H5.475C5.97 14.5 6.435 14.255 6.715 13.845L7.08 13.31L7.725 13.945C8.095 14.305 8.58 14.505 9.1 14.505H11.765C11.895 14.505 12.005 14.615 12.005 14.745V17.005C12.005 19.21 10.435 21.005 8.505 21.005C6.575 21.005 5.005 19.21 5.005 17.005L5 17ZM10 21.71V23.295L8.5 24.795L7 23.295V21.71C7.47 21.895 7.975 22 8.5 22C9.02499 22 9.52999 21.895 10 21.71ZM15 30H2V27.76C2 26.32 2.935 25.05 4.28 24.675L6.355 24.065L8.145 25.855C8.245 25.955 8.37 26 8.5 26C8.63 26 8.75499 25.95 8.85499 25.855L10.645 24.065L12.725 24.68C14.065 25.055 15 26.32 15 27.765V30.005V30ZM29.5 1H17.5C16.675 1 16 1.675 16 2.5V12C16 12.825 16.675 13.5 17.5 13.5H19V15C19 15.185 19.1 15.355 19.265 15.44C19.34 15.48 19.42 15.5 19.5 15.5C19.595 15.5 19.695 15.47 19.775 15.415L22.65 13.5H29.5C30.325 13.5 31 12.825 31 12V2.5C31 1.675 30.325 1 29.5 1ZM30 12C30 12.275 29.775 12.5 29.5 12.5H22.5C22.4 12.5 22.305 12.53 22.225 12.585L20 14.065V13C20 12.725 19.775 12.5 19.5 12.5H17.5C17.225 12.5 17 12.275 17 12V2.5C17 2.225 17.225 2 17.5 2H29.5C29.775 2 30 2.225 30 2.5V12Z" fill="#02060B"/>
<path d="M21 3.5H19C18.725 3.5 18.5 3.725 18.5 4V6C18.5 6.275 18.725 6.5 19 6.5H21C21.275 6.5 21.5 6.275 21.5 6V4C21.5 3.725 21.275 3.5 21 3.5ZM20.5 5.5H19.5V4.5H20.5V5.5ZM21 8H19C18.725 8 18.5 8.225 18.5 8.5V10.5C18.5 10.775 18.725 11 19 11H21C21.275 11 21.5 10.775 21.5 10.5V8.5C21.5 8.225 21.275 8 21 8ZM20.5 10H19.5V9H20.5V10ZM28 3.5H23C22.725 3.5 22.5 3.725 22.5 4C22.5 4.275 22.725 4.5 23 4.5H28C28.275 4.5 28.5 4.275 28.5 4C28.5 3.725 28.275 3.5 28 3.5ZM28 5.5H23C22.725 5.5 22.5 5.725 22.5 6C22.5 6.275 22.725 6.5 23 6.5H28C28.275 6.5 28.5 6.275 28.5 6C28.5 5.725 28.275 5.5 28 5.5ZM28 8H23C22.725 8 22.5 8.225 22.5 8.5C22.5 8.775 22.725 9 23 9H28C28.275 9 28.5 8.775 28.5 8.5C28.5 8.225 28.275 8 28 8ZM28 10H23C22.725 10 22.5 10.225 22.5 10.5C22.5 10.775 22.725 11 23 11H28C28.275 11 28.5 10.775 28.5 10.5C28.5 10.225 28.275 10 28 10Z" fill="#02060B"/>
</svg>
