<svg width="32" height="32" viewBox="0 0 32 32" fill="none" xmlns="http://www.w3.org/2000/svg">
<g clip-path="url(#clip0_1117_2055)">
<path d="M26.98 10.98H25.223C25.0904 10.98 24.9632 11.0327 24.8695 11.1264C24.7757 11.2202 24.723 11.3474 24.723 11.48C24.723 11.6126 24.7757 11.7398 24.8695 11.8335C24.9632 11.9273 25.0904 11.98 25.223 11.98H26.98C27.1126 11.98 27.2398 11.9273 27.3336 11.8335C27.4273 11.7398 27.48 11.6126 27.48 11.48C27.48 11.3474 27.4273 11.2202 27.3336 11.1264C27.2398 11.0327 27.1126 10.98 26.98 10.98Z" fill="#02060B"/>
<path d="M7.27702 11.48C7.27702 11.3474 7.22434 11.2202 7.13057 11.1264C7.0368 11.0327 6.90963 10.98 6.77702 10.98H5.02002C4.88741 10.98 4.76023 11.0327 4.66647 11.1264C4.5727 11.2202 4.52002 11.3474 4.52002 11.48C4.52002 11.6126 4.5727 11.7398 4.66647 11.8335C4.76023 11.9273 4.88741 11.98 5.02002 11.98H6.77702C6.90963 11.98 7.0368 11.9273 7.13057 11.8335C7.22434 11.7398 7.27702 11.6126 7.27702 11.48Z" fill="#02060B"/>
<path d="M19.338 3.42099C19.3986 3.44647 19.4637 3.45967 19.5295 3.45982C19.5952 3.45997 19.6604 3.44707 19.7211 3.42186C19.7818 3.39666 19.837 3.35965 19.8833 3.31298C19.9296 3.26631 19.9663 3.21091 19.991 3.14999L20.663 1.52699C20.711 1.40498 20.7091 1.269 20.6578 1.14835C20.6065 1.02769 20.5099 0.932016 20.3887 0.881925C20.2676 0.831834 20.1316 0.831337 20.0101 0.880542C19.8885 0.929746 19.7912 1.02471 19.739 1.14499L19.067 2.76799C19.0167 2.89055 19.0169 3.02807 19.0677 3.15045C19.1185 3.27283 19.2157 3.37011 19.338 3.42099Z" fill="#02060B"/>
<path d="M26.336 15.22L24.712 14.548C24.6511 14.5216 24.5855 14.5076 24.5192 14.5068C24.4528 14.5059 24.3869 14.5183 24.3254 14.5433C24.2638 14.5682 24.2079 14.6051 24.1607 14.6519C24.1136 14.6986 24.0763 14.7543 24.0509 14.8157C24.0256 14.877 24.0127 14.9428 24.013 15.0092C24.0133 15.0756 24.0269 15.1413 24.0529 15.2024C24.0788 15.2635 24.1167 15.3188 24.1643 15.3651C24.2119 15.4114 24.2682 15.4477 24.33 15.472L25.954 16.144C26.0146 16.1695 26.0797 16.1827 26.1455 16.1829C26.2112 16.183 26.2764 16.1701 26.3371 16.1449C26.3978 16.1197 26.453 16.0827 26.4993 16.036C26.5456 15.9893 26.5822 15.9339 26.607 15.873C26.6576 15.7505 26.6575 15.6129 26.6067 15.4904C26.5559 15.368 26.4585 15.2707 26.336 15.22Z" fill="#02060B"/>
<path d="M5.66402 7.73995L7.28802 8.41195C7.41004 8.45993 7.54601 8.45807 7.66667 8.40677C7.78732 8.35547 7.883 8.25883 7.93309 8.13767C7.98318 8.01651 7.98368 7.88052 7.93447 7.75899C7.88527 7.63747 7.7903 7.54013 7.67002 7.48795L6.04702 6.81595C5.92449 6.76516 5.78681 6.76513 5.66425 6.81585C5.5417 6.86658 5.44431 6.96392 5.39352 7.08645C5.34273 7.20898 5.3427 7.34667 5.39343 7.46922C5.44416 7.59178 5.54149 7.68916 5.66402 7.73995Z" fill="#02060B"/>
<path d="M22.522 5.45801C22.6547 5.45803 22.782 5.40554 22.876 5.31201L24.118 4.07001C24.2091 3.97571 24.2595 3.84941 24.2584 3.71831C24.2572 3.58721 24.2046 3.46181 24.1119 3.3691C24.0192 3.2764 23.8938 3.22381 23.7627 3.22268C23.6316 3.22154 23.5053 3.27193 23.411 3.36301L22.169 4.60501C22.0993 4.67493 22.0519 4.76393 22.0327 4.86077C22.0135 4.95762 22.0234 5.05798 22.0611 5.14921C22.0989 5.24043 22.1628 5.31844 22.2448 5.3734C22.3268 5.42835 22.4233 5.45779 22.522 5.45801Z" fill="#02060B"/>
<path d="M7.88198 19.598C7.92829 19.6448 7.98342 19.682 8.04418 19.7073C8.10495 19.7327 8.17014 19.7458 8.23598 19.7458C8.30182 19.7458 8.36701 19.7327 8.42777 19.7073C8.48854 19.682 8.54367 19.6448 8.58998 19.598L9.83198 18.356C9.92306 18.2617 9.97345 18.1354 9.97231 18.0043C9.97118 17.8732 9.91859 17.7478 9.82589 17.6551C9.73318 17.5624 9.60778 17.5098 9.47668 17.5087C9.34558 17.5075 9.21928 17.5579 9.12498 17.649L7.88298 18.891C7.78911 18.9847 7.73627 19.1117 7.73608 19.2443C7.7359 19.3769 7.78838 19.5041 7.88198 19.598Z" fill="#02060B"/>
<path d="M22.168 17.648C22.0743 17.7418 22.0216 17.8689 22.0216 18.0015C22.0216 18.1341 22.0743 18.2613 22.168 18.355L23.41 19.597C23.4563 19.6438 23.5114 19.681 23.5722 19.7063C23.633 19.7317 23.6982 19.7448 23.764 19.7448C23.8298 19.7448 23.895 19.7317 23.9558 19.7063C24.0166 19.681 24.0717 19.6438 24.118 19.597C24.2117 19.5033 24.2644 19.3761 24.2644 19.2435C24.2644 19.1109 24.2117 18.9838 24.118 18.89L22.876 17.648C22.7819 17.5545 22.6547 17.502 22.522 17.502C22.3893 17.502 22.2621 17.5545 22.168 17.648Z" fill="#02060B"/>
<path d="M9.12499 5.31204C9.17129 5.35869 9.22636 5.39572 9.28703 5.42098C9.3477 5.44625 9.41277 5.45926 9.47849 5.45926C9.54422 5.45926 9.60929 5.44625 9.66996 5.42098C9.73063 5.39572 9.7857 5.35869 9.83199 5.31204C9.92573 5.21827 9.97839 5.09112 9.97839 4.95854C9.97839 4.82595 9.92573 4.6988 9.83199 4.60504L8.58899 3.36204C8.49469 3.27096 8.36839 3.22056 8.23729 3.2217C8.10619 3.22284 7.98079 3.27542 7.88808 3.36813C7.79538 3.46083 7.7428 3.58624 7.74166 3.71734C7.74052 3.84843 7.79092 3.97473 7.88199 4.06904L9.12499 5.31204Z" fill="#02060B"/>
<path d="M24.059 8.14204C24.1099 8.26438 24.2072 8.36158 24.3296 8.41237C24.4519 8.46316 24.5894 8.4634 24.712 8.41304L26.336 7.74104C26.4563 7.68886 26.5513 7.59152 26.6005 7.47C26.6497 7.34847 26.6492 7.21248 26.5991 7.09132C26.549 6.97016 26.4533 6.87352 26.3326 6.82222C26.212 6.77091 26.076 6.76906 25.954 6.81704L24.33 7.48804C24.2074 7.53892 24.11 7.63636 24.0592 7.75898C24.0084 7.8816 24.0083 8.01937 24.059 8.14204Z" fill="#02060B"/>
<path d="M5.85503 16.182C5.92059 16.1822 5.98552 16.1692 6.04603 16.144L7.67003 15.472C7.79031 15.4198 7.88527 15.3225 7.93448 15.201C7.98368 15.0794 7.98319 14.9434 7.9331 14.8223C7.883 14.7011 7.78733 14.6045 7.66667 14.5532C7.54602 14.5019 7.41004 14.5 7.28803 14.548L5.66403 15.22C5.55715 15.2642 5.46891 15.3442 5.41434 15.4462C5.35978 15.5481 5.34227 15.6659 5.3648 15.7794C5.38733 15.8928 5.44849 15.995 5.53788 16.0684C5.62727 16.1418 5.73936 16.182 5.85503 16.182Z" fill="#02060B"/>
<path d="M12.008 3.15001C12.0589 3.27235 12.1561 3.36955 12.2785 3.42034C12.4009 3.47113 12.5384 3.47137 12.661 3.42101C12.7835 3.37033 12.8809 3.27308 12.9317 3.15062C12.9825 3.02816 12.9826 2.89054 12.932 2.76801L12.26 1.14501C12.2357 1.08322 12.1993 1.0269 12.153 0.979315C12.1067 0.931733 12.0514 0.893848 11.9903 0.86787C11.9292 0.841892 11.8636 0.828342 11.7972 0.828009C11.7308 0.827677 11.665 0.840569 11.6036 0.865934C11.5423 0.891298 11.4866 0.928628 11.4398 0.975743C11.3931 1.02286 11.3561 1.07882 11.3312 1.14035C11.3063 1.20189 11.2939 1.26777 11.2947 1.33416C11.2955 1.40054 11.3096 1.4661 11.336 1.52701L12.008 3.15001Z" fill="#02060B"/>
<path d="M16 2.91896C16.1326 2.91896 16.2598 2.86629 16.3536 2.77252C16.4473 2.67875 16.5 2.55157 16.5 2.41896V0.662964C16.5 0.530356 16.4473 0.403179 16.3536 0.30941C16.2598 0.215642 16.1326 0.162964 16 0.162964C15.8674 0.162964 15.7402 0.215642 15.6464 0.30941C15.5527 0.403179 15.5 0.530356 15.5 0.662964V2.41996C15.5003 2.5524 15.5531 2.67932 15.6468 2.77287C15.7405 2.86642 15.8676 2.91896 16 2.91896Z" fill="#02060B"/>
<path d="M24.81 23.489L21.107 21.267L19.721 19.727C19.681 19.683 19.624 19.67 19.574 19.644V18.595C20.8921 17.931 22.0003 16.9147 22.7756 15.6589C23.5509 14.4031 23.963 12.9569 23.966 11.481C23.966 7.08804 20.392 3.51404 16 3.51404C11.608 3.51404 8.03399 7.08804 8.03399 11.48C8.0369 12.9559 8.4489 14.4021 9.22422 15.658C9.99955 16.9138 11.1078 17.9301 12.426 18.594V19.643C12.376 19.67 12.319 19.682 12.279 19.726L10.893 21.266L7.18999 23.488C6.64503 23.8174 6.19401 24.2815 5.88034 24.8356C5.56667 25.3897 5.4009 26.0153 5.39899 26.652V31.5C5.39899 31.6326 5.45166 31.7598 5.54543 31.8536C5.6392 31.9474 5.76638 32 5.89899 32H26.102C26.2346 32 26.3618 31.9474 26.4555 31.8536C26.5493 31.7598 26.602 31.6326 26.602 31.5V26.653C26.6003 26.0161 26.4345 25.3904 26.1206 24.8362C25.8067 24.282 25.3553 23.8181 24.81 23.489ZM20.129 21.677L18.616 23.568L16.853 21.805L19.227 20.675L20.129 21.677ZM15.427 22.938L16 22.364L16.573 22.937C16.571 22.954 16.563 22.968 16.563 22.986V23.815H15.436V22.986C15.437 22.969 15.428 22.954 15.427 22.938ZM16.41 18.332C16.389 18.3883 16.3781 18.4479 16.378 18.508V20.924L16 21.104L15.622 20.924V18.508C15.6218 18.4479 15.611 18.3883 15.59 18.332L14.288 14.858C14.293 14.83 14.305 14.804 14.305 14.774C14.3173 14.6239 14.3856 14.4838 14.4964 14.3818C14.6072 14.2797 14.7523 14.223 14.903 14.223C15.0536 14.223 15.1988 14.2797 15.3096 14.3818C15.4204 14.4838 15.4887 14.6239 15.501 14.774C15.501 14.9066 15.5537 15.0338 15.6474 15.1276C15.7412 15.2214 15.8684 15.274 16.001 15.274C16.1336 15.274 16.2608 15.2214 16.3545 15.1276C16.4483 15.0338 16.501 14.9066 16.501 14.774C16.501 14.444 16.77 14.175 17.099 14.175C17.428 14.175 17.697 14.444 17.697 14.774C17.697 14.804 17.709 14.829 17.714 14.858L16.41 18.332ZM9.03399 11.48C9.03399 7.63804 12.159 4.51304 16 4.51304C19.841 4.51304 22.966 7.63804 22.966 11.48C22.963 12.8192 22.575 14.1293 21.8482 15.2541C21.1215 16.3789 20.0866 17.271 18.867 17.824C18.7796 17.8637 18.7054 17.9277 18.6534 18.0084C18.6015 18.0891 18.5739 18.183 18.574 18.279V19.878L17.378 20.447V18.598L18.664 15.169C18.6957 15.0765 18.6991 14.9766 18.674 14.882C18.682 14.846 18.696 14.812 18.696 14.773C18.6957 14.3492 18.5273 13.9428 18.2277 13.643C17.9281 13.3432 17.5218 13.1746 17.098 13.174C16.672 13.174 16.287 13.344 16 13.617C15.7048 13.3333 15.3114 13.1746 14.902 13.174C14.4782 13.1746 14.0719 13.3432 13.7723 13.643C13.4727 13.9428 13.3043 14.3492 13.304 14.773C13.304 14.812 13.318 14.846 13.326 14.882C13.3003 14.9765 13.3038 15.0766 13.336 15.169L14.622 18.598V20.447L13.426 19.878V18.279C13.426 18.1831 13.3983 18.0892 13.3464 18.0085C13.2944 17.9278 13.2203 17.8638 13.133 17.824C11.9134 17.271 10.8785 16.3789 10.1517 15.2541C9.42499 14.1293 9.03699 12.8192 9.03399 11.48ZM12.772 20.675L15.146 21.805L13.383 23.568L11.87 21.677L12.772 20.675ZM14.072 31H10.651V29.448C10.651 28.525 10.308 27.641 9.68599 26.96L9.02099 26.231C8.97673 26.1826 8.92336 26.1433 8.86393 26.1155C8.8045 26.0876 8.74017 26.0718 8.67461 26.0688C8.60906 26.0658 8.54355 26.0758 8.48185 26.0982C8.42014 26.1205 8.36344 26.1548 8.31499 26.199C8.26653 26.2433 8.22726 26.2967 8.19943 26.3561C8.1716 26.4155 8.15574 26.4799 8.15277 26.5454C8.1498 26.611 8.15977 26.6765 8.18211 26.7382C8.20445 26.7999 8.23873 26.8566 8.28299 26.905L8.94799 27.634C9.40199 28.131 9.65199 28.776 9.65199 29.448V31H6.39799V26.653C6.39799 25.714 6.89799 24.83 7.70399 24.346L11.097 22.31L12.951 24.627C12.995 24.6819 13.0501 24.7269 13.1126 24.7591C13.1751 24.7913 13.2438 24.81 13.314 24.814L13.342 24.815C13.474 24.815 13.602 24.762 13.696 24.669L14.437 23.928V24.316C14.437 24.579 14.641 24.788 14.899 24.808L14.072 31ZM15.081 31L15.906 24.815H16.094L16.919 31H15.081ZM25.602 31H22.349V29.448C22.349 28.775 22.599 28.131 23.053 27.634L23.718 26.905C23.7622 26.8566 23.7965 26.7999 23.8189 26.7382C23.8412 26.6765 23.8512 26.611 23.8482 26.5454C23.8452 26.4799 23.8294 26.4155 23.8015 26.3561C23.7737 26.2967 23.7344 26.2433 23.686 26.199C23.6375 26.1548 23.5808 26.1205 23.5191 26.0982C23.4574 26.0758 23.3919 26.0658 23.3264 26.0688C23.2608 26.0718 23.1965 26.0876 23.137 26.1155C23.0776 26.1433 23.0242 26.1826 22.98 26.231L22.315 26.96C21.6933 27.6394 21.3489 28.5272 21.35 29.448V31H17.929L17.103 24.808C17.2279 24.7995 17.3449 24.744 17.4306 24.6527C17.5163 24.5615 17.5643 24.4412 17.565 24.316V23.928L18.306 24.669C18.3525 24.7154 18.4077 24.7522 18.4685 24.7773C18.5292 24.8023 18.5943 24.8152 18.66 24.815L18.688 24.814C18.7583 24.8103 18.827 24.7917 18.8895 24.7595C18.9521 24.7272 19.0071 24.6821 19.051 24.627L20.905 22.31L24.298 24.346C24.6956 24.5859 25.0246 24.9243 25.2534 25.3284C25.4821 25.7325 25.6029 26.1887 25.604 26.653V31H25.602Z" fill="#02060B"/>
</g>
<defs>
<clipPath id="clip0_1117_2055">
<rect width="32" height="32" fill="white"/>
</clipPath>
</defs>
</svg>
