<svg width="30" height="30" viewBox="0 0 30 30" fill="none" xmlns="http://www.w3.org/2000/svg">
<path d="M7.60728 29.8935C6.44691 29.8806 5.29746 29.6678 4.20937 29.2644C3.4148 28.9707 2.69592 28.5031 2.10527 27.8959C1.49639 27.3064 1.02813 26.5874 0.735287 25.7921C0.332277 24.7041 0.119758 23.5547 0.107058 22.3945C0.017941 20.4657 0 19.8872 0 14.9999C0 10.1125 0.0197057 9.53608 0.106175 7.60581C0.120417 6.44605 0.333197 5.29729 0.735287 4.20937C1.02956 3.41467 1.49715 2.6955 2.1041 2.1041C2.69401 1.49576 3.41323 1.02794 4.20849 0.735287C5.29657 0.331943 6.44603 0.119125 7.6064 0.106175C9.53579 0.017941 10.1152 0 14.9999 0C19.8845 0 20.4636 0.0197057 22.3939 0.106175C23.554 0.120317 24.703 0.333098 25.7912 0.735287C26.5861 1.02832 27.3051 1.49598 27.8953 2.1038C28.5033 2.69416 28.9712 3.41338 29.2644 4.20849C29.6679 5.29656 29.8808 6.44601 29.8938 7.6064C29.9821 9.53667 30 10.1146 30 15.0004C30 19.8863 29.9821 20.4642 29.8938 22.3945C29.8798 23.5547 29.6669 24.7039 29.2644 25.7921C28.9599 26.5813 28.4936 27.2979 27.8954 27.896C27.2972 28.494 26.5805 28.9601 25.7912 29.2644C24.7031 29.6679 23.5537 29.8808 22.3933 29.8938C20.4648 29.9821 19.8851 30 14.9993 30C10.1134 30 9.53549 29.9829 7.60698 29.8938" fill="url(#paint0_radial_1641_5741)"/>
<path d="M7.60728 29.8935C6.44691 29.8806 5.29746 29.6678 4.20937 29.2644C3.4148 28.9707 2.69592 28.5031 2.10527 27.8959C1.49639 27.3064 1.02813 26.5874 0.735287 25.7921C0.332277 24.7041 0.119758 23.5547 0.107058 22.3945C0.017941 20.4657 0 19.8872 0 14.9999C0 10.1125 0.0197057 9.53608 0.106175 7.60581C0.120417 6.44605 0.333197 5.29729 0.735287 4.20937C1.02956 3.41467 1.49715 2.6955 2.1041 2.1041C2.69401 1.49576 3.41323 1.02794 4.20849 0.735287C5.29657 0.331943 6.44603 0.119125 7.6064 0.106175C9.53579 0.017941 10.1152 0 14.9999 0C19.8845 0 20.4636 0.0197057 22.3939 0.106175C23.554 0.120317 24.703 0.333098 25.7912 0.735287C26.5861 1.02832 27.3051 1.49598 27.8953 2.1038C28.5033 2.69416 28.9712 3.41338 29.2644 4.20849C29.6679 5.29656 29.8808 6.44601 29.8938 7.6064C29.9821 9.53667 30 10.1146 30 15.0004C30 19.8863 29.9821 20.4642 29.8938 22.3945C29.8798 23.5547 29.6669 24.7039 29.2644 25.7921C28.9599 26.5813 28.4936 27.2979 27.8954 27.896C27.2972 28.494 26.5805 28.9601 25.7912 29.2644C24.7031 29.6679 23.5537 29.8808 22.3933 29.8938C20.4648 29.9821 19.8851 30 14.9993 30C10.1134 30 9.53549 29.9829 7.60698 29.8938" fill="url(#paint1_radial_1641_5741)"/>
<path d="M11.3164 15.0637C11.3164 14.3289 11.5344 13.6107 11.9426 12.9998C12.3509 12.3889 12.9312 11.9128 13.61 11.6316C14.2889 11.3505 15.0359 11.277 15.7565 11.4205C16.4771 11.5639 17.139 11.9178 17.6585 12.4374C18.178 12.957 18.5318 13.619 18.675 14.3397C18.8183 15.0604 18.7446 15.8073 18.4633 16.4861C18.182 17.1649 17.7058 17.745 17.0948 18.1532C16.4838 18.5613 15.7655 18.7791 15.0308 18.7789C14.0455 18.7788 13.1007 18.3873 12.4042 17.6905C11.7076 16.9938 11.3163 16.0489 11.3164 15.0637ZM9.30787 15.0637C9.30787 16.1956 9.64351 17.302 10.2723 18.2431C10.9012 19.1843 11.795 19.9178 12.8407 20.3509C13.8864 20.7841 15.0371 20.8974 16.1472 20.6766C17.2574 20.4558 18.2771 19.9107 19.0774 19.1104C19.8778 18.31 20.4229 17.2903 20.6437 16.1802C20.8645 15.07 20.7512 13.9193 20.318 12.8736C19.8849 11.8279 19.1513 10.9341 18.2102 10.3053C17.2691 9.67643 16.1626 9.34079 15.0308 9.34079C14.2792 9.34075 13.535 9.48875 12.8407 9.77634C12.1463 10.0639 11.5154 10.4855 10.984 11.0169C10.4525 11.5483 10.031 12.1792 9.74342 12.8736C9.45583 13.5679 9.30783 14.3121 9.30787 15.0637ZM19.6428 9.11402C19.6427 9.37853 19.721 9.63712 19.8678 9.85711C20.0147 10.0771 20.2235 10.2486 20.4678 10.3499C20.7121 10.4513 20.981 10.4779 21.2404 10.4264C21.4999 10.3749 21.7382 10.2476 21.9253 10.0607C22.1124 9.87372 22.2399 9.63549 22.2916 9.3761C22.3433 9.1167 22.317 8.84779 22.2159 8.60338C22.1148 8.35897 21.9434 8.15003 21.7236 8.00299C21.5037 7.85594 21.2452 7.77739 20.9807 7.77728C20.6262 7.77743 20.2862 7.9183 20.0354 8.16894C19.7847 8.41958 19.6437 8.75949 19.6434 9.11402M10.5287 24.1356C9.82202 24.1279 9.1219 23.9985 8.45905 23.7533C7.97834 23.568 7.54176 23.2841 7.17739 22.9199C6.81303 22.5557 6.52897 22.1192 6.34348 21.6386C6.09813 20.9758 5.96879 20.2757 5.96114 19.5689C5.90702 18.3942 5.89643 18.0413 5.89643 15.0651C5.89643 12.089 5.9082 11.7369 5.96114 10.5611C5.96971 9.85443 6.09902 9.15445 6.34348 8.49138C6.52875 8.01053 6.81273 7.57383 7.17712 7.20945C7.5415 6.84507 7.97819 6.56109 8.45905 6.37582C9.12187 6.13046 9.82201 6.00113 10.5287 5.99347C11.7034 5.93935 12.0564 5.92877 15.0313 5.92877C18.0063 5.92877 18.3595 5.94024 19.5354 5.99377C20.2421 6.00234 20.942 6.13165 21.6051 6.37611C22.0859 6.5614 22.5226 6.84538 22.887 7.20976C23.2514 7.57414 23.5354 8.01083 23.7207 8.49168C23.966 9.1545 24.0953 9.85464 24.103 10.5614C24.1571 11.7378 24.1677 12.089 24.1677 15.0654C24.1677 18.0419 24.1568 18.3936 24.103 19.5695C24.0948 20.2762 23.9655 20.9762 23.7207 21.6392C23.5352 22.1198 23.2511 22.5563 22.8868 22.9205C22.5224 23.2847 22.0858 23.5686 21.6051 23.7539C20.9423 23.9992 20.2421 24.1286 19.5354 24.1362C18.3607 24.1904 18.0078 24.2009 15.0313 24.2009C12.0549 24.2009 11.7031 24.1901 10.5287 24.1362M10.4364 3.98673C9.51164 4.00491 8.59669 4.17994 7.73053 4.50436C6.9901 4.79064 6.31766 5.22849 5.75632 5.78983C5.19499 6.35117 4.75714 7.02361 4.47085 7.76404C4.14647 8.63021 3.97144 9.54516 3.95322 10.4699C3.89822 11.6581 3.88586 12.0381 3.88586 15.0648C3.88586 18.0916 3.89851 18.4713 3.95322 19.6598C3.97144 20.5846 4.14647 21.4995 4.47085 22.3657C4.75715 23.1061 5.19501 23.7785 5.75634 24.3399C6.31767 24.9012 6.99011 25.339 7.73053 25.6253C8.59673 25.9496 9.51166 26.1246 10.4364 26.143C11.6252 26.1971 12.0046 26.2103 15.0313 26.2103C18.0581 26.2103 18.4378 26.1977 19.6263 26.143C20.551 26.1247 21.466 25.9497 22.3321 25.6253C23.0726 25.339 23.745 24.9012 24.3063 24.3399C24.8677 23.7785 25.3055 23.1061 25.5918 22.3657C25.9166 21.4996 26.0917 20.5846 26.1095 19.6598C26.1636 18.4707 26.1759 18.0916 26.1759 15.0648C26.1759 12.0381 26.1633 11.6584 26.1095 10.4699C26.0913 9.54515 25.9163 8.6302 25.5918 7.76404C25.3055 7.02375 24.8678 6.35141 24.3066 5.79009C23.7455 5.22877 23.0733 4.79084 22.333 4.50436C21.4669 4.17973 20.5519 4.00469 19.6272 3.98673C18.4387 3.93231 18.059 3.91937 15.0328 3.91937C12.0067 3.91937 11.6261 3.93202 10.437 3.98673" fill="white"/>
<defs>
<radialGradient id="paint0_radial_1641_5741" cx="0" cy="0" r="1" gradientUnits="userSpaceOnUse" gradientTransform="translate(1.94145 29.3427) scale(38.0885)">
<stop offset="0.09" stop-color="#FA8F21"/>
<stop offset="0.78" stop-color="#D82D7E"/>
</radialGradient>
<radialGradient id="paint1_radial_1641_5741" cx="0" cy="0" r="1" gradientUnits="userSpaceOnUse" gradientTransform="translate(20.7798 28.3791) scale(33.5182)">
<stop offset="0.64" stop-color="#8C3AAA" stop-opacity="0"/>
<stop offset="1" stop-color="#8C3AAA"/>
</radialGradient>
</defs>
</svg>
