<svg width="30" height="30" viewBox="0 0 30 30" fill="none" xmlns="http://www.w3.org/2000/svg">
<path d="M26.4307 7.10953L16.0955 1.10836C15.4437 0.737113 14.595 0.737113 13.938 1.10836L3.49242 7.10953C2.81977 7.49649 2.34375 8.22375 2.34375 9.00164V20.9881C2.34375 21.7659 2.83219 22.4934 3.50484 22.8825L6.26461 24.45C7.58367 25.0997 8.04984 25.0997 8.65008 25.0997C10.6031 25.0997 11.7188 23.9187 11.7188 21.8588V10.0252C11.7188 9.85805 11.6318 9.60938 11.4677 9.60938H10.1498C9.98297 9.60938 9.60938 9.85805 9.60938 10.0249V21.8585C9.60938 22.7716 8.78344 23.6803 7.23984 22.9085L4.3882 21.2648C4.28883 21.2109 4.21875 21.1024 4.21875 20.9881V9.00164C4.21875 8.88868 4.34883 8.77524 4.44891 8.71735L14.8608 2.72649C14.958 2.67141 15.101 2.67141 15.198 2.72649L25.4829 8.71594C25.5813 8.77524 25.5466 8.88516 25.5466 9.00164V20.9881C25.5466 21.1024 25.5895 21.2138 25.4923 21.2688L15.1596 27.2632C15.071 27.3164 14.9611 27.3164 14.8641 27.2632L12.214 25.6814C12.1341 25.635 12.0391 25.6184 11.9625 25.6613C11.2252 26.0791 11.0892 26.1347 10.3976 26.3745C10.2274 26.4338 9.97641 26.5366 10.4937 26.8266L13.962 28.8783C14.2941 29.0705 14.6714 29.1703 15.0511 29.1703C15.4359 29.1703 15.8128 29.0705 16.1449 28.8783L26.4305 22.8825C27.1031 22.4906 27.4219 21.7659 27.4219 20.9881V9.00164C27.4219 8.22375 27.1031 7.49836 26.4307 7.10953ZM18.2602 19.0887C15.5119 19.0887 14.9065 18.3305 14.7047 16.9638C14.6813 16.8166 14.5563 16.6406 14.4066 16.6406H13.0634C12.8972 16.6406 12.7636 16.8422 12.7636 17.0077C12.7636 18.7575 13.7149 20.8777 18.2604 20.8777C21.5508 20.8777 23.4373 19.5991 23.4373 17.3365C23.4373 15.0931 21.9216 14.5043 18.7305 14.082C15.5051 13.6556 15.1774 13.4402 15.1774 12.6846C15.1774 12.0616 15.4549 11.2308 17.8432 11.2308C19.9772 11.2308 20.7638 11.6888 21.0874 13.1271C21.1151 13.2623 21.2386 13.3594 21.378 13.3594H22.7266C22.8096 13.3594 22.8888 13.3259 22.947 13.2666C23.0032 13.2028 23.033 13.1229 23.0255 13.0371C22.8166 10.5602 21.1711 9.40594 17.843 9.40594C14.8826 9.40594 13.1166 10.6561 13.1166 12.7516C13.1166 15.0246 14.8737 15.6527 17.7155 15.9338C21.1151 16.267 21.3795 16.7639 21.3795 17.4326C21.3795 18.5939 20.4471 19.0887 18.2602 19.0887Z" fill="#83CD29"/>
</svg>
