<svg width="48" height="48" viewBox="0 0 48 48" fill="none" xmlns="http://www.w3.org/2000/svg">
<path d="M42.262 37.525H37.406V18.451H39.026C39.1204 18.4511 39.213 18.4246 39.293 18.3743C39.3729 18.3241 39.437 18.2522 39.4778 18.167C39.5186 18.0818 39.5345 17.9869 39.5235 17.8931C39.5126 17.7993 39.4753 17.7105 39.416 17.637L35.175 12.362C35.1452 12.3415 35.1195 12.3158 35.099 12.286C35.0858 12.2782 35.0721 12.2712 35.058 12.265C35.0297 12.2462 34.9996 12.2304 34.968 12.218C34.9394 12.2067 34.91 12.1977 34.88 12.191C34.847 12.185 34.8135 12.1823 34.78 12.183C34.7482 12.1827 34.7164 12.1853 34.685 12.191C34.6553 12.1975 34.6262 12.2066 34.598 12.218C34.5663 12.2302 34.5362 12.246 34.508 12.265C34.4938 12.271 34.4801 12.278 34.467 12.286C34.452 12.297 34.445 12.314 34.432 12.327C34.419 12.34 34.402 12.347 34.391 12.362L30.149 17.637C30.0897 17.7105 30.0524 17.7993 30.0415 17.8931C30.0305 17.9869 30.0464 18.0818 30.0872 18.167C30.128 18.2522 30.1921 18.3241 30.2721 18.3743C30.352 18.4246 30.4446 18.4511 30.539 18.451H32.16V37.525H26.838V23.625H28.459C28.5533 23.625 28.6456 23.5984 28.7254 23.5482C28.8052 23.498 28.8691 23.4262 28.9099 23.3412C28.9507 23.2562 28.9666 23.1615 28.9558 23.0678C28.945 22.9742 28.908 22.8855 28.849 22.812L24.607 17.536C24.596 17.521 24.579 17.515 24.566 17.502C24.5552 17.4873 24.5435 17.4733 24.531 17.46C24.519 17.45 24.504 17.448 24.491 17.439C24.4625 17.4206 24.4324 17.4048 24.401 17.392C24.3724 17.3807 24.343 17.3717 24.313 17.365C24.2501 17.3543 24.1859 17.3543 24.123 17.365C24.093 17.3717 24.0636 17.3807 24.035 17.392C24.0036 17.4048 23.9735 17.4206 23.945 17.439C23.932 17.448 23.917 17.45 23.904 17.46C23.891 17.47 23.883 17.489 23.87 17.502C23.857 17.515 23.84 17.522 23.828 17.536L19.587 22.812C19.528 22.8855 19.491 22.9742 19.4802 23.0678C19.4694 23.1615 19.4853 23.2562 19.5261 23.3412C19.5669 23.4262 19.6308 23.498 19.7106 23.5482C19.7904 23.5984 19.8827 23.625 19.977 23.625H21.6V37.525H16.27V28.793H17.891C17.9852 28.7928 18.0774 28.766 18.157 28.7158C18.2367 28.6655 18.3005 28.5937 18.3411 28.5088C18.3818 28.4238 18.3976 28.3291 18.3868 28.2356C18.376 28.142 18.339 28.0534 18.28 27.98L14.039 22.705C14.0267 22.6926 14.0137 22.6809 14 22.67C13.9892 22.6553 13.9775 22.6413 13.965 22.628C13.952 22.618 13.937 22.616 13.923 22.607C13.8953 22.5887 13.8658 22.5733 13.835 22.561C13.8061 22.5496 13.7764 22.5405 13.746 22.534C13.6835 22.5233 13.6196 22.5233 13.557 22.534C13.5265 22.5401 13.4967 22.5491 13.468 22.561C13.437 22.5735 13.4072 22.5889 13.379 22.607C13.366 22.616 13.35 22.618 13.338 22.628C13.3255 22.6413 13.3138 22.6553 13.303 22.67C13.2886 22.6808 13.275 22.6925 13.262 22.705L9.01901 27.98C8.96005 28.0534 8.92304 28.142 8.91222 28.2356C8.90141 28.3291 8.91724 28.4238 8.95789 28.5088C8.99854 28.5937 9.06235 28.6655 9.14198 28.7158C9.22162 28.766 9.31383 28.7928 9.40801 28.793H11.028V37.525H6.23801V9.97498C6.23801 9.84237 6.18533 9.71519 6.09156 9.62142C5.99779 9.52765 5.87061 9.47498 5.73801 9.47498C5.6054 9.47498 5.47822 9.52765 5.38445 9.62142C5.29069 9.71519 5.23801 9.84237 5.23801 9.97498V38.025C5.23801 38.1576 5.29069 38.2848 5.38445 38.3785C5.47822 38.4723 5.6054 38.525 5.73801 38.525H42.262C42.3946 38.525 42.5218 38.4723 42.6156 38.3785C42.7093 38.2848 42.762 38.1576 42.762 38.025C42.762 37.8924 42.7093 37.7652 42.6156 37.6714C42.5218 37.5777 42.3946 37.525 42.262 37.525ZM32.662 17.451H31.588L34.788 13.473L37.988 17.451H36.906C36.7734 17.451 36.6462 17.5037 36.5525 17.5974C36.4587 17.6912 36.406 17.8184 36.406 17.951V37.525H33.165V17.951C33.165 17.8184 33.1123 17.6912 33.0186 17.5974C32.9248 17.5037 32.7976 17.451 32.665 17.451H32.662ZM22.1 22.622H21.021L24.221 18.645L27.421 22.622H26.338C26.2054 22.622 26.0782 22.6747 25.9845 22.7684C25.8907 22.8622 25.838 22.9894 25.838 23.122V37.522H22.6V23.122C22.6 22.9894 22.5473 22.8622 22.4536 22.7684C22.3598 22.6747 22.2326 22.622 22.1 22.622ZM11.528 27.793H10.452L13.652 23.816L16.852 27.793H15.77C15.6374 27.793 15.5102 27.8457 15.4165 27.9394C15.3227 28.0332 15.27 28.1604 15.27 28.293V37.525H12.028V28.293C12.028 28.1604 11.9753 28.0332 11.8816 27.9394C11.7878 27.8457 11.6606 27.793 11.528 27.793Z" fill="black"/>
</svg>
