<svg width="32" height="32" viewBox="0 0 32 32" fill="none" xmlns="http://www.w3.org/2000/svg">
<path d="M26.72 16.5158H16.0125C15.8767 16.5158 15.7465 16.4618 15.6504 16.3658C15.5544 16.2698 15.5005 16.1396 15.5005 16.0038C15.5005 15.868 15.5544 15.7378 15.6504 15.6417C15.7465 15.5457 15.8767 15.4918 16.0125 15.4918H26.72C26.8558 15.4918 26.986 15.5457 27.082 15.6417C27.1781 15.7378 27.232 15.868 27.232 16.0038C27.232 16.1396 27.1781 16.2698 27.082 16.3658C26.986 16.4618 26.8558 16.5158 26.72 16.5158ZM20.8048 9.79578H16.0125C15.8767 9.79578 15.7465 9.74184 15.6504 9.64582C15.5544 9.5498 15.5005 9.41958 15.5005 9.28378C15.5005 9.14799 15.5544 9.01777 15.6504 8.92175C15.7465 8.82573 15.8767 8.77178 16.0125 8.77178H20.2928V5.27994C20.2928 5.14415 20.3468 5.01392 20.4428 4.91791C20.5388 4.82189 20.669 4.76794 20.8048 4.76794C20.9406 4.76794 21.0708 4.82189 21.1668 4.91791C21.2629 5.01392 21.3168 5.14415 21.3168 5.27994V9.28378C21.3168 9.41958 21.2629 9.5498 21.1668 9.64582C21.0708 9.74184 20.9406 9.79578 20.8048 9.79578ZM20.8048 27.2319C20.669 27.2319 20.5388 27.178 20.4428 27.082C20.3468 26.986 20.2928 26.8557 20.2928 26.7199V23.2358H16.0125C15.8767 23.2358 15.7465 23.1818 15.6504 23.0858C15.5544 22.9898 15.5005 22.8596 15.5005 22.7238C15.5005 22.588 15.5544 22.4578 15.6504 22.3617C15.7465 22.2657 15.8767 22.2118 16.0125 22.2118H20.8048C20.9406 22.2118 21.0708 22.2657 21.1668 22.3617C21.2629 22.4578 21.3168 22.588 21.3168 22.7238V26.7199C21.3168 26.8557 21.2629 26.986 21.1668 27.082C21.0708 27.178 20.9406 27.2319 20.8048 27.2319Z" fill="#02060B"/>
<path d="M20.8048 5.79199C20.4979 5.79199 20.1978 5.70097 19.9426 5.53043C19.6873 5.35989 19.4884 5.1175 19.3709 4.83391C19.2535 4.55032 19.2227 4.23827 19.2826 3.93721C19.3425 3.63615 19.4903 3.35961 19.7074 3.14256C19.9244 2.92551 20.201 2.77769 20.502 2.71781C20.8031 2.65793 21.1151 2.68866 21.3987 2.80613C21.6823 2.9236 21.9247 3.12252 22.0952 3.37774C22.2658 3.63297 22.3568 3.93303 22.3568 4.23999C22.3563 4.65145 22.1926 5.04591 21.9017 5.33686C21.6107 5.6278 21.2163 5.79148 20.8048 5.79199ZM20.8048 3.71199C20.7004 3.71199 20.5983 3.74296 20.5115 3.80097C20.4246 3.85899 20.357 3.94145 20.317 4.03793C20.277 4.13441 20.2666 4.24057 20.287 4.343C20.3073 4.44542 20.3576 4.5395 20.4315 4.61334C20.5053 4.68718 20.5994 4.73747 20.7018 4.75784C20.8042 4.77822 20.9104 4.76776 21.0069 4.7278C21.1033 4.68783 21.1858 4.62016 21.2438 4.53333C21.3018 4.4465 21.3328 4.34442 21.3328 4.23999C21.3326 4.10001 21.277 3.96581 21.178 3.86682C21.079 3.76784 20.9448 3.71216 20.8048 3.71199ZM16.0125 13.1558C15.8767 13.1558 15.7465 13.1019 15.6504 13.0059C15.5544 12.9098 15.5005 12.7796 15.5005 12.6438C15.5005 12.508 15.5544 12.3778 15.6504 12.2818C15.7465 12.1858 15.8767 12.1318 16.0125 12.1318H23.6534L26.6934 9.09183C26.7407 9.04315 26.7972 9.00437 26.8597 8.97772C26.9221 8.95108 26.9892 8.93711 27.057 8.93663C27.1249 8.93615 27.1922 8.94917 27.255 8.97492C27.3178 9.00068 27.3748 9.03866 27.4228 9.08666C27.4708 9.13466 27.5087 9.19172 27.5344 9.25452C27.5602 9.31732 27.5732 9.38461 27.5726 9.45247C27.5721 9.52034 27.5581 9.58742 27.5315 9.64983C27.5048 9.71224 27.466 9.76872 27.4173 9.81599L24.2269 13.0064C24.1309 13.1024 24.0007 13.1564 23.865 13.1565L16.0125 13.1558Z" fill="#02060B"/>
<path d="M27.76 10.3005C27.4011 10.3003 27.0534 10.1756 26.7761 9.94775C26.4987 9.71989 26.309 9.40293 26.2392 9.05087C26.1694 8.69881 26.2238 8.33344 26.3932 8.01701C26.5626 7.70057 26.8364 7.45266 27.1681 7.3155C27.4998 7.17834 27.8687 7.16043 28.2121 7.26482C28.5555 7.3692 28.8521 7.58943 29.0513 7.88797C29.2506 8.18651 29.3401 8.54489 29.3047 8.90206C29.2694 9.25922 29.1112 9.59307 28.8573 9.84671C28.7133 9.99094 28.5423 10.1053 28.354 10.1831C28.1656 10.261 27.9638 10.3009 27.76 10.3005ZM27.76 8.22047C27.6379 8.22051 27.5195 8.26291 27.4251 8.34043C27.3307 8.41795 27.2661 8.52581 27.2423 8.64563C27.2185 8.76544 27.237 8.8898 27.2946 8.99751C27.3522 9.10522 27.4454 9.18963 27.5583 9.23634C27.6711 9.28305 27.7967 9.28919 27.9136 9.2537C28.0305 9.21821 28.1314 9.14329 28.1993 9.0417C28.2671 8.94012 28.2976 8.81815 28.2856 8.69659C28.2736 8.57503 28.2198 8.46139 28.1334 8.37503C28.0844 8.3261 28.0261 8.28734 27.9621 8.26098C27.898 8.23462 27.8293 8.22118 27.76 8.22143V8.22047ZM20.8061 29.312C20.4991 29.312 20.1991 29.221 19.9438 29.0504C19.6886 28.8799 19.4897 28.6375 19.3722 28.3539C19.2548 28.0703 19.224 27.7583 19.2839 27.4572C19.3438 27.1562 19.4916 26.8796 19.7087 26.6626C19.9257 26.4455 20.2023 26.2977 20.5033 26.2378C20.8044 26.1779 21.1164 26.2087 21.4 26.3261C21.6836 26.4436 21.926 26.6425 22.0965 26.8978C22.2671 27.153 22.3581 27.453 22.3581 27.76C22.3576 28.1715 22.1939 28.5659 21.903 28.8569C21.612 29.1478 21.2175 29.3115 20.8061 29.312ZM20.8061 27.232C20.7017 27.232 20.5996 27.263 20.5127 27.321C20.4259 27.379 20.3582 27.4615 20.3183 27.5579C20.2783 27.6544 20.2679 27.7606 20.2882 27.863C20.3086 27.9654 20.3589 28.0595 20.4327 28.1333C20.5066 28.2072 20.6007 28.2575 20.7031 28.2779C20.8055 28.2982 20.9117 28.2878 21.0081 28.2478C21.1046 28.2078 21.1871 28.1402 21.2451 28.0533C21.3031 27.9665 21.3341 27.8644 21.3341 27.76C21.3339 27.62 21.2782 27.4858 21.1793 27.3868C21.0803 27.2878 20.9461 27.2322 20.8061 27.232ZM27.0246 23.0662C26.9574 23.0664 26.8908 23.0532 26.8287 23.0274C26.7666 23.0016 26.7102 22.9638 26.6627 22.9162L23.6227 19.8762H16.0125C15.8767 19.8762 15.7465 19.8222 15.6504 19.7262C15.5544 19.6302 15.5005 19.4999 15.5005 19.3642C15.5005 19.2284 15.5544 19.0981 15.6504 19.0021C15.7465 18.9061 15.8767 18.8522 16.0125 18.8522H23.8342C23.97 18.8521 24.1001 18.906 24.1962 19.0019L27.3866 22.1926C27.4581 22.2642 27.5069 22.3554 27.5266 22.4547C27.5463 22.554 27.5362 22.6569 27.4974 22.7505C27.4587 22.844 27.3931 22.9239 27.309 22.9802C27.2248 23.0365 27.1259 23.0665 27.0246 23.0666V23.0662Z" fill="#02060B"/>
<path d="M27.76 24.8409C27.5048 24.8409 27.2535 24.778 27.0285 24.6577C26.8034 24.5374 26.6115 24.3635 26.4697 24.1513C26.3279 23.9391 26.2406 23.6953 26.2156 23.4413C26.1906 23.1873 26.2286 22.9311 26.3263 22.6953C26.424 22.4596 26.5783 22.2515 26.7756 22.0897C26.9729 21.9278 27.207 21.8171 27.4573 21.7673C27.7076 21.7176 27.9663 21.7303 28.2105 21.8044C28.4547 21.8786 28.6769 22.0118 28.8573 22.1923C29.0744 22.4092 29.2222 22.6858 29.2821 22.9868C29.342 23.2878 29.3113 23.5999 29.1938 23.8835C29.0763 24.167 28.8773 24.4093 28.622 24.5798C28.3667 24.7502 28.0666 24.8411 27.7597 24.8409H27.76ZM27.76 22.7609C27.6379 22.7611 27.5197 22.8035 27.4254 22.8811C27.3311 22.9586 27.2667 23.0665 27.243 23.1862C27.2193 23.306 27.2379 23.4302 27.2955 23.5378C27.3532 23.6454 27.4464 23.7297 27.5592 23.7763C27.672 23.8229 27.7975 23.8289 27.9143 23.7934C28.0311 23.7578 28.1319 23.6829 28.1996 23.5813C28.2674 23.4798 28.2978 23.3579 28.2857 23.2364C28.2736 23.1149 28.2198 23.0014 28.1334 22.9151C28.0843 22.8663 28.026 22.8277 27.962 22.8014C27.8979 22.7751 27.8293 22.7616 27.76 22.7619V22.7609ZM27.76 17.5558C27.453 17.5558 27.153 17.4648 26.8977 17.2942C26.6425 17.1237 26.4436 16.8813 26.3261 16.5977C26.2087 16.3141 26.1779 16.0021 26.2378 15.701C26.2977 15.3999 26.4455 15.1234 26.6626 14.9064C26.8796 14.6893 27.1562 14.5415 27.4572 14.4816C27.7583 14.4217 28.0703 14.4525 28.3539 14.5699C28.6375 14.6874 28.8799 14.8863 29.0504 15.1415C29.221 15.3968 29.312 15.6968 29.312 16.0038C29.3115 16.4152 29.1478 16.8097 28.8569 17.1007C28.5659 17.3916 28.1715 17.5553 27.76 17.5558ZM27.76 15.4758C27.6556 15.4758 27.5535 15.5067 27.4667 15.5648C27.3798 15.6228 27.3121 15.7052 27.2722 15.8017C27.2322 15.8982 27.2218 16.0044 27.2421 16.1068C27.2625 16.2092 27.3128 16.3033 27.3866 16.3771C27.4605 16.451 27.5546 16.5013 27.657 16.5216C27.7594 16.542 27.8656 16.5316 27.9621 16.4916C28.0585 16.4516 28.141 16.384 28.199 16.2971C28.257 16.2103 28.288 16.1082 28.288 16.0038C28.2878 15.8638 28.2321 15.7296 28.1332 15.6306C28.0342 15.5316 27.9 15.476 27.76 15.4758Z" fill="#02060B"/>
<path d="M16.0125 27.712H12.7875C12.6517 27.712 12.5215 27.658 12.4255 27.562C12.3295 27.466 12.2755 27.3358 12.2755 27.2V23.9091C11.5874 23.725 10.9266 23.4511 10.3101 23.0944L7.9824 25.4214C7.93486 25.469 7.87841 25.5067 7.81628 25.5324C7.75416 25.5582 7.68757 25.5714 7.62032 25.5714C7.55308 25.5714 7.48649 25.5582 7.42436 25.5324C7.36224 25.5067 7.30579 25.469 7.25824 25.4214L4.97856 23.1417C4.93101 23.0942 4.89328 23.0377 4.86755 22.9756C4.84181 22.9135 4.82856 22.8469 4.82856 22.7796C4.82856 22.7124 4.84181 22.6458 4.86755 22.5837C4.89328 22.5216 4.93101 22.4651 4.97856 22.4176L7.3056 20.0899C6.94889 19.4734 6.67496 18.8125 6.49088 18.1244H3.2C3.06421 18.1244 2.93398 18.0705 2.83796 17.9745C2.74195 17.8785 2.688 17.7482 2.688 17.6124V14.3875C2.688 14.2517 2.74195 14.1215 2.83796 14.0254C2.93398 13.9294 3.06421 13.8755 3.2 13.8755H6.49088C6.67496 13.1874 6.94889 12.5266 7.3056 11.91L4.97856 9.58236C4.93101 9.53482 4.89328 9.47837 4.86755 9.41625C4.84181 9.35412 4.82856 9.28753 4.82856 9.22028C4.82856 9.15304 4.84181 9.08645 4.86755 9.02432C4.89328 8.9622 4.93101 8.90575 4.97856 8.8582L7.25824 6.57852C7.30579 6.53097 7.36224 6.49324 7.42436 6.46751C7.48649 6.44177 7.55308 6.42852 7.62032 6.42852C7.68757 6.42852 7.75416 6.44177 7.81628 6.46751C7.87841 6.49324 7.93486 6.53097 7.9824 6.57852L10.3101 8.90556C10.9266 8.54885 11.5874 8.27492 12.2755 8.09084V4.79996C12.2755 4.66417 12.3295 4.53394 12.4255 4.43793C12.5215 4.34191 12.6517 4.28796 12.7875 4.28796H16.0125C16.1483 4.28796 16.2785 4.34191 16.3745 4.43793C16.4705 4.53394 16.5245 4.66417 16.5245 4.79996V27.2C16.5245 27.3358 16.4705 27.466 16.3745 27.562C16.2785 27.658 16.1483 27.712 16.0125 27.712ZM13.2995 26.688H15.5005V5.31196H13.2995V8.49404C13.2996 8.61106 13.2596 8.72459 13.1862 8.81571C13.1128 8.90683 13.0104 8.97005 12.896 8.99484C12.0473 9.176 11.2391 9.51125 10.5114 9.98396C10.413 10.0476 10.2958 10.0755 10.1794 10.0632C10.0629 10.0508 9.95419 9.99893 9.87136 9.91612L7.6208 7.66588L6.06496 9.22172L8.3152 11.4723C8.39801 11.5551 8.44991 11.6638 8.46225 11.7803C8.4746 11.8968 8.44664 12.0139 8.38304 12.1123C7.91078 12.8398 7.57586 13.6477 7.39488 14.496C7.37034 14.6106 7.30723 14.7133 7.21609 14.787C7.12494 14.8606 7.01128 14.9008 6.89408 14.9008H3.712V17.1017H6.89408C7.01093 17.1016 7.12431 17.1414 7.21541 17.2145C7.3065 17.2877 7.36983 17.3898 7.39488 17.504C7.57604 18.3526 7.91129 19.1609 8.384 19.8886C8.4476 19.987 8.47556 20.1041 8.46321 20.2206C8.45087 20.3371 8.39896 20.4458 8.31616 20.5286L6.06592 22.7792L7.62176 24.335L9.87232 22.0848C9.95515 22.002 10.0639 21.9501 10.1803 21.9377C10.2968 21.9254 10.414 21.9533 10.5123 22.0169C11.2398 22.4892 12.0477 22.8241 12.896 23.0051C13.0106 23.0296 13.1133 23.0927 13.187 23.1839C13.2607 23.275 13.3008 23.3887 13.3008 23.5059L13.2995 26.688Z" fill="#02060B"/>
<path d="M14.456 21.552C11.3946 21.552 8.90401 19.0614 8.90401 16C8.90401 12.9386 11.3946 10.448 14.456 10.448C15.0384 10.4479 15.6171 10.5397 16.1709 10.72C16.2736 10.7534 16.3632 10.8185 16.4267 10.9059C16.4902 10.9934 16.5245 11.0987 16.5245 11.2067V20.7946C16.5242 20.9024 16.4898 21.0074 16.4263 21.0946C16.3628 21.1817 16.2734 21.2466 16.1709 21.28C15.6171 21.4603 15.0384 21.5521 14.456 21.552ZM14.456 11.472C11.96 11.472 9.92801 13.5034 9.92801 16C9.92801 18.4966 11.9594 20.528 14.456 20.528C14.8077 20.5283 15.1582 20.4876 15.5005 20.4067V11.5933C15.1582 11.5124 14.8077 11.4717 14.456 11.472Z" fill="#02060B"/>
</svg>
