<svg width="66" height="66" viewBox="0 0 66 66" fill="none" xmlns="http://www.w3.org/2000/svg">
<path d="M14.6619 23.3597C18.1061 16.8081 24.7838 12.5916 32.1797 12.2986C39.5756 12.0055 46.566 15.6804 50.5177 21.9388C54.4695 28.1973 54.7822 36.0887 51.3381 42.6402C47.8939 49.1918 41.2162 53.4082 33.8203 53.7013C26.4244 53.9944 19.434 50.3195 15.4823 44.061C11.5305 37.8025 11.2178 29.9112 14.6619 23.3597Z" fill="url(#paint0_linear_7_483)"/>
<path d="M23.1006 31.5545C22.5539 31.5545 22.1106 31.9977 22.1106 32.5444C22.1106 33.0912 22.5539 33.5344 23.1006 33.5344V31.5545ZM43.5996 33.2444C43.9862 32.8578 43.9862 32.231 43.5996 31.8444L37.2996 25.5444C36.913 25.1578 36.2862 25.1578 35.8996 25.5444C35.513 25.931 35.513 26.5578 35.8996 26.9444L41.4996 32.5444L35.8996 38.1444C35.513 38.531 35.513 39.1578 35.8996 39.5444C36.2862 39.931 36.913 39.931 37.2996 39.5444L43.5996 33.2444ZM23.1006 33.5344H42.8996V31.5545H23.1006V33.5344Z" fill="white"/>
<defs>
<linearGradient id="paint0_linear_7_483" x1="53.2278" y1="20.2277" x2="12.7722" y2="45.7722" gradientUnits="userSpaceOnUse">
<stop stop-color="#2575FC"/>
<stop offset="1" stop-color="#0052D3"/>
</linearGradient>
</defs>
</svg>
