<svg width="30" height="30" viewBox="0 0 30 30" fill="none" xmlns="http://www.w3.org/2000/svg">
<g clip-path="url(#clip0_1641_5672)">
<path d="M5.3125 0H24.6875C27.625 0 30 2.4359 30 5.44872V24.5513C30 27.5641 27.625 30 24.6875 30H5.3125C2.375 30 0 27.5641 0 24.5513V5.44872C0 2.4359 2.375 0 5.3125 0Z" fill="#470137"/>
<path d="M15.766 9.42611L12.0596 15.5603L16.0131 22.0662C16.0378 22.1158 16.0501 22.1654 16.0378 22.2149C16.0255 22.2645 15.976 22.2273 15.9019 22.2397H13.0727C12.875 22.2397 12.7391 22.2273 12.6526 22.1034C12.3932 21.5829 12.1214 21.0749 11.862 20.5544C11.6025 20.0463 11.3183 19.5258 11.0218 18.9929C10.7253 18.46 10.4288 17.9272 10.1323 17.3819H10.1076C9.84814 17.9148 9.56395 18.4477 9.27983 18.9805C8.99564 19.5134 8.71151 20.0463 8.4397 20.5667C8.15551 21.0872 7.87139 21.6201 7.5872 22.1282C7.53783 22.2521 7.43895 22.2645 7.30308 22.2645H4.58505C4.53563 22.2645 4.49856 22.2893 4.49856 22.2273C4.48621 22.1777 4.49856 22.1282 4.52327 22.091L8.36558 15.771L4.62211 9.41373C4.58505 9.36417 4.57269 9.31461 4.5974 9.2898C4.62211 9.25267 4.67153 9.24023 4.72095 9.24023H7.52545C7.5872 9.24023 7.64901 9.25267 7.69839 9.26505C7.74783 9.2898 7.78489 9.32698 7.82195 9.37655C8.0567 9.90942 8.32851 10.4423 8.61264 10.9752C8.9092 11.508 9.19333 12.0285 9.5022 12.549C9.7987 13.0694 10.0705 13.5899 10.33 14.1228H10.3546C10.6141 13.5775 10.8859 13.0447 11.1577 12.5242C11.4295 12.0037 11.7137 11.4832 11.9978 10.9628C12.282 10.4423 12.5538 9.90942 12.8256 9.40136C12.838 9.3518 12.8626 9.30223 12.8997 9.27742C12.9491 9.25267 12.9986 9.24023 13.0603 9.25267H15.6671C15.729 9.24023 15.7907 9.27742 15.8031 9.33936C15.8155 9.3518 15.7907 9.40136 15.766 9.42611Z" fill="#FF61F6"/>
<path fill-rule="evenodd" clip-rule="evenodd" d="M18.8176 21.9424C19.6454 22.3265 20.5596 22.5124 21.4738 22.5C22.1162 22.5 22.7464 22.4381 23.3764 22.3265C24.0683 22.2026 24.7478 22.0043 25.3902 21.7317C25.4767 21.6945 25.5138 21.6201 25.5138 21.5334C25.5119 21.5009 25.51 21.4676 25.5081 21.4334C25.4974 21.246 25.4853 21.0348 25.4644 20.8146C25.4632 20.7897 25.4621 20.7649 25.461 20.7403C25.4499 20.4968 25.4397 20.2738 25.4397 20.0711V8.2737V8.24895C25.4273 8.19939 25.3779 8.14982 25.3161 8.1622H22.8081C22.7216 8.1622 22.6846 8.21176 22.6846 8.29851V12.2144C22.616 12.2087 22.5527 12.2056 22.4934 12.2028C22.4246 12.1994 22.3613 12.1963 22.3016 12.1896C22.1904 12.1773 22.1039 12.1773 22.0421 12.1773C20.8191 12.1773 19.7812 12.4127 18.9164 12.896C18.101 13.3421 17.4215 14.0113 16.9521 14.8168C16.4949 15.6099 16.2602 16.5146 16.2725 17.4316C16.2725 18.5593 16.4949 19.5011 16.9521 20.257C17.3968 20.9881 18.0392 21.583 18.8176 21.9424ZM22.6846 14.569V20.0216C22.5363 20.0711 22.4004 20.0959 22.2398 20.0835C22.0792 20.0959 21.9062 20.1083 21.7209 20.1083C21.375 20.1083 21.0291 20.0588 20.6955 19.9472C20.3742 19.8481 20.0901 19.6746 19.8554 19.4515C19.6083 19.2037 19.4229 18.9063 19.2994 18.5716C19.1512 18.1627 19.0771 17.729 19.0894 17.2953C19.0894 16.6509 19.2253 16.118 19.4971 15.7214C19.7689 15.3249 20.1272 15.0151 20.5472 14.8044C20.9796 14.5814 21.4615 14.4822 21.9433 14.4822C22.0792 14.4822 22.2151 14.4946 22.351 14.507C22.4622 14.5194 22.5734 14.5442 22.6846 14.569Z" fill="#FF61F6"/>
</g>
<defs>
<clipPath id="clip0_1641_5672">
<rect width="30" height="30" fill="white"/>
</clipPath>
</defs>
</svg>
