<svg width="41" height="48" viewBox="0 0 41 48" fill="none" xmlns="http://www.w3.org/2000/svg">
<path d="M29.6711 5.72726V41.7273C29.6711 45.7585 32.4191 48 35.3356 48C38.033 48 41.0001 46.0909 41.0001 41.7273V5.99999C41.0001 2.30965 38.3027 0 35.3356 0C32.3685 0 29.6711 2.54829 29.6711 5.72726Z" fill="#F8AB00"/>
<path d="M14.8354 24V41.7272C14.8354 45.7585 17.5834 48 20.4999 48C23.1973 48 26.1644 46.0909 26.1644 41.7272V24.2727C26.1644 20.5824 23.467 18.2727 20.4999 18.2727C17.5328 18.2727 14.8354 20.821 14.8354 24Z" fill="#E37300"/>
<path d="M11.3289 42.2727C11.3289 45.4346 8.79174 48 5.66447 48C2.53721 48 0 45.4346 0 42.2727C0 39.1107 2.53721 36.5454 5.66447 36.5454C8.79174 36.5454 11.3289 39.1107 11.3289 42.2727Z" fill="#E37300"/>
</svg>
