<svg width="40" height="40" viewBox="0 0 40 40" fill="none" xmlns="http://www.w3.org/2000/svg">
<path d="M14.375 5.625H18.75V6.875H14.375V5.625ZM14.375 33.75C14.375 33.3792 14.485 33.0166 14.691 32.7083C14.897 32.4 15.1899 32.1596 15.5325 32.0177C15.8751 31.8758 16.2521 31.8387 16.6158 31.911C16.9795 31.9834 17.3136 32.162 17.5758 32.4242C17.838 32.6864 18.0166 33.0205 18.089 33.3842C18.1613 33.7479 18.1242 34.1249 17.9823 34.4675C17.8404 34.8101 17.6 35.103 17.2917 35.309C16.9834 35.515 16.6208 35.625 16.25 35.625C15.7527 35.625 15.2758 35.4275 14.9242 35.0758C14.5725 34.7242 14.375 34.2473 14.375 33.75ZM15.625 33.75C15.625 33.8736 15.6617 33.9944 15.7303 34.0972C15.799 34.2 15.8966 34.2801 16.0108 34.3274C16.125 34.3747 16.2507 34.3871 16.3719 34.363C16.4932 34.3389 16.6045 34.2794 16.6919 34.1919C16.7794 34.1045 16.8389 33.9932 16.863 33.8719C16.8871 33.7507 16.8747 33.625 16.8274 33.5108C16.7801 33.3966 16.7 33.299 16.5972 33.2303C16.4945 33.1617 16.3736 33.125 16.25 33.125C16.0842 33.125 15.9253 33.1908 15.8081 33.3081C15.6908 33.4253 15.625 33.5842 15.625 33.75ZM23.125 11.875H30.625V10.625H23.125V11.875ZM23.125 15.625H30.625V14.375H23.125V15.625ZM23.125 19.375H30.625V18.125H23.125V19.375ZM23.125 23.125H30.625V21.875H23.125V23.125ZM33.75 7.5V26.25C33.75 26.7473 33.5525 27.2242 33.2008 27.5758C32.8492 27.9275 32.3723 28.125 31.875 28.125H21.875C21.3777 28.125 20.9008 27.9275 20.5492 27.5758C20.1975 27.2242 20 26.7473 20 26.25V9.375H7.5V29.375H25.625C25.7908 29.375 25.9497 29.4408 26.0669 29.5581C26.1842 29.6753 26.25 29.8342 26.25 30V35C26.25 35.8288 25.9208 36.6237 25.3347 37.2097C24.7487 37.7958 23.9538 38.125 23.125 38.125H9.375C8.5462 38.125 7.75134 37.7958 7.16529 37.2097C6.57924 36.6237 6.25 35.8288 6.25 35V6.25C6.25 5.4212 6.57924 4.62634 7.16529 4.04029C7.75134 3.45424 8.5462 3.125 9.375 3.125H23.125C23.8454 3.12485 24.5437 3.37361 25.1018 3.82918C25.6599 4.28475 26.0434 4.91915 26.1875 5.625H31.875C32.3723 5.625 32.8492 5.82254 33.2008 6.17417C33.5525 6.52581 33.75 7.00272 33.75 7.5ZM25 30.625H7.5V35C7.5 35.4973 7.69754 35.9742 8.04917 36.3258C8.40081 36.6775 8.87772 36.875 9.375 36.875H23.125C23.6223 36.875 24.0992 36.6775 24.4508 36.3258C24.8025 35.9742 25 35.4973 25 35V30.625ZM20 8.125V7.5C20 7.00272 20.1975 6.52581 20.5492 6.17417C20.9008 5.82254 21.3777 5.625 21.875 5.625H24.8875C24.7586 5.26028 24.52 4.94437 24.2044 4.72059C23.8889 4.4968 23.5118 4.37609 23.125 4.375H9.375C8.87772 4.375 8.40081 4.57254 8.04917 4.92417C7.69754 5.27581 7.5 5.75272 7.5 6.25V8.125H20ZM32.5 7.5C32.5 7.33424 32.4342 7.17527 32.3169 7.05806C32.1997 6.94085 32.0408 6.875 31.875 6.875H21.875C21.7092 6.875 21.5503 6.94085 21.4331 7.05806C21.3158 7.17527 21.25 7.33424 21.25 7.5V26.25C21.25 26.4158 21.3158 26.5747 21.4331 26.6919C21.5503 26.8092 21.7092 26.875 21.875 26.875H31.875C32.0408 26.875 32.1997 26.8092 32.3169 26.6919C32.4342 26.5747 32.5 26.4158 32.5 26.25V7.5Z" fill="#02060B"/>
</svg>
