<svg width="30" height="30" viewBox="0 0 30 30" fill="none" xmlns="http://www.w3.org/2000/svg">
<g clip-path="url(#clip0_1641_5726)">
<path d="M27.4774 23.337C27.0435 24.3535 26.5066 25.3219 25.8753 26.2269C25.2885 27.156 24.6027 28.0174 23.8302 28.7957C23.1177 29.4939 22.175 29.9022 21.1828 29.9425C20.3395 29.9035 19.5109 29.7051 18.74 29.3577C17.9095 29.0005 17.0181 28.8096 16.1154 28.7957C15.1853 28.8149 14.2674 29.0134 13.4112 29.3806C12.6737 29.7145 11.8868 29.9237 11.082 29.9999C10.5745 29.9913 10.0738 29.8803 9.60943 29.6736C9.14503 29.4668 8.7263 29.1683 8.37788 28.7957C7.57313 28.0069 6.85332 27.1343 6.23047 26.1925C5.25784 24.7821 4.49245 23.237 3.95807 21.6054C3.34436 19.8631 3.02183 18.0301 3.00367 16.1811C2.95439 14.3658 3.40261 12.5721 4.29893 10.9976C4.93248 9.82659 5.86146 8.84544 6.99172 8.15355C8.09883 7.4864 9.36096 7.12639 10.6503 7.10997C11.6234 7.17101 12.5797 7.39582 13.4794 7.77511C14.2034 8.10006 14.9679 8.32383 15.7518 8.44024C16.604 8.26107 17.4372 7.99994 18.2401 7.66043C19.3206 7.21578 20.4826 7.00858 21.6487 7.05263C22.7505 7.08395 23.8306 7.37009 24.8056 7.889C25.7807 8.40792 26.6248 9.14577 27.2728 10.0457C26.2446 10.5935 25.3888 11.421 24.8024 12.4343C24.2161 13.4477 23.9226 14.6066 23.9551 15.7797C23.9435 16.6765 24.1208 17.5657 24.4754 18.3881C24.8299 19.2106 25.3536 19.9476 26.0117 20.5503C26.5918 21.1172 27.2644 21.5789 28 21.915C27.8296 22.3967 27.6591 22.8554 27.4774 23.3026V23.337ZM21.7509 0.584741C21.7304 2.13618 21.1531 3.62747 20.1262 4.78199C19.6066 5.50434 18.9223 6.08984 18.1313 6.48905C17.3403 6.88825 16.4657 7.08942 15.5814 7.07557C15.5694 6.88845 15.5694 6.70075 15.5814 6.51364C15.6299 4.94062 16.2391 3.43809 17.297 2.28199C17.8855 1.61468 18.6002 1.07274 19.399 0.687951C20.1459 0.302713 20.9604 0.0689504 21.7964 -0.00012207C21.8073 0.1985 21.8073 0.397586 21.7964 0.596208L21.7509 0.584741Z" fill="#02060B"/>
</g>
<defs>
<clipPath id="clip0_1641_5726">
<rect width="30" height="30" fill="white"/>
</clipPath>
</defs>
</svg>
