<svg width="40" height="40" viewBox="0 0 40 40" fill="none" xmlns="http://www.w3.org/2000/svg">
<path d="M37.1429 28.0001H35.4286V6.85721C35.4286 6.22693 34.9161 5.71436 34.2858 5.71436H5.71436C5.08407 5.71436 4.5715 6.22693 4.5715 6.85721V28.0001H2.85721C2.22693 28.0001 1.71436 28.5126 1.71436 29.1429C1.71436 31.9784 4.02121 34.2858 6.85721 34.2858H33.1429C35.9789 34.2858 38.2858 31.9784 38.2858 29.1429C38.2858 28.5126 37.7732 28.0001 37.1429 28.0001ZM5.71436 6.85721L34.2858 6.85664V28.0001H5.71436V6.85721ZM37.1429 29.1429C37.1429 31.3486 35.3486 33.1429 33.1429 33.1429H6.85721C4.6515 33.1429 2.85721 31.3486 2.85721 29.1429H34.8572L34.8612 29.1424L37.1429 29.1429Z" fill="black"/>
<path d="M25.7144 14.2859H24.0001V13.1431C24.0001 10.9374 22.2058 9.14307 20.0001 9.14307C17.7944 9.14307 16.0001 10.9374 16.0001 13.1431V14.2859H14.2858C14.1342 14.2859 13.9889 14.3461 13.8817 14.4533C13.7746 14.5605 13.7144 14.7058 13.7144 14.8574V24.5716C13.7144 25.2019 14.2269 25.7145 14.8572 25.7145H25.1429C25.7732 25.7145 26.2858 25.2019 26.2858 24.5716V14.8574C26.2858 14.7058 26.2256 14.5605 26.1184 14.4533C26.0113 14.3461 25.8659 14.2859 25.7144 14.2859ZM17.1429 13.1431C17.1429 11.5676 18.4246 10.2859 20.0001 10.2859C21.5755 10.2859 22.8572 11.5676 22.8572 13.1431V14.2859H17.1429V13.1431ZM25.1429 24.5716H14.8572V15.4288H16.0001V17.1431C16.0001 17.2946 16.0603 17.44 16.1674 17.5471C16.2746 17.6543 16.4199 17.7145 16.5715 17.7145C16.7231 17.7145 16.8684 17.6543 16.9756 17.5471C17.0827 17.44 17.1429 17.2946 17.1429 17.1431V15.4288H22.8572V17.1431C22.8572 17.2946 22.9174 17.44 23.0246 17.5471C23.1317 17.6543 23.2771 17.7145 23.4286 17.7145C23.5802 17.7145 23.7255 17.6543 23.8327 17.5471C23.9399 17.44 24.0001 17.2946 24.0001 17.1431V15.4288H25.1429V24.5716Z" fill="black"/>
</svg>
