<svg width="30" height="30" viewBox="0 0 30 30" fill="none" xmlns="http://www.w3.org/2000/svg">
<g clip-path="url(#clip0_1641_5676)">
<path fill-rule="evenodd" clip-rule="evenodd" d="M30 4.28571C30 1.91786 28.0821 0 25.7143 0H4.28571C1.91786 0 0 1.91786 0 4.28571V25.7143C0 28.0821 1.91786 30 4.28571 30H25.7143C28.0821 30 30 28.0821 30 25.7143V4.28571Z" fill="#161616"/>
<path fill-rule="evenodd" clip-rule="evenodd" d="M18.7554 11.2554C20.8286 11.2554 22.5107 12.9376 22.5107 15.0108C22.5107 17.084 20.8286 18.7661 18.7554 18.7661C16.6821 18.7661 15 17.084 15 15.0108C15 12.9376 16.6821 11.2554 18.7554 11.2554Z" fill="#0CC2FF"/>
<path fill-rule="evenodd" clip-rule="evenodd" d="M22.4999 7.5C22.4999 5.42679 20.8231 3.75 18.7499 3.75H11.2392C9.16598 3.75 7.4892 5.42679 7.4892 7.5C7.4892 9.57321 9.16598 11.25 11.2392 11.25H18.7499C20.8231 11.25 22.4999 9.57321 22.4999 7.5Z" fill="#FF7568"/>
<path fill-rule="evenodd" clip-rule="evenodd" d="M14.9946 11.2554H11.2392C10.2428 11.2554 9.2892 11.6519 8.58741 12.3536C7.88563 13.0554 7.4892 14.009 7.4892 15.0054C7.4892 16.0019 7.88563 16.9554 8.58741 17.6572C9.2892 18.359 10.2428 18.7554 11.2392 18.7554H14.9946V11.2554Z" fill="#AF5BFF"/>
<path fill-rule="evenodd" clip-rule="evenodd" d="M14.9946 3.75H11.2392C10.2428 3.75 9.2892 4.14643 8.58741 4.84821C7.88563 5.55 7.4892 6.50357 7.4892 7.5C7.4892 8.49643 7.88563 9.45 8.58741 10.1518C9.2892 10.8536 10.2428 11.25 11.2392 11.25H14.9946V3.75Z" fill="#FF4611"/>
<path fill-rule="evenodd" clip-rule="evenodd" d="M15.0001 18.7446H11.2448C10.2484 18.7446 9.29478 19.141 8.593 19.8428C7.89121 20.5446 7.49478 21.4981 7.49478 22.4946C7.49478 23.491 7.89121 24.4446 8.593 25.1464C9.29478 25.8481 10.2484 26.2446 11.2448 26.2446C12.2412 26.2446 13.1948 25.8481 13.8966 25.1464C14.5984 24.4446 14.9948 23.491 14.9948 22.4946V18.7446H15.0001Z" fill="#00E681"/>
</g>
<defs>
<clipPath id="clip0_1641_5676">
<rect width="30" height="30" fill="white"/>
</clipPath>
</defs>
</svg>
