<svg width="70" height="70" viewBox="0 0 70 70" fill="none" xmlns="http://www.w3.org/2000/svg">
<path d="M63.1482 39.8866H51.6384V5.8502C51.6384 5.38065 51.257 5 50.7866 5H15.7939C15.3235 5 14.9421 5.38065 14.9421 5.8502V12.927H7.85183C7.38138 12.927 7 13.3077 7 13.7772V58.8133C7 59.2829 7.38138 59.6635 7.85183 59.6635H21.6888V64.1498C21.6888 64.6194 22.0702 65 22.5406 65H63.1482C63.6186 65 64 64.6194 64 64.1498V40.7368C64 40.2672 63.6186 39.8866 63.1482 39.8866ZM16.6457 6.7004H49.9347V39.8866H43.6962V21.7042H43.6941C43.6941 21.483 43.6095 21.2656 43.4466 21.103L35.5044 13.1759C35.3416 13.0134 35.1237 12.929 34.9021 12.9289V12.9268H16.6457V6.7004ZM40.7879 20.854H35.7541V15.8296L40.7879 20.854ZM21.6888 40.7368V57.9631H8.70366V14.6274H34.0504V21.7043C34.0504 22.1738 34.4318 22.5545 34.9023 22.5545H41.9926V39.8867H22.5406C22.0702 39.8867 21.6888 40.2674 21.6888 40.7369V40.7368ZM62.2963 63.2996H23.3925V41.587H62.2963V63.2996ZM25.8917 58.7041C27.0524 58.7041 27.9967 59.6466 27.9967 60.8051C27.9967 61.2747 28.3781 61.6553 28.8486 61.6553H56.8403C57.3107 61.6553 57.6921 61.2747 57.6921 60.8051C57.6921 59.6466 58.6364 58.7041 59.7971 58.7041C60.2675 58.7041 60.6489 58.3235 60.6489 57.8539V47.0327C60.6489 46.5631 60.2675 46.1825 59.7971 46.1825C58.6364 46.1825 57.6921 45.24 57.6921 44.0815C57.6921 43.6119 57.3107 43.2313 56.8403 43.2313H28.8486C28.3781 43.2313 27.9967 43.6119 27.9967 44.0815C27.9967 45.2401 27.0524 46.1825 25.8917 46.1825C25.4213 46.1825 25.0399 46.5631 25.0399 47.0327V57.8539C25.0399 58.3235 25.4213 58.7041 25.8917 58.7041ZM26.7436 47.787C28.1609 47.4626 29.2792 46.3463 29.6044 44.9317H56.0846C56.4097 46.3463 57.5279 47.4626 58.9454 47.787V57.0996C57.528 57.424 56.4097 58.5402 56.0846 59.9549H29.6044C29.2792 58.5403 28.161 57.4241 26.7436 57.0996V47.787ZM42.8445 59.2043C46.5739 59.2043 49.6082 56.1759 49.6082 52.4534C49.6082 48.731 46.5739 45.7026 42.8445 45.7026C39.115 45.7026 36.0807 48.731 36.0807 52.4534C36.0807 56.1759 39.115 59.2043 42.8445 59.2043ZM42.8445 47.403C45.6347 47.403 47.9046 49.6685 47.9046 52.4534C47.9046 55.2383 45.6347 57.5039 42.8445 57.5039C40.0542 57.5039 37.7844 55.2383 37.7844 52.4534C37.7844 49.6685 40.0542 47.403 42.8445 47.403ZM43.3038 54.1064C43.4021 53.9758 43.4352 53.8108 43.3926 53.6652C43.3783 53.6163 43.3557 53.5702 43.3249 53.5274C43.1873 53.3356 43.0448 53.2871 42.6399 53.187C42.2494 53.0906 41.7636 52.9705 41.3102 52.5663C40.6543 51.9811 40.4325 51.0755 40.7448 50.2589C40.9673 49.6777 41.4237 49.2392 41.9926 49.0242V48.8544C41.9926 48.3849 42.374 48.0042 42.8445 48.0042C43.3149 48.0042 43.6963 48.3849 43.6963 48.8544V49.0656C44.2312 49.2998 44.6696 49.7375 44.8876 50.2979C45.058 50.7357 44.8407 51.2283 44.4021 51.3983C43.9641 51.5686 43.4701 51.3513 43.2997 50.9137C43.2213 50.7126 43.0234 50.5774 42.8066 50.5774C42.4817 50.5774 42.3695 50.7789 42.3364 50.8656C42.3006 50.959 42.2674 51.1395 42.4454 51.2985C42.5769 51.4157 42.7516 51.463 43.0492 51.5364C43.5327 51.6559 44.195 51.8196 44.71 52.5374C44.8532 52.737 44.9603 52.9565 45.0281 53.1897C45.2199 53.8455 45.0849 54.5698 44.6668 55.1264C44.4156 55.4607 44.0803 55.7113 43.6961 55.8629V56.0522C43.6961 56.5218 43.3147 56.9024 42.8442 56.9024C42.3738 56.9024 41.9924 56.5218 41.9924 56.0522V55.8843C41.386 55.6611 40.8889 55.1933 40.6363 54.5687C40.4603 54.1333 40.6711 53.6379 41.1073 53.4621C41.5436 53.2868 42.0401 53.497 42.2161 53.9324C42.3135 54.1735 42.5452 54.3293 42.8064 54.3293C43.0788 54.3293 43.2272 54.208 43.3036 54.1064H43.3038ZM28.4987 54.0228C28.4987 53.5532 28.8801 53.1726 29.3505 53.1726H33.8152C34.2857 53.1726 34.667 53.5532 34.667 54.0228C34.667 54.4923 34.2857 54.873 33.8152 54.873H29.3505C28.8801 54.873 28.4987 54.4923 28.4987 54.0228ZM28.4987 50.8636C28.4987 50.394 28.8801 50.0134 29.3505 50.0134H33.8152C34.2857 50.0134 34.667 50.394 34.667 50.8636C34.667 51.3331 34.2857 51.7138 33.8152 51.7138H29.3505C28.8801 51.7138 28.4987 51.3331 28.4987 50.8636ZM51.0219 54.0228C51.0219 53.5532 51.4033 53.1726 51.8737 53.1726H56.3384C56.8089 53.1726 57.1902 53.5532 57.1902 54.0228C57.1902 54.4923 56.8089 54.873 56.3384 54.873H51.8737C51.4033 54.873 51.0219 54.4923 51.0219 54.0228ZM51.0219 50.8636C51.0219 50.394 51.4033 50.0134 51.8737 50.0134H56.3384C56.8089 50.0134 57.1902 50.394 57.1902 50.8636C57.1902 51.3331 56.8089 51.7138 56.3384 51.7138H51.8737C51.4033 51.7138 51.0219 51.3331 51.0219 50.8636ZM12.4635 25.926H19.172C19.6425 25.926 20.0239 25.5454 20.0239 25.0758V18.3802C20.0239 17.9107 19.6425 17.53 19.172 17.53H12.4635C11.9931 17.53 11.6117 17.9107 11.6117 18.3802V25.0758C11.6117 25.5454 11.9931 25.926 12.4635 25.926ZM13.3153 19.2304H18.3202V24.2256H13.3153V19.2304ZM11.6011 31.4647C11.6011 30.9952 11.9825 30.6145 12.4529 30.6145H39.5769C40.0473 30.6145 40.4287 30.9952 40.4287 31.4647C40.4287 31.9343 40.0473 32.3149 39.5769 32.3149H12.4529C11.9825 32.3149 11.6011 31.9343 11.6011 31.4647ZM40.4287 36.7048C40.4287 37.1743 40.0473 37.555 39.5769 37.555H12.4529C11.9825 37.555 11.6011 37.1743 11.6011 36.7048C11.6011 36.2352 11.9825 35.8546 12.4529 35.8546H39.5769C40.0473 35.8546 40.4287 36.2352 40.4287 36.7048ZM19.5984 41.9448C19.5984 42.4144 19.2171 42.795 18.7466 42.795H12.4529C11.9825 42.795 11.6011 42.4144 11.6011 41.9448C11.6011 41.4753 11.9825 41.0946 12.4529 41.0946H18.7466C19.2171 41.0946 19.5984 41.4753 19.5984 41.9448ZM19.5984 47.1849C19.5984 47.6544 19.2171 48.0351 18.7466 48.0351H12.4529C11.9825 48.0351 11.6011 47.6544 11.6011 47.1849C11.6011 46.7153 11.9825 46.3347 12.4529 46.3347H18.7466C19.2171 46.3347 19.5984 46.7153 19.5984 47.1849ZM19.5984 52.4249C19.5984 52.8945 19.2171 53.2751 18.7466 53.2751H12.4529C11.9825 53.2751 11.6011 52.8945 11.6011 52.4249C11.6011 51.9553 11.9825 51.5747 12.4529 51.5747H18.7466C19.2171 51.5747 19.5984 51.9553 19.5984 52.4249Z" fill="url(#paint0_linear_1746_6481)"/>
<defs>
<linearGradient id="paint0_linear_1746_6481" x1="64" y1="35" x2="7" y2="35" gradientUnits="userSpaceOnUse">
<stop stop-color="#2058FF"/>
<stop offset="1" stop-color="#004BC2"/>
</linearGradient>
</defs>
</svg>
