<svg width="40" height="40" viewBox="0 0 40 40" fill="none" xmlns="http://www.w3.org/2000/svg">
<path d="M37.7501 23.1432H30.3608V1.25C30.3608 0.947969 30.1159 0.703125 29.8139 0.703125H7.34858C7.04655 0.703125 6.80171 0.947969 6.80171 1.25V5.80203H2.24976C1.94772 5.80203 1.70288 6.04688 1.70288 6.34891V35.3174C1.70288 35.6195 1.94772 35.8643 2.24976 35.8643H11.1331V38.75C11.1331 39.052 11.378 39.2969 11.68 39.2969H37.7501C38.0521 39.2969 38.2969 39.052 38.2969 38.75V23.6901C38.2969 23.388 38.0521 23.1432 37.7501 23.1432ZM7.89546 1.79688H29.267V23.1432H25.2619V11.4477H25.2605C25.2605 11.3055 25.2062 11.1656 25.1016 11.061L20.0027 5.96211C19.8982 5.85758 19.7584 5.80328 19.6161 5.8032V5.80188H7.89546V1.79688ZM23.3948 10.9009H20.163V7.66906L23.3948 10.9009ZM11.1331 23.6901V34.7705H2.79663V6.89578H19.0693V11.4478C19.0693 11.7498 19.3141 11.9947 19.6162 11.9947H24.1682V23.1433H11.68C11.378 23.1433 11.1331 23.3881 11.1331 23.6902V23.6901ZM37.2032 38.2031H12.2269V24.237H37.2032V38.2031ZM13.8314 35.2472C14.5766 35.2472 15.1828 35.8534 15.1828 36.5986C15.1828 36.9006 15.4276 37.1455 15.7297 37.1455H33.7004C34.0024 37.1455 34.2473 36.9006 34.2473 36.5986C34.2473 35.8534 34.8535 35.2472 35.5987 35.2472C35.9007 35.2472 36.1455 35.0023 36.1455 34.7003V27.7398C36.1455 27.4377 35.9007 27.1929 35.5987 27.1929C34.8535 27.1929 34.2473 26.5866 34.2473 25.8415C34.2473 25.5395 34.0024 25.2946 33.7004 25.2946H15.7297C15.4276 25.2946 15.1828 25.5395 15.1828 25.8415C15.1828 26.5867 14.5766 27.1929 13.8314 27.1929C13.5294 27.1929 13.2845 27.4377 13.2845 27.7398V34.7003C13.2845 35.0023 13.5294 35.2472 13.8314 35.2472ZM14.3783 28.225C15.2882 28.0163 16.0062 27.2983 16.2149 26.3884H33.2152C33.424 27.2983 34.1419 28.0163 35.0519 28.225V34.2151C34.1419 34.4238 33.424 35.1417 33.2152 36.0517H16.2149C16.0062 35.1418 15.2883 34.4238 14.3783 34.2151V28.225ZM24.7151 35.5689C27.1094 35.5689 29.0574 33.6209 29.0574 31.2266C29.0574 28.8322 27.1094 26.8842 24.7151 26.8842C22.3208 26.8842 20.3727 28.8322 20.3727 31.2266C20.3727 33.6209 22.3208 35.5689 24.7151 35.5689ZM24.7151 27.978C26.5064 27.978 27.9637 29.4352 27.9637 31.2266C27.9637 33.0179 26.5064 34.4752 24.7151 34.4752C22.9237 34.4752 21.4665 33.0179 21.4665 31.2266C21.4665 29.4352 22.9237 27.978 24.7151 27.978ZM25.01 32.2898C25.073 32.2058 25.0943 32.0997 25.0669 32.006C25.0578 31.9745 25.0433 31.9449 25.0235 31.9173C24.9351 31.794 24.8437 31.7628 24.5837 31.6984C24.333 31.6364 24.0212 31.5591 23.7301 31.2991C23.309 30.9227 23.1666 30.3402 23.3671 29.815C23.5099 29.4411 23.803 29.1591 24.1682 29.0208V28.9116C24.1682 28.6095 24.413 28.3647 24.7151 28.3647C25.0171 28.3647 25.2619 28.6095 25.2619 28.9116V29.0474C25.6054 29.198 25.8868 29.4796 26.0268 29.8401C26.1362 30.1216 25.9966 30.4385 25.7151 30.5479C25.4339 30.6574 25.1167 30.5177 25.0073 30.2362C24.957 30.1068 24.8299 30.0198 24.6908 30.0198C24.4822 30.0198 24.4101 30.1495 24.3889 30.2052C24.3659 30.2653 24.3446 30.3814 24.4589 30.4837C24.5433 30.5591 24.6555 30.5895 24.8465 30.6367C25.1569 30.7136 25.5821 30.8188 25.9127 31.2805C26.0047 31.409 26.0734 31.5502 26.1169 31.7002C26.2401 32.122 26.1534 32.5879 25.885 32.9459C25.7237 33.1609 25.5085 33.3221 25.2618 33.4196V33.5414C25.2618 33.8434 25.0169 34.0883 24.7149 34.0883C24.4129 34.0883 24.168 33.8434 24.168 33.5414V33.4334C23.7787 33.2898 23.4596 32.9889 23.2974 32.5872C23.1844 32.3071 23.3198 31.9884 23.5998 31.8754C23.8799 31.7626 24.1987 31.8978 24.3116 32.1779C24.3742 32.333 24.523 32.4332 24.6906 32.4332C24.8655 32.4332 24.9608 32.3552 25.0098 32.2898H25.01ZM15.5051 32.236C15.5051 31.934 15.7499 31.6891 16.0519 31.6891H18.9183C19.2203 31.6891 19.4651 31.934 19.4651 32.236C19.4651 32.538 19.2203 32.7829 18.9183 32.7829H16.0519C15.7499 32.7829 15.5051 32.538 15.5051 32.236ZM15.5051 30.2039C15.5051 29.9019 15.7499 29.657 16.0519 29.657H18.9183C19.2203 29.657 19.4651 29.9019 19.4651 30.2039C19.4651 30.5059 19.2203 30.7508 18.9183 30.7508H16.0519C15.7499 30.7508 15.5051 30.5059 15.5051 30.2039ZM29.965 32.236C29.965 31.934 30.2098 31.6891 30.5119 31.6891H33.3782C33.6802 31.6891 33.9251 31.934 33.9251 32.236C33.9251 32.538 33.6802 32.7829 33.3782 32.7829H30.5119C30.2098 32.7829 29.965 32.538 29.965 32.236ZM29.965 30.2039C29.965 29.9019 30.2098 29.657 30.5119 29.657H33.3782C33.6802 29.657 33.9251 29.9019 33.9251 30.2039C33.9251 30.5059 33.6802 30.7508 33.3782 30.7508H30.5119C30.2098 30.7508 29.965 30.5059 29.965 30.2039ZM5.21046 14.1634H9.51733C9.81936 14.1634 10.0642 13.9185 10.0642 13.6165V9.30969C10.0642 9.00766 9.81936 8.76281 9.51733 8.76281H5.21046C4.90843 8.76281 4.66358 9.00766 4.66358 9.30969V13.6165C4.66358 13.9185 4.90843 14.1634 5.21046 14.1634ZM5.75733 9.85656H8.97046V13.0696H5.75733V9.85656ZM4.65679 17.726C4.65679 17.424 4.90163 17.1791 5.20366 17.1791H22.6173C22.9193 17.1791 23.1641 17.424 23.1641 17.726C23.1641 18.028 22.9193 18.2729 22.6173 18.2729H5.20366C4.90163 18.2729 4.65679 18.028 4.65679 17.726ZM23.1641 21.0966C23.1641 21.3986 22.9193 21.6434 22.6173 21.6434H5.20366C4.90163 21.6434 4.65679 21.3986 4.65679 21.0966C4.65679 20.7945 4.90163 20.5497 5.20366 20.5497H22.6173C22.9193 20.5497 23.1641 20.7945 23.1641 21.0966ZM9.79108 24.4671C9.79108 24.7691 9.54624 25.014 9.24421 25.014H5.20366C4.90163 25.014 4.65679 24.7691 4.65679 24.4671C4.65679 24.1651 4.90163 23.9202 5.20366 23.9202H9.24421C9.54624 23.9202 9.79108 24.1651 9.79108 24.4671ZM9.79108 27.8377C9.79108 28.1397 9.54624 28.3845 9.24421 28.3845H5.20366C4.90163 28.3845 4.65679 28.1397 4.65679 27.8377C4.65679 27.5356 4.90163 27.2908 5.20366 27.2908H9.24421C9.54624 27.2908 9.79108 27.5356 9.79108 27.8377ZM9.79108 31.2082C9.79108 31.5102 9.54624 31.7551 9.24421 31.7551H5.20366C4.90163 31.7551 4.65679 31.5102 4.65679 31.2082C4.65679 30.9062 4.90163 30.6613 5.20366 30.6613H9.24421C9.54624 30.6613 9.79108 30.9062 9.79108 31.2082Z" fill="black"/>
</svg>
