<svg width="47" height="47" viewBox="0 0 47 47" fill="none" xmlns="http://www.w3.org/2000/svg">
<circle cx="23.5" cy="23.5" r="23" stroke="url(#paint0_linear_768_1932)"/>
<path d="M24.4394 36.1261C21.2587 36.1261 20.8838 36.1093 19.6425 36.055C18.6746 36.0232 17.7192 35.8264 16.8174 35.4732C16.0457 35.1729 15.3449 34.7154 14.7595 34.1297C14.1741 33.5441 13.7169 32.8432 13.4169 32.0714C13.0772 31.1663 12.894 30.2101 12.8751 29.2437C12.8027 28.005 12.8027 27.599 12.8027 24.4429C12.8027 21.2531 12.8195 20.8807 12.8751 19.646C12.8945 18.6808 13.0776 17.7259 13.4169 16.8221C13.7166 16.0494 14.1741 15.3476 14.7603 14.7616C15.3465 14.1757 16.0484 13.7184 16.8213 13.419C17.7246 13.0779 18.6797 12.8943 19.6451 12.876C20.8799 12.8062 21.2859 12.8062 24.4394 12.8062C27.646 12.8062 28.0145 12.823 29.2364 12.876C30.2035 12.8941 31.1629 13.0777 32.068 13.419C32.8406 13.7187 33.5424 14.1761 34.1285 14.762C34.7147 15.348 35.1723 16.0496 35.4723 16.8221C35.8176 17.7401 36.0025 18.7098 36.0167 19.6886C36.0891 20.9273 36.0891 21.332 36.0891 24.4868C36.0891 27.6417 36.071 28.0554 36.0167 29.2799C35.9974 30.2472 35.8137 31.2043 35.4736 32.1102C35.1729 32.8825 34.7148 33.5838 34.1285 34.1697C33.5422 34.7555 32.8405 35.2131 32.068 35.5133C31.1629 35.852 30.2074 36.0356 29.2415 36.055C28.0067 36.1261 27.602 36.1261 24.4394 36.1261ZM24.3955 14.8529C21.2329 14.8529 20.9045 14.8684 19.6697 14.924C18.9322 14.9337 18.2019 15.0697 17.5104 15.3261C17.0061 15.5195 16.5478 15.8163 16.1652 16.1976C15.7827 16.5788 15.4842 17.036 15.2891 17.5397C15.0305 18.2379 14.8948 18.9762 14.887 19.7209C14.8185 20.9738 14.8185 21.3022 14.8185 24.4429C14.8185 27.546 14.8301 27.9222 14.887 29.1674C14.8986 29.9044 15.0344 30.6349 15.2891 31.3266C15.6848 32.3442 16.4916 33.1484 17.5117 33.5389C18.2023 33.797 18.9325 33.933 19.6697 33.941C20.9213 34.0134 21.251 34.0134 24.3955 34.0134C27.5671 34.0134 27.8955 33.9979 29.12 33.941C29.8575 33.9321 30.588 33.7961 31.2792 33.5389C31.7809 33.3441 32.2365 33.047 32.6172 32.6666C32.9978 32.2862 33.2951 31.8308 33.4902 31.3292C33.7488 30.631 33.8846 29.8914 33.8923 29.1467H33.9066C33.9622 27.9106 33.9622 27.5809 33.9622 24.4222C33.9622 21.2635 33.9479 20.9312 33.8923 19.6964C33.8806 18.96 33.7447 18.2308 33.4902 17.5397C33.2956 17.0374 32.9985 16.5812 32.6178 16.2001C32.2371 15.819 31.7813 15.5214 31.2792 15.3261C30.5881 15.0684 29.8576 14.9324 29.12 14.924C27.8697 14.8529 27.5426 14.8529 24.3955 14.8529ZM24.4394 30.4151C23.2571 30.4158 22.1011 30.066 21.1177 29.4097C20.1342 28.7534 19.3675 27.8202 18.9144 26.7281C18.4614 25.636 18.3424 24.4341 18.5725 23.2744C18.8026 22.1147 19.3714 21.0493 20.2071 20.2129C21.0428 19.3765 22.1077 18.8067 23.2672 18.5756C24.4267 18.3445 25.6287 18.4625 26.7212 18.9146C27.8137 19.3667 28.7476 20.1326 29.4047 21.1155C30.0618 22.0984 30.4127 23.2541 30.413 24.4364C30.4109 26.0205 29.7811 27.5392 28.6614 28.6599C27.5417 29.7805 26.0236 30.4117 24.4394 30.4151ZM24.4394 20.5549C23.6723 20.5549 22.9223 20.7824 22.2844 21.2086C21.6466 21.6348 21.1494 22.2406 20.8558 22.9494C20.5622 23.6582 20.4854 24.4381 20.6351 25.1905C20.7847 25.943 21.1542 26.6341 21.6966 27.1766C22.2391 27.7191 22.9303 28.0885 23.6827 28.2382C24.4351 28.3879 25.2151 28.311 25.9238 28.0175C26.6326 27.7239 27.2384 27.2267 27.6646 26.5888C28.0909 25.9509 28.3184 25.201 28.3184 24.4338C28.316 23.4058 27.9065 22.4206 27.1796 21.6937C26.4527 20.9667 25.4675 20.5573 24.4394 20.5549ZM30.6457 19.633C30.4627 19.6323 30.2815 19.5956 30.1127 19.5249C29.9438 19.4543 29.7906 19.351 29.6616 19.2211C29.4012 18.9588 29.2557 18.6037 29.257 18.234C29.2584 17.8644 29.4066 17.5104 29.6689 17.25C29.9313 16.9895 30.2864 16.844 30.656 16.8454C31.0257 16.8468 31.3797 16.9949 31.6401 17.2573C31.9005 17.5196 32.0461 17.8747 32.0447 18.2444C32.0433 18.614 31.8952 18.968 31.6328 19.2284C31.3704 19.4889 31.0154 19.6344 30.6457 19.633Z" fill="url(#paint1_linear_768_1932)"/>
<defs>
<linearGradient id="paint0_linear_768_1932" x1="46" y1="23.5" x2="1" y2="23.5" gradientUnits="userSpaceOnUse">
<stop stop-color="#2058FF"/>
<stop offset="1" stop-color="#004BC2"/>
</linearGradient>
<linearGradient id="paint1_linear_768_1932" x1="36.0891" y1="24.4661" x2="12.8027" y2="24.4661" gradientUnits="userSpaceOnUse">
<stop stop-color="#2058FF"/>
<stop offset="1" stop-color="#004BC2"/>
</linearGradient>
</defs>
</svg>
