<svg width="26" height="30" viewBox="0 0 26 30" fill="none" xmlns="http://www.w3.org/2000/svg">
<path d="M18.8158 3.57954V26.0795C18.8158 28.5991 20.5584 30 22.4079 30C24.1184 30 26 28.8068 26 26.0795V3.74999C26 1.44353 24.2895 0 22.4079 0C20.5263 0 18.8158 1.59268 18.8158 3.57954Z" fill="#F8AB00"/>
<path d="M9.40784 15V26.0795C9.40784 28.5991 11.1504 30 12.9999 30C14.7105 30 16.592 28.8068 16.592 26.0795V15.1704C16.592 12.864 14.8815 11.4204 12.9999 11.4204C11.1184 11.4204 9.40784 13.0131 9.40784 15Z" fill="#E37300"/>
<path d="M7.18421 26.4205C7.18421 28.3967 5.57525 30 3.59211 30C1.60896 30 0 28.3967 0 26.4205C0 24.4442 1.60896 22.8409 3.59211 22.8409C5.57525 22.8409 7.18421 24.4442 7.18421 26.4205Z" fill="#E37300"/>
</svg>
