<svg width="40" height="40" viewBox="0 0 40 40" fill="none" xmlns="http://www.w3.org/2000/svg">
<path d="M10.143 39.858C8.59588 39.8408 7.06328 39.557 5.61249 39.0192C4.55307 38.6276 3.59456 38.0042 2.80703 37.1945C1.99518 36.4086 1.37084 35.4498 0.980383 34.3895C0.443036 32.9387 0.159678 31.4063 0.142744 29.8593C0.0239213 27.2876 0 26.5162 0 19.9998C0 13.4834 0.0262743 12.7148 0.141567 10.1411C0.160556 8.59473 0.444263 7.06306 0.980383 5.61249C1.37274 4.5529 1.9962 3.594 2.80546 2.80546C3.59201 1.99435 4.55098 1.37058 5.61132 0.980383C7.0621 0.44259 8.59471 0.158833 10.1419 0.141567C12.7144 0.0239213 13.4869 0 19.9998 0C26.5127 0 27.2848 0.0262743 29.8585 0.141567C31.4053 0.160422 32.9374 0.444131 34.3883 0.980383C35.4482 1.3711 36.4069 1.99464 37.1938 2.80507C38.0044 3.59222 38.6282 4.55117 39.0192 5.61132C39.5572 7.06208 39.841 8.59468 39.8584 10.1419C39.9761 12.7156 40 13.4861 40 20.0006C40 26.515 39.9761 27.2856 39.8584 29.8593C39.8398 31.4062 39.5559 32.9385 39.0192 34.3895C38.6133 35.4417 37.9915 36.3972 37.1939 37.1946C36.3963 37.992 35.4406 38.6135 34.3883 39.0192C32.9375 39.5571 31.4049 39.841 29.8577 39.8584C27.2864 39.9761 26.5135 40 19.999 40C13.4846 40 12.714 39.9773 10.1426 39.8584" fill="url(#paint0_radial_523_13681)"/>
<path d="M10.143 39.858C8.59588 39.8408 7.06328 39.557 5.61249 39.0192C4.55307 38.6276 3.59456 38.0042 2.80703 37.1945C1.99518 36.4086 1.37084 35.4498 0.980383 34.3895C0.443036 32.9387 0.159678 31.4063 0.142744 29.8593C0.0239213 27.2876 0 26.5162 0 19.9998C0 13.4834 0.0262743 12.7148 0.141567 10.1411C0.160556 8.59473 0.444263 7.06306 0.980383 5.61249C1.37274 4.5529 1.9962 3.594 2.80546 2.80546C3.59201 1.99435 4.55098 1.37058 5.61132 0.980383C7.0621 0.44259 8.59471 0.158833 10.1419 0.141567C12.7144 0.0239213 13.4869 0 19.9998 0C26.5127 0 27.2848 0.0262743 29.8585 0.141567C31.4053 0.160422 32.9374 0.444131 34.3883 0.980383C35.4482 1.3711 36.4069 1.99464 37.1938 2.80507C38.0044 3.59222 38.6282 4.55117 39.0192 5.61132C39.5572 7.06208 39.841 8.59468 39.8584 10.1419C39.9761 12.7156 40 13.4861 40 20.0006C40 26.515 39.9761 27.2856 39.8584 29.8593C39.8398 31.4062 39.5559 32.9385 39.0192 34.3895C38.6133 35.4417 37.9915 36.3972 37.1939 37.1946C36.3963 37.992 35.4406 38.6135 34.3883 39.0192C32.9375 39.5571 31.4049 39.841 29.8577 39.8584C27.2864 39.9761 26.5135 40 19.999 40C13.4846 40 12.714 39.9773 10.1426 39.8584" fill="url(#paint1_radial_523_13681)"/>
<path d="M15.0885 20.0849C15.0886 19.1052 15.3792 18.1476 15.9235 17.333C16.4679 16.5185 17.2416 15.8837 18.1467 15.5089C19.0518 15.134 20.0478 15.0361 21.0087 15.2273C21.9695 15.4185 22.852 15.8904 23.5447 16.5832C24.2374 17.276 24.709 18.1587 24.9 19.1196C25.091 20.0805 24.9928 21.0764 24.6178 21.9815C24.2427 22.8865 23.6077 23.66 22.7931 24.2042C21.9784 24.7484 21.0207 25.0387 20.041 25.0386C18.7274 25.0384 17.4676 24.5164 16.5389 23.5874C15.6101 22.6584 15.0884 21.3985 15.0885 20.0849ZM12.4105 20.0849C12.4105 21.5941 12.858 23.0694 13.6965 24.3242C14.5349 25.579 15.7266 26.557 17.1209 27.1346C18.5152 27.7121 20.0495 27.8632 21.5296 27.5688C23.0098 27.2744 24.3694 26.5476 25.4366 25.4805C26.5037 24.4133 27.2305 23.0537 27.5249 21.5735C27.8193 20.0934 27.6682 18.5591 27.0907 17.1648C26.5131 15.7705 25.5351 14.5788 24.2803 13.7404C23.0255 12.9019 21.5502 12.4544 20.041 12.4544C19.0389 12.4543 18.0467 12.6517 17.1209 13.0351C16.1951 13.4186 15.3539 13.9806 14.6453 14.6892C13.9367 15.3978 13.3747 16.239 12.9912 17.1648C12.6078 18.0906 12.4104 19.0828 12.4105 20.0849ZM26.1904 12.152C26.1902 12.5047 26.2946 12.8495 26.4904 13.1428C26.6862 13.4361 26.9646 13.6648 27.2904 13.7999C27.6161 13.935 27.9746 13.9705 28.3206 13.9018C28.6665 13.8332 28.9843 13.6635 29.2338 13.4142C29.4833 13.165 29.6532 12.8473 29.7222 12.5015C29.7911 12.1556 29.756 11.7971 29.6212 11.4712C29.4863 11.1453 29.2579 10.8667 28.9648 10.6707C28.6716 10.4746 28.3269 10.3699 27.9743 10.3697C27.5015 10.3699 27.0482 10.5577 26.7139 10.8919C26.3796 11.2261 26.1916 11.6793 26.1911 12.152M14.0383 32.1809C13.096 32.1705 12.1625 31.9981 11.2787 31.6711C10.6378 31.424 10.0557 31.0455 9.56986 30.5599C9.08404 30.0743 8.70529 29.4923 8.45798 28.8515C8.13083 27.9677 7.95838 27.0342 7.94818 26.0919C7.87603 24.5256 7.86191 24.0551 7.86191 20.0869C7.86191 16.1187 7.8776 15.6493 7.94818 14.0814C7.95962 13.1392 8.13203 12.2059 8.45798 11.3218C8.705 10.6807 9.08365 10.0984 9.56949 9.6126C10.0553 9.12676 10.6376 8.74812 11.2787 8.50109C12.1625 8.17395 13.096 8.0015 14.0383 7.99129C15.6046 7.91914 16.0752 7.90502 20.0418 7.90502C24.0084 7.90502 24.4794 7.92032 26.0472 7.99169C26.9894 8.00312 27.9227 8.17553 28.8068 8.50148C29.4479 8.74853 30.0302 9.12718 30.516 9.61302C31.0019 10.0989 31.3805 10.6811 31.6276 11.3222C31.9547 12.206 32.1271 13.1395 32.1373 14.0818C32.2095 15.6504 32.2236 16.1187 32.2236 20.0873C32.2236 24.0558 32.2091 24.5249 32.1373 26.0927C32.1264 27.0349 31.9539 27.9683 31.6276 28.8523C31.3802 29.4931 31.0015 30.0751 30.5157 30.5607C30.0299 31.0463 29.4477 31.4248 28.8068 31.6718C27.923 31.999 26.9895 32.1714 26.0472 32.1817C24.481 32.2538 24.0104 32.2679 20.0418 32.2679C16.0732 32.2679 15.6042 32.2534 14.0383 32.1817M13.9152 5.31563C12.6822 5.33988 11.4623 5.57325 10.3074 6.00582C9.32013 6.38753 8.42354 6.97133 7.6751 7.71977C6.92665 8.46822 6.34285 9.36481 5.96114 10.3521C5.52863 11.5069 5.29526 12.7269 5.27096 13.9599C5.19762 15.5442 5.18115 16.0508 5.18115 20.0865C5.18115 24.1221 5.19802 24.6284 5.27096 26.2131C5.29525 27.4461 5.52862 28.666 5.96114 29.8209C6.34287 30.8081 6.92667 31.7047 7.67512 32.4531C8.42357 33.2016 9.32014 33.7854 10.3074 34.1671C11.4623 34.5995 12.6822 34.8329 13.9152 34.8573C15.5003 34.9295 16.0061 34.9471 20.0418 34.9471C24.0774 34.9471 24.5837 34.9303 26.1684 34.8573C27.4014 34.833 28.6213 34.5996 29.7762 34.1671C30.7634 33.7854 31.66 33.2016 32.4084 32.4531C33.1569 31.7047 33.7407 30.8081 34.1224 29.8209C34.5555 28.6661 34.7889 27.4461 34.8126 26.2131C34.8848 24.6276 34.9012 24.1221 34.9012 20.0865C34.9012 16.0508 34.8844 15.5446 34.8126 13.9599C34.7884 12.7269 34.555 11.5069 34.1224 10.3521C33.7407 9.365 33.1571 8.46855 32.4088 7.72012C31.6606 6.9717 30.7643 6.38779 29.7774 6.00582C28.6226 5.57297 27.4026 5.33959 26.1696 5.31563C24.5849 5.24309 24.0786 5.22583 20.0437 5.22583C16.0089 5.22583 15.5014 5.24269 13.916 5.31563" fill="white"/>
<defs>
<radialGradient id="paint0_radial_523_13681" cx="0" cy="0" r="1" gradientUnits="userSpaceOnUse" gradientTransform="translate(2.5886 39.1235) scale(50.7846)">
<stop offset="0.09" stop-color="#FA8F21"/>
<stop offset="0.78" stop-color="#D82D7E"/>
</radialGradient>
<radialGradient id="paint1_radial_523_13681" cx="0" cy="0" r="1" gradientUnits="userSpaceOnUse" gradientTransform="translate(27.7064 37.8388) scale(44.6909)">
<stop offset="0.64" stop-color="#8C3AAA" stop-opacity="0"/>
<stop offset="1" stop-color="#8C3AAA"/>
</radialGradient>
</defs>
</svg>
