<svg width="25" height="26" viewBox="0 0 25 26" fill="none" xmlns="http://www.w3.org/2000/svg">
<rect y="0.278076" width="25" height="25" rx="12.5" fill="url(#paint0_linear_1643_10184)"/>
<g clip-path="url(#clip0_1643_10184)">
<path d="M9.33804 18.7781V11.019H6.65811V18.7781H9.33804ZM7.99842 9.95905C8.93296 9.95905 9.51466 9.36324 9.51466 8.61869C9.49725 7.85734 8.93299 7.27808 8.01616 7.27808C7.09946 7.27808 6.5 7.85735 6.5 8.61869C6.5 9.36328 7.08156 9.95905 7.98093 9.95905H7.99834H7.99842ZM10.8214 18.7781H13.5013V14.4451C13.5013 14.2132 13.5187 13.9815 13.5895 13.8157C13.7832 13.3524 14.2242 12.8725 14.9645 12.8725C15.9342 12.8725 16.3222 13.5841 16.3222 14.6271V18.778H19.0019V14.3291C19.0019 11.9458 17.6798 10.8369 15.9166 10.8369C14.4709 10.8369 13.8361 11.6145 13.4835 12.1442H13.5014V11.0189H10.8214C10.8566 11.747 10.8214 18.7779 10.8214 18.7779L10.8214 18.7781Z" fill="white"/>
</g>
<defs>
<linearGradient id="paint0_linear_1643_10184" x1="25" y1="12.7781" x2="0" y2="12.7781" gradientUnits="userSpaceOnUse">
<stop stop-color="#2058FF"/>
<stop offset="1" stop-color="#004BC2"/>
</linearGradient>
<clipPath id="clip0_1643_10184">
<rect width="12.5" height="11.5" fill="white" transform="translate(6.5 7.27808)"/>
</clipPath>
</defs>
</svg>
