<svg width="47" height="47" viewBox="0 0 47 47" fill="none" xmlns="http://www.w3.org/2000/svg">
<circle cx="23.5" cy="23.5" r="23" stroke="url(#paint0_linear_768_1936)"/>
<path fill-rule="evenodd" clip-rule="evenodd" d="M21.6882 18.384H25.6147V20.3398C26.1803 19.2149 27.6309 18.2042 29.8098 18.2042C33.9869 18.2042 34.9786 20.4434 34.9786 24.5518V32.1607H30.7497V25.4875C30.7497 23.1478 30.1841 21.8284 28.7441 21.8284C26.747 21.8284 25.9171 23.2504 25.9171 25.4864V32.1607H21.6882V18.384ZM14.4366 31.981H18.6655V18.2042H14.4366V31.981ZM19.2713 13.7121C19.2715 14.0665 19.2012 14.4175 19.0645 14.7445C18.9279 15.0716 18.7275 15.3682 18.4752 15.6172C17.964 16.1253 17.2719 16.4097 16.5511 16.408C15.8315 16.4075 15.1411 16.1238 14.629 15.6182C14.3776 15.3684 14.178 15.0715 14.0416 14.7444C13.9051 14.4173 13.8346 14.0665 13.834 13.7121C13.834 12.9963 14.1194 12.3112 14.6301 11.8059C15.1417 11.2996 15.8324 11.0158 16.5521 11.0161C17.2732 11.0161 17.9646 11.3005 18.4752 11.8059C18.9848 12.3112 19.2713 12.9963 19.2713 13.7121Z" fill="url(#paint1_linear_768_1936)"/>
<defs>
<linearGradient id="paint0_linear_768_1936" x1="46" y1="23.5" x2="1" y2="23.5" gradientUnits="userSpaceOnUse">
<stop stop-color="#2058FF"/>
<stop offset="1" stop-color="#004BC2"/>
</linearGradient>
<linearGradient id="paint1_linear_768_1936" x1="34.9786" y1="21.5884" x2="13.834" y2="21.5884" gradientUnits="userSpaceOnUse">
<stop stop-color="#2058FF"/>
<stop offset="1" stop-color="#004BC2"/>
</linearGradient>
</defs>
</svg>
