<svg width="30" height="30" viewBox="0 0 30 30" fill="none" xmlns="http://www.w3.org/2000/svg">
<path fill-rule="evenodd" clip-rule="evenodd" d="M12.2863 11.0597H16.9287V13.4647C17.5975 12.0815 19.3125 10.8387 21.8888 10.8387C26.8275 10.8387 28 13.5921 28 18.6439V28H23V19.7944C23 16.9175 22.3313 15.2951 20.6287 15.2951C18.2675 15.2951 17.2863 17.0436 17.2863 19.7931V28H12.2863V11.0597ZM3.7125 27.779H8.7125V10.8387H3.7125V27.779ZM9.42875 5.315C9.42894 5.75086 9.34582 6.18241 9.18423 6.58456C9.02265 6.98672 8.78581 7.35147 8.4875 7.6576C7.883 8.28241 7.06476 8.63215 6.2125 8.63C5.36174 8.62941 4.54539 8.28056 3.94 7.6589C3.64276 7.35173 3.40673 6.98657 3.24543 6.58436C3.08413 6.18215 3.00072 5.75079 3 5.315C3 4.4349 3.3375 3.5925 3.94125 2.9711C4.54611 2.34861 5.3628 1.99961 6.21375 2C7.06625 2 7.88375 2.3497 8.4875 2.9711C9.09 3.5925 9.42875 4.4349 9.42875 5.315Z" fill="#007FBC"/>
</svg>
