<svg width="214" height="61" viewBox="0 0 214 61" fill="none" xmlns="http://www.w3.org/2000/svg">
<path d="M170.952 40.0278V0.369455H204.539C207.659 0.369455 209.915 0.966039 211.311 2.17006C212.717 3.37731 213.414 5.31701 213.414 7.99445V16.7601C213.414 19.3856 212.717 21.3142 211.311 22.5201C209.915 23.738 207.658 24.3466 204.539 24.3466H179.941V40.0278H170.952ZM1.74345 56.7069V59.5181H7.09534C7.49215 59.5181 7.76716 59.4423 7.92022 59.2889C8.07349 59.1373 8.14869 58.864 8.14869 58.4763V57.7495C8.14869 57.3674 8.0695 57.0952 7.91258 56.9389C7.75735 56.7822 7.48416 56.7069 7.09534 56.7069H1.74345ZM204.031 60.8696V51.6311H213.331V53.0038H205.775V55.3773H210.328V56.7496H205.775V59.5181H213.414V60.8696H204.031ZM199.585 53.0038H193.136V59.4743H199.585V57.2726L201.328 57.603V58.6868C201.328 59.5324 201.171 60.1067 200.856 60.4114C200.54 60.7171 199.941 60.8696 199.062 60.8696H193.637C192.759 60.8696 192.163 60.7207 191.855 60.4267C191.546 60.1326 191.394 59.555 191.394 58.6868V53.8254C191.394 52.9647 191.55 52.3868 191.861 52.0856C192.174 51.7836 192.765 51.6311 193.637 51.6311H199.062C199.941 51.6311 200.54 51.7836 200.856 52.0917C201.171 52.4012 201.328 52.9789 201.328 53.8254V54.6974L199.585 54.9844V53.0038ZM179.161 53.4837C179.205 53.7528 179.234 54.0252 179.256 54.3018C179.278 54.5812 179.288 54.8566 179.288 55.1336V60.8696H177.683V51.6311H179.013L185.788 57.6661C185.987 57.8354 186.177 58.0251 186.358 58.2287C186.539 58.4354 186.717 58.6718 186.895 58.9332C186.846 58.6569 186.809 58.3739 186.783 58.0911C186.758 57.8064 186.746 57.513 186.746 57.2081V51.6311H188.352V60.8696H187.161L180.247 54.7482C180.004 54.5222 179.796 54.3088 179.623 54.1044C179.449 53.9007 179.296 53.6946 179.161 53.4837ZM166.037 60.8696V51.6311H175.336V53.0038H167.779V55.3773H172.333V56.7496H167.779V59.5181H175.42V60.8696H166.037ZM155.387 60.8696V51.6311H157.13V59.4743H164.313V60.8696H155.387ZM144.739 60.8696V51.6311H146.481V59.4743H153.664V60.8696H144.739ZM133.091 60.8696V51.6311H142.39V53.0038H134.835V55.3773H139.388V56.7496H134.835V59.5181H142.474V60.8696H133.091ZM128.644 53.0038H122.196V59.4743H128.644V57.2726L130.388 57.603V58.6868C130.388 59.5324 130.231 60.1067 129.916 60.4114C129.599 60.7171 129.001 60.8696 128.122 60.8696H122.698C121.819 60.8696 121.223 60.7207 120.914 60.4267C120.606 60.1326 120.454 59.555 120.454 58.6868V53.8254C120.454 52.9647 120.61 52.3868 120.921 52.0856C121.234 51.7836 121.825 51.6311 122.698 51.6311H128.122C129.001 51.6311 129.599 51.7836 129.916 52.0917C130.231 52.4012 130.388 52.9789 130.388 53.8254V54.6974L128.644 54.9844V53.0038ZM107.357 60.8696L111.994 56.143L107.284 51.6311H109.645L112.974 54.9844L116.027 51.6311H118.174L113.929 55.9216L119.122 60.8696H116.674L112.952 57.1238L109.601 60.8696H107.357ZM97.1251 60.8696V51.6311H106.425V53.0038H98.8687V55.3773H103.422V56.7496H98.8687V59.5181H106.509V60.8696H97.1251ZM84.3817 53.0038H77.0796V59.4743H84.3817V56.9643H80.6131V55.7075H86.1255V58.6868C86.1255 59.5324 85.9687 60.1067 85.6535 60.4114C85.3375 60.7171 84.7379 60.8696 83.8592 60.8696H77.6022C76.7239 60.8696 76.1244 60.7171 75.8092 60.4154C75.4927 60.1152 75.3379 59.54 75.3379 58.6868V53.8254C75.3379 52.9789 75.4965 52.4012 75.817 52.0917C76.1365 51.7836 76.731 51.6311 77.6022 51.6311H83.8592C84.7199 51.6311 85.3116 51.7836 85.6347 52.0895C85.9616 52.3939 86.1255 52.9314 86.1255 53.6983V53.9631L84.3817 54.2612V53.0038ZM63.1056 53.4837C63.1488 53.7528 63.1781 54.0252 63.2004 54.3018C63.222 54.5812 63.2319 54.8566 63.2319 55.1336V60.8696H61.6269V51.6311H62.9568L69.7317 57.6661C69.9318 57.8354 70.1204 58.0251 70.3014 58.2287C70.4833 58.4354 70.6609 58.6718 70.8396 58.9332C70.7887 58.6569 70.752 58.3739 70.727 58.0911C70.7019 57.8064 70.6901 57.513 70.6901 57.2081V51.6311H72.2957V60.8696H71.1049L64.1907 54.7482C63.9479 54.5222 63.7404 54.3088 63.5661 54.1044C63.3923 53.9007 63.2394 53.6946 63.1056 53.4837ZM58.4044 60.8696H56.6681V51.6531H58.4044V60.8696ZM47.6792 53.0038H44.2953V59.4743H47.6792C49.1826 59.4743 50.2535 59.2202 50.8895 58.7157C51.5248 58.2068 51.8405 57.3707 51.8405 56.2086C51.8405 55.0706 51.5208 54.2541 50.878 53.7568C50.2356 53.2554 49.1684 53.0038 47.6792 53.0038ZM47.8708 51.6311C48.7504 51.6311 49.4909 51.6891 50.0904 51.8044C50.6889 51.9246 51.1832 52.1033 51.5709 52.343C52.2033 52.7431 52.6972 53.2833 53.0528 53.9673C53.4047 54.6532 53.5825 55.4051 53.5825 56.2307C53.5825 57.7822 53.1114 58.9443 52.1664 59.7139C51.2268 60.4845 49.7929 60.8696 47.8708 60.8696H42.5519V51.6311H47.8708ZM31.1912 60.8696V51.6311H32.9351V59.4743H40.1169V60.8696H31.1912ZM27.9679 60.8696H26.2323V51.6531H27.9679V60.8696ZM14.4981 51.6311V59.4743H21.2454V51.6311H23.0101V58.6868C23.0101 59.54 22.854 60.1152 22.5377 60.4154C22.2217 60.7171 21.622 60.8696 20.7435 60.8696H15.0208C14.1418 60.8696 13.5428 60.7171 13.2274 60.4114C12.9115 60.1067 12.7546 59.5324 12.7546 58.6868V51.6311H14.4981ZM8.08358 54.6103V53.7386C8.08358 53.4551 8.01049 53.2587 7.86878 53.1458C7.72799 53.0369 7.46987 52.9829 7.09534 52.9829H1.74345V55.355H7.09534C7.49881 55.355 7.76352 55.3005 7.891 55.1947C8.01799 55.0898 8.08358 54.8936 8.08358 54.6103ZM0 60.8696V51.6311H7.79645C8.50443 51.6311 9.02052 51.7766 9.33961 52.064C9.65954 52.351 9.81884 52.8082 9.81884 53.4407V54.5046C9.81884 54.9918 9.69143 55.3618 9.43801 55.6172C9.18031 55.8666 8.77341 56.027 8.2133 56.0887C8.7589 56.1472 9.17268 56.3286 9.45883 56.6374C9.74231 56.9466 9.88409 57.3602 9.88409 57.8761V59.0605C9.88409 59.6708 9.66319 60.1241 9.22348 60.4225C8.78456 60.7207 8.11232 60.8696 7.2121 60.8696H0ZM8.06452 27.988H0V29.6628V30.7414C0 34.3057 0.671672 36.7423 2.00395 38.061C3.34779 39.3681 5.94605 40.0278 9.80237 40.0278H32.4849C36.2895 40.0278 38.876 39.3681 40.2452 38.0363C41.6013 36.7164 42.2877 34.2807 42.2877 30.7279V24.9812C42.2877 21.4028 41.6149 18.9679 40.2595 17.6478C38.9138 16.3411 36.3145 15.6816 32.4849 15.6816H8.00117V6.87633H34.2351V11.3416H42.2997V8.62764C42.2997 5.40446 41.59 3.15957 40.183 1.89118C38.775 0.634574 36.2254 0 32.563 0H9.75065C5.9621 0 3.38473 0.660315 2.04159 1.99139C0.684217 3.31062 0.012682 5.74846 0.012682 9.29959V14.0068C0.012682 17.5825 0.684218 20.0199 2.01615 21.3395C3.36083 22.6454 5.93393 23.306 9.75065 23.306H34.2222V32.6313H8.06452V27.988ZM52.0157 40.0278V0H61.1581V15.6063H89.6747V0H98.8929V40.0278H89.6747V22.7481H61.1581V40.0278H52.0157ZM108.62 40.0278V0H117.763V40.0278H108.62ZM127.491 40.0278V0H136.633V32.6313H161.223V40.0278H127.491ZM200.494 7.16866H179.941V17.584H200.494C202.054 17.584 203.132 17.3559 203.728 16.9121C204.323 16.4684 204.615 15.6561 204.615 14.464V10.2522C204.615 9.16075 204.323 8.37408 203.728 7.89215C203.131 7.40973 202.053 7.16866 200.494 7.16866ZM211.302 36.1633C211.122 36.3641 210.853 36.49 210.494 36.5425C210.672 36.6467 210.819 36.7614 210.935 36.8864C211.051 37.0114 211.208 37.2338 211.404 37.5526L211.904 38.3529H210.915L210.321 37.4574C210.108 37.1394 209.962 36.9387 209.883 36.8557C209.805 36.7735 209.722 36.7164 209.634 36.6857C209.546 36.6554 209.406 36.6401 209.215 36.6401H209.047V38.3529H208.217V34.2511H209.96C210.399 34.2511 210.717 34.2883 210.916 34.3617C211.115 34.4352 211.274 34.5661 211.393 34.7542C211.512 34.9431 211.572 35.1581 211.572 35.4006C211.572 35.709 211.483 35.963 211.302 36.1633ZM209.721 32.6315C207.676 32.6315 206.022 34.3198 206.022 36.3316C206.022 38.3761 207.713 40.0278 209.721 40.0278C211.763 40.0278 213.415 38.3414 213.415 36.3316C213.415 34.2944 211.759 32.6315 209.721 32.6315ZM209.66 35.9869C210.057 35.9869 210.304 35.9697 210.403 35.9363C210.502 35.903 210.58 35.8447 210.635 35.7624C210.692 35.6802 210.719 35.5772 210.719 35.4541C210.719 35.3157 210.682 35.2049 210.608 35.1189C210.535 35.0338 210.431 34.9806 210.297 34.9585C210.23 34.9489 210.028 34.9442 209.693 34.9442H209.047V35.9869H209.66Z" fill="#2B2A29"/>
</svg>
