<svg width="41" height="40" viewBox="0 0 41 40" fill="none" xmlns="http://www.w3.org/2000/svg">
<path d="M20.5004 18.5125L36.4754 8.25C35.8331 7.76827 35.0532 7.50538 34.2504 7.5H6.75039C5.94756 7.50538 5.16765 7.76827 4.52539 8.25L20.5004 18.5125Z" fill="url(#paint0_linear_768_1963)"/>
<path d="M21.175 21.05L20.9625 21.15H20.8625C20.7474 21.2014 20.6252 21.2351 20.5 21.25C20.3962 21.263 20.2913 21.263 20.1875 21.25H20.0875L19.875 21.15L3.125 10.325C3.04497 10.6269 3.00298 10.9376 3 11.25V28.75C3 29.7445 3.39509 30.6983 4.09835 31.4016C4.80161 32.1049 5.75544 32.5 6.75 32.5H34.25C35.2446 32.5 36.1984 32.1049 36.9016 31.4016C37.6049 30.6983 38 29.7445 38 28.75V11.25C37.997 10.9376 37.955 10.6269 37.875 10.325L21.175 21.05Z" fill="url(#paint1_linear_768_1963)"/>
<defs>
<linearGradient id="paint0_linear_768_1963" x1="36.4754" y1="13.0063" x2="4.52539" y2="13.0063" gradientUnits="userSpaceOnUse">
<stop stop-color="#2058FF"/>
<stop offset="1" stop-color="#004BC2"/>
</linearGradient>
<linearGradient id="paint1_linear_768_1963" x1="38" y1="21.4125" x2="3" y2="21.4125" gradientUnits="userSpaceOnUse">
<stop stop-color="#2058FF"/>
<stop offset="1" stop-color="#004BC2"/>
</linearGradient>
</defs>
</svg>
