<svg width="32" height="32" viewBox="0 0 32 32" fill="none" xmlns="http://www.w3.org/2000/svg">
<path d="M23.6257 13.9503C24.3948 13.4349 24.9463 12.666 25.1894 11.7585C25.4552 10.7667 25.3204 9.73341 24.8099 8.8491C24.2993 7.96479 23.4719 7.33141 22.4801 7.0656C21.5726 6.82247 20.6309 6.9156 19.8 7.32397L17.659 3.61566C17.2032 2.82622 16.3846 2.3661 15.4757 2.3816C14.5644 2.39828 13.7657 2.8891 13.339 3.69454C13.0394 4.26041 12.7579 4.84822 12.46 5.4706C11.2457 8.00716 9.86937 10.8822 6.89393 12.6L3.07062 14.8074C1.75456 15.5672 0.81187 16.799 0.41612 18.2758C0.0204322 19.7526 0.220932 21.2907 0.980745 22.6067C2.03706 24.4363 3.96018 25.4603 5.93499 25.4603C6.65524 25.4603 7.38231 25.3238 8.07681 25.0408L10.7496 29.6703C11.3026 30.6281 12.3091 31.164 13.3429 31.164C13.8495 31.164 14.3627 31.0352 14.8322 30.7642C15.5214 30.3663 16.015 29.7216 16.2221 28.9488C16.4291 28.1761 16.324 27.371 15.9261 26.6817L13.2961 22.1264C16.065 20.81 18.9714 21.0334 21.5591 21.2334C22.2477 21.2867 22.898 21.3369 23.5384 21.3603C24.448 21.3929 25.2737 20.9473 25.7437 20.1663C26.2138 19.3854 26.2224 18.448 25.7666 17.6585L23.6256 13.9502L23.6257 13.9503ZM22.0756 8.57485C22.6644 8.7326 23.1549 9.10741 23.4567 9.63035C24.0396 10.6398 23.7571 11.9148 22.8417 12.5924L20.5841 8.68197C21.0514 8.47903 21.572 8.43985 22.0757 8.57485H22.0756ZM5.93243 23.8983C4.49818 23.8982 3.10118 23.1544 2.33399 21.8255C1.78287 20.871 1.63774 19.7539 1.92549 18.6802C2.21318 17.6065 2.89737 16.7117 3.85193 16.1606L6.99899 14.3437L11.1499 21.5243L7.99899 23.3435C7.3475 23.7197 6.63562 23.8983 5.93243 23.8983ZM14.7129 28.5445C14.6139 28.9142 14.3787 29.2219 14.051 29.4112C13.37 29.8043 12.4961 29.5702 12.1028 28.8892L9.45674 24.306L11.9269 22.8799L14.5729 27.463C14.7622 27.7908 14.8119 28.1749 14.7128 28.5445H14.7129ZM24.4051 19.3607C24.2274 19.6559 23.9409 19.8123 23.5956 19.799C22.9869 19.7767 22.3519 19.7276 21.6796 19.6757C18.8557 19.4575 15.6806 19.2128 12.5165 20.7663L8.33874 13.5392C11.2697 11.5737 12.646 8.70079 13.8694 6.14535C14.1602 5.53766 14.4351 4.96366 14.7198 4.42591C14.8811 4.12135 15.1597 3.95016 15.5043 3.94391C15.5108 3.94379 15.5173 3.94372 15.5238 3.94372C15.8596 3.94372 16.1368 4.10416 16.3059 4.39697L24.4136 18.44C24.5859 18.7385 24.583 19.0655 24.4052 19.3607L24.4051 19.3607ZM22.3757 4.02097L23.9891 1.22647C24.2048 0.852785 24.6826 0.724723 25.0562 0.940535C25.4299 1.15629 25.5579 1.6341 25.3422 2.00772L23.7288 4.80222C23.5841 5.05285 23.3215 5.19297 23.0515 5.19297C22.9189 5.19297 22.7846 5.15922 22.6616 5.08816C22.2879 4.87241 22.1599 4.3946 22.3757 4.02097ZM29.629 6.96885L26.7669 8.62135C26.6439 8.69235 26.5095 8.72616 26.377 8.72616C26.107 8.72616 25.8444 8.58603 25.6997 8.33541C25.4839 7.96172 25.612 7.48391 25.9856 7.26822L28.8477 5.61572C29.2213 5.39991 29.6992 5.52804 29.9149 5.90166C30.1307 6.27528 30.0026 6.75316 29.629 6.96885ZM31.7821 12.59C31.7821 13.0214 31.4323 13.3712 31.0009 13.3712H27.774C27.3426 13.3712 26.9927 13.0215 26.9927 12.59C26.9927 12.1585 27.3426 11.8087 27.774 11.8087H31.0009C31.4323 11.8087 31.7821 12.1585 31.7821 12.59Z" fill="black"/>
</svg>
