<svg width="573" height="326" viewBox="0 0 573 326" fill="none" xmlns="http://www.w3.org/2000/svg">
<path d="M194.263 82.3091V73.3044C194.263 72.4233 193.549 71.7099 192.669 71.7099H190.351C189.673 71.7099 189.072 71.2487 188.92 70.5872C188.118 67.0908 186.752 63.8095 184.909 60.8525C184.541 60.2622 184.611 59.5014 185.102 59.0094L186.732 57.3798C187.355 56.7569 187.355 55.7475 186.732 55.1247L180.366 48.7582C179.743 48.1353 178.733 48.1353 178.11 48.7582L176.483 50.386C175.991 50.878 175.23 50.9474 174.639 50.5793C171.682 48.7353 168.4 47.3675 164.902 46.5637C164.241 46.4117 163.78 45.8117 163.78 45.1335V42.823C163.78 41.9419 163.066 41.2285 162.186 41.2285H153.181C152.3 41.2285 151.587 41.9427 151.587 42.823V45.1335C151.587 45.8117 151.125 46.4126 150.464 46.5645C146.966 47.3675 143.683 48.7353 140.726 50.5793C140.135 50.9474 139.375 50.878 138.883 50.386L137.257 48.7599C136.634 48.1371 135.624 48.1371 135.001 48.7599L128.635 55.1264C128.012 55.7493 128.012 56.7587 128.635 57.3815L130.263 59.0094C130.755 59.5014 130.824 60.2622 130.456 60.8525C128.613 63.8104 127.247 67.0925 126.444 70.589C126.292 71.2505 125.692 71.7117 125.013 71.7117H122.698C121.817 71.7117 121.104 72.4259 121.104 73.3062V82.3108C121.104 83.192 121.818 83.9053 122.698 83.9053H125.014C125.692 83.9053 126.293 84.3665 126.444 85.0272C127.248 88.5245 128.615 91.8065 130.457 94.7618C130.825 95.3522 130.756 96.113 130.264 96.6049L128.633 98.2354C128.01 98.8583 128.01 99.8677 128.633 100.491L135 106.858C135.623 107.481 136.633 107.481 137.255 106.858L138.886 105.227C139.378 104.735 140.139 104.665 140.728 105.032C143.685 106.874 146.965 108.238 150.462 109.041C151.124 109.193 151.585 109.793 151.585 110.472V112.795C151.585 113.676 152.299 114.389 153.179 114.389H162.184C163.065 114.389 163.779 113.675 163.779 112.795V110.472C163.779 109.793 164.24 109.193 164.901 109.041C168.398 108.239 171.678 106.874 174.633 105.032C175.224 104.665 175.984 104.735 176.476 105.227L178.108 106.859C178.731 107.482 179.741 107.482 180.363 106.859L186.729 100.491C187.352 99.8686 187.352 98.8583 186.729 98.2363L185.098 96.6058C184.606 96.1138 184.537 95.3531 184.905 94.7627C186.747 91.8066 188.113 88.5262 188.916 85.0289C189.068 84.3674 189.668 83.9062 190.347 83.9062H192.666C193.549 83.9035 194.263 83.1893 194.263 82.3091ZM157.681 103.195C143.659 103.195 132.308 91.8206 132.308 77.7988C132.308 63.7981 143.659 52.425 157.681 52.425C171.704 52.425 183.055 63.799 183.055 77.7988C183.055 91.8215 171.704 103.195 157.681 103.195Z" stroke="#DEE3FC" stroke-width="0.7896" stroke-miterlimit="10"/>
<path d="M235.676 112.791V106.655C235.676 106.055 235.189 105.568 234.589 105.568H233.01C232.547 105.568 232.138 105.253 232.034 104.803C231.488 102.42 230.557 100.184 229.301 98.1684C229.05 97.766 229.098 97.2477 229.432 96.913L230.543 95.8026C230.967 95.3782 230.967 94.6904 230.543 94.2652L226.204 89.9263C225.779 89.5019 225.092 89.5019 224.666 89.9263L223.557 91.0358C223.221 91.3714 222.703 91.418 222.301 91.1676C220.285 89.9104 218.049 88.9784 215.665 88.4311C215.215 88.3274 214.901 87.9189 214.901 87.4559V85.8816C214.901 85.2816 214.414 84.7949 213.814 84.7949H207.678C207.078 84.7949 206.591 85.2816 206.591 85.8816V87.4559C206.591 87.918 206.277 88.3274 205.826 88.4311C203.442 88.9784 201.204 89.9104 199.189 91.1667C198.787 91.4171 198.268 91.3696 197.933 91.0349L196.825 89.9271C196.401 89.5028 195.713 89.5028 195.288 89.9271L190.949 94.2661C190.524 94.6904 190.524 95.3782 190.949 95.8034L192.058 96.913C192.393 97.2477 192.44 97.7669 192.19 98.1692C190.934 100.185 190.002 102.422 189.456 104.805C189.352 105.255 188.944 105.57 188.481 105.57H186.903C186.303 105.57 185.816 106.056 185.816 106.656V112.793C185.816 113.393 186.303 113.88 186.903 113.88H188.482C188.944 113.88 189.353 114.194 189.457 114.645C190.004 117.028 190.936 119.265 192.192 121.279C192.442 121.681 192.395 122.2 192.06 122.535L190.949 123.647C190.525 124.071 190.525 124.759 190.949 125.183L195.288 129.522C195.713 129.946 196.401 129.946 196.826 129.522L197.938 128.41C198.273 128.075 198.792 128.027 199.193 128.278C201.208 129.533 203.444 130.463 205.827 131.009C206.278 131.113 206.592 131.522 206.592 131.985V133.568C206.592 134.168 207.079 134.654 207.679 134.654H213.815C214.415 134.654 214.902 134.168 214.902 133.568V131.985C214.902 131.522 215.216 131.113 215.667 131.009C218.05 130.463 220.285 129.533 222.3 128.278C222.702 128.028 223.22 128.075 223.555 128.41L224.667 129.523C225.092 129.947 225.78 129.947 226.205 129.523L230.544 125.184C230.968 124.76 230.968 124.071 230.544 123.647L229.431 122.535C229.096 122.201 229.048 121.681 229.3 121.279C230.555 119.265 231.486 117.029 232.034 114.646C232.137 114.195 232.546 113.88 233.009 113.88H234.589C235.189 113.879 235.676 113.392 235.676 112.791ZM210.746 126.049C201.73 126.049 194.43 118.736 194.43 109.719C194.43 100.716 201.73 93.4025 210.746 93.4025C219.763 93.4025 227.062 100.716 227.062 109.719C227.062 118.736 219.763 126.049 210.746 126.049Z" fill="#DEE3FC"/>
<path d="M120.123 275.268C121.766 275.268 123.098 273.936 123.098 272.293C123.098 270.65 121.766 269.318 120.123 269.318C118.48 269.318 117.148 270.65 117.148 272.293C117.148 273.936 118.48 275.268 120.123 275.268Z" fill="#A4AFFF"/>
<path d="M518.641 193.987C520.283 193.987 521.615 192.656 521.615 191.013C521.615 189.37 520.283 188.038 518.641 188.038C516.998 188.038 515.666 189.37 515.666 191.013C515.666 192.656 516.998 193.987 518.641 193.987Z" fill="#A4AFFF"/>
<path d="M512.693 87.7686C514.336 87.7686 515.668 86.4368 515.668 84.7939C515.668 83.1511 514.336 81.8193 512.693 81.8193C511.051 81.8193 509.719 83.1511 509.719 84.7939C509.719 86.4368 511.051 87.7686 512.693 87.7686Z" fill="#A4AFFF"/>
<path d="M405.739 50.5571C406.77 50.5571 407.605 49.7217 407.605 48.6911C407.605 47.6606 406.77 46.8252 405.739 46.8252C404.708 46.8252 403.873 47.6606 403.873 48.6911C403.873 49.7217 404.708 50.5571 405.739 50.5571Z" fill="#A4AFFF"/>
<path d="M131.769 23.8357C131.769 24.8662 130.934 25.7016 129.903 25.7016C128.873 25.7016 128.037 24.8662 128.037 23.8357C128.037 22.8052 128.873 21.9697 129.903 21.9697C130.934 21.9697 131.769 22.8052 131.769 23.8357Z" fill="#A4AFFF"/>
<path d="M173.068 138.74C173.068 139.77 172.232 140.606 171.202 140.606C170.171 140.606 169.336 139.77 169.336 138.74C169.336 137.709 170.171 136.874 171.202 136.874C172.232 136.874 173.068 137.709 173.068 138.74Z" fill="#A4AFFF"/>
<path d="M104.615 275.268C104.615 276.299 103.779 277.134 102.749 277.134C101.718 277.134 100.883 276.299 100.883 275.268C100.883 274.238 101.718 273.402 102.749 273.402C103.779 273.402 104.615 274.238 104.615 275.268Z" fill="#A4AFFF"/>
<path d="M475.006 277.025C476.649 277.025 477.98 275.694 477.98 274.051C477.98 272.408 476.649 271.076 475.006 271.076C473.363 271.076 472.031 272.408 472.031 274.051C472.031 275.694 473.363 277.025 475.006 277.025Z" fill="#A4AFFF"/>
<path d="M538.258 277.025C539.901 277.025 541.232 275.694 541.232 274.051C541.232 272.408 539.901 271.076 538.258 271.076C536.615 271.076 535.283 272.408 535.283 274.051C535.283 275.694 536.615 277.025 538.258 277.025Z" fill="#A4AFFF"/>
<path d="M183.055 18.6992C184.698 18.6992 186.029 17.3674 186.029 15.7246C186.029 14.0818 184.698 12.75 183.055 12.75C181.412 12.75 180.08 14.0818 180.08 15.7246C180.08 17.3674 181.412 18.6992 183.055 18.6992Z" fill="#A4AFFF"/>
<path d="M388.295 151.065C388.295 153.263 386.512 155.046 384.314 155.046C382.116 155.046 380.334 153.264 380.334 151.065C380.334 148.867 382.116 147.085 384.314 147.085C386.513 147.085 388.295 148.867 388.295 151.065Z" fill="#A4AFFF"/>
<path d="M94.7286 101.847C94.7286 104.045 92.947 105.827 90.7481 105.827C88.5501 105.827 86.7676 104.045 86.7676 101.847C86.7676 99.6487 88.5492 97.8662 90.7481 97.8662C92.947 97.8671 94.7286 99.6487 94.7286 101.847Z" fill="#A4AFFF"/>
<path d="M83.5304 42.4332H78.5247C78.2023 42.4332 77.9414 42.1723 77.9414 41.8499V36.845C77.9414 36.5226 78.2023 36.2617 78.5247 36.2617H83.5304C83.8529 36.2617 84.1138 36.5226 84.1138 36.845V41.8499C84.1138 42.1723 83.8529 42.4332 83.5304 42.4332Z" fill="white"/>
<path d="M91.7863 42.4332H86.7806C86.4582 42.4332 86.1973 42.1723 86.1973 41.8499V36.845C86.1973 36.5226 86.4582 36.2617 86.7806 36.2617H91.7863C92.1087 36.2617 92.3696 36.5226 92.3696 36.845V41.8499C92.3696 42.1723 92.1087 42.4332 91.7863 42.4332Z" fill="white"/>
<path d="M100.041 42.4332H95.0365C94.714 42.4332 94.4531 42.1723 94.4531 41.8499V36.845C94.4531 36.5226 94.714 36.2617 95.0365 36.2617H100.041C100.364 36.2617 100.625 36.5226 100.625 36.845V41.8499C100.625 42.1723 100.364 42.4332 100.041 42.4332Z" fill="white"/>
<path d="M503.962 259.189H498.956C498.634 259.189 498.373 258.928 498.373 258.606V253.601C498.373 253.278 498.634 253.018 498.956 253.018H503.962C504.284 253.018 504.545 253.278 504.545 253.601V258.606C504.545 258.928 504.284 259.189 503.962 259.189Z" fill="#DEE3FC"/>
<path d="M512.218 259.189H507.212C506.89 259.189 506.629 258.928 506.629 258.606V253.601C506.629 253.278 506.89 253.018 507.212 253.018H512.218C512.54 253.018 512.801 253.278 512.801 253.601V258.606C512.801 258.928 512.54 259.189 512.218 259.189Z" fill="#DEE3FC"/>
<path d="M520.476 259.189H515.47C515.148 259.189 514.887 258.928 514.887 258.606V253.601C514.887 253.278 515.148 253.018 515.47 253.018H520.476C520.798 253.018 521.059 253.278 521.059 253.601V258.606C521.059 258.928 520.798 259.189 520.476 259.189Z" fill="#DEE3FC"/>
<path d="M122.284 255.807H117.279C116.956 255.807 116.695 255.546 116.695 255.224V250.219C116.695 249.897 116.956 249.636 117.279 249.636H122.284C122.607 249.636 122.868 249.897 122.868 250.219V255.224C122.868 255.545 122.606 255.807 122.284 255.807Z" fill="#DEE3FC"/>
<path d="M130.538 255.807H125.533C125.21 255.807 124.949 255.546 124.949 255.224V250.219C124.949 249.897 125.21 249.636 125.533 249.636H130.538C130.861 249.636 131.122 249.897 131.122 250.219V255.224C131.122 255.545 130.861 255.807 130.538 255.807Z" fill="#DEE3FC"/>
<path d="M138.795 255.807H133.79C133.468 255.807 133.207 255.546 133.207 255.224V250.219C133.207 249.897 133.468 249.636 133.79 249.636H138.795C139.118 249.636 139.379 249.897 139.379 250.219V255.224C139.379 255.545 139.118 255.807 138.795 255.807Z" fill="#DEE3FC"/>
<path d="M346.04 308.857H227.177C216.819 308.857 208.422 300.461 208.422 290.102V25.5305C208.422 15.1721 216.819 6.77539 227.177 6.77539H346.04C356.399 6.77539 364.795 15.1721 364.795 25.5305V290.102C364.795 300.461 356.399 308.857 346.04 308.857Z" fill="#3945BA"/>
<path d="M345.439 304.562H227.778C218.704 304.562 211.35 297.208 211.35 288.134V25.8469C211.35 16.7738 218.704 9.41895 227.778 9.41895H345.44C354.513 9.41895 361.868 16.7738 361.868 25.8469V288.134C361.867 297.208 354.512 304.562 345.439 304.562Z" fill="white"/>
<path d="M355.279 25.3334V287.316C355.279 293.46 350.298 298.441 344.154 298.441H229.065C222.921 298.441 217.939 293.46 217.939 287.316V25.3334C217.939 19.1891 222.921 14.208 229.065 14.208H248.257C249.321 14.208 250.296 14.8098 250.773 15.7621L252.811 19.8304C253.739 21.7078 255.656 22.8832 257.741 22.8832H315.478C317.563 22.8832 319.479 21.7078 320.408 19.8304L322.446 15.7621C322.923 14.8098 323.897 14.208 324.962 14.208H344.154C350.298 14.208 355.279 19.1882 355.279 25.3334Z" fill="#DEE3FC"/>
<path d="M310.838 18.1234H264.335C263.254 18.1234 262.377 17.2467 262.377 16.1652C262.377 15.0838 263.254 14.207 264.335 14.207H310.838C311.919 14.207 312.796 15.0838 312.796 16.1652C312.796 17.2467 311.919 18.1234 310.838 18.1234Z" fill="#DEE3FC"/>
<path d="M337.01 289.348H233.529C229.463 289.348 226.168 286.052 226.168 281.987V245.448C226.168 241.382 229.463 238.087 233.529 238.087H337.01C341.075 238.087 344.37 241.382 344.37 245.448V281.987C344.37 286.052 341.075 289.348 337.01 289.348Z" stroke="#698BD1" stroke-miterlimit="10" stroke-linecap="round" stroke-linejoin="round" stroke-dasharray="2.84 2.84"/>
<path d="M331.766 163.558H280.433C277.5 163.558 275.123 161.181 275.123 158.248V132.877C275.123 129.945 277.5 127.567 280.433 127.567H331.766C334.699 127.567 337.076 129.945 337.076 132.877V158.248C337.076 161.181 334.699 163.558 331.766 163.558Z" stroke="#698BD1" stroke-miterlimit="10" stroke-linecap="round" stroke-linejoin="round" stroke-dasharray="2.84 2.84"/>
<path d="M342.816 229.56H236.797C233.303 229.56 230.471 226.728 230.471 223.234V178.518C230.471 175.024 233.303 172.191 236.797 172.191H342.816C346.31 172.191 349.142 175.024 349.142 178.518V223.234C349.142 226.728 346.31 229.56 342.816 229.56Z" fill="#4B5A9B"/>
<path d="M344.37 173.866V218.608C344.37 222.096 341.542 224.916 338.054 224.916H232.484C228.997 224.916 226.168 222.096 226.168 218.608V173.866C226.168 170.379 228.997 167.55 232.484 167.55H338.054C341.542 167.55 344.37 170.379 344.37 173.866Z" fill="#7F95F4"/>
<path d="M267.003 220.254H235.901C233.543 220.254 231.631 218.342 231.631 215.983V184.882C231.631 182.524 233.543 180.611 235.901 180.611H267.003C269.362 180.611 271.273 182.523 271.273 184.882V215.983C271.273 218.342 269.362 220.254 267.003 220.254Z" fill="white"/>
<path d="M303.862 185.628H276.472C275.727 185.628 275.123 185.024 275.123 184.279C275.123 183.534 275.727 182.931 276.472 182.931H303.862C304.607 182.931 305.211 183.534 305.211 184.279C305.212 185.024 304.607 185.628 303.862 185.628Z" fill="#B2C1F9"/>
<path d="M291.381 191.012H276.472C275.727 191.012 275.123 190.409 275.123 189.664C275.123 188.919 275.727 188.315 276.472 188.315H291.381C292.126 188.315 292.729 188.919 292.729 189.664C292.729 190.408 292.126 191.012 291.381 191.012Z" fill="#B2C1F9"/>
<path d="M337.209 191.012H296.866C296.121 191.012 295.518 190.409 295.518 189.664C295.518 188.919 296.121 188.315 296.866 188.315H337.209C337.954 188.315 338.557 188.919 338.557 189.664C338.557 190.408 337.953 191.012 337.209 191.012Z" fill="#B2C1F9"/>
<path d="M299.538 196.397H276.472C275.727 196.397 275.123 195.794 275.123 195.049C275.123 194.304 275.727 193.7 276.472 193.7H299.538C300.283 193.7 300.887 194.304 300.887 195.049C300.887 195.794 300.283 196.397 299.538 196.397Z" fill="#B2C1F9"/>
<path d="M319.118 196.397H304.616C303.871 196.397 303.268 195.794 303.268 195.049C303.268 194.304 303.871 193.7 304.616 193.7H319.118C319.862 193.7 320.466 194.304 320.466 195.049C320.466 195.794 319.862 196.397 319.118 196.397Z" fill="#B2C1F9"/>
<path d="M337.21 196.397H323.856C323.111 196.397 322.508 195.794 322.508 195.049C322.508 194.304 323.111 193.7 323.856 193.7H337.21C337.955 193.7 338.559 194.304 338.559 195.049C338.559 195.794 337.955 196.397 337.21 196.397Z" fill="#B2C1F9"/>
<path d="M337.21 201.781H276.472C275.727 201.781 275.123 201.177 275.123 200.432C275.123 199.688 275.727 199.084 276.472 199.084H337.21C337.955 199.084 338.559 199.688 338.559 200.432C338.559 201.177 337.954 201.781 337.21 201.781Z" fill="#B2C1F9"/>
<path d="M309.899 207.166H276.472C275.727 207.166 275.123 206.562 275.123 205.817C275.123 205.072 275.727 204.469 276.472 204.469H309.899C310.644 204.469 311.248 205.072 311.248 205.817C311.248 206.562 310.644 207.166 309.899 207.166Z" fill="#B2C1F9"/>
<path d="M337.21 207.166H315.29C314.545 207.166 313.941 206.562 313.941 205.817C313.941 205.072 314.545 204.469 315.29 204.469H337.21C337.955 204.469 338.559 205.072 338.559 205.817C338.559 206.562 337.954 207.166 337.21 207.166Z" fill="#B2C1F9"/>
<path d="M296.112 212.551H276.472C275.727 212.551 275.123 211.947 275.123 211.202C275.123 210.457 275.727 209.854 276.472 209.854H296.112C296.857 209.854 297.461 210.457 297.461 211.202C297.461 211.947 296.857 212.551 296.112 212.551Z" fill="#B2C1F9"/>
<path d="M321.067 212.551H301.427C300.682 212.551 300.078 211.947 300.078 211.202C300.078 210.457 300.682 209.854 301.427 209.854H321.067C321.812 209.854 322.416 210.457 322.416 211.202C322.416 211.947 321.812 212.551 321.067 212.551Z" fill="#B2C1F9"/>
<path d="M337.21 212.551H325.813C325.068 212.551 324.465 211.947 324.465 211.202C324.465 210.457 325.068 209.854 325.813 209.854H337.21C337.955 209.854 338.559 210.457 338.559 211.202C338.559 211.947 337.954 212.551 337.21 212.551Z" fill="#B2C1F9"/>
<path d="M303.862 217.936H276.472C275.727 217.936 275.123 217.333 275.123 216.588C275.123 215.843 275.727 215.239 276.472 215.239H303.862C304.607 215.239 305.211 215.843 305.211 216.588C305.212 217.332 304.607 217.936 303.862 217.936Z" fill="#B2C1F9"/>
<path d="M337.21 185.628H309.819C309.074 185.628 308.471 185.024 308.471 184.279C308.471 183.534 309.074 182.931 309.819 182.931H337.21C337.955 182.931 338.559 183.534 338.559 184.279C338.559 185.024 337.954 185.628 337.21 185.628Z" fill="#B2C1F9"/>
<path d="M344.37 173.866V175.746H226.168V173.866C226.168 170.379 228.997 167.55 232.484 167.55H338.054C341.542 167.55 344.37 170.379 344.37 173.866Z" fill="#3052CE"/>
<path d="M322.091 171.796C322.091 172.605 321.436 173.26 320.627 173.26C319.817 173.26 319.162 172.605 319.162 171.796C319.162 170.987 319.817 170.331 320.627 170.331C321.436 170.331 322.091 170.987 322.091 171.796Z" fill="#DEE3FC"/>
<path d="M329.581 171.796C329.581 172.605 328.926 173.26 328.117 173.26C327.308 173.26 326.652 172.605 326.652 171.796C326.652 170.987 327.308 170.331 328.117 170.331C328.926 170.331 329.581 170.987 329.581 171.796Z" fill="#DEE3FC"/>
<path d="M337.075 171.796C337.075 172.605 336.42 173.26 335.611 173.26C334.802 173.26 334.146 172.605 334.146 171.796C334.146 170.987 334.802 170.331 335.611 170.331C336.419 170.332 337.075 170.987 337.075 171.796Z" fill="#DEE3FC"/>
<path d="M262.764 163.559H239.37C235.901 163.559 233.088 160.746 233.088 157.276V133.883C233.088 130.414 235.901 127.601 239.37 127.601H262.764C266.233 127.601 269.046 130.413 269.046 133.883V157.276C269.045 160.746 266.233 163.559 262.764 163.559Z" stroke="#495AD6" stroke-width="0.8956" stroke-miterlimit="10"/>
<path d="M245.458 140.379L240.277 145.559L245.499 150.78" stroke="#495AD6" stroke-width="1.6716" stroke-miterlimit="10" stroke-linecap="round" stroke-linejoin="round"/>
<path d="M256.675 140.379L261.856 145.559L256.635 150.78" stroke="#495AD6" stroke-width="1.6716" stroke-miterlimit="10" stroke-linecap="round" stroke-linejoin="round"/>
<path d="M253.494 140.379L248.643 150.78" stroke="#495AD6" stroke-width="1.6716" stroke-miterlimit="10" stroke-linecap="round" stroke-linejoin="round"/>
<path d="M344.37 39.8336V112.987C344.37 116.957 341.155 120.173 337.184 120.173H233.354C229.392 120.173 226.168 116.957 226.168 112.987V39.8336C226.168 35.8628 229.392 32.6475 233.354 32.6475H337.184C341.155 32.6475 344.37 35.8628 344.37 39.8336Z" fill="#B2C1F9"/>
<path d="M320.432 72.8915C329.893 72.8915 337.562 65.2218 337.562 55.7607C337.562 46.2996 329.893 38.6299 320.432 38.6299C310.971 38.6299 303.301 46.2996 303.301 55.7607C303.301 65.2218 310.971 72.8915 320.432 72.8915Z" fill="#F0F4FF"/>
<path d="M295.649 120.173H233.354C229.392 120.173 226.168 116.957 226.168 112.987V101.469L253.428 54.2499C254.851 51.7813 258.418 51.7813 259.841 54.2499L280.424 89.8995L295.71 116.378C296.448 117.643 296.334 119.083 295.649 120.173Z" fill="white"/>
<path d="M322.513 120.173H262.941L280.424 89.8997L289.841 73.5859C291.124 71.3633 294.33 71.3633 295.613 73.5859L322.513 120.173Z" fill="#F0F4FF"/>
<path d="M440.671 256.103H394.746V325.12H440.671V256.103Z" fill="#3B47BC"/>
<path d="M440.67 325.121H458.254V256.103H440.67V325.121Z" fill="#495AD6"/>
<path d="M456.098 258.753H443.188V260.955H456.098V258.753Z" fill="#B2C1F9"/>
<path d="M456.098 263.485H443.188V265.688H456.098V263.485Z" fill="#B2C1F9"/>
<path d="M456.098 268.217H443.188V270.419H456.098V268.217Z" fill="#B2C1F9"/>
<path d="M456.098 272.949H443.188V275.152H456.098V272.949Z" fill="#B2C1F9"/>
<path d="M456.098 277.681H443.188V279.883H456.098V277.681Z" fill="#B2C1F9"/>
<path d="M456.098 282.412H443.188V284.615H456.098V282.412Z" fill="#B2C1F9"/>
<path d="M456.098 287.145H443.188V289.347H456.098V287.145Z" fill="#B2C1F9"/>
<path d="M456.098 291.876H443.188V294.078H456.098V291.876Z" fill="#B2C1F9"/>
<path d="M456.098 296.607H443.188V298.81H456.098V296.607Z" fill="#B2C1F9"/>
<path d="M456.098 301.34H443.188V303.542H456.098V301.34Z" fill="#B2C1F9"/>
<path d="M456.098 306.071H443.188V308.274H456.098V306.071Z" fill="#B2C1F9"/>
<path d="M456.098 310.803H443.188V313.005H456.098V310.803Z" fill="#B2C1F9"/>
<path d="M456.098 315.536H443.188V317.739H456.098V315.536Z" fill="#B2C1F9"/>
<path d="M456.098 320.268H443.188V322.47H456.098V320.268Z" fill="#B2C1F9"/>
<path d="M387.286 325.122H410.626C410.626 325.122 411.931 320.965 409.104 315.816C409.104 315.816 407.225 317.323 401.598 316.304C401.598 316.304 399.25 318.298 397.628 319.077C395.997 319.867 386.657 321.702 387.286 325.122Z" fill="#281616"/>
<path d="M388.914 259.308C390.422 268.303 397.378 298.735 400.368 316.714C405.833 317.179 408.458 316.552 409.849 316.231C409.577 309.962 409.037 294.967 409.101 288.391C409.204 277.277 409.726 262.621 404.834 254.577L388.383 255.872C388.483 256.741 388.573 257.447 388.654 257.952C388.733 258.437 388.824 258.884 388.914 259.308Z" fill="#002C54"/>
<path d="M345.067 325.122H368.408C368.408 325.122 369.712 320.965 366.885 315.816C366.885 315.816 365.006 317.323 359.379 316.304C359.379 316.304 357.031 318.298 355.409 319.077C353.779 319.867 344.438 321.702 345.067 325.122Z" fill="#281616"/>
<path d="M358.705 316.187C363.165 317.292 366.395 317.183 367.925 317.011C369.166 309.786 371.126 293.885 372.891 286.432C375.629 274.848 378.308 258.917 376.446 253.233L360.264 249.169C360.21 249.681 358.892 298.44 358.705 316.187Z" fill="#052635"/>
<path d="M423.108 232.582C422.783 229.384 422.409 227.048 422.409 227.048L404.33 231.473L388.972 234.972C383.278 236.24 376.4 237.767 370.337 239.138C363.533 240.684 359.015 245.852 360.505 252.666L362.211 260.93C371.727 260.8 416.472 256.511 420.299 254.578C424.623 252.394 425.924 244.674 423.108 232.582Z" fill="#052635"/>
<path d="M450.101 232.582C449.776 229.385 448.216 225.953 448.216 225.953L431.322 231.474L415.964 234.973C410.27 236.241 403.392 237.768 397.329 239.139C390.525 240.685 386.008 245.853 387.498 252.667L389.203 260.931C398.72 260.801 438.496 259.414 447.291 254.579C451.535 252.245 452.916 244.675 450.101 232.582Z" fill="#002C54"/>
<path d="M399.495 206.67C399.495 206.67 407.526 203.042 409.736 206.68C410.946 208.672 410.109 212.371 407.37 213.924C404.631 215.477 389.154 222.023 374.548 225.673C374.548 225.673 373.923 223.641 372.918 221.507C372.918 221.507 379.471 218.789 385.986 214.213C392.5 209.637 399.495 206.67 399.495 206.67Z" fill="#E5918F"/>
<path d="M401.503 181.594L394.621 209.083C394.621 209.083 395.333 216.033 402.351 212.622C409.369 209.21 414.02 187.31 414.02 187.31L401.503 181.594Z" fill="#E5918F"/>
<path d="M413.146 196.967C412.295 196.762 411.483 196.537 410.699 196.302C409.896 196.067 409.133 195.822 408.408 195.567C401.868 193.325 398.334 190.633 398.334 190.633C400.39 181.695 402.867 175.693 405.069 171.738C405.128 171.64 405.187 171.552 405.236 171.444C405.295 171.347 405.354 171.248 405.413 171.151C406.597 169.183 408.301 167.529 410.2 166.168C410.396 166.031 410.582 165.904 410.778 165.767L411.591 180.119L411.728 181.597L413.146 196.967Z" fill="white"/>
<path d="M413.145 196.967C412.294 196.762 411.481 196.537 410.697 196.302C409.894 196.067 409.131 195.822 408.406 195.567C409.779 185.899 411.021 179.825 411.021 179.825L411.725 181.597L413.145 196.967Z" fill="#C7E5F2"/>
<path d="M453.775 172.15C453.609 176.399 452.865 183.222 452.218 190.076C452.013 192.249 451.817 194.432 451.651 196.537C451.533 197.849 449.555 204.849 449.477 206.102C449.125 212.094 446.188 216.577 448.969 225.702C449.634 227.885 449.801 229.011 449.801 229.911C449.801 230.538 448.988 231.194 448.665 231.37C447.5 232.045 445.209 232.515 442.428 232.858H442.418C436.946 233.524 429.564 233.651 425.109 233.651C419.128 233.651 410.15 232.701 409.014 231.194C407.977 229.814 408.936 227.806 409.425 225.036C411.628 212.534 410.845 206.013 410.708 196.988C410.708 196.763 410.698 196.537 410.698 196.302C410.473 182.381 409.553 170.467 410.199 166.169C410.395 166.032 410.582 165.905 410.777 165.767C411.727 165.121 412.657 164.544 413.558 164.034C413.636 163.995 413.734 163.937 413.832 163.878C414.106 163.721 414.39 163.575 414.654 163.427C414.752 163.368 414.86 163.319 414.968 163.271C416.995 162.282 419.951 161.225 421.645 160.637C421.86 160.568 422.056 160.5 422.222 160.451C423.818 160.353 425.55 160.333 427.421 160.382C429.046 160.431 431.532 160.647 434.234 160.999C434.244 160.999 434.244 160.999 434.244 160.999C437.299 161.391 440.637 161.968 443.29 162.693C443.29 162.693 443.319 162.702 443.339 162.712C443.838 162.868 447.079 164.083 450.457 167.695C451.581 168.89 452.736 170.358 453.775 172.15Z" fill="white"/>
<path d="M448.968 225.701C449.633 227.884 449.799 229.01 449.799 229.91C449.799 230.537 448.987 231.193 448.664 231.369C447.499 232.044 445.208 232.514 442.427 232.857C443.573 232.72 445.55 230.902 445.55 229.264C445.55 228.117 444.062 220.365 444.473 215.362C444.884 210.37 445.697 202.42 444.15 196.057C442.593 189.693 441.135 181.322 441.135 181.322L449.857 186.589C449.857 186.589 450.984 188.165 452.217 190.074C452.011 192.247 451.816 194.43 451.65 196.535C451.533 197.848 446.187 216.577 448.968 225.701Z" fill="#C7E5F2"/>
<path d="M410.592 135.357C410.592 135.357 411.346 144.481 414.372 145.094C417.397 145.707 416.654 141.83 416.654 141.83L416.232 137.498L410.592 135.357Z" fill="#002C54"/>
<path d="M424.54 168.42C418.617 167.716 420.829 161.959 421.642 160.638C421.857 160.569 422.875 160.255 422.954 160.207C422.963 160.197 422.973 160.197 422.973 160.197C423.169 160.041 423.316 159.806 423.433 159.512C424.01 157.995 423.747 154.969 423.727 154.773C423.727 154.764 423.727 154.764 423.727 154.764V154.216C423.824 153.854 423.923 153.511 424.001 153.188L427.114 150.74L433.703 145.562C433.703 145.562 431.95 154.225 433.36 159.689C433.468 160.1 433.684 160.678 434.232 161C434.232 161.01 434.242 161 434.242 161C434.418 161.118 434.633 161.196 434.898 161.235C436.513 161.997 434.262 169.575 424.54 168.42Z" fill="#E5918F"/>
<path d="M429.761 151.066C429.761 151.066 429.706 156.849 423.43 159.508C424.013 157.999 423.744 154.972 423.726 154.777L426.355 152.713L429.761 151.066Z" fill="#CC6362"/>
<path d="M412.039 136.655C412.039 136.655 413.408 155.584 418.519 157.193C418.519 157.193 425.031 157.806 429.707 151.517C431.053 149.705 432.756 149.297 433.312 147.109C434.215 143.555 435.489 136.999 433.864 133.049C431.55 127.422 412.259 122.955 412.039 136.655Z" fill="#E5918F"/>
<path d="M433.941 129.925C433.857 126.487 430.377 125.201 430.377 125.201C426.912 123.58 419.712 124.28 412.289 125.936C410.548 126.324 408.364 125.256 407.149 126.099C405.68 127.118 407.142 131.774 407.142 131.774C410.005 140.446 420.542 137.626 423.709 136.556C424.462 138.788 424.365 141.893 426.242 143.494C427.312 144.405 429.171 144.432 431.061 144.116C431.294 144.559 432.168 144.948 432.346 145.556C432.941 147.584 432.856 150.753 432.838 153.198L433.731 152.762C433.848 152.1 443.09 130.209 433.941 129.925Z" fill="#002C54"/>
<path d="M417.283 143.031C417.55 144.602 416.775 146.046 415.551 146.254C414.327 146.462 413.119 145.357 412.851 143.785C412.584 142.213 413.359 140.77 414.583 140.561C415.807 140.353 417.016 141.458 417.283 143.031Z" stroke="white" stroke-width="0.501" stroke-miterlimit="10"/>
<path d="M423.456 141.875C423.724 143.447 422.949 144.891 421.725 145.099C420.501 145.307 419.292 144.202 419.025 142.629C418.758 141.058 419.533 139.614 420.757 139.406C421.981 139.198 423.189 140.304 423.456 141.875Z" stroke="white" stroke-width="0.501" stroke-miterlimit="10"/>
<path d="M417.283 143.029C417.283 143.029 417.554 142.59 418.976 142.713" stroke="white" stroke-width="0.501" stroke-miterlimit="10"/>
<path d="M423.512 142.253L428.791 141.409" stroke="white" stroke-width="0.501" stroke-miterlimit="10"/>
<path d="M429.177 148.11C432.813 149.504 433.948 140.554 430.496 140.158C427.878 139.858 427.771 143.511 427.771 143.511C427.771 143.511 427.101 147.315 429.177 148.11Z" fill="#E5918F"/>
<g opacity="0.5">
<path d="M430.376 141.507C430.376 141.507 430.141 141.748 429.925 142.148C429.708 142.546 429.517 143.091 429.482 143.674C429.447 143.963 429.455 144.26 429.468 144.542C429.478 144.826 429.512 145.092 429.532 145.328C429.557 145.566 429.578 145.766 429.592 145.905C429.606 146.047 429.606 146.133 429.606 146.133C429.606 146.133 429.554 146.068 429.476 145.948C429.41 145.823 429.272 145.657 429.179 145.427C429.078 145.2 428.97 144.927 428.913 144.615C428.842 144.307 428.823 143.962 428.849 143.617C428.882 143.273 428.971 142.928 429.117 142.634C429.256 142.335 429.456 142.095 429.643 141.921C430.035 141.573 430.376 141.507 430.376 141.507Z" fill="#CC6362"/>
<path d="M430.944 143.207C430.944 143.207 430.796 143.223 430.592 143.3C430.388 143.372 430.137 143.515 429.947 143.708C429.753 143.898 429.628 144.132 429.566 144.315C429.499 144.496 429.478 144.625 429.478 144.625L428.879 144.41C428.879 144.41 428.949 144.257 429.096 144.055C429.237 143.852 429.475 143.607 429.758 143.453C430.039 143.292 430.345 143.219 430.571 143.203C430.797 143.181 430.944 143.207 430.944 143.207Z" fill="#CC6362"/>
</g>
<path d="M464.134 210.293C464.134 210.293 464.134 210.293 464.133 210.302C462.535 212.155 456.471 213.506 453.554 210.942C452.638 210.125 451.603 207.973 450.585 205.302C447.998 198.473 445.551 188.257 445.551 188.257L459.12 181.323C459.12 181.323 460.866 189.151 462.37 196.589C462.37 196.589 462.383 196.665 462.411 196.796C462.9 199.179 463.356 201.523 463.714 203.534C463.729 203.591 463.734 203.637 463.739 203.693C464.098 206.094 464.328 208.598 464.134 210.293Z" fill="#E5918F"/>
<path d="M440.426 178.754C441.737 184.204 445.855 194.529 445.855 194.529C448.74 195.008 452.609 194.477 455.815 193.325C459.515 191.996 462.157 189.205 462.157 189.205C462.157 189.205 459.426 181.528 456.975 176.012C454.774 171.061 453.453 169.213 452.501 168.231C451.066 166.73 448.754 165.007 447.113 164.225L440.426 178.754Z" fill="white"/>
<path d="M457.587 182.312L449.624 178.876L443.35 162.71C443.35 162.71 444.5 163.06 446.013 163.671C446.013 163.671 446.013 163.671 446.02 163.671C446.049 163.686 446.115 163.707 446.224 163.751C446.26 163.766 446.304 163.78 446.341 163.802C447.695 164.435 452.943 167.529 456.575 178.767C456.604 178.862 456.633 178.956 456.662 179.051C457.047 180.347 457.331 181.388 457.484 181.926C457.499 181.977 457.513 182.028 457.528 182.086C457.551 182.159 457.566 182.239 457.587 182.312Z" fill="white"/>
<path d="M464.133 210.293C464.133 210.293 464.133 210.293 464.132 210.302C464.015 211.295 463.741 212.009 463.25 212.262C463.172 212.312 462.058 212.976 461.98 213.026C460.32 214.041 457.311 215.766 453.569 217.375C444.492 221.297 431.306 225.845 424.197 227.929C424.197 227.929 423.495 225.92 422.4 223.829C422.4 223.829 428.831 220.843 435.151 216.001C441.481 211.17 450.584 205.302 450.584 205.302L452.883 202.598C452.883 202.598 461.055 195.076 462.368 196.59C462.368 196.59 462.381 196.665 462.409 196.797C462.604 197.582 463.252 200.468 463.712 203.534C463.727 203.592 463.732 203.638 463.737 203.694C464.097 206.094 464.327 208.598 464.133 210.293Z" fill="#E5918F"/>
<path d="M423.343 223.368C423.343 223.368 421.745 224.331 420.117 223.988C419.216 223.799 418.853 223.431 418.187 223.314C417.521 223.197 415.747 222.978 414.869 222.547C413.991 222.116 413.648 222.068 413.679 222.95C413.71 223.832 415.442 224.594 415.912 224.839C416.382 225.083 416.972 225.865 417.035 225.963C417.098 226.062 414.147 227.606 413.354 227.292C413.354 227.292 413.118 228.003 413.252 228.399C413.387 228.796 413.994 228.935 414.04 229.135C414.088 229.334 413.901 229.742 414.032 230.058C414.164 230.374 414.705 230.376 414.924 230.89C415.143 231.404 414.902 231.413 415.061 231.949C415.22 232.485 415.906 232.581 416.036 232.858C416.166 233.135 416.098 233.458 416.385 233.648C416.673 233.839 419.327 232.987 420.296 232.572C421.265 232.157 423.854 228.43 426.719 227.16L423.343 223.368Z" fill="#E5918F"/>
<path d="M436.906 240.007H416.264V237.987H436.906C437.464 237.987 437.916 238.44 437.916 238.998C437.916 239.555 437.464 240.007 436.906 240.007Z" fill="#375F84"/>
<path d="M425.737 240.006H374.052C373.434 240.006 372.89 239.593 372.725 238.998L362.147 200.917C361.913 200.075 362.546 199.24 363.421 199.24H413.402C414.567 199.24 415.588 200.017 415.9 201.139L426.441 239.082C426.568 239.547 426.218 240.006 425.737 240.006Z" fill="#375F84"/>
<path d="M423.866 240.006H372.181C371.562 240.006 371.02 239.593 370.853 238.998L360.275 200.917C360.042 200.075 360.675 199.24 361.55 199.24H411.531C412.696 199.24 413.717 200.017 414.029 201.139L424.57 239.082C424.698 239.547 424.348 240.006 423.866 240.006Z" fill="#467CDB"/>
<path d="M219.023 215.4L225.01 209.262C225.01 209.262 225.218 206.525 225.544 205.947C225.87 205.37 226.712 203.232 227.131 202.999C227.551 202.766 228.39 202.999 228.39 202.999C228.39 202.999 229.222 202.72 229.594 202.72C229.968 202.72 230.665 203.061 230.665 203.061C230.665 203.061 231.561 203 231.933 203C232.306 203 232.426 203.105 232.426 203.105C232.426 203.105 233.869 201.444 234.569 200.886C235.268 200.326 236.337 199.296 236.654 199.3C236.953 199.303 237.085 199.829 236.867 200.388C236.649 200.948 235.702 201.85 235.702 201.85L232.974 205.984C232.974 205.984 233.441 205.798 233.689 205.643C233.938 205.487 235.602 203.933 235.702 203.871C235.803 203.808 236.549 203.311 236.984 203.808C237.418 204.306 234.128 208.248 233.599 208.776C233.07 209.305 230.045 210.836 230.045 210.836C230.045 210.836 226.851 216.582 226.54 216.955C226.23 217.328 219.023 215.4 219.023 215.4Z" fill="#E49191"/>
<path d="M224.657 187.067C224.657 187.067 221.312 206.439 218.165 206.889C218.165 206.889 205.598 207.396 202.799 192.152C200.371 178.931 210.109 176.111 214.664 177.123C219.218 178.133 225.635 178.791 224.657 187.067Z" fill="#E49191"/>
<path d="M213.552 203.791C213.552 203.791 211.791 206.165 211.174 211.913C211.174 211.913 205.941 212.661 201.115 210.176C201.115 210.176 203.716 202.067 204.035 193.265" fill="#E49191"/>
<path d="M210.007 173.879C203.14 175.396 203.689 179.675 203.689 179.675C200.473 180.471 199.783 181.798 199.809 187.732C199.836 193.667 201.984 200.793 203.168 201.373C204.352 201.953 211.066 201.981 211.626 201.777C212.187 201.573 214.536 196.129 213.988 195.171C213.44 194.213 214.016 190.446 215.579 190.304C217.143 190.16 216.836 192.585 216.836 192.585L218.122 192.303L219.114 189.87C228.188 190.41 230.533 180.068 230.533 180.068C228.354 178.647 216.875 172.362 210.007 173.879Z" fill="#002C54"/>
<path d="M133.774 305.026L140.718 306.03L138.418 314.138L130.898 312.241C130.898 312.241 127.838 308.094 132.458 305.026C132.68 304.877 133.41 304.943 133.774 305.026Z" fill="#E5918F"/>
<path d="M185.602 284.199L175.368 253.211C175.368 253.211 172.266 252.106 170.677 253.211C170.677 253.211 160.015 258.944 161.153 275.291C162.01 287.615 164.612 300.98 165.667 306.341L138.361 305.332C138.361 305.332 134.992 309.336 137.171 314.548C137.171 314.548 171.481 323.775 176.315 324.628C180.243 325.321 184.542 325.855 186.618 324.077C190.276 320.943 185.602 284.199 185.602 284.199Z" fill="black"/>
<path d="M166.104 305.026L173.048 306.03L170.748 314.138L163.228 312.241C163.228 312.241 160.168 308.094 164.788 305.026C165.01 304.877 165.74 304.943 166.104 305.026Z" fill="#E5918F"/>
<path d="M163.585 309.276C163.429 310.872 164.826 312.31 164.571 312.708C164.315 313.106 159.647 320.937 159.647 320.937C159.647 320.937 163.171 322.472 162.603 324.688H153.679C153.679 324.688 151.348 322.585 151.405 319.573C151.405 319.573 152.012 316.105 153.603 313.036C155.195 309.966 158.813 303.037 158.813 303.037C158.813 303.037 159.91 302.593 161.787 303.094C163.985 303.68 166.104 305.025 166.104 305.025C166.104 305.025 163.969 305.331 163.585 309.276Z" fill="#467CDB"/>
<path d="M235.072 317.568C232.869 309.346 212.139 274.249 205.126 264.773C190.721 258.519 175.369 253.212 175.369 253.212C169.02 254.728 165.892 267.522 169.493 276.05C171.964 281.902 187.636 296.628 197.234 305.298L170.6 305.266C170.6 305.266 167.463 309.956 170.306 314.41C170.306 314.41 214.602 324.482 218.487 325.051C222.372 325.619 231.091 325.051 231.091 325.051C231.091 325.051 236.926 324.488 235.072 317.568Z" fill="#002C54"/>
<path d="M131.255 309.276C131.099 310.872 132.496 312.31 132.24 312.708C131.985 313.106 127.317 320.937 127.317 320.937C127.317 320.937 130.841 322.472 130.273 324.688H121.349C121.349 324.688 119.018 322.585 119.075 319.573C119.075 319.573 119.681 316.105 121.273 313.036C122.865 309.966 126.483 303.037 126.483 303.037C126.483 303.037 127.58 302.593 129.457 303.094C131.655 303.68 133.774 305.025 133.774 305.025C133.774 305.025 131.639 305.331 131.255 309.276Z" fill="#467CDB"/>
<path d="M268.419 209.436L254.134 234.563L243.903 224.366L235.436 236.97L237.894 238.151L237.01 238.887C237.01 238.887 256.753 248.503 259.119 246.381C261.485 244.26 272.508 212.292 272.508 212.292L268.419 209.436Z" fill="#E49191"/>
<path d="M245.727 225.961C245.727 225.961 243.03 237.338 237.635 242.732L223.834 237.478C223.834 237.478 217.43 248.249 211.166 256.507C208.759 259.696 207.96 264.185 205.131 264.774C204.955 264.712 204.788 264.659 204.613 264.615C196.943 262.314 185.628 264.756 176.29 261.286C165.976 257.447 167.979 255.286 167.979 255.286C167.979 255.286 174.234 244.015 177.783 232.076C179.364 226.796 180.463 221.903 181.192 218.081C182.501 211.317 187.921 206.028 194.756 205.106C194.835 205.097 194.905 205.079 194.984 205.07C202.803 204.078 223.272 206.494 227.252 208.198C231.231 209.902 245.727 225.961 245.727 225.961Z" fill="#467CDB"/>
<path d="M223.834 237.479C223.834 237.479 217.43 248.249 211.166 256.507C208.759 259.696 207.96 264.185 205.131 264.774C206.37 264.335 208.425 257.816 209.154 256.349C209.892 254.891 211.061 253.424 213.591 248.302C216.112 243.171 219.535 235.652 219.535 235.652L223.834 237.479Z" fill="#5996EF"/>
<path d="M197.234 305.298C197.234 305.298 197.451 305.249 197.834 305.2C198.217 305.161 198.766 305.081 199.426 305.055C200.747 304.983 202.513 305.036 204.262 305.278C205.134 305.405 206.004 305.559 206.807 305.761C207.611 305.951 208.353 306.176 208.975 306.404C209.601 306.617 210.104 306.855 210.455 307.012C210.806 307.173 211.001 307.277 211.001 307.277C211.001 307.277 210.779 307.251 210.4 307.186C210.026 307.106 209.482 307.034 208.839 306.924C207.551 306.709 205.846 306.434 204.133 306.205C203.279 306.072 202.419 305.979 201.615 305.867C200.806 305.766 200.053 305.671 199.406 305.59C198.103 305.414 197.234 305.298 197.234 305.298Z" fill="black"/>
<path d="M279.095 200.187C278.865 200.164 277.4 201.34 276.693 201.92L277.507 200.36C277.507 200.36 278.584 199.32 278.972 198.749C279.359 198.178 279.155 197.607 278.85 197.576C278.634 197.554 277.346 198.577 276.6 199.186L276.764 198.872C276.764 198.872 277.841 197.832 278.229 197.261C278.616 196.69 278.412 196.119 278.106 196.088C277.801 196.057 275.322 198.138 275.322 198.138L274.115 199.753L275.026 197.986C275.026 197.986 275.505 197.4 275.824 196.761C276.144 196.122 275.913 195.927 275.735 195.714C275.558 195.5 273.89 196.743 273.464 197.24C273.037 197.737 271.689 199.751 271.583 200.035L270.188 202.919C270.1 202.084 269.959 200.654 269.861 199.743C269.718 198.429 268.53 198.119 268.489 198.758C268.447 199.397 267.785 202.538 267.935 204.241C268.085 205.945 268.371 207.063 268.477 208.022C268.583 208.98 267.59 210.895 267.59 210.895C267.59 210.895 271.565 213.364 272.222 212.625C272.879 211.886 274.278 210.245 274.954 209.14C275.883 207.622 276.51 205.626 276.51 205.626L277.752 202.972C277.752 202.972 278.829 201.932 279.217 201.361C279.604 200.789 279.4 200.217 279.095 200.187Z" fill="#E49191"/>
<path d="M507.283 120.176H460.666C457.678 120.176 455.256 122.598 455.256 125.586V136.599C455.256 139.354 457.318 141.63 459.983 141.965C460.374 142.014 460.666 142.347 460.666 142.74V148.768C460.666 149.117 461.113 149.26 461.316 148.977L466.064 142.337C466.212 142.13 466.45 142.007 466.704 142.007H507.283C510.27 142.007 512.692 139.585 512.692 136.598V125.585C512.692 122.598 510.27 120.176 507.283 120.176Z" stroke="white" stroke-width="0.8956" stroke-miterlimit="10"/>
<path d="M467.817 131.076C467.817 132.06 467.02 132.856 466.037 132.856C465.053 132.856 464.256 132.059 464.256 131.076C464.256 130.092 465.054 129.295 466.037 129.295C467.02 129.295 467.817 130.092 467.817 131.076Z" stroke="white" stroke-width="0.8956" stroke-miterlimit="10"/>
<path d="M476.786 131.076C476.786 132.06 475.988 132.856 475.005 132.856C474.021 132.856 473.225 132.059 473.225 131.076C473.225 130.092 474.022 129.295 475.005 129.295C475.988 129.295 476.786 130.092 476.786 131.076Z" stroke="white" stroke-width="0.8956" stroke-miterlimit="10"/>
<path d="M485.754 131.076C485.754 132.06 484.956 132.856 483.973 132.856C482.989 132.856 482.191 132.059 482.191 131.076C482.191 130.092 482.989 129.295 483.973 129.295C484.956 129.295 485.754 130.092 485.754 131.076Z" stroke="white" stroke-width="0.8956" stroke-miterlimit="10"/>
<path d="M494.724 131.076C494.724 132.06 493.927 132.856 492.944 132.856C491.96 132.856 491.162 132.059 491.162 131.076C491.162 130.092 491.96 129.295 492.944 129.295C493.927 129.295 494.724 130.092 494.724 131.076Z" stroke="white" stroke-width="0.8956" stroke-miterlimit="10"/>
<path d="M503.693 131.076C503.693 132.06 502.895 132.856 501.912 132.856C500.928 132.856 500.131 132.059 500.131 131.076C500.131 130.092 500.929 129.295 501.912 129.295C502.895 129.295 503.693 130.092 503.693 131.076Z" stroke="white" stroke-width="0.8956" stroke-miterlimit="10"/>
<path d="M138.925 168.455H185.542C188.53 168.455 190.952 170.877 190.952 173.865V184.878C190.952 187.635 188.89 189.909 186.225 190.245C185.834 190.294 185.542 190.626 185.542 191.019V197.048C185.542 197.396 185.095 197.54 184.892 197.256L180.144 190.616C179.996 190.41 179.758 190.288 179.504 190.288H138.925C135.938 190.288 133.516 187.866 133.516 184.878V173.865C133.516 170.877 135.938 168.455 138.925 168.455Z" stroke="white" stroke-width="0.8956" stroke-miterlimit="10"/>
<path d="M178.391 179.356C178.391 180.34 179.188 181.137 180.171 181.137C181.155 181.137 181.953 180.339 181.953 179.356C181.953 178.372 181.155 177.575 180.171 177.575C179.188 177.574 178.391 178.372 178.391 179.356Z" stroke="white" stroke-width="0.8956" stroke-miterlimit="10"/>
<path d="M169.422 179.356C169.422 180.34 170.22 181.137 171.203 181.137C172.187 181.137 172.983 180.339 172.983 179.356C172.983 178.372 172.186 177.575 171.203 177.575C170.22 177.574 169.422 178.372 169.422 179.356Z" stroke="white" stroke-width="0.8956" stroke-miterlimit="10"/>
<path d="M160.453 179.356C160.453 180.34 161.251 181.137 162.234 181.137C163.218 181.137 164.015 180.339 164.015 179.356C164.015 178.372 163.217 177.575 162.234 177.575C161.251 177.574 160.453 178.372 160.453 179.356Z" stroke="white" stroke-width="0.8956" stroke-miterlimit="10"/>
<path d="M151.484 179.356C151.484 180.34 152.282 181.137 153.265 181.137C154.249 181.137 155.046 180.339 155.046 179.356C155.046 178.372 154.248 177.575 153.265 177.575C152.282 177.574 151.484 178.372 151.484 179.356Z" stroke="white" stroke-width="0.8956" stroke-miterlimit="10"/>
<path d="M142.516 179.356C142.516 180.34 143.313 181.137 144.297 181.137C145.281 181.137 146.078 180.339 146.078 179.356C146.078 178.372 145.28 177.575 144.297 177.575C143.312 177.574 142.516 178.372 142.516 179.356Z" stroke="white" stroke-width="0.8956" stroke-miterlimit="10"/>
<path d="M420.456 94.7699H335.49C330.804 94.7699 327.006 90.9713 327.006 86.2854C327.006 81.5994 330.804 77.8008 335.49 77.8008H420.456C425.142 77.8008 428.94 81.5994 428.94 86.2854C428.94 90.9713 425.142 94.7699 420.456 94.7699Z" fill="white" stroke="#495AD6" stroke-width="0.8956" stroke-miterlimit="10"/>
<path d="M419.213 85.7005C419.213 88.1928 417.194 90.2124 414.701 90.2124C412.209 90.2124 410.189 88.1928 410.189 85.7005C410.189 83.2081 412.209 81.1885 414.701 81.1885C417.194 81.1885 419.213 83.2081 419.213 85.7005Z" stroke="#495AD6" stroke-width="1.6716" stroke-miterlimit="10"/>
<path d="M417.893 88.8906L420.384 91.3821" stroke="#495AD6" stroke-width="1.6716" stroke-miterlimit="10" stroke-linecap="round"/>
<path d="M291.75 325.53H270.375C266.635 325.53 263.604 322.498 263.604 318.759V297.384C263.604 293.644 266.635 290.612 270.375 290.612H291.75C295.49 290.612 298.521 293.644 298.521 297.384V318.759C298.521 322.498 295.49 325.53 291.75 325.53Z" fill="#193091"/>
<path d="M285.387 325.53H264.012C260.272 325.53 257.24 322.498 257.24 318.759V297.384C257.24 293.644 260.272 290.612 264.012 290.612H285.387C289.126 290.612 292.158 293.644 292.158 297.384V318.759C292.158 322.498 289.126 325.53 285.387 325.53Z" fill="#495AD6"/>
<path d="M270.574 301.481L280.597 307.268C281.215 307.625 281.215 308.518 280.597 308.875L270.574 314.662C269.956 315.02 269.182 314.572 269.182 313.858V302.285C269.183 301.571 269.956 301.124 270.574 301.481Z" fill="white"/>
<path d="M512.855 325.531H484.912C480.024 325.531 476.061 321.568 476.061 316.679V288.737C476.061 283.848 480.024 279.885 484.912 279.885H512.855C517.744 279.885 521.707 283.848 521.707 288.737V316.679C521.707 321.567 517.744 325.531 512.855 325.531Z" fill="#193091"/>
<path d="M504.537 325.531H476.594C471.705 325.531 467.742 321.568 467.742 316.679V288.737C467.742 283.848 471.705 279.885 476.594 279.885H504.537C509.425 279.885 513.388 283.848 513.388 288.737V316.679C513.388 321.567 509.425 325.531 504.537 325.531Z" fill="#495AD6"/>
<path d="M496.049 291.083C496.049 294.112 493.594 296.568 490.565 296.568C487.535 296.568 485.08 294.112 485.08 291.083C485.08 288.054 487.535 285.599 490.565 285.599C493.594 285.599 496.049 288.054 496.049 291.083Z" fill="white"/>
<path d="M501.999 309.652V317.747C501.999 318.479 501.406 319.072 500.675 319.072H480.458C479.726 319.072 479.133 318.479 479.133 317.747V309.652C479.133 303.338 484.251 298.219 490.566 298.219C496.881 298.22 501.999 303.338 501.999 309.652Z" fill="white"/>
<path d="M388.487 104.545H370.54C369.795 104.545 369.191 103.941 369.191 103.196C369.191 102.451 369.795 101.848 370.54 101.848H388.487C389.232 101.848 389.835 102.451 389.835 103.196C389.835 103.94 389.232 104.545 388.487 104.545Z" fill="#F0F4FF"/>
<path d="M406.442 104.545H393.454C392.709 104.545 392.105 103.941 392.105 103.196C392.105 102.451 392.709 101.848 393.454 101.848H406.442C407.187 101.848 407.79 102.451 407.79 103.196C407.791 103.94 407.187 104.545 406.442 104.545Z" fill="#F0F4FF"/>
<path d="M378.164 110.474H370.54C369.795 110.474 369.191 109.871 369.191 109.126C369.191 108.381 369.795 107.777 370.54 107.777H378.164C378.909 107.777 379.513 108.381 379.513 109.126C379.513 109.87 378.909 110.474 378.164 110.474Z" fill="#F0F4FF"/>
<path d="M406.44 110.474H382.69C381.945 110.474 381.342 109.871 381.342 109.126C381.342 108.381 381.945 107.777 382.69 107.777H406.44C407.185 107.777 407.788 108.381 407.788 109.126C407.789 109.87 407.185 110.474 406.44 110.474Z" fill="#F0F4FF"/>
<path d="M394.197 116.404H370.54C369.795 116.404 369.191 115.801 369.191 115.056C369.191 114.311 369.795 113.707 370.54 113.707H394.197C394.942 113.707 395.546 114.311 395.546 115.056C395.546 115.8 394.942 116.404 394.197 116.404Z" fill="#F0F4FF"/>
<path d="M406.439 116.404H398.813C398.068 116.404 397.465 115.801 397.465 115.056C397.465 114.311 398.068 113.707 398.813 113.707H406.439C407.184 113.707 407.787 114.311 407.787 115.056C407.788 115.8 407.184 116.404 406.439 116.404Z" fill="#F0F4FF"/>
<path d="M161.23 242.286H98.5792C96.7247 242.286 95.2207 240.782 95.2207 238.928V207.302C95.2207 205.446 96.7247 203.943 98.5792 203.943H161.23C163.084 203.943 164.588 205.447 164.588 207.302V238.928C164.589 240.783 163.085 242.286 161.23 242.286Z" fill="#193091"/>
<path d="M98.1699 209.122H161.642" stroke="white" stroke-width="0.8956" stroke-miterlimit="10" stroke-linecap="round"/>
<path d="M159.966 207.256C160.39 207.256 160.735 206.912 160.735 206.487C160.735 206.063 160.39 205.719 159.966 205.719C159.541 205.719 159.197 206.063 159.197 206.487C159.197 206.912 159.541 207.256 159.966 207.256Z" fill="white"/>
<path d="M155.956 207.256C156.381 207.256 156.725 206.912 156.725 206.487C156.725 206.063 156.381 205.719 155.956 205.719C155.532 205.719 155.188 206.063 155.188 206.487C155.188 206.912 155.532 207.256 155.956 207.256Z" fill="white"/>
<path d="M151.948 207.256C152.373 207.256 152.717 206.912 152.717 206.487C152.717 206.063 152.373 205.719 151.948 205.719C151.524 205.719 151.18 206.063 151.18 206.487C151.18 206.912 151.524 207.256 151.948 207.256Z" fill="white"/>
<path d="M110.002 214.285H99.2312C98.6452 214.285 98.1699 213.809 98.1699 213.223C98.1699 212.637 98.6452 212.162 99.2312 212.162H110.002C110.588 212.162 111.063 212.637 111.063 213.223C111.063 213.809 110.588 214.285 110.002 214.285Z" fill="#6589D1"/>
<path d="M110.004 219.19H99.2331C98.6472 219.19 98.1719 218.715 98.1719 218.129C98.1719 217.543 98.6472 217.067 99.2331 217.067H110.004C110.59 217.067 111.065 217.543 111.065 218.129C111.065 218.715 110.59 219.19 110.004 219.19Z" fill="#6589D1"/>
<path d="M110.004 224.095H99.2331C98.6472 224.095 98.1719 223.62 98.1719 223.034C98.1719 222.448 98.6472 221.973 99.2331 221.973H110.004C110.59 221.973 111.065 222.448 111.065 223.034C111.065 223.62 110.59 224.095 110.004 224.095Z" fill="#6589D1"/>
<path d="M110.004 229H99.2331C98.6472 229 98.1719 228.525 98.1719 227.939C98.1719 227.353 98.6472 226.878 99.2331 226.878H110.004C110.59 226.878 111.065 227.353 111.065 227.939C111.065 228.525 110.59 229 110.004 229Z" fill="#6589D1"/>
<path d="M110.004 233.904H99.2331C98.6472 233.904 98.1719 233.428 98.1719 232.842C98.1719 232.257 98.6472 231.781 99.2331 231.781H110.004C110.59 231.781 111.065 232.257 111.065 232.842C111.065 233.429 110.59 233.904 110.004 233.904Z" fill="#6589D1"/>
<path d="M110.004 238.81H99.2331C98.6472 238.81 98.1719 238.335 98.1719 237.749C98.1719 237.163 98.6472 236.688 99.2331 236.688H110.004C110.59 236.688 111.065 237.163 111.065 237.749C111.065 238.335 110.59 238.81 110.004 238.81Z" fill="#6589D1"/>
<path d="M160.581 214.285H114.167C113.581 214.285 113.105 213.809 113.105 213.223C113.105 212.637 113.581 212.162 114.167 212.162H160.581C161.167 212.162 161.642 212.637 161.642 213.223C161.643 213.809 161.167 214.285 160.581 214.285Z" fill="#3B5FB7"/>
<path d="M160.581 219.19H114.167C113.581 219.19 113.105 218.715 113.105 218.129C113.105 217.543 113.581 217.067 114.167 217.067H160.581C161.167 217.067 161.642 217.543 161.642 218.129C161.643 218.715 161.167 219.19 160.581 219.19Z" fill="#3B5FB7"/>
<path d="M160.581 224.095H114.167C113.581 224.095 113.105 223.62 113.105 223.034C113.105 222.448 113.581 221.973 114.167 221.973H160.581C161.167 221.973 161.642 222.448 161.642 223.034C161.643 223.62 161.167 224.095 160.581 224.095Z" fill="#3B5FB7"/>
<path d="M160.581 229H114.167C113.581 229 113.105 228.525 113.105 227.939C113.105 227.353 113.581 226.878 114.167 226.878H160.581C161.167 226.878 161.642 227.353 161.642 227.939C161.643 228.525 161.167 229 160.581 229Z" fill="#3B5FB7"/>
<path d="M160.581 233.904H114.167C113.581 233.904 113.105 233.428 113.105 232.842C113.105 232.257 113.581 231.781 114.167 231.781H160.581C161.167 231.781 161.642 232.257 161.642 232.842C161.643 233.429 161.167 233.904 160.581 233.904Z" fill="#3B5FB7"/>
<path d="M160.581 238.81H114.167C113.581 238.81 113.105 238.335 113.105 237.749C113.105 237.163 113.581 236.688 114.167 236.688H160.581C161.167 236.688 161.642 237.163 161.642 237.749C161.643 238.335 161.167 238.81 160.581 238.81Z" fill="#3B5FB7"/>
<path d="M486.456 41.975C490.131 26.6378 480.676 11.2257 465.339 7.55106C450.002 3.87644 434.59 13.3308 430.915 28.668C427.241 44.0052 436.695 59.4173 452.032 63.092C467.369 66.7666 482.781 57.3122 486.456 41.975Z" stroke="#DEE3FC" stroke-width="0.7896" stroke-miterlimit="10"/>
<path d="M468.731 58.0523C481.27 52.5047 486.938 37.8427 481.39 25.3037C475.842 12.7647 461.18 7.09707 448.641 12.6447C436.102 18.1922 430.435 32.8543 435.982 45.3933C441.53 57.9323 456.192 63.5999 468.731 58.0523Z" fill="#3945BA"/>
<path d="M460.939 35.3308C460.939 36.5792 459.927 37.5903 458.679 37.5903C457.431 37.5903 456.42 36.5783 456.42 35.3308C456.42 34.0825 457.432 33.0713 458.679 33.0713C459.927 33.0704 460.939 34.0825 460.939 35.3308Z" fill="white"/>
<path d="M458.433 34.8868C458.091 35.0756 457.662 34.9527 457.472 34.6109L450.171 21.4413C449.982 21.0995 450.105 20.67 450.446 20.4802C450.788 20.2913 451.218 20.4143 451.408 20.7552L458.709 33.9248C458.898 34.2674 458.775 34.6979 458.433 34.8868Z" fill="white"/>
<path d="M459.037 35.6893C459.313 35.4135 459.761 35.4135 460.037 35.6893L466.353 42.0057C466.629 42.2816 466.629 42.7296 466.353 43.0055C466.077 43.2813 465.629 43.2813 465.353 43.0055L459.037 36.689C458.761 36.4132 458.761 35.9652 459.037 35.6893Z" fill="white"/>
<path d="M458.83 15.4586V12.6035" stroke="white" stroke-width="2" stroke-miterlimit="10" stroke-linecap="round"/>
<path d="M478.551 35.4824H481.406" stroke="white" stroke-width="2" stroke-miterlimit="10" stroke-linecap="round"/>
<path d="M458.525 55.2012V58.0563" stroke="white" stroke-width="2" stroke-miterlimit="10" stroke-linecap="round"/>
<path d="M438.806 35.1787H435.951" stroke="white" stroke-width="2" stroke-miterlimit="10" stroke-linecap="round"/>
<g opacity="0.5">
<path d="M448.875 18.0462L447.447 15.5732" stroke="#DEE3FC" stroke-miterlimit="10" stroke-linecap="round"/>
<path d="M475.965 25.5272L478.437 24.0996" stroke="#DEE3FC" stroke-miterlimit="10" stroke-linecap="round"/>
<path d="M468.484 52.6152L469.912 55.0882" stroke="#DEE3FC" stroke-miterlimit="10" stroke-linecap="round"/>
<path d="M441.395 45.1348L438.922 46.5623" stroke="#DEE3FC" stroke-miterlimit="10" stroke-linecap="round"/>
</g>
<g opacity="0.5">
<path d="M441.544 25.2635L439.072 23.8359" stroke="#DEE3FC" stroke-miterlimit="10" stroke-linecap="round"/>
<path d="M468.746 18.1966L470.174 15.7236" stroke="#DEE3FC" stroke-miterlimit="10" stroke-linecap="round"/>
<path d="M475.812 45.3975L478.285 46.825" stroke="#DEE3FC" stroke-miterlimit="10" stroke-linecap="round"/>
<path d="M448.611 52.4629L447.184 54.9359" stroke="#DEE3FC" stroke-miterlimit="10" stroke-linecap="round"/>
</g>
<path d="M119.393 179.039H88.0353C83.3924 179.039 79.6289 175.276 79.6289 170.633V139.275C79.6289 134.632 83.3924 130.868 88.0353 130.868H119.393C124.036 130.868 127.8 134.632 127.8 139.275V170.633C127.8 175.275 124.036 179.039 119.393 179.039Z" fill="#193091"/>
<path d="M117.333 174.866H82.632C78.9124 174.866 75.8965 171.851 75.8965 168.131V133.43C75.8965 129.71 78.9115 126.694 82.632 126.694H117.333C121.052 126.694 124.068 129.709 124.068 133.43V168.131C124.067 171.85 121.052 174.866 117.333 174.866Z" fill="#7E89FD" stroke="#DEE3FC" stroke-miterlimit="10"/>
<path d="M108.323 145.265H108.072V142.506C108.072 137.976 104.388 134.292 99.8588 134.292C95.3293 134.292 91.6457 137.976 91.6457 142.506V145.265H91.5903C90.3174 145.265 89.2852 146.298 89.2852 147.571V157.969C89.2852 159.242 90.3174 160.275 91.5903 160.275H108.323C109.596 160.275 110.628 159.242 110.628 157.969V147.571C110.628 146.297 109.596 145.265 108.323 145.265ZM93.726 142.506C93.726 139.125 96.4783 136.373 99.8588 136.373C103.239 136.373 105.992 139.125 105.992 142.506V145.265H93.7251L93.726 142.506Z" fill="#DEE3FC"/>
<path d="M102.66 150.61C102.66 148.949 101.151 147.642 99.4291 147.985C98.4144 148.187 97.5728 149.019 97.3611 150.032C97.1063 151.253 97.6835 152.367 98.6288 152.92C98.8203 153.032 98.9301 153.243 98.8721 153.458L98.4056 155.179C98.1289 156.202 98.8993 157.209 99.9588 157.209C101.019 157.209 101.79 156.202 101.513 155.179L101.052 153.476C100.993 153.259 101.105 153.045 101.301 152.934C102.112 152.474 102.66 151.608 102.66 150.61Z" fill="#7E89FD"/>
<path d="M109.639 163.92H90.2735C89.7279 163.92 89.2852 163.477 89.2852 162.932C89.2852 162.386 89.7279 161.943 90.2735 161.943H109.639C110.185 161.943 110.628 162.386 110.628 162.932C110.628 163.478 110.185 163.92 109.639 163.92Z" fill="#DEE3FC"/>
<path d="M109.639 167.271H90.2735C89.7279 167.271 89.2852 166.828 89.2852 166.282C89.2852 165.737 89.7279 165.294 90.2735 165.294H109.639C110.185 165.294 110.628 165.737 110.628 166.282C110.628 166.828 110.185 167.271 109.639 167.271Z" fill="#DEE3FC"/>
<path d="M498.832 235.663H480.371C477.638 235.663 475.422 233.447 475.422 230.713V212.252C475.422 209.519 477.637 207.304 480.371 207.304H498.832C501.565 207.304 503.781 209.519 503.781 212.252V230.713C503.781 233.447 501.565 235.663 498.832 235.663Z" fill="#193091"/>
<path d="M497.618 233.206H477.189C474.999 233.206 473.225 231.43 473.225 229.241V208.812C473.225 206.622 475 204.848 477.189 204.848H497.618C499.808 204.848 501.583 206.623 501.583 208.812V229.241C501.583 231.43 499.808 233.206 497.618 233.206Z" fill="#7E89FD" stroke="#DEE3FC" stroke-miterlimit="10"/>
<path d="M481.673 227.494C481.593 227.494 481.513 227.484 481.433 227.461C480.965 227.33 480.694 226.844 480.827 226.378L485.115 211.196C485.247 210.728 485.735 210.455 486.199 210.59C486.666 210.721 486.937 211.207 486.805 211.674L482.516 226.855C482.408 227.242 482.055 227.494 481.673 227.494Z" fill="white"/>
<path d="M488.844 227.494C488.764 227.494 488.684 227.484 488.605 227.461C488.137 227.33 487.866 226.844 487.998 226.378L492.288 211.196C492.419 210.728 492.908 210.455 493.371 210.59C493.839 210.721 494.11 211.207 493.978 211.674L489.688 226.855C489.579 227.242 489.227 227.494 488.844 227.494Z" fill="white"/>
<path d="M494.994 216.465H479.812C479.326 216.465 478.934 216.072 478.934 215.587C478.934 215.101 479.326 214.708 479.812 214.708H494.994C495.479 214.708 495.872 215.101 495.872 215.587C495.872 216.072 495.479 216.465 494.994 216.465Z" fill="white"/>
<path d="M494.994 223.4H479.812C479.326 223.4 478.934 223.007 478.934 222.521C478.934 222.035 479.326 221.643 479.812 221.643H494.994C495.479 221.643 495.872 222.035 495.872 222.521C495.872 223.007 495.479 223.4 494.994 223.4Z" fill="white"/>
<path d="M156.48 145.579H145.5C144.835 145.579 144.297 145.04 144.297 144.375C144.297 143.71 144.836 143.172 145.5 143.172H156.48C157.145 143.172 157.683 143.711 157.683 144.375C157.683 145.04 157.145 145.579 156.48 145.579Z" fill="#F0F4FF"/>
<path d="M167.54 150.924H145.5C144.835 150.924 144.297 150.384 144.297 149.72C144.297 149.055 144.836 148.517 145.5 148.517H167.54C168.205 148.517 168.744 149.056 168.744 149.72C168.744 150.385 168.205 150.924 167.54 150.924Z" fill="#F0F4FF"/>
<path d="M148.103 156.267H145.5C144.835 156.267 144.297 155.729 144.297 155.064C144.297 154.399 144.836 153.86 145.5 153.86H148.103C148.768 153.86 149.307 154.399 149.307 155.064C149.307 155.728 148.768 156.267 148.103 156.267Z" fill="#F0F4FF"/>
<path d="M167.54 156.267H152.194C151.529 156.267 150.99 155.729 150.99 155.064C150.99 154.399 151.53 153.86 152.194 153.86H167.54C168.205 153.86 168.744 154.399 168.744 155.064C168.744 155.728 168.205 156.267 167.54 156.267Z" fill="#F0F4FF"/>
<path d="M167.541 145.579H160.885C160.22 145.579 159.682 145.04 159.682 144.375C159.682 143.71 160.221 143.172 160.885 143.172H167.541C168.206 143.172 168.744 143.711 168.744 144.375C168.744 145.04 168.206 145.579 167.541 145.579Z" fill="#F0F4FF"/>
<path d="M105.624 309.793C104.194 309.793 102.855 310.186 101.709 310.868C101.25 306.769 97.7736 303.582 93.5515 303.582C89.0167 303.582 85.3402 307.259 85.3402 311.793C85.3402 312.097 85.3577 312.397 85.3902 312.693C85.0134 312.623 84.6259 312.584 84.2289 312.584C80.7658 312.584 77.959 315.391 77.959 318.854C77.959 322.317 80.7658 325.124 84.2289 325.124H105.625C109.858 325.124 113.29 321.692 113.29 317.459C113.29 313.224 109.857 309.793 105.624 309.793Z" fill="white"/>
<path d="M51.2104 276.871C51.003 275.724 51.0312 274.552 51.3202 273.423C52.2874 269.642 53.3943 262.534 50.9345 254.853C46.831 242.04 30.1992 230.691 30.1992 230.691C30.1992 230.691 34.7138 249.599 38.4255 257.651C41.1427 263.546 45.8963 270.254 48.5344 273.785C49.2662 274.766 49.7679 275.895 49.9857 277.098C52.6748 291.978 52.2857 303.496 52.2786 303.674L53.527 303.722C53.5331 303.543 53.9285 291.907 51.2104 276.871Z" fill="#DEE3FC"/>
<path d="M64.4709 264.824C67.775 254.379 69.3115 242.074 69.3115 242.074C69.3115 242.074 54.3989 254.379 53.1769 263.9C52.4284 269.731 53.3588 274.408 54.1933 277.161C54.5474 278.329 54.6765 279.551 54.5456 280.765C53.0363 294.776 54.2188 305.514 54.2373 305.678L55.36 305.549C55.3415 305.391 54.2443 295.4 55.5366 282.161C55.7131 280.348 56.4441 278.634 57.5914 277.22C59.7253 274.586 62.7763 270.181 64.4709 264.824Z" fill="#B4C1EF"/>
<path d="M79.6306 241.589C79.6306 241.589 63.561 247.552 59.3591 260.673C56.8018 268.658 58.0097 276.039 59.0095 279.863C59.2897 280.935 59.2748 282.055 59.006 283.131C55.2416 298.23 55.1836 313.86 55.1836 314.067H56.4627C56.4627 313.863 56.5207 298.606 60.1559 283.799C60.517 282.329 61.1583 280.946 62.0614 279.729C64.8023 276.038 69.4663 269.396 72.1668 263.537C75.969 255.293 79.6306 241.589 79.6306 241.589Z" fill="#DEE3FC"/>
<path d="M51.2758 296.948C50.8761 291.455 49.3791 286.511 47.565 282.363C47.2022 281.532 47.074 280.623 47.1899 279.724C47.4148 277.991 47.5071 275.3 46.8148 271.881C45.5111 265.444 36.9668 251.537 24.5957 250.722C24.5957 250.722 28.8643 257.584 31.0606 263.326C33.8393 270.59 37.8057 278.188 44.384 281.105C45.541 281.618 46.4467 282.578 46.929 283.747C48.5147 287.591 49.7876 292.081 50.1478 297.029L51.2758 296.948Z" fill="#B4C1EF"/>
<path d="M42.912 325.121H63.3266L68.6231 292.752C68.8577 291.32 67.7516 290.019 66.3003 290.019H39.9382C38.4869 290.019 37.3809 291.32 37.6155 292.752L42.912 325.121Z" fill="#DEE3FC"/>
<path d="M1 325.121H572.22" stroke="white" stroke-width="1.1144" stroke-miterlimit="10" stroke-linecap="round"/>
</svg>
