<svg width="49" height="48" viewBox="0 0 49 48" fill="none" xmlns="http://www.w3.org/2000/svg">
<g clip-path="url(#clip0_110_126)">
<path d="M24.7311 28.2751C27.0921 28.2751 29.0061 26.3611 29.0061 24.0001C29.0061 21.6391 27.0921 19.7251 24.7311 19.7251C22.37 19.7251 20.4561 21.6391 20.4561 24.0001C20.4561 26.3611 22.37 28.2751 24.7311 28.2751Z" fill="#61DAFB"/>
<path d="M40.9684 16.9501C40.1434 16.6501 39.2809 16.3501 38.3809 16.0876C38.6059 15.1876 38.7934 14.2876 38.9434 13.4251C39.7309 8.4751 38.8684 4.9876 36.4684 3.6376C35.7559 3.2251 34.9684 3.0376 34.0684 3.0376C31.4434 3.0376 28.1059 4.9876 24.7309 8.2501C21.3559 4.9876 18.0184 3.0376 15.3934 3.0376C14.4934 3.0376 13.7059 3.2251 12.9934 3.6376C10.5934 5.0251 9.73086 8.5126 10.5184 13.4251C10.6684 14.2876 10.8559 15.1876 11.0809 16.0876C10.1809 16.3501 9.31836 16.6126 8.49336 16.9501C3.80586 18.7501 1.25586 21.2251 1.25586 24.0001C1.25586 26.7751 3.84336 29.2501 8.49336 31.0501C9.31836 31.3501 10.1809 31.6501 11.0809 31.9126C10.8559 32.8126 10.6684 33.7126 10.5184 34.5751C9.73086 39.5251 10.5934 43.0126 12.9934 44.3626C13.7059 44.7751 14.4934 44.9626 15.3934 44.9626C18.0559 44.9626 21.3934 43.0126 24.7309 39.7501C28.1059 43.0126 31.4434 44.9626 34.0684 44.9626C34.9684 44.9626 35.7559 44.7751 36.4684 44.3626C38.8684 42.9751 39.7309 39.4876 38.9434 34.5751C38.7934 33.7126 38.6059 32.8126 38.3809 31.9126C39.2809 31.6501 40.1434 31.3876 40.9684 31.0501C45.6559 29.2501 48.2059 26.7751 48.2059 24.0001C48.2059 21.2251 45.6559 18.7501 40.9684 16.9501ZM35.4184 5.5126C36.9559 6.4126 37.4809 9.1876 36.8434 13.1251C36.7309 13.9126 36.5434 14.7376 36.3184 15.6001C34.3684 15.1501 32.3059 14.8501 30.1309 14.6626C28.8559 12.8626 27.5434 11.2501 26.2309 9.7876C29.0059 7.0501 31.8184 5.1751 34.1059 5.1751C34.5934 5.1751 35.0434 5.2876 35.4184 5.5126ZM31.2184 27.7501C30.5434 28.9501 29.7559 30.1501 28.9309 31.3501C27.5434 31.4626 26.1559 31.5001 24.7309 31.5001C23.2684 31.5001 21.8809 31.4626 20.5309 31.3501C19.7059 30.1501 18.9559 28.9501 18.2809 27.7501C17.5684 26.5126 16.8934 25.2376 16.2934 24.0001C16.8934 22.7626 17.5684 21.4876 18.2809 20.2501C18.9559 19.0501 19.7434 17.8501 20.5684 16.6501C21.9559 16.5376 23.3434 16.5001 24.7684 16.5001C26.2309 16.5001 27.6184 16.5376 28.9684 16.6501C29.7934 17.8501 30.5434 19.0501 31.2184 20.2501C31.9309 21.4876 32.6059 22.7626 33.2059 24.0001C32.5684 25.2376 31.9309 26.4751 31.2184 27.7501ZM34.3309 26.5126C34.8934 27.8251 35.3434 29.1001 35.7559 30.3751C34.4809 30.6751 33.1309 30.9001 31.7059 31.0876C32.1559 30.3751 32.6434 29.6251 33.0559 28.8376C33.5059 28.0501 33.9184 27.2626 34.3309 26.5126ZM24.7309 36.6751C23.8309 35.7001 22.9684 34.6501 22.1434 33.5626C23.0059 33.6001 23.8684 33.6376 24.7309 33.6376C25.5934 33.6376 26.4559 33.6001 27.3184 33.5626C26.4934 34.6501 25.6309 35.7001 24.7309 36.6751ZM17.7559 31.0501C16.3309 30.8626 14.9809 30.6376 13.7059 30.3376C14.1184 29.1001 14.5684 27.7876 15.1309 26.4751C15.5434 27.2251 15.9559 28.0126 16.4059 28.7626C16.8559 29.5876 17.3059 30.3001 17.7559 31.0501ZM15.1309 21.4876C14.5684 20.1751 14.1184 18.9001 13.7059 17.6251C14.9809 17.3251 16.3309 17.1001 17.7559 16.9126C17.3059 17.6251 16.8184 18.3751 16.4059 19.1626C15.9559 19.9501 15.5434 20.7376 15.1309 21.4876ZM24.7309 11.3251C25.6309 12.3001 26.4934 13.3501 27.3184 14.4376C26.4559 14.4001 25.5934 14.3626 24.7309 14.3626C23.8684 14.3626 23.0059 14.4001 22.1434 14.4376C22.9684 13.3501 23.8309 12.3001 24.7309 11.3251ZM33.0559 19.2001L31.7059 16.9501C33.1309 17.1376 34.4809 17.3626 35.7559 17.6626C35.3434 18.9001 34.8934 20.2126 34.3309 21.5251C33.9184 20.7376 33.5059 19.9501 33.0559 19.2001ZM12.6184 13.1251C11.9809 9.1876 12.5059 6.4126 14.0434 5.5126C14.4184 5.2876 14.8684 5.1751 15.3559 5.1751C17.6059 5.1751 20.4184 7.0126 23.2309 9.7876C21.9184 11.2126 20.6059 12.8626 19.3309 14.6626C17.1559 14.8501 15.0934 15.1876 13.1434 15.6001C12.9184 14.7376 12.7684 13.9126 12.6184 13.1251ZM3.35586 24.0001C3.35586 22.2376 5.49336 20.3626 9.24336 18.9751C9.99336 18.6751 10.8184 18.4126 11.6434 18.1876C12.2434 20.0626 12.9934 22.0501 13.8934 24.0376C12.9934 26.0251 12.2059 27.9751 11.6434 29.8501C6.46836 28.3501 3.35586 26.1001 3.35586 24.0001ZM14.0434 42.4876C12.5059 41.5876 11.9809 38.8126 12.6184 34.8751C12.7309 34.0876 12.9184 33.2626 13.1434 32.4001C15.0934 32.8501 17.1559 33.1501 19.3309 33.3376C20.6059 35.1376 21.9184 36.7501 23.2309 38.2126C20.4559 40.9501 17.6434 42.8251 15.3559 42.8251C14.8684 42.8251 14.4184 42.7126 14.0434 42.4876ZM36.8434 34.8751C37.4809 38.8126 36.9559 41.5876 35.4184 42.4876C35.0434 42.7126 34.5934 42.8251 34.1059 42.8251C31.8559 42.8251 29.0434 40.9876 26.2309 38.2126C27.5434 36.7876 28.8559 35.1376 30.1309 33.3376C32.3059 33.1501 34.3684 32.8126 36.3184 32.4001C36.5434 33.2626 36.6934 34.0876 36.8434 34.8751ZM40.2184 29.0251C39.4684 29.3251 38.6434 29.5876 37.8184 29.8126C37.2184 27.9376 36.4684 25.9501 35.5684 23.9626C36.4684 21.9751 37.2559 20.0251 37.8184 18.1501C42.9934 19.6501 46.1059 21.9001 46.1059 24.0001C46.1059 25.7626 43.9309 27.6376 40.2184 29.0251Z" fill="#61DAFB"/>
</g>
<defs>
<clipPath id="clip0_110_126">
<rect width="48" height="48" fill="white" transform="translate(0.730957)"/>
</clipPath>
</defs>
</svg>
