<svg width="48" height="48" viewBox="0 0 48 48" fill="none" xmlns="http://www.w3.org/2000/svg">
<g clip-path="url(#clip0_104_412)">
<path d="M8.5 0H39.5C44.2 0 48 3.89744 48 8.71795V39.2821C48 44.1026 44.2 48 39.5 48H8.5C3.8 48 0 44.1026 0 39.2821V8.71795C0 3.89744 3.8 0 8.5 0Z" fill="#001E36"/>
<path fill-rule="evenodd" clip-rule="evenodd" d="M10 13.4442V34.213C10 34.3946 10.08 34.4754 10.24 34.4754H14.04H14.12C14.26 34.4552 14.36 34.3341 14.34 34.1928V27.7139C14.7199 27.7139 15 27.7139 15.2 27.7341C15.4 27.7543 15.72 27.7543 16.2 27.7543C17.84 27.7543 19.34 27.5726 20.7 27.068C22 26.5836 23.12 25.7359 23.92 24.6056C24.72 23.4754 25.12 22.0423 25.12 20.3066C25.12 19.3983 24.96 18.5304 24.66 17.6827C24.34 16.8148 23.84 16.0277 23.2 15.3818C22.44 14.635 21.52 14.0699 20.52 13.7267C19.4 13.3029 18.04 13.1011 16.4 13.1011C15.8 13.1011 15.2 13.1011 14.58 13.1212C14.2807 13.131 13.9907 13.136 13.71 13.1409C13.4093 13.1461 13.1193 13.1512 12.84 13.1616C12.5781 13.1714 12.3256 13.1764 12.0802 13.1813C11.8197 13.1865 11.5672 13.1916 11.32 13.202C10.86 13.2222 10.54 13.2222 10.2 13.2222C10.06 13.2222 10 13.3029 10 13.4442ZM14.36 23.8992V17.1176C14.5 17.0974 14.78 17.0772 15.18 17.0974C15.56 17.0772 16.02 17.0772 16.54 17.0772C17.36 17.057 18.16 17.1781 18.9 17.4809C19.48 17.7029 19.96 18.1066 20.3 18.6313C20.62 19.1763 20.78 19.802 20.76 20.4277C20.76 21.3157 20.56 22.002 20.14 22.5066C19.7 23.0111 19.14 23.3946 18.5 23.5763C17.76 23.8185 16.98 23.9396 16.2 23.9396H15.14C14.9172 23.9396 14.6772 23.9222 14.42 23.9036C14.4001 23.9021 14.3801 23.9007 14.36 23.8992Z" fill="#31A8FF"/>
<path d="M37.5999 22.6679C36.9999 22.345 36.3599 22.123 35.6799 21.9817C34.9399 21.8202 34.1999 21.7193 33.4399 21.7193C33.0399 21.6991 32.6199 21.7597 32.2399 21.8606C31.9799 21.9211 31.7599 22.0624 31.6199 22.2642C31.5199 22.4257 31.4599 22.6275 31.4599 22.8092C31.4599 22.9908 31.5399 23.1725 31.6599 23.334C31.8399 23.556 32.0799 23.7376 32.3399 23.8789C32.7999 24.1211 33.2799 24.3431 33.7599 24.545C34.8399 24.9083 35.8799 25.4129 36.8399 26.0184C37.4999 26.4422 38.0399 27.0074 38.4199 27.6936C38.7399 28.3395 38.8999 29.0459 38.8799 29.7725C38.8999 30.7211 38.6199 31.6697 38.0999 32.4569C37.5399 33.2642 36.7599 33.8899 35.8599 34.2532C34.8799 34.6771 33.6799 34.8991 32.2399 34.8991C31.3199 34.8991 30.4199 34.8184 29.5199 34.6367C28.8199 34.5156 28.1199 34.2936 27.4799 33.9908C27.3399 33.9101 27.2399 33.7688 27.2599 33.6074V30.0954C27.2599 30.0349 27.2799 29.9542 27.3399 29.9138C27.3999 29.8734 27.4599 29.8936 27.5199 29.934C28.2999 30.3982 29.1199 30.7211 29.9999 30.923C30.7599 31.1248 31.5599 31.2257 32.3599 31.2257C33.1199 31.2257 33.6599 31.1248 34.0199 30.9431C34.3399 30.8019 34.5599 30.4587 34.5599 30.0954C34.5599 29.8129 34.3999 29.5505 34.0799 29.2881C33.7599 29.0257 33.0999 28.723 32.1199 28.3395C31.0999 27.9762 30.1599 27.4918 29.2799 26.8863C28.6599 26.4422 28.1399 25.8569 27.7599 25.1707C27.4399 24.5248 27.2799 23.8184 27.2999 23.1119C27.2999 22.2441 27.5399 21.4165 27.9799 20.6697C28.4799 19.8624 29.2199 19.2165 30.0799 18.8129C31.0199 18.3285 32.1999 18.1064 33.6199 18.1064C34.4399 18.1064 35.2799 18.167 36.0999 18.2881C36.6999 18.3688 37.2799 18.5303 37.8199 18.7523C37.8999 18.7725 37.9799 18.8532 38.0199 18.934C38.0399 19.0147 38.0599 19.0954 38.0599 19.1762V22.4661C38.0599 22.5468 38.0199 22.6275 37.9599 22.6679C37.7799 22.7083 37.6799 22.7083 37.5999 22.6679Z" fill="#31A8FF"/>
</g>
<defs>
<clipPath id="clip0_104_412">
<rect width="48" height="48" fill="white"/>
</clipPath>
</defs>
</svg>
