<svg width="120" height="35" viewBox="0 0 120 35" fill="none" xmlns="http://www.w3.org/2000/svg">
<path d="M83.5858 21.7627V2.37205H100.008C101.533 2.37205 102.637 2.66375 103.319 3.25244C104.007 3.84272 104.348 4.79113 104.348 6.10025V10.3862C104.348 11.6699 104.007 12.6129 103.319 13.2025C102.637 13.7979 101.533 14.0955 100.008 14.0955H87.9811V21.7627H83.5858ZM0.85245 29.9179V31.2924H3.46923C3.66324 31.2924 3.79771 31.2554 3.87255 31.1803C3.94749 31.1062 3.98425 30.9726 3.98425 30.7831V30.4277C3.98425 30.2408 3.94553 30.1078 3.86881 30.0314C3.79291 29.9547 3.65934 29.9179 3.46923 29.9179H0.85245ZM99.7599 31.9532V27.4361H104.307V28.1073H100.612V29.2678H102.839V29.9388H100.612V31.2924H104.348V31.9532H99.7599ZM97.586 28.1073H94.4327V31.271H97.586V30.1945L98.4382 30.356V30.886C98.4382 31.2994 98.3615 31.5802 98.2072 31.7292C98.0527 31.8787 97.7598 31.9532 97.3303 31.9532H94.6777C94.2485 31.9532 93.9572 31.8804 93.8063 31.7367C93.6552 31.5929 93.581 31.3105 93.581 30.886V28.509C93.581 28.0882 93.6571 27.8056 93.8095 27.6583C93.9621 27.5107 94.2513 27.4361 94.6777 27.4361H97.3303C97.7598 27.4361 98.0527 27.5107 98.2072 27.6614C98.3615 27.8126 98.4382 28.0951 98.4382 28.509V28.9354L97.586 29.0757V28.1073ZM87.5999 28.3419C87.6211 28.4735 87.6353 28.6067 87.6459 28.7419C87.6569 28.8786 87.662 29.0132 87.662 29.1486V31.9532H86.8772V27.4361H87.5272L90.8399 30.3869C90.9373 30.4697 91.0302 30.5624 91.1187 30.662C91.2072 30.763 91.2944 30.8786 91.3814 31.0065C91.3573 30.8713 91.339 30.733 91.3265 30.5947C91.3141 30.4555 91.3084 30.3121 91.3084 30.163V27.4361H92.0934V31.9532H91.5111L88.1309 28.9602C88.012 28.8497 87.9103 28.7454 87.8257 28.6454C87.7403 28.5459 87.6655 28.4451 87.5999 28.3419ZM81.1827 31.9532V27.4361H85.7295V28.1073H82.0345V29.2678H84.261V29.9388H82.0345V31.2924H85.7705V31.9532H81.1827ZM75.9758 31.9532V27.4361H76.8278V31.271H80.3397V31.9532H75.9758ZM70.7693 31.9532V27.4361H71.6212V31.271H75.1332V31.9532H70.7693ZM65.0743 31.9532V27.4361H69.6208V28.1073H65.9267V29.2678H68.153V29.9388H65.9267V31.2924H69.662V31.9532H65.0743ZM62.8999 28.1073H59.7472V31.271H62.8999V30.1945L63.7526 30.356V30.886C63.7526 31.2994 63.6757 31.5802 63.5214 31.7292C63.3669 31.8787 63.0742 31.9532 62.6445 31.9532H59.9923C59.5625 31.9532 59.2715 31.8804 59.1204 31.7367C58.9695 31.5929 58.8952 31.3105 58.8952 30.886V28.509C58.8952 28.0882 58.9715 27.8056 59.1235 27.6583C59.2765 27.5107 59.5657 27.4361 59.9923 27.4361H62.6445C63.0742 27.4361 63.3669 27.5107 63.5214 27.6614C63.6757 27.8126 63.7526 28.0951 63.7526 28.509V28.9354L62.8999 29.0757V28.1073ZM52.4914 31.9532L54.759 29.6422L52.4559 27.4361H53.6101L55.2381 29.0757L56.7308 27.4361H57.7806L55.7049 29.5339L58.244 31.9532H57.0473L55.2272 30.1217L53.5887 31.9532H52.4914ZM47.4887 31.9532V27.4361H52.036V28.1073H48.3413V29.2678H50.5678V29.9388H48.3413V31.2924H52.0767V31.9532H47.4887ZM41.2579 28.1073H37.6876V31.271H41.2579V30.0437H39.4153V29.4293H42.1106V30.886C42.1106 31.2994 42.0339 31.5802 41.8798 31.7292C41.7253 31.8787 41.4321 31.9532 41.0025 31.9532H37.9431C37.5137 31.9532 37.2206 31.8787 37.0664 31.7312C36.9117 31.5844 36.836 31.3031 36.836 30.886V28.509C36.836 28.0951 36.9136 27.8126 37.0703 27.6614C37.2265 27.5107 37.5172 27.4361 37.9431 27.4361H41.0025C41.4233 27.4361 41.7126 27.5107 41.8706 27.6603C42.0304 27.8091 42.1106 28.0719 42.1106 28.4469V28.5763L41.2579 28.7221V28.1073ZM30.8551 28.3419C30.8762 28.4735 30.8905 28.6067 30.9015 28.7419C30.912 28.8786 30.9169 29.0132 30.9169 29.1486V31.9532H30.1321V27.4361H30.7823L34.0949 30.3869C34.1927 30.4697 34.2849 30.5624 34.3735 30.662C34.4624 30.763 34.5492 30.8786 34.6366 31.0065C34.6117 30.8713 34.5938 30.733 34.5816 30.5947C34.5693 30.4555 34.5635 30.3121 34.5635 30.163V27.4361H35.3486V31.9532H34.7663L31.3857 28.9602C31.2669 28.8497 31.1655 28.7454 31.0803 28.6454C30.9953 28.5459 30.9205 28.4451 30.8551 28.3419ZM28.5565 31.9532H27.7075V27.4469H28.5565V31.9532ZM23.3125 28.1073H21.6579V31.271H23.3125C24.0475 31.271 24.5712 31.1468 24.8821 30.9001C25.1928 30.6513 25.3471 30.2425 25.3471 29.6743C25.3471 29.1179 25.1908 28.7186 24.8765 28.4755C24.5624 28.2303 24.0406 28.1073 23.3125 28.1073ZM23.4061 27.4361C23.8362 27.4361 24.1983 27.4645 24.4914 27.5209C24.784 27.5796 25.0257 27.667 25.2153 27.7842C25.5245 27.9798 25.766 28.244 25.9398 28.5784C26.1119 28.9138 26.1988 29.2814 26.1988 29.6851C26.1988 30.4437 25.9685 31.0119 25.5064 31.3881C25.0471 31.765 24.346 31.9532 23.4061 31.9532H20.8055V27.4361H23.4061ZM15.2508 31.9532V27.4361H16.1034V31.271H19.6149V31.9532H15.2508ZM13.6747 31.9532H12.8261V27.4469H13.6747V31.9532ZM7.08878 27.4361V31.271H10.3878V27.4361H11.2506V30.886C11.2506 31.3031 11.1743 31.5844 11.0197 31.7312C10.8652 31.8787 10.572 31.9532 10.1424 31.9532H7.34434C6.91457 31.9532 6.62166 31.8787 6.46746 31.7292C6.31302 31.5802 6.23629 31.2994 6.23629 30.886V27.4361H7.08878ZM3.95242 28.8928V28.4666C3.95242 28.328 3.91668 28.2319 3.84739 28.1767C3.77855 28.1235 3.65235 28.0971 3.46923 28.0971H0.85245V29.2569H3.46923C3.6665 29.2569 3.79593 29.2302 3.85826 29.1785C3.92035 29.1272 3.95242 29.0313 3.95242 28.8928ZM0 31.9532V27.4361H3.81203C4.15819 27.4361 4.41053 27.5073 4.56655 27.6478C4.72297 27.7881 4.80087 28.0117 4.80087 28.3209V28.8411C4.80087 29.0793 4.73857 29.2602 4.61466 29.3851C4.48866 29.5071 4.28971 29.5855 4.01585 29.6156C4.28261 29.6443 4.48493 29.733 4.62484 29.8839C4.76345 30.0351 4.83277 30.2373 4.83277 30.4896V31.0687C4.83277 31.3671 4.72476 31.5887 4.50977 31.7346C4.29516 31.8804 3.96647 31.9532 3.52632 31.9532H0ZM3.9431 15.876H0V16.6948V17.2222C0 18.965 0.32841 20.1563 0.979819 20.8011C1.63688 21.4402 2.90729 21.7627 4.79281 21.7627H15.8833C17.7435 21.7627 19.0082 21.4402 19.6776 20.789C20.3407 20.1437 20.6763 18.9528 20.6763 17.2156V14.4058C20.6763 12.6562 20.3474 11.4656 19.6846 10.8202C19.0267 10.1813 17.7558 9.85882 15.8833 9.85882H3.91212V5.55355H16.7391V7.73682H20.6822V6.40984C20.6822 4.83388 20.3352 3.73626 19.6472 3.11609C18.9588 2.50168 17.7122 2.19141 15.9215 2.19141H4.76752C2.91513 2.19141 1.65494 2.51426 0.998221 3.16509C0.334544 3.81011 0.0062008 5.00208 0.0062008 6.73839V9.03994C0.0062008 10.7883 0.334544 11.98 0.985783 12.6252C1.64326 13.2638 2.90136 13.5867 4.76752 13.5867H16.7328V18.1463H3.9431V15.876ZM25.4328 21.7627V2.19141H29.9029V9.822H43.8459V2.19141H48.3531V21.7627H43.8459V13.314H29.9029V21.7627H25.4328ZM53.1093 21.7627V2.19141H57.5794V21.7627H53.1093ZM62.336 21.7627V2.19141H66.8059V18.1463H78.829V21.7627H62.336ZM98.0301 5.69648H87.9811V10.789H98.0301C98.7929 10.789 99.3201 10.6775 99.6114 10.4605C99.9027 10.2435 100.045 9.84638 100.045 9.26351V7.20417C100.045 6.6705 99.9027 6.28586 99.6114 6.05023C99.3199 5.81435 98.7926 5.69648 98.0301 5.69648ZM103.315 19.8733C103.227 19.9714 103.095 20.033 102.92 20.0587C103.007 20.1096 103.079 20.1657 103.135 20.2268C103.192 20.2879 103.269 20.3966 103.365 20.5525L103.609 20.9438H103.126L102.835 20.506C102.731 20.3505 102.66 20.2524 102.621 20.2118C102.583 20.1716 102.542 20.1437 102.499 20.1286C102.456 20.1139 102.388 20.1064 102.294 20.1064H102.212V20.9438H101.806V18.9383H102.659C102.873 18.9383 103.029 18.9564 103.126 18.9923C103.224 19.0283 103.301 19.0923 103.359 19.1843C103.418 19.2766 103.447 19.3817 103.447 19.5003C103.447 19.6511 103.403 19.7753 103.315 19.8733ZM102.542 18.1464C101.542 18.1464 100.733 18.9719 100.733 19.9555C100.733 20.9552 101.56 21.7627 102.542 21.7627C103.54 21.7627 104.348 20.9382 104.348 19.9555C104.348 18.9595 103.538 18.1464 102.542 18.1464ZM102.512 19.787C102.706 19.787 102.827 19.7786 102.875 19.7623C102.923 19.746 102.962 19.7175 102.989 19.6772C103.016 19.637 103.03 19.5867 103.03 19.5265C103.03 19.4588 103.012 19.4046 102.976 19.3626C102.94 19.321 102.889 19.2949 102.824 19.2841C102.791 19.2795 102.692 19.2771 102.528 19.2771H102.212V19.787H102.512Z" fill="white"/>
</svg>
