<svg width="303" height="274" viewBox="0 0 303 274" fill="none" xmlns="http://www.w3.org/2000/svg">
<rect x="77.2697" y="48.1842" width="180" height="180" fill="#F1F1F1"/>
<path d="M130.21 176.857C129.736 176.857 129.367 176.724 129.101 176.459C128.855 176.194 128.732 175.824 128.732 175.351V157.928C128.732 157.436 128.855 157.066 129.101 156.82C129.367 156.555 129.736 156.422 130.21 156.422C130.683 156.422 131.043 156.555 131.29 156.82C131.555 157.066 131.688 157.436 131.688 157.928V175.351C131.688 175.824 131.565 176.194 131.318 176.459C131.072 176.724 130.702 176.857 130.21 176.857ZM141.31 176.914C140.098 176.914 139.027 176.629 138.099 176.061C137.189 175.474 136.479 174.64 135.967 173.56C135.456 172.461 135.2 171.182 135.2 169.723C135.2 168.226 135.456 166.947 135.967 165.886C136.479 164.825 137.189 164.001 138.099 163.414C139.027 162.826 140.098 162.533 141.31 162.533C142.523 162.533 143.565 162.836 144.437 163.442C145.327 164.029 145.924 164.825 146.227 165.829H145.915V157.872C145.915 157.398 146.038 157.038 146.284 156.792C146.53 156.545 146.881 156.422 147.336 156.422C147.79 156.422 148.141 156.545 148.387 156.792C148.653 157.038 148.785 157.398 148.785 157.872V175.407C148.785 175.862 148.662 176.222 148.416 176.487C148.169 176.734 147.819 176.857 147.364 176.857C146.909 176.857 146.559 176.734 146.313 176.487C146.066 176.222 145.943 175.862 145.943 175.407V172.906L146.256 173.532C145.953 174.555 145.356 175.379 144.465 176.004C143.594 176.611 142.542 176.914 141.31 176.914ZM142.049 174.697C142.826 174.697 143.508 174.507 144.096 174.128C144.683 173.749 145.138 173.191 145.46 172.452C145.801 171.713 145.971 170.803 145.971 169.723C145.971 168.094 145.611 166.862 144.891 166.028C144.171 165.195 143.224 164.778 142.049 164.778C141.254 164.778 140.562 164.967 139.975 165.346C139.387 165.706 138.923 166.256 138.582 166.995C138.26 167.734 138.099 168.643 138.099 169.723C138.099 171.334 138.459 172.565 139.179 173.418C139.899 174.271 140.856 174.697 142.049 174.697ZM159.324 176.914C157.808 176.914 156.501 176.629 155.402 176.061C154.322 175.474 153.479 174.649 152.873 173.588C152.285 172.508 151.992 171.229 151.992 169.752C151.992 168.312 152.285 167.052 152.873 165.972C153.46 164.892 154.265 164.048 155.288 163.442C156.312 162.836 157.477 162.533 158.784 162.533C159.751 162.533 160.613 162.694 161.371 163.016C162.128 163.319 162.773 163.774 163.303 164.38C163.853 164.967 164.26 165.687 164.525 166.54C164.81 167.393 164.952 168.349 164.952 169.411C164.952 169.733 164.857 169.979 164.667 170.149C164.478 170.301 164.194 170.377 163.815 170.377H154.265V168.615H163.019L162.536 169.013C162.536 168.065 162.394 167.26 162.11 166.597C161.844 165.934 161.437 165.432 160.887 165.091C160.357 164.731 159.694 164.551 158.898 164.551C158.007 164.551 157.25 164.759 156.624 165.176C156.018 165.593 155.554 166.171 155.232 166.909C154.91 167.648 154.748 168.511 154.748 169.496V169.666C154.748 171.334 155.137 172.594 155.914 173.446C156.71 174.28 157.856 174.697 159.353 174.697C159.921 174.697 160.518 174.621 161.143 174.469C161.787 174.318 162.394 174.062 162.962 173.702C163.284 173.513 163.568 173.427 163.815 173.446C164.08 173.465 164.288 173.551 164.44 173.702C164.611 173.854 164.715 174.043 164.753 174.271C164.791 174.498 164.753 174.735 164.639 174.981C164.525 175.208 164.326 175.417 164.042 175.606C163.398 176.042 162.65 176.374 161.797 176.601C160.944 176.809 160.12 176.914 159.324 176.914ZM172.515 176.914C171.548 176.914 170.677 176.724 169.9 176.345C169.142 175.966 168.545 175.455 168.109 174.811C167.674 174.166 167.456 173.437 167.456 172.622C167.456 171.599 167.712 170.794 168.223 170.206C168.754 169.6 169.616 169.174 170.809 168.927C172.022 168.662 173.652 168.529 175.698 168.529H177.034V170.292H175.726C174.362 170.292 173.282 170.358 172.486 170.491C171.691 170.623 171.122 170.851 170.781 171.173C170.459 171.476 170.298 171.902 170.298 172.452C170.298 173.172 170.544 173.759 171.037 174.214C171.529 174.649 172.212 174.867 173.083 174.867C173.784 174.867 174.4 174.706 174.931 174.384C175.461 174.043 175.878 173.588 176.181 173.02C176.503 172.452 176.664 171.798 176.664 171.059V167.791C176.664 166.711 176.437 165.934 175.982 165.46C175.527 164.986 174.779 164.749 173.737 164.749C173.131 164.749 172.496 164.825 171.833 164.977C171.188 165.128 170.516 165.384 169.815 165.744C169.493 165.896 169.218 165.943 168.991 165.886C168.763 165.829 168.583 165.706 168.451 165.517C168.318 165.308 168.242 165.091 168.223 164.863C168.223 164.617 168.28 164.38 168.394 164.153C168.526 163.925 168.744 163.755 169.047 163.641C169.881 163.243 170.705 162.959 171.52 162.788C172.335 162.618 173.102 162.533 173.822 162.533C175.092 162.533 176.134 162.732 176.948 163.129C177.782 163.527 178.398 164.134 178.796 164.948C179.194 165.763 179.393 166.815 179.393 168.103V175.407C179.393 175.862 179.279 176.222 179.052 176.487C178.824 176.734 178.493 176.857 178.057 176.857C177.64 176.857 177.308 176.734 177.062 176.487C176.816 176.222 176.693 175.862 176.693 175.407V173.56H176.948C176.797 174.261 176.513 174.867 176.096 175.379C175.698 175.872 175.196 176.251 174.589 176.516C173.983 176.781 173.292 176.914 172.515 176.914ZM189.258 176.914C188.121 176.914 187.164 176.715 186.387 176.317C185.61 175.919 185.033 175.332 184.654 174.555C184.275 173.778 184.085 172.831 184.085 171.713V165.005H182.38C182.001 165.005 181.707 164.911 181.499 164.721C181.29 164.513 181.186 164.238 181.186 163.897C181.186 163.537 181.29 163.262 181.499 163.073C181.707 162.883 182.001 162.788 182.38 162.788H184.085V159.861C184.085 159.387 184.208 159.027 184.455 158.781C184.72 158.535 185.08 158.412 185.535 158.412C185.989 158.412 186.34 158.535 186.586 158.781C186.833 159.027 186.956 159.387 186.956 159.861V162.788H190.281C190.66 162.788 190.954 162.883 191.162 163.073C191.37 163.262 191.475 163.537 191.475 163.897C191.475 164.238 191.37 164.513 191.162 164.721C190.954 164.911 190.66 165.005 190.281 165.005H186.956V171.485C186.956 172.489 187.164 173.247 187.581 173.759C188.017 174.271 188.718 174.526 189.684 174.526C190.025 174.526 190.319 174.498 190.565 174.441C190.83 174.365 191.048 174.318 191.219 174.299C191.427 174.299 191.598 174.375 191.73 174.526C191.863 174.659 191.929 174.924 191.929 175.322C191.929 175.606 191.873 175.872 191.759 176.118C191.664 176.364 191.484 176.525 191.219 176.601C190.992 176.677 190.679 176.743 190.281 176.8C189.902 176.876 189.561 176.914 189.258 176.914ZM200.096 176.914C198.58 176.914 197.273 176.629 196.174 176.061C195.094 175.474 194.251 174.649 193.645 173.588C193.057 172.508 192.764 171.229 192.764 169.752C192.764 168.312 193.057 167.052 193.645 165.972C194.232 164.892 195.037 164.048 196.06 163.442C197.084 162.836 198.249 162.533 199.556 162.533C200.523 162.533 201.385 162.694 202.143 163.016C202.9 163.319 203.545 163.774 204.075 164.38C204.625 164.967 205.032 165.687 205.297 166.54C205.582 167.393 205.724 168.349 205.724 169.411C205.724 169.733 205.629 169.979 205.439 170.149C205.25 170.301 204.966 170.377 204.587 170.377H195.037V168.615H203.791L203.308 169.013C203.308 168.065 203.166 167.26 202.882 166.597C202.616 165.934 202.209 165.432 201.659 165.091C201.129 164.731 200.466 164.551 199.67 164.551C198.779 164.551 198.022 164.759 197.396 165.176C196.79 165.593 196.326 166.171 196.004 166.909C195.682 167.648 195.52 168.511 195.52 169.496V169.666C195.52 171.334 195.909 172.594 196.686 173.446C197.482 174.28 198.628 174.697 200.125 174.697C200.693 174.697 201.29 174.621 201.915 174.469C202.559 174.318 203.166 174.062 203.734 173.702C204.056 173.513 204.34 173.427 204.587 173.446C204.852 173.465 205.06 173.551 205.212 173.702C205.383 173.854 205.487 174.043 205.525 174.271C205.563 174.498 205.525 174.735 205.411 174.981C205.297 175.208 205.098 175.417 204.814 175.606C204.17 176.042 203.422 176.374 202.569 176.601C201.716 176.809 200.892 176.914 200.096 176.914Z" fill="#0C0C0C" fill-opacity="0.9"/>
<path d="M132.101 116.576C131.305 116.576 130.491 116.509 129.657 116.377C128.842 116.263 128.056 116.093 127.298 115.865C126.559 115.638 125.896 115.354 125.308 115.013C124.892 114.785 124.598 114.492 124.427 114.132C124.257 113.753 124.191 113.374 124.228 112.995C124.285 112.616 124.427 112.284 124.655 112C124.901 111.697 125.204 111.507 125.564 111.432C125.943 111.337 126.36 111.403 126.815 111.631C127.592 112.066 128.435 112.388 129.344 112.597C130.273 112.805 131.192 112.909 132.101 112.909C133.484 112.909 134.47 112.701 135.057 112.284C135.644 111.848 135.938 111.308 135.938 110.664C135.938 110.115 135.73 109.679 135.313 109.357C134.896 109.035 134.166 108.76 133.124 108.533L129.913 107.851C128.094 107.472 126.739 106.827 125.848 105.918C124.977 104.989 124.541 103.777 124.541 102.28C124.541 101.333 124.74 100.471 125.138 99.6937C125.536 98.9169 126.095 98.2442 126.815 97.6758C127.535 97.1074 128.387 96.6716 129.373 96.3684C130.377 96.0653 131.476 95.9137 132.67 95.9137C133.731 95.9137 134.773 96.0463 135.796 96.3116C136.819 96.5579 137.719 96.9274 138.496 97.42C138.875 97.6474 139.131 97.9411 139.263 98.3011C139.415 98.6421 139.462 98.9927 139.405 99.3527C139.367 99.6937 139.225 99.9969 138.979 100.262C138.752 100.527 138.458 100.698 138.098 100.774C137.738 100.849 137.302 100.764 136.791 100.518C136.165 100.196 135.502 99.959 134.801 99.8074C134.1 99.6558 133.38 99.58 132.641 99.58C131.845 99.58 131.163 99.6842 130.595 99.8927C130.045 100.101 129.619 100.395 129.316 100.774C129.032 101.153 128.89 101.588 128.89 102.081C128.89 102.631 129.088 103.076 129.486 103.417C129.884 103.758 130.576 104.033 131.561 104.241L134.773 104.923C136.63 105.321 138.013 105.965 138.922 106.856C139.832 107.727 140.286 108.883 140.286 110.323C140.286 111.271 140.097 112.133 139.718 112.909C139.339 113.667 138.79 114.321 138.07 114.871C137.35 115.42 136.487 115.846 135.483 116.149C134.479 116.434 133.352 116.576 132.101 116.576ZM149.432 116.576C148.125 116.576 147.026 116.358 146.135 115.922C145.264 115.486 144.61 114.852 144.174 114.018C143.757 113.184 143.549 112.133 143.549 110.863V105.52H142.355C141.825 105.52 141.408 105.378 141.105 105.094C140.82 104.809 140.678 104.421 140.678 103.928C140.678 103.398 140.82 103 141.105 102.735C141.408 102.451 141.825 102.308 142.355 102.308H143.549V100.148C143.549 99.4284 143.738 98.8884 144.117 98.5284C144.496 98.1495 145.027 97.96 145.709 97.96C146.41 97.96 146.94 98.1495 147.3 98.5284C147.66 98.8884 147.84 99.4284 147.84 100.148V102.308H150.54C151.071 102.308 151.478 102.451 151.763 102.735C152.047 103 152.189 103.398 152.189 103.928C152.189 104.421 152.047 104.809 151.763 105.094C151.478 105.378 151.071 105.52 150.54 105.52H147.84V110.693C147.84 111.488 148.02 112.085 148.38 112.483C148.759 112.881 149.356 113.08 150.171 113.08C150.455 113.08 150.72 113.052 150.967 112.995C151.213 112.938 151.44 112.9 151.649 112.881C151.914 112.862 152.132 112.947 152.303 113.137C152.473 113.307 152.558 113.696 152.558 114.302C152.558 114.757 152.483 115.155 152.331 115.496C152.179 115.837 151.914 116.083 151.535 116.235C151.289 116.329 150.948 116.405 150.512 116.462C150.095 116.538 149.735 116.576 149.432 116.576ZM161.182 116.576C159.533 116.576 158.112 116.282 156.918 115.695C155.744 115.088 154.834 114.245 154.19 113.165C153.565 112.066 153.252 110.778 153.252 109.3C153.252 107.86 153.555 106.6 154.162 105.52C154.768 104.421 155.611 103.568 156.691 102.962C157.79 102.337 159.031 102.024 160.414 102.024C161.418 102.024 162.328 102.195 163.143 102.536C163.957 102.858 164.658 103.332 165.246 103.957C165.833 104.563 166.278 105.312 166.582 106.202C166.885 107.074 167.036 108.049 167.036 109.129C167.036 109.489 166.923 109.764 166.695 109.954C166.468 110.124 166.136 110.209 165.701 110.209H156.776V107.993H163.938L163.484 108.391C163.484 107.614 163.37 106.969 163.143 106.458C162.915 105.927 162.584 105.529 162.148 105.264C161.731 104.999 161.21 104.866 160.585 104.866C159.884 104.866 159.287 105.027 158.794 105.349C158.302 105.672 157.923 106.136 157.657 106.742C157.392 107.348 157.26 108.078 157.26 108.931V109.158C157.26 110.598 157.591 111.659 158.254 112.341C158.936 113.023 159.941 113.364 161.267 113.364C161.722 113.364 162.243 113.307 162.83 113.194C163.417 113.08 163.967 112.9 164.478 112.654C164.914 112.445 165.303 112.379 165.644 112.455C165.985 112.512 166.25 112.663 166.44 112.909C166.629 113.156 166.733 113.44 166.752 113.762C166.79 114.084 166.724 114.406 166.553 114.728C166.383 115.032 166.098 115.287 165.701 115.496C165.056 115.856 164.327 116.121 163.512 116.292C162.716 116.481 161.94 116.576 161.182 116.576ZM171.693 121.635C170.991 121.635 170.451 121.445 170.073 121.066C169.713 120.706 169.533 120.166 169.533 119.446V104.241C169.533 103.54 169.713 103.009 170.073 102.649C170.451 102.271 170.973 102.081 171.636 102.081C172.337 102.081 172.867 102.271 173.227 102.649C173.587 103.009 173.767 103.54 173.767 104.241V106.174L173.455 105.065C173.739 104.156 174.307 103.426 175.16 102.877C176.031 102.308 177.026 102.024 178.144 102.024C179.357 102.024 180.418 102.318 181.327 102.905C182.256 103.493 182.976 104.326 183.487 105.406C183.999 106.486 184.255 107.775 184.255 109.272C184.255 110.768 183.999 112.066 183.487 113.165C182.976 114.264 182.265 115.107 181.356 115.695C180.446 116.282 179.376 116.576 178.144 116.576C177.045 116.576 176.069 116.311 175.217 115.78C174.364 115.231 173.786 114.52 173.483 113.648H173.824V119.446C173.824 120.166 173.635 120.706 173.256 121.066C172.896 121.445 172.375 121.635 171.693 121.635ZM176.865 113.364C177.471 113.364 178.002 113.213 178.457 112.909C178.93 112.606 179.29 112.161 179.537 111.574C179.802 110.967 179.935 110.2 179.935 109.272C179.935 107.888 179.65 106.875 179.082 106.231C178.514 105.567 177.775 105.236 176.865 105.236C176.259 105.236 175.719 105.378 175.245 105.662C174.79 105.946 174.43 106.392 174.165 106.998C173.9 107.585 173.767 108.343 173.767 109.272C173.767 110.655 174.051 111.687 174.62 112.369C175.188 113.033 175.937 113.364 176.865 113.364ZM197.631 116.263C197.025 116.263 196.56 116.102 196.238 115.78C195.916 115.458 195.755 115.013 195.755 114.444C195.755 113.857 195.916 113.412 196.238 113.108C196.56 112.805 197.025 112.654 197.631 112.654H200.502V99.8358H202.576L198.427 102.365C197.991 102.631 197.584 102.735 197.205 102.678C196.845 102.621 196.532 102.46 196.267 102.195C196.002 101.929 195.822 101.617 195.727 101.257C195.651 100.878 195.689 100.508 195.84 100.148C195.992 99.7695 196.276 99.4474 196.693 99.1821L200.644 96.7948C201.042 96.5484 201.439 96.3495 201.837 96.1979C202.254 96.0463 202.662 95.9706 203.059 95.9706C203.628 95.9706 204.073 96.1221 204.395 96.4253C204.736 96.7095 204.907 97.1548 204.907 97.7611V112.654H207.493C208.08 112.654 208.535 112.805 208.857 113.108C209.179 113.412 209.34 113.857 209.34 114.444C209.34 115.032 209.179 115.486 208.857 115.808C208.535 116.112 208.08 116.263 207.493 116.263H197.631Z" fill="#0C0C0C" fill-opacity="0.9"/>
<path d="M31.0855 88.1207V6.44079C31.0855 3.98821 33.0737 2 35.5263 2H117.206M31.0855 185.879V267.559C31.0855 270.012 33.0737 272 35.5263 272H117.206M214.965 2H296.645C299.097 2 301.086 3.98821 301.086 6.44079V88.1207M301.086 185.879V267.559C301.086 270.012 299.097 272 296.645 272H214.965" stroke="#02060B" stroke-width="3.55263"/>
<path d="M62.171 85.0855V37.5263C62.171 35.0737 64.1592 33.0855 66.6118 33.0855H114.171M62.171 189.086V236.645C62.171 239.097 64.1592 241.086 66.6118 241.086H114.171M218.171 33.0855H265.73C268.183 33.0855 270.171 35.0737 270.171 37.5263V85.0855M270.171 189.086V236.645C270.171 239.097 268.183 241.086 265.73 241.086H218.171" stroke="#02060B" stroke-width="0.888158"/>
<rect x="-3.05176e-05" y="105.914" width="60" height="60" fill="#02060B"/>
<path d="M36.7137 146.524H24.0854M36.7137 146.524V148.629C36.7137 150.447 36.7137 151.356 36.447 152.083C36.0056 153.287 35.0572 154.235 33.8538 154.676C33.1265 154.943 32.2175 154.943 30.3996 154.943V154.943C28.5816 154.943 27.6726 154.943 26.9453 154.676C25.7419 154.235 24.7935 153.287 24.3522 152.083C24.0854 151.356 24.0854 150.447 24.0854 148.629V146.524M36.7137 146.524V144.404C36.7137 143.73 36.9257 143.072 37.3196 142.525L40.8988 137.554C47.0604 128.996 40.9448 117.057 30.3996 117.057V117.057C19.8543 117.057 13.7388 128.996 19.9003 137.554L23.4795 142.525C23.8734 143.072 24.0854 143.73 24.0854 144.404V146.524M27.2425 134.948L30.3996 140.21L33.5566 134.948" stroke="white" stroke-width="1.33224" stroke-linecap="round" stroke-linejoin="round"/>
</svg>
