<svg width="304" height="274" viewBox="0 0 304 274" fill="none" xmlns="http://www.w3.org/2000/svg">
<rect x="77.5262" y="48.1842" width="180" height="180" fill="#F1F1F1"/>
<path d="M128.033 176.857C127.56 176.857 127.19 176.724 126.925 176.459C126.678 176.194 126.555 175.824 126.555 175.351V159.094H120.53C120.132 159.094 119.82 158.989 119.592 158.781C119.365 158.554 119.251 158.241 119.251 157.843C119.251 157.445 119.365 157.142 119.592 156.934C119.82 156.725 120.132 156.621 120.53 156.621H135.508C135.925 156.621 136.247 156.725 136.474 156.934C136.702 157.142 136.815 157.445 136.815 157.843C136.815 158.241 136.702 158.554 136.474 158.781C136.247 158.989 135.925 159.094 135.508 159.094H129.483V175.351C129.483 175.824 129.36 176.194 129.113 176.459C128.886 176.724 128.526 176.857 128.033 176.857ZM143.045 176.914C141.529 176.914 140.221 176.629 139.123 176.061C138.043 175.474 137.199 174.649 136.593 173.588C136.006 172.508 135.712 171.229 135.712 169.752C135.712 168.312 136.006 167.052 136.593 165.972C137.18 164.892 137.986 164.048 139.009 163.442C140.032 162.836 141.197 162.533 142.505 162.533C143.471 162.533 144.333 162.694 145.091 163.016C145.849 163.319 146.493 163.774 147.024 164.38C147.573 164.967 147.98 165.687 148.246 166.54C148.53 167.393 148.672 168.349 148.672 169.411C148.672 169.733 148.577 169.979 148.388 170.149C148.198 170.301 147.914 170.377 147.535 170.377H137.986V168.615H146.739L146.256 169.013C146.256 168.065 146.114 167.26 145.83 166.597C145.565 165.934 145.157 165.432 144.608 165.091C144.077 164.731 143.414 164.551 142.618 164.551C141.728 164.551 140.97 164.759 140.345 165.176C139.738 165.593 139.274 166.171 138.952 166.909C138.63 167.648 138.469 168.511 138.469 169.496V169.666C138.469 171.334 138.857 172.594 139.634 173.446C140.43 174.28 141.576 174.697 143.073 174.697C143.641 174.697 144.238 174.621 144.864 174.469C145.508 174.318 146.114 174.062 146.683 173.702C147.005 173.513 147.289 173.427 147.535 173.446C147.8 173.465 148.009 173.551 148.16 173.702C148.331 173.854 148.435 174.043 148.473 174.271C148.511 174.498 148.473 174.735 148.359 174.981C148.246 175.208 148.047 175.417 147.763 175.606C147.118 176.042 146.37 176.374 145.517 176.601C144.665 176.809 143.84 176.914 143.045 176.914ZM156.661 176.914C155.828 176.914 154.966 176.819 154.075 176.629C153.204 176.44 152.398 176.118 151.659 175.663C151.413 175.493 151.242 175.303 151.148 175.095C151.053 174.886 151.015 174.678 151.034 174.469C151.072 174.242 151.157 174.053 151.29 173.901C151.441 173.731 151.621 173.626 151.83 173.588C152.057 173.551 152.294 173.598 152.54 173.731C153.279 174.147 153.99 174.441 154.672 174.612C155.354 174.763 156.027 174.839 156.69 174.839C157.694 174.839 158.452 174.659 158.964 174.299C159.475 173.939 159.731 173.456 159.731 172.849C159.731 172.357 159.56 171.978 159.219 171.713C158.878 171.428 158.367 171.211 157.685 171.059L154.985 170.519C153.81 170.273 152.919 169.837 152.313 169.212C151.707 168.586 151.404 167.791 151.404 166.824C151.404 165.953 151.64 165.195 152.114 164.551C152.588 163.906 153.251 163.414 154.104 163.073C154.956 162.713 155.941 162.533 157.059 162.533C157.893 162.533 158.679 162.637 159.418 162.845C160.157 163.054 160.839 163.366 161.465 163.783C161.711 163.916 161.872 164.096 161.948 164.323C162.024 164.532 162.033 164.74 161.976 164.948C161.938 165.157 161.844 165.346 161.692 165.517C161.54 165.668 161.351 165.763 161.124 165.801C160.915 165.82 160.678 165.763 160.413 165.631C159.845 165.271 159.276 165.015 158.708 164.863C158.158 164.712 157.609 164.636 157.059 164.636C156.055 164.636 155.297 164.825 154.786 165.204C154.293 165.564 154.047 166.057 154.047 166.682C154.047 167.156 154.198 167.544 154.501 167.847C154.805 168.151 155.278 168.368 155.922 168.501L158.622 169.041C159.854 169.287 160.782 169.704 161.408 170.292C162.052 170.879 162.374 171.675 162.374 172.679C162.374 173.986 161.853 175.019 160.811 175.777C159.769 176.535 158.386 176.914 156.661 176.914ZM171.341 176.914C170.204 176.914 169.247 176.715 168.47 176.317C167.693 175.919 167.115 175.332 166.736 174.555C166.357 173.778 166.168 172.831 166.168 171.713V165.005H164.463C164.084 165.005 163.79 164.911 163.582 164.721C163.373 164.513 163.269 164.238 163.269 163.897C163.269 163.537 163.373 163.262 163.582 163.073C163.79 162.883 164.084 162.788 164.463 162.788H166.168V159.861C166.168 159.387 166.291 159.027 166.537 158.781C166.803 158.535 167.163 158.412 167.617 158.412C168.072 158.412 168.423 158.535 168.669 158.781C168.915 159.027 169.039 159.387 169.039 159.861V162.788H172.364C172.743 162.788 173.036 162.883 173.245 163.073C173.453 163.262 173.557 163.537 173.557 163.897C173.557 164.238 173.453 164.513 173.245 164.721C173.036 164.911 172.743 165.005 172.364 165.005H169.039V171.485C169.039 172.489 169.247 173.247 169.664 173.759C170.1 174.271 170.801 174.526 171.767 174.526C172.108 174.526 172.402 174.498 172.648 174.441C172.913 174.365 173.131 174.318 173.302 174.299C173.51 174.299 173.681 174.375 173.813 174.526C173.946 174.659 174.012 174.924 174.012 175.322C174.012 175.606 173.955 175.872 173.842 176.118C173.747 176.364 173.567 176.525 173.302 176.601C173.074 176.677 172.762 176.743 172.364 176.8C171.985 176.876 171.644 176.914 171.341 176.914ZM177.48 176.828C177.026 176.828 176.675 176.696 176.429 176.431C176.182 176.146 176.059 175.758 176.059 175.265V164.181C176.059 163.688 176.182 163.309 176.429 163.044C176.675 162.779 177.026 162.646 177.48 162.646C177.935 162.646 178.286 162.779 178.532 163.044C178.797 163.309 178.93 163.688 178.93 164.181V175.265C178.93 175.758 178.807 176.146 178.56 176.431C178.314 176.696 177.954 176.828 177.48 176.828ZM177.48 159.691C176.912 159.691 176.467 159.548 176.144 159.264C175.841 158.98 175.69 158.582 175.69 158.071C175.69 157.54 175.841 157.142 176.144 156.877C176.467 156.593 176.912 156.451 177.48 156.451C178.049 156.451 178.484 156.593 178.788 156.877C179.11 157.142 179.271 157.54 179.271 158.071C179.271 158.582 179.11 158.98 178.788 159.264C178.484 159.548 178.049 159.691 177.48 159.691ZM184.391 176.857C183.937 176.857 183.586 176.734 183.34 176.487C183.093 176.222 182.97 175.862 182.97 175.407V164.039C182.97 163.565 183.093 163.205 183.34 162.959C183.586 162.713 183.927 162.589 184.363 162.589C184.818 162.589 185.159 162.713 185.386 162.959C185.632 163.205 185.755 163.565 185.755 164.039V166.256L185.443 165.744C185.86 164.683 186.513 163.887 187.404 163.357C188.294 162.807 189.318 162.533 190.473 162.533C191.572 162.533 192.482 162.741 193.202 163.158C193.941 163.556 194.49 164.172 194.85 165.005C195.21 165.82 195.39 166.853 195.39 168.103V175.407C195.39 175.862 195.267 176.222 195.021 176.487C194.774 176.734 194.424 176.857 193.969 176.857C193.495 176.857 193.135 176.734 192.889 176.487C192.643 176.222 192.52 175.862 192.52 175.407V168.274C192.52 167.08 192.283 166.208 191.809 165.659C191.354 165.109 190.634 164.835 189.649 164.835C188.493 164.835 187.565 165.195 186.864 165.915C186.182 166.635 185.841 167.601 185.841 168.814V175.407C185.841 176.374 185.358 176.857 184.391 176.857ZM205.627 182.029C204.604 182.029 203.609 181.925 202.642 181.717C201.695 181.508 200.833 181.167 200.056 180.694C199.772 180.542 199.582 180.353 199.488 180.125C199.393 179.917 199.365 179.699 199.402 179.472C199.459 179.244 199.564 179.045 199.715 178.875C199.867 178.704 200.047 178.591 200.255 178.534C200.482 178.477 200.719 178.515 200.966 178.647C201.799 179.102 202.586 179.405 203.325 179.557C204.082 179.727 204.784 179.813 205.428 179.813C206.754 179.813 207.749 179.472 208.412 178.789C209.075 178.126 209.407 177.141 209.407 175.834V172.935H209.662C209.378 173.977 208.781 174.801 207.872 175.407C206.962 176.014 205.911 176.317 204.717 176.317C203.467 176.317 202.377 176.033 201.449 175.464C200.52 174.877 199.8 174.072 199.289 173.048C198.777 172.006 198.521 170.794 198.521 169.411C198.521 168.368 198.664 167.431 198.948 166.597C199.251 165.763 199.668 165.043 200.198 164.437C200.748 163.831 201.401 163.366 202.159 163.044C202.936 162.703 203.789 162.533 204.717 162.533C205.93 162.533 206.981 162.836 207.872 163.442C208.781 164.048 209.369 164.873 209.634 165.915L209.35 166.398V164.039C209.35 163.565 209.473 163.205 209.719 162.959C209.985 162.713 210.335 162.589 210.771 162.589C211.226 162.589 211.576 162.713 211.822 162.959C212.069 163.205 212.192 163.565 212.192 164.039V175.493C212.192 177.653 211.633 179.282 210.515 180.381C209.397 181.48 207.768 182.029 205.627 182.029ZM205.399 174.072C206.233 174.072 206.944 173.882 207.531 173.503C208.118 173.124 208.573 172.584 208.895 171.883C209.217 171.182 209.378 170.358 209.378 169.411C209.378 167.989 209.018 166.862 208.298 166.028C207.597 165.195 206.631 164.778 205.399 164.778C204.585 164.778 203.884 164.967 203.296 165.346C202.709 165.725 202.245 166.265 201.904 166.966C201.581 167.648 201.42 168.463 201.42 169.411C201.42 170.851 201.78 171.987 202.5 172.821C203.22 173.655 204.187 174.072 205.399 174.072Z" fill="#0C0C0C" fill-opacity="0.9"/>
<path d="M132.358 116.576C131.562 116.576 130.747 116.509 129.913 116.377C129.099 116.263 128.312 116.093 127.554 115.865C126.816 115.638 126.152 115.354 125.565 115.013C125.148 114.785 124.854 114.492 124.684 114.132C124.513 113.753 124.447 113.374 124.485 112.995C124.542 112.616 124.684 112.284 124.911 112C125.158 111.697 125.461 111.507 125.821 111.432C126.2 111.337 126.617 111.403 127.071 111.631C127.848 112.066 128.691 112.388 129.601 112.597C130.529 112.805 131.448 112.909 132.358 112.909C133.741 112.909 134.726 112.701 135.313 112.284C135.901 111.848 136.194 111.308 136.194 110.664C136.194 110.115 135.986 109.679 135.569 109.357C135.152 109.035 134.423 108.76 133.381 108.533L130.169 107.851C128.35 107.472 126.996 106.827 126.105 105.918C125.233 104.989 124.798 103.777 124.798 102.28C124.798 101.333 124.997 100.471 125.394 99.6937C125.792 98.9169 126.351 98.2442 127.071 97.6758C127.791 97.1074 128.644 96.6716 129.629 96.3684C130.633 96.0653 131.732 95.9137 132.926 95.9137C133.987 95.9137 135.029 96.0463 136.052 96.3116C137.076 96.5579 137.976 96.9274 138.752 97.42C139.131 97.6474 139.387 97.9411 139.52 98.3011C139.671 98.6421 139.719 98.9927 139.662 99.3527C139.624 99.6937 139.482 99.9969 139.236 100.262C139.008 100.527 138.714 100.698 138.354 100.774C137.994 100.849 137.559 100.764 137.047 100.518C136.422 100.196 135.759 99.959 135.058 99.8074C134.357 99.6558 133.637 99.58 132.898 99.58C132.102 99.58 131.42 99.6842 130.851 99.8927C130.302 100.101 129.876 100.395 129.572 100.774C129.288 101.153 129.146 101.588 129.146 102.081C129.146 102.631 129.345 103.076 129.743 103.417C130.141 103.758 130.832 104.033 131.818 104.241L135.029 104.923C136.886 105.321 138.269 105.965 139.179 106.856C140.088 107.727 140.543 108.883 140.543 110.323C140.543 111.271 140.353 112.133 139.974 112.909C139.596 113.667 139.046 114.321 138.326 114.871C137.606 115.42 136.744 115.846 135.74 116.149C134.736 116.434 133.608 116.576 132.358 116.576ZM149.688 116.576C148.381 116.576 147.282 116.358 146.392 115.922C145.52 115.486 144.866 114.852 144.431 114.018C144.014 113.184 143.805 112.133 143.805 110.863V105.52H142.612C142.081 105.52 141.664 105.378 141.361 105.094C141.077 104.809 140.935 104.421 140.935 103.928C140.935 103.398 141.077 103 141.361 102.735C141.664 102.451 142.081 102.308 142.612 102.308H143.805V100.148C143.805 99.4284 143.995 98.8884 144.374 98.5284C144.753 98.1495 145.283 97.96 145.965 97.96C146.666 97.96 147.197 98.1495 147.557 98.5284C147.917 98.8884 148.097 99.4284 148.097 100.148V102.308H150.797C151.327 102.308 151.735 102.451 152.019 102.735C152.303 103 152.445 103.398 152.445 103.928C152.445 104.421 152.303 104.809 152.019 105.094C151.735 105.378 151.327 105.52 150.797 105.52H148.097V110.693C148.097 111.488 148.277 112.085 148.637 112.483C149.016 112.881 149.613 113.08 150.427 113.08C150.712 113.08 150.977 113.052 151.223 112.995C151.47 112.938 151.697 112.9 151.905 112.881C152.171 112.862 152.388 112.947 152.559 113.137C152.73 113.307 152.815 113.696 152.815 114.302C152.815 114.757 152.739 115.155 152.587 115.496C152.436 115.837 152.171 116.083 151.792 116.235C151.545 116.329 151.204 116.405 150.768 116.462C150.352 116.538 149.992 116.576 149.688 116.576ZM161.438 116.576C159.79 116.576 158.369 116.282 157.175 115.695C156 115.088 155.091 114.245 154.447 113.165C153.821 112.066 153.509 110.778 153.509 109.3C153.509 107.86 153.812 106.6 154.418 105.52C155.024 104.421 155.868 103.568 156.948 102.962C158.047 102.337 159.288 102.024 160.671 102.024C161.675 102.024 162.584 102.195 163.399 102.536C164.214 102.858 164.915 103.332 165.502 103.957C166.09 104.563 166.535 105.312 166.838 106.202C167.141 107.074 167.293 108.049 167.293 109.129C167.293 109.489 167.179 109.764 166.952 109.954C166.724 110.124 166.393 110.209 165.957 110.209H157.033V107.993H164.195L163.74 108.391C163.74 107.614 163.627 106.969 163.399 106.458C163.172 105.927 162.84 105.529 162.404 105.264C161.988 104.999 161.467 104.866 160.841 104.866C160.14 104.866 159.543 105.027 159.051 105.349C158.558 105.672 158.179 106.136 157.914 106.742C157.649 107.348 157.516 108.078 157.516 108.931V109.158C157.516 110.598 157.848 111.659 158.511 112.341C159.193 113.023 160.197 113.364 161.523 113.364C161.978 113.364 162.499 113.307 163.087 113.194C163.674 113.08 164.223 112.9 164.735 112.654C165.171 112.445 165.559 112.379 165.9 112.455C166.241 112.512 166.507 112.663 166.696 112.909C166.886 113.156 166.99 113.44 167.009 113.762C167.047 114.084 166.98 114.406 166.81 114.728C166.639 115.032 166.355 115.287 165.957 115.496C165.313 115.856 164.583 116.121 163.769 116.292C162.973 116.481 162.196 116.576 161.438 116.576ZM171.949 121.635C171.248 121.635 170.708 121.445 170.329 121.066C169.969 120.706 169.789 120.166 169.789 119.446V104.241C169.789 103.54 169.969 103.009 170.329 102.649C170.708 102.271 171.229 102.081 171.892 102.081C172.593 102.081 173.124 102.271 173.484 102.649C173.844 103.009 174.024 103.54 174.024 104.241V106.174L173.711 105.065C173.995 104.156 174.564 103.426 175.416 102.877C176.288 102.308 177.283 102.024 178.401 102.024C179.613 102.024 180.674 102.318 181.584 102.905C182.512 103.493 183.232 104.326 183.744 105.406C184.255 106.486 184.511 107.775 184.511 109.272C184.511 110.768 184.255 112.066 183.744 113.165C183.232 114.264 182.522 115.107 181.612 115.695C180.703 116.282 179.632 116.576 178.401 116.576C177.302 116.576 176.326 116.311 175.473 115.78C174.621 115.231 174.043 114.52 173.74 113.648H174.081V119.446C174.081 120.166 173.891 120.706 173.512 121.066C173.152 121.445 172.631 121.635 171.949 121.635ZM177.122 113.364C177.728 113.364 178.259 113.213 178.713 112.909C179.187 112.606 179.547 112.161 179.793 111.574C180.059 110.967 180.191 110.2 180.191 109.272C180.191 107.888 179.907 106.875 179.339 106.231C178.77 105.567 178.031 105.236 177.122 105.236C176.515 105.236 175.975 105.378 175.502 105.662C175.047 105.946 174.687 106.392 174.422 106.998C174.156 107.585 174.024 108.343 174.024 109.272C174.024 110.655 174.308 111.687 174.876 112.369C175.445 113.033 176.193 113.364 177.122 113.364ZM205.078 116.519C204.396 116.519 203.856 116.329 203.458 115.951C203.079 115.572 202.89 115.022 202.89 114.302V112.682H196.523C195.822 112.682 195.263 112.531 194.846 112.227C194.43 111.905 194.221 111.422 194.221 110.778C194.221 110.399 194.306 110.011 194.477 109.613C194.647 109.215 194.951 108.722 195.386 108.135L202.747 97.42C203.07 96.9463 203.43 96.5863 203.827 96.34C204.225 96.0937 204.68 95.9706 205.192 95.9706C205.798 95.9706 206.281 96.16 206.641 96.539C207.02 96.899 207.21 97.4484 207.21 98.1874V109.215H208.261C208.886 109.215 209.36 109.366 209.682 109.669C210.004 109.954 210.165 110.38 210.165 110.948C210.165 111.498 210.004 111.924 209.682 112.227C209.379 112.531 208.905 112.682 208.261 112.682H207.21V114.302C207.21 115.022 207.02 115.572 206.641 115.951C206.281 116.329 205.76 116.519 205.078 116.519ZM202.89 109.215V101.399H203.714L197.66 110.295V109.215H202.89Z" fill="#0C0C0C" fill-opacity="0.9"/>
<path d="M31.342 88.1207V6.44079C31.342 3.98821 33.3303 2 35.7828 2H117.463M31.342 185.879V267.559C31.342 270.012 33.3303 272 35.7828 272H117.463M215.221 2H296.901C299.354 2 301.342 3.98821 301.342 6.44079V88.1207M301.342 185.879V267.559C301.342 270.012 299.354 272 296.901 272H215.221" stroke="#02060B" stroke-width="3.55263"/>
<path d="M62.4276 85.0855V37.5263C62.4276 35.0737 64.4158 33.0855 66.8684 33.0855H114.428M62.4276 189.086V236.645C62.4276 239.097 64.4158 241.086 66.8684 241.086H114.428M218.428 33.0855H265.987C268.439 33.0855 270.428 35.0737 270.428 37.5263V85.0855M270.428 189.086V236.645C270.428 239.097 268.439 241.086 265.987 241.086H218.428" stroke="#02060B" stroke-width="0.888158"/>
<rect x="0.256592" y="105.914" width="60" height="60" fill="#02060B"/>
<path d="M31.0142 132.247L25.359 137.902L22.8848 135.428M37.3764 134.368L31.7211 140.023L30.3073 138.609M42.848 135.782C42.848 142.809 37.1511 148.506 30.1237 148.506C23.0963 148.506 17.3994 142.809 17.3994 135.782C17.3994 128.754 23.0963 123.057 30.1237 123.057C37.1511 123.057 42.848 128.754 42.848 135.782Z" stroke="#FBFBFB" stroke-width="1.593" stroke-linecap="round" stroke-linejoin="round"/>
</svg>
