<svg width="304" height="274" viewBox="0 0 304 274" fill="none" xmlns="http://www.w3.org/2000/svg">
<rect x="77.4406" y="48.1842" width="180" height="180" fill="#F1F1F1"/>
<path d="M135.111 176.914C133.083 176.914 131.35 176.497 129.91 175.663C128.47 174.829 127.361 173.645 126.584 172.111C125.827 170.557 125.448 168.728 125.448 166.625C125.448 165.053 125.665 163.641 126.101 162.391C126.537 161.121 127.162 160.041 127.977 159.151C128.811 158.241 129.824 157.549 131.018 157.076C132.231 156.602 133.595 156.365 135.111 156.365C136.229 156.365 137.299 156.517 138.322 156.82C139.364 157.123 140.264 157.559 141.022 158.127C141.344 158.336 141.553 158.592 141.648 158.895C141.761 159.179 141.78 159.454 141.704 159.719C141.648 159.984 141.524 160.212 141.335 160.401C141.145 160.572 140.899 160.666 140.596 160.685C140.312 160.704 139.999 160.6 139.658 160.373C139.033 159.899 138.341 159.548 137.583 159.321C136.825 159.094 136.03 158.98 135.196 158.98C133.756 158.98 132.543 159.283 131.558 159.889C130.573 160.477 129.824 161.339 129.313 162.476C128.801 163.613 128.545 164.996 128.545 166.625C128.545 168.255 128.801 169.647 129.313 170.803C129.824 171.94 130.573 172.812 131.558 173.418C132.543 174.005 133.756 174.299 135.196 174.299C136.03 174.299 136.825 174.185 137.583 173.958C138.36 173.712 139.09 173.352 139.772 172.878C140.113 172.669 140.416 172.575 140.681 172.594C140.965 172.613 141.202 172.707 141.392 172.878C141.581 173.048 141.704 173.266 141.761 173.532C141.837 173.778 141.828 174.043 141.733 174.327C141.657 174.593 141.477 174.82 141.193 175.009C140.416 175.635 139.497 176.108 138.436 176.431C137.375 176.753 136.267 176.914 135.111 176.914ZM146.473 176.857C145.999 176.857 145.639 176.734 145.393 176.487C145.147 176.222 145.023 175.862 145.023 175.407V164.039C145.023 163.565 145.147 163.205 145.393 162.959C145.639 162.713 145.98 162.589 146.416 162.589C146.871 162.589 147.212 162.713 147.439 162.959C147.686 163.205 147.809 163.565 147.809 164.039V166.114H147.524C147.828 164.977 148.387 164.115 149.201 163.527C150.016 162.94 151.058 162.599 152.328 162.504C152.669 162.485 152.934 162.571 153.123 162.76C153.332 162.949 153.446 163.243 153.465 163.641C153.502 164.039 153.417 164.361 153.209 164.607C153 164.835 152.678 164.967 152.242 165.005L151.702 165.062C150.471 165.176 149.533 165.564 148.889 166.227C148.245 166.891 147.922 167.8 147.922 168.956V175.407C147.922 175.862 147.799 176.222 147.553 176.487C147.326 176.734 146.966 176.857 146.473 176.857ZM161.94 176.914C160.424 176.914 159.117 176.629 158.018 176.061C156.938 175.474 156.095 174.649 155.488 173.588C154.901 172.508 154.607 171.229 154.607 169.752C154.607 168.312 154.901 167.052 155.488 165.972C156.076 164.892 156.881 164.048 157.904 163.442C158.927 162.836 160.093 162.533 161.4 162.533C162.366 162.533 163.228 162.694 163.986 163.016C164.744 163.319 165.388 163.774 165.919 164.38C166.468 164.967 166.876 165.687 167.141 166.54C167.425 167.393 167.567 168.349 167.567 169.411C167.567 169.733 167.473 169.979 167.283 170.149C167.094 170.301 166.809 170.377 166.43 170.377H156.881V168.615H165.635L165.152 169.013C165.152 168.065 165.009 167.26 164.725 166.597C164.46 165.934 164.053 165.432 163.503 165.091C162.973 164.731 162.309 164.551 161.514 164.551C160.623 164.551 159.865 164.759 159.24 165.176C158.634 165.593 158.169 166.171 157.847 166.909C157.525 167.648 157.364 168.511 157.364 169.496V169.666C157.364 171.334 157.753 172.594 158.529 173.446C159.325 174.28 160.472 174.697 161.968 174.697C162.537 174.697 163.134 174.621 163.759 174.469C164.403 174.318 165.009 174.062 165.578 173.702C165.9 173.513 166.184 173.427 166.43 173.446C166.696 173.465 166.904 173.551 167.056 173.702C167.226 173.854 167.33 174.043 167.368 174.271C167.406 174.498 167.368 174.735 167.255 174.981C167.141 175.208 166.942 175.417 166.658 175.606C166.014 176.042 165.265 176.374 164.413 176.601C163.56 176.809 162.736 176.914 161.94 176.914ZM175.13 176.914C174.164 176.914 173.293 176.724 172.516 176.345C171.758 175.966 171.161 175.455 170.725 174.811C170.289 174.166 170.071 173.437 170.071 172.622C170.071 171.599 170.327 170.794 170.839 170.206C171.369 169.6 172.231 169.174 173.425 168.927C174.638 168.662 176.267 168.529 178.314 168.529H179.649V170.292H178.342C176.978 170.292 175.898 170.358 175.102 170.491C174.306 170.623 173.738 170.851 173.397 171.173C173.075 171.476 172.914 171.902 172.914 172.452C172.914 173.172 173.16 173.759 173.653 174.214C174.145 174.649 174.827 174.867 175.699 174.867C176.4 174.867 177.016 174.706 177.546 174.384C178.077 174.043 178.494 173.588 178.797 173.02C179.119 172.452 179.28 171.798 179.28 171.059V167.791C179.28 166.711 179.053 165.934 178.598 165.46C178.143 164.986 177.395 164.749 176.353 164.749C175.746 164.749 175.111 164.825 174.448 164.977C173.804 165.128 173.131 165.384 172.43 165.744C172.108 165.896 171.834 165.943 171.606 165.886C171.379 165.829 171.199 165.706 171.066 165.517C170.934 165.308 170.858 165.091 170.839 164.863C170.839 164.617 170.896 164.38 171.009 164.153C171.142 163.925 171.36 163.755 171.663 163.641C172.497 163.243 173.321 162.959 174.136 162.788C174.95 162.618 175.718 162.533 176.438 162.533C177.707 162.533 178.749 162.732 179.564 163.129C180.398 163.527 181.014 164.134 181.411 164.948C181.809 165.763 182.008 166.815 182.008 168.103V175.407C182.008 175.862 181.895 176.222 181.667 176.487C181.44 176.734 181.108 176.857 180.673 176.857C180.256 176.857 179.924 176.734 179.678 176.487C179.431 176.222 179.308 175.862 179.308 175.407V173.56H179.564C179.413 174.261 179.128 174.867 178.711 175.379C178.314 175.872 177.811 176.251 177.205 176.516C176.599 176.781 175.907 176.914 175.13 176.914ZM191.874 176.914C190.737 176.914 189.78 176.715 189.003 176.317C188.226 175.919 187.648 175.332 187.269 174.555C186.89 173.778 186.701 172.831 186.701 171.713V165.005H184.996C184.617 165.005 184.323 164.911 184.115 164.721C183.906 164.513 183.802 164.238 183.802 163.897C183.802 163.537 183.906 163.262 184.115 163.073C184.323 162.883 184.617 162.788 184.996 162.788H186.701V159.861C186.701 159.387 186.824 159.027 187.07 158.781C187.336 158.535 187.696 158.412 188.15 158.412C188.605 158.412 188.956 158.535 189.202 158.781C189.448 159.027 189.571 159.387 189.571 159.861V162.788H192.897C193.276 162.788 193.569 162.883 193.778 163.073C193.986 163.262 194.09 163.537 194.09 163.897C194.09 164.238 193.986 164.513 193.778 164.721C193.569 164.911 193.276 165.005 192.897 165.005H189.571V171.485C189.571 172.489 189.78 173.247 190.197 173.759C190.633 174.271 191.334 174.526 192.3 174.526C192.641 174.526 192.935 174.498 193.181 174.441C193.446 174.365 193.664 174.318 193.835 174.299C194.043 174.299 194.214 174.375 194.346 174.526C194.479 174.659 194.545 174.924 194.545 175.322C194.545 175.606 194.488 175.872 194.375 176.118C194.28 176.364 194.1 176.525 193.835 176.601C193.607 176.677 193.295 176.743 192.897 176.8C192.518 176.876 192.177 176.914 191.874 176.914ZM202.712 176.914C201.196 176.914 199.889 176.629 198.79 176.061C197.71 175.474 196.867 174.649 196.26 173.588C195.673 172.508 195.379 171.229 195.379 169.752C195.379 168.312 195.673 167.052 196.26 165.972C196.848 164.892 197.653 164.048 198.676 163.442C199.699 162.836 200.865 162.533 202.172 162.533C203.138 162.533 204 162.694 204.758 163.016C205.516 163.319 206.16 163.774 206.691 164.38C207.24 164.967 207.648 165.687 207.913 166.54C208.197 167.393 208.339 168.349 208.339 169.411C208.339 169.733 208.245 169.979 208.055 170.149C207.866 170.301 207.581 170.377 207.202 170.377H197.653V168.615H206.407L205.924 169.013C205.924 168.065 205.781 167.26 205.497 166.597C205.232 165.934 204.825 165.432 204.275 165.091C203.745 164.731 203.081 164.551 202.286 164.551C201.395 164.551 200.637 164.759 200.012 165.176C199.406 165.593 198.941 166.171 198.619 166.909C198.297 167.648 198.136 168.511 198.136 169.496V169.666C198.136 171.334 198.525 172.594 199.301 173.446C200.097 174.28 201.244 174.697 202.74 174.697C203.309 174.697 203.906 174.621 204.531 174.469C205.175 174.318 205.781 174.062 206.35 173.702C206.672 173.513 206.956 173.427 207.202 173.446C207.468 173.465 207.676 173.551 207.828 173.702C207.998 173.854 208.102 174.043 208.14 174.271C208.178 174.498 208.14 174.735 208.027 174.981C207.913 175.208 207.714 175.417 207.43 175.606C206.786 176.042 206.037 176.374 205.185 176.601C204.332 176.809 203.508 176.914 202.712 176.914Z" fill="#0C0C0C" fill-opacity="0.9"/>
<path d="M132.272 116.576C131.476 116.576 130.662 116.509 129.828 116.377C129.013 116.263 128.227 116.093 127.469 115.865C126.73 115.638 126.067 115.354 125.479 115.013C125.063 114.785 124.769 114.492 124.598 114.132C124.428 113.753 124.362 113.374 124.399 112.995C124.456 112.616 124.598 112.284 124.826 112C125.072 111.697 125.375 111.507 125.735 111.432C126.114 111.337 126.531 111.403 126.986 111.631C127.763 112.066 128.606 112.388 129.515 112.597C130.444 112.805 131.363 112.909 132.272 112.909C133.655 112.909 134.64 112.701 135.228 112.284C135.815 111.848 136.109 111.308 136.109 110.664C136.109 110.115 135.9 109.679 135.484 109.357C135.067 109.035 134.337 108.76 133.295 108.533L130.084 107.851C128.265 107.472 126.91 106.827 126.019 105.918C125.148 104.989 124.712 103.777 124.712 102.28C124.712 101.333 124.911 100.471 125.309 99.6937C125.707 98.9169 126.266 98.2442 126.986 97.6758C127.706 97.1074 128.558 96.6716 129.544 96.3684C130.548 96.0653 131.647 95.9137 132.84 95.9137C133.902 95.9137 134.944 96.0463 135.967 96.3116C136.99 96.5579 137.89 96.9274 138.667 97.42C139.046 97.6474 139.302 97.9411 139.434 98.3011C139.586 98.6421 139.633 98.9927 139.576 99.3527C139.538 99.6937 139.396 99.9969 139.15 100.262C138.923 100.527 138.629 100.698 138.269 100.774C137.909 100.849 137.473 100.764 136.962 100.518C136.336 100.196 135.673 99.959 134.972 99.8074C134.271 99.6558 133.551 99.58 132.812 99.58C132.016 99.58 131.334 99.6842 130.766 99.8927C130.216 100.101 129.79 100.395 129.487 100.774C129.203 101.153 129.06 101.588 129.06 102.081C129.06 102.631 129.259 103.076 129.657 103.417C130.055 103.758 130.747 104.033 131.732 104.241L134.944 104.923C136.8 105.321 138.184 105.965 139.093 106.856C140.003 107.727 140.457 108.883 140.457 110.323C140.457 111.271 140.268 112.133 139.889 112.909C139.51 113.667 138.96 114.321 138.24 114.871C137.52 115.42 136.658 115.846 135.654 116.149C134.65 116.434 133.523 116.576 132.272 116.576ZM149.603 116.576C148.296 116.576 147.197 116.358 146.306 115.922C145.434 115.486 144.781 114.852 144.345 114.018C143.928 113.184 143.72 112.133 143.72 110.863V105.52H142.526C141.996 105.52 141.579 105.378 141.276 105.094C140.991 104.809 140.849 104.421 140.849 103.928C140.849 103.398 140.991 103 141.276 102.735C141.579 102.451 141.996 102.308 142.526 102.308H143.72V100.148C143.72 99.4284 143.909 98.8884 144.288 98.5284C144.667 98.1495 145.198 97.96 145.88 97.96C146.581 97.96 147.111 98.1495 147.471 98.5284C147.831 98.8884 148.011 99.4284 148.011 100.148V102.308H150.711C151.242 102.308 151.649 102.451 151.933 102.735C152.218 103 152.36 103.398 152.36 103.928C152.36 104.421 152.218 104.809 151.933 105.094C151.649 105.378 151.242 105.52 150.711 105.52H148.011V110.693C148.011 111.488 148.191 112.085 148.551 112.483C148.93 112.881 149.527 113.08 150.342 113.08C150.626 113.08 150.891 113.052 151.138 112.995C151.384 112.938 151.611 112.9 151.82 112.881C152.085 112.862 152.303 112.947 152.473 113.137C152.644 113.307 152.729 113.696 152.729 114.302C152.729 114.757 152.653 115.155 152.502 115.496C152.35 115.837 152.085 116.083 151.706 116.235C151.46 116.329 151.119 116.405 150.683 116.462C150.266 116.538 149.906 116.576 149.603 116.576ZM161.353 116.576C159.704 116.576 158.283 116.282 157.089 115.695C155.915 115.088 155.005 114.245 154.361 113.165C153.736 112.066 153.423 110.778 153.423 109.3C153.423 107.86 153.726 106.6 154.333 105.52C154.939 104.421 155.782 103.568 156.862 102.962C157.961 102.337 159.202 102.024 160.585 102.024C161.589 102.024 162.499 102.195 163.314 102.536C164.128 102.858 164.829 103.332 165.417 103.957C166.004 104.563 166.449 105.312 166.753 106.202C167.056 107.074 167.207 108.049 167.207 109.129C167.207 109.489 167.094 109.764 166.866 109.954C166.639 110.124 166.307 110.209 165.872 110.209H156.947V107.993H164.109L163.655 108.391C163.655 107.614 163.541 106.969 163.314 106.458C163.086 105.927 162.755 105.529 162.319 105.264C161.902 104.999 161.381 104.866 160.756 104.866C160.055 104.866 159.458 105.027 158.965 105.349C158.473 105.672 158.094 106.136 157.828 106.742C157.563 107.348 157.43 108.078 157.43 108.931V109.158C157.43 110.598 157.762 111.659 158.425 112.341C159.107 113.023 160.112 113.364 161.438 113.364C161.893 113.364 162.414 113.307 163.001 113.194C163.588 113.08 164.138 112.9 164.649 112.654C165.085 112.445 165.474 112.379 165.815 112.455C166.156 112.512 166.421 112.663 166.61 112.909C166.8 113.156 166.904 113.44 166.923 113.762C166.961 114.084 166.895 114.406 166.724 114.728C166.554 115.032 166.269 115.287 165.872 115.496C165.227 115.856 164.498 116.121 163.683 116.292C162.887 116.481 162.11 116.576 161.353 116.576ZM171.863 121.635C171.162 121.635 170.622 121.445 170.243 121.066C169.883 120.706 169.703 120.166 169.703 119.446V104.241C169.703 103.54 169.883 103.009 170.243 102.649C170.622 102.271 171.143 102.081 171.807 102.081C172.508 102.081 173.038 102.271 173.398 102.649C173.758 103.009 173.938 103.54 173.938 104.241V106.174L173.626 105.065C173.91 104.156 174.478 103.426 175.331 102.877C176.202 102.308 177.197 102.024 178.315 102.024C179.528 102.024 180.589 102.318 181.498 102.905C182.427 103.493 183.147 104.326 183.658 105.406C184.17 106.486 184.426 107.775 184.426 109.272C184.426 110.768 184.17 112.066 183.658 113.165C183.147 114.264 182.436 115.107 181.527 115.695C180.617 116.282 179.547 116.576 178.315 116.576C177.216 116.576 176.24 116.311 175.388 115.78C174.535 115.231 173.957 114.52 173.654 113.648H173.995V119.446C173.995 120.166 173.806 120.706 173.427 121.066C173.067 121.445 172.546 121.635 171.863 121.635ZM177.036 113.364C177.642 113.364 178.173 113.213 178.628 112.909C179.101 112.606 179.461 112.161 179.708 111.574C179.973 110.967 180.106 110.2 180.106 109.272C180.106 107.888 179.821 106.875 179.253 106.231C178.685 105.567 177.946 105.236 177.036 105.236C176.43 105.236 175.89 105.378 175.416 105.662C174.961 105.946 174.601 106.392 174.336 106.998C174.071 107.585 173.938 108.343 173.938 109.272C173.938 110.655 174.222 111.687 174.791 112.369C175.359 113.033 176.108 113.364 177.036 113.364ZM201.383 116.576C200.379 116.576 199.356 116.462 198.313 116.235C197.29 115.988 196.4 115.647 195.642 115.212C195.149 114.946 194.808 114.634 194.619 114.274C194.448 113.895 194.382 113.525 194.42 113.165C194.477 112.805 194.628 112.493 194.875 112.227C195.121 111.943 195.433 111.763 195.812 111.687C196.21 111.612 196.646 111.687 197.12 111.915C197.859 112.275 198.56 112.531 199.223 112.682C199.886 112.834 200.549 112.909 201.212 112.909C201.97 112.909 202.605 112.815 203.117 112.625C203.628 112.417 204.017 112.123 204.282 111.744C204.547 111.365 204.68 110.892 204.68 110.323C204.68 109.527 204.405 108.931 203.856 108.533C203.306 108.135 202.501 107.936 201.44 107.936H199.763C199.138 107.936 198.655 107.784 198.313 107.481C197.991 107.159 197.83 106.723 197.83 106.174C197.83 105.605 197.991 105.169 198.313 104.866C198.655 104.544 199.138 104.383 199.763 104.383H201.013C201.658 104.383 202.198 104.288 202.633 104.099C203.088 103.891 203.439 103.606 203.685 103.246C203.95 102.886 204.083 102.441 204.083 101.911C204.083 101.153 203.818 100.575 203.287 100.177C202.776 99.779 202.027 99.58 201.042 99.58C200.436 99.58 199.839 99.6558 199.251 99.8074C198.664 99.94 198.029 100.186 197.347 100.546C196.93 100.755 196.542 100.821 196.182 100.745C195.822 100.669 195.519 100.499 195.272 100.234C195.045 99.9684 194.893 99.6653 194.818 99.3242C194.761 98.9642 194.808 98.6042 194.96 98.2442C195.13 97.8842 195.433 97.5906 195.869 97.3632C196.684 96.8895 197.565 96.5295 198.512 96.2832C199.479 96.0369 200.455 95.9137 201.44 95.9137C202.88 95.9137 204.111 96.1316 205.135 96.5674C206.158 97.0032 206.944 97.6284 207.493 98.4432C208.043 99.239 208.318 100.205 208.318 101.342C208.318 102.119 208.166 102.829 207.863 103.474C207.56 104.118 207.133 104.667 206.584 105.122C206.053 105.558 205.4 105.871 204.623 106.06V105.691C205.968 105.918 207.02 106.477 207.778 107.367C208.536 108.258 208.915 109.376 208.915 110.721C208.915 111.915 208.611 112.957 208.005 113.847C207.399 114.719 206.527 115.392 205.39 115.865C204.272 116.339 202.937 116.576 201.383 116.576Z" fill="#0C0C0C" fill-opacity="0.9"/>
<path d="M31.2564 88.1207V6.44079C31.2564 3.98821 33.2446 2 35.6972 2H117.377M31.2564 185.879V267.559C31.2564 270.012 33.2446 272 35.6972 272H117.377M215.136 2H296.816C299.268 2 301.256 3.98821 301.256 6.44079V88.1207M301.256 185.879V267.559C301.256 270.012 299.268 272 296.816 272H215.136" stroke="#02060B" stroke-width="3.55263"/>
<path d="M62.3419 85.0855V37.5263C62.3419 35.0737 64.3301 33.0855 66.7827 33.0855H114.342M62.3419 189.086V236.645C62.3419 239.097 64.3301 241.086 66.7827 241.086H114.342M218.342 33.0855H265.901C268.354 33.0855 270.342 35.0737 270.342 37.5263V85.0855M270.342 189.086V236.645C270.342 239.097 268.354 241.086 265.901 241.086H218.342" stroke="#02060B" stroke-width="0.888158"/>
<rect x="0.170898" y="105.914" width="60" height="60" fill="#02060B"/>
<path d="M17.3138 126.945H20.1414M27.9174 126.945H42.7624M17.3138 144.618H20.1414M27.9174 144.618H42.7624M42.7624 135.782H39.9347M32.1588 135.782H17.3138M36.0468 139.67V139.67C33.8995 139.67 32.1588 137.929 32.1588 135.782V135.782C32.1588 133.634 33.8995 131.894 36.0468 131.894V131.894C38.194 131.894 39.9347 133.634 39.9347 135.782V135.782C39.9347 137.929 38.194 139.67 36.0468 139.67ZM27.9174 144.618V144.618C27.9174 142.471 26.1766 140.73 24.0294 140.73V140.73C21.8821 140.73 20.1414 142.471 20.1414 144.618V144.618C20.1414 146.765 21.8821 148.506 24.0294 148.506V148.506C26.1766 148.506 27.9174 146.765 27.9174 144.618ZM24.0294 130.833V130.833C26.1766 130.833 27.9174 129.093 27.9174 126.945V126.945C27.9174 124.798 26.1766 123.057 24.0294 123.057V123.057C21.8821 123.057 20.1414 124.798 20.1414 126.945V126.945C20.1414 129.093 21.8821 130.833 24.0294 130.833Z" stroke="#FBFBFB" stroke-width="1.33224" stroke-linecap="round" stroke-linejoin="round"/>
</svg>
