<svg width="81" height="80" viewBox="0 0 81 80" fill="none" xmlns="http://www.w3.org/2000/svg">
<path d="M17.7105 45.4211V68.9474C17.7105 69.2265 17.8214 69.4943 18.0188 69.6917C18.2162 69.8891 18.484 70 18.7632 70H62.9737C63.2529 70 63.5206 69.8891 63.718 69.6917C63.9154 69.4943 64.0263 69.2265 64.0263 68.9474V45.4211C65.2565 44.9861 66.3218 44.1808 67.0758 43.1158C67.8298 42.0509 68.2354 40.7785 68.2368 39.4737V37.3684C68.2355 37.2499 68.2141 37.1325 68.1737 37.0211L63.9632 26.4947C63.8914 26.2893 63.7577 26.1112 63.5805 25.9849C63.4033 25.8586 63.1913 25.7903 62.9737 25.7895H61.9211V21.5789C61.9211 21.2998 61.8102 21.032 61.6128 20.8346C61.4153 20.6372 61.1476 20.5263 60.8684 20.5263H51.3947C51.3947 17.7346 50.2857 15.0572 48.3117 13.0831C46.3376 11.109 43.6602 10 40.8684 10C38.0767 10 35.3993 11.109 33.4252 13.0831C31.4511 15.0572 30.3421 17.7346 30.3421 20.5263H20.8684C20.5892 20.5263 20.3215 20.6372 20.1241 20.8346C19.9267 21.032 19.8158 21.2998 19.8158 21.5789V25.7895H18.7632C18.5523 25.7893 18.3463 25.8524 18.1718 25.9706C17.9972 26.0889 17.8622 26.2568 17.7842 26.4526L13.5737 36.9789C13.5247 37.1029 13.4997 37.2351 13.5 37.3684V39.4737C13.5015 40.7785 13.9071 42.0509 14.6611 43.1158C15.415 44.1808 16.4803 44.9861 17.7105 45.4211ZM15.6053 39.4737V38.4211H24.0263V39.4737C24.0263 40.5904 23.5827 41.6614 22.7931 42.451C22.0035 43.2406 20.9325 43.6842 19.8158 43.6842C18.6991 43.6842 17.6281 43.2406 16.8385 42.451C16.0489 41.6614 15.6053 40.5904 15.6053 39.4737ZM35.4895 27.8947L34.6474 36.3158H26.4895L29.0158 27.8947H35.4895ZM52.7105 27.8947L55.2369 36.3158H47.0895L46.2474 27.8947H52.7105ZM34.5526 39.4737C34.5526 40.5904 34.109 41.6614 33.3194 42.451C32.5298 43.2406 31.4588 43.6842 30.3421 43.6842C29.2254 43.6842 28.1544 43.2406 27.3648 42.451C26.5752 41.6614 26.1316 40.5904 26.1316 39.4737V38.4211H34.5526V39.4737ZM36.6579 38.4211H45.079V39.4737C45.079 40.5904 44.6353 41.6614 43.8457 42.451C43.0561 43.2406 41.9851 43.6842 40.8684 43.6842C39.7517 43.6842 38.6808 43.2406 37.8911 42.451C37.1015 41.6614 36.6579 40.5904 36.6579 39.4737V38.4211ZM47.1842 38.4211H55.6053V39.4737C55.6053 40.5904 55.1617 41.6614 54.372 42.451C53.5824 43.2406 52.5114 43.6842 51.3947 43.6842C50.278 43.6842 49.2071 43.2406 48.4174 42.451C47.6278 41.6614 47.1842 40.5904 47.1842 39.4737V38.4211ZM44.1211 27.8947L44.9632 36.3158H36.7737L37.6158 27.8947H44.1211ZM26.1316 67.8947V56.3158C26.1316 54.9199 26.6861 53.5812 27.6731 52.5942C28.6602 51.6071 29.9989 51.0526 31.3947 51.0526C32.7906 51.0526 34.1293 51.6071 35.1164 52.5942C36.1034 53.5812 36.6579 54.9199 36.6579 56.3158V67.8947H26.1316ZM61.9211 67.8947H38.7632V56.3158C38.7632 54.3616 37.9868 52.4874 36.605 51.1055C35.2232 49.7237 33.349 48.9474 31.3947 48.9474C29.4405 48.9474 27.5663 49.7237 26.1845 51.1055C24.8026 52.4874 24.0263 54.3616 24.0263 56.3158V67.8947H19.8158V45.7895C20.8587 45.7887 21.8851 45.5297 22.8035 45.0356C23.7219 44.5415 24.5036 43.8277 25.079 42.9579C25.6551 43.8264 26.4372 44.5389 27.3555 45.0317C28.2738 45.5246 29.2999 45.7825 30.3421 45.7825C31.3843 45.7825 32.4104 45.5246 33.3287 45.0317C34.2471 44.5389 35.0292 43.8264 35.6053 42.9579C36.1814 43.8264 36.9635 44.5389 37.8818 45.0317C38.8002 45.5246 39.8262 45.7825 40.8684 45.7825C41.9107 45.7825 42.9367 45.5246 43.855 45.0317C44.7734 44.5389 45.5555 43.8264 46.1316 42.9579C46.7077 43.8264 47.4898 44.5389 48.4081 45.0317C49.3265 45.5246 50.3525 45.7825 51.3947 45.7825C52.437 45.7825 53.463 45.5246 54.3813 45.0317C55.2997 44.5389 56.0818 43.8264 56.6579 42.9579C57.2332 43.8277 58.015 44.5415 58.9334 45.0356C59.8517 45.5297 60.8782 45.7887 61.9211 45.7895V67.8947ZM66.1316 39.4737C66.1316 40.5904 65.688 41.6614 64.8983 42.451C64.1087 43.2406 63.0378 43.6842 61.9211 43.6842C60.8044 43.6842 59.7334 43.2406 58.9438 42.451C58.1541 41.6614 57.7105 40.5904 57.7105 39.4737V38.4211H66.1316V39.4737ZM65.6263 36.3158H57.4368L54.9105 27.8947H62.279L65.6263 36.3158ZM21.9211 22.6316H31.3947C31.6739 22.6316 31.9417 22.5207 32.1391 22.3233C32.3365 22.1259 32.4474 21.8581 32.4474 21.5789C32.4474 19.3455 33.3346 17.2036 34.9138 15.6244C36.4931 14.0451 38.635 13.1579 40.8684 13.1579C43.1018 13.1579 45.2438 14.0451 46.823 15.6244C48.4023 17.2036 49.2895 19.3455 49.2895 21.5789C49.2895 21.8581 49.4004 22.1259 49.5978 22.3233C49.7952 22.5207 50.0629 22.6316 50.3421 22.6316H59.8158V25.7895H21.9211V22.6316ZM19.479 27.8947H26.8474L24.3211 36.3158H16.1105L19.479 27.8947Z" fill="url(#paint0_linear_1913_11354)"/>
<path d="M29.2894 58.4209C29.0103 58.4209 28.7425 58.5319 28.5451 58.7293C28.3477 58.9267 28.2368 59.1944 28.2368 59.4736V61.5788C28.2368 61.858 28.3477 62.1258 28.5451 62.3232C28.7425 62.5206 29.0103 62.6315 29.2894 62.6315C29.5686 62.6315 29.8364 62.5206 30.0338 62.3232C30.2312 62.1258 30.3421 61.858 30.3421 61.5788V59.4736C30.3421 59.1944 30.2312 58.9267 30.0338 58.7293C29.8364 58.5319 29.5686 58.4209 29.2894 58.4209ZM56.6579 48.9473H44.0263C43.7471 48.9473 43.4794 49.0582 43.282 49.2556C43.0846 49.453 42.9737 49.7207 42.9737 49.9999V62.6315C42.9737 62.9107 43.0846 63.1784 43.282 63.3758C43.4794 63.5732 43.7471 63.6841 44.0263 63.6841H56.6579C56.937 63.6841 57.2048 63.5732 57.4022 63.3758C57.5996 63.1784 57.7105 62.9107 57.7105 62.6315V49.9999C57.7105 49.7207 57.5996 49.453 57.4022 49.2556C57.2048 49.0582 56.937 48.9473 56.6579 48.9473ZM55.6052 61.5788H45.0789V51.0525H55.6052V61.5788Z" fill="url(#paint1_linear_1913_11354)"/>
<defs>
<linearGradient id="paint0_linear_1913_11354" x1="68.2369" y1="40" x2="13.5" y2="40" gradientUnits="userSpaceOnUse">
<stop stop-color="#2058FF"/>
<stop offset="1" stop-color="#004BC2"/>
</linearGradient>
<linearGradient id="paint1_linear_1913_11354" x1="57.7105" y1="56.3157" x2="28.2368" y2="56.3157" gradientUnits="userSpaceOnUse">
<stop stop-color="#2058FF"/>
<stop offset="1" stop-color="#004BC2"/>
</linearGradient>
</defs>
</svg>
