<svg width="47" height="47" viewBox="0 0 47 47" fill="none" xmlns="http://www.w3.org/2000/svg">
<circle cx="23.5" cy="23.5" r="23" stroke="url(#paint0_linear_768_1940)"/>
<path d="M35.0051 16.4591C34.1627 16.8226 33.2458 17.0841 32.3015 17.186C33.2819 16.6035 34.0162 15.6833 34.3664 14.598C33.4464 15.1453 32.4385 15.529 31.3874 15.7323C30.9481 15.2627 30.4168 14.8885 29.8266 14.6332C29.2364 14.3779 28.6 14.2469 27.9569 14.2483C25.3551 14.2483 23.2627 16.3573 23.2627 18.9453C23.2627 19.3087 23.3068 19.6721 23.3783 20.0218C19.4826 19.818 16.008 17.9569 13.6981 15.1073C13.2772 15.8262 13.0566 16.6448 13.0593 17.4778C13.0593 19.1077 13.888 20.5449 15.1518 21.3901C14.407 21.3608 13.6797 21.1561 13.029 20.7927V20.8505C13.029 23.1329 14.6424 25.0244 16.7927 25.4594C16.3889 25.5642 15.9736 25.6179 15.5565 25.619C15.2509 25.619 14.9618 25.5888 14.67 25.5475C15.2646 27.4086 16.9964 28.7605 19.0586 28.8045C17.4452 30.0682 15.4243 30.8116 13.23 30.8116C12.8363 30.8116 12.4729 30.7978 12.0957 30.7538C14.1771 32.0891 16.6468 32.86 19.3064 32.86C27.9404 32.86 32.6649 25.7072 32.6649 19.4987C32.6649 19.2949 32.6649 19.0912 32.6511 18.8875C33.5652 18.2184 34.3664 17.3897 35.0051 16.4591Z" fill="url(#paint1_linear_768_1940)"/>
<defs>
<linearGradient id="paint0_linear_768_1940" x1="46" y1="23.5" x2="1" y2="23.5" gradientUnits="userSpaceOnUse">
<stop stop-color="#2058FF"/>
<stop offset="1" stop-color="#004BC2"/>
</linearGradient>
<linearGradient id="paint1_linear_768_1940" x1="35.0051" y1="23.5541" x2="12.0957" y2="23.5541" gradientUnits="userSpaceOnUse">
<stop stop-color="#2058FF"/>
<stop offset="1" stop-color="#004BC2"/>
</linearGradient>
</defs>
</svg>
