<svg width="93" height="52" viewBox="0 0 93 52" fill="none" xmlns="http://www.w3.org/2000/svg">
<g clip-path="url(#clip0_1294_3914)">
<path d="M82.8659 5.68573L68.7032 17.7162C68.4231 17.9514 68.3106 18.3338 68.4097 18.687C68.509 19.0402 68.8125 19.302 69.1789 19.3548L74.0481 20.0596C74.3012 20.0962 74.5511 19.975 74.6789 19.7535L77.0859 15.5844C77.3453 15.1352 77.9173 14.9819 78.3666 15.2413C78.8158 15.5007 78.9691 16.0727 78.7097 16.5219L76.3027 20.691C76.1749 20.9125 76.1948 21.1894 76.3531 21.3903L79.398 25.2548C79.627 25.5457 80.0055 25.6777 80.3609 25.587C80.6139 25.5238 80.8224 25.3627 80.9474 25.1462C81.0005 25.0542 81.0374 24.9528 81.0549 24.8474L84.3923 6.56698C84.4661 6.17661 84.2826 5.78197 83.9416 5.5851C83.6006 5.38822 83.1671 5.42661 82.8659 5.68573Z" fill="black"/>
</g>
<path d="M8.2232 47.2C7.2232 47.2 6.29654 47.02 5.4432 46.66C4.58987 46.2867 3.8432 45.7733 3.2032 45.12C2.57654 44.4667 2.08987 43.7067 1.7432 42.84C1.39654 41.9733 1.2232 41.0467 1.2232 40.06C1.2232 39.06 1.39654 38.1267 1.7432 37.26C2.08987 36.3933 2.57654 35.64 3.2032 35C3.8432 34.3467 4.5832 33.84 5.4232 33.48C6.27654 33.1067 7.2032 32.92 8.2032 32.92C9.29654 32.92 10.2565 33.1067 11.0832 33.48C11.9099 33.8533 12.6432 34.36 13.2832 35L11.9832 36.3C11.5432 35.8067 11.0032 35.42 10.3632 35.14C9.73654 34.86 9.01654 34.72 8.2032 34.72C7.46987 34.72 6.79654 34.8533 6.1832 35.12C5.56987 35.3733 5.03654 35.74 4.5832 36.22C4.12987 36.7 3.77654 37.2667 3.5232 37.92C3.2832 38.5733 3.1632 39.2867 3.1632 40.06C3.1632 40.8333 3.2832 41.5467 3.5232 42.2C3.77654 42.8533 4.12987 43.42 4.5832 43.9C5.03654 44.38 5.56987 44.7533 6.1832 45.02C6.79654 45.2733 7.46987 45.4 8.2032 45.4C9.06987 45.4 9.8232 45.26 10.4632 44.98C11.1032 44.6867 11.6432 44.2933 12.0832 43.8L13.3832 45.08C12.7432 45.7467 11.9899 46.2667 11.1232 46.64C10.2699 47.0133 9.3032 47.2 8.2232 47.2ZM19.3807 47.2C18.4474 47.2 17.6074 46.98 16.8607 46.54C16.114 46.1 15.5207 45.5067 15.0807 44.76C14.6407 44 14.4207 43.1533 14.4207 42.22C14.4207 41.3 14.6407 40.4733 15.0807 39.74C15.5207 38.9933 16.114 38.4 16.8607 37.96C17.6074 37.52 18.4474 37.3 19.3807 37.3C20.3007 37.3 21.134 37.52 21.8807 37.96C22.6407 38.3867 23.2407 38.9733 23.6807 39.72C24.1207 40.4667 24.3407 41.3 24.3407 42.22C24.3407 43.1533 24.1207 44 23.6807 44.76C23.2407 45.5067 22.6407 46.1 21.8807 46.54C21.134 46.98 20.3007 47.2 19.3807 47.2ZM19.3807 45.46C19.9807 45.46 20.514 45.32 20.9807 45.04C21.4474 44.76 21.814 44.38 22.0807 43.9C22.3474 43.4067 22.4807 42.8467 22.4807 42.22C22.4807 41.6067 22.3407 41.06 22.0607 40.58C21.794 40.1 21.4274 39.7267 20.9607 39.46C20.5074 39.18 19.9807 39.04 19.3807 39.04C18.7807 39.04 18.2474 39.18 17.7807 39.46C17.314 39.7267 16.9474 40.1 16.6807 40.58C16.414 41.06 16.2807 41.6067 16.2807 42.22C16.2807 42.8467 16.414 43.4067 16.6807 43.9C16.9474 44.38 17.314 44.76 17.7807 45.04C18.2474 45.32 18.7807 45.46 19.3807 45.46ZM33.0888 47V41.46C33.0888 40.74 32.8622 40.1467 32.4088 39.68C31.9555 39.2133 31.3688 38.98 30.6488 38.98C30.1688 38.98 29.7422 39.0867 29.3688 39.3C28.9955 39.5133 28.7022 39.8067 28.4888 40.18C28.2755 40.5533 28.1688 40.98 28.1688 41.46L27.4288 41.04C27.4288 40.32 27.5888 39.68 27.9088 39.12C28.2288 38.56 28.6755 38.12 29.2488 37.8C29.8222 37.4667 30.4688 37.3 31.1888 37.3C31.9088 37.3 32.5422 37.48 33.0888 37.84C33.6488 38.2 34.0888 38.6733 34.4088 39.26C34.7288 39.8333 34.8888 40.4467 34.8888 41.1V47H33.0888ZM26.3688 47V37.5H28.1688V47H26.3688ZM44.0459 47V41.46C44.0459 40.74 43.8192 40.1467 43.3659 39.68C42.9125 39.2133 42.3259 38.98 41.6059 38.98C41.1259 38.98 40.6992 39.0867 40.3259 39.3C39.9525 39.5133 39.6592 39.8067 39.4459 40.18C39.2325 40.5533 39.1259 40.98 39.1259 41.46L38.3859 41.04C38.3859 40.32 38.5459 39.68 38.8659 39.12C39.1859 38.56 39.6325 38.12 40.2059 37.8C40.7792 37.4667 41.4259 37.3 42.1459 37.3C42.8659 37.3 43.4992 37.48 44.0459 37.84C44.6059 38.2 45.0459 38.6733 45.3659 39.26C45.6859 39.8333 45.8459 40.4467 45.8459 41.1V47H44.0459ZM37.3259 47V37.5H39.1259V47H37.3259ZM52.6829 47.2C51.7362 47.2 50.8829 46.9867 50.1229 46.56C49.3629 46.12 48.7629 45.5267 48.3229 44.78C47.8829 44.0333 47.6629 43.1867 47.6629 42.24C47.6629 41.3067 47.8762 40.4667 48.3029 39.72C48.7429 38.9733 49.3296 38.3867 50.0629 37.96C50.8096 37.52 51.6429 37.3 52.5629 37.3C53.4429 37.3 54.2162 37.5 54.8829 37.9C55.5629 38.3 56.0896 38.8533 56.4629 39.56C56.8496 40.2667 57.0429 41.0667 57.0429 41.96C57.0429 42.0933 57.0362 42.24 57.0229 42.4C57.0096 42.5467 56.9829 42.72 56.9429 42.92H48.9229V41.42H55.9829L55.3229 42C55.3229 41.36 55.2096 40.82 54.9829 40.38C54.7562 39.9267 54.4362 39.58 54.0229 39.34C53.6096 39.0867 53.1096 38.96 52.5229 38.96C51.9096 38.96 51.3696 39.0933 50.9029 39.36C50.4362 39.6267 50.0762 40 49.8229 40.48C49.5696 40.96 49.4429 41.5267 49.4429 42.18C49.4429 42.8467 49.5762 43.4333 49.8429 43.94C50.1096 44.4333 50.4896 44.82 50.9829 45.1C51.4762 45.3667 52.0429 45.5 52.6829 45.5C53.2162 45.5 53.7029 45.4067 54.1429 45.22C54.5962 45.0333 54.9829 44.7533 55.3029 44.38L56.4629 45.56C56.0096 46.0933 55.4496 46.5 54.7829 46.78C54.1296 47.06 53.4296 47.2 52.6829 47.2ZM63.3455 47.2C62.4122 47.2 61.5655 46.98 60.8055 46.54C60.0589 46.1 59.4655 45.5067 59.0255 44.76C58.5989 44 58.3855 43.16 58.3855 42.24C58.3855 41.3067 58.5989 40.4667 59.0255 39.72C59.4655 38.9733 60.0589 38.3867 60.8055 37.96C61.5655 37.52 62.4122 37.3 63.3455 37.3C64.0789 37.3 64.7589 37.44 65.3855 37.72C66.0122 37.9867 66.5522 38.38 67.0055 38.9L65.8055 40.1C65.5122 39.7533 65.1522 39.4933 64.7255 39.32C64.3122 39.1333 63.8522 39.04 63.3455 39.04C62.7455 39.04 62.2122 39.18 61.7455 39.46C61.2789 39.7267 60.9122 40.1 60.6455 40.58C60.3789 41.06 60.2455 41.6133 60.2455 42.24C60.2455 42.8667 60.3789 43.42 60.6455 43.9C60.9122 44.38 61.2789 44.76 61.7455 45.04C62.2122 45.32 62.7455 45.46 63.3455 45.46C63.8522 45.46 64.3122 45.3733 64.7255 45.2C65.1522 45.0133 65.5189 44.7467 65.8255 44.4L67.0055 45.6C66.5655 46.1067 66.0255 46.5 65.3855 46.78C64.7589 47.06 64.0789 47.2 63.3455 47.2ZM70.1335 47V33.52H71.9335V47H70.1335ZM67.7935 39.14V37.5H74.2735V39.14H67.7935Z" fill="black"/>
<defs>
<clipPath id="clip0_1294_3914">
<rect width="20" height="20" fill="white" transform="translate(65.4375 17.6348) rotate(-60)"/>
</clipPath>
</defs>
</svg>
