<svg width="442" height="495" viewBox="0 0 442 495" fill="none" xmlns="http://www.w3.org/2000/svg">
<path fill-rule="evenodd" clip-rule="evenodd" d="M242.284 405.615C263.717 349.704 382.993 364.614 359.697 420.525C431.859 386.978 426.111 456.866 370.879 468.981C301.922 483.891 88.5279 482.96 59.6403 468.981C29.8212 444.753 69.8904 399.093 149.099 422.39C127.664 313.363 218.055 351.567 242.284 405.615Z" fill="#E8F2FF"/>
<path fill-rule="evenodd" clip-rule="evenodd" d="M102.27 127.497H176.38C176.92 95.0409 190.986 79.353 217.492 79.353C241.293 79.353 255.357 89.6318 255.357 112.351C255.357 164.282 188.822 169.15 188.822 252.455H260.766C260.766 189.165 344.072 178.346 344.072 96.6633C344.072 36.0783 299.174 1.99805 226.687 1.99805C149.332 1.99924 102.812 47.9796 102.27 127.497ZM223.441 293.567C196.394 293.567 177.462 312.5 177.462 340.088C177.462 367.676 196.395 387.15 223.441 387.15C250.489 387.15 269.963 367.676 269.963 340.088C269.963 312.5 250.489 293.567 223.441 293.567Z" fill="#C5DCFA"/>
<path fill-rule="evenodd" clip-rule="evenodd" d="M340.379 451.576C344.748 440.697 340.455 404.442 329.563 405.984C314.948 408.055 324.177 445.594 340.379 451.576Z" fill="#C9DAF0"/>
<path fill-rule="evenodd" clip-rule="evenodd" d="M342.834 452.311C348.906 442.282 380.494 438.099 385.805 447.733C392.933 460.659 357.351 461.667 342.834 452.311Z" fill="#C9DAF0"/>
<path fill-rule="evenodd" clip-rule="evenodd" d="M360.114 418.925C368.249 414.321 377.561 388.286 369.218 385.581C359.241 382.348 352.997 407.137 360.114 418.925Z" fill="#C9DAF0"/>
<path fill-rule="evenodd" clip-rule="evenodd" d="M361.628 420.299C367.789 413.268 396.269 410.243 396.086 419.013C395.91 427.533 369.194 427.237 361.628 420.299Z" fill="#C9DAF0"/>
<path fill-rule="evenodd" clip-rule="evenodd" d="M347.277 434.101C354.69 427.067 358.91 397.61 350.841 395.499C339.941 392.647 336.61 423.479 347.277 434.101Z" fill="#C9DAF0"/>
<path fill-rule="evenodd" clip-rule="evenodd" d="M349.335 434.971C357.168 426.366 388.779 422.855 388.385 430.934C387.773 443.468 359.062 441.506 349.335 434.971Z" fill="#C9DAF0"/>
<path fill-rule="evenodd" clip-rule="evenodd" d="M427.985 357.543C429.7 352.888 425.364 338.795 421.043 340.524C415.237 342.847 421.06 355.214 427.985 357.543Z" fill="#C9DAF0"/>
<path fill-rule="evenodd" clip-rule="evenodd" d="M429.065 357.642C429.439 352.697 437.055 343.644 440.389 346.936C444.831 351.324 436.332 358.398 429.065 357.642Z" fill="#C9DAF0"/>
<path fill-rule="evenodd" clip-rule="evenodd" d="M420.731 372.268C423.882 367.434 421.147 350.477 415.883 351.751C408.842 353.453 413.481 367.828 420.731 372.268Z" fill="#C9DAF0"/>
<path fill-rule="evenodd" clip-rule="evenodd" d="M421.929 372.662C423.635 367.149 437.117 356.893 440.045 362.101C443.605 368.434 429.976 375.403 421.929 372.662Z" fill="#C9DAF0"/>
<path fill-rule="evenodd" clip-rule="evenodd" d="M410.349 384.109C414.84 379.712 413.211 359.307 407.38 360.199C399.675 361.378 403.685 377.678 410.349 384.109Z" fill="#C9DAF0"/>
<path fill-rule="evenodd" clip-rule="evenodd" d="M411.531 384.809C414.645 379.349 430.118 372.361 432.398 378.043C435.345 385.388 419.442 389.623 411.531 384.809Z" fill="#C9DAF0"/>
<path fill-rule="evenodd" clip-rule="evenodd" d="M394.773 395.534C401.128 391.408 405.904 369.898 399.052 368C390.394 365.601 388.431 386.348 394.773 395.534Z" fill="#C9DAF0"/>
<path fill-rule="evenodd" clip-rule="evenodd" d="M396.002 396.646C400.983 390.936 420.205 384.864 421.948 391.345C424.428 400.556 404.203 404.218 396.002 396.646Z" fill="#C9DAF0"/>
<path fill-rule="evenodd" clip-rule="evenodd" d="M377.461 405.789C384.936 401.724 392.529 380.645 385.759 376.412C377.192 371.053 371.165 394.95 377.461 405.789Z" fill="#C9DAF0"/>
<path fill-rule="evenodd" clip-rule="evenodd" d="M378.742 407.14C384.818 401.183 409.454 400.385 408.132 407.275C406.568 415.417 387.261 416.336 378.742 407.14Z" fill="#C9DAF0"/>
<path fill-rule="evenodd" clip-rule="evenodd" d="M339.207 475.101C339.258 480.04 346.073 479.436 344.978 474.276C336.002 395.218 423.423 417.836 432.153 343.665C432.514 340.648 429.827 340.393 429.466 343.409C421.07 414.738 329.794 392.187 339.207 475.101Z" fill="#C9DAF0"/>
<path fill-rule="evenodd" clip-rule="evenodd" d="M430.435 346.925C438.276 342.083 437.784 329.654 433.191 328.894C427.673 327.983 425.501 341.86 430.435 346.925Z" fill="#C9DAF0"/>
<path fill-rule="evenodd" clip-rule="evenodd" d="M303.435 460.54C303.351 461.681 304.843 461.424 306.768 459.969C308.692 458.513 310.321 456.408 310.404 455.269C311.278 443.576 324.5 407.389 345.933 369.22C360.453 343.36 378.658 316.753 399.113 296.731C400.93 294.951 401.882 293.093 401.238 292.582C400.593 292.07 398.596 293.097 396.779 294.876C374.508 316.676 355.102 344.907 339.842 372.084C317.893 411.168 304.341 448.414 303.435 460.54Z" fill="#B8CCE6"/>
<path fill-rule="evenodd" clip-rule="evenodd" d="M334.778 397.028C344.327 399.319 378.774 394.781 379.719 382.556C380.882 367.491 340.115 390.194 334.769 392.681C328.644 395.531 329.42 395.743 334.778 397.028Z" fill="#B8CCE6"/>
<path fill-rule="evenodd" clip-rule="evenodd" d="M345.797 373.846C353.834 375.773 382.824 371.956 383.619 361.667C384.598 348.989 350.289 368.095 345.791 370.187C340.636 372.587 341.289 372.765 345.797 373.846Z" fill="#B8CCE6"/>
<path fill-rule="evenodd" clip-rule="evenodd" d="M357.212 353.795C364.305 355.496 389.889 352.127 390.589 343.047C391.454 331.859 361.176 348.719 357.206 350.567C352.657 352.684 353.233 352.841 357.212 353.795Z" fill="#B8CCE6"/>
<path fill-rule="evenodd" clip-rule="evenodd" d="M369.946 336.856C375.465 338.18 395.371 335.558 395.917 328.493C396.589 319.787 373.03 332.906 369.942 334.343C366.402 335.99 366.85 336.113 369.946 336.856Z" fill="#B8CCE6"/>
<path fill-rule="evenodd" clip-rule="evenodd" d="M382.272 320.662C386.847 321.76 403.346 319.586 403.799 313.73C404.357 306.514 384.828 317.388 382.269 318.579C379.333 319.946 379.705 320.048 382.272 320.662Z" fill="#B8CCE6"/>
<path fill-rule="evenodd" clip-rule="evenodd" d="M392.343 306.306C395.659 307.101 407.618 305.526 407.945 301.282C408.349 296.052 394.197 303.933 392.341 304.796C390.214 305.787 390.483 305.86 392.343 306.306Z" fill="#B8CCE6"/>
<path fill-rule="evenodd" clip-rule="evenodd" d="M398.961 295.566C402.747 294.022 413.885 284.673 411.807 280.841C409.247 276.119 399.479 292.306 398.102 294.283C396.524 296.55 396.836 296.432 398.961 295.566Z" fill="#B8CCE6"/>
<path fill-rule="evenodd" clip-rule="evenodd" d="M325.883 391.644C319.533 384.022 307.812 350.702 318.062 344.278C330.694 336.363 329.423 383.689 329.684 389.671C329.984 396.528 329.446 395.919 325.883 391.644Z" fill="#B8CCE6"/>
<path fill-rule="evenodd" clip-rule="evenodd" d="M338.269 369.118C333.131 362.502 324.109 334.033 332.852 328.899C343.626 322.573 341.426 362.501 341.502 367.56C341.587 373.359 341.15 372.83 338.269 369.118Z" fill="#B8CCE6"/>
<path fill-rule="evenodd" clip-rule="evenodd" d="M350.879 348.101C346.86 341.807 340.951 315.778 348.908 311.92C358.715 307.165 354.077 342.474 353.797 346.976C353.477 352.136 353.134 351.632 350.879 348.101Z" fill="#B8CCE6"/>
<path fill-rule="evenodd" clip-rule="evenodd" d="M363.495 332.317C360.46 327.345 356.223 306.955 362.451 304.072C370.126 300.52 366.052 327.98 365.775 331.487C365.457 335.504 365.197 335.105 363.495 332.317Z" fill="#B8CCE6"/>
<path fill-rule="evenodd" clip-rule="evenodd" d="M376.804 316.002C374.208 311.947 370.381 295.165 375.512 292.672C381.835 289.599 378.864 312.373 378.686 315.276C378.481 318.604 378.26 318.279 376.804 316.002Z" fill="#B8CCE6"/>
<path fill-rule="evenodd" clip-rule="evenodd" d="M388.322 302.02C386.572 298.977 384.31 286.626 388.077 284.988C392.72 282.97 389.911 299.448 389.698 301.556C389.454 303.973 389.305 303.727 388.322 302.02Z" fill="#B8CCE6"/>
<path fill-rule="evenodd" clip-rule="evenodd" d="M323.837 425.021C333.883 426.689 369.356 419.635 369.608 407.081C369.919 391.612 328.968 417.666 323.571 420.581C317.383 423.924 318.201 424.085 323.837 425.021Z" fill="#B8CCE6"/>
<path fill-rule="evenodd" clip-rule="evenodd" d="M312.73 420C306.298 413.297 293.378 382.965 302.743 376.315C314.285 368.12 315.653 412.353 316.225 417.916C316.882 424.293 316.339 423.76 312.73 420Z" fill="#B8CCE6"/>
<path fill-rule="evenodd" clip-rule="evenodd" d="M313.495 447.021C322.393 449.91 355.264 448.007 356.899 436.303C358.912 421.883 318.96 440.823 313.751 442.835C307.781 445.14 308.503 445.4 313.495 447.021Z" fill="#B8CCE6"/>
<path fill-rule="evenodd" clip-rule="evenodd" d="M305.857 444.032C297.806 438.486 278.708 410.074 287.588 401.348C298.531 390.596 307.663 435.604 309.241 441.183C311.049 447.579 310.375 447.145 305.857 444.032Z" fill="#B8CCE6"/>
<path fill-rule="evenodd" clip-rule="evenodd" d="M145.022 426.638C140.489 415.826 144.231 379.51 155.146 380.889C169.791 382.736 161.132 420.412 145.022 426.638Z" fill="#B8CCE6"/>
<path fill-rule="evenodd" clip-rule="evenodd" d="M142.579 427.41C136.357 417.474 104.708 413.77 99.5431 423.483C92.612 436.516 128.206 436.986 142.579 427.41Z" fill="#B8CCE6"/>
<path fill-rule="evenodd" clip-rule="evenodd" d="M124.795 394.289C116.59 389.809 106.885 363.917 115.188 361.087C125.114 357.702 131.734 382.393 124.795 394.289Z" fill="#B8CCE6"/>
<path fill-rule="evenodd" clip-rule="evenodd" d="M123.302 395.686C117.035 388.75 88.5143 386.156 88.8288 394.923C89.1348 403.439 115.844 402.737 123.302 395.686Z" fill="#B8CCE6"/>
<path fill-rule="evenodd" clip-rule="evenodd" d="M137.861 409.271C130.343 402.35 125.677 372.962 133.713 370.728C144.568 367.711 148.365 398.488 137.861 409.271Z" fill="#B8CCE6"/>
<path fill-rule="evenodd" clip-rule="evenodd" d="M135.816 410.171C127.854 401.686 96.1938 398.654 96.7103 406.725C97.5126 419.248 126.19 416.851 135.816 410.171Z" fill="#B8CCE6"/>
<path fill-rule="evenodd" clip-rule="evenodd" d="M56.003 333.944C54.2191 329.316 58.3392 315.159 62.6866 316.823C68.526 319.056 62.891 331.51 56.003 333.944Z" fill="#B8CCE6"/>
<path fill-rule="evenodd" clip-rule="evenodd" d="M54.9245 334.062C54.4761 329.123 46.7237 320.185 43.4393 323.528C39.0645 327.983 47.6694 334.927 54.9245 334.062Z" fill="#B8CCE6"/>
<path fill-rule="evenodd" clip-rule="evenodd" d="M63.4793 348.557C60.2547 343.771 62.7332 326.775 68.0155 327.968C75.0805 329.564 70.6603 344.007 63.4793 348.557Z" fill="#B8CCE6"/>
<path fill-rule="evenodd" clip-rule="evenodd" d="M62.286 348.968C60.4961 343.481 46.8611 333.431 44.0119 338.683C40.5494 345.07 54.2824 351.832 62.286 348.968Z" fill="#B8CCE6"/>
<path fill-rule="evenodd" clip-rule="evenodd" d="M74.0387 360.24C69.4822 355.91 70.8034 335.484 76.6464 336.288C84.3666 337.349 80.6039 353.709 74.0387 360.24Z" fill="#B8CCE6"/>
<path fill-rule="evenodd" clip-rule="evenodd" d="M72.8674 360.959C69.6702 355.547 54.0936 348.794 51.8996 354.51C49.0647 361.898 65.0312 365.891 72.8674 360.959Z" fill="#B8CCE6"/>
<path fill-rule="evenodd" clip-rule="evenodd" d="M89.7867 371.428C83.3709 367.397 78.268 345.963 85.0914 343.961C93.7119 341.431 95.9872 362.147 89.7867 371.428Z" fill="#B8CCE6"/>
<path fill-rule="evenodd" clip-rule="evenodd" d="M88.5744 372.557C83.5073 366.924 64.1955 361.143 62.5503 367.651C60.2116 376.899 80.4895 380.253 88.5744 372.557Z" fill="#B8CCE6"/>
<path fill-rule="evenodd" clip-rule="evenodd" d="M107.25 381.419C99.7141 377.467 91.805 356.506 98.5089 352.17C106.994 346.683 113.383 370.486 107.25 381.419Z" fill="#B8CCE6"/>
<path fill-rule="evenodd" clip-rule="evenodd" d="M105.992 382.789C99.8263 376.924 75.1819 376.5 76.6083 383.37C78.2929 391.487 97.6131 392.112 105.992 382.789Z" fill="#B8CCE6"/>
<path fill-rule="evenodd" clip-rule="evenodd" d="M146.551 450.142C146.575 455.081 139.752 454.58 140.769 449.404C148.546 370.22 61.4775 394.16 51.6243 320.13C51.2178 317.12 53.9008 316.823 54.3073 319.834C63.7839 391.028 154.707 367.096 146.551 450.142Z" fill="#B8CCE6"/>
<path fill-rule="evenodd" clip-rule="evenodd" d="M53.3917 323.363C45.4778 318.641 45.7827 306.206 50.3632 305.377C55.8667 304.382 58.2484 318.224 53.3917 323.363Z" fill="#B8CCE6"/>
<path fill-rule="evenodd" clip-rule="evenodd" d="M146.85 468.431C147.895 468.737 147.956 467.295 146.985 465.21C146.014 463.125 144.379 461.187 143.334 460.881C132.613 457.724 101.538 438.16 70.2616 410.546C49.0715 391.836 27.9219 369.545 13.3592 346.475C12.0655 344.426 10.5255 343.167 9.91934 343.666C9.31315 344.164 9.87032 346.229 11.1652 348.28C27.0204 373.397 49.4433 397.133 71.7119 416.795C103.737 445.073 135.732 465.158 146.85 468.431Z" fill="#C9DAF0"/>
<path fill-rule="evenodd" clip-rule="evenodd" d="M93.9415 426.508C97.9875 418.068 100.657 385.059 89.4543 381.732C75.6495 377.632 88.6424 420.167 89.8895 425.645C91.3183 431.925 91.671 431.243 93.9415 426.508Z" fill="#C9DAF0"/>
<path fill-rule="evenodd" clip-rule="evenodd" d="M74.5456 411.597C77.9507 404.494 80.1973 376.716 70.7686 373.916C59.1506 370.465 70.0847 406.261 71.1344 410.871C72.3384 416.156 72.635 415.582 74.5456 411.597Z" fill="#C9DAF0"/>
<path fill-rule="evenodd" clip-rule="evenodd" d="M58.1462 396.946C61.1508 390.677 63.1331 366.162 54.8127 363.691C44.5602 360.646 54.2089 392.235 55.1356 396.304C56.1973 400.969 56.4591 400.464 58.1462 396.946Z" fill="#C9DAF0"/>
<path fill-rule="evenodd" clip-rule="evenodd" d="M44.9107 381.688C47.2494 376.81 48.7917 357.735 42.3174 355.812C34.3402 353.442 41.8475 378.022 42.5685 381.188C43.3947 384.818 43.5979 384.425 44.9107 381.688Z" fill="#C9DAF0"/>
<path fill-rule="evenodd" clip-rule="evenodd" d="M32.2887 366.959C34.2268 362.917 35.5049 347.106 30.139 345.512C23.5259 343.548 29.7492 363.922 30.347 366.547C31.0333 369.554 31.2019 369.229 32.2887 366.959Z" fill="#C9DAF0"/>
<path fill-rule="evenodd" clip-rule="evenodd" d="M20.9274 354.7C22.3323 351.77 23.2589 340.311 19.3695 339.156C14.5774 337.733 19.0873 352.499 19.5202 354.4C20.0164 356.581 20.1395 356.344 20.9274 354.7Z" fill="#C9DAF0"/>
<path fill-rule="evenodd" clip-rule="evenodd" d="M12.2437 346.384C11.5634 342.547 5.0807 330.297 1.09446 331.465C-3.81838 332.904 9.30965 345.248 10.8771 346.927C12.673 348.852 12.6251 348.537 12.2437 346.384Z" fill="#C9DAF0"/>
<path fill-rule="evenodd" clip-rule="evenodd" d="M87.1418 433.718C78.7676 438.109 45.3712 442.36 41.4388 431.522C36.5917 418.167 80.4379 428.826 86.0645 429.78C92.5149 430.875 91.8406 431.255 87.1418 433.718Z" fill="#C9DAF0"/>
<path fill-rule="evenodd" clip-rule="evenodd" d="M68.6322 417.667C61.4381 421.13 33.1028 423.838 30.0695 414.663C26.3319 403.357 63.0988 413.4 67.8275 414.343C73.2485 415.424 72.6686 415.724 68.6322 417.667Z" fill="#C9DAF0"/>
<path fill-rule="evenodd" clip-rule="evenodd" d="M51.5728 401.708C44.9036 404.194 19.4653 404.488 17.4626 396.301C14.9961 386.211 46.9696 397.601 51.1089 398.764C55.8532 400.094 55.3139 400.314 51.5728 401.708Z" fill="#C9DAF0"/>
<path fill-rule="evenodd" clip-rule="evenodd" d="M39.3894 386.791C34.1489 388.624 14.3003 388.49 12.8607 382.109C11.0876 374.247 35.8611 383.541 39.0725 384.501C42.7539 385.601 42.3294 385.763 39.3894 386.791Z" fill="#C9DAF0"/>
<path fill-rule="evenodd" clip-rule="evenodd" d="M26.8523 371.124C22.5528 372.731 6.14879 372.936 4.85272 367.656C3.25536 361.15 23.8812 368.478 26.551 369.224C29.6118 370.08 29.2651 370.222 26.8523 371.124Z" fill="#C9DAF0"/>
<path fill-rule="evenodd" clip-rule="evenodd" d="M16.1282 357.59C12.9419 358.611 0.979598 358.247 0.208416 354.408C-0.742111 349.678 14.0502 355.593 15.9716 356.215C18.174 356.925 17.9157 357.017 16.1282 357.59Z" fill="#C9DAF0"/>
<path fill-rule="evenodd" clip-rule="evenodd" d="M117.837 442.308C121.402 433.28 121.931 398.812 110.284 396.064C95.9318 392.678 112.011 436.053 113.647 441.668C115.522 448.103 115.835 447.372 117.837 442.308Z" fill="#C9DAF0"/>
<path fill-rule="evenodd" clip-rule="evenodd" d="M110.934 451.651C103.4 456.303 72.548 462.27 68.2257 452.21C62.9004 439.815 104.392 447.395 109.691 447.975C115.766 448.641 115.161 449.041 110.934 451.651Z" fill="#C9DAF0"/>
<path fill-rule="evenodd" clip-rule="evenodd" d="M136.267 456.349C140.741 448.636 145.548 417.624 134.969 413.758C121.935 408.995 131.584 450.017 132.417 455.273C133.371 461.298 133.757 460.676 136.267 456.349Z" fill="#C9DAF0"/>
<path fill-rule="evenodd" clip-rule="evenodd" d="M131.953 462.869C125.172 469.262 94.8727 481.37 88.5191 471.347C80.6901 458.998 124.46 459.499 129.975 459.146C136.295 458.741 135.756 459.282 131.953 462.869Z" fill="#C9DAF0"/>
<path d="M223.171 495C321.208 495 400.683 484.806 400.683 472.231C400.683 459.657 321.208 449.463 223.171 449.463C125.134 449.463 45.6597 459.657 45.6597 472.231C45.6597 484.806 125.134 495 223.171 495Z" fill="#C9DAF0"/>
<path fill-rule="evenodd" clip-rule="evenodd" d="M284.71 125.972C283.92 130.641 278.158 137.15 277.759 141.373C276.448 155.24 287.857 168.137 306.509 166.715C332.849 164.707 343.406 164.864 346.34 148.949C348.712 136.082 342.231 133.203 341.907 124.515C341.72 119.501 342.653 115.912 339.623 109.337C330.889 90.3814 303.539 90.0012 296.448 98.6504C294.584 100.924 289.222 100.798 285.878 107.786C283.035 113.725 285.923 118.817 284.71 125.972Z" fill="#002E6C"/>
<path fill-rule="evenodd" clip-rule="evenodd" d="M309.856 253.881C302.954 260.793 287.586 262.724 279.698 261.284C281.522 240.453 284.102 231.744 309.856 253.881Z" fill="white"/>
<path fill-rule="evenodd" clip-rule="evenodd" d="M304.576 467.811C296.866 472.815 276.969 475.386 267.354 473.524C261.97 472.48 261.61 464.709 268.675 461.72C280.866 456.562 292.24 452.961 305.197 450.146C306.329 456.389 307.997 465.591 304.576 467.811Z" fill="#184F96"/>
<path fill-rule="evenodd" clip-rule="evenodd" d="M291.926 453.382C271.984 458.885 304.717 465.823 305.63 453.907C304.435 395.484 308.621 398.123 306.293 355.179C305.302 336.9 280.913 338.053 281.598 357.871C282.956 397.105 295.598 432.327 291.926 453.382Z" fill="#BA8B80"/>
<path fill-rule="evenodd" clip-rule="evenodd" d="M341.473 476.03C336.248 480.791 314.377 484.701 304.687 483.28C299.26 482.485 298.951 474.874 305.872 471.563C317.814 465.852 328.603 461.598 341.418 458.191C342.835 464.375 344.488 473.283 341.473 476.03Z" fill="#184F96"/>
<path fill-rule="evenodd" clip-rule="evenodd" d="M341.973 460.444C339.794 419.353 342.862 395.302 340.9 363.347C339.776 345.034 313.842 345.824 315.443 365.606C318.22 399.941 328.326 440.542 328.645 461.906C309.821 468.412 339.006 473.14 341.973 460.444Z" fill="#BA8B80"/>
<path fill-rule="evenodd" clip-rule="evenodd" d="M352.375 369.951C349.094 330.433 356.28 279.001 336.246 248.317C317.491 240.303 293.954 242.802 283.304 242.674C269.583 281.187 275.838 336.076 273.188 371.634C284.06 373.703 339.414 383.166 352.375 369.951Z" fill="#F08156"/>
<mask id="mask0_1905_10646" style="mask-type:luminance" maskUnits="userSpaceOnUse" x="273" y="242" width="80" height="135">
<path d="M352.375 369.952C349.094 330.434 356.28 279.002 336.246 248.318C317.491 240.304 293.954 242.803 283.304 242.675C269.583 281.188 275.838 336.077 273.188 371.635C284.06 373.704 339.414 383.167 352.375 369.952Z" fill="white"/>
</mask>
<g mask="url(#mask0_1905_10646)">
<g opacity="0.5">
<path opacity="0.4" fill-rule="evenodd" clip-rule="evenodd" d="M283.289 371.686C284.677 371.686 285.801 372.811 285.801 374.198C285.801 375.586 284.676 376.711 283.289 376.711C281.902 376.711 280.775 375.586 280.775 374.198C280.777 372.812 281.902 371.686 283.289 371.686Z" fill="white"/>
<path opacity="0.4" fill-rule="evenodd" clip-rule="evenodd" d="M298.034 371.686C299.422 371.686 300.547 372.811 300.547 374.198C300.547 375.586 299.422 376.711 298.034 376.711C296.647 376.711 295.521 375.586 295.521 374.198C295.522 372.812 296.647 371.686 298.034 371.686Z" fill="white"/>
<path opacity="0.4" fill-rule="evenodd" clip-rule="evenodd" d="M312.78 371.686C314.168 371.686 315.293 372.811 315.293 374.198C315.293 375.586 314.168 376.711 312.78 376.711C311.393 376.711 310.267 375.586 310.267 374.198C310.268 372.812 311.393 371.686 312.78 371.686Z" fill="white"/>
<path opacity="0.4" fill-rule="evenodd" clip-rule="evenodd" d="M327.526 371.686C328.914 371.686 330.039 372.811 330.039 374.198C330.039 375.586 328.914 376.711 327.526 376.711C326.139 376.711 325.014 375.586 325.014 374.198C325.014 372.812 326.139 371.686 327.526 371.686Z" fill="white"/>
<path opacity="0.4" fill-rule="evenodd" clip-rule="evenodd" d="M342.273 371.686C343.66 371.686 344.785 372.811 344.785 374.198C344.785 375.586 343.66 376.711 342.273 376.711C340.885 376.711 339.76 375.586 339.76 374.198C339.76 372.811 340.885 371.686 342.273 371.686Z" fill="white"/>
<path opacity="0.4" fill-rule="evenodd" clip-rule="evenodd" d="M275.916 360.965C277.303 360.965 278.428 362.09 278.428 363.478C278.428 364.866 277.303 365.99 275.916 365.99C274.528 365.99 273.403 364.865 273.403 363.478C273.403 362.091 274.528 360.965 275.916 360.965Z" fill="white"/>
<path opacity="0.4" fill-rule="evenodd" clip-rule="evenodd" d="M290.662 360.965C292.049 360.965 293.174 362.09 293.174 363.478C293.174 364.866 292.05 365.99 290.662 365.99C289.274 365.99 288.149 364.865 288.149 363.478C288.149 362.091 289.274 360.965 290.662 360.965Z" fill="white"/>
<path opacity="0.4" fill-rule="evenodd" clip-rule="evenodd" d="M305.408 360.965C306.795 360.965 307.921 362.09 307.921 363.478C307.921 364.866 306.796 365.99 305.408 365.99C304.02 365.99 302.895 364.865 302.895 363.478C302.895 362.091 304.02 360.965 305.408 360.965Z" fill="white"/>
<path opacity="0.4" fill-rule="evenodd" clip-rule="evenodd" d="M320.153 360.965C321.541 360.965 322.667 362.09 322.667 363.478C322.667 364.866 321.541 365.99 320.153 365.99C318.766 365.99 317.64 364.865 317.64 363.478C317.64 362.091 318.765 360.965 320.153 360.965Z" fill="white"/>
<path opacity="0.4" fill-rule="evenodd" clip-rule="evenodd" d="M334.899 360.965C336.287 360.965 337.412 362.09 337.412 363.478C337.412 364.866 336.287 365.99 334.899 365.99C333.512 365.99 332.387 364.865 332.387 363.478C332.387 362.091 333.511 360.965 334.899 360.965Z" fill="white"/>
<path opacity="0.4" fill-rule="evenodd" clip-rule="evenodd" d="M349.645 360.965C351.031 360.965 352.157 362.09 352.157 363.478C352.157 364.866 351.031 365.99 349.645 365.99C348.256 365.99 347.131 364.865 347.131 363.478C347.131 362.091 348.256 360.965 349.645 360.965Z" fill="white"/>
<path opacity="0.4" fill-rule="evenodd" clip-rule="evenodd" d="M283.289 349.905C284.677 349.905 285.801 351.029 285.801 352.417C285.801 353.804 284.676 354.93 283.289 354.93C281.902 354.93 280.775 353.805 280.775 352.417C280.777 351.03 281.902 349.905 283.289 349.905Z" fill="white"/>
<path opacity="0.4" fill-rule="evenodd" clip-rule="evenodd" d="M298.034 349.905C299.422 349.905 300.547 351.029 300.547 352.417C300.547 353.804 299.422 354.93 298.034 354.93C296.647 354.93 295.521 353.805 295.521 352.417C295.522 351.03 296.647 349.905 298.034 349.905Z" fill="white"/>
<path opacity="0.4" fill-rule="evenodd" clip-rule="evenodd" d="M312.78 349.905C314.168 349.905 315.293 351.029 315.293 352.417C315.293 353.804 314.168 354.93 312.78 354.93C311.393 354.93 310.267 353.805 310.267 352.417C310.268 351.03 311.393 349.905 312.78 349.905Z" fill="white"/>
<path opacity="0.4" fill-rule="evenodd" clip-rule="evenodd" d="M327.526 349.905C328.914 349.905 330.039 351.029 330.039 352.417C330.039 353.804 328.914 354.93 327.526 354.93C326.139 354.93 325.014 353.805 325.014 352.417C325.014 351.03 326.139 349.905 327.526 349.905Z" fill="white"/>
<path opacity="0.4" fill-rule="evenodd" clip-rule="evenodd" d="M342.273 349.905C343.66 349.905 344.785 351.029 344.785 352.417C344.785 353.805 343.66 354.93 342.273 354.93C340.885 354.93 339.76 353.805 339.76 352.417C339.76 351.03 340.885 349.905 342.273 349.905Z" fill="white"/>
<path opacity="0.4" fill-rule="evenodd" clip-rule="evenodd" d="M275.916 339.188C277.304 339.188 278.43 340.313 278.43 341.7C278.43 343.086 277.304 344.212 275.916 344.212C274.528 344.212 273.404 343.086 273.404 341.7C273.404 340.313 274.528 339.188 275.916 339.188Z" fill="white"/>
<path opacity="0.4" fill-rule="evenodd" clip-rule="evenodd" d="M290.662 339.188C292.049 339.188 293.174 340.313 293.174 341.7C293.174 343.086 292.05 344.212 290.662 344.212C289.274 344.212 288.149 343.086 288.149 341.7C288.149 340.313 289.274 339.188 290.662 339.188Z" fill="white"/>
<path opacity="0.4" fill-rule="evenodd" clip-rule="evenodd" d="M305.408 339.185C306.795 339.185 307.921 340.31 307.921 341.698C307.921 343.086 306.796 344.21 305.408 344.21C304.02 344.21 302.895 343.085 302.895 341.698C302.895 340.311 304.02 339.185 305.408 339.185Z" fill="white"/>
<path opacity="0.4" fill-rule="evenodd" clip-rule="evenodd" d="M320.153 339.185C321.541 339.185 322.667 340.31 322.667 341.698C322.667 343.086 321.541 344.21 320.153 344.21C318.766 344.21 317.64 343.085 317.64 341.698C317.64 340.311 318.765 339.185 320.153 339.185Z" fill="white"/>
<path opacity="0.4" fill-rule="evenodd" clip-rule="evenodd" d="M334.899 339.185C336.287 339.185 337.412 340.31 337.412 341.698C337.412 343.086 336.287 344.21 334.899 344.21C333.512 344.21 332.387 343.085 332.387 341.698C332.387 340.311 333.511 339.185 334.899 339.185Z" fill="white"/>
<path opacity="0.4" fill-rule="evenodd" clip-rule="evenodd" d="M349.645 339.185C351.031 339.185 352.157 340.31 352.157 341.698C352.157 343.086 351.031 344.21 349.645 344.21C348.256 344.21 347.131 343.085 347.131 341.698C347.131 340.311 348.256 339.185 349.645 339.185Z" fill="white"/>
<path opacity="0.4" fill-rule="evenodd" clip-rule="evenodd" d="M283.289 328.126C284.677 328.126 285.801 329.251 285.801 330.638C285.801 332.026 284.676 333.151 283.289 333.151C281.902 333.151 280.775 332.026 280.775 330.638C280.777 329.251 281.902 328.126 283.289 328.126Z" fill="white"/>
<path opacity="0.4" fill-rule="evenodd" clip-rule="evenodd" d="M298.034 328.126C299.422 328.126 300.547 329.251 300.547 330.638C300.547 332.026 299.422 333.151 298.034 333.151C296.647 333.151 295.521 332.026 295.521 330.638C295.522 329.251 296.647 328.126 298.034 328.126Z" fill="white"/>
<path opacity="0.4" fill-rule="evenodd" clip-rule="evenodd" d="M312.78 328.126C314.168 328.126 315.293 329.25 315.293 330.638C315.293 332.026 314.168 333.151 312.78 333.151C311.393 333.151 310.267 332.026 310.267 330.638C310.268 329.251 311.393 328.126 312.78 328.126Z" fill="white"/>
<path opacity="0.4" fill-rule="evenodd" clip-rule="evenodd" d="M327.526 328.126C328.914 328.126 330.039 329.25 330.039 330.638C330.039 332.026 328.914 333.151 327.526 333.151C326.139 333.151 325.014 332.026 325.014 330.638C325.014 329.25 326.139 328.126 327.526 328.126Z" fill="white"/>
<path opacity="0.4" fill-rule="evenodd" clip-rule="evenodd" d="M342.273 328.126C343.66 328.126 344.785 329.25 344.785 330.638C344.785 332.026 343.66 333.151 342.273 333.151C340.885 333.151 339.76 332.026 339.76 330.638C339.76 329.25 340.885 328.126 342.273 328.126Z" fill="white"/>
<path opacity="0.4" fill-rule="evenodd" clip-rule="evenodd" d="M275.916 317.407C277.304 317.407 278.43 318.532 278.43 319.919C278.43 321.306 277.304 322.432 275.916 322.432C274.528 322.432 273.404 321.307 273.404 319.919C273.404 318.531 274.528 317.407 275.916 317.407Z" fill="white"/>
<path opacity="0.4" fill-rule="evenodd" clip-rule="evenodd" d="M290.662 317.407C292.049 317.407 293.174 318.532 293.174 319.919C293.174 321.306 292.05 322.432 290.662 322.432C289.274 322.432 288.149 321.307 288.149 319.919C288.149 318.531 289.274 317.407 290.662 317.407Z" fill="white"/>
<path opacity="0.4" fill-rule="evenodd" clip-rule="evenodd" d="M305.408 317.407C306.795 317.407 307.921 318.532 307.921 319.919C307.921 321.306 306.796 322.432 305.408 322.432C304.02 322.432 302.895 321.307 302.895 319.919C302.895 318.531 304.02 317.407 305.408 317.407Z" fill="white"/>
<path opacity="0.4" fill-rule="evenodd" clip-rule="evenodd" d="M320.153 317.407C321.541 317.407 322.667 318.532 322.667 319.919C322.667 321.306 321.541 322.431 320.153 322.431C318.766 322.431 317.64 321.306 317.64 319.919C317.64 318.532 318.765 317.407 320.153 317.407Z" fill="white"/>
<path opacity="0.4" fill-rule="evenodd" clip-rule="evenodd" d="M334.899 317.407C336.286 317.407 337.412 318.531 337.412 319.919C337.412 321.306 336.287 322.431 334.899 322.431C333.511 322.431 332.387 321.306 332.387 319.919C332.387 318.532 333.511 317.407 334.899 317.407Z" fill="white"/>
<path opacity="0.4" fill-rule="evenodd" clip-rule="evenodd" d="M349.645 317.407C351.033 317.407 352.158 318.531 352.158 319.919C352.158 321.306 351.033 322.431 349.646 322.431C348.258 322.431 347.133 321.306 347.133 319.919C347.133 318.531 348.257 317.407 349.645 317.407Z" fill="white"/>
<path opacity="0.4" fill-rule="evenodd" clip-rule="evenodd" d="M283.289 306.347C284.677 306.347 285.801 307.472 285.801 308.86C285.801 310.247 284.676 311.372 283.289 311.372C281.9 311.372 280.775 310.247 280.775 308.86C280.777 307.472 281.902 306.347 283.289 306.347Z" fill="white"/>
<path opacity="0.4" fill-rule="evenodd" clip-rule="evenodd" d="M298.034 306.347C299.422 306.347 300.547 307.472 300.547 308.86C300.547 310.247 299.422 311.372 298.034 311.372C296.647 311.372 295.521 310.247 295.521 308.86C295.522 307.472 296.647 306.347 298.034 306.347Z" fill="white"/>
<path opacity="0.4" fill-rule="evenodd" clip-rule="evenodd" d="M312.78 306.347C314.168 306.347 315.293 307.472 315.293 308.86C315.293 310.247 314.168 311.372 312.78 311.372C311.393 311.372 310.267 310.247 310.267 308.86C310.268 307.472 311.393 306.347 312.78 306.347Z" fill="white"/>
<path opacity="0.4" fill-rule="evenodd" clip-rule="evenodd" d="M327.525 306.347C328.914 306.347 330.039 307.472 330.039 308.86C330.039 310.248 328.914 311.372 327.525 311.372C326.138 311.372 325.012 310.247 325.012 308.86C325.013 307.472 326.138 306.347 327.525 306.347Z" fill="white"/>
<path opacity="0.4" fill-rule="evenodd" clip-rule="evenodd" d="M342.272 306.347C343.66 306.347 344.785 307.472 344.785 308.86C344.785 310.248 343.66 311.372 342.272 311.372C340.885 311.372 339.76 310.247 339.76 308.86C339.76 307.472 340.885 306.347 342.272 306.347Z" fill="white"/>
<path opacity="0.4" fill-rule="evenodd" clip-rule="evenodd" d="M275.916 295.628C277.304 295.628 278.43 296.753 278.43 298.14C278.43 299.528 277.304 300.652 275.916 300.652C274.528 300.652 273.404 299.527 273.404 298.14C273.403 296.753 274.528 295.628 275.916 295.628Z" fill="white"/>
<path opacity="0.4" fill-rule="evenodd" clip-rule="evenodd" d="M290.662 295.628C292.049 295.628 293.174 296.753 293.174 298.14C293.174 299.528 292.05 300.652 290.662 300.652C289.274 300.652 288.149 299.527 288.149 298.14C288.149 296.753 289.274 295.628 290.662 295.628Z" fill="white"/>
<path opacity="0.4" fill-rule="evenodd" clip-rule="evenodd" d="M305.408 295.628C306.796 295.628 307.921 296.753 307.921 298.14C307.921 299.528 306.796 300.652 305.408 300.652C304.02 300.652 302.895 299.527 302.895 298.14C302.895 296.753 304.02 295.628 305.408 295.628Z" fill="white"/>
<path opacity="0.4" fill-rule="evenodd" clip-rule="evenodd" d="M320.153 295.628C321.541 295.628 322.665 296.753 322.665 298.14C322.665 299.528 321.54 300.652 320.153 300.652C318.766 300.652 317.64 299.527 317.64 298.14C317.64 296.753 318.765 295.628 320.153 295.628Z" fill="white"/>
<path opacity="0.4" d="M334.899 300.652C336.287 300.652 337.411 299.527 337.411 298.14C337.411 296.753 336.287 295.628 334.899 295.628C333.512 295.628 332.387 296.753 332.387 298.14C332.387 299.527 333.512 300.652 334.899 300.652Z" fill="white"/>
<path opacity="0.4" fill-rule="evenodd" clip-rule="evenodd" d="M349.645 295.628C351.033 295.628 352.158 296.753 352.158 298.14C352.158 299.528 351.033 300.653 349.645 300.653C348.258 300.653 347.133 299.528 347.133 298.14C347.133 296.753 348.257 295.628 349.645 295.628Z" fill="white"/>
<path opacity="0.4" fill-rule="evenodd" clip-rule="evenodd" d="M283.289 284.566C284.677 284.566 285.801 285.691 285.801 287.08C285.801 288.468 284.676 289.592 283.289 289.592C281.9 289.592 280.775 288.468 280.775 287.08C280.777 285.693 281.902 284.566 283.289 284.566Z" fill="white"/>
<path opacity="0.4" fill-rule="evenodd" clip-rule="evenodd" d="M298.034 284.566C299.422 284.566 300.547 285.691 300.547 287.08C300.547 288.468 299.422 289.592 298.034 289.592C296.647 289.592 295.521 288.468 295.521 287.08C295.522 285.691 296.647 284.566 298.034 284.566Z" fill="white"/>
<path opacity="0.4" fill-rule="evenodd" clip-rule="evenodd" d="M312.78 284.566C314.168 284.566 315.293 285.691 315.293 287.08C315.293 288.468 314.168 289.592 312.78 289.592C311.392 289.592 310.267 288.468 310.267 287.08C310.268 285.691 311.393 284.566 312.78 284.566Z" fill="white"/>
<path opacity="0.4" fill-rule="evenodd" clip-rule="evenodd" d="M327.525 284.566C328.914 284.566 330.039 285.691 330.039 287.08C330.039 288.468 328.914 289.592 327.525 289.592C326.138 289.592 325.012 288.468 325.012 287.08C325.013 285.691 326.138 284.566 327.525 284.566Z" fill="white"/>
<path opacity="0.4" fill-rule="evenodd" clip-rule="evenodd" d="M342.272 284.566C343.66 284.566 344.785 285.691 344.785 287.08C344.785 288.468 343.66 289.592 342.272 289.592C340.885 289.592 339.76 288.468 339.76 287.08C339.76 285.691 340.885 284.566 342.272 284.566Z" fill="white"/>
<path opacity="0.4" fill-rule="evenodd" clip-rule="evenodd" d="M275.916 273.849C277.304 273.849 278.428 274.974 278.428 276.361C278.428 277.749 277.303 278.874 275.916 278.874C274.528 278.874 273.404 277.749 273.404 276.361C273.403 274.973 274.528 273.849 275.916 273.849Z" fill="white"/>
<path opacity="0.4" fill-rule="evenodd" clip-rule="evenodd" d="M290.662 273.849C292.049 273.849 293.174 274.974 293.174 276.361C293.174 277.749 292.05 278.873 290.662 278.873C289.274 278.873 288.149 277.748 288.149 276.361C288.149 274.973 289.274 273.849 290.662 273.849Z" fill="white"/>
<path opacity="0.4" fill-rule="evenodd" clip-rule="evenodd" d="M305.408 273.849C306.796 273.849 307.921 274.974 307.921 276.361C307.921 277.749 306.796 278.873 305.408 278.873C304.021 278.873 302.896 277.748 302.896 276.361C302.894 274.973 304.019 273.849 305.408 273.849Z" fill="white"/>
<path opacity="0.4" fill-rule="evenodd" clip-rule="evenodd" d="M320.153 273.849C321.541 273.849 322.665 274.973 322.665 276.361C322.665 277.749 321.54 278.873 320.153 278.873C318.765 278.873 317.64 277.748 317.64 276.361C317.64 274.974 318.765 273.849 320.153 273.849Z" fill="white"/>
<path opacity="0.4" d="M334.899 278.873C336.287 278.873 337.411 277.748 337.411 276.361C337.411 274.973 336.287 273.849 334.899 273.849C333.512 273.849 332.387 274.973 332.387 276.361C332.387 277.748 333.512 278.873 334.899 278.873Z" fill="white"/>
<path opacity="0.4" fill-rule="evenodd" clip-rule="evenodd" d="M349.645 273.849C351.033 273.849 352.158 274.973 352.158 276.361C352.158 277.749 351.033 278.873 349.645 278.873C348.258 278.873 347.133 277.748 347.133 276.361C347.133 274.973 348.257 273.849 349.645 273.849Z" fill="white"/>
<path opacity="0.4" fill-rule="evenodd" clip-rule="evenodd" d="M283.289 262.787C284.677 262.787 285.801 263.912 285.801 265.3C285.801 266.687 284.676 267.812 283.289 267.812C281.9 267.812 280.775 266.687 280.775 265.3C280.777 263.912 281.902 262.787 283.289 262.787Z" fill="white"/>
<path opacity="0.4" fill-rule="evenodd" clip-rule="evenodd" d="M298.034 262.787C299.422 262.787 300.547 263.912 300.547 265.3C300.547 266.687 299.422 267.812 298.034 267.812C296.647 267.812 295.521 266.687 295.521 265.3C295.522 263.912 296.647 262.787 298.034 262.787Z" fill="white"/>
<path opacity="0.4" fill-rule="evenodd" clip-rule="evenodd" d="M312.78 262.787C314.168 262.787 315.293 263.912 315.293 265.3C315.293 266.687 314.168 267.812 312.78 267.812C311.392 267.812 310.267 266.687 310.267 265.3C310.268 263.912 311.393 262.787 312.78 262.787Z" fill="white"/>
<path opacity="0.4" fill-rule="evenodd" clip-rule="evenodd" d="M327.525 262.787C328.914 262.787 330.039 263.912 330.039 265.3C330.039 266.687 328.914 267.812 327.525 267.812C326.138 267.812 325.012 266.687 325.012 265.3C325.013 263.912 326.138 262.787 327.525 262.787Z" fill="white"/>
<path opacity="0.4" fill-rule="evenodd" clip-rule="evenodd" d="M342.272 262.787C343.66 262.787 344.785 263.912 344.785 265.3C344.785 266.687 343.66 267.812 342.272 267.812C340.885 267.812 339.76 266.687 339.76 265.3C339.76 263.912 340.885 262.787 342.272 262.787Z" fill="white"/>
</g>
</g>
<path fill-rule="evenodd" clip-rule="evenodd" d="M177.125 156.415C184.317 174.058 187.004 186.913 189.27 203.072C190.922 214.861 179.623 216.87 173.485 208.436C163.279 194.409 158.064 180.966 153.01 165.526C146.997 147.151 170.23 139.499 177.125 156.415Z" fill="#F08156"/>
<path fill-rule="evenodd" clip-rule="evenodd" d="M169.856 167.689C174.772 177.848 174.935 187.187 174.608 195.378C174.28 203.569 159.698 198.655 159.698 198.655C159.698 198.655 160.846 176.046 169.856 167.689Z" fill="#F08156"/>
<path fill-rule="evenodd" clip-rule="evenodd" d="M281.566 165.202C271.404 174.096 253.908 190.112 245.47 200.664C238.715 209.11 249.036 216.424 258.05 210.441C273.408 200.245 287.154 193.232 300.705 177.835C312.308 164.652 293.907 154.399 281.566 165.202Z" fill="#184F96"/>
<path fill-rule="evenodd" clip-rule="evenodd" d="M274.935 199.565C282.08 194.465 287.609 190.521 293.677 184.948C292.036 178.5 290.155 174.269 286.869 169.337C279.62 182.211 276.619 188.223 274.935 199.565Z" fill="#002E6C"/>
<path fill-rule="evenodd" clip-rule="evenodd" d="M276.625 263.624C267.818 260.989 287.195 227.545 284.588 219.189C283.066 214.307 276.43 205.671 277.323 197.646C277.964 191.886 280.909 180.498 287.422 161.641C302.391 157.924 317.58 155.907 341.593 164.624C346.719 192.298 336.224 207.245 336.78 229.037C337.016 238.29 349.803 255 343.745 260.059C329.581 271.888 294.861 269.083 276.625 263.624Z" fill="#184F96"/>
<path fill-rule="evenodd" clip-rule="evenodd" d="M298.985 159.291C304.653 157.967 309.7 157.275 319.179 158.796C316.801 165.288 307.173 174.535 301.346 177.794C299.848 173.062 298.71 164.916 298.985 159.291Z" fill="#BA8B80"/>
<path fill-rule="evenodd" clip-rule="evenodd" d="M300.87 140.968L316.986 141.028L316.914 160.368C316.884 168.406 300.769 167.867 300.798 160.308L300.87 140.968Z" fill="#BA8B80"/>
<path fill-rule="evenodd" clip-rule="evenodd" d="M340.105 199.221C342.948 209.454 349.894 217.66 355.853 225.221C362.546 233.714 371.93 234.114 369.657 223.538C365.616 204.727 354.97 174.243 344.043 165.968C334.868 159.021 335.474 182.556 340.105 199.221Z" fill="#184F96"/>
<path fill-rule="evenodd" clip-rule="evenodd" d="M300.837 149.504L316.953 149.564L316.917 159.388C312.804 161.956 304.083 161.293 300.821 153.903L300.837 149.504Z" fill="#947169"/>
<path fill-rule="evenodd" clip-rule="evenodd" d="M312.848 100.592C281.947 96.1118 281.702 152.597 304.636 154.344C329.157 156.211 346.434 105.462 312.848 100.592Z" fill="#BA8B80"/>
<path fill-rule="evenodd" clip-rule="evenodd" d="M295.78 123.634C296.66 123.724 297.298 124.532 297.204 125.44C297.111 126.346 296.323 127.008 295.443 126.919C294.563 126.828 293.926 126.021 294.018 125.113C294.113 124.206 294.902 123.544 295.78 123.634Z" fill="#00204A"/>
<path fill-rule="evenodd" clip-rule="evenodd" d="M311.253 125.363C312.133 125.453 312.77 126.261 312.677 127.168C312.584 128.075 311.796 128.737 310.916 128.647C310.036 128.558 309.399 127.749 309.491 126.842C309.585 125.934 310.373 125.272 311.253 125.363Z" fill="#00204A"/>
<path fill-rule="evenodd" clip-rule="evenodd" d="M302.661 136.366C299.04 134.949 300.295 132.595 301.774 129.478C298.961 131.731 297.152 135.496 302.661 136.366Z" fill="#947169"/>
<path fill-rule="evenodd" clip-rule="evenodd" d="M296.156 138.831C299.321 138.94 304.145 139.371 310.528 140.033C307.269 148.194 297.844 146.458 296.156 138.831Z" fill="#947169"/>
<path fill-rule="evenodd" clip-rule="evenodd" d="M325.002 119.693C324.768 127.148 328.03 132.506 330.359 132.972C332.69 133.437 335.252 120.392 325.002 119.693Z" fill="#002E6C"/>
<path fill-rule="evenodd" clip-rule="evenodd" d="M333.034 128.048C331.717 127.563 329.804 129.459 328.762 132.285C327.721 135.11 327.946 137.794 329.264 138.279C330.583 138.765 332.496 136.869 333.536 134.045C334.578 131.218 334.353 128.534 333.034 128.048Z" fill="#BA8B80"/>
<path fill-rule="evenodd" clip-rule="evenodd" d="M309.992 121.431C308.851 121.472 308.3 120.022 309.733 119.736C311.802 119.325 315.798 120.427 316.932 121.693C317.652 122.497 317.109 123.21 316.128 122.759C314.45 121.985 310.781 121.404 309.992 121.431Z" fill="#002E6C"/>
<path fill-rule="evenodd" clip-rule="evenodd" d="M299.415 120.338C300.418 120.674 301.274 119.402 300.068 118.765C298.328 117.847 294.969 117.855 293.169 118.877C292.278 119.383 292.642 120.323 293.619 120.077C294.991 119.73 298.436 120.011 299.415 120.338Z" fill="#002E6C"/>
<path fill-rule="evenodd" clip-rule="evenodd" d="M140.711 467.345C148.919 472.671 170.098 475.409 180.334 473.427C186.066 472.316 186.449 464.045 178.928 460.862C165.951 455.372 153.842 451.537 140.05 448.541C138.846 455.185 137.069 464.981 140.711 467.345Z" fill="#002E6C"/>
<path fill-rule="evenodd" clip-rule="evenodd" d="M165.906 456.095C160.843 458.57 144.705 459.362 138.012 454.561C135.251 398.019 137.833 381.481 139.528 351.234C140.561 332.803 167.115 335.277 166.383 355.072C164.923 394.565 167.324 441.765 165.906 456.095Z" fill="#4F91E8"/>
<path fill-rule="evenodd" clip-rule="evenodd" d="M136.99 239.333C139.177 253.328 140.052 268.992 137.077 283.992C135.015 308.934 128.653 337.98 126.593 362.922C125.566 375.354 98.8458 375.567 98.8338 360.425C98.7992 320.937 92.3882 282.206 100.177 237.733C110.954 237.732 126.211 239.333 136.99 239.333Z" fill="#4F91E8"/>
<path d="M126.392 254.119C123.519 258.513 114.561 265.949 111.012 268.316" stroke="#66A1ED" stroke-width="1.9199" stroke-miterlimit="22.9256" stroke-linecap="round" stroke-linejoin="round"/>
<path fill-rule="evenodd" clip-rule="evenodd" d="M133.093 239.334C130.906 253.328 130.539 273.572 133.515 288.572C135.164 313.647 138.34 333.124 139.988 358.198C140.807 370.644 166.072 372.052 166.125 356.91C166.264 317.414 169.656 283.5 166.848 238.957C155.597 239.083 144.345 239.208 133.093 239.334Z" fill="#4F91E8"/>
<mask id="mask1_1905_10646" style="mask-type:luminance" maskUnits="userSpaceOnUse" x="131" y="238" width="37" height="130">
<path d="M133.093 239.334C130.906 253.328 130.539 273.572 133.515 288.572C135.164 313.647 138.34 333.124 139.988 358.198C140.807 370.644 166.072 372.052 166.125 356.91C166.264 317.414 169.656 283.5 166.848 238.957C155.597 239.083 144.345 239.208 133.093 239.334Z" fill="white"/>
</mask>
<g mask="url(#mask1_1905_10646)">
<path d="M156.982 250.57C159.856 254.964 168.813 262.4 172.362 264.767" stroke="#66A1ED" stroke-width="1.9199" stroke-miterlimit="22.9256" stroke-linecap="round" stroke-linejoin="round"/>
</g>
<path d="M144.706 253.251C144.459 258.688 145.201 270.921 142.73 271.292C140.259 271.663 137.293 271.786 137.293 271.786" stroke="#66A1ED" stroke-width="1.9199" stroke-miterlimit="22.9256" stroke-linecap="round" stroke-linejoin="round"/>
<path d="M135.419 303.227C138.83 323.693 142.62 344.161 143.379 353.638C144.137 363.113 138.831 416.936 141.484 448.774" stroke="#66A1ED" stroke-width="1.9199" stroke-miterlimit="22.9256" stroke-linecap="round" stroke-linejoin="round"/>
<path opacity="0.5" fill-rule="evenodd" clip-rule="evenodd" d="M136.381 319.947C138.591 306.873 140.265 294.55 139.121 272.119C137.78 285.43 135.853 298.002 134.473 306.08C135.079 309.787 135.768 314.256 136.381 319.947Z" fill="#1F4C87"/>
<path fill-rule="evenodd" clip-rule="evenodd" d="M96.4919 474.018C104.332 479.874 125.284 484.001 135.629 482.696C141.42 481.966 142.348 473.737 135.052 470.067C122.465 463.733 110.636 459.11 97.0706 455.211C95.4314 461.763 93.0138 471.42 96.4919 474.018Z" fill="#002E6C"/>
<path fill-rule="evenodd" clip-rule="evenodd" d="M121.166 463.167C115.549 466.972 104.209 467.374 93.5131 462.568C91.7508 417.556 97.2543 382.23 100.172 351.983C101.95 333.551 129.187 333.528 127.675 353.486C124.658 393.295 123.161 448.835 121.166 463.167Z" fill="#4F91E8"/>
<path d="M109.266 248.646C104.339 277.072 103.581 352.499 102.064 364.628C100.548 376.756 97.5163 445.36 97.8953 456.352" stroke="#66A1ED" stroke-width="1.9199" stroke-miterlimit="22.9256" stroke-linecap="round" stroke-linejoin="round"/>
<path fill-rule="evenodd" clip-rule="evenodd" d="M170.577 196.398C174.509 196.561 180.321 196.188 182.288 197.99C184.254 199.792 179.305 191.403 170.586 192.206C168.785 193.19 168.447 195.087 170.577 196.398Z" fill="#E07348"/>
<path fill-rule="evenodd" clip-rule="evenodd" d="M173.034 149.746C174.593 173.716 171.713 192.694 169.446 209.219C167.613 222.59 173.798 233.206 170.229 252.485C146.368 261.724 120.041 262.258 96.6568 250.757C92.4351 244.626 103.538 229.11 103.314 214.378C103.04 196.428 90.3224 175.125 92.0262 150.937C116.998 134.956 163.543 140.659 173.034 149.746Z" fill="#FFA37F"/>
<path fill-rule="evenodd" clip-rule="evenodd" d="M113.799 203.242C107.377 200.972 101.947 198.309 102.908 196.924C104.382 194.793 113.723 200.116 118.729 200.12C117.055 199.221 114.292 197.55 114.738 196.446C116.278 192.636 134.183 205.7 132.235 210.887C128.983 219.543 100.802 211.312 101.872 207.778C102.251 206.527 104.764 208.661 110.795 209.257C104.927 207.762 98.412 205.792 99.3517 203.422C99.873 202.107 107.756 205.748 112.495 206.428C107.476 204.491 98.3893 201.343 99.347 199.816C100.592 197.828 108.439 202.429 113.799 203.242Z" fill="#FBC9BE"/>
<path fill-rule="evenodd" clip-rule="evenodd" d="M134.102 102.835C140.144 102.638 145.247 107.327 145.441 113.256L146.442 143.851C146.607 148.898 148.803 158.101 141.37 158.844C130.396 159.943 124.662 150.499 124.468 144.57L123.468 113.975C123.273 108.046 128.059 103.034 134.102 102.835Z" fill="#FBC9BE"/>
<path fill-rule="evenodd" clip-rule="evenodd" d="M146.262 138.377L123.935 128.281L124.467 144.569C130.804 147.789 141.926 146.07 146.262 138.377Z" fill="#D9ABA1"/>
<path fill-rule="evenodd" clip-rule="evenodd" d="M125.84 77.4612C145.613 71.9206 154.418 89.7451 156.633 107.916C158.412 122.509 157.834 136.067 148.292 139.928C136.612 144.654 118.856 136.95 114.512 126.504C106.981 108.396 104.489 83.4441 125.84 77.4612Z" fill="#FBC9BE"/>
<path fill-rule="evenodd" clip-rule="evenodd" d="M142.822 101.137C141.241 101.575 140.316 99.5181 141.815 98.8534C144.649 97.598 148.457 97.2381 151.101 99.1248C152.433 100.075 151.658 101.52 150.115 100.974C148.179 100.293 144.782 100.594 142.822 101.137Z" fill="#233147"/>
<path fill-rule="evenodd" clip-rule="evenodd" d="M139.245 122.602C144.011 121.327 142.76 118.182 141.337 114.046C144.564 117.285 146.314 122.286 139.245 122.602Z" fill="#D9ABA1"/>
<path fill-rule="evenodd" clip-rule="evenodd" d="M150.661 121.917C147.145 124.173 139.727 126.536 132.358 126.326C136.803 129.212 148.989 126.237 150.661 121.917Z" fill="#D9ABA1"/>
<path fill-rule="evenodd" clip-rule="evenodd" d="M132.019 101.31C133.659 101.338 133.609 103.601 131.98 103.806C130.59 103.979 127.49 104.935 125.016 106.566C123.652 107.467 122.715 106.571 123.572 105.177C125.273 102.409 128.921 101.259 132.019 101.31Z" fill="#233147"/>
<path fill-rule="evenodd" clip-rule="evenodd" d="M147.588 127.314C145.065 128.229 141.388 129.377 138.562 129.843C140.312 131.451 146.976 129.848 147.588 127.314Z" fill="#D9ABA1"/>
<path fill-rule="evenodd" clip-rule="evenodd" d="M131.098 110.863C132.021 110.604 132.986 111.165 133.253 112.117C133.519 113.069 132.987 114.05 132.064 114.308C131.141 114.567 130.176 114.006 129.91 113.054C129.643 112.103 130.175 111.121 131.098 110.863Z" fill="#00204A"/>
<path fill-rule="evenodd" clip-rule="evenodd" d="M147.038 106.81C147.961 106.552 148.926 107.112 149.193 108.064C149.459 109.016 148.927 109.996 148.004 110.256C147.081 110.515 146.116 109.953 145.85 109.002C145.583 108.049 146.115 107.068 147.038 106.81Z" fill="#00204A"/>
<path fill-rule="evenodd" clip-rule="evenodd" d="M135.868 206.039C139.962 217.209 128.942 222.719 120.913 216.067C105.846 203.581 96.8966 190.868 89.3928 176.122C76.3162 150.425 100.191 135.529 117.805 169.308C125.488 184.042 128.564 186.111 135.868 206.039Z" fill="#F08156"/>
<path fill-rule="evenodd" clip-rule="evenodd" d="M125.859 183.411C122.746 186.525 118.904 196.033 119.396 205.045C125.13 200.621 129.244 189.288 129.244 189.288L125.859 183.411Z" fill="#E07348"/>
<path opacity="0.08" fill-rule="evenodd" clip-rule="evenodd" d="M312.68 130.816C315.458 131.426 317.459 133.23 317.148 134.844C316.836 136.459 314.33 137.273 311.551 136.662C308.772 136.052 306.771 134.248 307.083 132.634C307.395 131.02 309.901 130.205 312.68 130.816Z" fill="#FF5765"/>
<path opacity="0.08" fill-rule="evenodd" clip-rule="evenodd" d="M293.783 129.258C291.169 129.381 289.054 130.813 289.057 132.455C289.061 134.097 291.184 135.33 293.798 135.207C296.411 135.083 298.528 133.652 298.523 132.009C298.521 130.368 296.397 129.136 293.783 129.258Z" fill="#FF5765"/>
<path opacity="0.08" fill-rule="evenodd" clip-rule="evenodd" d="M149.898 111.489C152.681 111.136 155.137 112.15 155.381 113.752C155.625 115.354 153.566 116.94 150.783 117.293C147.999 117.645 145.543 116.631 145.299 115.028C145.055 113.426 147.116 111.842 149.898 111.489Z" fill="#FF5765"/>
<path opacity="0.08" fill-rule="evenodd" clip-rule="evenodd" d="M129.339 117.411C126.687 118.327 124.934 120.322 125.424 121.867C125.915 123.412 128.463 123.922 131.114 123.007C133.766 122.091 135.52 120.095 135.029 118.549C134.54 117.006 131.991 116.495 129.339 117.411Z" fill="#FF5765"/>
<path fill-rule="evenodd" clip-rule="evenodd" d="M224.904 168.18C224.562 170.504 227.487 172.858 228.465 175.337C234.005 189.372 238.058 198.701 243.917 208.812C249.236 217.992 261.477 209.677 258.013 199.637C253.736 187.242 246.523 178.511 240.663 167.464C239.611 165.481 239.844 161.746 237.85 161.069C233.371 159.55 225.485 164.242 224.904 168.18Z" fill="#184F96"/>
<path fill-rule="evenodd" clip-rule="evenodd" d="M383 182.655C385.929 186.259 381.654 194.311 380.641 199.555C378.781 209.193 377.295 217.833 372.669 226.998C367.779 236.685 354.738 230.559 357.439 220.086C359.778 211.017 362.689 203.391 365.478 195.463C367.295 190.299 366.167 180.46 372.359 178.752C375.773 177.809 380.041 179.013 383 182.655Z" fill="#184F96"/>
<path fill-rule="evenodd" clip-rule="evenodd" d="M298.162 139.149C300.714 139.304 304.005 139.595 308.006 139.996C307.708 141.647 297.819 140.544 298.162 139.149Z" fill="white"/>
<path fill-rule="evenodd" clip-rule="evenodd" d="M124.589 198.169C136.906 197.814 173.781 194.856 181.541 197.35C192.874 200.992 190.799 214.904 178.991 216.41C172.175 217.279 137.077 217.213 123.21 214.988C122.143 209.054 122.744 202.795 124.589 198.169Z" fill="#F08156"/>
<path fill-rule="evenodd" clip-rule="evenodd" d="M147.633 196.898C145.869 203.37 141.09 211.794 135.354 216.058C132.221 201.408 133.564 196.686 147.633 196.898Z" fill="#E07348"/>
<path fill-rule="evenodd" clip-rule="evenodd" d="M166.788 455.919C161.726 458.394 144.216 459.75 137.523 454.949C137.321 450.822 137.15 446.914 137.001 443.19C144.417 446.896 161.358 445.778 167.241 443.708C167.202 448.874 167.07 453.054 166.788 455.919Z" fill="#66A1ED"/>
<path fill-rule="evenodd" clip-rule="evenodd" d="M122.063 464.008C117 466.483 99.4902 467.839 92.7971 463.038C92.595 458.911 92.7086 455.097 92.5615 451.375C99.9768 455.08 116.632 453.868 122.516 451.797C122.476 456.962 122.346 461.143 122.063 464.008Z" fill="#66A1ED"/>
<path fill-rule="evenodd" clip-rule="evenodd" d="M254.312 190.812C258.269 195.515 260.202 200.754 261.356 205.05C262.426 198.762 259.77 193.606 254.312 190.812Z" fill="#002E6C"/>
<path fill-rule="evenodd" clip-rule="evenodd" d="M363.109 202.128C359.368 207.006 358.397 215.741 357.44 220.086C355.041 213.853 357.782 205.167 363.109 202.128Z" fill="#002E6C"/>
<path fill-rule="evenodd" clip-rule="evenodd" d="M337.521 188.933C337.809 191.311 339.11 196.562 340.563 200.747C340.284 202.154 340.14 202.839 339.852 204.227C337.255 200.241 336.713 193.971 337.521 188.933Z" fill="#002E6C"/>
<path fill-rule="evenodd" clip-rule="evenodd" d="M296.581 100.358C293.786 111.773 321.042 129.246 335.951 127.847C350.859 126.449 330.359 90.8074 296.581 100.358Z" fill="#002E6C"/>
<path fill-rule="evenodd" clip-rule="evenodd" d="M288.93 121.897C291.591 112.781 296.764 107.676 303.949 105.31C303.497 102.541 301.154 99.3184 301.154 99.3184C301.154 99.3184 288.792 104.971 288.93 121.897Z" fill="#002E6C"/>
<path fill-rule="evenodd" clip-rule="evenodd" d="M111.65 86.4817C129.378 102.733 140.05 88.0803 149.545 91.5942C155.4 93.7607 155.522 102.905 156.728 108.301C158.027 105.563 160.271 93.8349 156.906 90.4333C153.215 86.7017 160.248 74.0806 144.264 75.7127C137.695 76.3822 118.666 64.5682 111.65 86.4817Z" fill="#184F96"/>
<path fill-rule="evenodd" clip-rule="evenodd" d="M119.157 81.5975C124.561 91.6372 120.347 96.342 115.711 100.328C111.212 104.197 120.637 118.189 111.732 119.699C108.354 114.751 98.726 96.855 105.313 93.1784C108.751 91.2606 103.938 79.3772 119.157 81.5975Z" fill="#184F96"/>
<path fill-rule="evenodd" clip-rule="evenodd" d="M151.942 90.4572C143.847 80.3744 125.048 97.8474 116.089 83.0634C126.455 66.4154 143.422 83.1124 148.229 78.4124C143.879 84.7158 125.263 76.54 119.18 82.7549C123.269 88.0217 148.889 77.2192 151.942 90.4572Z" fill="#2F69B5"/>
<path fill-rule="evenodd" clip-rule="evenodd" d="M116.417 82.7369C107.111 83.5499 111.5 90.7285 107.883 93.4234C111.485 92.7635 114.246 83.3885 118.555 84.5806C118.72 83.7556 118.627 82.5408 116.417 82.7369Z" fill="#2F69B5"/>
<path fill-rule="evenodd" clip-rule="evenodd" d="M108.718 113.488C110.137 112.769 112.536 114.654 114.076 117.696C115.614 120.738 115.711 123.787 114.292 124.504C112.873 125.223 110.474 123.339 108.934 120.297C107.394 117.254 107.298 114.206 108.718 113.488Z" fill="#FBC9BE"/>
<path fill-rule="evenodd" clip-rule="evenodd" d="M337.247 123.421C321.885 127.109 300.533 108.06 298.689 101.454C299.821 102.778 320.532 117.092 337.247 123.421Z" fill="#043A80"/>
<path fill-rule="evenodd" clip-rule="evenodd" d="M285.939 116.815C284.569 109.591 289.612 103.148 294.234 102.068C291.322 104.476 286.702 111.539 285.939 116.815Z" fill="#043A80"/>
<path fill-rule="evenodd" clip-rule="evenodd" d="M156.243 125.308C156.722 122.261 156.664 120.965 155.06 121.087C152.304 121.069 150.086 132.211 147.029 136.573C142.137 136.276 139.958 131.845 138.781 132.315C135.017 133.774 143.419 153.04 147.2 155.698C155.508 161.538 167.518 129.416 163.966 129.56C163.075 129.596 162.848 132.53 160.323 137.209C159.142 136.132 158.084 136.904 156.526 136.263C157.908 130.708 160.506 122.128 158.591 122.029C157.461 122.006 156.78 122.9 156.243 125.308Z" fill="#D9ABA1"/>
<path fill-rule="evenodd" clip-rule="evenodd" d="M153.418 135.122C155.368 128.142 157.157 121.786 155.366 121.775C152.61 121.757 150.545 134.732 147.488 139.094C142.596 138.797 140.34 132.763 139.164 133.233C135.705 134.615 145.022 153.194 148.804 155.852C157.113 161.692 167.736 129.792 164.005 128.562C162.685 128.127 163.665 130.569 160.496 136.185C162.783 130.161 164.261 122.888 161.622 122.257C160.159 121.908 159.298 131.393 156.993 135.935C158.375 130.38 161.19 120.541 159.274 120.442C156.779 120.311 155.987 129.958 153.418 135.122Z" fill="#FBC9BE"/>
<path fill-rule="evenodd" clip-rule="evenodd" d="M142.629 152.163C137.822 163.509 119.844 198.947 119.347 207.083C118.623 218.963 133.169 222.308 138.861 211.855C142.147 205.82 155.832 170.718 158.798 156.99C153.658 153.84 147.609 152.124 142.629 152.163Z" fill="#F08156"/>
<path fill-rule="evenodd" clip-rule="evenodd" d="M300.821 153.904C299.292 156.5 298.202 157.526 296.673 160.12C296.534 169.438 298.979 174.445 301.348 177.794C300.766 172.823 300.997 162.537 300.821 153.904Z" fill="#FFAF8F"/>
<path fill-rule="evenodd" clip-rule="evenodd" d="M317.087 152.555C318.068 155.058 319.257 157.605 319.724 159.712C316.672 167.132 309.715 175.751 301.346 177.793C308.265 172.963 314.541 162.431 317.087 152.555Z" fill="#FFAF8F"/>
<path fill-rule="evenodd" clip-rule="evenodd" d="M300.821 153.904C297.428 157.138 295.323 159.853 292.588 164.495C295.417 163.463 298.642 161.795 300.904 162.103C301.083 159.084 300.549 158.03 300.821 153.904Z" fill="#FFAF8F"/>
<path fill-rule="evenodd" clip-rule="evenodd" d="M317.087 152.555C320.422 157.796 323.214 162.133 324.145 167.849C319.554 164.882 316.919 164.008 313.306 162.458C314.886 159.298 316.066 156.246 317.087 152.555Z" fill="#FFAF8F"/>
<path fill-rule="evenodd" clip-rule="evenodd" d="M96.4917 474.019C104.331 479.874 125.284 484.001 135.628 482.697C138.193 482.374 139.802 480.579 140.168 478.363C139.361 479.091 138.303 479.593 137.024 479.753C125.884 481.158 103.32 476.714 94.8776 470.408C94.8525 470.389 94.8286 470.369 94.8047 470.35C94.996 471.985 95.5089 473.285 96.4917 474.019Z" fill="#001E45"/>
<path fill-rule="evenodd" clip-rule="evenodd" d="M140.711 467.345C148.919 472.672 170.098 475.409 180.334 473.426C182.871 472.935 184.36 471.038 184.578 468.802C183.82 469.582 182.798 470.152 181.532 470.397C170.509 472.532 147.701 469.584 138.862 463.848C138.836 463.831 138.811 463.812 138.786 463.794C139.085 465.413 139.681 466.677 140.711 467.345Z" fill="#001E45"/>
<path fill-rule="evenodd" clip-rule="evenodd" d="M341.474 476.028C336.249 480.789 314.377 484.699 304.687 483.279C302.319 482.933 300.927 481.287 300.683 479.27C301.37 479.88 302.273 480.308 303.375 480.471C313.637 481.975 336.799 477.833 342.332 472.792C342.625 472.526 342.875 472.204 343.089 471.836C342.916 473.664 342.43 475.156 341.474 476.028Z" fill="#0C3D7D"/>
<path fill-rule="evenodd" clip-rule="evenodd" d="M304.577 467.811C299.137 472.325 277.107 475.214 267.493 473.346C265.145 472.889 263.83 471.182 263.679 469.154C264.338 469.796 265.219 470.266 266.313 470.479C276.494 472.458 299.824 469.397 305.585 464.618C305.89 464.366 306.155 464.056 306.385 463.697C306.128 465.516 305.573 466.985 304.577 467.811Z" fill="#0C3D7D"/>
<path fill-rule="evenodd" clip-rule="evenodd" d="M388.784 172.498C395.327 170.224 400.86 167.545 399.892 166.131C398.403 163.958 385.221 170.199 380.13 170.175C379.59 166.758 383.333 164.483 382.782 162.965C381.532 159.528 371.642 170.089 372.109 179.834C372.227 182.311 375.297 184.636 380.339 184.295C389.628 183.668 401.583 179.518 400.888 177.173C400.51 175.901 397.942 178.055 391.807 178.63C397.781 177.142 404.417 175.172 403.474 172.758C402.95 171.417 394.915 175.078 390.093 175.744C395.207 173.801 404.464 170.647 403.498 169.089C402.241 167.064 394.239 171.701 388.784 172.498Z" fill="#BA8B80"/>
<path fill-rule="evenodd" clip-rule="evenodd" d="M218.729 156.464C211.907 155.266 206.016 153.505 206.746 151.956C207.867 149.572 221.879 153.402 226.9 152.566C226.887 149.106 222.114 147.389 223.129 146.095C225.143 143.528 235.208 151.684 236.822 159.856C237.822 164.922 234.708 165.699 228.921 166.571C219.715 167.959 207.218 165.442 207.53 163.016C207.7 161.698 210.579 163.417 216.726 163.003C210.59 162.489 203.725 161.605 204.269 159.072C204.572 157.666 213.088 159.993 217.955 159.88C212.596 158.78 202.954 157.148 203.66 155.455C204.576 153.251 213.218 156.549 218.729 156.464Z" fill="#BA8B80"/>
<path fill-rule="evenodd" clip-rule="evenodd" d="M274.887 19.6924L289.422 23.2004C291.065 16.8611 294.566 14.4495 299.764 15.7049C304.432 16.8312 306.705 19.513 305.629 23.9691C303.171 34.1535 289.891 31.9595 285.947 48.2978L300.058 51.7042C303.055 39.2911 319.905 41.1133 323.771 25.093C326.64 13.2108 319.447 4.40145 305.231 0.969987C290.057 -2.69343 278.757 4.12167 274.887 19.6924ZM290.79 57.9992C285.485 56.7187 280.876 59.5356 279.57 64.9458C278.264 70.3572 281.055 75.0728 286.36 76.3533C291.664 77.6338 296.406 74.7356 297.711 69.3254C299.017 63.914 296.095 59.2797 290.79 57.9992Z" fill="#9ABBE6"/>
<path fill-rule="evenodd" clip-rule="evenodd" d="M196.09 86.2455L206.621 87.514C207.254 82.9108 209.521 80.9225 213.287 81.3757C216.67 81.7834 218.492 83.4847 218.103 86.7129C217.215 94.0924 207.676 93.6452 206.251 105.483L216.475 106.715C217.558 97.7211 229.581 97.6087 230.979 86.0015C232.015 77.3918 226.219 71.7807 215.917 70.5408C204.926 69.2173 197.527 74.9551 196.09 86.2455ZM210.468 111.918C206.624 111.455 203.61 113.821 203.137 117.742C202.665 121.662 205.023 124.754 208.866 125.216C212.71 125.679 215.81 123.244 216.282 119.325C216.754 115.404 214.311 112.381 210.468 111.918Z" fill="#9ABBE6"/>
<path fill-rule="evenodd" clip-rule="evenodd" d="M94.2211 28.4237L104.6 25.8746C103.559 21.3108 104.989 18.6302 108.701 17.718C112.035 16.899 114.358 17.8555 115.14 21.037C116.926 28.3101 107.776 31.28 110.642 42.947L120.717 40.472C118.54 31.6088 129.834 27.228 127.024 15.7882C124.94 7.30283 117.48 4.07583 107.329 6.56872C96.494 9.229 91.5608 17.2684 94.2211 28.4237ZM116.903 47.5119C113.116 48.4421 111.115 51.7456 112.065 55.6087C113.014 59.473 116.335 61.5486 120.123 60.6184C123.911 59.6882 125.969 56.2902 125.019 52.4271C124.07 48.5629 120.691 46.5817 116.903 47.5119Z" fill="#9ABBE6"/>
</svg>
