<svg width="962" height="615" viewBox="0 0 962 615" fill="none" xmlns="http://www.w3.org/2000/svg">
<path d="M481 134.5C588.09 134.5 685.017 153.911 755.153 185.273C790.222 200.955 818.571 219.615 838.146 240.31C857.718 261.002 868.5 283.706 868.5 307.5C868.5 331.294 857.718 353.998 838.146 374.69C818.571 395.385 790.222 414.045 755.153 429.727C685.017 461.089 588.09 480.5 481 480.5C373.91 480.5 276.983 461.089 206.847 429.727C171.778 414.045 143.429 395.385 123.854 374.69C104.282 353.998 93.5 331.294 93.5 307.5C93.5 283.706 104.282 261.002 123.854 240.31C143.429 219.615 171.778 200.955 206.847 185.273C276.983 153.911 373.91 134.5 481 134.5Z" stroke="#DAE4FF"/>
<path d="M429.693 116.263C548.06 84.5063 660.953 77.2128 747.781 91.0735C791.195 98.0039 828.07 110.219 855.851 127.289C883.629 144.358 902.291 166.263 909.351 192.578C916.411 218.893 911.22 247.198 895.716 275.878C880.21 304.562 854.402 333.594 820.287 361.325C752.057 416.786 650.674 466.98 532.306 498.737C413.939 530.494 301.046 537.787 214.218 523.927C170.804 516.996 133.929 504.781 106.148 487.711C78.3703 470.643 59.7079 448.737 52.6479 422.422C45.5879 396.108 50.7793 367.802 66.2832 339.122C81.7889 310.439 107.597 281.406 141.712 253.675C209.942 198.215 311.325 148.02 429.693 116.263Z" stroke="#DAE4FF"/>
<ellipse cx="481.001" cy="307.5" rx="388" ry="173.5" transform="rotate(15.7806 481.001 307.5)" fill="#EFF3FF"/>
<g clip-path="url(#clip0_1757_5726)">
<path d="M198.957 450.804C268.351 447.679 369.135 448.375 439.631 447.907C510.419 448.47 610.515 447.414 680.306 450.907C680.812 450.909 680.837 451.754 680.306 451.758C610.914 455.248 510.13 454.202 439.631 454.76L319.293 454.312C279.182 453.992 239.068 453.647 198.955 451.863C198.33 451.859 198.289 450.808 198.955 450.806L198.957 450.804Z" fill="#E5E5E5"/>
<path d="M67.2673 562.964C86.8972 561.179 115.409 561.577 135.379 561.309C155.415 561.866 184.307 560.585 203.711 563.289C184.292 565.858 155.368 564.714 135.379 565.224L101.324 564.969C89.9736 564.785 78.6204 564.588 67.2695 563.569C66.9312 563.549 66.8998 562.984 67.2695 562.964H67.2673Z" fill="#E5E5E5"/>
<path d="M718.625 565.74C734.932 563.945 758.618 564.346 775.221 564.084C791.868 564.64 815.986 563.349 832.029 566.069C815.928 568.63 791.841 567.498 775.221 568L746.924 567.745C737.491 567.63 728.06 567.321 718.627 566.345C718.291 566.32 718.265 565.764 718.627 565.74H718.625Z" fill="#E5E5E5"/>
<path d="M237.506 362.327V333.491L304.11 239.044H344.367V331.401H361.651V362.327H344.367V389.489H308.325V362.327H237.504H237.506ZM310.857 278.328L275.446 331.401H310.857V278.328Z" fill="url(#paint0_linear_1757_5726)"/>
<path d="M393.369 254.508C402.712 240.717 417.782 233.822 438.58 233.822C459.377 233.822 474.443 240.717 483.788 254.508C493.132 268.299 497.805 287.177 497.805 311.134C497.805 335.09 493.134 354.388 483.788 368.178C474.443 381.967 459.372 388.864 438.58 388.864C417.787 388.864 402.712 381.969 393.369 368.178C384.021 354.388 379.352 335.373 379.352 311.134C379.352 286.895 384.021 268.301 393.369 254.508ZM457.759 278.642C454.665 271.052 448.275 267.253 438.577 267.253C428.88 267.253 422.488 271.052 419.398 278.642C416.306 286.236 414.762 297.065 414.762 311.131C414.762 320.608 415.322 328.441 416.447 334.638C417.572 340.839 419.853 345.852 423.296 349.683C426.74 353.516 431.833 355.429 438.577 355.429C445.322 355.429 450.412 353.516 453.858 349.683C457.3 345.852 459.581 340.839 460.708 334.638C461.83 328.441 462.393 320.605 462.393 311.131C462.393 297.063 460.844 286.234 457.757 278.642H457.759Z" fill="url(#paint1_linear_1757_5726)"/>
<path d="M517.617 362.327V333.491L584.222 239.044H624.479V331.401H641.762V362.327H624.479V389.489H588.436V362.327H517.615H517.617ZM590.966 278.328L555.555 331.401H590.966V278.328Z" fill="url(#paint2_linear_1757_5726)"/>
<path d="M284.211 450.853H268.942L252.776 426.576V450.853H237.506V402.574H252.776L268.942 427.259V402.574H284.211V450.853Z" fill="#142D72"/>
<path d="M302.199 448.127C298.37 445.99 295.332 443.035 293.087 439.262C290.84 435.49 289.715 431.24 289.715 426.511C289.715 421.782 290.84 417.532 293.087 413.758C295.332 409.985 298.37 407.041 302.199 404.927C306.029 402.814 310.237 401.757 314.823 401.757C319.41 401.757 323.604 402.814 327.411 404.927C331.215 407.041 334.231 409.985 336.456 413.758C338.679 417.532 339.792 421.782 339.792 426.511C339.792 431.24 338.679 435.49 336.456 439.262C334.231 443.037 331.204 445.99 327.377 448.127C323.546 450.264 319.362 451.333 314.823 451.333C310.284 451.333 306.029 450.264 302.199 448.127ZM321.838 434.316C323.49 432.385 324.314 429.782 324.314 426.509C324.314 423.236 323.49 420.566 321.838 418.632C320.187 416.699 317.848 415.733 314.821 415.733C311.794 415.733 309.385 416.699 307.736 418.632C306.085 420.566 305.26 423.189 305.26 426.509C305.26 429.829 306.085 432.385 307.736 434.316C309.387 436.249 311.749 437.215 314.821 437.215C317.893 437.215 320.187 436.249 321.838 434.316Z" fill="#142D72"/>
<path d="M383.54 402.574V414.575H370.607V450.853H355.337V414.575H342.541V402.574H383.54Z" fill="#142D72"/>
<path d="M433.753 402.574V414.575H414.629V421.258H428.386V432.645H414.629V450.853H399.359V402.574H433.753Z" fill="#142D72"/>
<path d="M450.02 448.127C446.191 445.99 443.152 443.035 440.907 439.262C438.66 435.49 437.535 431.24 437.535 426.511C437.535 421.782 438.66 417.532 440.907 413.758C443.152 409.985 446.191 407.041 450.02 404.927C453.849 402.814 458.057 401.757 462.643 401.757C467.23 401.757 471.424 402.814 475.231 404.927C479.036 407.041 482.051 409.985 484.276 413.758C486.499 417.532 487.613 421.782 487.613 426.511C487.613 431.24 486.499 435.49 484.276 439.262C482.051 443.037 479.024 445.99 475.197 448.127C471.366 450.264 467.183 451.333 462.643 451.333C458.104 451.333 453.849 450.264 450.02 448.127ZM469.659 434.316C471.31 432.385 472.135 429.782 472.135 426.509C472.135 423.236 471.308 420.566 469.659 418.632C468.007 416.699 465.67 415.733 462.641 415.733C459.612 415.733 457.208 416.699 455.556 418.632C453.905 420.566 453.08 423.189 453.08 426.509C453.08 429.829 453.907 432.385 455.556 434.316C457.208 436.249 459.569 437.215 462.641 437.215C465.713 437.215 468.007 436.249 469.659 434.316Z" fill="#142D72"/>
<path d="M508.042 402.574V429.782C508.042 432.011 508.533 433.772 509.521 435.066C510.505 436.361 512.1 437.009 514.3 437.009C516.501 437.009 518.13 436.361 519.185 435.066C520.24 433.769 520.767 432.008 520.767 429.782V402.574H535.969V429.782C535.969 434.372 535.006 438.295 533.079 441.545C531.154 444.793 528.515 447.237 525.169 448.875C521.822 450.513 518.085 451.33 513.958 451.33C509.83 451.33 506.174 450.513 502.985 448.875C499.799 447.24 497.312 444.807 495.522 441.579C493.734 438.351 492.84 434.419 492.84 429.782V402.574H508.042Z" fill="#142D72"/>
<path d="M589.278 450.853H574.008L557.842 426.576V450.853H542.572V402.574H557.842L574.008 427.259V402.574H589.278V450.853Z" fill="#142D72"/>
<path d="M629.826 405.644C633.655 407.689 636.604 410.529 638.665 414.165C640.729 417.803 641.76 421.941 641.76 426.576C641.76 431.211 640.729 435.304 638.665 438.987C636.602 442.667 633.655 445.566 629.826 447.681C625.997 449.796 621.538 450.853 616.447 450.853H596.154V402.574H616.447C621.538 402.574 625.997 403.598 629.826 405.644ZM623.259 434.556C625.275 432.692 626.286 430.033 626.286 426.576C626.286 423.119 625.278 420.462 623.259 418.596C621.242 416.733 618.513 415.801 615.074 415.801H611.426V437.349H615.074C618.513 437.349 621.24 436.417 623.259 434.553V434.556Z" fill="#142D72"/>
<path d="M169.634 379.44L171.032 380.137C171.666 380.437 172.419 380.121 172.652 379.46L178.195 363.673C178.395 363.102 178.133 362.473 177.586 362.215L176.188 361.518C175.554 361.22 174.801 361.534 174.568 362.195L169.024 377.982C168.823 378.553 169.087 379.182 169.634 379.44Z" fill="#085296"/>
<path d="M92.8936 551.174C93.7563 552.751 94.3231 554.716 94.6279 556.763C96.5458 557.926 98.7976 559.906 99.4653 561.015C100.436 562.624 100.097 563.269 97.684 563.269C96.752 563.269 95.9005 563.231 94.6816 563.213C94.6794 563.231 94.6816 563.251 94.6772 563.269H88.6455C87.6506 561.018 86.3735 558.054 84.6258 554.245C83.7229 552.276 91.6927 548.983 92.8892 551.176L92.8936 551.174Z" fill="#04163F"/>
<path d="M181.061 560.921C178.73 557.252 171.271 553.967 165.916 554.335C163.425 554.505 163.084 563.123 165.251 563.123C179.824 563.139 183.068 564.082 181.061 560.921Z" fill="#04163F"/>
<path d="M157.249 363.602C157.145 369.57 155.779 372.818 157.771 378.371C159.76 383.925 172.65 394.608 170.242 405.919C167.833 417.232 166.574 417.125 165.528 418.697C164.481 420.27 164.481 428.021 159.659 428.651C154.842 429.28 149.498 409.479 145.723 399.53C141.952 389.581 133.149 383.295 133.256 377.112C133.359 370.934 131.999 352.076 137.13 350.4C142.266 348.725 147.923 349.876 147.923 349.876L152.848 355.114L157.249 363.6V363.602Z" fill="url(#paint3_linear_1757_5726)"/>
<path d="M146.396 342.526C150.005 343.095 158.531 345.622 158.623 352.024C158.773 361.505 159.691 362.65 160.012 362.676C160.337 362.717 156.503 364.148 156.503 364.148C156.503 364.148 155.365 372.141 151.684 371.996C150.846 371.962 149.067 371.082 148.374 372.524C147.691 373.972 145.504 379.37 146.243 382.695C146.987 386.028 136.174 382.637 136.107 381.223C136.031 379.805 139.067 373.506 139.342 370.835C139.62 368.14 132.726 364.616 135.482 353.639C138.437 341.912 142.981 341.995 146.393 342.526H146.396Z" fill="#FFD1AE"/>
<path d="M149.822 522.853C149.822 522.853 161.704 551.073 165.204 556.541C165.771 557.429 169.307 556.398 169.17 555.119C168.276 546.823 165.71 517.43 165.71 517.43L149.825 522.853H149.822Z" fill="#FFD1AE"/>
<path d="M140.8 498.047C146.151 517.481 152.46 534.039 157.981 542.887C159.904 545.479 168.77 543.19 168.611 538.217C168.326 535.645 167.999 515.36 167.423 493.63C167.313 489.461 165.606 484.127 152.586 485.451C139.821 486.748 139.702 494.055 140.802 498.047H140.8Z" fill="url(#paint4_linear_1757_5726)"/>
<path d="M150.486 385.233C146.485 375.334 137.639 378.687 135.938 379.928C130.534 383.864 121.858 392.621 115.334 399.694C108.327 407.286 98.6703 438.147 97.8054 441.003C97.0302 443.564 101.251 444.449 102.213 442.797C105.231 437.62 120.722 414.018 125.647 410.707C130.426 407.494 137.751 405.946 141.977 402.037C147.049 397.344 152.485 390.184 150.486 385.233Z" fill="#FFD1AE"/>
<path d="M154.965 446.955C153.526 431.218 119.032 444.191 124.015 463.947C126.321 473.085 134.577 486.746 143.746 500.695C145.684 503.644 148.801 507.506 157.371 504.385C169.343 500.026 167.16 491.611 167.16 491.611C161.039 469.337 154.962 446.955 154.962 446.955H154.965Z" fill="url(#paint5_linear_1757_5726)"/>
<path d="M99.6047 516.843C99.6047 516.843 93.2772 542.596 90.8574 551.38C90.5482 552.502 92.7708 555.592 93.7343 554.736C94.7045 553.878 115.345 522.672 115.345 522.672L99.6024 516.841L99.6047 516.843Z" fill="#FFD1AE"/>
<path d="M108.288 491.916C100.157 510.36 98.0327 520.508 93.2714 537.527C93.1258 540.75 101.443 544.577 104.461 540.62C105.866 538.45 118.429 522.517 131.713 505.308C134.261 502.008 136.309 496.795 125.381 489.595C114.667 482.536 109.957 488.126 108.288 491.916Z" fill="url(#paint6_linear_1757_5726)"/>
<path d="M152.165 460.777C161.076 447.726 126.213 435.777 117.479 454.182C113.439 462.697 111.106 478.488 109.298 495.081C108.915 498.59 108.861 503.552 117.459 506.601C129.466 510.859 133.143 502.98 133.143 502.98C142.605 481.907 152.168 460.779 152.168 460.779L152.165 460.777Z" fill="url(#paint7_linear_1757_5726)"/>
<path d="M123.268 444.054C119.568 447.952 117.314 452.775 115.93 457.222C122.215 459.785 138.932 465.009 158.999 458.911C158.774 455.905 158.593 452.518 158.517 448.844C157.93 420.474 156.767 376.254 142.705 375.239C131.099 374.406 119.315 397.7 122.031 423.052C122.851 430.682 124.007 438.014 123.268 444.054Z" fill="url(#paint8_linear_1757_5726)"/>
<path d="M132.209 387.068C131.998 384.973 134.198 377.011 144.765 378.566C155.329 380.121 155.99 406.34 155.99 406.34C155.99 406.34 168.146 387.278 171.289 380.992C174.431 374.706 176.53 378.896 175.69 383.925C174.854 388.952 165.632 423.099 150.962 423.52C136.293 423.939 133.275 397.749 132.209 387.068Z" fill="#FFD1AE"/>
<path d="M159.064 353.407C159.064 353.407 159.21 358.642 154.735 359.97C150.263 361.297 148.587 360.179 148.587 360.179C148.587 360.179 146.703 353.124 143.418 354.103C140.133 355.082 143.21 360.461 143.21 360.461C143.21 360.461 141.652 367.692 140.581 369.469C139.049 372.009 138.388 375.338 137.828 375.968C137.27 376.593 131.995 381.075 129.652 384.373C128.052 377.614 130.317 372.191 129.06 367.58C127.803 362.974 126.862 346.84 136.813 342.02C146.768 337.201 158.473 342.689 159.062 353.407H159.064Z" fill="url(#paint9_linear_1757_5726)"/>
<path d="M172.178 379.68C172.178 379.68 173.488 378.004 174.011 375.226C174.535 372.453 176.316 365.902 178.411 367.215C180.508 368.523 176.892 380.833 175.637 384.447C174.378 388.06 172.91 382.982 172.91 382.982L172.178 379.68Z" fill="#FFD1AE"/>
<path d="M170.758 372.939C170.758 372.939 170.812 374.72 170.285 375.558C169.763 376.396 169.342 376.709 169.028 376.187C168.714 375.663 169.501 372.939 170.758 372.939Z" fill="#FFD1AE"/>
<path d="M98.3858 439.197C98.0789 440.172 96.9451 441.715 95.8069 442.365C94.6687 443.012 90.7655 443.9 87.4808 445.279C84.1916 446.668 83.1228 449.056 83.3805 450.3C83.6359 451.541 85.2783 450.255 87.9491 452.061C90.6221 453.862 97.3014 451.722 99.2485 447.851C101.191 443.985 102.098 443.073 102.945 441.626C103.595 440.51 99.2283 436.538 98.3903 439.2L98.3858 439.197Z" fill="#FFD1AE"/>
<path d="M619.666 181.834C619.666 181.834 622.5 182.349 624.544 180.535C626.587 178.72 627.867 175.275 629.106 174.916C630.342 174.555 631.936 175.879 632.44 176.283C632.944 176.686 635.664 176.84 636.988 176.587C638.312 176.336 639.901 177.759 637.45 178.731C635.001 179.703 632.088 179.43 629.892 180.83C627.696 182.23 628.382 184.101 626.471 185.631C624.559 187.161 620.905 186.406 620.522 186.711L619.668 181.834H619.666Z" fill="#FFD1AE"/>
<path d="M583.167 187.573C582.186 181.91 576.896 160.216 582.91 150.897C591.198 138.053 597.319 139.832 599.387 142.036C605.495 148.549 600.555 178.787 596.089 189.544L596.046 189.527C593.042 197.161 584.81 197.056 583.17 187.573H583.167Z" fill="url(#paint10_linear_1757_5726)"/>
<path d="M620.225 180.555C618.61 180.436 602.784 182.302 593.401 182.288C584.831 182.546 581.7 192.394 587.923 194.554L587.911 194.598C588.743 194.811 589.502 194.977 590.141 195.062C595.323 195.748 615.991 189.807 622.255 187.819C624.052 187.25 623.201 180.774 620.228 180.555H620.225Z" fill="url(#paint11_linear_1757_5726)"/>
<path d="M640.262 311.909C640.13 307.563 635.389 300.936 630.596 298.521C628.366 297.397 623.677 304.635 625.539 305.742C638.066 313.186 640.376 315.654 640.262 311.909Z" fill="#04163F"/>
<path d="M634.304 293.851L632.993 301.317C632.993 301.317 632.536 302.256 630.231 301.611C628.79 301.207 628.326 300.325 628.326 300.325L628.467 294.178L634.304 293.851Z" fill="#FFD1AE"/>
<path d="M634.743 295.363C634.743 295.363 652.547 234.655 653.734 231.356C654.821 228.336 659.145 210.788 646.174 210.788H573.81C572.586 210.788 574.453 239.261 587.807 239.261H627.107L627.394 295.257L634.745 295.365L634.743 295.363Z" fill="url(#paint12_linear_1757_5726)"/>
<path d="M611.813 316.725C615.409 317.306 617.573 305.419 616.312 299.89C615.725 297.318 606.666 298.311 606.899 300.585C607.842 309.823 608.611 316.208 611.813 316.723V316.725Z" fill="#04163F"/>
<path d="M617.314 293.851L616.003 301.317C616.003 301.317 615.546 302.256 613.24 301.611C611.8 301.207 611.336 300.325 611.336 300.325L611.477 294.178L617.314 293.851Z" fill="#FFD1AE"/>
<path d="M617.752 295.363C617.752 295.363 635.556 234.655 636.743 231.356C637.83 228.336 642.154 210.788 629.183 210.788H572.521C571.297 210.788 573.164 239.261 586.518 239.261H610.116L610.403 295.257L617.754 295.365L617.752 295.363Z" fill="url(#paint13_linear_1757_5726)"/>
<path d="M609.875 111.503C609.875 111.503 616.355 114.417 616.175 121.196C615.998 127.961 616.09 131.322 615.277 132.175C614.464 133.056 612.835 132.435 612.835 132.435C612.835 132.435 609.536 139.297 606.227 138.752C602.936 138.228 602.416 136.875 600.57 143.15C598.741 149.407 591.305 140.565 591.305 140.565L595.687 131.747C595.687 131.747 591.712 120.764 595.199 113.98C598.703 107.213 608.085 110.058 609.877 111.503H609.875Z" fill="#FFD1AE"/>
<path d="M576.933 159.093C573.198 169.837 570.556 186.323 570.337 201.603C570.133 216.893 570.879 223.21 575.168 228.871C580.702 229.832 610.963 217.61 614.181 210.934C612.169 205.463 610.954 200.609 606.7 191.068C595.172 165.209 605.272 144.373 600.901 139.021C596.523 133.649 584.527 137.298 576.935 159.093H576.933Z" fill="#BFD2ED"/>
<path d="M604.589 119.782C604.589 119.782 603.664 116.48 601.466 116.628C599.257 116.772 600.874 121.655 600.666 122.903C600.455 124.153 596.895 128.705 595.085 130.233C592.591 127.016 589.541 122.54 589.895 116.359C590.158 111.756 591.932 107.352 596.653 107.833C597.726 104.67 601.318 104.549 604.054 104.778C610.601 105.322 612.447 110.808 617.139 110.353C620.464 110.031 620.11 107.499 620.11 107.499C620.11 107.499 624.849 114.953 620.726 119.536C616.691 124.025 610.603 124.825 604.587 119.782H604.589Z" fill="url(#paint14_linear_1757_5726)"/>
<path d="M652.777 210.387H617.884C617.19 210.387 616.625 209.823 616.625 209.128C616.625 208.434 617.19 207.869 617.884 207.869H652.777C653.355 207.869 653.873 207.504 654.063 206.96L665.322 174.869C665.551 174.215 666.27 173.87 666.929 174.096C667.585 174.327 667.93 175.046 667.702 175.702L656.443 207.793C655.898 209.348 654.426 210.39 652.777 210.39V210.387Z" fill="#BFDAF7"/>
<path d="M715.397 380.287C714.72 379.29 714.03 378.149 713.08 376.454C711.502 373.64 712.466 366.657 720.118 368.438C722.148 368.911 724.603 380.096 721.222 380.347C718.415 380.555 716.015 381.198 715.397 380.284V380.287Z" fill="#FFD1AE"/>
<path d="M723.984 381.637L732.991 377.737C733.634 377.459 733.894 376.684 733.551 376.075L725.351 361.491C725.055 360.965 724.408 360.745 723.852 360.987L714.845 364.887C714.202 365.165 713.942 365.94 714.285 366.55L722.485 381.133C722.781 381.66 723.428 381.879 723.984 381.637Z" fill="#085296"/>
<path d="M722.797 379.68C722.633 379.68 722.483 379.59 722.403 379.449L714.921 366.191C714.91 365.757 714.975 365.629 715.136 365.56L724.141 361.662C724.195 361.657 724.242 361.653 724.287 361.653C724.527 361.653 724.643 361.733 724.71 361.852L732.194 375.112C732.205 375.544 732.14 375.672 731.979 375.743L722.972 379.644L722.795 379.682L722.797 379.68Z" fill="url(#paint15_linear_1757_5726)"/>
<path d="M723.374 383.096C723.242 382.659 718.687 374.928 718.687 374.928L714.352 378.651L718.884 386.819L723.374 383.096Z" fill="#FFD1AE"/>
<path d="M798.137 544.46L803.81 554.595L807.077 552.168L801.155 538.418L798.137 544.46Z" fill="#FFD1AE"/>
<path d="M789.206 504.605C789.206 504.605 794.041 505.572 796.203 510.888C798.39 516.198 803.452 542.999 803.452 542.999L798.872 546.391C798.872 546.391 783.221 533.924 775.272 515.12C774.053 512.237 774.378 508.76 776.428 506.394C778.899 503.543 783.288 502.277 789.206 504.602V504.605Z" fill="url(#paint16_linear_1757_5726)"/>
<path d="M774.713 437.723C777.996 429.607 785.058 427.125 789.672 426.874C794.227 426.625 804.249 431.097 804.249 450.389C804.249 471.875 794.937 491.84 789.206 504.604C784.87 514.26 777.077 518.906 774.149 512.279C772.701 509.006 771.919 505.402 771.339 501.712C767.23 475.643 768.711 452.574 774.716 437.721L774.713 437.723Z" fill="url(#paint17_linear_1757_5726)"/>
<path d="M750.811 548.199L753.262 559.55L757.098 558.19L755.467 543.306L750.811 548.199Z" fill="#FFD1AE"/>
<path d="M753.957 507.476C753.957 507.476 758.294 509.817 758.805 515.534C759.341 521.251 756.318 548.36 756.318 548.36L750.945 550.26C750.945 550.26 739.639 533.754 737.551 513.447C737.23 510.333 738.561 507.105 741.214 505.442C744.414 503.44 748.98 503.516 753.957 507.474V507.476Z" fill="url(#paint18_linear_1757_5726)"/>
<path d="M757.374 435.983C762.536 428.91 768.492 432.34 773.504 433.698C777.907 434.892 786.611 441.346 781.908 460.056C776.67 480.894 762.774 497.987 754.102 508.971C747.544 517.277 738.855 519.885 737.627 512.745C737.022 509.219 737.141 505.532 737.477 501.811C739.848 475.527 747.93 448.922 757.374 435.983Z" fill="url(#paint19_linear_1757_5726)"/>
<path d="M763.027 342.633C763.027 342.633 759.312 360.989 765.281 364.928C769.139 367.475 770.101 366.738 770.101 366.738C770.101 366.738 770.461 371.742 769.785 373.57C769.106 375.398 764.206 377.975 768.145 380.237C772.075 382.502 779.128 380.457 781.828 378.347C784.523 376.236 783.925 374.505 783.925 374.505C783.925 374.505 782.242 373.456 781.331 373.181C780.416 372.901 779.679 372.439 779.679 372.439C779.679 372.439 779.935 366.426 780.425 365.022C780.907 363.617 787.86 356.523 787.483 348.052C787.114 339.584 769.796 333.451 763.029 342.633H763.027Z" fill="#FFD1AE"/>
<path d="M818.715 408.522C812.468 410.977 790.242 417.649 790.242 417.649L787.963 412.418C787.963 412.418 808.96 401.517 816.224 399.127C820.985 397.559 823.149 406.779 818.715 408.522Z" fill="url(#paint20_linear_1757_5726)"/>
<path d="M819.82 398.488C815.093 393.856 801.685 378.192 792.624 375.083C787.038 373.152 790.52 396.179 792.277 397.362C793.979 398.522 814.017 407.828 815.677 408.511C820.329 410.429 824.718 403.285 819.82 398.488Z" fill="url(#paint21_linear_1757_5726)"/>
<path d="M798.441 381.1C796.004 372.148 778.599 372.155 778.599 372.155C766.074 370.201 754.523 377.847 754.523 380.452C754.523 383.058 759.04 428.305 760.79 435.073C762.032 439.876 783.575 437.929 795.056 435.362C797.379 434.842 799.208 433.131 799.205 430.752C799.194 418.809 800.382 388.219 798.441 381.102V381.1Z" fill="url(#paint22_linear_1757_5726)"/>
<path d="M827.631 382.753C812.335 371.082 792.718 359.645 789.581 347.519C789.552 347.409 789.51 347.349 789.478 347.246C788.981 345.494 788.21 343.673 787.036 341.782C784.585 337.83 776.27 334.703 769.147 336.939C762.024 339.174 760.451 342.9 760.866 346.296C761.151 348.619 763.557 349.842 765.612 351.986C765.614 351.984 765.616 351.979 765.618 351.977C767.48 350.015 768.97 349.547 769.909 351.312C770.745 352.884 770.005 353.859 767.848 355.427C767.89 355.537 767.951 355.622 767.989 355.736C768.199 356.348 768.385 356.937 768.565 357.506C769.438 360.333 770.153 362.831 773.138 367.607C776.467 372.937 776.304 378.125 773.687 383.557C771.07 388.99 768.746 401.938 774.67 419.284C779.577 433.648 805.691 452.786 823.403 434.473C841.115 416.159 842.928 394.425 827.631 382.753Z" fill="url(#paint23_linear_1757_5726)"/>
<path d="M738.929 409.06C741.8 403.096 749.082 383.806 756.547 377.802C761.145 374.086 765.698 396.927 764.45 398.636C763.245 400.305 747.565 415.868 746.234 417.077C742.512 420.462 735.956 415.236 738.929 409.06Z" fill="url(#paint24_linear_1757_5726)"/>
<path d="M723.325 380.719C724.696 381.832 737.64 397.35 745.086 404.346C751.684 410.953 746.809 421.092 740.264 418.155L740.239 418.2C739.422 417.75 738.696 417.311 738.127 416.903C733.506 413.576 719.772 391.212 716.29 384.962C715.29 383.168 720.802 378.674 723.325 380.719Z" fill="url(#paint25_linear_1757_5726)"/>
<path d="M741.979 563.694C744.309 560.025 751.768 556.741 757.123 557.108C759.615 557.278 759.956 565.894 757.789 565.897C743.216 565.912 739.969 566.855 741.979 563.694Z" fill="#04163F"/>
<path d="M797.47 564.355C797.387 560.007 801.792 553.154 806.459 550.504C808.63 549.27 813.674 556.266 811.868 557.464C799.726 565.522 797.542 568.101 797.47 564.355Z" fill="#04163F"/>
<path d="M601.652 139.859C603.605 145.213 597.825 178.924 599.541 199.191C601.257 219.46 602.239 232.33 602.239 232.33C602.239 232.33 588.118 235.574 578.706 234.288C569.293 233.002 567.041 232.68 567.041 232.68C567.041 232.68 568.215 224.1 570.31 195.237C572.405 166.376 576.776 157.877 581.28 148.668C585.786 139.458 591.818 137.381 593.951 136.821C596.081 136.261 600.345 136.273 601.654 139.861L601.652 139.859Z" fill="url(#paint26_linear_1757_5726)"/>
<path d="M626.839 195.125C626.839 195.125 629.185 196.796 631.806 196.023C634.43 195.25 637.052 192.676 638.326 192.878C639.599 193.08 640.477 194.955 640.762 195.533C641.047 196.113 643.442 197.408 644.748 197.744C646.054 198.08 646.886 200.042 644.255 199.881C641.625 199.719 639.104 198.234 636.521 198.566C633.937 198.897 633.762 200.884 631.381 201.456C628.999 202.027 626.012 199.789 625.537 199.903L626.839 195.127V195.125Z" fill="#FFD1AE"/>
<path d="M590.19 189.076C588.153 183.7 578.848 163.401 582.986 153.112C588.691 138.932 595.039 139.518 597.485 141.293C604.716 146.53 605.596 177.158 603.248 188.565L603.201 188.557C601.698 196.621 593.596 198.08 590.188 189.078L590.19 189.076Z" fill="url(#paint27_linear_1757_5726)"/>
<path d="M627.888 194.204C626.477 193.409 611.359 188.368 602.874 184.363C595.007 180.951 587.985 188.532 592.7 193.133L592.668 193.169C593.329 193.716 593.948 194.189 594.49 194.538C598.888 197.363 620.12 200.775 626.633 201.642C628.502 201.89 630.487 195.669 627.89 194.204H627.888Z" fill="url(#paint28_linear_1757_5726)"/>
<path d="M603.743 139.852C602.215 136.615 600.525 134.751 595.498 133.806C594.241 133.571 593.174 133.66 592.141 134.733C591.619 135.276 590.391 136.548 589.869 138.578C590.407 138.295 595.625 137.444 598.522 139.51C600.758 141.102 600.781 143.325 601.251 144.678C602.618 143.089 603.624 141.279 603.745 139.852H603.743Z" fill="url(#paint29_linear_1757_5726)"/>
<path d="M708.101 158.027V100.438C708.101 98.1195 706.221 96.24 703.902 96.24H631.638C629.319 96.24 627.439 98.1195 627.439 100.438V158.029C627.439 160.348 629.319 162.227 631.638 162.227H703.902C706.221 162.227 708.101 160.346 708.101 158.027Z" fill="#B5C8FF"/>
<path d="M649.896 129.234C649.896 119.379 657.916 111.364 667.77 111.364C677.624 111.364 685.645 119.381 685.645 129.234C685.645 139.086 677.626 147.104 667.77 147.104C657.913 147.104 649.896 139.086 649.896 129.234ZM667.306 136.644L667.084 136.649C664.709 136.698 662.437 136.998 660.326 137.54L660.107 137.596L660.174 137.814C660.568 139.091 661.055 140.271 661.617 141.322C663.096 144.095 665.027 145.798 667.057 146.116L667.308 146.156V136.644H667.306ZM668.236 136.644V146.156L668.487 146.116C670.514 145.798 672.448 144.095 673.925 141.322C674.485 140.273 674.971 139.093 675.368 137.814L675.435 137.596L675.215 137.54C673.105 136.998 670.83 136.698 668.458 136.649L668.236 136.644ZM659.211 137.852L659.002 137.919C657.438 138.416 656.038 139.043 654.842 139.787L654.629 139.919L654.79 140.112C656.977 142.715 659.847 144.586 663.091 145.52L663.3 145.153C662.372 144.281 661.53 143.141 660.793 141.763C660.199 140.652 659.69 139.409 659.276 138.065L659.211 137.856V137.852ZM676.331 137.852L676.266 138.06C675.849 139.406 675.338 140.652 674.749 141.759C674.014 143.136 673.17 144.279 672.242 145.148L672.45 145.515C675.695 144.581 678.565 142.713 680.752 140.108L680.913 139.915L680.7 139.783C679.502 139.041 678.103 138.412 676.539 137.914L676.331 137.847V137.852ZM684.706 129.7H677.519L677.514 129.91C677.465 132.305 677.167 134.61 676.627 136.758L676.578 136.956L676.772 137.018C678.48 137.558 680.006 138.246 681.305 139.068L681.48 139.178L681.599 139.012C683.494 136.34 684.568 133.199 684.698 129.926L684.706 129.702V129.7ZM658.021 129.7H650.833L650.842 129.924C650.974 133.197 652.047 136.337 653.941 139.01L654.06 139.176L654.234 139.066C655.536 138.244 657.062 137.556 658.767 137.016L658.962 136.953L658.913 136.756C658.373 134.606 658.075 132.3 658.025 129.908L658.021 129.697V129.7ZM676.589 129.7H668.238V135.712L668.451 135.717C670.916 135.766 673.279 136.08 675.475 136.646L675.686 136.7L675.74 136.487C676.253 134.431 676.537 132.22 676.587 129.917L676.591 129.695L676.589 129.7ZM667.306 129.7H658.955L658.96 129.921C659.007 132.227 659.291 134.438 659.807 136.492L659.86 136.705L660.071 136.651C662.269 136.084 664.631 135.771 667.095 135.721L667.308 135.717V129.704L667.306 129.7ZM654.06 119.289L653.941 119.457C652.045 122.13 650.974 125.271 650.842 128.544L650.833 128.77H658.021L658.025 128.557C658.075 126.162 658.373 123.859 658.913 121.709L658.962 121.512L658.767 121.449C657.06 120.909 655.536 120.221 654.234 119.399L654.06 119.289ZM659.856 121.765L659.802 121.978C659.289 124.03 659.005 126.241 658.955 128.546L658.951 128.768H667.301V122.755L667.089 122.75C664.624 122.701 662.26 122.388 660.064 121.821L659.854 121.767L659.856 121.765ZM675.686 121.765L675.475 121.819C673.277 122.385 670.916 122.699 668.451 122.748L668.238 122.753V128.765H676.589L676.584 128.544C676.537 126.241 676.253 124.032 675.737 121.975L675.684 121.763L675.686 121.765ZM681.48 119.289L681.305 119.399C680.003 120.219 678.48 120.909 676.772 121.449L676.578 121.512L676.627 121.709C677.167 123.857 677.465 126.162 677.514 128.557L677.519 128.77H684.706L684.698 128.544C684.565 125.271 683.494 122.128 681.599 119.457L681.48 119.289ZM667.306 112.311L667.055 112.351C665.027 112.67 663.094 114.372 661.615 117.145C661.052 118.198 660.566 119.379 660.172 120.656L660.105 120.873L660.324 120.929C662.435 121.471 664.709 121.772 667.082 121.819L667.304 121.823V112.311H667.306ZM668.236 112.311V121.823L668.458 121.819C670.828 121.769 673.102 121.469 675.215 120.929L675.435 120.873L675.368 120.656C674.971 119.377 674.485 118.196 673.925 117.148C672.446 114.374 670.514 112.672 668.487 112.354L668.236 112.313V112.311ZM663.091 112.95C659.847 113.884 656.977 115.752 654.79 118.357L654.629 118.55L654.842 118.682C656.038 119.424 657.438 120.053 659.002 120.551L659.211 120.618L659.276 120.409C659.69 119.065 660.199 117.822 660.793 116.709C661.527 115.331 662.372 114.191 663.3 113.319L663.091 112.952V112.95ZM672.242 113.317C673.17 114.188 674.012 115.329 674.749 116.706C675.341 117.815 675.852 119.059 676.266 120.407L676.331 120.616L676.539 120.548C678.101 120.051 679.502 119.422 680.7 118.68L680.913 118.548L680.752 118.355C678.565 115.752 675.695 113.882 672.45 112.947L672.242 113.315V113.317Z" fill="white"/>
<path d="M644.855 129.234C644.855 141.889 655.115 152.147 667.772 152.147C680.43 152.147 690.689 141.889 690.689 129.234C690.689 116.579 680.43 106.323 667.772 106.323C655.115 106.323 644.855 116.581 644.855 129.234ZM647.376 129.234C647.376 117.99 656.525 108.841 667.77 108.841C679.016 108.841 688.166 117.988 688.166 129.234C688.166 140.48 679.018 149.624 667.77 149.624C656.522 149.624 647.376 140.477 647.376 129.234Z" fill="url(#paint30_linear_1757_5726)"/>
<path d="M651.558 143.664L653.34 145.447L684.061 114.742L682.279 112.96L651.558 143.664Z" fill="url(#paint31_linear_1757_5726)"/>
<path d="M646.314 172.597C646.314 173.505 646.841 173.724 647.484 173.081L659.512 161.056H646.314V172.597Z" fill="#B5C8FF"/>
<path d="M433.998 129.787V72.1981C433.998 69.8795 432.118 68 429.799 68H357.535C355.216 68 353.336 69.8795 353.336 72.1981V129.787C353.336 132.106 355.216 133.985 357.535 133.985H429.799C432.118 133.985 433.998 132.103 433.998 129.785V129.787Z" fill="#B5C8FF"/>
<path d="M363.677 121.57L392.424 78.744C393.018 77.8591 394.319 77.8591 394.913 78.744L423.658 121.57C424.325 122.567 423.613 123.904 422.412 123.904H364.92C363.719 123.904 363.007 122.565 363.675 121.57H363.677Z" fill="url(#paint32_linear_1757_5726)"/>
<path d="M395.919 117.392C395.312 118.008 394.57 118.317 393.692 118.317C392.813 118.317 392.049 118.008 391.433 117.392C390.817 116.776 390.508 116.023 390.508 115.134C390.508 114.244 390.813 113.481 391.424 112.869C392.036 112.257 392.791 111.953 393.689 111.953C394.588 111.953 395.323 112.262 395.923 112.878C396.524 113.494 396.824 114.247 396.824 115.136C396.824 116.025 396.522 116.778 395.914 117.394L395.919 117.392ZM390.759 109.448V93.1082H396.578V109.448H390.759Z" fill="white"/>
<path d="M372.896 144.357C372.896 145.265 373.423 145.484 374.066 144.841L386.094 132.816H372.896V144.357Z" fill="#B5C8FF"/>
<path d="M148.658 333.715V276.126C148.658 273.808 150.538 271.928 152.857 271.928H225.121C227.44 271.928 229.32 273.808 229.32 276.126V333.717C229.32 336.036 227.44 337.915 225.121 337.915H152.857C150.538 337.915 148.658 336.034 148.658 333.715Z" fill="#B5C8FF"/>
<path d="M197.455 307.702C197.767 307.534 197.928 307.182 197.847 306.837C197.567 305.652 196.931 302.971 196.651 301.785C196.57 301.443 196.268 301.199 195.914 301.19L192.275 301.091C191.643 299.946 190.888 298.907 190.019 297.968L191.074 294.48C191.177 294.142 191.041 293.779 190.74 293.593C189.705 292.955 187.359 291.505 186.322 290.867C186.022 290.681 185.636 290.723 185.379 290.965L182.732 293.472C181.502 293.116 180.234 292.905 178.928 292.854L177.209 289.644C177.041 289.332 176.687 289.171 176.342 289.254L171.296 290.448C170.951 290.528 170.705 290.831 170.696 291.185C170.671 292.101 170.624 293.828 170.597 294.825C169.452 295.457 168.413 296.212 167.474 297.081L163.985 296.026C163.647 295.923 163.282 296.062 163.096 296.362L160.371 300.773C160.185 301.073 160.226 301.463 160.47 301.718C161.099 302.384 162.291 303.64 162.977 304.364C162.621 305.592 162.41 306.862 162.359 308.168L159.148 309.886C158.836 310.052 158.675 310.408 158.758 310.753L159.952 315.798C160.033 316.141 160.335 316.387 160.689 316.398C161.606 316.423 163.333 316.47 164.33 316.497C164.962 317.642 165.717 318.681 166.587 319.62L165.531 323.108C165.428 323.446 165.567 323.811 165.867 323.997L170.279 326.721C170.579 326.907 170.967 326.867 171.225 326.625C171.89 325.993 173.147 324.804 173.871 324.118C175.099 324.474 176.369 324.685 177.675 324.736L179.394 327.947C179.56 328.258 179.914 328.419 180.259 328.339C181.444 328.059 184.126 327.425 185.311 327.142C185.654 327.062 185.898 326.759 185.907 326.405L186.006 322.767C187.151 322.135 188.19 321.381 189.129 320.511L192.618 321.566C192.956 321.67 193.319 321.533 193.505 321.233C194.144 320.198 195.593 317.852 196.232 316.815C196.418 316.515 196.375 316.129 196.133 315.872L193.626 313.226C193.982 311.999 194.193 310.728 194.245 309.422L197.455 307.704V307.702Z" fill="url(#paint33_linear_1757_5726)"/>
<path d="M189.306 306.19C190.743 312.265 186.983 318.354 180.909 319.792C174.832 321.228 168.742 317.469 167.306 311.394C165.87 305.318 169.629 299.229 175.706 297.793C181.782 296.357 187.872 300.116 189.309 306.19H189.306Z" fill="white"/>
<path d="M186.775 306.788C187.882 311.465 184.987 316.154 180.308 317.261C175.63 318.368 170.94 315.473 169.834 310.796C168.727 306.118 171.622 301.429 176.3 300.323C180.978 299.216 185.668 302.11 186.775 306.788Z" fill="url(#paint34_linear_1757_5726)"/>
<path d="M218.965 293.385C219.171 293.275 219.276 293.042 219.223 292.816C219.039 292.034 218.689 290.567 218.506 289.785C218.452 289.558 218.253 289.397 218.019 289.39L215.983 289.334C215.49 288.378 214.862 287.524 214.13 286.776L214.721 284.82C214.789 284.596 214.699 284.357 214.502 284.236C213.818 283.815 212.534 283.022 211.851 282.6C211.654 282.477 211.399 282.506 211.228 282.665L209.745 284.07C208.748 283.75 207.701 283.573 206.626 283.559L205.665 281.763C205.555 281.556 205.32 281.451 205.093 281.505L202.066 282.222C201.84 282.276 201.677 282.475 201.67 282.708C201.656 283.216 201.634 284.081 201.616 284.744C200.659 285.237 199.806 285.864 199.057 286.597L197.101 286.005C196.877 285.938 196.637 286.03 196.514 286.227L194.881 288.873C194.758 289.072 194.784 289.328 194.946 289.496C195.298 289.865 195.896 290.497 196.353 290.979C196.032 291.976 195.855 293.022 195.842 294.097L194.045 295.058C193.839 295.168 193.734 295.403 193.787 295.629L194.504 298.656C194.558 298.882 194.758 299.046 194.991 299.052C195.499 299.066 196.364 299.088 197.027 299.106C197.52 300.063 198.148 300.916 198.88 301.664L198.289 303.62C198.222 303.844 198.311 304.084 198.511 304.207L201.159 305.842C201.358 305.966 201.614 305.939 201.782 305.778C202.152 305.426 202.783 304.828 203.265 304.371C204.262 304.691 205.309 304.868 206.384 304.881L207.345 306.678C207.455 306.884 207.688 306.989 207.914 306.936C208.696 306.752 210.164 306.403 210.946 306.219C211.172 306.165 211.334 305.966 211.34 305.733L211.396 303.696C212.353 303.204 213.207 302.576 213.955 301.844L215.911 302.435C216.135 302.502 216.375 302.413 216.496 302.216C216.917 301.532 217.71 300.249 218.132 299.565C218.255 299.366 218.226 299.113 218.067 298.943L216.662 297.46C216.982 296.463 217.159 295.417 217.173 294.341L218.969 293.38L218.965 293.385Z" fill="url(#paint35_linear_1757_5726)"/>
<path d="M208.111 301.019C204.362 301.906 200.592 299.577 199.704 295.829C198.817 292.081 201.145 288.311 204.896 287.423C208.644 286.536 212.415 288.864 213.302 292.612C214.19 296.36 211.862 300.13 208.113 301.017L208.111 301.019Z" fill="white"/>
<path d="M168.219 348.285C168.219 349.193 168.745 349.412 169.388 348.769L181.416 336.744H168.219V348.285Z" fill="#B5C8FF"/>
<path d="M682.566 334.524V276.935C682.566 274.616 684.446 272.737 686.765 272.737H759.029C761.348 272.737 763.228 274.616 763.228 276.935V334.526C763.228 336.845 761.348 338.724 759.029 338.724H686.765C684.446 338.724 682.566 336.842 682.566 334.524Z" fill="#B5C8FF"/>
<path d="M715.305 302.157C715.249 302.135 715.2 302.09 715.175 302.032C715.124 301.911 715.18 301.772 715.299 301.72L716.403 301.243C716.766 301.086 717.058 300.786 717.203 300.419L717.373 299.987C717.42 299.866 717.559 299.805 717.68 299.854C717.801 299.901 717.862 300.04 717.813 300.161L717.642 300.594C717.452 301.078 717.069 301.472 716.591 301.678L715.487 302.155C715.426 302.18 715.361 302.18 715.305 302.157Z" fill="url(#paint36_linear_1757_5726)"/>
<path d="M714.161 301.703C714.105 301.68 714.058 301.638 714.031 301.577L713.554 300.473C713.345 299.989 713.336 299.453 713.529 298.963L713.699 298.53C713.746 298.41 713.885 298.349 714.006 298.398C714.127 298.448 714.188 298.584 714.138 298.705L713.968 299.138C713.822 299.505 713.829 299.924 713.986 300.285L714.466 301.389C714.517 301.51 714.461 301.649 714.342 301.7C714.282 301.727 714.217 301.725 714.161 301.703Z" fill="url(#paint37_linear_1757_5726)"/>
<path d="M703.238 306.398L707.35 308.025C707.567 308.11 707.814 308.004 707.899 307.787C707.984 307.57 707.879 307.323 707.661 307.238L703.55 305.612C702.68 305.269 702.255 304.281 702.597 303.414L703.554 300.997C703.711 300.598 703.651 300.029 703.413 299.673L702.712 298.625C702.582 298.43 702.32 298.378 702.125 298.508C701.93 298.638 701.878 298.9 702.008 299.095L702.709 300.144C702.795 300.271 702.824 300.542 702.768 300.686L701.811 303.103C701.296 304.404 701.937 305.885 703.238 306.4V306.398Z" fill="white"/>
<path d="M701.271 312.855L705.383 314.483C705.6 314.568 705.708 314.815 705.62 315.032C705.533 315.249 705.289 315.357 705.071 315.269L700.96 313.641C700.09 313.298 699.105 313.724 698.762 314.591L697.243 318.424C697.086 318.822 696.651 319.194 696.234 319.291L695.004 319.575C694.776 319.629 694.549 319.486 694.496 319.259C694.442 319.031 694.585 318.804 694.812 318.751L696.042 318.466C696.19 318.433 696.398 318.253 696.454 318.11L697.973 314.277C698.488 312.975 699.969 312.335 701.271 312.85V312.855Z" fill="white"/>
<path d="M698.873 308.002L706.717 311.107C706.935 311.194 707.042 311.439 706.955 311.656C706.87 311.873 706.623 311.981 706.406 311.893L698.562 308.788C697.692 308.444 696.706 308.871 696.363 309.738L695.407 312.156C695.25 312.554 694.815 312.926 694.398 313.022L693.168 313.307C692.94 313.361 692.714 313.217 692.66 312.991C692.606 312.763 692.749 312.536 692.976 312.483L694.206 312.198C694.354 312.164 694.562 311.985 694.618 311.844L695.575 309.427C696.09 308.125 697.571 307.485 698.873 308V308.002Z" fill="white"/>
<path d="M720.057 313.056L715.946 311.427C715.728 311.342 715.621 311.096 715.708 310.879C715.796 310.661 716.04 310.554 716.257 310.641L720.369 312.27C721.238 312.613 722.224 312.187 722.567 311.32L723.523 308.903C723.68 308.504 724.115 308.132 724.532 308.036L725.762 307.751C725.99 307.698 726.217 307.841 726.27 308.067C726.324 308.293 726.181 308.522 725.954 308.576L724.724 308.86C724.576 308.894 724.368 309.073 724.312 309.216L723.355 311.634C722.84 312.935 721.359 313.576 720.057 313.061V313.056Z" fill="white"/>
<path d="M717.071 319.109L712.959 317.483C712.742 317.398 712.495 317.503 712.41 317.72C712.325 317.938 712.431 318.184 712.648 318.269L716.759 319.896C717.629 320.238 718.054 321.224 717.712 322.093L716.192 325.928C716.036 326.327 716.096 326.896 716.334 327.252L717.035 328.301C717.165 328.496 717.427 328.547 717.622 328.417C717.817 328.287 717.868 328.025 717.739 327.83L717.037 326.782C716.952 326.654 716.923 326.383 716.979 326.24L718.496 322.407C719.011 321.105 718.37 319.624 717.069 319.109H717.071Z" fill="white"/>
<path d="M722.142 317.214L714.297 314.109C714.08 314.022 713.833 314.129 713.748 314.346C713.663 314.564 713.768 314.81 713.986 314.895L721.83 318C722.699 318.343 723.125 319.331 722.782 320.198L721.826 322.615C721.669 323.014 721.729 323.583 721.967 323.939L722.668 324.987C722.798 325.182 723.06 325.234 723.255 325.104C723.45 324.974 723.502 324.712 723.372 324.517L722.67 323.469C722.585 323.341 722.556 323.07 722.612 322.929L723.569 320.512C724.084 319.21 723.443 317.729 722.142 317.214Z" fill="white"/>
<path d="M705.958 324.096C706.043 324.129 706.128 324.158 706.213 324.19L712.973 307.113L712.467 306.911L705.707 323.988C705.79 324.024 705.873 324.062 705.958 324.096Z" fill="white"/>
<path d="M715.917 301.566L714.12 300.856C713.155 300.475 712.052 300.952 711.671 301.916L710.656 304.483C710.464 304.971 710.704 305.529 711.192 305.722L714.721 307.117C715.209 307.31 715.767 307.068 715.96 306.582L716.977 304.015C717.358 303.049 716.881 301.947 715.917 301.566Z" fill="url(#paint38_linear_1757_5726)"/>
<path d="M717.87 314.855C718.964 312.095 717.597 308.943 714.839 307.852L712.975 307.115L706.215 324.192C706.293 324.219 706.372 324.248 706.45 324.275C710.25 325.487 714.431 323.549 715.919 319.788L717.87 314.859V314.855Z" fill="url(#paint39_linear_1757_5726)"/>
<path d="M701.644 314.134C700.154 317.895 701.873 322.169 705.474 323.885C705.55 323.921 705.626 323.953 705.702 323.986L712.466 306.911L710.602 306.172C707.842 305.079 704.689 306.443 703.596 309.203L701.642 314.131L701.644 314.134Z" fill="url(#paint40_linear_1757_5726)"/>
<path d="M714.982 304.736C714.925 304.714 714.876 304.669 714.852 304.611C714.8 304.49 714.854 304.351 714.975 304.299L715.804 303.941C716.209 303.766 716.657 303.759 717.065 303.921L718.024 304.299C718.549 304.508 719.142 304.25 719.351 303.726L720.319 301.284C720.46 300.93 720.729 300.652 721.078 300.5L721.739 300.215C721.86 300.164 721.999 300.218 722.051 300.339C722.102 300.46 722.046 300.598 721.927 300.65L721.269 300.934C721.036 301.035 720.854 301.221 720.76 301.459L719.792 303.9C719.49 304.667 718.618 305.043 717.852 304.741L716.893 304.362C716.601 304.245 716.281 304.252 715.994 304.375L715.165 304.734C715.105 304.761 715.04 304.758 714.984 304.736H714.982Z" fill="white"/>
<path d="M712.633 303.806C712.577 303.784 712.53 303.739 712.503 303.681L712.145 302.85C712.022 302.565 711.786 302.337 711.499 302.225L710.54 301.844C709.774 301.539 709.398 300.67 709.7 299.904L710.668 297.462C710.762 297.225 710.758 296.967 710.657 296.732L710.372 296.073C710.321 295.952 710.375 295.813 710.496 295.762C710.617 295.71 710.756 295.764 710.807 295.885L711.092 296.546C711.244 296.895 711.248 297.283 711.11 297.639L710.142 300.081C709.933 300.605 710.191 301.199 710.715 301.407L711.674 301.788C712.084 301.949 712.405 302.261 712.579 302.666L712.938 303.497C712.989 303.618 712.933 303.757 712.815 303.809C712.754 303.835 712.689 303.833 712.633 303.811V303.806Z" fill="white"/>
<path d="M714.726 307.112L711.195 305.714L710.96 306.307L714.491 307.705L714.726 307.112Z" fill="url(#paint41_linear_1757_5726)"/>
<path d="M729.315 303.356L730.666 304.931L730.324 305.224L728.972 303.649C728.65 303.273 728.081 303.228 727.702 303.553L725.036 305.838L724.742 305.498L727.408 303.21C727.973 302.726 728.827 302.791 729.313 303.356H729.315Z" fill="url(#paint42_linear_1757_5726)"/>
<path d="M725.086 305.291C725.275 305.511 725.387 305.786 725.405 306.08C725.411 306.203 725.317 306.311 725.194 306.317C725.071 306.324 724.963 306.23 724.956 306.107C724.943 305.872 724.838 305.654 724.661 305.497C724.484 305.341 724.255 305.262 724.02 305.276C723.785 305.289 723.567 305.394 723.41 305.571C723.254 305.748 723.175 305.977 723.189 306.212C723.195 306.338 723.101 306.443 722.978 306.45C722.855 306.456 722.747 306.362 722.74 306.239C722.72 305.883 722.839 305.54 723.074 305.273C723.312 305.007 723.639 304.848 723.995 304.828C724.351 304.807 724.694 304.926 724.961 305.164C725.008 305.204 725.051 305.249 725.089 305.296L725.086 305.291Z" fill="url(#paint43_linear_1757_5726)"/>
<path d="M731.601 306.024L730.25 304.449L729.91 304.743L731.261 306.318C731.583 306.694 731.541 307.263 731.164 307.588L728.498 309.873L728.792 310.216L731.458 307.931C732.023 307.447 732.087 306.591 731.603 306.026L731.601 306.024Z" fill="url(#paint44_linear_1757_5726)"/>
<path d="M729.045 309.906C728.857 309.687 728.601 309.535 728.314 309.472C728.193 309.445 728.072 309.523 728.048 309.644C728.021 309.765 728.099 309.886 728.22 309.911C728.451 309.96 728.651 310.097 728.778 310.296C728.906 310.496 728.951 310.733 728.899 310.964C728.85 311.195 728.713 311.394 728.514 311.522C728.314 311.649 728.077 311.694 727.846 311.643C727.725 311.616 727.604 311.694 727.58 311.815C727.553 311.936 727.631 312.057 727.752 312.082C728.102 312.156 728.458 312.091 728.758 311.898C729.058 311.705 729.264 311.405 729.341 311.056C729.417 310.706 729.352 310.35 729.157 310.05C729.123 309.998 729.087 309.949 729.047 309.902L729.045 309.906Z" fill="url(#paint45_linear_1757_5726)"/>
<path d="M731.765 287.063C731.911 287.231 731.89 287.486 731.722 287.632L729.39 289.633C728.236 290.623 728.102 292.368 729.092 293.524L731.631 296.483C731.776 296.651 731.756 296.907 731.588 297.052C731.42 297.198 731.164 297.178 731.021 297.01L728.48 294.05C727.201 292.558 727.373 290.302 728.866 289.023L731.196 287.025C731.364 286.879 731.619 286.9 731.765 287.068V287.063Z" fill="white"/>
<path d="M738.733 283.111C738.879 283.279 738.859 283.535 738.691 283.68L737.306 284.868C736.15 285.858 736.018 287.603 737.008 288.759L739.549 291.718C739.694 291.886 739.674 292.142 739.504 292.285C739.336 292.431 739.08 292.41 738.937 292.242L736.396 289.283C735.117 287.791 735.289 285.535 736.782 284.256L738.166 283.069C738.334 282.923 738.59 282.943 738.733 283.111Z" fill="white"/>
<path d="M748.08 306.08C747.934 305.912 747.681 305.892 747.511 306.037L745.181 308.036C744.027 309.026 742.281 308.894 741.289 307.738L738.748 304.778C738.602 304.61 738.349 304.59 738.181 304.736C738.013 304.882 737.993 305.135 738.139 305.305L740.677 308.264C741.956 309.756 744.213 309.929 745.705 308.65L748.035 306.649C748.203 306.503 748.223 306.25 748.078 306.08H748.08Z" fill="white"/>
<path d="M753.047 299.794C752.901 299.626 752.648 299.606 752.478 299.752L751.093 300.939C749.939 301.929 748.194 301.797 747.201 300.641L744.662 297.682C744.517 297.514 744.263 297.493 744.093 297.639C743.925 297.782 743.905 298.038 744.051 298.206L746.592 301.165C747.871 302.657 750.127 302.83 751.619 301.55L753.004 300.363C753.172 300.217 753.192 299.964 753.047 299.794Z" fill="white"/>
<path d="M730.435 297.256L733.175 300.448C733.321 300.616 733.301 300.872 733.133 301.017C732.965 301.163 732.709 301.143 732.564 300.975L729.823 297.782C729.245 297.108 728.226 297.03 727.551 297.608L725.674 299.218C725.364 299.485 724.833 299.606 724.439 299.503L723.278 299.198C723.063 299.142 722.936 298.92 722.992 298.705C723.048 298.49 723.267 298.36 723.482 298.419L724.643 298.723C724.784 298.759 725.037 298.701 725.147 298.607L727.025 296.996C728.038 296.129 729.566 296.246 730.435 297.256Z" fill="white"/>
<path d="M737.805 305.843L735.064 302.65C734.919 302.482 734.666 302.462 734.498 302.608C734.329 302.753 734.309 303.007 734.455 303.177L737.193 306.369C737.771 307.043 737.695 308.063 737.018 308.641L735.141 310.251C734.831 310.516 734.63 311.022 734.672 311.427L734.798 312.621C734.82 312.843 735.02 313.005 735.241 312.98C735.463 312.958 735.622 312.758 735.6 312.536L735.474 311.342C735.459 311.199 735.555 310.955 735.665 310.861L737.542 309.25C738.555 308.383 738.672 306.853 737.802 305.843H737.805Z" fill="white"/>
<path d="M730.153 295.995L739.007 306.313C739.187 306.524 739.507 306.548 739.718 306.367L747.062 300.067C750.112 297.453 750.466 292.82 747.851 289.771C745.236 286.723 740.603 286.369 737.553 288.983L730.209 295.282C729.998 295.464 729.973 295.782 730.155 295.993L730.153 295.995Z" fill="url(#paint46_linear_1757_5726)"/>
<path d="M747.851 289.771C747.795 289.704 747.735 289.641 747.676 289.579L734.412 300.957L734.75 301.351L748.015 289.973C747.961 289.906 747.907 289.838 747.851 289.771Z" fill="white"/>
<path d="M729.487 304.34L730.656 305.704C731.378 306.544 732.657 306.642 733.498 305.921L735.633 304.089C735.843 303.907 735.868 303.589 735.687 303.378L732.55 299.722C732.368 299.512 732.05 299.487 731.839 299.669L729.704 301.501C728.864 302.223 728.765 303.499 729.487 304.342V304.34Z" fill="url(#paint47_linear_1757_5726)"/>
<path d="M743.668 349.094C743.668 350.002 743.141 350.221 742.498 349.578L730.471 337.553H743.668V349.094Z" fill="#EFC7CA"/>
<path d="M299.312 195.022C302.827 190.474 317.647 173.769 316.69 162.72C315.368 147.494 309.126 146.206 306.267 147.187C297.824 150.09 288.05 179.13 286.968 190.725L287.015 190.73C286.101 198.882 293.426 202.639 299.312 195.022Z" fill="url(#paint48_linear_1757_5726)"/>
<path d="M357.822 192.573C353.48 188.805 335.66 175.346 334.423 164.324C332.721 149.136 338.586 146.643 341.582 147.044C350.432 148.226 365.734 174.775 369.079 185.931L369.034 185.945C371.534 193.758 365.095 198.882 357.824 192.573H357.822Z" fill="url(#paint49_linear_1757_5726)"/>
<path d="M351.515 216.703C353.527 226.114 354.813 238.536 338.107 239.743H317.312L312.9 220.632L319.622 210.972L342.938 207.193C342.938 207.193 350.948 214.059 351.513 216.705L351.515 216.703Z" fill="url(#paint50_linear_1757_5726)"/>
<path d="M303.74 153.311C303.74 153.311 299.913 183.677 299.812 199.224C299.723 214.778 298.62 220.081 305.304 220.816C311.97 221.537 345.536 221.96 349.141 217.505C352.744 213.058 348.944 199.897 347.779 187.537C346.663 175.803 348.675 153.392 343.365 148.155C338.055 142.89 308.367 137.352 303.742 153.309L303.74 153.311Z" fill="#BFD2ED"/>
<path d="M314.491 143.748C309.694 145.052 304.088 146.873 303.784 149.434C303.488 151.9 299.603 183.823 299.305 199.222C299.143 207.533 294.174 221.203 300.432 221.891C302.155 222.079 310.732 221.689 315.69 221.752C316.264 214.337 317.783 192.869 317.669 174.959C317.545 155.87 315.161 146.129 314.494 143.748H314.491Z" fill="url(#paint51_linear_1757_5726)"/>
<path d="M349.723 198.288C349.293 194.737 348.616 191.097 348.278 187.492C347.942 183.969 347.89 179.493 347.836 174.752C347.704 163.37 347.395 156.914 346.528 150.87C346.046 147.503 338.715 145.283 334.482 144.207C333.687 147.198 331.543 156.806 331.426 174.961C331.312 192.587 332.782 213.622 333.373 221.353C340.709 220.876 350.254 220.612 351.917 218.555C354.603 215.237 351.22 210.672 349.721 198.29L349.723 198.288Z" fill="url(#paint52_linear_1757_5726)"/>
<path d="M304.519 321.93C300.914 321.405 302.413 309.416 305.274 304.521C306.605 302.245 314.949 305.905 314.046 308.004C310.376 316.535 307.73 322.396 304.519 321.93Z" fill="#04163F"/>
<path d="M307.051 299.22C307.051 299.22 306.011 304.393 305.532 306.647C305.364 307.429 305.402 308.676 307.783 308.925C309.271 309.08 309.986 308.107 310.239 307.435C310.842 305.843 312.363 301.665 312.363 301.665L307.053 299.22H307.051Z" fill="#FFD1AE"/>
<path d="M337.174 242.304L312.966 303.065L306.09 300.466C306.09 300.466 311.806 237.46 311.911 233.957C312.007 230.749 314.425 212.838 326.493 217.596C336.28 221.456 341.068 232.53 337.174 242.301V242.304Z" fill="url(#paint53_linear_1757_5726)"/>
<path d="M324.162 205.506C318.785 205.038 313.477 209.507 307.476 212.628C301.476 215.748 298.55 219.245 298.303 221.62C298.057 223.995 300.268 239.237 308.393 239.237H324.751C330.812 239.237 335.854 206.525 324.162 205.506Z" fill="url(#paint54_linear_1757_5726)"/>
<path d="M322.555 204.541C321.319 203.492 307.431 195.681 299.856 190.143C292.778 185.304 284.447 191.417 288.202 196.828L288.167 196.859C288.713 197.52 289.231 198.102 289.695 198.546C293.479 202.152 313.68 209.523 319.911 211.606C321.699 212.204 324.827 206.472 322.553 204.541H322.555Z" fill="url(#paint55_linear_1757_5726)"/>
<path d="M390.13 167.266C388.622 167.862 372.992 177.866 364.536 181.932C356.929 185.891 358.392 196.117 364.935 195.358L364.943 195.405C365.784 195.237 366.541 195.056 367.153 194.854C372.12 193.219 390.336 177.439 395.113 172.929C396.484 171.634 392.902 166.173 390.128 167.268L390.13 167.266Z" fill="url(#paint56_linear_1757_5726)"/>
<path d="M397.379 175.59H388.367C387.724 175.59 387.222 175.033 387.287 174.394L388.876 159.111C388.934 158.558 389.4 158.139 389.955 158.139H398.967C399.61 158.139 400.112 158.697 400.047 159.335L398.459 174.618C398.4 175.171 397.934 175.59 397.379 175.59Z" fill="#085296"/>
<path d="M344.426 211.931H302.764C301.816 211.931 301.021 211.214 300.922 210.271L297.53 177.633C297.415 176.542 298.274 175.59 299.372 175.59H347.816C348.913 175.59 349.772 176.54 349.657 177.633L346.265 210.271C346.167 211.214 345.371 211.931 344.423 211.931H344.426Z" fill="#A1C9F4"/>
<path d="M359.254 301.705C357.968 297.552 351.634 292.426 346.371 291.373C343.922 290.883 341.33 299.109 343.42 299.68C357.478 303.522 360.361 305.285 359.254 301.705Z" fill="#04163F"/>
<path d="M346.874 285.925L349.15 293.156C349.15 293.156 349.177 294.2 346.834 294.691C345.37 294.998 344.55 294.426 344.55 294.426L341.844 288.904L346.874 285.925Z" fill="#FFD1AE"/>
<path d="M311.051 232.411L341.386 290.358L347.96 287.067C347.96 287.067 335.789 224.987 335.323 221.51C334.897 218.329 330.647 200.764 319.135 206.738C309.798 211.584 306.175 223.094 311.053 232.413L311.051 232.411Z" fill="url(#paint57_linear_1757_5726)"/>
<path d="M327.043 111.117C327.043 111.117 334.078 111.785 336.088 118.232C338.094 124.659 339.261 127.791 338.763 128.862C338.28 129.949 336.548 129.888 336.548 129.888C336.548 129.888 335.638 137.404 332.349 137.955C329.075 138.515 328.432 137.404 328.432 143.912C328.432 148.464 318.867 144.447 318.867 144.447L320.171 134.734C320.171 134.734 312.905 125.656 314.016 118.156C315.143 110.66 324.881 110.336 327.041 111.117H327.043Z" fill="#FFD1AE"/>
<path d="M323.779 121.14C323.779 121.14 321.401 118.669 319.533 119.841C317.655 121.012 321.392 124.547 321.798 125.746C322.206 126.947 321.224 132.641 320.353 134.846C316.633 133.192 311.83 130.692 309.213 125.081C307.263 120.9 306.743 116.18 311.128 114.372C310.575 111.079 313.683 109.271 316.201 108.178C322.226 105.559 326.898 106.014 330.57 106.366C334.937 106.783 342.918 111.178 337.729 123.438C336.781 121.498 336.29 119.099 335.864 117.712C333.465 120.929 329.38 122.305 323.779 121.142V121.14Z" fill="url(#paint58_linear_1757_5726)"/>
<path d="M323.413 144.676L324.034 147.586C324.034 147.586 320.207 146.647 318.818 145.079C317.429 143.511 317.361 143.172 317.361 143.172L319.909 140.294C319.909 140.294 320.828 142.464 323.415 144.678L323.413 144.676Z" fill="#78A1DA"/>
<path d="M324.654 144.676L324.033 147.586C324.033 147.586 327.86 146.647 329.249 145.079C330.638 143.511 330.706 143.172 330.706 143.172L328.158 140.294C328.158 140.294 327.24 142.464 324.652 144.678L324.654 144.676Z" fill="#78A1DA"/>
<path d="M319.557 175.59H329.472L324.925 149.526C325.759 148.459 326.169 146.804 326.073 146.421C326.034 146.268 325.347 144.808 324.652 144.676C324.276 144.604 323.888 144.687 323.413 144.676C322.387 144.651 321.86 146.136 321.854 146.45C321.833 147.4 322.857 148.614 323.409 149.526C321.506 160.85 320.272 171.155 319.555 175.59H319.557Z" fill="#001571"/>
<path d="M332.671 143.529C332.671 143.529 330.034 141.129 328.161 140.292C326.991 142.494 324.654 144.676 324.654 144.676L329.18 148.186L332.671 143.529Z" fill="#A2BEE5"/>
<path d="M315.395 143.529C315.395 143.529 318.034 141.129 319.905 140.292C321.074 142.494 323.411 144.676 323.411 144.676L318.885 148.186L315.395 143.529Z" fill="#A2BEE5"/>
<path d="M400.093 172.353C401.464 170.33 402.835 163.95 400.389 162.976C398.643 162.281 397.83 162.366 396.539 163.782C395.251 165.196 393.284 173.126 396.387 173.354C398.964 173.547 399.524 173.191 400.093 172.353Z" fill="#FFD1AE"/>
</g>
<defs>
<linearGradient id="paint0_linear_1757_5726" x1="361.651" y1="314.267" x2="237.504" y2="314.267" gradientUnits="userSpaceOnUse">
<stop stop-color="#2058FF"/>
<stop offset="1" stop-color="#004BC2"/>
</linearGradient>
<linearGradient id="paint1_linear_1757_5726" x1="497.805" y1="311.343" x2="379.352" y2="311.343" gradientUnits="userSpaceOnUse">
<stop stop-color="#2058FF"/>
<stop offset="1" stop-color="#004BC2"/>
</linearGradient>
<linearGradient id="paint2_linear_1757_5726" x1="641.762" y1="314.267" x2="517.615" y2="314.267" gradientUnits="userSpaceOnUse">
<stop stop-color="#2058FF"/>
<stop offset="1" stop-color="#004BC2"/>
</linearGradient>
<linearGradient id="paint3_linear_1757_5726" x1="151.851" y1="343.758" x2="151.851" y2="421.925" gradientUnits="userSpaceOnUse">
<stop stop-color="#16417F"/>
<stop offset="1" stop-color="#00276E"/>
</linearGradient>
<linearGradient id="paint4_linear_1757_5726" x1="154.513" y1="511.177" x2="154.338" y2="557.776" gradientUnits="userSpaceOnUse">
<stop stop-color="#16417F"/>
<stop offset="1" stop-color="#00276E"/>
</linearGradient>
<linearGradient id="paint5_linear_1757_5726" x1="145.29" y1="511.144" x2="145.115" y2="557.74" gradientUnits="userSpaceOnUse">
<stop stop-color="#16417F"/>
<stop offset="1" stop-color="#00276E"/>
</linearGradient>
<linearGradient id="paint6_linear_1757_5726" x1="128.692" y1="467.017" x2="109.966" y2="530.839" gradientUnits="userSpaceOnUse">
<stop stop-color="#16417F"/>
<stop offset="1" stop-color="#00276E"/>
</linearGradient>
<linearGradient id="paint7_linear_1757_5726" x1="130.808" y1="468.519" x2="107.688" y2="530.887" gradientUnits="userSpaceOnUse">
<stop stop-color="#16417F"/>
<stop offset="1" stop-color="#00276E"/>
</linearGradient>
<linearGradient id="paint8_linear_1757_5726" x1="138.873" y1="398.166" x2="137.474" y2="457.726" gradientUnits="userSpaceOnUse">
<stop stop-color="#7EA4DB"/>
<stop offset="1" stop-color="#5F8ED2"/>
</linearGradient>
<linearGradient id="paint9_linear_1757_5726" x1="143.682" y1="343.758" x2="143.682" y2="421.925" gradientUnits="userSpaceOnUse">
<stop stop-color="#16417F"/>
<stop offset="1" stop-color="#00276E"/>
</linearGradient>
<linearGradient id="paint10_linear_1757_5726" x1="592.031" y1="132.338" x2="590.019" y2="195.135" gradientUnits="userSpaceOnUse">
<stop stop-color="#E06C6C"/>
<stop offset="1" stop-color="#D94848"/>
</linearGradient>
<linearGradient id="paint11_linear_1757_5726" x1="623.191" y1="187.833" x2="584.656" y2="187.833" gradientUnits="userSpaceOnUse">
<stop stop-color="#2058FF"/>
<stop offset="1" stop-color="#004BC2"/>
</linearGradient>
<linearGradient id="paint12_linear_1757_5726" x1="614.396" y1="286.716" x2="614.396" y2="242.92" gradientUnits="userSpaceOnUse">
<stop stop-color="#16417F"/>
<stop offset="1" stop-color="#00276E"/>
</linearGradient>
<linearGradient id="paint13_linear_1757_5726" x1="624.155" y1="269.784" x2="602.213" y2="211.406" gradientUnits="userSpaceOnUse">
<stop stop-color="#16417F"/>
<stop offset="1" stop-color="#00276E"/>
</linearGradient>
<linearGradient id="paint14_linear_1757_5726" x1="606.14" y1="103.102" x2="606.14" y2="134.975" gradientUnits="userSpaceOnUse">
<stop stop-color="#16417F"/>
<stop offset="1" stop-color="#00276E"/>
</linearGradient>
<linearGradient id="paint15_linear_1757_5726" x1="732.195" y1="370.667" x2="714.92" y2="370.667" gradientUnits="userSpaceOnUse">
<stop stop-color="#2058FF"/>
<stop offset="1" stop-color="#004BC2"/>
</linearGradient>
<linearGradient id="paint16_linear_1757_5726" x1="793.539" y1="455.878" x2="790.97" y2="496.284" gradientUnits="userSpaceOnUse">
<stop stop-color="#16417F"/>
<stop offset="1" stop-color="#00276E"/>
</linearGradient>
<linearGradient id="paint17_linear_1757_5726" x1="786.974" y1="455.459" x2="784.405" y2="495.868" gradientUnits="userSpaceOnUse">
<stop stop-color="#16417F"/>
<stop offset="1" stop-color="#00276E"/>
</linearGradient>
<linearGradient id="paint18_linear_1757_5726" x1="741.846" y1="555.728" x2="736.009" y2="585.391" gradientUnits="userSpaceOnUse">
<stop stop-color="#16417F"/>
<stop offset="1" stop-color="#00276E"/>
</linearGradient>
<linearGradient id="paint19_linear_1757_5726" x1="744.371" y1="556.223" x2="738.532" y2="585.888" gradientUnits="userSpaceOnUse">
<stop stop-color="#16417F"/>
<stop offset="1" stop-color="#00276E"/>
</linearGradient>
<linearGradient id="paint20_linear_1757_5726" x1="834.983" y1="401.519" x2="797.967" y2="409.516" gradientUnits="userSpaceOnUse">
<stop stop-color="#7EA4DB"/>
<stop offset="1" stop-color="#5F8ED2"/>
</linearGradient>
<linearGradient id="paint21_linear_1757_5726" x1="801.406" y1="393.024" x2="829.106" y2="418.614" gradientUnits="userSpaceOnUse">
<stop stop-color="#7EA4DB"/>
<stop offset="1" stop-color="#5F8ED2"/>
</linearGradient>
<linearGradient id="paint22_linear_1757_5726" x1="799.555" y1="404.927" x2="754.523" y2="404.927" gradientUnits="userSpaceOnUse">
<stop stop-color="#2058FF"/>
<stop offset="1" stop-color="#004BC2"/>
</linearGradient>
<linearGradient id="paint23_linear_1757_5726" x1="781.912" y1="344.266" x2="813.907" y2="429.057" gradientUnits="userSpaceOnUse">
<stop stop-color="#16417F"/>
<stop offset="1" stop-color="#00276E"/>
</linearGradient>
<linearGradient id="paint24_linear_1757_5726" x1="764.659" y1="397.768" x2="738.178" y2="397.768" gradientUnits="userSpaceOnUse">
<stop stop-color="#2058FF"/>
<stop offset="1" stop-color="#004BC2"/>
</linearGradient>
<linearGradient id="paint25_linear_1757_5726" x1="748.223" y1="399.436" x2="716.17" y2="399.436" gradientUnits="userSpaceOnUse">
<stop stop-color="#2058FF"/>
<stop offset="1" stop-color="#004BC2"/>
</linearGradient>
<linearGradient id="paint26_linear_1757_5726" x1="602.239" y1="185.57" x2="567.041" y2="185.57" gradientUnits="userSpaceOnUse">
<stop stop-color="#2058FF"/>
<stop offset="1" stop-color="#004BC2"/>
</linearGradient>
<linearGradient id="paint27_linear_1757_5726" x1="604.409" y1="167.809" x2="581.938" y2="167.809" gradientUnits="userSpaceOnUse">
<stop stop-color="#2058FF"/>
<stop offset="1" stop-color="#004BC2"/>
</linearGradient>
<linearGradient id="paint28_linear_1757_5726" x1="629.135" y1="192.578" x2="591.176" y2="192.578" gradientUnits="userSpaceOnUse">
<stop stop-color="#2058FF"/>
<stop offset="1" stop-color="#004BC2"/>
</linearGradient>
<linearGradient id="paint29_linear_1757_5726" x1="589.867" y1="139.189" x2="603.743" y2="139.189" gradientUnits="userSpaceOnUse">
<stop stop-color="#16417F"/>
<stop offset="1" stop-color="#00276E"/>
</linearGradient>
<linearGradient id="paint30_linear_1757_5726" x1="690.689" y1="129.235" x2="644.855" y2="129.235" gradientUnits="userSpaceOnUse">
<stop stop-color="#2058FF"/>
<stop offset="1" stop-color="#004BC2"/>
</linearGradient>
<linearGradient id="paint31_linear_1757_5726" x1="666.918" y1="128.312" x2="668.7" y2="130.095" gradientUnits="userSpaceOnUse">
<stop stop-color="#2058FF"/>
<stop offset="1" stop-color="#004BC2"/>
</linearGradient>
<linearGradient id="paint32_linear_1757_5726" x1="423.914" y1="100.992" x2="363.418" y2="100.992" gradientUnits="userSpaceOnUse">
<stop stop-color="#2058FF"/>
<stop offset="1" stop-color="#004BC2"/>
</linearGradient>
<linearGradient id="paint33_linear_1757_5726" x1="197.868" y1="308.796" x2="158.736" y2="308.796" gradientUnits="userSpaceOnUse">
<stop stop-color="#2058FF"/>
<stop offset="1" stop-color="#004BC2"/>
</linearGradient>
<linearGradient id="paint34_linear_1757_5726" x1="187.011" y1="308.792" x2="169.598" y2="308.792" gradientUnits="userSpaceOnUse">
<stop stop-color="#2058FF"/>
<stop offset="1" stop-color="#004BC2"/>
</linearGradient>
<linearGradient id="paint35_linear_1757_5726" x1="219.237" y1="294.22" x2="193.773" y2="294.22" gradientUnits="userSpaceOnUse">
<stop stop-color="#2058FF"/>
<stop offset="1" stop-color="#004BC2"/>
</linearGradient>
<linearGradient id="paint36_linear_1757_5726" x1="717.83" y1="301.005" x2="715.156" y2="301.005" gradientUnits="userSpaceOnUse">
<stop stop-color="#2058FF"/>
<stop offset="1" stop-color="#004BC2"/>
</linearGradient>
<linearGradient id="paint37_linear_1757_5726" x1="714.485" y1="300.051" x2="713.391" y2="300.051" gradientUnits="userSpaceOnUse">
<stop stop-color="#2058FF"/>
<stop offset="1" stop-color="#004BC2"/>
</linearGradient>
<linearGradient id="paint38_linear_1757_5726" x1="717.108" y1="303.954" x2="710.59" y2="303.954" gradientUnits="userSpaceOnUse">
<stop stop-color="#2058FF"/>
<stop offset="1" stop-color="#004BC2"/>
</linearGradient>
<linearGradient id="paint39_linear_1757_5726" x1="718.248" y1="315.875" x2="706.215" y2="315.875" gradientUnits="userSpaceOnUse">
<stop stop-color="#2058FF"/>
<stop offset="1" stop-color="#004BC2"/>
</linearGradient>
<linearGradient id="paint40_linear_1757_5726" x1="712.466" y1="314.89" x2="701.107" y2="314.89" gradientUnits="userSpaceOnUse">
<stop stop-color="#2058FF"/>
<stop offset="1" stop-color="#004BC2"/>
</linearGradient>
<linearGradient id="paint41_linear_1757_5726" x1="714.609" y1="307.408" x2="711.078" y2="306.01" gradientUnits="userSpaceOnUse">
<stop stop-color="#2058FF"/>
<stop offset="1" stop-color="#004BC2"/>
</linearGradient>
<linearGradient id="paint42_linear_1757_5726" x1="730.666" y1="304.362" x2="724.742" y2="304.362" gradientUnits="userSpaceOnUse">
<stop stop-color="#2058FF"/>
<stop offset="1" stop-color="#004BC2"/>
</linearGradient>
<linearGradient id="paint43_linear_1757_5726" x1="725.405" y1="305.638" x2="722.738" y2="305.638" gradientUnits="userSpaceOnUse">
<stop stop-color="#2058FF"/>
<stop offset="1" stop-color="#004BC2"/>
</linearGradient>
<linearGradient id="paint44_linear_1757_5726" x1="731.928" y1="307.332" x2="728.498" y2="307.332" gradientUnits="userSpaceOnUse">
<stop stop-color="#2058FF"/>
<stop offset="1" stop-color="#004BC2"/>
</linearGradient>
<linearGradient id="paint45_linear_1757_5726" x1="729.372" y1="310.789" x2="727.574" y2="310.789" gradientUnits="userSpaceOnUse">
<stop stop-color="#2058FF"/>
<stop offset="1" stop-color="#004BC2"/>
</linearGradient>
<linearGradient id="paint46_linear_1757_5726" x1="749.602" y1="296.86" x2="730.033" y2="296.86" gradientUnits="userSpaceOnUse">
<stop stop-color="#2058FF"/>
<stop offset="1" stop-color="#004BC2"/>
</linearGradient>
<linearGradient id="paint47_linear_1757_5726" x1="735.808" y1="302.976" x2="729.004" y2="302.976" gradientUnits="userSpaceOnUse">
<stop stop-color="#2058FF"/>
<stop offset="1" stop-color="#004BC2"/>
</linearGradient>
<linearGradient id="paint48_linear_1757_5726" x1="316.734" y1="173.049" x2="286.938" y2="173.049" gradientUnits="userSpaceOnUse">
<stop stop-color="#2058FF"/>
<stop offset="1" stop-color="#004BC2"/>
</linearGradient>
<linearGradient id="paint49_linear_1757_5726" x1="369.583" y1="171.205" x2="334.119" y2="171.205" gradientUnits="userSpaceOnUse">
<stop stop-color="#2058FF"/>
<stop offset="1" stop-color="#004BC2"/>
</linearGradient>
<linearGradient id="paint50_linear_1757_5726" x1="317.599" y1="299.261" x2="320.493" y2="284.943" gradientUnits="userSpaceOnUse">
<stop stop-color="#7EA4DB"/>
<stop offset="1" stop-color="#5F8ED2"/>
</linearGradient>
<linearGradient id="paint51_linear_1757_5726" x1="317.675" y1="182.845" x2="297.281" y2="182.845" gradientUnits="userSpaceOnUse">
<stop stop-color="#2058FF"/>
<stop offset="1" stop-color="#004BC2"/>
</linearGradient>
<linearGradient id="paint52_linear_1757_5726" x1="352.922" y1="182.78" x2="331.42" y2="182.78" gradientUnits="userSpaceOnUse">
<stop stop-color="#2058FF"/>
<stop offset="1" stop-color="#004BC2"/>
</linearGradient>
<linearGradient id="paint53_linear_1757_5726" x1="312.395" y1="298.208" x2="315.289" y2="283.891" gradientUnits="userSpaceOnUse">
<stop stop-color="#7EA4DB"/>
<stop offset="1" stop-color="#5F8ED2"/>
</linearGradient>
<linearGradient id="paint54_linear_1757_5726" x1="333.655" y1="256.814" x2="322.798" y2="235.978" gradientUnits="userSpaceOnUse">
<stop stop-color="#7EA4DB"/>
<stop offset="1" stop-color="#5F8ED2"/>
</linearGradient>
<linearGradient id="paint55_linear_1757_5726" x1="323.351" y1="200.017" x2="287.27" y2="200.017" gradientUnits="userSpaceOnUse">
<stop stop-color="#2058FF"/>
<stop offset="1" stop-color="#004BC2"/>
</linearGradient>
<linearGradient id="paint56_linear_1757_5726" x1="395.415" y1="181.264" x2="359.406" y2="181.264" gradientUnits="userSpaceOnUse">
<stop stop-color="#2058FF"/>
<stop offset="1" stop-color="#004BC2"/>
</linearGradient>
<linearGradient id="paint57_linear_1757_5726" x1="338.361" y1="254.36" x2="327.504" y2="233.527" gradientUnits="userSpaceOnUse">
<stop stop-color="#7EA4DB"/>
<stop offset="1" stop-color="#5F8ED2"/>
</linearGradient>
<linearGradient id="paint58_linear_1757_5726" x1="339.423" y1="120.47" x2="307.766" y2="120.47" gradientUnits="userSpaceOnUse">
<stop stop-color="#2058FF"/>
<stop offset="1" stop-color="#004BC2"/>
</linearGradient>
<clipPath id="clip0_1757_5726">
<rect width="771" height="500" fill="white" transform="translate(67 68)"/>
</clipPath>
</defs>
</svg>
