<svg width="564" height="410" viewBox="0 0 564 410" fill="none" xmlns="http://www.w3.org/2000/svg">
<path d="M47.6373 408.173H514.177C523.301 393.786 528.267 376.767 527.017 357.74C525.801 339.238 519.282 322.503 509.627 307.367C492.639 280.735 465.944 259.049 441.358 241.384C427.906 231.719 410.366 209.281 430.081 204.402C575.304 168.465 506.485 95.193 497.024 82.0053C472.882 48.3578 420.273 70.1129 376.379 70.1129C329.635 70.1129 309.444 -10.5379 236.427 1.15968C147.086 15.4729 190.467 134.468 151.741 185.073C139.224 201.431 20.7366 252.516 30.0875 361.717C31.4809 377.957 37.3976 394.173 47.6373 408.173Z" fill="#D9E2FF"/>
<path d="M103.909 359.331C103.909 359.331 117.708 360.852 125.795 373.209L124.135 374.386C124.135 374.386 113.383 362.998 104.816 361.084C96.2482 359.17 103.909 359.331 103.909 359.331Z" fill="#82B378"/>
<path opacity="0.5" d="M103.139 139.656C103.139 139.656 102.066 165.102 97.3456 164.611C92.6224 164.119 100.584 136.345 100.584 136.345C100.584 136.345 80.4566 120.184 71.365 118.98C71.365 118.98 79.8914 146.051 75.4357 144.41C70.98 142.772 60.7991 115.013 60.7991 115.013C60.7991 115.013 38.567 105.316 31.6404 118.216C24.7139 131.116 29.1396 139.4 32.3803 141.06C35.6211 142.72 57.774 147.56 56.5345 150.296C55.295 153.032 39.3151 154.157 31.5968 149.644C31.5968 149.644 35.5119 174.434 47.8251 176.083C60.1384 177.732 65.5988 171.141 73.1888 172.299C80.7787 173.457 85.7614 176.73 81.5678 177.871C77.3742 179.013 65.0664 174.732 57.8532 178.456C50.6399 182.177 45.0321 184.2 55.6854 189.093C66.3386 193.985 86.7497 197.212 92.7616 189.54C93.0237 189.207 93.2749 188.888 93.5124 188.582C93.1056 189.237 92.7616 189.54 92.7616 189.54C94.5472 191.222 96.3082 197.682 97.433 202.586C97.564 203.405 97.807 204.557 98.2002 206.132C98.3449 206.837 98.4568 207.413 98.5333 207.811C100.185 218.593 94.1404 235.144 94.1404 235.144L96.3819 236.339C105.665 220.398 99.6527 204.136 99.6527 204.136C96.2262 191.553 98.779 181.866 98.779 181.866C98.779 181.866 123.089 174.814 116.845 156.136C116.845 156.136 111.144 144.232 103.139 139.654V139.656Z" fill="#AEC3FF"/>
<path opacity="0.5" d="M491.654 274.352C491.654 274.352 455.637 288.675 458.717 295.214C461.796 301.75 497.698 276.359 497.698 276.359C497.698 276.359 531.026 297.155 537.325 309.61C537.325 309.61 494.155 310.962 498.747 316.539C503.339 322.117 548.33 322.797 548.33 322.797C548.33 322.797 573.432 349.867 558.375 366.298C543.32 382.728 529.2 380.533 525.186 376.708C521.173 372.886 503.088 343.492 499.784 346.648C496.478 349.805 502.889 373.325 513.25 382.147C513.25 382.147 475.668 388.975 467.112 372.113C458.555 355.254 465.283 344.098 459.806 333.775C454.329 323.452 447.124 317.937 447.591 324.539C448.058 331.138 460.39 346.667 458.667 358.899C456.945 371.13 456.855 380.203 444.476 367.357C432.097 354.511 417.204 326.811 425.206 314.317C425.555 313.771 425.889 313.252 426.208 312.755C425.474 313.67 425.206 314.317 425.206 314.317C421.891 312.6 411.727 313.315 404.121 314.161C402.876 314.385 401.101 314.612 398.641 314.838C397.557 314.986 396.675 315.114 396.061 315.204C379.743 318.249 359.001 335.247 359.001 335.247L356.156 332.629C374.394 311.284 400.776 311.753 400.776 311.753C420.576 310.353 433.208 301.821 433.208 301.821C433.208 301.821 431.125 263.357 461.097 262.939C461.097 262.939 481.061 265.148 491.662 274.346L491.654 274.352Z" fill="#8CACF4"/>
<path d="M103.905 408.243H385.873L411.493 99.6855L113.627 99.9558C111.045 99.9558 99.5041 99.6828 98.8598 110.235L87.2728 384.842C86.825 397.584 94.4014 408.243 103.908 408.243H103.905Z" fill="#6C7AFF"/>
<g opacity="0.5">
<path opacity="0.5" d="M309.195 122.027C309.195 122.027 314.445 78.054 336.978 51.8137C339.973 48.3272 345.704 50.5469 345.608 55.1419C345.608 55.2183 345.605 55.2948 345.603 55.374C345.311 63.2179 320.083 96.3056 309.198 122.027H309.195Z" fill="#AEC3FF"/>
<path opacity="0.5" d="M306.461 134.617C306.461 134.617 328.914 79.6549 367.265 55.3476C369.605 53.8651 372.772 54.403 374.339 56.6854C375.36 58.1707 375.819 60.4941 374.672 64.1171C371.617 73.7849 328.846 106.324 306.461 134.617Z" fill="#AEC3FF"/>
</g>
<path d="M86.375 332.339C86.375 332.339 98.3169 350.471 91.5078 372.545L88.4363 371.72C88.4363 371.72 91.4177 347.407 85.171 335.181C78.9243 322.955 86.375 332.339 86.375 332.339Z" fill="#82B378"/>
<path d="M462.587 408.054L163.203 408.33C157.614 408.33 152.662 403.192 151.657 396.336L117.803 165.76L115.736 151.691L110.406 115.387C109.205 107.202 114.038 99.9668 120.713 99.9586L420.097 99.6856C425.685 99.6801 430.638 104.821 431.643 111.679L437.518 151.691L439.538 165.468L472.891 392.623C474.092 400.808 469.26 408.046 462.584 408.052L462.587 408.054Z" fill="#CCDBFD"/>
<path d="M437.518 151.691H115.736L110.406 115.387C109.205 107.202 114.038 99.9668 120.713 99.9586L420.097 99.6856C425.685 99.6801 430.638 104.821 431.643 111.679L437.518 151.691Z" fill="#739AF0"/>
<path d="M295.664 136.43C294.989 132.665 297.381 129.574 301.566 129.564C304.114 129.558 305.807 130.404 307.346 131.611L306.093 133.337C304.81 132.357 303.508 131.696 301.927 131.701C299.281 131.709 297.736 133.793 298.208 136.422C298.672 139.013 300.966 141.126 303.614 141.121C305.312 141.115 306.279 140.452 307.275 139.39L309.107 140.899C307.922 142.341 306.505 143.253 303.92 143.258C299.89 143.269 296.352 140.269 295.664 136.43Z" fill="#F0F5FF"/>
<path d="M311.324 136.388C310.657 132.661 313.098 129.532 317.346 129.522C321.592 129.511 325.106 132.585 325.78 136.35C326.446 140.077 324.005 143.205 319.757 143.216C315.512 143.227 311.998 140.153 311.324 136.388ZM323.233 136.358C322.771 133.786 320.434 131.654 317.69 131.659C314.947 131.667 313.407 133.77 313.874 136.38C314.335 138.952 316.672 141.084 319.416 141.079C322.16 141.07 323.7 138.968 323.233 136.358Z" fill="#F0F5FF"/>
<path d="M329.023 129.721L331.276 129.716L340.321 138.851L338.683 129.697L341.072 129.691L343.442 142.93L341.408 142.936L332.098 133.536L333.785 142.955L331.396 142.96L329.026 129.721H329.023Z" fill="#F0F5FF"/>
<path d="M349.887 131.823L345.502 131.834L345.117 129.677L356.333 129.647L356.718 131.804L352.333 131.815L354.318 142.9L351.869 142.905L349.884 131.821L349.887 131.823Z" fill="#F0F5FF"/>
<path d="M360.383 129.639L370.632 129.611L371.003 131.692L363.184 131.711L363.801 135.154L370.733 135.135L371.104 137.215L364.172 137.234L364.808 140.789L372.729 140.767L373.1 142.848L362.753 142.875L360.383 129.636V129.639Z" fill="#F0F5FF"/>
<path d="M375.094 129.601L377.346 129.596L386.391 138.731L384.753 129.577L387.142 129.571L389.512 142.81L387.478 142.816L378.168 133.415L379.855 142.835L377.466 142.84L375.096 129.601H375.094Z" fill="#F0F5FF"/>
<path d="M395.957 131.703L391.572 131.714L391.188 129.557L402.406 129.527L402.791 131.684L398.406 131.695L400.391 142.78L397.942 142.785L395.957 131.701V131.703Z" fill="#F0F5FF"/>
<path opacity="0.3" d="M219.124 360.258H186.198C183.437 360.258 180.855 358.022 180.426 355.262L175.307 322.335C174.878 319.575 176.767 317.339 179.525 317.339H212.451C215.211 317.339 217.794 319.575 218.223 322.335L223.342 355.262C223.771 358.022 221.881 360.258 219.124 360.258Z" fill="#739AF0"/>
<path opacity="0.3" d="M274.343 360.258H241.416C238.656 360.258 236.073 358.022 235.645 355.262L230.525 322.335C230.097 319.575 231.986 317.339 234.744 317.339H267.67C270.43 317.339 273.013 319.575 273.442 322.335L278.561 355.262C278.989 358.022 277.1 360.258 274.343 360.258Z" fill="#739AF0"/>
<path opacity="0.3" d="M209.651 298.448H176.725C173.965 298.448 171.382 296.212 170.953 293.451L165.834 260.525C165.405 257.764 167.295 255.528 170.052 255.528H202.979C205.739 255.528 208.322 257.764 208.75 260.525L213.869 293.451C214.298 296.212 212.409 298.448 209.651 298.448Z" fill="#739AF0"/>
<path d="M193.973 269.893L203.99 271.234L198.139 278.002L201.527 287.506L191.977 283.058L184.051 287.59L184.002 278.073L175.719 271.373L185.236 269.937L188.04 261.263L193.973 269.893Z" fill="#F77D48"/>
<path opacity="0.3" d="M421.05 238.406H388.123C385.363 238.406 382.78 236.17 382.352 233.409L377.233 200.483C376.804 197.722 378.693 195.486 381.451 195.486H414.377C417.137 195.486 419.72 197.722 420.149 200.483L425.268 233.409C425.696 236.17 423.807 238.406 421.05 238.406Z" fill="#739AF0"/>
<path d="M185.371 350.57L192.931 331.256L202.883 341.991L206.151 337.688L216.946 350.545L185.371 350.57Z" fill="#6C7AFF"/>
<path d="M197.663 328.482C197.393 326.95 198.444 325.711 200.011 325.708C201.579 325.708 203.067 326.948 203.337 328.476C203.607 330.008 202.556 331.248 200.989 331.25C199.422 331.25 197.934 330.011 197.663 328.482Z" fill="#6C7AFF"/>
<path opacity="0.3" d="M329.557 360.258H296.631C293.871 360.258 291.288 358.022 290.859 355.262L285.74 322.335C285.312 319.575 287.201 317.339 289.958 317.339H322.885C325.645 317.339 328.228 319.575 328.656 322.335L333.776 355.262C334.204 358.022 332.315 360.258 329.557 360.258Z" fill="#739AF0"/>
<path d="M295.992 350.57L303.549 331.256L313.504 341.991L316.769 337.688L327.567 350.545L295.992 350.57Z" fill="#6C7AFF"/>
<path d="M308.281 328.482C308.01 326.95 309.061 325.711 310.629 325.708C312.196 325.708 313.684 326.948 313.954 328.476C314.224 330.008 313.173 331.248 311.606 331.25C310.039 331.25 308.551 330.011 308.281 328.482Z" fill="#6C7AFF"/>
<path opacity="0.3" d="M375.304 298.448H342.377C339.617 298.448 337.034 296.212 336.606 293.451L331.486 260.525C331.058 257.764 332.947 255.528 335.705 255.528H368.631C371.391 255.528 373.974 257.764 374.403 260.525L379.522 293.451C379.95 296.212 378.061 298.448 375.304 298.448Z" fill="#739AF0"/>
<path d="M340.227 286.86L347.784 267.546L357.738 278.278L361.003 273.978L371.801 286.835L340.227 286.86Z" fill="#6C7AFF"/>
<path d="M352.519 264.769C352.249 263.24 353.3 261.998 354.867 261.995C356.434 261.995 357.922 263.235 358.192 264.764C358.463 266.293 357.411 267.535 355.844 267.538C354.277 267.538 352.789 266.298 352.519 264.769Z" fill="#6C7AFF"/>
<path opacity="0.3" d="M255.397 238.406H222.471C219.711 238.406 217.128 236.17 216.699 233.409L211.58 200.483C211.152 197.722 213.041 195.486 215.798 195.486H248.725C251.485 195.486 254.068 197.722 254.496 200.483L259.615 233.409C260.044 236.17 258.155 238.406 255.397 238.406Z" fill="#739AF0"/>
<path d="M225.047 204.224L229.533 229.669L247.088 216.933L225.047 204.224Z" fill="#F77D48"/>
<path d="M320.089 298.448H287.162C284.402 298.448 281.819 296.212 281.391 293.451L276.272 260.525C275.843 257.764 277.732 255.528 280.49 255.528H313.416C316.176 255.528 318.759 257.764 319.188 260.525L324.307 293.451C324.736 296.212 322.846 298.448 320.089 298.448Z" fill="#F77D48"/>
<path d="M290.816 264.263L295.302 289.708L312.857 276.969L290.816 264.263Z" fill="#FFE6C2"/>
<path opacity="0.3" d="M430.522 298.448H397.596C394.836 298.448 392.253 296.212 391.824 293.451L386.705 260.525C386.277 257.764 388.166 255.528 390.923 255.528H423.85C426.61 255.528 429.193 257.764 429.621 260.525L434.74 293.451C435.169 296.212 433.28 298.448 430.522 298.448Z" fill="#739AF0"/>
<path opacity="0.3" d="M384.78 360.258H351.854C349.094 360.258 346.511 358.022 346.082 355.262L340.963 322.335C340.534 319.575 342.424 317.339 345.181 317.339H378.107C380.868 317.339 383.45 319.575 383.879 322.335L388.998 355.262C389.427 358.022 387.538 360.258 384.78 360.258Z" fill="#739AF0"/>
<path opacity="0.3" d="M310.616 238.406H277.69C274.929 238.406 272.347 236.17 271.918 233.409L266.799 200.483C266.37 197.722 268.26 195.486 271.017 195.486H303.943C306.704 195.486 309.286 197.722 309.715 200.483L314.834 233.409C315.263 236.17 313.374 238.406 310.616 238.406Z" fill="#739AF0"/>
<path d="M300.898 211.016L278.972 211.032C278.541 211.032 278.172 210.724 278.096 210.298C278 209.754 278.418 209.255 278.969 209.255L300.896 209.238C301.327 209.238 301.696 209.547 301.772 209.973C301.868 210.516 301.45 211.016 300.898 211.016Z" fill="#6C7AFF"/>
<path d="M301.777 216.032L279.851 216.049C279.42 216.049 279.051 215.74 278.975 215.314C278.879 214.771 279.297 214.271 279.848 214.271L301.775 214.255C302.206 214.255 302.575 214.563 302.651 214.989C302.747 215.533 302.329 216.032 301.777 216.032Z" fill="#6C7AFF"/>
<path d="M302.668 221.051L280.742 221.067C280.31 221.067 279.942 220.759 279.865 220.333C279.77 219.789 280.187 219.29 280.739 219.29L302.665 219.273C303.097 219.273 303.465 219.582 303.542 220.008C303.637 220.551 303.219 221.051 302.668 221.051Z" fill="#6C7AFF"/>
<path d="M420.805 271.057L398.878 271.073C398.447 271.073 398.078 270.765 398.002 270.339C397.906 269.795 398.324 269.296 398.876 269.296L420.802 269.279C421.233 269.279 421.602 269.588 421.678 270.014C421.774 270.557 421.356 271.057 420.805 271.057Z" fill="#6C7AFF"/>
<path d="M421.687 276.071L399.761 276.088C399.33 276.088 398.961 275.779 398.885 275.353C398.789 274.81 399.207 274.31 399.758 274.31L421.685 274.294C422.116 274.294 422.485 274.602 422.561 275.028C422.657 275.572 422.239 276.071 421.687 276.071Z" fill="#6C7AFF"/>
<path d="M422.574 281.09L400.648 281.106C400.216 281.106 399.848 280.798 399.771 280.372C399.676 279.829 400.094 279.329 400.645 279.329L422.571 279.312C423.003 279.312 423.371 279.621 423.448 280.047C423.543 280.59 423.126 281.09 422.574 281.09Z" fill="#6C7AFF"/>
<path d="M264.621 334.663L242.695 334.68C242.263 334.68 241.895 334.371 241.818 333.945C241.723 333.402 242.141 332.902 242.692 332.902L264.618 332.886C265.05 332.886 265.418 333.194 265.495 333.62C265.59 334.164 265.173 334.663 264.621 334.663Z" fill="#6C7AFF"/>
<path d="M265.508 339.682L243.581 339.698C243.15 339.698 242.782 339.39 242.705 338.964C242.61 338.42 243.027 337.921 243.579 337.921L265.505 337.904C265.936 337.904 266.305 338.213 266.381 338.639C266.477 339.182 266.059 339.682 265.508 339.682Z" fill="#6C7AFF"/>
<path d="M266.391 344.696L244.464 344.713C244.033 344.713 243.664 344.404 243.588 343.978C243.492 343.435 243.91 342.935 244.462 342.935L266.388 342.919C266.819 342.919 267.188 343.227 267.264 343.653C267.36 344.197 266.942 344.696 266.391 344.696Z" fill="#6C7AFF"/>
<path d="M375.055 334.663L353.128 334.68C352.697 334.68 352.328 334.371 352.252 333.945C352.156 333.402 352.574 332.902 353.126 332.902L375.052 332.886C375.483 332.886 375.852 333.194 375.928 333.62C376.024 334.164 375.606 334.663 375.055 334.663Z" fill="#6C7AFF"/>
<path d="M375.941 339.682L354.015 339.698C353.584 339.698 353.215 339.39 353.139 338.964C353.043 338.42 353.461 337.921 354.012 337.921L375.939 337.904C376.37 337.904 376.739 338.213 376.815 338.639C376.911 339.182 376.493 339.682 375.941 339.682Z" fill="#6C7AFF"/>
<path d="M376.828 344.696L354.902 344.713C354.47 344.713 354.102 344.404 354.025 343.978C353.93 343.435 354.348 342.935 354.899 342.935L376.825 342.919C377.257 342.919 377.625 343.227 377.702 343.653C377.797 344.197 377.38 344.696 376.828 344.696Z" fill="#6C7AFF"/>
<path opacity="0.3" d="M264.874 298.448H231.948C229.187 298.448 226.605 296.212 226.176 293.451L221.057 260.525C220.628 257.764 222.517 255.528 225.275 255.528H258.201C260.961 255.528 263.544 257.764 263.973 260.525L269.092 293.451C269.521 296.212 267.631 298.448 264.874 298.448Z" fill="#739AF0"/>
<path d="M245.922 289.373C245.892 289.373 245.862 289.373 245.832 289.373C245.218 289.343 244.56 288.98 244.164 288.453C240.645 283.773 236.397 279.394 231.537 275.432C230.805 274.834 230.592 273.969 231.062 273.496C231.532 273.024 232.506 273.128 233.241 273.723C237.374 277.089 241.09 280.748 244.328 284.625C246.127 276.038 250.277 268.342 256.437 262.231C256.909 261.762 257.886 261.866 258.618 262.466C259.35 263.064 259.56 263.932 259.085 264.402C252.532 270.903 248.341 279.268 246.968 288.592C246.897 289.07 246.488 289.37 245.922 289.373Z" fill="#F77D48"/>
<path d="M188.491 179.272H155.783C153.776 179.272 151.835 177.667 151.45 175.687C151.065 173.708 152.378 172.103 154.385 172.103H187.093C189.099 172.103 191.041 173.708 191.426 175.687C191.81 177.667 190.497 179.272 188.491 179.272Z" fill="#F99746"/>
<path d="M242.088 179.272H209.38C207.374 179.272 205.432 177.667 205.047 175.687C204.663 173.708 205.976 172.103 207.982 172.103H240.69C242.697 172.103 244.638 173.708 245.023 175.687C245.408 177.667 244.095 179.272 242.088 179.272Z" fill="#F99746"/>
<path d="M300.166 179.272H267.458C265.452 179.272 263.511 177.667 263.126 175.687C262.741 173.708 264.054 172.103 266.061 172.103H298.768C300.775 172.103 302.716 173.708 303.101 175.687C303.486 177.667 302.173 179.272 300.166 179.272Z" fill="#F99746"/>
<path d="M355.815 179.272H323.107C321.1 179.272 319.159 177.667 318.774 175.687C318.389 173.708 319.702 172.103 321.709 172.103H354.417C356.424 172.103 358.365 173.708 358.75 175.687C359.135 177.667 357.821 179.272 355.815 179.272Z" fill="#F99746"/>
<path d="M411.537 179.272H378.83C376.823 179.272 374.882 177.667 374.497 175.687C374.112 173.708 375.425 172.103 377.432 172.103H410.14C412.146 172.103 414.087 173.708 414.472 175.687C414.857 177.667 413.544 179.272 411.537 179.272Z" fill="#F99746"/>
<path d="M365.835 238.406H332.908C330.148 238.406 327.565 236.17 327.137 233.409L322.018 200.483C321.589 197.722 323.478 195.486 326.236 195.486H359.162C361.922 195.486 364.505 197.722 364.934 200.483L370.053 233.409C370.482 236.17 368.592 238.406 365.835 238.406Z" fill="#F77D48"/>
<path d="M346.887 229.497C346.857 229.497 346.827 229.497 346.797 229.497C346.183 229.467 345.525 229.104 345.129 228.577C341.61 223.897 337.359 219.518 332.502 215.556C331.77 214.958 331.557 214.093 332.027 213.621C332.496 213.148 333.471 213.252 334.205 213.85C338.339 217.216 342.055 220.875 345.293 224.752C347.092 216.165 351.242 208.469 357.401 202.358C357.874 201.889 358.851 201.993 359.583 202.593C360.314 203.191 360.525 204.059 360.05 204.529C353.497 211.03 349.306 219.395 347.933 228.719C347.862 229.197 347.452 229.497 346.887 229.5V229.497Z" fill="#FFE6C2"/>
<path d="M512.617 261.561C512.617 261.561 514.918 268.648 514.719 270.27C514.523 271.892 513.076 277.429 512.044 278.846C511.012 280.263 510.504 273.071 509.685 271.99C508.868 270.909 509.518 274.699 508.942 275.048C508.366 275.4 507.165 272.26 506.649 271.152C506.133 270.046 507.91 265.962 507.915 263.117C507.921 260.272 512.614 261.561 512.614 261.561H512.617Z" fill="#FFB27D"/>
<path d="M458.497 205.265C457.861 197.137 466.688 191.564 473.658 195.794C473.8 195.881 473.942 195.968 474.084 196.058C484.519 202.775 507.038 234.121 508.589 237.26C510.137 240.4 514.712 265.379 514.712 265.379C514.712 265.379 509.061 267.446 506.418 265.303C506.418 265.303 497.25 241.612 495.896 240.427C494.542 239.242 459.229 219.429 458.929 212C458.85 210.037 458.691 207.676 458.503 205.265H458.497Z" fill="#233862"/>
<path d="M370.667 206.038L373.527 214.253L429.954 194.603L427.094 186.388L370.667 206.038Z" fill="#F99746"/>
<path d="M359.004 214.707L373.553 214.248L370.695 206.033L359.004 214.707Z" fill="#F9DDBF"/>
<path d="M434.801 187.318L435.355 188.907C436.011 190.791 435.014 192.852 433.13 193.507L429.982 194.602L427.121 186.387L430.466 185.221C432.24 184.604 434.181 185.54 434.801 187.318Z" fill="#F9DDBF"/>
<path d="M521.508 388.725C521.508 388.725 525.715 392.563 524.893 395.294C524.071 398.021 520.274 399.842 519.76 403.176C519.247 406.509 517.194 408.33 515.348 408.33H506.541C506.541 408.33 505.181 405.985 508.465 405.275C511.75 404.568 512.987 400.65 512.782 397.011C512.577 393.374 513.09 388.523 513.09 388.523L520.069 386.906L521.505 388.725H521.508Z" fill="#1C3051"/>
<path d="M469.889 398.657C469.889 398.657 470.645 407.396 468.797 408.305L445.156 408.256C445.156 408.256 445.156 405.529 448.954 404.923C452.752 404.316 459.422 402.094 460.552 397.141C461.679 392.189 469.892 398.657 469.892 398.657H469.889Z" fill="#1C3051"/>
<path d="M449.926 275.212C449.926 275.212 451.173 290.532 452.637 308.944C454.63 333.959 457.024 364.682 457.262 370.503C457.671 380.61 459.315 396.779 459.315 396.779C459.315 396.779 463.214 400.62 471.014 399.001C471.014 399.001 477.965 375.922 479.953 351.503C479.983 351.102 480.015 350.7 480.045 350.296C481.894 325.438 484.766 273.091 484.766 273.091L449.926 275.212Z" fill="#F99746"/>
<path d="M449.926 275.213C449.926 275.213 451.173 290.532 452.637 308.945L479.953 351.501C479.983 351.1 480.015 350.698 480.045 350.294C481.894 325.436 484.766 273.089 484.766 273.089L449.926 275.21V275.213Z" fill="#EF7E29"/>
<path d="M455.621 277.03C455.621 277.03 478.096 332.508 492.875 358.579C507.653 384.65 512.27 391.926 512.27 391.926C512.27 391.926 520.737 388.593 521.506 386.318C521.506 386.318 515.855 335.987 505.958 323.717C500.366 316.785 493.798 295.978 493.489 288.702C493.181 281.426 491.488 267.026 491.488 267.026L455.621 277.03Z" fill="#F99746"/>
<path d="M475 193.811C475 193.811 459.942 201.447 451.121 198.9C451.121 198.9 456.308 195.058 456.194 189.467C456.134 186.455 455.73 184.793 455.73 184.793L461.504 180.064L466.978 175.537C466.787 187.96 474.997 193.808 474.997 193.808L475 193.811Z" fill="#FFB27D"/>
<path d="M489.96 271.417C483.88 275.097 478.125 277.863 471.389 279.416C463.444 281.3 453.678 280.746 450.41 281.243C450.075 281.289 449.758 281.199 449.457 281.003C449.201 280.872 447.759 271.179 446.315 258.948C446.249 258.456 446.184 257.96 446.157 257.46L446.135 257.296C445.572 252.515 445.081 247.492 444.655 242.455C444.306 238.537 444.019 234.662 443.822 231.023C443.571 226.469 443.467 222.286 443.571 218.846C443.618 217.274 443.708 215.859 443.85 214.633C444.71 207.488 448.12 202.383 451.328 198.58L453.99 195.552C457.077 195.748 460.228 195.164 463.201 193.201C466.453 191.061 469.961 188.759 470.625 189.144C475.607 191.872 479.667 198.937 482.564 208.269C484.224 213.64 485.502 219.736 486.318 226.191C486.58 228.195 486.804 230.248 486.976 232.295C487.009 232.675 487.036 233.052 487.069 233.426C487.459 239.02 488.098 244.262 488.805 248.944C489.758 255.259 490.842 260.548 491.609 264.275C491.994 266.172 492.286 267.635 492.461 268.687C492.617 269.604 490.782 270.915 489.963 271.425L489.96 271.417Z" fill="#2B478B"/>
<path d="M467.175 180.285C467.175 180.285 463.471 187.364 456.195 189.469C455.807 186.089 455.73 184.795 455.73 184.795L461.505 180.066L467.175 180.285Z" fill="#ED985F"/>
<path d="M453.058 184.644C453.058 184.644 467.61 186.73 468.795 177.786C469.98 168.842 472.656 163.089 463.414 161.38C454.172 159.671 451.911 162.851 450.781 165.743C449.648 168.634 449.304 183.872 453.058 184.644Z" fill="#FFB27D"/>
<path d="M473.709 160.109C473.837 159.956 474.14 159.827 474.815 159.778C474.815 159.778 474.269 159.451 473.545 159.448C473.384 158.511 472.852 156.857 471.227 156.486C471.227 156.486 472.106 156.931 472.24 157.93C470.329 156.043 466.286 154.722 455.187 155.819C440.562 157.266 445.574 166.549 447.494 167.63C449.413 168.712 454.125 165.55 457.664 165.76C461.202 165.97 461.975 171.062 463.19 171.739C464.402 172.417 463.905 171.188 465.513 170.421C467.121 169.656 467.329 172.34 466.895 174.096C466.46 175.851 468.735 178.112 468.735 178.112L470.938 175.641C473.141 173.17 475.061 162.855 473.993 160.687C473.897 160.496 473.805 160.303 473.709 160.106V160.109Z" fill="#2C3A64"/>
<path d="M469.096 219.641C469.096 219.641 456.826 228.976 443.822 231.021C443.571 226.467 443.467 222.284 443.571 218.844L469.096 219.641Z" fill="#233862"/>
<path d="M393.746 207.595C393.552 207.387 391.051 199.024 386.727 199.633C383.904 200.032 379.29 201.665 380.515 205.383C380.996 206.847 389.599 211.881 389.599 211.881L393.749 207.592L393.746 207.595Z" fill="#FFB27D"/>
<path d="M470.608 201.602C477.602 205.788 477.034 216.212 469.554 219.447C469.401 219.512 469.245 219.578 469.092 219.641C457.574 224.26 418.979 224.476 415.523 223.922C412.066 223.367 389.051 212.635 389.051 212.635C389.051 212.635 390.637 206.828 393.916 205.916C393.916 205.916 418.54 212.154 420.29 211.737C422.04 211.316 458.638 193.996 464.869 198.05C466.518 199.123 468.533 200.36 470.608 201.602Z" fill="#2B478B"/>
<path d="M137.574 228.268C137.574 228.268 138.926 226.034 139.756 224.8C140.583 223.566 142.232 222.026 142.655 222.422C143.076 222.818 141.388 224.453 141.465 225C141.541 225.546 144.37 223.711 144.675 223.299C145.287 222.471 146.906 221.579 147.105 222.619C147.305 223.659 146.101 226.93 145.555 227.872C145.009 228.814 142.726 230.299 141.465 230.747C140.203 231.192 138.041 232.232 138.041 232.232L137.577 228.268H137.574Z" fill="#FFB27D"/>
<path d="M71.9271 209.125C70.9933 207.323 92.2972 200.839 92.6357 218.613C92.6357 218.613 132.546 217.633 113.489 195.387C106.893 187.685 107.57 181.318 107.769 175.391C107.969 169.463 103.66 152.235 88.8871 153.969C88.8871 153.969 85.0184 152.394 80.1914 154.9C69.2133 160.595 44.6168 215.681 71.9271 209.125Z" fill="#163560"/>
<path d="M99.5992 230.272C99.5992 230.272 101.011 233.068 103.572 236.281C106.66 240.147 111.418 244.614 117.395 245.496C120.251 245.916 123.041 245.302 125.607 244.164C125.615 244.164 125.615 244.164 125.615 244.164C132.872 240.942 138.33 233.532 138.33 233.532C139.61 230.043 137.817 227.859 137.817 227.859C137.817 227.859 122.858 230.971 121.463 230.275C120.068 229.576 111.923 206.121 109.988 203.172C108.046 200.223 101.439 198.694 101.439 198.694L99.5938 230.275L99.5992 230.272Z" fill="#F99746"/>
<path d="M103.574 236.282C106.662 240.148 111.421 244.614 117.397 245.496C120.253 245.917 123.044 245.303 125.61 244.164C125.326 244.202 118.077 245.098 115.189 239.927C112.24 234.652 109.054 226.278 104.675 229.069C102.785 230.273 102.87 233.268 103.574 236.279V236.282Z" fill="#ED7D2B"/>
<path d="M44.9225 388.478C44.9225 388.478 40.4504 392.56 41.3241 395.459C42.1978 398.359 46.233 400.292 46.7791 403.836C47.3251 407.379 49.5065 409.312 51.4696 409.312H60.8287C60.8287 409.312 62.273 406.82 58.7838 406.066C55.2946 405.313 53.9786 401.149 54.1943 397.283C54.4127 393.417 53.8667 388.262 53.8667 388.262L46.4487 386.545L44.9225 388.478Z" fill="#2358A5"/>
<path d="M82.7764 390.213C82.7764 390.213 81.1683 407.503 83.1313 408.47L108.257 408.418C108.257 408.418 108.257 405.519 104.222 404.874C100.187 404.23 93.0966 401.868 91.898 396.604C90.6994 391.34 82.7791 390.213 82.7791 390.213H82.7764Z" fill="#2358A5"/>
<path d="M64.8702 266.169C70.0412 254.574 73.2055 251.246 72.5994 247.647C72.1489 244.969 73.9672 197.703 73.9672 197.703C74.5815 197.512 75.8101 197.343 76.4818 197.193C78.6031 196.72 80.3587 195.232 81.0876 193.185C81.9668 190.719 82.6684 187.08 82.652 182.521L83.3155 182.652L94.452 184.858C94.452 184.858 94.1981 188.363 94.1899 191.664C94.1899 191.691 94.1899 191.719 94.1899 191.746C94.1763 194.613 96.0574 197.144 98.8121 197.941C100.218 198.348 101.444 198.694 101.444 198.694C101.444 198.694 105.534 210.369 106.315 222.363C107.096 234.357 98.8777 239.569 106.378 263.535C114.033 288.014 62.0117 272.577 64.8675 266.169H64.8702Z" fill="#FFB27D"/>
<path d="M94.4557 184.858C94.4557 184.858 94.2018 188.364 94.1936 191.665C87.9605 191.49 84.6679 185.803 83.3164 182.652L94.4529 184.858H94.4557Z" fill="#E8945B"/>
<path d="M96.5371 187.985C96.5371 187.985 81.7912 188.228 81.783 179.043C81.7721 169.859 79.8637 163.705 89.2774 163.162C98.6912 162.618 100.523 166.121 101.274 169.185C102.022 172.251 100.376 187.685 96.5398 187.985H96.5371Z" fill="#FFB27D"/>
<path d="M95.988 162.934C95.988 162.934 91.95 173.71 85.7552 175.302C79.5603 176.896 76.8711 175.236 76.8711 175.236C76.8711 175.236 81.6244 171.46 82.61 164.87C82.61 164.87 92.9411 157.804 95.988 162.934Z" fill="#163560"/>
<path d="M94.9883 163.81C94.9883 163.81 97.9833 164.93 99.2147 167.114C100.419 169.249 101.445 172.078 101.208 175.545C101.208 175.545 104.249 168.22 100.831 164.078C97.2052 159.685 94.9883 163.81 94.9883 163.81Z" fill="#163560"/>
<path d="M93.3242 182.286C93.3242 182.286 94.3426 183.624 96.3766 183.529C98.0147 183.452 98.6481 182.03 98.6481 182.03C98.6481 182.03 95.6367 181.306 93.3242 182.286Z" fill="#EBF3FA"/>
<path d="M63.4514 218.612C63.4514 218.612 63.0774 223.892 63.4514 230.227C63.6998 234.426 67.948 240.05 68.5514 241.442C70.064 244.932 71.7676 245.5 71.7676 245.5L84.96 248.732L89.5986 249.868L104.227 245.5C104.227 245.5 110.889 226.901 108.213 216.433C105.538 205.966 101.45 198.695 101.45 198.695C101.45 198.695 89.514 210.383 73.9709 197.704L63.4487 218.615L63.4514 218.612Z" fill="#F99746"/>
<path d="M103.293 248.319C103.293 248.319 110.536 270.868 111.003 278.546C111.467 286.223 97.1557 387.605 96.5796 391.143C96.0363 394.477 91.8973 396.604 91.8973 396.604C91.8973 396.604 89.9916 397.726 87.275 396.959C83.5046 395.894 82.3115 394.619 82.3115 394.619C82.3115 394.619 76.6736 322.314 80.1628 296.486C83.6521 270.658 83.693 248.322 83.693 248.322H103.293V248.319Z" fill="#163560"/>
<path d="M72.6031 247.646C72.6031 247.646 61.5539 262.472 60.5219 272.497C59.4926 282.52 58.9056 317.726 56.7105 327.498C54.5154 337.269 46.4531 356.072 46.4531 386.547C46.4531 386.547 47.2913 388.294 49.8795 389.225C50.7068 389.523 51.8153 389.812 52.8937 390.058C55.0287 390.547 57.2183 389.504 58.193 387.544C63.6452 376.568 81.0094 341.165 81.8994 333.815C82.5301 328.614 88.0123 294.194 99.9734 273.999C102.846 269.15 98.2124 249.866 98.2124 249.866L72.6058 247.649L72.6031 247.646Z" fill="#1C468A"/>
<path d="M93.6523 182.532C93.6523 182.532 93.9062 183.613 96.601 183.446C96.601 183.446 98.8616 183.307 98.7933 182.117C98.7933 182.117 96.601 181.27 93.6551 182.532H93.6523Z" fill="white"/>
<path d="M104.447 244.839C104.447 244.839 101.539 247.14 95.7624 247.255C88.8604 247.394 71.7611 245.497 71.7611 245.497C71.7611 245.497 71.0021 247.618 71.0321 249.862C71.0321 249.862 91.9155 255.129 104.016 250.632C104.016 250.632 105.577 247.695 104.447 244.842V244.839Z" fill="#233862"/>
<path d="M94.2695 249.638C94.2695 247.672 95.6811 246.075 97.4175 246.075C99.1539 246.075 100.565 247.675 100.565 249.638C100.565 251.601 99.1539 253.201 97.4175 253.201C95.6811 253.201 94.2695 251.601 94.2695 249.638ZM95.3125 249.638C95.3125 251.028 96.2571 252.158 97.4175 252.158C98.5778 252.158 99.5225 251.028 99.5225 249.638C99.5225 248.248 98.5778 247.118 97.4175 247.118C96.2571 247.118 95.3125 248.248 95.3125 249.638Z" fill="white"/>
<path d="M49.2909 248.917L70.6875 267.55L96.1908 238.263L74.7942 219.63L49.2909 248.917Z" fill="#F77D48"/>
<path d="M76.5895 248.985C76.5895 248.985 84.9085 250.263 84.8839 252.125C84.8593 253.987 83.1639 257.351 81.4821 257.618C79.347 257.957 75.1016 252.447 75.1016 252.447L76.5895 248.985Z" fill="#FFB27D"/>
<path d="M76.7656 249.425C76.7656 249.425 79.5532 248.407 81.5981 248.827C83.643 249.248 85.5323 248.939 85.0682 249.682C84.6041 250.425 81.8384 250.149 81.3988 250.441C80.9592 250.733 80.9538 250.55 80.9538 250.55L76.7684 249.425H76.7656Z" fill="#FFB27D"/>
<path d="M73.9707 197.701C73.9707 197.701 63.5031 198.435 59.4924 208.188C55.479 217.94 47.8672 234.316 47.8672 237.071C47.8672 239.826 52.1181 248.319 74.9563 253.201C74.9563 253.201 77.3179 250.717 77.176 248.751C77.176 248.751 62.9215 236.506 62.9598 235.075C63.0335 232.369 65.2968 228.796 77.8121 216.275C81.214 212.87 73.9707 197.698 73.9707 197.698V197.701Z" fill="#F99746"/>
<path d="M188.776 235.757L155.833 246.493C153.073 247.391 150.012 245.914 148.999 243.192L136.902 210.694C135.889 207.972 137.303 205.034 140.063 204.133L173.006 193.398C175.766 192.499 178.827 193.977 179.84 196.699L191.937 229.197C192.95 231.919 191.536 234.856 188.776 235.757Z" fill="#F77D48"/>
<path d="M152.645 235.851L156.112 213.346L168.346 221.239L170.702 215.71L184.228 225.531L152.645 235.851Z" fill="#FFE6C2"/>
<path d="M160.261 208.922C159.666 207.423 160.455 205.791 162.022 205.28C163.589 204.767 165.342 205.569 165.934 207.068C166.529 208.567 165.74 210.2 164.173 210.711C162.606 211.224 160.853 210.421 160.261 208.922Z" fill="#FFE6C2"/>
<path d="M139.754 224.801C139.754 224.801 141.103 222.805 142.653 222.423C144.204 222.041 145.739 221.383 145.739 221.383C146.396 222.087 143.639 223.387 143.609 224.577C143.579 225.768 144.013 227.722 142.244 227.952C140.477 228.178 139.754 224.801 139.754 224.801Z" fill="#FFB27D"/>
<path d="M217.246 133.672L260.495 141.464L232.363 120.741L230.665 126.993L220.023 128.52L217.246 133.672Z" fill="#9EC3F6"/>
<path d="M260.494 141.464L224.996 121.487L189.602 118.404L260.494 141.464Z" fill="white"/>
<path d="M232.367 120.741L260.499 141.463L239.288 109.91L232.367 120.741Z" fill="white"/>
<path d="M29.7821 274.89L0.007776 255.653L27.9956 258.944L25.5543 263.562L30.9812 270.326L29.7821 274.89Z" fill="#9EC3F6"/>
<path d="M0.00829384 255.652L31.927 263.438L54.4772 281.123L0.00829384 255.652Z" fill="white"/>
<path d="M27.9932 258.944L0.00543383 255.652L29.8823 248.749L27.9932 258.944Z" fill="white"/>
<path d="M117.195 396.363C117.195 396.849 117.225 397.333 117.285 397.802C117.468 399.312 117.935 400.732 118.629 402.012C119.172 403.012 119.857 403.918 120.654 404.715C122.795 406.853 125.744 408.174 129.006 408.174H295.118C301.64 408.174 306.931 402.886 306.931 396.363C306.931 393.101 305.61 390.147 303.469 388.012C301.331 385.871 298.38 384.55 295.118 384.55H129.006C122.484 384.55 117.195 389.838 117.195 396.363Z" fill="#F78248"/>
<path d="M129.868 382.412H186.82C187.816 382.412 188.633 381.596 188.633 380.599C188.633 379.602 187.816 378.786 186.82 378.786H129.868C128.871 378.786 128.055 379.602 128.055 380.599C128.055 381.596 128.871 382.412 129.868 382.412Z" fill="#F78248"/>
<path d="M133.018 384.55H139.191V382.412H133.018V384.55Z" fill="#EA642F"/>
<path d="M118.629 402.013C119.172 403.012 119.857 403.918 120.655 404.716C122.795 406.853 125.744 408.175 129.006 408.175H164.193V402.013H118.632H118.629Z" fill="#EA642F"/>
<path d="M328.923 392.902V399.82C328.923 400.579 328.82 401.313 328.631 402.012C327.67 405.564 324.427 408.174 320.572 408.174H147.539C143.684 408.174 140.441 405.564 139.48 402.012C139.291 401.316 139.188 400.579 139.188 399.82V392.902C139.188 388.287 142.925 384.55 147.536 384.55H320.569C325.183 384.55 328.918 388.29 328.918 392.902H328.923Z" fill="#F99746"/>
<path d="M328.628 402.013C327.667 405.565 324.424 408.175 320.569 408.175H147.536C143.681 408.175 140.438 405.565 139.477 402.013H328.625H328.628Z" fill="#EF873A"/>
<path d="M311.734 396.404C311.734 400.073 313.069 403.352 315.169 405.525C315.218 405.575 315.262 405.621 315.311 405.67C316.935 407.289 318.997 408.258 321.238 408.258C324.741 408.258 333.423 402.973 338.804 399.464C341.485 397.714 343.347 396.406 343.347 396.406C343.347 396.406 341.485 395.099 338.804 393.349C333.423 389.835 324.741 384.552 321.238 384.552C320.225 384.552 319.248 384.751 318.331 385.114C316.785 385.734 315.409 386.834 314.325 388.276C313.13 389.857 312.278 391.847 311.92 394.056C311.917 394.08 311.909 394.108 311.909 394.132C311.794 394.864 311.734 395.626 311.734 396.406V396.404Z" fill="#6C7AFF"/>
<path opacity="0.7" d="M311.734 396.404C311.734 400.074 313.069 403.353 315.169 405.526L341.799 396.363L311.909 394.13C311.794 394.862 311.734 395.623 311.734 396.404Z" fill="#739AF0"/>
<path d="M314.324 388.271L340.892 395.525L318.329 385.109C316.784 385.729 315.408 386.829 314.324 388.271Z" fill="#ABC3EF"/>
<path d="M337.07 396.405C337.07 397.816 337.794 399.017 338.804 399.462C341.485 397.712 343.347 396.405 343.347 396.405C343.347 396.405 341.485 395.097 338.804 393.347C337.794 393.789 337.07 394.99 337.07 396.405Z" fill="#F99746"/>
<path d="M359.004 214.708L361.742 212.677C361.742 212.677 362.624 213.466 362.687 214.708H359.004Z" fill="#2B478B"/>
</svg>
