<svg width="533" height="429" viewBox="0 0 533 429" fill="none" xmlns="http://www.w3.org/2000/svg">
<path d="M259.632 429C402.783 429 518.831 415.109 518.831 397.973C518.831 380.837 402.783 366.945 259.632 366.945C116.481 366.945 0.433594 380.837 0.433594 397.973C0.433594 415.109 116.481 429 259.632 429Z" fill="#D9E2FF"/>
<path d="M195.867 25.1527C195.867 26.3774 195.367 27.4953 194.555 28.3031C193.751 29.1165 192.635 29.6164 191.409 29.6164H95.997C93.5465 29.6164 91.5391 27.6089 91.5391 25.1527C91.5391 23.9269 92.0389 22.8101 92.8512 22.0024C93.6544 21.1889 94.7712 20.689 95.997 20.689H100.506C102.288 16.5503 106.4 13.6578 111.188 13.6578C114.41 13.6578 117.324 14.97 119.434 17.0865C122.245 12.3195 127.429 9.11805 133.365 9.11805C134.998 9.11805 136.568 9.36457 138.05 9.81333C141.154 3.97613 147.291 0.000976562 154.364 0.000976562C162.859 0.000976562 170.004 5.73592 172.161 13.5397C173.726 12.7569 175.492 12.3093 177.366 12.3093C182.663 12.3093 187.131 15.8459 188.537 20.6902H191.41C193.859 20.6902 195.867 22.6976 195.867 25.1527Z" fill="#D9E2FF"/>
<path d="M495.858 53.6685C495.858 54.8943 495.359 56.0111 494.546 56.8189C493.742 57.6323 492.626 58.1322 491.4 58.1322H395.989C393.539 58.1322 391.531 56.1247 391.531 53.6685C391.531 52.4427 392.03 51.3259 392.843 50.5182C393.647 49.7047 394.763 49.2048 395.989 49.2048H400.498C402.28 45.0661 406.392 42.1725 411.18 42.1725C414.402 42.1725 417.316 43.4847 419.427 45.6012C422.237 40.8342 427.421 37.6327 433.357 37.6327C434.989 37.6327 436.56 37.8792 438.042 38.328C441.146 32.4908 447.283 28.5156 454.357 28.5156C462.851 28.5156 469.996 34.2506 472.153 42.0543C473.718 41.2716 475.484 40.8239 477.358 40.8239C482.655 40.8239 487.124 44.3606 488.529 49.2048H491.402C493.85 49.206 495.858 51.2134 495.858 53.6685Z" fill="#D9E2FF"/>
<path d="M386.925 25.1529C386.925 26.3787 386.425 27.4955 385.613 28.3032C384.81 29.1167 383.693 29.6166 382.467 29.6166H287.056C284.605 29.6166 282.598 27.6091 282.598 25.1529C282.598 23.9282 283.098 22.8103 283.91 22.0025C284.713 21.1891 285.83 20.6892 287.056 20.6892H291.566C293.347 16.5505 297.46 13.6569 302.247 13.6569C305.47 13.6569 308.383 14.969 310.494 17.0856C313.305 12.3186 318.489 9.11707 324.425 9.11707C326.056 9.11707 327.626 9.3636 329.109 9.81235C332.213 3.97516 338.35 0 345.423 0C353.918 0 361.062 5.73495 363.22 13.5398C364.784 12.7571 366.551 12.3095 368.424 12.3095C373.722 12.3095 378.19 15.8461 379.595 20.6903H382.468C384.918 20.6903 386.925 22.6978 386.925 25.1529Z" fill="#D9E2FF"/>
<path d="M86.9604 118.499C86.8389 118.653 86.7139 118.796 86.5844 118.923C82.8921 122.581 76.4926 108.575 82.407 94.5576C88.3215 80.5406 83.4488 62.0224 75.5167 61.301C67.5857 60.5796 74.4806 72.8993 64.257 71.0089C54.0334 69.1184 52.4587 41.8831 39.2643 43.3861C27.7171 44.6994 35.1176 64.8717 40.8536 73.3708C46.2659 81.3938 44.6595 89.552 38.5826 87.7684C32.508 85.987 26.4356 94.4201 35.48 107.517C44.5243 120.614 56.7736 133.649 50.8784 135.152C44.9833 136.659 32.7193 123.783 27.4956 139.02C25.1609 145.83 39.9982 169.398 72.931 171.264L86.9604 156.069V118.499Z" fill="#D9E2FF"/>
<path d="M83.1038 156.067C69.2015 119.168 45.8334 62.6346 45.5494 61.9473C45.3699 61.5144 45.5744 61.0157 46.0095 60.8351C46.4446 60.6556 46.9411 60.8635 47.1218 61.2974C47.4069 61.9904 71.0329 119.14 84.9226 156.066L83.1038 156.067Z" fill="#BBD4F2"/>
<path d="M62.3786 102.024C62.2388 102.011 62.1014 101.964 61.9775 101.88C61.589 101.615 61.489 101.086 61.7526 100.697C61.8264 100.589 69.0985 89.8622 71.257 82.1266C71.3831 81.6733 71.8535 81.4086 72.3057 81.5358C72.7578 81.6619 73.0237 82.1311 72.8964 82.5844C70.6617 90.5915 63.4647 101.208 63.159 101.657C62.9795 101.921 62.6762 102.051 62.3786 102.024Z" fill="#BBD4F2"/>
<path d="M65.5073 111.102C65.4902 111.1 65.4732 111.098 65.4561 111.096C64.9347 111.017 52.6014 109.113 44.2432 104.537C43.8308 104.311 43.6797 103.794 43.9058 103.382C44.1319 102.969 44.6488 102.818 45.0612 103.044C53.1512 107.474 65.5868 109.395 65.7118 109.413C66.1764 109.484 66.4956 109.918 66.4252 110.382C66.357 110.829 65.9526 111.141 65.5073 111.102Z" fill="#BBD4F2"/>
<path d="M86.9617 137.271C83.374 141.579 79.5374 144.897 79.4727 144.953C79.1159 145.259 79.075 145.796 79.3806 146.152C79.5306 146.327 79.7362 146.427 79.9487 146.447C80.1702 146.467 80.3986 146.401 80.5803 146.246C80.8189 146.041 83.7943 143.468 86.9617 139.899V137.271Z" fill="#BBD4F2"/>
<path d="M69.3362 153.776C64.4874 153.334 59.1513 152.406 54.7603 150.537C54.3275 150.353 54.1264 149.853 54.3104 149.42C54.4945 148.988 54.9943 148.787 55.4272 148.971C65.9041 153.43 82.6773 152.302 82.8454 152.289C83.3123 152.255 83.7213 152.609 83.7543 153.078C83.7872 153.547 83.4339 153.953 82.9658 153.986C82.5466 154.018 76.472 154.426 69.3362 153.776Z" fill="#BBD4F2"/>
<path d="M448.344 316.965C448.465 317.119 448.59 317.261 448.72 317.389C452.412 321.047 458.812 307.04 452.897 293.023C446.983 279.006 451.855 260.488 459.788 259.767C467.719 259.045 460.824 271.365 471.047 269.475C481.271 267.584 482.847 240.349 496.04 241.852C507.587 243.165 500.187 263.338 494.451 271.837C489.038 279.86 490.645 288.018 496.722 286.234C502.796 284.453 508.869 292.886 499.824 305.983C490.78 319.079 478.531 332.115 484.426 333.618C490.321 335.124 502.585 322.25 507.809 337.486C510.144 344.296 505.099 350.145 498.806 354.534H448.344V316.965Z" fill="#D9E2FF"/>
<path d="M452.206 354.532C466.108 317.633 489.476 261.101 489.76 260.412C489.939 259.979 489.735 259.481 489.3 259.3C488.865 259.12 488.368 259.328 488.188 259.763C487.902 260.455 464.276 317.606 450.387 354.532H452.206Z" fill="#BBD4F2"/>
<path d="M472.921 300.489C473.061 300.476 473.199 300.429 473.322 300.344C473.711 300.08 473.811 299.55 473.547 299.162C473.474 299.055 466.202 288.327 464.043 280.591C463.917 280.138 463.445 279.873 462.994 280.001C462.542 280.127 462.276 280.596 462.402 281.049C464.637 289.056 471.834 299.673 472.14 300.121C472.322 300.385 472.624 300.516 472.921 300.489Z" fill="#BBD4F2"/>
<path d="M469.798 309.567C469.815 309.566 469.832 309.564 469.849 309.562C470.37 309.483 482.704 307.579 491.062 303.003C491.474 302.778 491.625 302.26 491.4 301.848C491.174 301.435 490.657 301.284 490.245 301.51C482.155 305.94 469.719 307.861 469.594 307.879C469.13 307.95 468.81 308.384 468.881 308.848C468.948 309.295 469.353 309.607 469.798 309.567Z" fill="#BBD4F2"/>
<path d="M448.344 335.736C451.932 340.044 455.768 343.363 455.833 343.419C456.19 343.725 456.23 344.263 455.925 344.619C455.775 344.794 455.569 344.893 455.357 344.914C455.135 344.934 454.907 344.868 454.725 344.713C454.487 344.508 451.511 341.935 448.344 338.366V335.736Z" fill="#BBD4F2"/>
<path d="M465.967 352.241C470.816 351.8 476.152 350.871 480.543 349.002C480.976 348.818 481.177 348.318 480.993 347.885C480.809 347.452 480.309 347.251 479.876 347.435C469.398 351.895 452.626 350.766 452.458 350.754C451.99 350.72 451.582 351.074 451.549 351.542C451.516 352.012 451.868 352.418 452.337 352.451C452.758 352.483 458.831 352.891 465.967 352.241Z" fill="#BBD4F2"/>
<path d="M501.723 133.792C506.445 114.743 514.427 97.5753 521.959 105.271C529.5 112.974 515.205 142.255 495.469 157.814L490.022 164.712C504.207 153.122 526.322 146.982 531.818 154.291C537.279 161.554 522.188 164.304 507.984 164.518C497.172 164.68 490.131 167.264 486.692 168.928L460.961 201.509C483.477 183.219 518.393 173.563 527.09 185.129C535.756 196.653 511.808 201.017 489.271 201.355C472.24 201.611 461.098 205.655 455.598 208.298L450.468 214.794C449.202 214.081 447.94 213.361 446.684 212.633L477.297 173.872C477.696 169.734 477.643 163.848 475.992 156.423C472.908 142.556 472.086 127.238 480.417 130.868C487.647 134.019 488.012 151.509 482.854 166.835L493.441 153.431C496.007 148.725 499.685 142.014 501.723 133.792Z" fill="#D9E2FF"/>
<path d="M266.762 45.1084C267.218 25.4872 264.033 6.82471 254.741 12.2677C245.44 17.7152 251.528 49.7255 266.477 69.9284L269.918 78.0162C259.281 63.1029 239.56 51.3614 232.335 56.968C225.155 62.5382 238.993 69.1616 252.64 73.1038C263.029 76.1042 269.142 80.4497 272.022 82.9605L288.276 121.162C271.364 97.5943 240.217 79.0932 228.785 87.9638C217.392 96.8025 239.348 107.312 261.003 113.568C277.367 118.295 287.052 125.127 291.664 129.124L294.905 136.742C296.314 136.387 297.72 136.023 299.124 135.652L279.786 90.203C280.489 86.104 282.089 80.4395 285.633 73.7116C292.257 61.1443 297.079 46.5819 288.086 47.8918C280.282 49.0291 275.329 65.8079 276.274 81.9516L269.586 66.2339C268.349 61.0181 266.565 53.5768 266.762 45.1084Z" fill="#D9E2FF"/>
<path d="M35.8138 262.756C31.0922 243.706 23.1101 226.539 15.5778 234.235C8.03766 241.938 22.3307 271.219 42.0679 286.779L47.5154 293.677C33.3303 282.087 11.2153 275.947 5.71891 283.256C0.257762 290.519 15.3495 293.269 29.5528 293.483C40.3649 293.645 47.4063 296.23 50.8453 297.894L76.5764 330.475C54.0604 312.185 19.144 302.529 10.4473 314.095C1.78125 325.619 25.7287 329.983 48.2664 330.321C65.2974 330.577 76.4389 334.622 81.9387 337.264L87.0693 343.76C88.3349 343.047 89.5971 342.328 90.8536 341.599L60.2407 302.838C59.8408 298.699 59.893 292.814 61.5449 285.389C64.6294 271.523 65.4508 256.205 57.1199 259.834C49.8898 262.985 49.5251 280.475 54.683 295.802L44.0958 282.397C41.5294 277.689 37.8519 270.978 35.8138 262.756Z" fill="#D9E2FF"/>
<path d="M462.281 132.561V347.136C462.281 355.982 455.111 363.152 446.262 363.152H80.5774C71.7295 363.152 64.5586 355.982 64.5586 347.136V132.561C64.5586 123.713 71.7284 116.542 80.5774 116.542H446.262C455.11 116.542 462.281 123.712 462.281 132.561Z" fill="#3B3E7D"/>
<path d="M462.28 239.845V347.134C462.28 355.981 455.109 363.151 446.262 363.151H80.5751C71.7284 363.151 64.5586 355.98 64.5586 347.134V239.845H462.28Z" fill="#18285D"/>
<path d="M444.609 143.466V336.227C444.609 341.898 440.012 346.498 434.341 346.498H92.494C89.4629 346.498 86.7363 345.184 84.8572 343.087C83.2167 341.275 82.2227 338.864 82.2227 336.226V143.466C82.2227 137.794 86.8227 133.194 92.494 133.194H434.341C436.237 133.194 438.011 133.709 439.537 134.608C442.57 136.391 444.609 139.694 444.609 143.466Z" fill="white"/>
<path d="M444.609 143.466V336.227C444.609 341.898 440.012 346.498 434.341 346.498H92.494C89.4629 346.498 86.7363 345.184 84.8572 343.087C83.2167 341.275 82.2227 338.864 82.2227 336.226V143.466C82.2227 137.794 86.8227 133.194 92.494 133.194H434.341C436.237 133.194 438.011 133.709 439.537 134.608C442.57 136.391 444.609 139.694 444.609 143.466Z" fill="white"/>
<path d="M93.7969 215.315C93.7969 216.853 95.042 218.098 96.5791 218.098H155.59C157.127 218.098 158.372 216.853 158.372 215.315C158.372 213.778 157.127 212.533 155.59 212.533H96.5791C95.0432 212.533 93.7969 213.779 93.7969 215.315Z" fill="#D9E2FF"/>
<path d="M93.7969 229.515C93.7969 231.052 95.042 232.297 96.5791 232.297H155.59C157.127 232.297 158.372 231.052 158.372 229.515C158.372 227.978 157.127 226.732 155.59 226.732H96.5791C95.0432 226.732 93.7969 227.978 93.7969 229.515Z" fill="#D9E2FF"/>
<path d="M93.7969 243.333C93.7969 244.659 95.0261 245.735 96.5417 245.735H154.753C156.269 245.735 157.498 244.66 157.498 243.333C157.498 242.008 156.269 240.932 154.753 240.932H96.5417C95.0261 240.932 93.7969 242.008 93.7969 243.333Z" fill="#D9E2FF"/>
<path d="M93.7969 264.557C93.7969 266.094 95.042 267.339 96.5791 267.339H155.59C157.127 267.339 158.372 266.094 158.372 264.557C158.372 263.02 157.127 261.774 155.59 261.774H96.5791C95.0432 261.774 93.7969 263.021 93.7969 264.557Z" fill="#D9E2FF"/>
<path d="M93.7969 278.756C93.7969 280.293 95.042 281.538 96.5791 281.538H155.59C157.127 281.538 158.372 280.293 158.372 278.756C158.372 277.219 157.127 275.974 155.59 275.974H96.5791C95.0432 275.974 93.7969 277.219 93.7969 278.756Z" fill="#D9E2FF"/>
<path d="M93.7969 292.955C93.7969 294.492 95.042 295.737 96.5791 295.737H155.59C157.127 295.737 158.372 294.492 158.372 292.955C158.372 291.418 157.127 290.173 155.59 290.173H96.5791C95.0432 290.173 93.7969 291.419 93.7969 292.955Z" fill="#D9E2FF"/>
<path d="M368.055 215.315C368.055 216.853 369.3 218.098 370.837 218.098H429.847C431.385 218.098 432.63 216.853 432.63 215.315C432.63 213.778 431.385 212.533 429.847 212.533H370.837C369.301 212.533 368.055 213.779 368.055 215.315Z" fill="#D9E2FF"/>
<path d="M368.055 229.515C368.055 231.052 369.3 232.297 370.837 232.297H429.847C431.385 232.297 432.63 231.052 432.63 229.515C432.63 227.978 431.385 226.732 429.847 226.732H370.837C369.301 226.732 368.055 227.978 368.055 229.515Z" fill="#D9E2FF"/>
<path d="M368.055 243.333C368.055 244.659 369.284 245.735 370.799 245.735H429.011C430.527 245.735 431.756 244.66 431.756 243.333C431.756 242.008 430.527 240.932 429.011 240.932H370.799C369.284 240.932 368.055 242.008 368.055 243.333Z" fill="#D9E2FF"/>
<path d="M368.055 264.557C368.055 266.094 369.3 267.339 370.837 267.339H429.847C431.385 267.339 432.63 266.094 432.63 264.557C432.63 263.02 431.385 261.774 429.847 261.774H370.837C369.301 261.774 368.055 263.021 368.055 264.557Z" fill="#D9E2FF"/>
<path d="M368.055 278.756C368.055 280.293 369.3 281.538 370.837 281.538H429.847C431.385 281.538 432.63 280.293 432.63 278.756C432.63 277.219 431.385 275.974 429.847 275.974H370.837C369.301 275.974 368.055 277.219 368.055 278.756Z" fill="#D9E2FF"/>
<path d="M368.055 292.955C368.055 294.492 369.3 295.737 370.837 295.737H429.847C431.385 295.737 432.63 294.492 432.63 292.955C432.63 291.418 431.385 290.173 429.847 290.173H370.837C369.301 290.173 368.055 291.419 368.055 292.955Z" fill="#D9E2FF"/>
<path d="M444.609 143.466V154.185H82.2227V143.466C82.2227 137.794 86.8227 133.194 92.494 133.194H434.341C436.237 133.194 438.011 133.709 439.537 134.608C442.57 136.391 444.609 139.694 444.609 143.466Z" fill="#D9E2FF"/>
<path d="M442.758 137.59H84.0781C85.9299 134.932 89.0099 133.195 92.4976 133.195H434.343C437.829 133.195 440.91 134.932 442.758 137.59Z" fill="#021147"/>
<path d="M407.004 144.785C407.004 146.767 405.397 148.375 403.414 148.375C401.431 148.375 399.824 146.767 399.824 144.785C399.824 142.802 401.432 141.193 403.414 141.193C405.397 141.193 407.004 142.801 407.004 144.785Z" fill="#8894FF"/>
<path d="M418.642 144.785C418.642 146.767 417.035 148.375 415.052 148.375C413.069 148.375 411.461 146.767 411.461 144.785C411.461 142.802 413.069 141.193 415.052 141.193C417.035 141.193 418.642 142.801 418.642 144.785Z" fill="#3B3E7D"/>
<path d="M429.715 144.785C429.715 146.767 428.108 148.375 426.125 148.375C424.143 148.375 422.535 146.767 422.535 144.785C422.535 142.802 424.143 141.193 426.125 141.193C428.108 141.193 429.715 142.801 429.715 144.785Z" fill="url(#paint0_linear_2048_19485)"/>
<path d="M358.938 205.657V336.048H170.078V205.657H178.763L178.684 205.584L178.778 205.657H358.938Z" fill="#D9E2FF"/>
<path d="M358.937 200.355H170.172V330.748H358.937V200.355Z" fill="url(#paint1_linear_2048_19485)"/>
<path d="M358.937 195.582H170.172V325.975H358.937V195.582Z" fill="url(#paint2_linear_2048_19485)"/>
<g opacity="0.5">
<path d="M183.149 239.551V296.256C183.149 298.143 181.62 299.672 179.733 299.672C177.846 299.672 176.316 298.143 176.316 296.256V239.551C176.316 237.664 177.846 236.135 179.733 236.135C181.618 236.135 183.149 237.664 183.149 239.551Z" fill="url(#paint3_linear_2048_19485)"/>
</g>
<g opacity="0.5">
<path d="M183.149 222.197V227.937C183.149 229.824 181.62 231.353 179.733 231.353C177.846 231.353 176.316 229.824 176.316 227.937V222.197C176.316 220.312 177.846 218.781 179.733 218.781C181.62 218.781 183.149 220.312 183.149 222.197Z" fill="url(#paint4_linear_2048_19485)"/>
</g>
<path d="M246.37 263.062L175.64 325.974H170.172V322.65L242.304 258.494L246.37 263.062Z" fill="url(#paint5_linear_2048_19485)"/>
<path d="M358.938 323.092V325.974H352.976L282.246 263.062L286.312 258.494L358.938 323.092Z" fill="url(#paint6_linear_2048_19485)"/>
<path d="M358.933 195.58L330.336 221.014L270.772 273.988C267.225 277.145 261.877 277.145 258.328 273.988L198.776 221.022L170.168 195.58H358.933Z" fill="url(#paint7_linear_2048_19485)"/>
<path d="M330.334 174.749V221.014L312.185 237.154L305.93 242.718L296.221 251.353L289.966 256.917L280.257 265.551L274.001 271.116L270.77 273.989C267.224 277.146 261.876 277.146 258.327 273.989L255.096 271.116L248.841 265.551L239.132 256.917L232.875 251.353L223.166 242.718L216.911 237.154L198.773 221.023V174.749C198.773 170.582 202.15 167.204 206.318 167.204H322.791C326.958 167.204 330.334 170.582 330.334 174.749Z" fill="#D9E2FF"/>
<path d="M246.432 185.219H214.557C213.169 185.219 212.043 184.093 212.043 182.705V182.167C212.043 180.779 213.169 179.653 214.557 179.653H246.431C247.819 179.653 248.945 180.779 248.945 182.167V182.705C248.946 184.094 247.821 185.219 246.432 185.219Z" fill="#BBD4F2"/>
<path d="M318.502 200.12H214.825C213.288 200.12 212.043 198.875 212.043 197.338C212.043 195.801 213.288 194.556 214.825 194.556H318.502C320.039 194.556 321.284 195.801 321.284 197.338C321.284 198.875 320.039 200.12 318.502 200.12Z" fill="#BBD4F2"/>
<path d="M318.502 214.319H214.825C213.288 214.319 212.043 213.074 212.043 211.537C212.043 210 213.288 208.755 214.825 208.755H318.502C320.039 208.755 321.284 210 321.284 211.537C321.284 213.073 320.039 214.319 318.502 214.319Z" fill="#BBD4F2"/>
<path d="M318.502 228.519H214.825C213.288 228.519 212.043 227.273 212.043 225.736C212.043 224.199 213.288 222.954 214.825 222.954H318.502C320.039 222.954 321.284 224.199 321.284 225.736C321.284 227.273 320.039 228.519 318.502 228.519Z" fill="#BBD4F2"/>
<path d="M312.185 237.155L305.929 242.719H223.167L216.91 237.155H312.185Z" fill="#BBD4F2"/>
<path d="M296.22 251.353L289.964 256.917H239.13L232.875 251.353H296.22Z" fill="#BBD4F2"/>
<path d="M280.26 265.552L274.005 271.116H255.099L248.844 265.552H280.26Z" fill="#BBD4F2"/>
<path d="M329.017 182.085H327.998C318.971 182.085 311.652 174.766 311.652 165.739V164.72C311.652 155.693 318.971 148.374 327.998 148.374H329.017C338.045 148.374 345.363 155.693 345.363 164.72V165.739C345.363 174.767 338.045 182.085 329.017 182.085Z" fill="url(#paint8_linear_2048_19485)"/>
<path d="M331.994 182.085H330.975C321.948 182.085 314.629 174.766 314.629 165.739V164.72C314.629 155.693 321.948 148.374 330.975 148.374H331.994C341.021 148.374 348.34 155.693 348.34 164.72V165.739C348.34 174.767 341.021 182.085 331.994 182.085Z" fill="#8894FF"/>
<path d="M328.805 164.682L327.721 154.277H334.225L333.141 164.682H328.805ZM330.973 171.379C330.042 171.379 329.279 171.098 328.685 170.536C328.091 169.957 327.794 169.275 327.794 168.488C327.794 167.685 328.091 167.011 328.685 166.465C329.279 165.919 330.042 165.646 330.973 165.646C331.921 165.646 332.683 165.919 333.261 166.465C333.856 167.011 334.153 167.685 334.153 168.488C334.153 169.275 333.856 169.957 333.261 170.536C332.683 171.098 331.921 171.379 330.973 171.379Z" fill="white"/>
<path d="M499.431 354.576V355.949C499.431 362.774 497.241 369.086 493.524 374.22C487.856 382.06 478.632 387.161 468.217 387.161H58.6201C48.2045 387.161 38.9807 382.06 33.3127 374.22C29.5955 369.086 27.4062 362.774 27.4062 355.949V354.576H499.431Z" fill="#18285D"/>
<path d="M210.516 354.576V354.89C210.516 357.362 212.171 359.365 214.212 359.365H310.574C312.615 359.365 314.271 357.361 314.271 354.89V354.576H210.516Z" fill="white"/>
<path d="M493.528 374.221C487.86 382.061 478.636 387.162 468.22 387.162H58.6238C48.2082 387.162 38.9843 382.061 33.3164 374.221H493.528Z" fill="#021147"/>
<path d="M63.2826 334.429L59.1484 343.277L67.8895 343.413L71.2614 335.361L63.2826 334.429Z" fill="#FAB083"/>
<path d="M61.8983 342.724C61.8983 342.724 60.1032 340.312 58.6775 340.415C57.2517 340.519 46.2533 349.263 42.4849 349.986C38.7165 350.708 39.0664 354.547 40.6433 354.547C45.1853 354.547 70.1985 354.365 70.1985 354.365C70.1985 354.365 71.0051 345.623 70.0451 342.95C69.0851 340.277 64.8453 343.357 61.8983 342.724Z" fill="#8894FF"/>
<path d="M55.8211 348.827C55.954 348.866 56.104 348.854 56.2335 348.78C56.4868 348.636 56.5743 348.314 56.4312 348.06C56.3835 347.974 55.2326 345.976 53.683 345.196C51.6221 344.155 50.0157 345.319 49.9476 345.371C49.7135 345.543 49.6647 345.875 49.8385 346.109C50.0123 346.343 50.3429 346.392 50.5769 346.218C50.6201 346.186 51.7391 345.401 53.207 346.14C54.4692 346.776 55.503 348.565 55.5132 348.583C55.5837 348.706 55.6961 348.789 55.8211 348.827Z" fill="white"/>
<path d="M57.3914 347.341C57.5243 347.38 57.6732 347.368 57.8038 347.294C58.0572 347.15 58.1458 346.827 58.0015 346.574C57.9526 346.489 56.8029 344.49 55.2533 343.71C53.1913 342.668 51.586 343.834 51.5179 343.884C51.2838 344.057 51.235 344.388 51.4088 344.622C51.5815 344.856 51.9132 344.905 52.1473 344.731C52.1916 344.7 53.3106 343.914 54.7773 344.653C56.0452 345.291 57.0733 347.078 57.0824 347.096C57.154 347.219 57.2653 347.303 57.3914 347.341Z" fill="white"/>
<path d="M53.6883 350.033C53.8223 350.073 53.9712 350.06 54.1007 349.987C54.354 349.842 54.4426 349.52 54.2984 349.266C54.2495 349.182 53.0998 347.183 51.5502 346.402C49.4882 345.36 47.8829 346.526 47.8147 346.576C47.5807 346.75 47.5319 347.08 47.7057 347.314C47.8795 347.549 48.2101 347.597 48.4441 347.424C48.4884 347.392 49.6075 346.607 51.0742 347.345C52.342 347.984 53.3702 349.771 53.3793 349.789C53.4508 349.912 53.5633 349.996 53.6883 350.033Z" fill="white"/>
<path d="M60.7891 337.314L64.662 338.577L66.8148 338.706L70.5151 338.923C75.4036 335.056 88.5902 323.422 91.16 316.561C91.16 316.561 103.471 350.056 126.93 350.056C128.452 350.056 129.086 336.383 125.262 332.301C125.262 332.301 103.639 292.003 89.6217 296.281C83.3437 298.195 76.993 307.334 60.7891 337.314Z" fill="#18285D"/>
<path d="M64.6641 338.577L66.8169 338.705C81.2066 327.809 87.8731 318.582 90.9417 312.672C91.0473 312.466 91.22 312.4 91.3359 312.403C91.4359 312.406 91.5086 312.461 91.5551 312.578C98.4455 328.797 106.715 338.533 112.439 343.846C118.677 349.634 123.24 351.543 123.429 351.622L123.693 350.978L123.956 350.336C123.912 350.317 119.385 348.414 113.316 342.766C107.71 337.55 99.6066 327.984 92.8321 312.032C92.5742 311.419 92.0323 311.038 91.3881 311.013C90.694 310.985 90.0442 311.385 89.7079 312.03C86.6143 317.99 79.7592 327.408 64.6641 338.577Z" fill="#021147"/>
<path d="M74.3954 336.284C73.7796 337.436 72.7219 339.061 71.7108 339.847C71.7108 339.847 63.4242 339.465 59.3945 337.44L61.202 333.228C61.202 333.228 67.7981 335.635 74.3954 336.284Z" fill="#3B3E7D"/>
<path d="M126.344 263.786C126.344 263.786 110.286 282.955 103.541 286.105C100.58 287.487 97.656 287.975 95.4963 288.052C94.7715 288.079 92.8856 287.926 92.7822 287.923C92.7731 287.923 92.7652 287.926 92.7652 287.926C84.7524 286.933 75.3342 284.521 63.5508 279.722L65.3072 274.264C65.3072 274.264 72.3872 275.768 81.0635 276.388C84.2627 276.613 91.6427 276.951 94.3716 277.392C95.0475 277.089 95.7133 276.76 96.362 276.405C108.336 269.941 116.239 256.782 116.239 256.782C120.029 258.205 124.38 260.863 126.344 263.786Z" fill="#8894FF"/>
<path d="M65.6036 273.83C65.6036 273.83 63.9631 269.686 61.7306 268.503C59.4982 267.321 53.1453 263.156 51.7899 264.402C50.4346 265.648 50.7141 271.632 56.4092 276.634C60.0368 279.821 63.6927 279.686 63.6927 279.686L65.6036 273.83Z" fill="#FAB083"/>
<path d="M51.3863 268.208L60.7635 276.969C61.1157 277.3 61.7519 277.395 62.187 277.185L67.9345 274.406C68.1128 274.318 68.2299 274.193 68.2798 274.052L68.2935 274.007L68.5752 273.047L67.0506 272.47L52.2974 266.866L51.4976 266.564L51.1977 267.579L51.175 267.649C51.1704 267.657 51.1693 267.665 51.1727 267.674C51.1375 267.852 51.2102 268.046 51.3863 268.208Z" fill="#18285D"/>
<path d="M62.4741 276.211L68.2238 273.431C68.6578 273.221 68.7237 272.786 68.3726 272.457L58.9943 263.697C58.6432 263.369 58.007 263.272 57.573 263.482L51.8233 266.262C51.3893 266.472 51.3234 266.908 51.6756 267.236L61.0528 275.996C61.405 276.325 62.0412 276.42 62.4741 276.211Z" fill="#3B3E7D"/>
<path d="M61.7757 274.642L66.2303 272.488C66.6643 272.279 66.7302 271.842 66.3791 271.514L59.0855 264.701C58.7344 264.373 58.0971 264.276 57.6642 264.486L53.2097 266.64C52.7768 266.85 52.7098 267.286 53.062 267.614L60.3556 274.427C60.7067 274.755 61.3429 274.852 61.7757 274.642Z" fill="#58619B"/>
<path d="M61.8929 266.407C61.8929 266.407 60.5568 266.615 60.4205 267.764C60.2842 268.912 61.527 268.455 62.3257 268.203C63.1244 267.951 63.8447 268.204 63.9537 268.334C64.3036 268.744 64.2434 266.066 61.8929 266.407Z" fill="#FAB083"/>
<path d="M55.9217 272.644C55.9217 272.644 53.8256 269.199 52.2192 267.318C51.149 266.063 50.6025 267.882 51.3353 269.15C52.0681 270.418 53.5132 273 55.9217 272.644Z" fill="#FAB083"/>
<path d="M137.616 243.929C137.616 243.929 147.737 243.98 152.35 248.15C156.964 252.321 152.56 260.795 147.556 261.881C142.551 262.967 126.925 261.115 125.3 258.436C123.674 255.759 124.705 244.134 137.616 243.929Z" fill="#8894FF"/>
<path d="M153.579 334.749L158.498 303.027L157.431 259.267L145.661 255.287L145.03 255.073L142.388 254.18L140.291 253.473L127.864 255.185L125.842 255.462L125.129 255.561L116.239 256.784C116.155 284.909 118.855 290.984 113.657 313.862C111.044 322.487 120.641 353.049 153.579 334.749Z" fill="#8894FF"/>
<path d="M136.777 262.003C145.68 261.97 147.747 254.123 147.767 254.044C147.811 253.868 147.705 253.689 147.529 253.645C147.354 253.6 147.174 253.708 147.13 253.884C147.053 254.189 145.155 261.315 136.777 261.346C136.73 261.346 136.685 261.346 136.638 261.346C136.462 261.355 136.309 261.491 136.309 261.672C136.307 261.853 136.454 262.001 136.636 262.002C136.682 262.003 136.731 262.003 136.777 262.003Z" fill="url(#paint9_linear_2048_19485)"/>
<path d="M128.408 260.774C128.586 260.773 128.733 260.63 128.735 260.45C128.737 260.27 128.593 260.12 128.412 260.116C128.295 260.114 125.706 260.01 125.037 256.51C125.003 256.332 124.833 256.215 124.653 256.249C124.475 256.283 124.358 256.456 124.393 256.633C125.167 260.679 128.369 260.773 128.402 260.773C128.402 260.773 128.406 260.774 128.408 260.774Z" fill="url(#paint10_linear_2048_19485)"/>
<path d="M142.784 305.17C142.784 305.17 144.23 316.209 141.285 321.611C141.285 321.611 126.642 322.637 115.996 318.451C115.996 318.451 118.656 310.745 118.697 303.222L142.784 305.17Z" fill="#8894FF"/>
<path d="M134.964 293.486C134.973 293.486 134.983 293.486 134.992 293.485C135.173 293.469 135.307 293.309 135.29 293.128C134.554 284.944 137.62 264.282 137.651 264.074C137.678 263.894 137.554 263.727 137.375 263.7C137.195 263.673 137.028 263.797 137.001 263.976C136.969 264.185 133.891 284.924 134.636 293.186C134.651 293.358 134.795 293.487 134.964 293.486Z" fill="white"/>
<path d="M124.133 291.884C124.142 291.884 124.153 291.884 124.162 291.883C124.342 291.867 124.475 291.707 124.459 291.526C123.723 283.342 126.893 262.518 126.925 262.309C126.952 262.13 126.829 261.963 126.65 261.936C126.47 261.907 126.303 262.031 126.275 262.211C126.243 262.421 123.061 283.324 123.804 291.586C123.821 291.757 123.965 291.885 124.133 291.884Z" fill="white"/>
<path d="M166.297 345.825C166.297 345.825 162.651 350.769 162.951 353.326C163.252 355.885 166.554 360.705 169.193 360.938C171.832 361.171 166.161 354.743 167.499 354.951C169.119 355.202 180.054 364.174 182.362 364.174C184.67 364.174 179.647 360.004 177.691 358.95C177.691 358.95 182.864 361.264 184.069 362.468C185.273 363.673 186.147 361.09 180.128 357.428C180.128 357.428 185.649 360.562 186.025 360.612C187.253 360.776 183.749 356.668 180.732 355.182C180.732 355.182 185.158 357.337 185.608 357.346C186.231 357.359 184.896 355.911 181.61 354.09C178.655 352.452 173.812 344.931 173.812 344.931L166.297 345.825Z" fill="#FAB083"/>
<path d="M157.428 259.267C157.428 259.267 169.7 282.838 172.494 307.493L173.811 344.931C173.811 344.931 172.55 347.598 166.296 345.825L160.247 308.392L155.612 291.264C155.612 291.264 153.505 270.187 157.428 259.267Z" fill="#8894FF"/>
<path d="M119.736 233.781C121.041 241.155 128.075 246.078 135.45 244.773C142.824 243.47 147.745 236.435 146.442 229.06C145.138 221.686 138.104 216.764 130.729 218.068C123.355 219.371 118.433 226.405 119.736 233.781Z" fill="#021147"/>
<path d="M119.533 231.347C119.533 231.347 115.567 230.971 115.417 227.213C115.29 224.014 119.317 225.391 118.563 223.007C117.808 220.623 116.7 218.53 119.75 217.361C122.419 216.339 122.799 218.223 125.941 214.836C129.652 210.833 134.273 217.764 138.138 217.315C143.837 216.65 145.114 219.715 146.12 222.169C147.125 224.623 145.271 226.797 145.271 226.797L119.533 231.347Z" fill="#021147"/>
<path d="M122.64 237.121C122.64 237.121 120.026 234.675 118.866 237.285C117.705 239.894 121.146 246.389 124.7 244.028L122.64 237.121Z" fill="#FC8664"/>
<path d="M123.483 242.047C123.341 242.072 123.193 242.002 123.128 241.866C122.155 239.844 119.8 239.372 119.776 239.367C119.597 239.333 119.48 239.161 119.514 238.981C119.548 238.802 119.72 238.685 119.899 238.717C120.009 238.738 122.604 239.251 123.724 241.578C123.802 241.743 123.734 241.941 123.57 242.019C123.541 242.034 123.513 242.043 123.483 242.047Z" fill="#FD664D"/>
<path d="M121.072 241.369C121.011 241.379 120.948 241.374 120.886 241.349C120.718 241.278 120.639 241.084 120.709 240.916C120.721 240.887 121.006 240.224 121.757 239.715C121.907 239.613 122.113 239.652 122.216 239.804C122.318 239.955 122.279 240.16 122.127 240.263C121.547 240.656 121.32 241.167 121.319 241.171C121.274 241.279 121.178 241.351 121.072 241.369Z" fill="#FD664D"/>
<path d="M140.261 247.301L141.472 254.15C141.472 254.15 139.19 257.666 136.469 258.392C133.751 259.121 131.493 256.14 131.493 256.14L130.328 249.552L140.261 247.301Z" fill="#FAB083"/>
<path d="M140.26 247.301L140.797 250.34C139.308 252.724 136.106 253.821 131.107 253.963L130.328 249.554L140.26 247.301Z" fill="#FC8664"/>
<path d="M144.374 228.434C144.717 231.118 145.052 234.491 145.015 237.243C145.006 237.929 144.973 238.579 144.911 239.167C144.361 244.469 142.287 253.763 131.555 251.941C126.816 251.138 123.872 246.537 122.059 241.651C120.829 238.331 120.121 234.883 119.729 232.398C119.33 229.862 120.301 227.308 122.282 225.672C127.643 221.241 134.153 221.389 138.573 222.249C141.64 222.843 143.979 225.339 144.374 228.434Z" fill="#FAB083"/>
<path d="M127.876 237.118C128.006 237.85 127.733 238.508 127.268 238.59C126.804 238.672 126.322 238.146 126.192 237.416C126.063 236.685 126.336 236.025 126.8 235.943C127.265 235.86 127.747 236.386 127.876 237.118Z" fill="#021147"/>
<path d="M137.732 235.374C137.861 236.106 137.588 236.765 137.124 236.847C136.659 236.929 136.177 236.403 136.048 235.672C135.918 234.941 136.191 234.282 136.656 234.2C137.12 234.118 137.602 234.644 137.732 235.374Z" fill="#021147"/>
<path d="M123.58 233.684C123.58 233.684 126.839 231.68 129.743 232.369L129.74 233.66C129.74 233.66 126.703 233.525 124.031 235.097C123.748 234.552 123.456 234.318 123.58 233.684Z" fill="#021147"/>
<path d="M139.612 230.85C139.612 230.85 135.864 230.084 133.371 231.727L133.818 232.939C133.818 232.939 136.624 231.77 139.673 232.332C139.75 231.724 139.944 231.405 139.612 230.85Z" fill="#021147"/>
<path d="M133.458 241.502C134.007 241.405 134.514 241.096 134.592 241.046C134.746 240.948 134.792 240.745 134.695 240.59C134.598 240.436 134.393 240.389 134.239 240.487C133.966 240.658 133.294 240.97 132.955 240.841C132.889 240.816 132.797 240.761 132.742 240.566C132.424 239.451 132.061 235.587 132.058 235.548C132.041 235.366 131.879 235.233 131.699 235.25C131.516 235.266 131.383 235.428 131.4 235.61C131.415 235.771 131.771 239.574 132.107 240.748C132.233 241.19 132.51 241.379 132.72 241.459C132.952 241.547 133.21 241.547 133.458 241.502Z" fill="#FC8664"/>
<path d="M129.719 244.216C130.221 245.507 131.54 247.813 134.519 247.286C137.503 246.759 137.943 244.361 137.956 242.76L129.719 244.216Z" fill="white"/>
<path d="M134.775 248.993C135.617 248.844 136.255 248.291 136.282 248.268C136.42 248.148 136.433 247.939 136.313 247.802C136.193 247.665 135.984 247.651 135.847 247.772C135.843 247.776 135.317 248.227 134.66 248.343C134.058 248.45 133.421 248.206 133.414 248.203C133.244 248.136 133.052 248.218 132.984 248.388C132.917 248.558 132.999 248.75 133.17 248.818C133.202 248.83 133.98 249.134 134.775 248.993Z" fill="#FC8664"/>
<path d="M122.691 239.351C122.208 238.052 121.658 236.363 121.679 235.444C121.718 233.817 122.856 232.662 122.154 231.224C121.451 229.78 122.765 227.868 123.897 227.39C125.027 226.908 127.886 227.008 130.37 225.242C132.741 223.553 137.396 223.639 138.425 225.17C139.667 227.025 138.494 227.429 141.3 229.176C142.418 229.872 141.672 232.326 141.767 233.82C141.812 234.507 141.86 234.838 142.015 235.557L142.09 235.923L144.988 235.411C144.906 233.083 144.646 230.546 144.375 228.434C143.98 225.339 141.64 222.846 138.572 222.249C134.151 221.389 127.643 221.239 122.28 225.672C120.302 227.308 119.329 229.861 119.729 232.398C120.039 234.368 120.549 236.947 121.362 239.587L122.691 239.351Z" fill="#021147"/>
<path d="M143.922 236.888C143.779 236.131 143.698 235.363 143.699 234.594C143.699 233.541 143.832 232.563 144.801 231.953C145.582 231.462 146.478 231.296 147.284 232.131C149.268 234.185 148.799 241.752 144.651 240.752L143.922 236.888Z" fill="#FAB083"/>
<path d="M145.026 238.506C145.16 238.454 145.25 238.316 145.235 238.165C145.015 235.933 146.781 234.305 146.798 234.289C146.934 234.166 146.944 233.957 146.822 233.822C146.701 233.687 146.492 233.675 146.356 233.798C146.274 233.873 144.324 235.66 144.577 238.231C144.596 238.413 144.757 238.545 144.939 238.528C144.969 238.523 144.999 238.516 145.026 238.506Z" fill="#FC8664"/>
<path d="M146.736 236.671C146.793 236.648 146.845 236.611 146.884 236.557C146.991 236.41 146.958 236.203 146.81 236.096C146.785 236.078 146.198 235.66 145.291 235.616C145.109 235.607 144.954 235.747 144.946 235.929C144.937 236.111 145.078 236.267 145.259 236.276C145.96 236.31 146.418 236.628 146.423 236.631C146.516 236.699 146.635 236.711 146.736 236.671Z" fill="#FC8664"/>
<path d="M154.4 341.843C154.186 342.812 153.814 343.803 153.243 344.789C151.527 347.753 148.007 350.71 141.472 353.086C127.927 358.006 102.025 355.695 102.025 355.695C102.339 365.8 78.2584 399.84 78.2584 399.84L77.0757 399.075L75.9623 398.355L71.3203 395.354C71.3203 395.354 87.2266 338.176 98.0421 336.539C136.305 330.748 153.576 334.749 153.576 334.749C154.405 336.659 154.995 339.172 154.4 341.843Z" fill="#3B3E7D"/>
<path d="M154.4 341.844C154.187 342.813 153.814 343.803 153.244 344.79C147.668 349.3 137.742 351.915 123.663 352.583C113.266 353.073 103.801 352.288 101.3 352.05C98.8275 369.451 80.8512 394.066 77.076 399.077C76.7182 399.552 76.4898 399.848 76.4114 399.95C76.283 400.12 76.0865 400.208 75.89 400.208C75.7491 400.208 75.6059 400.161 75.4855 400.067C75.1981 399.848 75.1458 399.432 75.3685 399.144C75.3889 399.118 75.6003 398.846 75.9627 398.357C79.5391 393.589 98.022 368.215 100.075 351.254C100.116 350.894 100.441 350.638 100.799 350.677C101.223 350.723 143.107 355.104 154.4 341.844Z" fill="#18285D"/>
<path d="M72.2158 395.353L66.5547 401.977L73.3155 406.026L78.2575 399.839L72.2158 395.353Z" fill="#FAB083"/>
<path d="M79.9446 399.704C79.1119 401.65 78.5313 402.277 77.2135 403.238C77.2135 403.238 72.9543 401.285 68.5781 397.469L71.3195 393.767C71.3195 393.767 74.5585 395.841 79.9446 399.704Z" fill="#58619B"/>
<path d="M68.4726 402.433C68.4726 402.433 68.125 399.447 66.8389 398.823C65.5529 398.199 51.654 400.264 48.0299 399.003C44.4058 397.742 42.788 401.24 44.1525 402.03C48.0844 404.303 69.8302 416.665 69.8302 416.665C69.8302 416.665 74.9028 409.499 75.4107 406.705C75.9208 403.911 70.7073 404.455 68.4726 402.433Z" fill="#8894FF"/>
<path d="M60.1541 404.673C60.2495 404.774 60.3847 404.838 60.5347 404.839C60.8266 404.84 61.0629 404.606 61.0663 404.314C61.0675 404.216 61.0709 401.91 60.12 400.459C58.8567 398.527 56.8821 398.731 56.7992 398.741C56.5095 398.774 56.3016 399.037 56.3357 399.326C56.3686 399.616 56.6311 399.824 56.9208 399.79C56.9742 399.784 58.3363 399.664 59.2372 401.039C60.0121 402.221 60.0109 404.288 60.0109 404.308C60.0098 404.449 60.0643 404.577 60.1541 404.673Z" fill="white"/>
<path d="M62.2623 404.174C62.3577 404.275 62.4929 404.338 62.6429 404.339C62.9349 404.341 63.1723 404.107 63.1746 403.815C63.1757 403.717 63.1791 401.411 62.2294 399.96C60.9649 398.026 58.9915 398.232 58.9086 398.241C58.6189 398.274 58.411 398.536 58.4451 398.826C58.478 399.116 58.7393 399.324 59.0301 399.29C59.0835 399.285 60.4457 399.165 61.3466 400.538C62.1248 401.725 62.1192 403.787 62.1192 403.808C62.118 403.95 62.1726 404.078 62.2623 404.174Z" fill="white"/>
<path d="M57.7048 404.65C57.8003 404.751 57.9355 404.815 58.0854 404.816C58.3774 404.817 58.6149 404.583 58.6171 404.291C58.6171 404.193 58.6217 401.887 57.6708 400.436C56.4074 398.503 54.4341 398.708 54.35 398.717C54.0603 398.75 53.8524 399.013 53.8865 399.303C53.9194 399.592 54.1819 399.8 54.4716 399.766C54.5249 399.762 55.8883 399.641 56.788 401.015C57.5651 402.202 57.5617 404.264 57.5606 404.284C57.5606 404.425 57.6151 404.555 57.7048 404.65Z" fill="white"/>
<path d="M381.245 392.118L379.664 399.35C379.664 399.35 383.998 402.566 387.06 400.825L388.653 393.763L381.245 392.118Z" fill="#FAB083"/>
<path d="M381.146 398.917C381.146 398.917 379.934 396.455 378.636 396.312C377.339 396.169 366.018 402.198 362.515 402.222C359.013 402.247 358.464 406.504 359.718 407.212C361.147 408.018 386.368 411.811 386.368 411.811C386.368 411.811 388.84 403.027 388.422 400.469C388.003 397.909 383.687 399.973 381.146 398.917Z" fill="#8894FF"/>
<path d="M374.677 403.388C374.789 403.446 374.925 403.46 375.055 403.414C375.306 403.327 375.439 403.052 375.351 402.801C375.322 402.717 374.62 400.732 373.359 399.776C371.682 398.5 370.046 399.28 369.977 399.313C369.738 399.43 369.639 399.719 369.756 399.957C369.873 400.196 370.162 400.295 370.402 400.178C370.446 400.156 371.581 399.637 372.776 400.542C373.804 401.322 374.435 403.1 374.441 403.118C374.483 403.24 374.571 403.334 374.677 403.388Z" fill="white"/>
<path d="M376.337 402.315C376.449 402.373 376.586 402.386 376.715 402.341C376.966 402.254 377.099 401.979 377.012 401.728C376.982 401.644 376.28 399.659 375.019 398.702C373.34 397.425 371.706 398.206 371.637 398.24C371.398 398.357 371.299 398.645 371.416 398.885C371.533 399.124 371.822 399.223 372.062 399.105C372.106 399.085 373.241 398.565 374.436 399.47C375.469 400.254 376.095 402.028 376.102 402.046C376.144 402.166 376.23 402.259 376.337 402.315Z" fill="white"/>
<path d="M372.563 404.117C372.676 404.175 372.812 404.189 372.942 404.144C373.193 404.056 373.326 403.781 373.238 403.53C373.209 403.446 372.507 401.461 371.245 400.504C369.566 399.227 367.933 400.008 367.863 400.041C367.625 400.158 367.526 400.448 367.643 400.686C367.76 400.925 368.049 401.024 368.288 400.907C368.333 400.886 369.469 400.366 370.663 401.272C371.694 402.055 372.321 403.829 372.328 403.847C372.37 403.969 372.458 404.063 372.563 404.117Z" fill="white"/>
<path d="M417.021 281.625C416.373 284.411 415.726 287.279 415.068 290.219C411.193 307.592 406.998 327.567 400.83 347.561C398.579 365.489 394.652 376.88 389.368 394.931C388.845 395.034 388.084 395.055 387.2 395.003C386.87 394.982 386.521 394.952 386.161 394.9C383.962 394.633 381.33 393.913 379.664 392.659C379.664 392.659 382.871 370.804 387.312 346.203C389.676 333.076 393.871 300.93 395.866 285.366C396.544 280.021 396.965 276.639 396.965 276.639L413.783 280.823L414.06 280.884L414.779 281.069L417.021 281.625Z" fill="#3B3E7D"/>
<path d="M417.023 281.625C416.376 284.41 415.728 287.279 415.07 290.219L395.867 285.367C396.545 280.022 396.967 276.64 396.967 276.64L413.784 280.824L414.062 280.885L414.781 281.07L417.023 281.625Z" fill="#18285D"/>
<path d="M414.775 281.059V281.069L398.842 347.251C398.821 347.426 395.737 369.096 387.195 395.002C386.865 394.982 386.516 394.951 386.156 394.899C394.71 368.994 397.803 347.282 397.834 347.056L413.778 280.822L414.055 280.884L414.775 281.059Z" fill="#18285D"/>
<path d="M428.758 391.506L429.401 401.007L436.339 399.345V391.506H428.758Z" fill="#FAB083"/>
<path d="M431.836 399.043C431.836 399.043 435.52 398.065 436.538 398.085C437.556 398.107 444.369 405.742 446.666 406.195C450.831 407.014 450.829 413.519 448.294 413.838C440.961 414.764 428.422 411.652 428.422 411.652C428.422 411.652 427.276 403.304 427.781 400.687C428.286 398.069 429.786 399.811 431.836 399.043Z" fill="#8894FF"/>
<path d="M437.899 406.174C437.768 406.203 437.626 406.18 437.506 406.099C437.273 405.942 437.211 405.627 437.368 405.395C437.42 405.318 438.668 403.482 440.211 402.844C442.262 401.993 443.72 403.227 443.781 403.279C443.994 403.462 444.016 403.784 443.832 403.996C443.649 404.209 443.328 404.232 443.115 404.047C443.076 404.013 442.059 403.18 440.597 403.783C439.34 404.302 438.22 405.946 438.209 405.962C438.135 406.074 438.021 406.147 437.899 406.174Z" fill="white"/>
<path d="M436.495 404.636C436.364 404.664 436.222 404.642 436.103 404.561C435.87 404.404 435.809 404.088 435.966 403.857C436.018 403.778 437.267 401.944 438.808 401.306C440.861 400.455 442.318 401.689 442.379 401.742C442.591 401.925 442.614 402.247 442.43 402.458C442.247 402.671 441.926 402.693 441.714 402.509C441.675 402.476 440.657 401.641 439.196 402.245C437.933 402.767 436.819 404.407 436.808 404.424C436.731 404.536 436.618 404.609 436.495 404.636Z" fill="white"/>
<path d="M439.858 407.485C439.728 407.513 439.586 407.491 439.466 407.41C439.234 407.253 439.172 406.937 439.329 406.704C439.381 406.627 440.629 404.791 442.171 404.154C444.224 403.303 445.681 404.537 445.742 404.589C445.955 404.773 445.977 405.093 445.793 405.306C445.61 405.518 445.289 405.541 445.078 405.357C445.038 405.324 444.02 404.489 442.559 405.092C441.297 405.614 440.182 407.255 440.171 407.271C440.096 407.386 439.982 407.459 439.858 407.485Z" fill="white"/>
<path d="M437.283 392.534C435.659 393.233 433.315 393.438 431.054 393.397C430.704 393.397 430.355 393.387 430.016 393.357C429.183 393.326 428.381 393.254 427.651 393.171L417.711 290.095L416.898 281.624L418.81 281.48L419.839 281.408L436.894 280.164C436.894 280.164 436.883 282.241 436.883 285.623C436.873 297.239 436.934 324.296 437.592 335.984C438.434 351.085 437.283 392.534 437.283 392.534Z" fill="#3B3E7D"/>
<path d="M436.893 280.164C436.893 280.164 436.883 282.241 436.883 285.623L417.711 290.095L416.898 281.624L418.81 281.48L419.839 281.408L436.893 280.164Z" fill="#18285D"/>
<path d="M431.048 393.398C430.698 393.398 430.35 393.387 430.01 393.357L418.805 281.48L419.833 281.408L431.048 393.398Z" fill="#18285D"/>
<path d="M432.75 221.387L437.335 236.115L442.356 250.116C443.163 253.047 446.399 254.556 449.163 253.294C449.212 253.272 449.26 253.25 449.308 253.229C454.084 250.97 451.451 241.604 451.451 241.604L450.549 241.534C450.182 240.506 449.19 237.891 447.928 234.604C447.776 234.2 447.616 233.784 447.454 233.363C447.186 232.665 446.908 231.944 446.625 231.204C446.222 230.158 445.806 229.08 445.384 227.994C442.29 219.966 439.726 211.254 439.726 211.254L437.589 204.91L432.75 221.387Z" fill="#FAB083"/>
<path d="M446.312 244.819C446.312 244.819 446.97 234.149 449.247 231.88C451.524 229.612 453.602 228.746 455.737 228.823C457.872 228.9 459.881 229.165 459.749 230.043C459.749 230.043 464.653 229.303 466.844 230.573C469.033 231.844 460.358 232.956 457.782 233.023C455.207 233.09 453.846 234.53 453.742 236.064C453.638 237.599 452.152 247.767 452.152 247.767L446.312 244.819Z" fill="#FAB083"/>
<path d="M433.461 225.303C433.461 225.303 441.563 251.174 443.419 252.932C445.274 254.689 449.442 256.488 451.717 251.755C453.991 247.021 454.446 234.379 454.446 234.379L448.788 231.747L447.903 234.534L437.678 204.846C437.678 204.846 434.046 223.351 433.461 225.303Z" fill="#8894FF"/>
<path d="M445.628 244.602C445.648 244.605 445.665 244.605 445.685 244.606C445.868 244.607 446.031 244.475 446.059 244.289C446.757 239.849 447.436 236.499 447.901 234.532C447.747 234.129 447.642 233.736 447.482 233.315C447.045 235.049 446.16 238.789 445.313 244.171C445.282 244.376 445.422 244.568 445.628 244.602Z" fill="url(#paint11_linear_2048_19485)"/>
<path d="M443.714 230.735L476.222 230.952C477.444 230.96 478.442 229.976 478.451 228.753V228.734C478.459 227.512 477.475 226.514 476.253 226.505L443.745 226.288C442.522 226.28 441.525 227.264 441.516 228.486V228.506C441.507 229.728 442.492 230.727 443.714 230.735Z" fill="#18285D"/>
<path d="M478.427 230.967L485.544 205.015C485.943 203.557 484.853 202.116 483.341 202.106L468.064 202.004C467.033 201.997 466.123 202.677 465.838 203.667L458.012 230.831L478.427 230.967Z" fill="#3B3E7D"/>
<path d="M465.836 203.667L458.074 230.607L456.328 230.596L464.09 203.656C464.377 202.665 465.285 201.984 466.317 201.991L468.063 202.003C467.031 201.996 466.123 202.676 465.836 203.667Z" fill="#18285D"/>
<path d="M469.669 217.626C469.262 219.338 470.32 220.735 472.035 220.747C473.749 220.758 475.471 219.379 475.879 217.667C476.288 215.955 475.228 214.557 473.514 214.546C471.8 214.535 470.078 215.914 469.669 217.626Z" fill="#58619B"/>
<path d="M347.006 194.671C346.367 194.746 345.755 194.677 345.235 194.403C343.86 193.684 342.717 192.969 342.057 192.535C341.665 192.267 341.44 192.111 341.44 192.111C341.44 192.111 341.424 192.111 341.413 192.123C341.263 192.149 340.522 192.257 339.277 191.548C337.876 190.742 337.146 189.385 337.323 188.638C337.495 187.892 338.466 187.699 338.466 187.699C338.466 187.699 337.977 186.99 338.219 186.217C338.461 185.439 340.012 185.042 340.012 185.042C340.012 185.042 339.577 184.065 340.355 183.426C341.096 182.809 342.743 183.979 342.889 184.07C342.668 183.84 337.731 178.666 339.195 178.633C340.693 178.601 345.894 183.361 346.14 183.469C346.382 183.582 347.649 183.495 348.877 183.662C350.106 183.824 350.713 184.387 351.266 186.244C351.819 188.101 351.643 191.098 351.643 191.098C352.024 191.382 352.76 192.046 353.201 192.367C353.201 192.367 353.471 192.514 353.499 192.53C354.422 193.061 368.908 201.159 373.552 204.782C373.557 204.782 373.557 204.788 373.562 204.788C373.728 204.916 373.991 205.024 374.34 205.121C379.112 206.414 399.674 204.863 399.674 204.863L400.737 216.108C400.737 216.108 380.089 217.331 370.245 212.43C362.478 208.566 350.032 196.931 350.032 196.931L347.006 194.671Z" fill="#FAB083"/>
<path d="M348.691 188.614C348.744 188.628 348.801 188.63 348.858 188.616C349.041 188.573 349.154 188.388 349.111 188.205L348.742 186.652C348.719 186.559 348.659 186.479 348.576 186.433C348.492 186.386 348.393 186.377 348.302 186.407C348.285 186.412 346.526 186.978 345.241 186.266C344.848 186.048 344.612 185.797 344.559 185.54C344.497 185.25 344.679 185.006 344.681 185.004C344.794 184.855 344.768 184.64 344.62 184.527C344.472 184.412 344.261 184.436 344.144 184.582C344.105 184.631 343.77 185.075 343.888 185.667C343.982 186.135 344.326 186.537 344.911 186.863C346.087 187.517 347.507 187.305 348.16 187.153L348.447 188.364C348.477 188.489 348.574 188.582 348.691 188.614Z" fill="#FC8664"/>
<path d="M341.41 192.12C341.428 192.113 341.439 192.11 341.439 192.11C341.439 192.11 341.662 192.269 342.059 192.531C342.82 192.004 343.08 191.199 343.302 190.523C343.493 189.936 343.66 189.427 344.074 189.135C344.504 188.835 344.75 188.442 344.884 188.039C345.018 187.652 345.046 187.255 345.03 186.923C345.025 186.799 345.016 186.683 345.002 186.583C344.969 186.32 344.919 186.144 344.914 186.121C344.862 185.939 344.673 185.832 344.491 185.886C344.311 185.936 344.205 186.124 344.256 186.306C344.257 186.31 344.264 186.337 344.274 186.387C344.321 186.592 344.414 187.157 344.269 187.7C344.181 188.027 344.005 188.349 343.68 188.577C343.079 188.999 342.86 189.666 342.65 190.312C342.412 191.044 342.185 191.742 341.41 192.12Z" fill="#FC8664"/>
<path d="M346.656 190.899C346.78 190.932 346.917 190.893 347.006 190.79C347.128 190.646 347.109 190.431 346.965 190.309C346.948 190.295 345.245 188.823 345.548 186.907C345.578 186.72 345.45 186.546 345.264 186.516C345.078 186.486 344.903 186.614 344.874 186.8C344.51 189.102 346.441 190.762 346.524 190.831C346.564 190.864 346.61 190.886 346.656 190.899Z" fill="#FC8664"/>
<path d="M438.617 280.48C430.494 282.359 423.93 283.319 417.446 283.378C417.406 283.378 417.367 283.383 417.328 283.378C417.288 283.383 417.25 283.378 417.208 283.378C410.723 283.319 404.163 282.359 396.037 280.48C394.9 265.917 399.876 256.697 399.322 240.372C399.318 240.231 399.312 240.088 399.308 239.947C399.283 239.241 399.251 238.543 399.217 237.846C399.152 236.523 399.073 235.213 398.983 233.924C398.935 233.218 398.881 232.517 398.827 231.824C397.707 217.719 395.472 206.545 396.684 205.016C398 203.355 401.347 201.395 404.748 199.576C407.975 197.855 411.248 196.259 412.888 195.167C414.515 195.876 415.811 196.263 417.208 196.258C417.245 196.258 417.287 196.258 417.328 196.253C417.367 196.258 417.408 196.258 417.446 196.258C418.841 196.264 420.139 195.877 421.768 195.167C423.289 196.179 426.157 197.591 429.08 199.132C432.635 201.005 436.275 203.068 437.68 204.844C438.943 206.439 436.678 218.658 435.674 233.655C435.629 234.329 435.587 235.006 435.547 235.691C435.461 237.169 435.39 238.67 435.337 240.187C435.335 240.248 435.333 240.309 435.332 240.369C435.31 240.969 435.297 241.559 435.292 242.139C435.134 257.381 439.711 266.451 438.617 280.48Z" fill="#8894FF"/>
<path d="M430.472 262.068H430.47C422.282 262.032 415.294 258.307 410.874 255.187C406.093 251.814 403.195 248.396 403.166 248.362C403.027 248.196 403.048 247.947 403.214 247.806C403.381 247.666 403.629 247.688 403.769 247.854C403.797 247.888 406.642 251.24 411.345 254.556C415.67 257.604 422.499 261.245 430.472 261.28C430.69 261.281 430.865 261.458 430.864 261.675C430.865 261.894 430.689 262.068 430.472 262.068Z" fill="url(#paint12_linear_2048_19485)"/>
<path d="M421.942 264.85C414.837 264.85 407.752 260.801 407.431 260.615C407.242 260.506 407.179 260.265 407.288 260.077C407.397 259.888 407.638 259.824 407.826 259.932C407.909 259.98 416.246 264.741 423.637 263.977C423.856 263.952 424.047 264.112 424.07 264.328C424.093 264.544 423.935 264.738 423.719 264.761C423.127 264.822 422.534 264.85 421.942 264.85Z" fill="url(#paint13_linear_2048_19485)"/>
<path d="M415.651 215.077C415.466 215.077 415.3 214.946 415.265 214.757C415.224 214.543 415.365 214.337 415.578 214.297C425.56 212.403 428.57 205.982 428.598 205.917C428.688 205.719 428.921 205.631 429.119 205.721C429.317 205.81 429.406 206.043 429.316 206.242C429.19 206.522 426.105 213.102 415.725 215.072C415.7 215.075 415.675 215.077 415.651 215.077Z" fill="url(#paint14_linear_2048_19485)"/>
<path d="M418.154 202.775C412.422 203.366 410.321 196.425 410.301 196.354C410.256 196.203 410.343 196.046 410.494 196.001C410.645 195.958 410.802 196.043 410.846 196.195C410.928 196.473 412.916 203.021 418.428 202.167C423.253 201.423 422.984 196.011 422.97 195.781C422.961 195.624 423.078 195.489 423.236 195.48C423.393 195.471 423.527 195.589 423.537 195.746C423.541 195.807 423.854 201.905 418.515 202.728C418.393 202.748 418.273 202.762 418.154 202.775Z" fill="white"/>
<path d="M406.471 179.626C406.471 179.626 401.753 171.561 405.732 165.334C409.71 159.107 418.16 159.694 420.35 160.184C422.539 160.674 435.141 166.582 427.518 180.913L406.471 179.626Z" fill="#021147"/>
<path d="M407.259 177.344C407.259 177.344 405.349 174.798 403.929 176.903C402.509 179.008 404.517 185.227 407.993 183.709L407.259 177.344Z" fill="#FC8664"/>
<path d="M407.235 181.788C407.107 181.788 406.989 181.703 406.952 181.573C406.414 179.653 404.425 178.875 404.404 178.867C404.253 178.809 404.177 178.64 404.234 178.489C404.292 178.337 404.461 178.26 404.612 178.318C404.705 178.353 406.897 179.204 407.517 181.415C407.561 181.571 407.469 181.733 407.314 181.777C407.289 181.784 407.261 181.788 407.235 181.788Z" fill="#FD664D"/>
<path d="M405.227 180.82C405.173 180.82 405.118 180.805 405.068 180.773C404.932 180.686 404.892 180.504 404.981 180.367C404.996 180.344 405.348 179.808 406.084 179.478C406.232 179.411 406.406 179.478 406.473 179.626C406.538 179.774 406.473 179.947 406.325 180.014C405.756 180.269 405.478 180.681 405.476 180.685C405.418 180.772 405.324 180.82 405.227 180.82Z" fill="#FD664D"/>
<path d="M426.937 177.344C426.937 177.344 428.847 174.798 430.267 176.903C431.687 179.008 429.68 185.227 426.203 183.709L426.937 177.344Z" fill="#FC8664"/>
<path d="M426.965 181.788C427.093 181.788 427.211 181.703 427.248 181.573C427.786 179.653 429.775 178.875 429.796 178.867C429.947 178.809 430.024 178.64 429.966 178.489C429.908 178.337 429.739 178.26 429.588 178.318C429.495 178.353 427.303 179.204 426.683 181.415C426.639 181.571 426.731 181.733 426.886 181.777C426.911 181.784 426.939 181.788 426.965 181.788Z" fill="#FD664D"/>
<path d="M428.97 180.82C429.024 180.82 429.08 180.805 429.129 180.773C429.265 180.686 429.305 180.504 429.216 180.367C429.202 180.344 428.85 179.808 428.113 179.478C427.966 179.411 427.792 179.478 427.725 179.626C427.659 179.774 427.725 179.947 427.872 180.014C428.442 180.269 428.719 180.681 428.721 180.685C428.779 180.772 428.873 180.82 428.97 180.82Z" fill="#FD664D"/>
<path d="M421.802 188.982V195.166C421.802 195.166 419.958 198.315 417.463 198.53C414.972 198.747 412.758 195.818 412.758 195.818V189.416L421.802 188.982Z" fill="#FAB083"/>
<path d="M421.802 188.982V191.726C420.129 193.584 417.157 194.047 412.758 193.397V189.416L421.802 188.982Z" fill="#FC8664"/>
<path d="M428.32 173.102C428.205 175.505 427.976 178.511 427.518 180.914C427.403 181.514 427.274 182.077 427.131 182.583C425.829 187.14 422.574 194.955 413.46 191.699C409.435 190.263 407.57 185.778 406.738 181.219C406.175 178.122 406.088 174.994 406.13 172.759C406.175 170.477 407.42 168.391 409.406 167.265C414.785 164.216 420.461 165.353 424.197 166.789C426.792 167.784 428.452 170.331 428.32 173.102Z" fill="#FAB083"/>
<path d="M414.645 164.297C414.645 164.297 426.67 183.586 428.329 176.511C430.678 166.485 423.495 160.282 414.645 164.297Z" fill="#021147"/>
<path d="M414.144 164.296C406.142 164.355 402.161 173.448 405.872 174.525C411.037 176.024 415.515 168.713 416.894 166.177C415.966 165.565 415.038 164.955 414.144 164.296Z" fill="#021147"/>
<path d="M428.722 159.971C428.722 164.341 425.179 167.885 420.808 167.885C416.438 167.885 412.895 164.341 412.895 159.971C412.895 155.6 416.438 152.057 420.808 152.057C425.179 152.056 428.722 155.599 428.722 159.971Z" fill="#021147"/>
<path d="M407.532 173.661C407.532 173.661 408.155 176.079 407.305 177.706C406.455 179.333 406.922 182.121 407.305 185.254C407.305 185.254 405.954 183.345 405.876 180.285C405.797 177.225 406.297 174.679 405.876 173.455L407.532 173.661Z" fill="#021147"/>
<path d="M426.423 173.661C426.423 173.661 425.8 176.079 426.65 177.706C427.5 179.333 427.033 182.121 426.65 185.254C426.65 185.254 428.001 183.345 428.079 180.285C428.158 177.225 427.658 174.679 428.079 173.455L426.423 173.661Z" fill="#021147"/>
<path d="M413.083 177.706C413.083 178.366 412.742 178.901 412.323 178.901C411.903 178.901 411.562 178.366 411.562 177.706C411.562 177.046 411.903 176.511 412.323 176.511C412.743 176.511 413.083 177.046 413.083 177.706Z" fill="#021147"/>
<path d="M422.469 177.706C422.469 178.366 422.128 178.901 421.709 178.901C421.29 178.901 420.949 178.366 420.949 177.706C420.949 177.046 421.29 176.511 421.709 176.511C422.128 176.511 422.469 177.046 422.469 177.706Z" fill="#021147"/>
<path d="M410.822 174.148C411.454 173.969 412.727 173.665 414.072 173.66C414.427 173.659 414.697 173.974 414.635 174.322L414.632 174.332C414.582 174.61 414.334 174.806 414.052 174.793C413.136 174.75 410.735 174.879 409.601 175.338C409.577 175.14 409.694 174.925 409.86 174.734C410.11 174.443 410.453 174.251 410.822 174.148Z" fill="#021147"/>
<path d="M423.099 174.172C422.467 173.994 421.193 173.689 419.849 173.685C419.494 173.683 419.224 173.998 419.286 174.347L419.288 174.356C419.337 174.634 419.586 174.831 419.868 174.817C420.783 174.774 423.185 174.904 424.319 175.363C424.342 175.165 424.226 174.949 424.06 174.758C423.811 174.468 423.468 174.276 423.099 174.172Z" fill="#021147"/>
<path d="M417.201 183.159C416.977 183.159 416.75 183.12 416.563 183.007C416.391 182.904 416.178 182.696 416.136 182.289C416.024 181.21 416.301 177.824 416.312 177.681C416.326 177.52 416.466 177.4 416.629 177.412C416.79 177.426 416.911 177.568 416.897 177.729C416.894 177.763 416.613 181.203 416.72 182.228C416.738 182.406 416.811 182.47 416.864 182.502C417.14 182.666 417.777 182.498 418.042 182.39C418.192 182.329 418.364 182.402 418.425 182.552C418.486 182.702 418.415 182.873 418.265 182.935C418.189 182.967 417.697 183.159 417.201 183.159Z" fill="#FC8664"/>
<path d="M413.473 185.014C413.694 186.132 414.433 188.187 416.92 188.187C419.412 188.187 420.112 186.308 420.352 185.014H413.473Z" fill="white"/>
<path d="M416.884 189.903C416.166 189.903 415.532 189.517 415.506 189.5C415.369 189.414 415.326 189.234 415.411 189.095C415.496 188.958 415.677 188.915 415.814 189C415.819 189.003 416.337 189.316 416.883 189.316C417.475 189.316 418.006 189.002 418.011 188.999C418.15 188.915 418.331 188.96 418.415 189.099C418.498 189.237 418.454 189.417 418.316 189.501C418.29 189.518 417.644 189.903 416.884 189.903Z" fill="#FC8664"/>
<path d="M353.211 192.041L349.121 197.439C349.121 197.439 364.533 210.644 372.147 213.255C379.762 215.866 397.427 218.287 397.427 218.287C398.712 213.867 398.114 209.442 396.685 205.015C396.685 205.015 378.499 205.446 373.274 202.81C362.079 197.162 353.211 192.041 353.211 192.041Z" fill="#8894FF"/>
<path d="M347.686 60.6085C347.584 60.6187 347.478 60.605 347.377 60.563C346.306 60.1108 345.678 59.8995 345.671 59.8984C345.343 59.7882 345.165 59.4337 345.274 59.1054C345.385 58.7771 345.739 58.5999 346.067 58.7089C346.095 58.718 346.742 58.935 347.863 59.4087C348.183 59.5428 348.332 59.9109 348.197 60.2301C348.107 60.446 347.907 60.5846 347.686 60.6085Z" fill="#D9E2FF"/>
<path d="M379.634 94.2342C380.06 95.3714 380.46 96.545 380.821 97.7208C380.911 98.0128 381.194 98.1911 381.486 98.1605C381.525 98.1559 381.565 98.148 381.604 98.1366C381.934 98.0344 382.121 97.6844 382.019 97.3538C381.65 96.153 381.243 94.9567 380.807 93.7956C380.686 93.4719 380.326 93.3071 380.001 93.4287C379.676 93.5491 379.512 93.9104 379.634 94.2342Z" fill="#D9E2FF"/>
<path d="M381.795 101.273C382.083 102.451 382.343 103.663 382.567 104.877C382.627 105.201 382.926 105.42 383.248 105.386C383.264 105.385 383.281 105.382 383.297 105.38C383.638 105.316 383.863 104.989 383.799 104.649C383.57 103.412 383.305 102.177 383.013 100.976C382.931 100.64 382.592 100.434 382.255 100.516C381.92 100.597 381.713 100.936 381.795 101.273Z" fill="#D9E2FF"/>
<path d="M383.683 107.815C383.34 107.86 383.097 108.174 383.142 108.517C383.216 109.084 383.283 109.656 383.342 110.219C383.411 110.867 383.472 111.531 383.523 112.187C383.55 112.533 383.851 112.791 384.196 112.763C384.202 112.762 384.208 112.762 384.214 112.761C384.55 112.726 384.799 112.428 384.772 112.089C384.72 111.421 384.658 110.746 384.588 110.086C384.528 109.513 384.46 108.93 384.385 108.353C384.341 108.015 384.035 107.775 383.698 107.81C383.693 107.815 383.689 107.815 383.683 107.815Z" fill="#D9E2FF"/>
<path d="M378.236 90.8274C378.349 91.0808 378.611 91.2228 378.874 91.1955C378.938 91.1887 379.002 91.1716 379.064 91.1444C379.38 91.0035 379.522 90.632 379.381 90.3162C378.87 89.1744 378.317 88.0361 377.737 86.9329C377.576 86.6262 377.197 86.5092 376.889 86.6694C376.584 86.8307 376.466 87.2101 376.627 87.5157C377.194 88.5961 377.736 89.7107 378.236 90.8274Z" fill="#D9E2FF"/>
<path d="M350.705 62.1198C351.782 62.6696 352.868 63.2684 353.934 63.9C354.054 63.9716 354.19 63.9977 354.319 63.9841C354.51 63.9636 354.688 63.8568 354.793 63.6796C354.969 63.382 354.87 62.9968 354.572 62.8207C353.484 62.1766 352.374 61.5642 351.274 61.003C350.967 60.8462 350.588 60.9678 350.431 61.2757C350.275 61.5847 350.397 61.963 350.705 62.1198Z" fill="#D9E2FF"/>
<path d="M360.046 68.0238C360.179 68.1249 360.339 68.1647 360.493 68.1488C360.659 68.1317 360.816 68.0488 360.924 67.9056C361.135 67.6307 361.082 67.2376 360.807 67.0274C359.814 66.2697 358.786 65.5312 357.751 64.8337C357.464 64.6405 357.075 64.7155 356.881 65.0029C356.687 65.2904 356.763 65.68 357.05 65.8732C358.065 66.556 359.073 67.2808 360.046 68.0238Z" fill="#D9E2FF"/>
<path d="M370.579 78.2871C370.718 78.4598 370.929 78.5405 371.135 78.5189C371.25 78.5064 371.363 78.4621 371.46 78.3848C371.73 78.169 371.774 77.7736 371.557 77.5032C370.778 76.5308 369.957 75.5674 369.115 74.6415C368.882 74.3858 368.486 74.3665 368.229 74.5994C367.972 74.8323 367.954 75.2288 368.187 75.4844C369.012 76.3922 369.816 77.3351 370.579 78.2871Z" fill="#D9E2FF"/>
<path d="M365.628 72.836C365.767 72.9712 365.953 73.0292 366.131 73.0099C366.272 72.9951 366.408 72.9326 366.514 72.8235C366.755 72.5759 366.75 72.1783 366.502 71.9374C365.61 71.0694 364.677 70.2151 363.727 69.3971C363.465 69.171 363.069 69.2006 362.843 69.463C362.617 69.7254 362.647 70.1208 362.909 70.3469C363.84 71.1489 364.754 71.9863 365.628 72.836Z" fill="#D9E2FF"/>
<path d="M374.808 84.3143C374.939 84.5279 375.176 84.6358 375.409 84.6108C375.499 84.6018 375.587 84.5722 375.669 84.5222C375.965 84.3416 376.058 83.9553 375.877 83.6599C375.226 82.5943 374.533 81.5355 373.816 80.513C373.618 80.2301 373.227 80.1608 372.943 80.3596C372.66 80.5584 372.59 80.9492 372.789 81.2333C373.491 82.2341 374.171 83.2714 374.808 84.3143Z" fill="#D9E2FF"/>
<path d="M320.933 42.0533L315.883 61.1387L343.513 68.4498L348.563 49.3644L320.933 42.0533Z" fill="url(#paint15_linear_2048_19485)"/>
<path d="M334.805 56.2827L342.721 68.2309L343.521 68.4422L343.65 67.956L335.577 55.7715L334.805 56.2827Z" fill="url(#paint16_linear_2048_19485)"/>
<path d="M316.006 60.7089L315.895 61.1315L316.767 61.3622L329.557 54.8933L329.139 54.0674L316.006 60.7089Z" fill="url(#paint17_linear_2048_19485)"/>
<path d="M348.576 49.3567L331.51 57.9876L320.945 42.0449L348.576 49.3567Z" fill="#8894FF"/>
<path d="M427.506 83.7096C423.697 83.7096 420.598 80.6104 420.598 76.8011C420.598 72.9918 423.697 69.8926 427.506 69.8926C431.315 69.8926 434.415 72.9918 434.415 76.8011C434.415 80.6104 431.315 83.7096 427.506 83.7096ZM427.506 72.0602C424.892 72.0602 422.765 74.187 422.765 76.8011C422.765 79.4152 424.892 81.542 427.506 81.542C430.12 81.542 432.247 79.4152 432.247 76.8011C432.247 74.187 430.12 72.0602 427.506 72.0602Z" fill="#8894FF"/>
<path d="M462.619 90.737C458.81 90.737 455.711 87.6377 455.711 83.8285C455.711 80.0192 458.81 76.9199 462.619 76.9199C466.429 76.9199 469.528 80.0192 469.528 83.8285C469.527 87.6377 466.428 90.737 462.619 90.737ZM462.619 79.0876C460.005 79.0876 457.879 81.2143 457.879 83.8285C457.879 86.4426 460.005 88.5693 462.619 88.5693C465.234 88.5693 467.36 86.4426 467.36 83.8285C467.359 81.2143 465.234 79.0876 462.619 79.0876Z" fill="url(#paint18_linear_2048_19485)"/>
<path d="M479.252 104.842C478.653 104.842 478.168 104.357 478.168 103.759V98.9803C478.168 98.3816 478.653 97.8965 479.252 97.8965C479.85 97.8965 480.336 98.3816 480.336 98.9803V103.759C480.336 104.359 479.85 104.842 479.252 104.842Z" fill="#8894FF"/>
<path d="M479.252 113.205C478.653 113.205 478.168 112.72 478.168 112.121V107.343C478.168 106.744 478.653 106.259 479.252 106.259C479.85 106.259 480.336 106.744 480.336 107.343V112.121C480.336 112.72 479.85 113.205 479.252 113.205Z" fill="#8894FF"/>
<path d="M485.959 106.635H481.666C481.067 106.635 480.582 106.15 480.582 105.552C480.582 104.953 481.067 104.468 481.666 104.468H485.959C486.558 104.468 487.043 104.953 487.043 105.552C487.043 106.15 486.558 106.635 485.959 106.635Z" fill="#8894FF"/>
<path d="M476.838 106.635H472.545C471.946 106.635 471.461 106.15 471.461 105.552C471.461 104.953 471.946 104.468 472.545 104.468H476.838C477.437 104.468 477.922 104.953 477.922 105.552C477.921 106.15 477.436 106.635 476.838 106.635Z" fill="#8894FF"/>
<path d="M442.353 97.0495C441.755 97.0495 441.27 96.5644 441.27 95.9657V91.1874C441.27 90.5886 441.755 90.1035 442.353 90.1035C442.952 90.1035 443.437 90.5886 443.437 91.1874V95.9657C443.437 96.5644 442.952 97.0495 442.353 97.0495Z" fill="url(#paint19_linear_2048_19485)"/>
<path d="M442.353 105.413C441.755 105.413 441.27 104.928 441.27 104.329V99.5506C441.27 98.9519 441.755 98.4668 442.353 98.4668C442.952 98.4668 443.437 98.9519 443.437 99.5506V104.329C443.437 104.928 442.952 105.413 442.353 105.413Z" fill="url(#paint20_linear_2048_19485)"/>
<path d="M449.061 98.8415H444.767C444.169 98.8415 443.684 98.3564 443.684 97.7576C443.684 97.1589 444.169 96.6738 444.767 96.6738H449.061C449.659 96.6738 450.145 97.1589 450.145 97.7576C450.145 98.3575 449.659 98.8415 449.061 98.8415Z" fill="url(#paint21_linear_2048_19485)"/>
<path d="M439.943 98.8415H435.65C435.052 98.8415 434.566 98.3564 434.566 97.7576C434.566 97.1589 435.052 96.6738 435.65 96.6738H439.943C440.542 96.6738 441.027 97.1589 441.027 97.7576C441.026 98.3575 440.541 98.8415 439.943 98.8415Z" fill="url(#paint22_linear_2048_19485)"/>
<path d="M23.3678 237.852C23.3678 241.661 20.2686 244.76 16.4593 244.76C12.65 244.76 9.55078 241.661 9.55078 237.852C9.55078 234.043 12.65 230.943 16.4593 230.943C20.2686 230.944 23.3678 234.044 23.3678 237.852ZM11.7184 237.852C11.7184 240.466 13.8452 242.593 16.4593 242.593C19.0734 242.593 21.2002 240.466 21.2002 237.852C21.2002 235.238 19.0734 233.111 16.4593 233.111C13.8452 233.111 11.7184 235.238 11.7184 237.852Z" fill="#8894FF"/>
<path d="M30.3952 202.742C30.3952 206.551 27.2959 209.65 23.4866 209.65C19.6774 209.65 16.5781 206.551 16.5781 202.742C16.5781 198.932 19.6774 195.833 23.4866 195.833C27.2959 195.833 30.3952 198.932 30.3952 202.742ZM18.7458 202.742C18.7458 205.356 20.8725 207.482 23.4866 207.482C26.1008 207.482 28.2275 205.356 28.2275 202.742C28.2275 200.127 26.1008 198.001 23.4866 198.001C20.8725 198.001 18.7458 200.127 18.7458 202.742Z" fill="url(#paint23_linear_2048_19485)"/>
<path d="M44.5007 186.105C44.5007 186.704 44.0156 187.189 43.4169 187.189H38.6385C38.0398 187.189 37.5547 186.704 37.5547 186.105C37.5547 185.507 38.0398 185.021 38.6385 185.021H43.4169C44.0156 185.023 44.5007 185.508 44.5007 186.105Z" fill="#8894FF"/>
<path d="M52.8601 186.105C52.8601 186.704 52.375 187.189 51.7763 187.189H46.9979C46.3992 187.189 45.9141 186.704 45.9141 186.105C45.9141 185.507 46.3992 185.021 46.9979 185.021H51.7763C52.375 185.023 52.8601 185.508 52.8601 186.105Z" fill="#8894FF"/>
<path d="M46.2926 179.398V183.692C46.2926 184.29 45.8075 184.775 45.2088 184.775C44.6101 184.775 44.125 184.29 44.125 183.692V179.398C44.125 178.8 44.6101 178.314 45.2088 178.314C45.8075 178.314 46.2926 178.801 46.2926 179.398Z" fill="#8894FF"/>
<path d="M46.2926 188.521V192.815C46.2926 193.413 45.8075 193.898 45.2088 193.898C44.6101 193.898 44.125 193.413 44.125 192.815V188.521C44.125 187.923 44.6101 187.438 45.2088 187.438C45.8075 187.438 46.2926 187.923 46.2926 188.521Z" fill="#8894FF"/>
<path d="M36.7077 223.003C36.7077 223.601 36.2226 224.087 35.6239 224.087H30.8455C30.2468 224.087 29.7617 223.601 29.7617 223.003C29.7617 222.404 30.2468 221.919 30.8455 221.919H35.6239C36.2226 221.919 36.7077 222.404 36.7077 223.003Z" fill="url(#paint24_linear_2048_19485)"/>
<path d="M45.0671 223.003C45.0671 223.601 44.582 224.087 43.9833 224.087H39.2049C38.6062 224.087 38.1211 223.601 38.1211 223.003C38.1211 222.404 38.6062 221.919 39.2049 221.919H43.9833C44.582 221.919 45.0671 222.404 45.0671 223.003Z" fill="url(#paint25_linear_2048_19485)"/>
<path d="M38.4958 216.294V220.587C38.4958 221.186 38.0107 221.671 37.412 221.671C36.8132 221.671 36.3281 221.186 36.3281 220.587V216.294C36.3281 215.695 36.8132 215.21 37.412 215.21C38.0118 215.21 38.4958 215.696 38.4958 216.294Z" fill="url(#paint26_linear_2048_19485)"/>
<path d="M38.4958 225.417V229.71C38.4958 230.309 38.0107 230.794 37.412 230.794C36.8132 230.794 36.3281 230.309 36.3281 229.71V225.417C36.3281 224.818 36.8132 224.333 37.412 224.333C38.0118 224.333 38.4958 224.818 38.4958 225.417Z" fill="url(#paint27_linear_2048_19485)"/>
<path d="M132.344 73.5253V94.9245C132.344 97.7534 134.639 100.048 137.467 100.048H176.323L188.053 104.256C189.257 104.689 190.41 103.505 189.949 102.314L185.511 90.8539V73.5241C185.511 70.6953 183.216 68.4004 180.385 68.4004H137.467C134.639 68.4015 132.344 70.6964 132.344 73.5253Z" fill="#8894FF"/>
<path d="M166.102 84.8338C166.102 86.8811 167.761 88.5409 169.807 88.5409C171.854 88.5409 173.515 86.8811 173.515 84.8338C173.515 82.7866 171.855 81.1279 169.807 81.1279C167.76 81.1279 166.102 82.7866 166.102 84.8338Z" fill="url(#paint28_linear_2048_19485)"/>
<path d="M154.371 84.8338C154.371 86.8811 156.031 88.5409 158.077 88.5409C160.124 88.5409 161.783 86.8811 161.783 84.8338C161.783 82.7866 160.124 81.1279 158.077 81.1279C156.031 81.1268 154.371 82.7866 154.371 84.8338Z" fill="url(#paint29_linear_2048_19485)"/>
<path d="M142.637 84.8338C142.637 86.8811 144.297 88.5409 146.344 88.5409C148.391 88.5409 150.051 86.8811 150.051 84.8338C150.051 82.7866 148.391 81.1279 146.344 81.1279C144.295 81.1268 142.637 82.7866 142.637 84.8338Z" fill="url(#paint30_linear_2048_19485)"/>
<defs>
<linearGradient id="paint0_linear_2048_19485" x1="429.715" y1="144.784" x2="422.535" y2="144.784" gradientUnits="userSpaceOnUse">
<stop stop-color="#2058FF"/>
<stop offset="1" stop-color="#004BC2"/>
</linearGradient>
<linearGradient id="paint1_linear_2048_19485" x1="358.937" y1="265.552" x2="170.172" y2="265.552" gradientUnits="userSpaceOnUse">
<stop stop-color="#2058FF"/>
<stop offset="1" stop-color="#004BC2"/>
</linearGradient>
<linearGradient id="paint2_linear_2048_19485" x1="358.937" y1="260.778" x2="170.172" y2="260.778" gradientUnits="userSpaceOnUse">
<stop stop-color="#2058FF"/>
<stop offset="1" stop-color="#004BC2"/>
</linearGradient>
<linearGradient id="paint3_linear_2048_19485" x1="183.149" y1="267.904" x2="176.316" y2="267.904" gradientUnits="userSpaceOnUse">
<stop stop-color="#2058FF"/>
<stop offset="1" stop-color="#004BC2"/>
</linearGradient>
<linearGradient id="paint4_linear_2048_19485" x1="183.149" y1="225.067" x2="176.316" y2="225.067" gradientUnits="userSpaceOnUse">
<stop stop-color="#2058FF"/>
<stop offset="1" stop-color="#004BC2"/>
</linearGradient>
<linearGradient id="paint5_linear_2048_19485" x1="246.37" y1="292.234" x2="170.172" y2="292.234" gradientUnits="userSpaceOnUse">
<stop stop-color="#2058FF"/>
<stop offset="1" stop-color="#004BC2"/>
</linearGradient>
<linearGradient id="paint6_linear_2048_19485" x1="358.938" y1="292.234" x2="282.246" y2="292.234" gradientUnits="userSpaceOnUse">
<stop stop-color="#2058FF"/>
<stop offset="1" stop-color="#004BC2"/>
</linearGradient>
<linearGradient id="paint7_linear_2048_19485" x1="358.933" y1="235.968" x2="170.168" y2="235.968" gradientUnits="userSpaceOnUse">
<stop stop-color="#2058FF"/>
<stop offset="1" stop-color="#004BC2"/>
</linearGradient>
<linearGradient id="paint8_linear_2048_19485" x1="345.363" y1="165.23" x2="311.652" y2="165.23" gradientUnits="userSpaceOnUse">
<stop stop-color="#2058FF"/>
<stop offset="1" stop-color="#004BC2"/>
</linearGradient>
<linearGradient id="paint9_linear_2048_19485" x1="147.777" y1="257.819" x2="136.309" y2="257.819" gradientUnits="userSpaceOnUse">
<stop stop-color="#2058FF"/>
<stop offset="1" stop-color="#004BC2"/>
</linearGradient>
<linearGradient id="paint10_linear_2048_19485" x1="128.735" y1="258.509" x2="124.387" y2="258.509" gradientUnits="userSpaceOnUse">
<stop stop-color="#2058FF"/>
<stop offset="1" stop-color="#004BC2"/>
</linearGradient>
<linearGradient id="paint11_linear_2048_19485" x1="447.901" y1="238.961" x2="445.309" y2="238.961" gradientUnits="userSpaceOnUse">
<stop stop-color="#2058FF"/>
<stop offset="1" stop-color="#004BC2"/>
</linearGradient>
<linearGradient id="paint12_linear_2048_19485" x1="430.864" y1="254.891" x2="403.074" y2="254.891" gradientUnits="userSpaceOnUse">
<stop stop-color="#2058FF"/>
<stop offset="1" stop-color="#004BC2"/>
</linearGradient>
<linearGradient id="paint13_linear_2048_19485" x1="424.072" y1="262.365" x2="407.234" y2="262.365" gradientUnits="userSpaceOnUse">
<stop stop-color="#2058FF"/>
<stop offset="1" stop-color="#004BC2"/>
</linearGradient>
<linearGradient id="paint14_linear_2048_19485" x1="429.351" y1="210.381" x2="415.258" y2="210.381" gradientUnits="userSpaceOnUse">
<stop stop-color="#2058FF"/>
<stop offset="1" stop-color="#004BC2"/>
</linearGradient>
<linearGradient id="paint15_linear_2048_19485" x1="334.748" y1="45.7089" x2="329.698" y2="64.7943" gradientUnits="userSpaceOnUse">
<stop stop-color="#2058FF"/>
<stop offset="1" stop-color="#004BC2"/>
</linearGradient>
<linearGradient id="paint16_linear_2048_19485" x1="343.65" y1="62.1068" x2="334.805" y2="62.1068" gradientUnits="userSpaceOnUse">
<stop stop-color="#2058FF"/>
<stop offset="1" stop-color="#004BC2"/>
</linearGradient>
<linearGradient id="paint17_linear_2048_19485" x1="329.557" y1="57.7148" x2="315.895" y2="57.7148" gradientUnits="userSpaceOnUse">
<stop stop-color="#2058FF"/>
<stop offset="1" stop-color="#004BC2"/>
</linearGradient>
<linearGradient id="paint18_linear_2048_19485" x1="469.528" y1="83.8284" x2="455.711" y2="83.8284" gradientUnits="userSpaceOnUse">
<stop stop-color="#2058FF"/>
<stop offset="1" stop-color="#004BC2"/>
</linearGradient>
<linearGradient id="paint19_linear_2048_19485" x1="443.437" y1="93.5765" x2="441.27" y2="93.5765" gradientUnits="userSpaceOnUse">
<stop stop-color="#2058FF"/>
<stop offset="1" stop-color="#004BC2"/>
</linearGradient>
<linearGradient id="paint20_linear_2048_19485" x1="443.437" y1="101.94" x2="441.27" y2="101.94" gradientUnits="userSpaceOnUse">
<stop stop-color="#2058FF"/>
<stop offset="1" stop-color="#004BC2"/>
</linearGradient>
<linearGradient id="paint21_linear_2048_19485" x1="450.145" y1="97.7577" x2="443.684" y2="97.7577" gradientUnits="userSpaceOnUse">
<stop stop-color="#2058FF"/>
<stop offset="1" stop-color="#004BC2"/>
</linearGradient>
<linearGradient id="paint22_linear_2048_19485" x1="441.027" y1="97.7577" x2="434.566" y2="97.7577" gradientUnits="userSpaceOnUse">
<stop stop-color="#2058FF"/>
<stop offset="1" stop-color="#004BC2"/>
</linearGradient>
<linearGradient id="paint23_linear_2048_19485" x1="30.3952" y1="202.742" x2="16.5781" y2="202.742" gradientUnits="userSpaceOnUse">
<stop stop-color="#2058FF"/>
<stop offset="1" stop-color="#004BC2"/>
</linearGradient>
<linearGradient id="paint24_linear_2048_19485" x1="36.7077" y1="223.003" x2="29.7617" y2="223.003" gradientUnits="userSpaceOnUse">
<stop stop-color="#2058FF"/>
<stop offset="1" stop-color="#004BC2"/>
</linearGradient>
<linearGradient id="paint25_linear_2048_19485" x1="45.0671" y1="223.003" x2="38.1211" y2="223.003" gradientUnits="userSpaceOnUse">
<stop stop-color="#2058FF"/>
<stop offset="1" stop-color="#004BC2"/>
</linearGradient>
<linearGradient id="paint26_linear_2048_19485" x1="38.4958" y1="218.44" x2="36.3281" y2="218.44" gradientUnits="userSpaceOnUse">
<stop stop-color="#2058FF"/>
<stop offset="1" stop-color="#004BC2"/>
</linearGradient>
<linearGradient id="paint27_linear_2048_19485" x1="38.4958" y1="227.563" x2="36.3281" y2="227.563" gradientUnits="userSpaceOnUse">
<stop stop-color="#2058FF"/>
<stop offset="1" stop-color="#004BC2"/>
</linearGradient>
<linearGradient id="paint28_linear_2048_19485" x1="173.515" y1="84.8344" x2="166.102" y2="84.8344" gradientUnits="userSpaceOnUse">
<stop stop-color="#2058FF"/>
<stop offset="1" stop-color="#004BC2"/>
</linearGradient>
<linearGradient id="paint29_linear_2048_19485" x1="161.783" y1="84.8344" x2="154.371" y2="84.8344" gradientUnits="userSpaceOnUse">
<stop stop-color="#2058FF"/>
<stop offset="1" stop-color="#004BC2"/>
</linearGradient>
<linearGradient id="paint30_linear_2048_19485" x1="150.051" y1="84.8344" x2="142.637" y2="84.8344" gradientUnits="userSpaceOnUse">
<stop stop-color="#2058FF"/>
<stop offset="1" stop-color="#004BC2"/>
</linearGradient>
</defs>
</svg>
