<svg width="519" height="375" viewBox="0 0 519 375" fill="none" xmlns="http://www.w3.org/2000/svg">
<path d="M454.187 351.823L453.526 351.417C491.119 290.278 510.71 235.037 511.754 187.231C512.834 137.791 493.663 107.56 477.392 90.9063C461.764 74.9114 441.305 63.7851 419.784 59.5771C399.607 55.6328 379.861 58.1387 365.608 66.4524L365.217 65.7818C379.63 57.3747 399.575 54.8343 419.932 58.8155C441.607 63.0533 462.21 74.2578 477.947 90.3639C494.323 107.124 513.615 137.538 512.53 187.248C511.483 235.195 491.854 290.565 454.187 351.823Z" fill="#E5E5FF"/>
<path opacity="0.4" d="M484.321 135.167C466.765 97.1335 432.66 67.4049 390.238 62.2373C356.392 58.1142 322.355 57.5628 288.362 55.4885C252.486 53.2995 217.361 46.6426 181.909 40.8093C159.151 37.0649 139.215 42.5953 117.149 50.5999C87.0084 61.5337 57.8825 96.8355 44.7391 125.079C13.0737 193.124 30.5636 278.714 58.4675 345.022C59.8345 348.27 69.2582 374.118 72.0835 374.118C72.0869 374.118 441.15 374.118 441.15 374.118C463.415 341.465 481.662 305.552 491.793 268.471C503.831 224.408 503.703 177.159 484.321 135.167Z" fill="#D9E2FF"/>
<path d="M35.3191 271.829C20.8279 226.642 14.4476 187.349 16.3549 155.041C17.941 128.17 25.2567 105.851 38.0981 88.7063C67.5207 49.4239 116.664 50.2003 117.16 50.2137L117.14 50.9895C116.663 50.9746 67.8897 50.2171 38.7132 89.1798C25.967 106.201 18.705 128.378 17.1291 155.094C15.229 187.305 21.5973 226.5 36.058 271.593L35.3191 271.829Z" fill="#E5E5FF"/>
<path d="M389.989 277.111H125.157C119.878 277.111 115.598 272.831 115.598 267.551V9.94738C115.598 4.66775 119.878 0.387695 125.157 0.387695H389.989C395.269 0.387695 399.549 4.66775 399.549 9.94738V267.551C399.549 272.831 395.269 277.111 389.989 277.111Z" fill="#D9E2FF"/>
<path d="M389.988 277.499H125.156C119.672 277.499 115.209 273.036 115.209 267.551V9.94728C115.209 4.46222 119.672 0 125.156 0H389.988C395.474 0 399.936 4.46253 399.936 9.94728V267.551C399.936 273.036 395.474 277.499 389.988 277.499ZM125.156 0.77551C120.099 0.77551 115.985 4.88986 115.985 9.94698V267.551C115.985 272.608 120.099 276.723 125.156 276.723H389.988C395.045 276.723 399.16 272.608 399.16 267.551V9.94728C399.16 4.89016 395.046 0.775823 389.988 0.775823H125.156V0.77551Z" fill="#BBBBFF"/>
<path d="M366.963 32.6279H306.449V37.0436H366.963V32.6279Z" fill="#9192FF"/>
<path d="M383.861 51.6357H287.443V56.0514H383.861V51.6357Z" fill="#8787FF"/>
<path d="M374.283 64.6953H287.443V69.111H374.283V64.6953Z" fill="#8787FF"/>
<path d="M364.31 77.7549H287.443V82.1706H364.31V77.7549Z" fill="#BBBBFF"/>
<path d="M383.861 90.8145H287.443V95.2301H383.861V90.8145Z" fill="#BBBBFF"/>
<path d="M358.615 103.875H287.443V108.291H358.615V103.875Z" fill="#BBBBFF"/>
<path d="M228.603 175.509H136.066V179.924H228.603V175.509Z" fill="#8787FF"/>
<path d="M375.598 187.533H136.332V191.949H375.598V187.533Z" fill="#BBBBFF"/>
<path d="M247.647 32.6279H136.211V150.561H247.647V32.6279Z" fill="white"/>
<path d="M154.036 110.532H146.289V137.654H154.036V110.532Z" fill="#8787FF"/>
<path d="M167.96 114.355H160.213V137.655H167.96V114.355Z" fill="#98B0FF"/>
<path d="M181.882 99.5791H174.135V137.655H181.882V99.5791Z" fill="#8787FF"/>
<path d="M195.804 102.306H188.057V137.655H195.804V102.306Z" fill="#98B0FF"/>
<path d="M209.726 90.1035H201.979V137.654H209.726V90.1035Z" fill="#8787FF"/>
<path d="M223.648 83.5117H215.9V137.655H223.648V83.5117Z" fill="#98B0FF"/>
<path d="M237.57 77.6338H229.822V137.655H237.57V77.6338Z" fill="#8787FF"/>
<path d="M162.731 95.6611L148.1 89.8086L148.379 89.1101L162.595 94.7965L177.081 82.8085L190.594 83.1229L231.325 57.9707L231.72 58.6109L190.799 83.8804L177.345 83.5676L162.731 95.6611Z" fill="#8787FF"/>
<path d="M160.773 55.9922H144.877V62.6007H160.773V55.9922Z" fill="#8787FF"/>
<path d="M180.895 59.7822H166.025V60.558H180.895V59.7822Z" fill="#8787FF"/>
<path d="M356.602 158.624C366.187 158.624 373.957 150.855 373.957 141.27C373.957 131.686 366.187 123.916 356.602 123.916C347.018 123.916 339.248 131.686 339.248 141.27C339.248 150.855 347.018 158.624 356.602 158.624Z" fill="white"/>
<path d="M307.149 158.625C297.566 158.625 289.797 150.855 289.797 141.273C289.797 132.606 296.154 125.416 304.464 124.118C305.336 123.984 306.233 123.914 307.149 123.914C312.284 123.914 316.898 126.147 320.066 129.692C322.828 132.765 324.502 136.825 324.502 141.273C324.501 150.855 316.732 158.625 307.149 158.625Z" fill="white"/>
<path d="M307.148 141.273L304.463 124.118C305.335 123.984 306.232 123.914 307.148 123.914C312.283 123.914 316.897 126.147 320.065 129.692L307.148 141.273Z" fill="#8787FF"/>
<path d="M376.245 208.476H138.104V254.249H376.245V208.476Z" fill="white"/>
<path d="M376.936 254.934H138.219V208.578H376.936V254.934ZM138.801 254.352H376.354V209.16H138.801V254.352Z" fill="#8787FF"/>
<path d="M376.643 245.197H138.508V245.779H376.643V245.197Z" fill="#8787FF"/>
<path d="M376.643 236.042H138.508V236.624H376.643V236.042Z" fill="#8787FF"/>
<path d="M376.643 226.887H138.508V227.469H376.643V226.887Z" fill="#8787FF"/>
<path d="M376.643 217.732H138.508V218.314H376.643V217.732Z" fill="#8787FF"/>
<path d="M337.246 208.869H336.664V254.643H337.246V208.869Z" fill="#8787FF"/>
<path d="M297.556 208.869H296.975V254.643H297.556V208.869Z" fill="#8787FF"/>
<path d="M257.869 208.869H257.287V254.643H257.869V208.869Z" fill="#8787FF"/>
<path d="M218.178 208.869H217.596V254.643H218.178V208.869Z" fill="#8787FF"/>
<path d="M178.49 208.869H177.908V254.643H178.49V208.869Z" fill="#8787FF"/>
<path d="M145.05 247.394C148.512 242.57 149.26 236.36 152.352 231.281C153.861 228.804 155.858 226.346 158.622 225.239C163.386 223.328 164.601 229.476 164.702 232.891C164.851 237.913 164.018 243.363 168.167 247.134C169.552 248.392 171.383 249.14 173.253 248.643C175.494 248.048 176.888 245.995 177.998 244.11C181.173 238.71 183.19 232.522 185.396 226.683C186.511 223.733 187.927 219.954 190.846 218.301C195.006 215.945 195.462 221.158 195.452 223.905C195.441 226.916 195.472 229.926 195.498 232.937C195.511 234.384 195.213 237.403 196.914 238.209C197.915 238.683 198.708 237.777 199.269 237.049C199.758 236.416 200.097 235.676 200.584 235.046C201.043 234.452 201.451 234.094 202.278 234.026C203.038 233.963 203.401 233.954 203.918 234.654C204.205 235.044 204.339 235.593 204.46 236.05C205.058 238.309 204.444 240.868 205.724 242.954C206.436 244.116 207.968 245.274 209.408 245.047C212.315 244.588 213.054 239.85 213.402 237.573C213.869 234.526 214.305 231.497 215.145 228.523C215.99 225.529 217.086 221.952 219.363 219.712C220.23 218.859 221.423 218.009 222.706 218.153C224.579 218.363 225.165 220.477 225.623 221.993C226.657 225.414 227.276 228.994 227.273 232.572C227.271 235.044 226.552 238.137 228.2 240.276C229.084 241.424 230.583 242.083 232.019 241.725C234.116 241.203 234.622 239.166 235.048 237.321C235.133 236.954 235.197 236.574 235.336 236.222C235.744 235.182 235.907 235.061 237.03 235.015C238.265 234.964 238.314 235.254 238.512 236.278C238.713 237.31 238.609 238.353 238.92 239.373C239.312 240.664 240.22 241.852 241.713 241.407C243.092 240.996 243.83 239.521 244.285 238.275C245.595 234.693 245.473 230.727 245.668 226.978C245.798 224.495 245.998 221.827 247.144 219.573C247.891 218.107 250.094 215.732 251.798 217.279C254.015 219.293 253.798 224.2 253.849 226.909C253.958 232.721 252.982 238.557 253.795 244.349C254.099 246.515 254.714 249.75 257.118 250.569C260.447 251.704 262.899 248.079 263.783 245.429C264.487 243.321 264.648 241.114 265.148 238.962C265.411 237.831 265.814 235.764 267.358 236.41C268.69 236.967 269.24 238.851 270.41 239.702C274.192 242.453 276.507 237.087 276.952 234.183C277.602 229.938 276.932 225.262 278.521 221.2C278.923 220.173 279.553 219.084 280.497 218.463C282.808 216.942 285.083 219.046 285.779 221.197C286.307 222.829 286.207 224.66 286.238 226.355C286.272 228.193 286.321 230.031 286.355 231.87C286.411 234.907 286.138 238.007 286.334 241.034C286.469 243.137 287.265 245.054 289.083 246.241C293.646 249.222 298.98 244.571 301.892 241.309C305.2 237.601 307.425 233.194 309.137 228.57C310.002 226.232 310.868 223.843 312.222 221.735C312.966 220.577 315.031 217.802 316.726 218.569C317.83 219.068 318.197 221.065 318.435 222.093C318.835 223.829 319.027 225.612 319.172 227.385C319.446 230.76 319.466 234.144 319.528 237.527C319.58 240.391 319.822 244.713 323.006 245.872C327.978 247.683 330.35 240.563 331.726 237.274C332.866 234.551 334.256 230.855 336.908 229.236C339.162 227.859 340.731 229.982 341.565 231.872C342.364 233.684 342.777 235.697 342.802 237.673C342.82 239.053 342.712 240.782 344.223 241.449C347.522 242.903 350.528 237.445 351.81 235.294C352.979 233.333 353.867 231.278 354.846 229.221C356.077 226.636 360.11 221.695 361.786 226.647C362.419 228.518 362.197 230.535 362.072 232.466C361.931 234.656 361.774 236.853 361.843 239.049C361.923 241.587 362.383 247.122 366.212 246.534C368.531 246.178 370.921 243.623 372.659 242.174C375.206 240.05 377.608 237.769 379.888 235.362C380.231 235 379.684 234.45 379.34 234.814C377.059 237.22 374.657 239.502 372.11 241.625C370.746 242.762 369.359 243.915 367.885 244.908C365.969 246.199 364.093 245.614 363.328 243.637C361.826 239.756 362.741 234.955 362.943 230.917C363.062 228.515 362.761 223.018 359.082 223.685C356.878 224.085 355.356 226.462 354.435 228.295C353.391 230.374 352.536 232.514 351.361 234.529C350.195 236.529 348.852 238.908 346.91 240.251C345.445 241.263 343.73 240.784 343.566 238.817C343.491 237.919 343.588 237.025 343.482 236.123C343.176 233.519 342.186 229.216 339.365 228.162C335.452 226.699 332.602 233.283 331.488 235.861C330.348 238.499 329.464 241.878 327.357 243.937C325.871 245.389 323.459 245.892 321.94 244.214C320.829 242.986 320.549 241.051 320.393 239.472C319.789 233.339 320.703 227.004 318.954 220.992C318.449 219.258 317.488 217.116 315.343 217.876C311.745 219.149 310.108 223.823 308.882 227.043C306.923 232.191 304.752 237.118 300.934 241.211C298.731 243.572 295.538 246.49 292.091 246.421C287.566 246.329 287.003 241.814 287.133 238.354C287.26 234.971 287.126 231.577 287.053 228.193C286.994 225.467 287.36 222.218 286.014 219.724C285.157 218.135 283.337 216.869 281.462 217.201C279.868 217.484 278.684 218.985 278.041 220.365C276.309 224.078 276.767 228.557 276.376 232.531C276.153 234.8 275.749 238.694 273.093 239.484C269.751 240.477 269.645 235.455 266.834 235.359C263.854 235.258 263.829 242.414 263.314 244.297C262.678 246.621 261.469 249.393 258.823 249.897C257.186 250.209 256.096 249.179 255.46 247.772C254.015 244.572 254.192 240.54 254.282 237.111C254.349 234.55 254.578 231.997 254.623 229.436C254.672 226.675 255.221 214.816 249.955 216.087C246.311 216.967 245.378 221.672 245.054 224.788C244.623 228.942 244.988 233.197 243.803 237.254C243.494 238.308 243.085 239.526 242.203 240.243C241.283 240.99 240.186 240.351 239.733 239.39C239.426 238.738 239.441 237.917 239.38 237.221C239.278 236.04 239.129 234.283 237.814 233.787C236.293 233.214 235.046 234.769 234.588 236.018C234.021 237.565 234.206 239.6 232.634 240.625C231.057 241.654 229.206 240.684 228.445 239.161C227.653 237.574 227.939 235.643 228.016 233.936C228.094 232.202 228.02 230.47 227.821 228.747C227.483 225.826 226.936 222.622 225.736 219.918C224.079 216.187 220.388 217.179 218.191 219.859C214.462 224.409 213.524 231.326 212.716 236.938C212.457 238.739 212.114 240.607 211.309 242.254C210.896 243.097 210.304 244.096 209.299 244.266C207.619 244.551 206.229 242.614 205.86 241.237C205.261 238.998 205.827 231.057 201.165 233.495C199.718 234.251 199.58 236.058 198.346 236.966C196.417 238.386 196.298 235.247 196.284 234.032C196.264 232.209 196.253 230.386 196.237 228.563C196.216 226.115 196.403 223.573 196.104 221.138C195.914 219.583 195.44 217.771 193.835 217.131C189.49 215.396 186.249 222.408 185.083 225.347C182.611 231.581 180.631 238.244 177.153 244.011C175.244 247.178 171.987 249.55 168.717 246.586C166.379 244.468 165.519 241.357 165.458 238.309C165.378 234.347 166.564 226.339 161.816 224.28C157.677 222.485 153.292 228.193 151.542 231.129C148.551 236.144 147.778 242.27 144.381 247.003C144.088 247.408 144.761 247.796 145.05 247.394Z" fill="#9192FF"/>
<path d="M376.393 374.119H317.772C315.522 374.119 313.699 372.296 313.699 370.047V331.448C313.699 329.199 315.522 327.376 317.772 327.376H376.393C378.642 327.376 380.465 329.199 380.465 331.448V370.047C380.465 372.296 378.642 374.119 376.393 374.119Z" fill="#98B0FF"/>
<path d="M378.994 347.629H315.172V348.368H378.994V347.629Z" fill="#8787FF"/>
<path d="M347.082 354.406C344.127 354.406 341.723 352.002 341.723 349.047V347.629H352.442V349.047C352.442 352.002 350.038 354.406 347.082 354.406ZM342.462 348.368V349.047C342.462 351.594 344.534 353.667 347.082 353.667C349.63 353.667 351.703 351.595 351.703 349.047V348.368H342.462Z" fill="#8787FF"/>
<path d="M359.711 329.764H358.971V320.176C358.971 318.885 357.92 317.835 356.629 317.835H337.534C336.243 317.835 335.193 318.885 335.193 320.176V329.764H334.453V320.176C334.453 318.478 335.835 317.096 337.534 317.096H356.629C358.328 317.096 359.711 318.478 359.711 320.176V329.764Z" fill="#8787FF"/>
<path d="M336.645 327.376H333.041V331.257H336.645V327.376Z" fill="#8787FF"/>
<path d="M361.131 327.376H357.527V331.257H361.131V327.376Z" fill="#8787FF"/>
<path d="M190.595 334.451H143.006V374.119H190.595V334.451Z" fill="#98B0FF"/>
<path d="M194.1 331.643H139.502V339.974H194.1V331.643Z" fill="#8787FF"/>
<path opacity="0.6" d="M190.595 374.12H143.006V339.852C143.006 339.852 162.277 368.821 190.595 374.12Z" fill="#8787FF"/>
<path d="M454.838 35.1143C438.542 35.1143 425.332 48.3247 425.332 64.6207C425.332 74.7808 430.468 83.7403 438.285 89.0476L437.152 102.641L448.227 93.3739C450.354 93.8608 452.564 94.1268 454.838 94.1268C471.134 94.1268 484.345 80.9164 484.345 64.6204C484.345 48.3244 471.134 35.1143 454.838 35.1143Z" fill="white"/>
<path d="M436.687 103.535L437.879 89.2408C429.775 83.6487 424.943 74.4627 424.943 64.6209C424.943 48.1371 438.354 34.7266 454.838 34.7266C471.322 34.7266 484.732 48.1371 484.732 64.6209C484.732 81.1046 471.322 94.5152 454.838 94.5152C452.665 94.5152 450.477 94.2731 448.328 93.7949L436.687 103.535ZM454.837 35.5024C438.782 35.5024 425.719 48.5648 425.719 64.6209C425.719 74.2808 430.497 83.2924 438.502 88.7269L438.689 88.8542L437.614 101.747L448.124 92.953L448.312 92.9961C450.465 93.4889 452.659 93.7391 454.837 93.7391C470.893 93.7391 483.955 80.6767 483.955 64.6206C483.955 48.5645 470.893 35.5024 454.837 35.5024Z" fill="url(#paint0_linear_2033_13608)"/>
<path d="M459.858 70.8281H451.084V79.9329H459.858V70.8281Z" fill="white"/>
<path d="M460.246 80.3207H450.697V70.4404H460.246V80.3207ZM451.473 79.5449H459.47V71.2163H451.473V79.5449Z" fill="url(#paint1_linear_2033_13608)"/>
<path d="M462.59 64.5372C462.59 60.4946 459.22 57.2392 455.136 57.4267C451.419 57.5973 448.4 60.7267 448.354 64.4478C448.338 65.7717 448.684 67.0118 449.299 68.0781C450.405 69.9953 451.085 72.1279 451.085 74.3411V75.9598H459.859V74.2772C459.859 72.0931 460.532 69.9891 461.631 68.1017C462.24 67.054 462.59 65.8372 462.59 64.5372Z" fill="white"/>
<path d="M460.246 76.3469H450.697V74.3407C450.697 72.3074 450.113 70.2657 448.963 68.2716C448.294 67.1125 447.949 65.7883 447.965 64.4427C448.014 60.5391 451.223 57.2176 455.118 57.0383C457.209 56.9445 459.159 57.6782 460.655 59.1078C462.153 60.5382 462.977 62.4665 462.977 64.5367C462.977 65.8591 462.627 67.159 461.965 68.2958C460.825 70.2561 460.246 72.2686 460.246 74.2761V76.3469ZM451.472 75.5711H459.47V74.2764C459.47 72.1296 460.083 69.9864 461.294 67.9057C461.887 66.8872 462.201 65.7222 462.201 64.5367C462.201 62.6801 461.461 60.9515 460.119 59.6689C458.777 58.3873 457.029 57.7263 455.153 57.8135C451.661 57.9742 448.784 60.9521 448.741 64.4523C448.726 65.6586 449.035 66.8453 449.634 67.8836C450.854 69.997 451.472 72.1696 451.472 74.3407L451.472 75.5711Z" fill="url(#paint2_linear_2033_13608)"/>
<path d="M453.847 63.7016C453.296 64.4873 452.371 64.7893 451.781 64.3759C451.192 63.9626 451.161 62.99 451.713 62.2042C452.264 61.4185 453.188 61.1165 453.778 61.5299C454.367 61.9433 454.398 62.9158 453.847 63.7016Z" fill="white"/>
<path d="M452.39 64.9504C452.087 64.9504 451.802 64.8641 451.56 64.6934C451.173 64.4219 450.949 63.9775 450.933 63.4422C450.917 62.9484 451.082 62.4299 451.396 61.9814C451.711 61.5333 452.142 61.2019 452.612 61.0489C453.114 60.8844 453.62 60.9456 454.002 61.2131C454.384 61.4806 454.613 61.9364 454.629 62.4643C454.645 62.958 454.48 63.4766 454.165 63.9247C453.851 64.3731 453.419 64.7046 452.95 64.8579C452.76 64.9196 452.572 64.9504 452.39 64.9504ZM453.168 61.7325C453.068 61.7325 452.962 61.7502 452.852 61.7862C452.545 61.8862 452.246 62.1195 452.031 62.4268C451.815 62.7343 451.698 63.0955 451.708 63.4173C451.717 63.7025 451.823 63.93 452.005 64.0582C452.189 64.1854 452.437 64.2093 452.709 64.1196C453.02 64.0181 453.312 63.7903 453.53 63.4788C453.746 63.1715 453.864 62.8106 453.854 62.4885C453.845 62.2033 453.739 61.9759 453.556 61.8477C453.447 61.7717 453.314 61.7325 453.168 61.7325Z" fill="url(#paint3_linear_2033_13608)"/>
<path d="M441.806 52.0459L441.324 52.6533L445.743 56.1616L446.225 55.5542L441.806 52.0459Z" fill="url(#paint4_linear_2033_13608)"/>
<path d="M455.202 44.6636L454.426 44.6885L454.668 52.2601L455.444 52.2353L455.202 44.6636Z" fill="url(#paint5_linear_2033_13608)"/>
<path d="M468.238 50.5185L463.66 54.9717L464.201 55.5278L468.779 51.0746L468.238 50.5185Z" fill="url(#paint6_linear_2033_13608)"/>
<path d="M84.5994 72.3856C84.5994 58.058 72.9847 46.4434 58.6571 46.4434C44.3295 46.4434 32.7148 58.058 32.7148 72.3856C32.7148 86.7132 44.3295 98.3279 58.6571 98.3279C61.0113 98.3279 63.2897 98.0086 65.458 97.4208L74.4635 104.956L73.5207 93.6419C80.217 88.951 84.5994 81.1822 84.5994 72.3856Z" fill="white"/>
<path d="M74.9263 105.85L65.3629 97.8477C63.1701 98.424 60.9153 98.716 58.6564 98.716C44.1376 98.716 32.3262 86.9043 32.3262 72.3858C32.3262 57.8671 44.1379 46.0557 58.6564 46.0557C73.1751 46.0557 84.9866 57.8674 84.9866 72.3858C84.9866 80.8882 80.8555 88.8879 73.9246 93.8311L74.9263 105.85ZM65.5513 96.9937L73.9991 104.062L73.1149 93.4525L73.2971 93.3244C80.1312 88.5369 84.2108 80.7092 84.2108 72.3855C84.2108 58.295 72.7469 46.8312 58.6564 46.8312C44.5659 46.8312 33.102 58.295 33.102 72.3855C33.102 86.476 44.5659 97.9399 58.6564 97.9399C60.914 97.9399 63.1679 97.6395 65.3558 97.0468L65.5513 96.9937Z" fill="url(#paint7_linear_2033_13608)"/>
<path d="M58.3144 80.4775L50.959 73.1221L51.5073 72.5734L58.0606 79.1267L65.6559 61.8252L66.3665 62.1374L58.3144 80.4775Z" fill="url(#paint8_linear_2033_13608)"/>
<path d="M199.754 106.388L192.797 110.462L118.826 153.807C116.55 155.141 113.885 154.826 112.829 153.097L112.826 153.092C111.77 151.362 112.708 148.849 114.934 147.433L187.138 101.522L194.086 97.1055L199.754 106.388Z" fill="url(#paint9_linear_2033_13608)"/>
<path opacity="0.6" d="M199.754 106.388L192.797 110.462C191.44 109.161 190.246 107.683 189.24 106.035C188.361 104.596 187.663 103.081 187.139 101.522L194.086 97.1055L199.754 106.388Z" fill="#1B1B43"/>
<path d="M189.982 108.71C188.885 109.38 187.452 109.034 186.783 107.937C186.113 106.84 186.459 105.407 187.556 104.738C188.653 104.068 190.085 104.414 190.755 105.511C191.425 106.608 191.079 108.04 189.982 108.71Z" fill="white"/>
<path d="M225.04 121.401C245.378 121.401 261.864 104.915 261.864 84.5776C261.864 64.2404 245.378 47.7539 225.04 47.7539C204.703 47.7539 188.217 64.2404 188.217 84.5776C188.217 104.915 204.703 121.401 225.04 121.401Z" fill="url(#paint10_linear_2033_13608)"/>
<path d="M225.039 114.447C241.535 114.447 254.908 101.074 254.908 84.5782C254.908 68.0819 241.535 54.709 225.039 54.709C208.543 54.709 195.17 68.0819 195.17 84.5782C195.17 101.074 208.543 114.447 225.039 114.447Z" fill="white"/>
<mask id="mask0_2033_13608" style="mask-type:luminance" maskUnits="userSpaceOnUse" x="195" y="54" width="60" height="61">
<path d="M225.039 114.447C241.535 114.447 254.908 101.074 254.908 84.5782C254.908 68.0819 241.535 54.709 225.039 54.709C208.543 54.709 195.17 68.0819 195.17 84.5782C195.17 101.074 208.543 114.447 225.039 114.447Z" fill="white"/>
</mask>
<g mask="url(#mask0_2033_13608)">
<path d="M212.896 94.6738H203.533V152.137H212.896V94.6738Z" fill="#8787FF"/>
<path d="M229.72 87.0957H220.357V152.525H229.72V87.0957Z" fill="#98B0FF"/>
<path d="M246.542 78.958H237.18V151.49H246.542V78.958Z" fill="#8787FF"/>
</g>
<mask id="mask1_2033_13608" style="mask-type:luminance" maskUnits="userSpaceOnUse" x="195" y="54" width="60" height="61">
<path d="M225.039 114.447C241.535 114.447 254.908 101.074 254.908 84.5782C254.908 68.0819 241.535 54.709 225.039 54.709C208.543 54.709 195.17 68.0819 195.17 84.5782C195.17 101.074 208.543 114.447 225.039 114.447Z" fill="white"/>
</mask>
<g mask="url(#mask1_2033_13608)">
<path d="M236.103 67.982L193.201 81.7061L193.556 82.8145L236.458 69.0905L236.103 67.982Z" fill="#8787FF"/>
<path d="M233.415 73.5345L232.468 72.8595L235.293 68.8926L231.201 67.4923L231.579 66.3916L236.096 67.9386C236.334 68.0038 236.544 68.2086 236.626 68.4773C236.709 68.7455 236.649 69.0331 236.467 69.2466L233.415 73.5345ZM235.714 69.0368C235.726 69.0418 235.738 69.0465 235.752 69.0499L235.714 69.0368ZM235.55 68.5313C235.544 68.5382 235.538 68.5462 235.533 68.5555L235.55 68.5313Z" fill="#8787FF"/>
</g>
<path d="M151.357 358.689C146.671 358.759 139.952 358.867 135.607 358.93C135.654 356.827 135.732 354.732 135.825 352.816C136.034 348.037 136.306 344.344 136.306 344.344L149.735 344.251C149.735 344.251 149.673 345.585 149.735 347.587C149.821 350.551 150.17 354.973 151.357 358.689Z" fill="#FFBC96"/>
<path d="M156.557 365.256C153.981 364.458 152.368 361.827 151.359 358.687C146.67 358.759 139.951 358.863 135.603 358.929C135.487 363.877 135.53 368.856 136.005 371.653C136.211 372.865 137.25 373.754 138.48 373.754H161.559C163.44 373.754 165.063 372.181 164.868 370.31C164.635 368.071 161.994 366.938 156.557 365.256Z" fill="#1B1B43"/>
<path d="M149.735 347.587L135.824 352.816C136.034 348.037 136.305 344.344 136.305 344.344L149.735 344.251C149.735 344.251 149.673 345.585 149.735 347.587Z" fill="#D28572"/>
<path d="M142.76 373.553C142.268 371.215 141.289 369.589 139.851 368.72C137.966 367.584 135.897 368.15 135.877 368.157L135.662 367.411C135.759 367.383 138.062 366.739 140.242 368.051C141.877 369.034 142.98 370.831 143.52 373.394L142.76 373.553Z" fill="#656590"/>
<path d="M82.3848 341.736C82.3848 341.736 80.8953 345.196 79.8246 349.455C79.3126 351.488 78.9014 353.707 78.7928 355.809C74.3783 354.219 68.0631 351.938 63.9668 350.456C65.8676 345.786 67.9002 341.208 68.9941 338.803L69.0252 338.741C69.4984 337.686 69.7855 337.065 69.7855 337.065L82.3848 341.736Z" fill="#FFBC96"/>
<path d="M81.3292 363.793C79.2019 362.135 78.625 359.104 78.7922 355.809C74.3809 354.218 68.0607 351.937 63.9706 350.46C62.1102 355.046 60.3888 359.719 59.8429 362.502C59.6061 363.709 60.264 364.908 61.4141 365.343L82.9994 373.512C84.7586 374.177 86.8332 373.28 87.3129 371.462C87.8871 369.285 85.8187 367.292 81.3292 363.793Z" fill="#1B1B43"/>
<path d="M82.3838 341.736C82.3838 341.736 80.8942 345.196 79.8236 349.455L68.5664 339.983L68.9931 338.803L69.0241 338.741C69.4974 337.686 69.7844 337.065 69.7844 337.065L82.3838 341.736Z" fill="#D28572"/>
<path d="M64.8654 366.541L64.1774 366.182C67.0681 360.642 61.974 357.897 61.7559 357.784L62.1149 357.096C62.1757 357.127 68.1102 360.321 64.8654 366.541Z" fill="#656590"/>
<path d="M156.328 346.966L131.634 348.905L126.459 260.718L118.809 231.725L108.801 193.811L108.281 191.832L105.869 182.693L105.512 181.328L110.236 180.901L135.769 178.612L137.313 185.595V185.602L152.604 254.752C153.101 257.001 153.396 259.298 153.473 261.602L156.328 346.966Z" fill="url(#paint11_linear_2033_13608)"/>
<path d="M120.772 212.103L118.81 231.724L115.629 263.486C115.264 267.14 114.449 270.748 113.2 274.2L86.8922 346.964L64.7812 338.43L85.3406 263.951C90.6394 233.291 89.7628 209.76 91.1282 194.833C91.2136 193.902 91.3066 193.01 91.4075 192.149C91.9583 187.579 92.8117 183.956 94.2625 181.326L105.869 182.692L114.046 183.654L115.823 191.171L116.18 192.692L120.772 212.103Z" fill="url(#paint12_linear_2033_13608)"/>
<path opacity="0.6" d="M137.314 185.595L137.58 188.569C137.58 188.569 102.926 197.878 91.1289 194.835C91.2142 193.904 91.3073 193.012 91.4082 192.15C91.959 187.581 92.8124 183.958 94.2632 181.328L105.87 182.693L105.513 181.328L110.237 180.901L135.77 178.612L137.314 185.595Z" fill="#1B1B43"/>
<path d="M126.083 261.139L114.499 215.379L105.006 212.342L105.242 211.603L115.145 214.772L115.198 214.98L126.835 260.947L126.083 261.139Z" fill="#1B1B43"/>
<path d="M143.859 263.151L143.586 262.425C149.674 260.141 152.983 258.022 153.016 258.001L153.437 258.653C153.3 258.741 150.033 260.835 143.859 263.151Z" fill="#1B1B43"/>
<path d="M114.201 270.932C114.142 270.927 108.284 270.33 102.502 268.788L102.702 268.038C108.424 269.564 114.22 270.155 114.278 270.161L114.201 270.932Z" fill="#1B1B43"/>
<path d="M66.8424 331.727L66.5742 332.456L89.0725 340.731L89.3407 340.002L66.8424 331.727Z" fill="#1B1B43"/>
<path d="M155.918 340.36L131.285 342.096L131.34 342.87L155.972 341.134L155.918 340.36Z" fill="#1B1B43"/>
<path d="M103.765 125.209L93.2709 129.433C90.2216 130.661 87.788 133.053 86.5095 136.082L77.7011 157.163C75.9359 161.388 77.1111 166.269 80.6054 169.228C83.4912 171.671 87.4671 172.374 91.0161 171.07L98.4633 168.332L103.765 125.209Z" fill="#FFB147"/>
<path d="M176.343 106.056C174.382 107.026 172.12 111.152 172.978 112.636C173.682 113.853 175.32 112.206 175.86 111.641C176.852 110.605 179.414 107.835 178 106.261C177.549 105.759 176.961 105.751 176.343 106.056Z" fill="#FFBC96"/>
<path d="M171.598 107.548C169.97 109.009 168.902 113.592 170.129 114.79C171.134 115.772 172.268 113.746 172.637 113.057C173.313 111.791 175.035 108.434 173.249 107.298C172.679 106.936 172.111 107.087 171.598 107.548Z" fill="#FFBC96"/>
<path d="M168.447 109.85C166.802 111.261 165.645 115.597 166.833 116.698C167.808 117.6 168.975 115.668 169.355 115.012C170.053 113.806 171.832 110.608 170.088 109.579C169.531 109.251 168.965 109.405 168.447 109.85Z" fill="#FFBC96"/>
<path d="M165.445 110.923C163.8 112.334 162.643 116.67 163.831 117.771C164.806 118.673 165.973 116.742 166.353 116.085C167.051 114.879 168.83 111.682 167.085 110.652C166.529 110.324 165.963 110.479 165.445 110.923Z" fill="#FFBC96"/>
<path d="M103.767 125.332L92.8412 144.115C92.8412 144.115 95.686 175.149 93.6171 178.96C91.5481 182.771 86.8932 185.766 89.7379 187.944C92.5827 190.121 115.082 193.933 139.391 188.216C146.115 186.31 141.46 182.771 139.908 181.138C138.356 179.505 136.287 138.399 136.287 138.399L122.307 125.66L111.978 122.882L103.767 125.332Z" fill="#FFB147"/>
<path opacity="0.2" d="M122.095 125.662C120.155 129.056 97.3267 132.545 103.766 125.209L110.361 123.819L122.095 125.662Z" fill="#1B1B43"/>
<path d="M151.672 147.773L142.664 134.412C140.575 131.017 137.169 128.643 133.26 127.858L122.32 125.662L128.785 149.907C128.785 149.907 138.871 164.065 147.987 167.363C156.168 170.322 167.019 165.462 173.003 133.484L159.438 131.634L151.672 147.773Z" fill="#FFB147"/>
<path d="M180.444 114.477C179.073 114.302 174.367 121.395 174.367 121.395L166.761 123.985C163.976 124.933 161.687 126.961 160.412 129.613L159.439 131.634L173.005 133.484C173.228 132.29 173.446 131.069 173.656 129.799C178.311 125.597 183.483 114.865 180.444 114.477Z" fill="#FFBC96"/>
<path d="M124.182 95.6875L126.933 99.4934C127.401 100.141 127.111 101.018 126.329 101.32L123.393 102.453L121.32 97.8527L124.182 95.6875Z" fill="#D28572"/>
<path d="M106.396 116.592C107.087 109.595 106.808 102.581 106.808 102.581L119.345 103.489C119.236 104.885 119.221 106.328 119.275 107.779C119.36 110.068 119.617 112.387 119.973 114.63C120.167 115.863 120.392 117.073 120.633 118.237L106.396 116.592Z" fill="#FFBC96"/>
<path d="M119.974 114.629C114.667 112.426 112.627 107.686 112.627 107.686L119.276 107.779C119.361 110.067 119.617 112.387 119.974 114.629Z" fill="#D28572"/>
<path d="M106.395 116.589L103.768 125.209C109.817 126.664 116.011 126.728 122.323 125.662L120.635 118.235L106.395 116.589Z" fill="#FFF5E8"/>
<path d="M123.875 89.2631L125.174 106.61C125.29 107.35 124.836 108.032 124.196 108.63C123.097 109.656 121.588 110.124 120.086 110.062L111.203 109.693L104.867 102.581L109.781 87.4527L118.703 87.3232L123.875 89.2631Z" fill="#FFBC96"/>
<path d="M109.294 99.5751C109.294 99.5751 111.621 106.849 106.675 110.534C101.341 108.788 91.4497 92.5927 103.766 87.453C103.766 87.453 107.16 78.8218 116.373 82.0222C124.505 84.8472 126.653 89.7805 126.653 89.7805C126.653 89.7805 120.931 94.0475 114.24 90.0716C114.24 90.0716 114.919 98.7021 109.294 99.5751Z" fill="#1B1B43"/>
<path d="M112.577 96.6034C114.025 98.3967 113.882 100.914 112.257 102.227C110.632 103.539 108.141 103.148 106.692 101.355C105.244 99.5614 105.387 97.0437 107.012 95.7316C108.638 94.4196 111.129 94.8097 112.577 96.6034Z" fill="#FFBC96"/>
<path d="M110.789 100.777C110.757 100.651 109.983 97.6929 107.9 98.1454L107.777 97.5765C109.884 97.1203 111.04 99.3783 111.353 100.635L110.789 100.777Z" fill="#1B1B43"/>
<path opacity="0.4" d="M121.862 100.738C122.19 99.3483 121.329 97.9555 119.94 97.6273C118.55 97.2991 117.157 98.1598 116.829 99.5497C116.5 100.94 117.361 102.332 118.751 102.661C120.141 102.989 121.534 102.128 121.862 100.738Z" fill="#FE5B52"/>
<path d="M92.5556 189.545C90.2015 188.985 88.8705 188.111 88.485 186.875C87.8582 184.86 89.9383 182.552 91.7733 180.517C92.0597 180.199 92.3365 179.892 92.5901 179.599C93.0978 179.014 93.4472 178.319 93.6011 177.589C95.3027 169.524 92.4824 144.412 92.4542 144.158L93.2247 144.071C93.3426 145.108 96.0878 169.562 94.3605 177.749C94.1799 178.607 93.7703 179.423 93.1766 180.108C92.9196 180.404 92.6394 180.715 92.3499 181.036C90.7371 182.825 88.7302 185.051 89.2261 186.644C89.5184 187.584 90.6992 188.306 92.735 188.791L92.5556 189.545Z" fill="#1B1B43"/>
<path d="M137.596 188.954L137.562 188.18C140.212 188.062 141.833 187.43 142.249 186.351C142.669 185.263 141.904 183.641 140.15 181.903C139.701 181.457 139.388 180.883 139.246 180.241C137.852 173.971 136.366 153.245 136.352 153.037L137.125 152.981C137.14 153.19 138.621 173.859 140.004 180.073C140.114 180.569 140.354 181.011 140.697 181.352C142.708 183.347 143.517 185.221 142.973 186.63C142.43 188.038 140.62 188.82 137.596 188.954Z" fill="#1B1B43"/>
<path d="M150.277 151.24L149.58 150.899L159.214 131.212L173.057 133.099L172.952 133.868L159.665 132.057L150.277 151.24Z" fill="#1B1B43"/>
<path d="M383.644 102.84C379.054 100.06 378.02 92.1076 382.287 89.7153C386.554 87.3232 389.269 89.4568 389.269 89.4568C389.269 89.4568 403.582 84.2364 408.988 97.5383C413.061 107.559 409.828 112.796 413.384 117.839C417.436 123.586 423.923 128.765 415.453 138.851L395.67 134.002L390.497 109.628L383.644 102.84Z" fill="#1B1B43"/>
<path d="M452.111 326.247L437.564 332.648C437.564 332.648 439.654 338.049 441.443 344.331L456.401 339.553L452.111 326.247Z" fill="#FFBC96"/>
<path d="M456.402 339.553L441.444 344.331C443.493 351.528 445.146 359.882 442.809 362.607C439.77 366.151 437.118 369.081 436.482 371.545C436.108 372.994 437.596 374.215 438.932 373.541L458.258 363.794C461.46 362.179 462.841 358.342 461.402 355.056L456.402 339.553Z" fill="#1B1B43"/>
<path d="M458.013 344.553L442.752 349.328L442.984 350.069L458.245 345.294L458.013 344.553Z" fill="#656590"/>
<path d="M439.973 366.482L439.812 365.722C443.517 364.937 445.672 363.576 446.22 361.679C447.12 358.559 443.41 354.908 443.372 354.872L443.913 354.315C444.08 354.477 447.993 358.332 446.965 361.894C446.332 364.088 443.98 365.631 439.973 366.482Z" fill="#656590"/>
<path d="M395.929 340.37L379.119 341.922C379.119 341.922 379.555 347.888 379.039 353.878L395.208 353.64L395.929 340.37Z" fill="#FFBC96"/>
<path d="M379.04 353.879C378.582 359.181 377.379 364.5 374.465 365.715C368.258 368.301 363.345 370.111 363.862 373.731H387.723C391.31 373.731 394.271 370.927 394.465 367.345L395.209 353.641L379.04 353.879Z" fill="#1B1B43"/>
<path d="M379.122 357.529L379.109 358.305L394.626 358.562L394.639 357.787L379.122 357.529Z" fill="#656590"/>
<path d="M374.07 368.652C373.038 368.652 371.836 368.499 370.469 368.195L370.639 367.437C374.039 368.198 376.352 367.963 377.319 366.762C378.607 365.163 377.294 362.287 377.281 362.258L377.985 361.931C378.048 362.067 379.511 365.278 377.923 367.248C377.171 368.183 375.881 368.652 374.07 368.652Z" fill="#656590"/>
<path d="M395.709 344.351C395.508 344.421 395.321 344.467 395.151 344.506C391.791 345.282 380.674 344.506 380.674 344.506C380.17 344.397 379.689 344.258 379.231 344.095C368.835 340.309 369.541 322.131 371.1 306.235C372.535 291.657 366.445 217.271 370.65 191.995L396.966 186.238L397.121 190.668L397.439 199.714L397.998 215.72C397.998 215.72 398.991 231.205 400.349 250.608C402.381 279.702 405.236 317.616 406.788 325.374C409.263 337.718 399.914 343.125 395.709 344.351Z" fill="url(#paint13_linear_2033_13608)"/>
<path d="M455.244 328.236C454.663 328.911 454.019 329.509 453.328 330.029C449.79 332.752 445.019 333.753 440.83 334.885C440.093 335.087 439.325 335.234 438.541 335.327C434.639 335.809 430.379 334.916 428.556 331.604C419.215 314.582 408.687 280.795 400.347 250.608C394.249 228.567 389.323 208.434 386.871 198.17C385.793 193.631 385.195 191.024 385.195 191.024L397.12 190.668L417.392 190.055C417.943 192.786 418.571 195.664 419.277 198.651C426.198 228.186 439.829 268.793 445.166 284.325C448.371 293.627 453.219 301.928 455.353 311.673C456.486 316.832 459.124 323.76 455.244 328.236Z" fill="url(#paint14_linear_2033_13608)"/>
<path opacity="0.6" d="M419.279 198.651C411.001 200.009 403.7 200.188 397.44 199.714C393.498 199.42 389.968 198.861 386.873 198.17C376.252 195.827 370.65 191.995 370.65 191.995L396.966 186.238L397.122 190.668L417.394 190.055C417.945 192.786 418.573 195.665 419.279 198.651Z" fill="#1B1B43"/>
<path d="M399.974 250.713L391.859 221.967L383.512 218.931L383.777 218.202L392.497 221.373L392.552 221.565L400.721 250.502L399.974 250.713Z" fill="#1B1B43"/>
<path d="M449.797 331.772L449.124 331.385C453.04 324.586 445.191 303.634 435.254 277.107C425.604 251.351 413.596 219.295 409.252 190.695L410.019 190.578C414.35 219.098 426.344 251.112 435.98 276.835C445.989 303.553 453.894 324.655 449.797 331.772Z" fill="#1B1B43"/>
<path d="M376.291 167.563C375.352 174.119 373.948 182.684 373.948 182.684H358.625L362.357 162.179L363.28 157.082C363.28 157.082 376.469 160.185 377.051 160.185C377.276 160.185 376.872 163.49 376.291 167.563Z" fill="#FFBC96"/>
<path d="M376.289 167.563L375.591 169.107L362.355 162.179L363.279 157.082C363.279 157.082 376.468 160.185 377.05 160.185C377.275 160.185 376.871 163.49 376.289 167.563Z" fill="#D28572"/>
<path d="M372.976 162.901C372.976 162.901 375.498 177.642 370.649 191.995C370.649 191.995 394.699 199.365 417.392 190.055L412.155 156.889L413.901 140.015L379.183 140.403L367.352 144.282L372.976 162.901Z" fill="#1B1B43"/>
<path d="M423.71 138.126C422.178 133.747 418.645 130.364 414.203 129.023L407.683 127.054C405.058 130.876 400.374 135.748 393.535 135.748C385.496 135.748 380.453 131.131 377.674 127.361L373.169 128.459C368.334 129.638 364.577 133.442 363.46 138.291L358.43 160.121L372.976 162.901L373.364 146.221L411.186 144.476L412.155 156.889C412.155 156.889 423.082 152.104 430.323 157.018L423.71 138.126Z" fill="#1B1B43"/>
<path d="M440.28 136.718C438.185 140.814 435.369 158.573 434.073 172.406C433.646 176.952 432.351 180.537 430.559 183.151C427.921 187.015 424.181 188.768 420.55 188.38C419.154 188.24 417.781 187.783 416.485 187.015C410.24 183.314 411.039 167.503 411.737 160.388C411.954 158.247 412.156 156.889 412.156 156.889C415.841 154.857 421.66 154.562 421.66 154.562C421.737 153.763 421.83 152.956 421.924 152.126C422.715 144.981 423.917 136.873 424.957 131.481C426.121 125.469 428.448 127.703 428.448 127.703C429.612 125.562 431.358 127.408 431.358 127.408C432.909 124.01 434.849 127.214 434.849 127.214C437.269 123.723 438.596 128.96 438.596 128.96C438.596 128.96 446.114 122.769 447.394 124.561C448.038 125.469 443.251 130.899 440.28 136.718Z" fill="#FFBC96"/>
<path d="M380.735 178.772H348.15V182.685H380.735V178.772Z" fill="white"/>
<path d="M362.106 182.719H328.496C326.879 182.719 325.41 181.779 324.734 180.31L311.646 151.893C311.211 150.949 311.901 149.871 312.941 149.871H344.465C345.996 149.871 347.387 150.762 348.028 152.153L362.106 182.719Z" fill="url(#paint15_linear_2033_13608)"/>
<path d="M373.171 182.685C372.759 184.214 372.209 185.618 371.464 186.867C369.664 189.908 366.778 191.995 362.332 192.554C360.812 192.756 359.113 192.763 357.204 192.577C341.804 191.049 337.351 182.623 337.351 182.623C337.351 182.623 335.636 179.047 339.275 179.869C339.275 179.869 339.958 177.596 342.766 179.97C342.766 179.97 342.433 177.154 345.194 179.73C345.194 179.73 344.807 176.867 347.809 179.342C350.819 181.809 353.147 182.538 356.785 182.685C360.416 182.833 373.171 182.685 373.171 182.685Z" fill="#FFBC96"/>
<path d="M372.376 146.213L371.602 146.258L372.571 162.938L373.345 162.893L372.376 146.213Z" fill="url(#paint16_linear_2033_13608)"/>
<path d="M391.86 141.76C390.025 141.76 388.409 141.539 387.049 141.233C382.422 140.19 379.758 138.013 379.646 137.921L380.141 137.323C380.246 137.41 390.728 145.823 405.814 136.772L406.212 137.438C400.682 140.756 395.774 141.76 391.86 141.76Z" fill="url(#paint17_linear_2033_13608)"/>
<path d="M411.944 149.252L411.17 149.311L411.751 156.94L412.526 156.881L411.944 149.252Z" fill="url(#paint18_linear_2033_13608)"/>
<path d="M400.066 160.705C397.573 160.705 395.495 158.854 395.215 156.369L394.592 150.84L405.26 150.138L404.943 156.082C404.808 158.634 402.699 160.665 400.144 160.705C400.118 160.705 400.091 160.705 400.066 160.705ZM395.454 151.56L395.986 156.282C396.224 158.394 398.017 159.955 400.132 159.929C402.281 159.895 404.055 158.187 404.169 156.041L404.439 150.969L395.454 151.56Z" fill="url(#paint19_linear_2033_13608)"/>
<path d="M421.226 154.567L418.438 174.058L419.206 174.168L421.994 154.677L421.226 154.567Z" fill="#D28572"/>
<path d="M435.153 127.162L434.58 127.267L435.162 130.467L435.735 130.363L435.153 127.162Z" fill="#D28572"/>
<path d="M431.661 127.259L431.088 127.363L431.67 130.564L432.243 130.46L431.661 127.259Z" fill="#D28572"/>
<path d="M428.752 127.453L428.18 127.558L428.762 130.758L429.334 130.654L428.752 127.453Z" fill="#D28572"/>
<path d="M438.083 126.804L437.537 127.008L439.347 131.857L439.892 131.653L438.083 126.804Z" fill="#D28572"/>
<path d="M421.649 154.557L411.688 160.36C411.905 158.219 412.106 156.861 412.106 156.861C415.792 154.828 421.649 154.557 421.649 154.557Z" fill="#D28572"/>
<path opacity="0.4" d="M430.56 183.15C427.923 187.014 424.183 188.767 420.552 188.379C420.514 188.123 420.498 187.859 420.498 187.596C420.498 184.275 423.19 181.583 426.511 181.583C428.07 181.583 429.498 182.18 430.56 183.15Z" fill="#FE5B52"/>
<path opacity="0.4" d="M371.463 186.866C369.663 189.907 366.777 191.994 362.332 192.553C362.316 192.366 362.309 192.18 362.309 191.994C362.309 188.674 365.001 185.981 368.321 185.981C369.469 185.981 370.548 186.307 371.463 186.866Z" fill="#FE5B52"/>
<path d="M349.031 183.779C347.497 183.478 345.579 181.106 344.936 179.862L345.452 179.595C346.115 180.875 347.924 182.969 349.143 183.207L349.031 183.779Z" fill="#D28572"/>
<path d="M345.389 184.181C344.088 182.844 342.89 181.179 342.406 180.036L342.943 179.81C343.401 180.892 344.551 182.486 345.806 183.775L345.389 184.181Z" fill="#D28572"/>
<path d="M341.801 184.084C340.5 182.747 339.302 181.082 338.818 179.939L339.355 179.713C339.813 180.795 340.963 182.389 342.218 183.678L341.801 184.084Z" fill="#D28572"/>
<path d="M407.689 127.05C405.058 130.875 400.373 135.747 393.538 135.747C385.5 135.747 380.457 131.131 377.68 127.361L385.973 125.336C386.175 123.846 386.346 122.395 386.485 121.022C386.594 119.944 386.687 118.912 386.772 117.934C386.912 116.328 387.005 114.878 387.083 113.636C387.184 111.937 387.23 110.649 387.253 109.936C387.269 109.525 387.269 109.307 387.269 109.307L398.906 104.652C398.906 104.652 398.518 119.781 402.01 125.336L407.689 127.05Z" fill="#FFBC96"/>
<path d="M396.509 114.93C396.509 114.93 393.395 118.571 386.482 121.023C386.591 119.944 386.684 118.912 386.769 117.935C386.909 116.329 387.002 114.878 387.08 113.637L396.509 114.93Z" fill="#D28572"/>
<path d="M384.162 95.2116C384.162 95.2116 378.213 111.374 382.48 114.349C386.276 116.994 391.273 117.323 396.187 116.03L399.419 105.039L397.48 94.3066L384.162 95.2116Z" fill="#FFBC96"/>
<path d="M397.737 105.168C397.737 105.168 393.536 106.779 391.789 100.901C390.367 96.1163 384.16 95.2114 384.16 95.2114L386.682 92.8839L398.642 92.5605L403.039 97.9268L401.552 104.909L397.737 105.168Z" fill="#1B1B43"/>
<path d="M403.166 108.529C401.809 110.879 399.205 111.916 397.35 110.845C395.495 109.774 395.091 107 396.447 104.65C397.804 102.3 400.408 101.263 402.263 102.334C404.119 103.405 404.523 106.179 403.166 108.529Z" fill="#FFBC96"/>
<path d="M398.433 108.693L397.852 108.688C397.852 108.651 397.928 105.032 401.519 104.619L401.586 105.197C398.51 105.55 398.435 108.565 398.433 108.693Z" fill="#1B1B43"/>
<path d="M383.37 103.712C383.736 103.712 384.032 103.415 384.032 103.049C384.032 102.683 383.736 102.387 383.37 102.387C383.004 102.387 382.707 102.683 382.707 103.049C382.707 103.415 383.004 103.712 383.37 103.712Z" fill="#1B1B43"/>
<path d="M388.554 103.969C388.554 104.412 388.195 104.771 387.751 104.771C387.308 104.771 386.949 104.412 386.949 103.969C386.949 103.526 387.308 103.167 387.751 103.167C388.195 103.167 388.554 103.526 388.554 103.969Z" fill="#1B1B43"/>
<path d="M384.818 101.54H382.839C382.56 101.54 382.334 101.313 382.334 101.035C382.334 100.756 382.56 100.529 382.839 100.529H384.818C385.097 100.529 385.324 100.756 385.324 101.035C385.324 101.313 385.097 101.54 384.818 101.54Z" fill="#1B1B43"/>
<path d="M389.793 102.928L387.604 102.003C387.347 101.894 387.226 101.598 387.335 101.341C387.444 101.084 387.74 100.964 387.997 101.072L390.186 101.997C390.443 102.106 390.564 102.402 390.455 102.659C390.347 102.916 390.051 103.037 389.793 102.928Z" fill="#1B1B43"/>
<path d="M383.062 108.085C382.948 108.085 382.839 108.017 382.793 107.904C382.405 106.961 382.395 106.236 382.762 105.75C383.148 105.238 383.831 105.168 384.173 105.168L384.913 103.733C384.987 103.59 385.164 103.534 385.305 103.607C385.447 103.681 385.503 103.857 385.43 103.999L384.515 105.777L384.315 105.755C384.307 105.756 383.543 105.678 383.225 106.102C382.995 106.408 383.032 106.955 383.331 107.683C383.393 107.831 383.321 108.002 383.173 108.063C383.136 108.078 383.099 108.085 383.062 108.085Z" fill="#1B1B43"/>
<path d="M383.199 110.612C384.325 112.201 385.752 111.522 386.724 110.709C385.406 110.793 384.162 110.72 383.199 110.612Z" fill="#1B1B43"/>
<path d="M386.726 110.708C387.288 110.237 387.699 109.723 387.81 109.579C387.823 109.561 387.805 109.541 387.783 109.542C384.892 109.714 382.937 109.506 382.642 109.471C382.622 109.469 382.612 109.491 382.62 109.509C382.8 109.962 382.996 110.322 383.201 110.611C384.164 110.718 385.408 110.792 386.726 110.708Z" fill="white"/>
<path opacity="0.4" d="M393.561 107.534C393.561 108.654 392.653 109.562 391.532 109.562C390.412 109.562 389.504 108.654 389.504 107.534C389.504 106.414 390.412 105.506 391.532 105.506C392.652 105.506 393.561 106.414 393.561 107.534Z" fill="#FE5B52"/>
<path d="M518.25 373.343H0V374.119H518.25V373.343Z" fill="#1B1B43"/>
<defs>
<linearGradient id="paint0_linear_2033_13608" x1="484.732" y1="69.1309" x2="424.943" y2="69.1309" gradientUnits="userSpaceOnUse">
<stop stop-color="#2058FF"/>
<stop offset="1" stop-color="#004BC2"/>
</linearGradient>
<linearGradient id="paint1_linear_2033_13608" x1="460.246" y1="75.3806" x2="450.697" y2="75.3806" gradientUnits="userSpaceOnUse">
<stop stop-color="#2058FF"/>
<stop offset="1" stop-color="#004BC2"/>
</linearGradient>
<linearGradient id="paint2_linear_2033_13608" x1="462.977" y1="66.6886" x2="447.965" y2="66.6886" gradientUnits="userSpaceOnUse">
<stop stop-color="#2058FF"/>
<stop offset="1" stop-color="#004BC2"/>
</linearGradient>
<linearGradient id="paint3_linear_2033_13608" x1="454.63" y1="62.9542" x2="450.932" y2="62.9542" gradientUnits="userSpaceOnUse">
<stop stop-color="#2058FF"/>
<stop offset="1" stop-color="#004BC2"/>
</linearGradient>
<linearGradient id="paint4_linear_2033_13608" x1="444.016" y1="53.8001" x2="443.534" y2="54.4075" gradientUnits="userSpaceOnUse">
<stop stop-color="#2058FF"/>
<stop offset="1" stop-color="#004BC2"/>
</linearGradient>
<linearGradient id="paint5_linear_2033_13608" x1="455.323" y1="48.4495" x2="454.547" y2="48.4743" gradientUnits="userSpaceOnUse">
<stop stop-color="#2058FF"/>
<stop offset="1" stop-color="#004BC2"/>
</linearGradient>
<linearGradient id="paint6_linear_2033_13608" x1="468.508" y1="50.7966" x2="463.931" y2="55.2497" gradientUnits="userSpaceOnUse">
<stop stop-color="#2058FF"/>
<stop offset="1" stop-color="#004BC2"/>
</linearGradient>
<linearGradient id="paint7_linear_2033_13608" x1="84.9866" y1="75.9529" x2="32.3262" y2="75.9529" gradientUnits="userSpaceOnUse">
<stop stop-color="#2058FF"/>
<stop offset="1" stop-color="#004BC2"/>
</linearGradient>
<linearGradient id="paint8_linear_2033_13608" x1="66.3665" y1="71.1514" x2="50.959" y2="71.1514" gradientUnits="userSpaceOnUse">
<stop stop-color="#2058FF"/>
<stop offset="1" stop-color="#004BC2"/>
</linearGradient>
<linearGradient id="paint9_linear_2033_13608" x1="199.754" y1="125.869" x2="112.393" y2="125.869" gradientUnits="userSpaceOnUse">
<stop stop-color="#2058FF"/>
<stop offset="1" stop-color="#004BC2"/>
</linearGradient>
<linearGradient id="paint10_linear_2033_13608" x1="261.864" y1="84.5776" x2="188.217" y2="84.5776" gradientUnits="userSpaceOnUse">
<stop stop-color="#2058FF"/>
<stop offset="1" stop-color="#004BC2"/>
</linearGradient>
<linearGradient id="paint11_linear_2033_13608" x1="156.328" y1="263.759" x2="105.512" y2="263.759" gradientUnits="userSpaceOnUse">
<stop stop-color="#2058FF"/>
<stop offset="1" stop-color="#004BC2"/>
</linearGradient>
<linearGradient id="paint12_linear_2033_13608" x1="120.772" y1="264.145" x2="64.7812" y2="264.145" gradientUnits="userSpaceOnUse">
<stop stop-color="#2058FF"/>
<stop offset="1" stop-color="#004BC2"/>
</linearGradient>
<linearGradient id="paint13_linear_2033_13608" x1="407.199" y1="265.545" x2="369.145" y2="265.545" gradientUnits="userSpaceOnUse">
<stop stop-color="#2058FF"/>
<stop offset="1" stop-color="#004BC2"/>
</linearGradient>
<linearGradient id="paint14_linear_2033_13608" x1="457.285" y1="262.752" x2="385.195" y2="262.752" gradientUnits="userSpaceOnUse">
<stop stop-color="#2058FF"/>
<stop offset="1" stop-color="#004BC2"/>
</linearGradient>
<linearGradient id="paint15_linear_2033_13608" x1="362.106" y1="166.295" x2="311.514" y2="166.295" gradientUnits="userSpaceOnUse">
<stop stop-color="#2058FF"/>
<stop offset="1" stop-color="#004BC2"/>
</linearGradient>
<linearGradient id="paint16_linear_2033_13608" x1="372.86" y1="154.553" x2="372.086" y2="154.598" gradientUnits="userSpaceOnUse">
<stop stop-color="#2058FF"/>
<stop offset="1" stop-color="#004BC2"/>
</linearGradient>
<linearGradient id="paint17_linear_2033_13608" x1="406.212" y1="139.266" x2="379.646" y2="139.266" gradientUnits="userSpaceOnUse">
<stop stop-color="#2058FF"/>
<stop offset="1" stop-color="#004BC2"/>
</linearGradient>
<linearGradient id="paint18_linear_2033_13608" x1="412.235" y1="153.066" x2="411.461" y2="153.125" gradientUnits="userSpaceOnUse">
<stop stop-color="#2058FF"/>
<stop offset="1" stop-color="#004BC2"/>
</linearGradient>
<linearGradient id="paint19_linear_2033_13608" x1="405.26" y1="155.421" x2="394.592" y2="155.421" gradientUnits="userSpaceOnUse">
<stop stop-color="#2058FF"/>
<stop offset="1" stop-color="#004BC2"/>
</linearGradient>
</defs>
</svg>
