<svg width="514" height="494" viewBox="0 0 514 494" fill="none" xmlns="http://www.w3.org/2000/svg">
<path d="M17.3154 450.069H464.255C472.996 436.286 477.753 419.983 476.555 401.755C475.391 384.031 469.146 367.999 459.896 353.499C443.622 327.986 418.049 307.211 394.495 290.288C381.608 281.029 364.805 259.534 383.692 254.86C522.814 220.433 456.887 150.24 447.823 137.606C424.695 105.373 374.296 126.214 332.246 126.214C287.467 126.214 268.123 48.9518 198.174 60.1578C112.586 73.8696 154.145 187.865 117.046 236.343C105.054 252.014 -8.45514 300.953 0.502992 405.565C1.83778 421.123 7.50594 436.657 17.3154 450.069Z" fill="#D9E2FF"/>
<mask id="mask0_2037_15027" style="mask-type:luminance" maskUnits="userSpaceOnUse" x="25" y="331" width="450" height="118">
<path d="M474.122 331.09H25.4961V448.171H474.122V331.09Z" fill="white"/>
</mask>
<g mask="url(#mask0_2037_15027)">
<path d="M182.6 458.705C182.6 458.705 206.594 460.827 209.54 438.579C218.301 436.957 223.004 432.889 224.628 425.948C225.39 422.696 224.755 419.806 222.869 417.723C233.182 413.109 237.584 401.048 233.482 396.004C231.685 393.795 220.96 391 216.456 400.053C215.316 395.405 203.72 391.524 199.569 407.994C188.784 404.66 181.954 407.516 181.833 430.546C171.954 425.032 174.615 450.722 174.615 450.722L182.6 458.705Z" fill="#B5E2FF"/>
<path d="M181.305 451.371C181.305 451.371 210.031 427.824 222.789 403.396" stroke="#94BAD1" stroke-width="1.1412" stroke-miterlimit="10" stroke-linecap="round" stroke-linejoin="round"/>
<path d="M226.11 409.666C226.11 409.666 221.473 409.731 217.457 412.263" stroke="#94BAD1" stroke-width="1.1412" stroke-miterlimit="10" stroke-linecap="round" stroke-linejoin="round"/>
<path d="M211.969 419.811C211.969 419.811 213.905 411.312 211.16 405.672" stroke="#94BAD1" stroke-width="1.1412" stroke-miterlimit="10" stroke-linecap="round" stroke-linejoin="round"/>
<path d="M203.308 443.238C203.308 443.238 196.272 441.174 190.23 443.727" stroke="#94BAD1" stroke-width="1.1412" stroke-miterlimit="10" stroke-linecap="round" stroke-linejoin="round"/>
<path d="M199.389 434.428C199.389 434.428 203.05 419.567 198.875 413.183" stroke="#94BAD1" stroke-width="1.1412" stroke-miterlimit="10" stroke-linecap="round" stroke-linejoin="round"/>
<path d="M218.91 424.918C218.91 424.918 213.29 423.433 207.164 425.726" stroke="#94BAD1" stroke-width="1.1412" stroke-miterlimit="10" stroke-linecap="round" stroke-linejoin="round"/>
<path d="M315.967 458.705C315.967 458.705 291.973 460.827 289.027 438.579C280.266 436.957 275.563 432.889 273.939 425.948C273.177 422.696 273.812 419.806 275.698 417.723C265.385 413.109 260.983 401.048 265.085 396.004C266.882 393.795 277.607 391 282.111 400.053C283.251 395.405 294.847 391.524 298.998 407.994C309.783 404.66 316.613 407.516 316.734 430.546C326.613 425.032 323.952 450.722 323.952 450.722L315.967 458.705Z" fill="#B5E2FF"/>
<path d="M317.262 451.371C317.262 451.371 288.536 427.824 275.777 403.396" stroke="#94BAD1" stroke-width="1.1412" stroke-miterlimit="10" stroke-linecap="round" stroke-linejoin="round"/>
<path d="M272.457 409.666C272.457 409.666 277.094 409.731 281.11 412.263" stroke="#94BAD1" stroke-width="1.1412" stroke-miterlimit="10" stroke-linecap="round" stroke-linejoin="round"/>
<path d="M286.593 419.811C286.593 419.811 284.656 411.312 287.401 405.672" stroke="#94BAD1" stroke-width="1.1412" stroke-miterlimit="10" stroke-linecap="round" stroke-linejoin="round"/>
<path d="M295.254 443.238C295.254 443.238 302.29 441.174 308.332 443.727" stroke="#94BAD1" stroke-width="1.1412" stroke-miterlimit="10" stroke-linecap="round" stroke-linejoin="round"/>
<path d="M299.176 434.428C299.176 434.428 295.515 419.567 299.69 413.183" stroke="#94BAD1" stroke-width="1.1412" stroke-miterlimit="10" stroke-linecap="round" stroke-linejoin="round"/>
<path d="M279.656 424.918C279.656 424.918 285.276 423.433 291.402 425.726" stroke="#94BAD1" stroke-width="1.1412" stroke-miterlimit="10" stroke-linecap="round" stroke-linejoin="round"/>
<path d="M134.995 442.163C134.995 442.163 133.488 408.54 102.13 408.58C98.2614 396.747 91.7553 390.987 81.8424 390.023C77.1962 389.572 73.3126 390.986 70.776 393.983C62.4772 380.555 44.9558 376.693 38.7303 383.309C36.003 386.207 34.119 401.578 47.491 406.139C41.267 408.579 38.0387 425.356 61.6178 428.054C58.9979 443.61 64.2175 452.541 96.1357 448.442C90.3292 463.145 125.416 454.701 125.416 454.701L134.995 442.163Z" fill="#B5E2FF"/>
<path d="M127.787 448.172C127.787 448.172 87.1404 409.893 50.9453 396.748" stroke="#94BAD1" stroke-width="1.5946" stroke-miterlimit="10" stroke-linecap="round" stroke-linejoin="round"/>
<path d="M59.0156 390.988C59.0156 390.988 59.9637 397.398 64.2151 402.492" stroke="#94BAD1" stroke-width="1.5946" stroke-miterlimit="10" stroke-linecap="round" stroke-linejoin="round"/>
<path d="M75.6823 408.69C75.6823 408.69 63.5524 407.582 56.25 412.429" stroke="#94BAD1" stroke-width="1.5946" stroke-miterlimit="10" stroke-linecap="round" stroke-linejoin="round"/>
<path d="M109.734 416.348C109.734 416.348 108.179 426.474 112.832 434.37" stroke="#94BAD1" stroke-width="1.5946" stroke-miterlimit="10" stroke-linecap="round" stroke-linejoin="round"/>
<path d="M98.2588 423.41C98.2588 423.41 76.9989 421.092 68.9297 428.058" stroke="#94BAD1" stroke-width="1.5946" stroke-miterlimit="10" stroke-linecap="round" stroke-linejoin="round"/>
<path d="M81.4716 398.136C81.4716 398.136 80.4551 406.194 84.7643 414.254" stroke="#94BAD1" stroke-width="1.5946" stroke-miterlimit="10" stroke-linecap="round" stroke-linejoin="round"/>
<path d="M118.009 439.725C118.009 439.725 106.046 436.637 94.9805 441.709" stroke="#94BAD1" stroke-width="1.5946" stroke-miterlimit="10" stroke-linecap="round" stroke-linejoin="round"/>
<path d="M129.598 458.42C129.598 458.42 163.125 461.383 167.24 430.297C179.483 428.03 186.054 422.346 188.322 412.648C189.385 408.103 188.498 404.065 185.863 401.154C200.272 394.707 206.423 377.853 200.691 370.807C198.18 367.72 183.193 363.815 176.901 376.465C175.307 369.972 159.105 364.548 153.306 387.562C138.235 382.903 128.691 386.893 128.522 419.072C114.719 411.368 118.436 447.265 118.436 447.265L129.598 458.42Z" fill="#B5E2FF"/>
<path d="M127.785 448.173C127.785 448.173 167.924 415.272 185.752 381.138" stroke="#94BAD1" stroke-width="1.5946" stroke-miterlimit="10" stroke-linecap="round" stroke-linejoin="round"/>
<path d="M190.389 389.898C190.389 389.898 183.911 389.988 178.297 393.528" stroke="#94BAD1" stroke-width="1.5946" stroke-miterlimit="10" stroke-linecap="round" stroke-linejoin="round"/>
<path d="M170.633 404.072C170.633 404.072 173.339 392.196 169.504 384.314" stroke="#94BAD1" stroke-width="1.5946" stroke-miterlimit="10" stroke-linecap="round" stroke-linejoin="round"/>
<path d="M158.531 436.808C158.531 436.808 148.7 433.924 140.258 437.491" stroke="#94BAD1" stroke-width="1.5946" stroke-miterlimit="10" stroke-linecap="round" stroke-linejoin="round"/>
<path d="M153.05 424.498C153.05 424.498 158.165 403.732 152.332 394.812" stroke="#94BAD1" stroke-width="1.5946" stroke-miterlimit="10" stroke-linecap="round" stroke-linejoin="round"/>
<path d="M180.33 411.209C180.33 411.209 172.477 409.133 163.918 412.337" stroke="#94BAD1" stroke-width="1.5946" stroke-miterlimit="10" stroke-linecap="round" stroke-linejoin="round"/>
<path d="M400.835 442.163C400.835 442.163 399.328 408.54 367.97 408.58C364.101 396.747 357.595 390.987 347.682 390.023C343.036 389.572 339.152 390.986 336.616 393.983C328.316 380.555 310.796 376.693 304.57 383.309C301.843 386.207 299.959 401.578 313.331 406.139C307.107 408.579 303.879 425.356 327.458 428.054C324.838 443.61 330.057 452.541 361.975 448.442C356.169 463.145 391.256 454.701 391.256 454.701L400.835 442.163Z" fill="#B5E2FF"/>
<path d="M393.631 448.172C393.631 448.172 352.984 409.893 316.789 396.748" stroke="#94BAD1" stroke-width="1.5946" stroke-miterlimit="10" stroke-linecap="round" stroke-linejoin="round"/>
<path d="M324.859 390.988C324.859 390.988 325.807 397.398 330.059 402.492" stroke="#94BAD1" stroke-width="1.5946" stroke-miterlimit="10" stroke-linecap="round" stroke-linejoin="round"/>
<path d="M341.522 408.69C341.522 408.69 329.392 407.582 322.09 412.429" stroke="#94BAD1" stroke-width="1.5946" stroke-miterlimit="10" stroke-linecap="round" stroke-linejoin="round"/>
<path d="M375.574 416.348C375.574 416.348 374.019 426.474 378.672 434.37" stroke="#94BAD1" stroke-width="1.5946" stroke-miterlimit="10" stroke-linecap="round" stroke-linejoin="round"/>
<path d="M364.099 423.41C364.099 423.41 342.839 421.092 334.77 428.058" stroke="#94BAD1" stroke-width="1.5946" stroke-miterlimit="10" stroke-linecap="round" stroke-linejoin="round"/>
<path d="M347.311 398.136C347.311 398.136 346.295 406.194 350.604 414.254" stroke="#94BAD1" stroke-width="1.5946" stroke-miterlimit="10" stroke-linecap="round" stroke-linejoin="round"/>
<path d="M383.85 439.725C383.85 439.725 371.887 436.637 360.82 441.709" stroke="#94BAD1" stroke-width="1.5946" stroke-miterlimit="10" stroke-linecap="round" stroke-linejoin="round"/>
<path d="M395.44 458.42C395.44 458.42 428.967 461.383 433.084 430.297C445.326 428.03 451.897 422.346 454.165 412.648C455.229 408.103 454.341 404.065 451.707 401.154C466.115 394.707 472.267 377.853 466.534 370.807C464.023 367.72 449.037 363.815 442.745 376.465C441.151 369.972 424.949 364.548 419.149 387.562C404.079 382.903 394.535 386.893 394.366 419.072C380.563 411.368 384.28 447.265 384.28 447.265L395.44 458.42Z" fill="#B5E2FF"/>
<path d="M393.633 448.173C393.633 448.173 433.772 415.272 451.599 381.138" stroke="#94BAD1" stroke-width="1.5946" stroke-miterlimit="10" stroke-linecap="round" stroke-linejoin="round"/>
<path d="M456.241 389.898C456.241 389.898 449.763 389.988 444.148 393.528" stroke="#94BAD1" stroke-width="1.5946" stroke-miterlimit="10" stroke-linecap="round" stroke-linejoin="round"/>
<path d="M436.485 404.072C436.485 404.072 439.191 392.196 435.355 384.314" stroke="#94BAD1" stroke-width="1.5946" stroke-miterlimit="10" stroke-linecap="round" stroke-linejoin="round"/>
<path d="M424.383 436.808C424.383 436.808 414.552 433.924 406.109 437.491" stroke="#94BAD1" stroke-width="1.5946" stroke-miterlimit="10" stroke-linecap="round" stroke-linejoin="round"/>
<path d="M418.902 424.498C418.902 424.498 424.018 403.732 418.184 394.812" stroke="#94BAD1" stroke-width="1.5946" stroke-miterlimit="10" stroke-linecap="round" stroke-linejoin="round"/>
<path d="M446.182 411.209C446.182 411.209 438.329 409.133 429.77 412.337" stroke="#94BAD1" stroke-width="1.5946" stroke-miterlimit="10" stroke-linecap="round" stroke-linejoin="round"/>
<path d="M135.986 451.516C135.986 451.516 160.297 428.239 139.614 404.668C145.971 393.963 146.021 385.275 140.217 377.18C137.498 373.386 133.875 371.395 129.949 371.461C134.587 356.373 125.955 340.644 116.877 340.316C112.9 340.173 100.093 348.878 105.467 361.944C99.5317 358.866 84.7805 367.487 98.2788 387.008C84.8477 395.282 81.5644 405.091 105.669 426.41C90.7804 431.724 120.242 452.567 120.242 452.567L135.986 451.516Z" fill="#B5E2FF"/>
<path d="M127.779 451.675C127.779 451.675 128.758 394.255 114.812 358.36" stroke="#94BAD1" stroke-width="1.5946" stroke-miterlimit="10" stroke-linecap="round" stroke-linejoin="round"/>
<path d="M124.458 360.64C124.458 360.64 120.259 365.573 119.227 372.129" stroke="#94BAD1" stroke-width="1.5946" stroke-miterlimit="10" stroke-linecap="round" stroke-linejoin="round"/>
<path d="M122.116 384.84C122.116 384.84 114.961 374.982 106.504 372.679" stroke="#94BAD1" stroke-width="1.5946" stroke-miterlimit="10" stroke-linecap="round" stroke-linejoin="round"/>
<path d="M125.906 411.521C125.906 411.521 113.649 393.996 103.094 392.512" stroke="#94BAD1" stroke-width="1.5946" stroke-miterlimit="10" stroke-linecap="round" stroke-linejoin="round"/>
<path d="M133.87 382.246C133.87 382.246 127.136 386.788 123.91 395.339" stroke="#94BAD1" stroke-width="1.5946" stroke-miterlimit="10" stroke-linecap="round" stroke-linejoin="round"/>
<path d="M144.888 412.428C144.888 412.428 130.569 413.165 126.953 424.496" stroke="#94BAD1" stroke-width="1.5946" stroke-miterlimit="10" stroke-linecap="round" stroke-linejoin="round"/>
<path d="M401.83 451.516C401.83 451.516 426.139 428.239 405.458 404.668C411.815 393.963 411.865 385.275 406.061 377.18C403.342 373.386 399.719 371.395 395.792 371.461C400.43 356.373 391.799 340.644 382.721 340.316C378.745 340.173 365.937 348.878 371.311 361.944C365.375 358.866 350.624 367.487 364.123 387.008C350.691 395.282 347.408 405.091 371.512 426.41C356.624 431.724 386.086 452.567 386.086 452.567L401.83 451.516Z" fill="#B5E2FF"/>
<path d="M393.623 451.675C393.623 451.675 394.602 394.255 380.656 358.36" stroke="#94BAD1" stroke-width="1.5946" stroke-miterlimit="10" stroke-linecap="round" stroke-linejoin="round"/>
<path d="M390.302 360.64C390.302 360.64 386.103 365.573 385.07 372.129" stroke="#94BAD1" stroke-width="1.5946" stroke-miterlimit="10" stroke-linecap="round" stroke-linejoin="round"/>
<path d="M387.958 384.84C387.958 384.84 380.804 374.982 372.348 372.679" stroke="#94BAD1" stroke-width="1.5946" stroke-miterlimit="10" stroke-linecap="round" stroke-linejoin="round"/>
<path d="M391.75 411.521C391.75 411.521 379.492 393.996 368.938 392.512" stroke="#94BAD1" stroke-width="1.5946" stroke-miterlimit="10" stroke-linecap="round" stroke-linejoin="round"/>
<path d="M399.714 382.246C399.714 382.246 392.979 386.788 389.754 395.339" stroke="#94BAD1" stroke-width="1.5946" stroke-miterlimit="10" stroke-linecap="round" stroke-linejoin="round"/>
<path d="M410.732 412.428C410.732 412.428 396.413 413.165 392.797 424.496" stroke="#94BAD1" stroke-width="1.5946" stroke-miterlimit="10" stroke-linecap="round" stroke-linejoin="round"/>
</g>
<path d="M487.781 444.785H2.56641V451.804H487.781V444.785Z" fill="#BDD5F0"/>
<path d="M210.602 233.429L230.751 194.887L250.884 203.694L252.01 206.835L249.713 205.859L232.577 237.526L214.156 234.092L212.346 236.374L210.602 233.429Z" fill="#9EB0FF"/>
<path d="M212.348 236.374L233.903 240.17L252.013 206.836L232.267 198.452L212.348 236.374Z" fill="#6782FF"/>
<path opacity="0.7" d="M154.117 493.876C191.837 493.876 222.415 487.036 222.415 478.597C222.415 470.159 191.837 463.318 154.117 463.318C116.398 463.318 85.8203 470.159 85.8203 478.597C85.8203 487.036 116.398 493.876 154.117 493.876Z" fill="#BDD5F0"/>
<path d="M135.248 449.98L133.628 459.175L125.051 457.457L126.653 447.109L135.248 449.98Z" fill="#E3A5A2"/>
<path d="M140.138 471.501C142.26 470.85 142.95 468.176 141.352 466.635C141.096 466.387 140.823 466.134 140.537 465.876C137.113 462.807 135.837 456.579 135.941 455.87C136.047 455.137 135.563 454.452 134.843 454.276L125.172 452.391C125.172 452.391 123.408 452.022 122.926 454.389C122.413 456.907 120.276 461.978 123.683 463.546C128.998 465.994 126.897 472.863 133.678 472.656C136.008 472.585 138.292 472.068 140.138 471.501Z" fill="#752741"/>
<path d="M143.721 467.679C141.346 466.22 136.852 464.489 132.134 468.096C131.161 468.84 130.648 470.046 130.686 471.272C130.711 472.087 131.392 472.727 132.207 472.702L144.145 472.336C144.932 472.312 145.549 471.656 145.525 470.869C145.485 469.572 144.826 468.358 143.721 467.679Z" fill="#752741"/>
<path d="M171.849 302.502C170.619 298.594 134.569 305.651 125.049 300.96C122.325 318.801 125.594 336.841 130.033 361.031C132.327 375.575 129.022 388.671 127.031 403.288C125.288 415.988 124.104 437.409 123.31 451.805C122.29 456.388 132.488 458.09 135.94 455.869C140.323 443.805 143.918 428.114 147.99 415.896C152.674 401.852 157.246 383.549 161.977 369.559C167.176 354.19 174.338 326.894 171.849 302.502Z" fill="#355679"/>
<path d="M175.464 477.51C173.504 476.594 170.339 473.208 170.294 472.319C170.198 470.447 169.883 466.935 169.83 466.057C169.761 464.893 169.093 464.893 167.93 464.814C165.729 464.662 161.313 464.819 158.585 465.519C157.668 465.754 157.567 466.308 157.592 467.255C157.684 470.956 157.104 474.595 157.256 476.034C157.385 477.256 158.107 477.933 159.39 478.384C160.375 478.731 161.681 480.327 162.65 481.713C163.773 483.318 164.873 484.27 166.166 484.716C169.771 486.535 173.165 486.638 177.283 485.715C180.672 484.956 181.235 483.898 181.606 482.299C181.603 482.287 181.596 482.277 181.592 482.265C181.756 480.587 178.595 478.975 175.464 477.51Z" fill="#AB4467"/>
<path d="M170.178 484.097C166.984 483.642 166.869 481.521 165.308 479.754C164.129 478.419 161.491 477.048 160.49 475.562C158.804 473.059 160.66 466.688 160.388 465.168C159.743 465.266 159.124 465.377 158.581 465.517C157.664 465.752 157.564 466.307 157.588 467.253C157.68 470.954 157.1 474.593 157.252 476.033C157.381 477.255 158.103 477.932 159.386 478.383C160.371 478.729 161.677 480.326 162.646 481.712C163.769 483.317 164.869 484.269 166.162 484.714C169.767 486.534 173.161 486.636 177.279 485.714C179.451 485.227 180.456 484.616 181 483.82C177.791 485.225 173.523 484.575 170.178 484.097Z" fill="#873651"/>
<path d="M170.592 466.767C170.046 442.43 171.462 386.639 171.818 372.391C172.382 349.852 164.565 312.922 160.973 300.96C146.107 305.718 136.44 304.457 121.479 309.167C119.961 326.583 145.545 367.27 148.944 383.315C149.672 386.749 147.352 406.275 150.543 422.083C153.19 435.192 155.558 456.817 157.004 467.024C157.8 469.142 166.607 469.678 170.592 466.767Z" fill="#4975A6"/>
<path d="M154.117 387.846C153.44 372.535 143.849 359.875 137.28 342.988C132.47 330.624 132.814 322.64 132.737 309.697C130.147 310.25 124.394 308.25 121.479 309.169C119.961 326.584 145.545 367.271 148.944 383.317C149.672 386.751 147.352 406.277 150.543 422.085C153.19 435.194 155.558 456.819 157.004 467.026C157.322 467.875 158.936 468.461 161.003 468.682C158.469 451.805 155.166 411.568 154.117 387.846Z" fill="#3B5F87"/>
<path d="M174.14 228.115L168.782 261.027L166.948 255.652L196.078 291.69C197.963 294.022 197.601 297.443 195.268 299.328C193.062 301.111 189.883 300.884 187.95 298.879L187.927 298.854L155.874 265.432C154.72 264.227 154.121 262.694 154.072 261.147L154.04 260.055L153.048 226.724C152.873 220.863 157.483 215.969 163.345 215.795C169.206 215.62 174.1 220.23 174.274 226.092C174.293 226.762 174.241 227.476 174.14 228.115Z" fill="#E3A5A2"/>
<path d="M173.011 248.74L177.242 224.16C177.819 220.21 179.959 207.904 173.771 202.847L166.894 205.393L151.512 214.175L151.835 247.86C158.904 248.259 165.997 248.767 173.011 248.74Z" fill="#9343D6"/>
<path d="M200.321 299.546C200.572 299.668 200.621 299.707 200.7 299.755C200.786 299.809 200.857 299.858 200.904 299.894C201.007 299.972 201.136 300.064 201.211 300.133C201.387 300.28 201.553 300.431 201.684 300.568C201.976 300.853 202.198 301.12 202.419 301.391C202.855 301.931 203.202 302.457 203.524 302.985C204.16 304.039 204.672 305.085 205.127 306.131C206.03 308.223 206.697 310.317 207.287 312.41C207.564 313.397 206.99 314.423 206.003 314.701C205.15 314.942 204.268 314.544 203.865 313.796L203.852 313.771C202.877 311.961 201.839 310.197 200.686 308.617C200.112 307.829 199.507 307.087 198.891 306.452C198.585 306.138 198.271 305.844 197.978 305.625C197.836 305.516 197.686 305.41 197.575 305.356C197.511 305.316 197.469 305.305 197.434 305.296C197.407 305.281 197.418 305.311 197.418 305.311C197.411 305.309 197.426 305.324 197.454 305.344C197.476 305.359 197.468 305.366 197.66 305.459C196.027 304.725 195.298 302.806 196.032 301.174C196.771 299.542 198.688 298.813 200.321 299.546Z" fill="#E3A5A2"/>
<path d="M201.145 294.98C201.471 295.106 201.49 295.135 201.599 295.188C201.707 295.246 201.766 295.285 201.828 295.324C201.957 295.406 202.085 295.492 202.171 295.56C202.375 295.711 202.537 295.852 202.686 295.989C202.988 296.265 203.246 296.531 203.469 296.794C203.936 297.322 204.302 297.836 204.656 298.352C205.346 299.381 205.906 300.407 206.433 301.433C207.456 303.487 208.281 305.55 209.034 307.62C209.384 308.585 208.887 309.649 207.923 310C207.088 310.303 206.178 309.97 205.721 309.249L205.709 309.229C204.585 307.454 203.405 305.73 202.14 304.164C201.502 303.394 200.849 302.653 200.185 302.023C199.854 301.719 199.518 301.42 199.211 301.21C199.057 301.094 198.909 301.01 198.792 300.953C198.732 300.922 198.681 300.903 198.66 300.909C198.638 300.899 198.65 300.918 198.662 300.933C198.662 300.933 198.667 300.942 198.715 300.972C198.765 300.997 198.725 300.992 198.988 301.095C197.3 300.499 196.414 298.649 197.01 296.96C197.605 295.27 199.457 294.385 201.145 294.98Z" fill="#E3A5A2"/>
<path d="M196.67 299.967C196.955 300.217 197.044 300.325 197.2 300.489L197.592 300.934C197.835 301.226 198.07 301.515 198.282 301.808C198.721 302.389 199.104 302.979 199.473 303.571C200.201 304.758 200.814 305.972 201.364 307.198C201.912 308.424 202.368 309.67 202.779 310.92C203.186 312.171 203.518 313.433 203.818 314.694C204.056 315.689 203.441 316.688 202.446 316.926C201.566 317.135 200.683 316.68 200.326 315.882L200.306 315.837C199.815 314.744 199.304 313.669 198.737 312.635C198.168 311.604 197.567 310.601 196.909 309.657C196.251 308.714 195.557 307.813 194.815 307.001C194.441 306.599 194.064 306.206 193.677 305.861C193.487 305.681 193.292 305.522 193.104 305.368C193.013 305.301 192.915 305.216 192.83 305.162C192.76 305.114 192.619 305.013 192.663 305.066C191.256 303.959 191.013 301.922 192.12 300.515C193.225 299.103 195.263 298.86 196.67 299.967Z" fill="#E3A5A2"/>
<path d="M193.628 300.595C194.4 301.868 195.026 303.031 195.672 304.26C196.306 305.475 196.916 306.696 197.496 307.93C198.659 310.394 199.722 312.896 200.686 315.429C201.05 316.385 200.569 317.456 199.613 317.82C198.759 318.145 197.815 317.797 197.363 317.04L197.356 317.028C196.017 314.789 194.596 312.606 193.097 310.488C192.349 309.429 191.576 308.389 190.791 307.367C190.013 306.362 189.178 305.313 188.403 304.435C187.215 303.086 187.344 301.031 188.691 299.841C190.039 298.652 192.095 298.781 193.285 300.128C193.411 300.27 193.532 300.44 193.628 300.595Z" fill="#E3A5A2"/>
<path d="M185.316 299.714C184.092 295.984 188.604 289.631 188.604 289.631C195.65 289.346 199.151 291.634 201.077 293.553L202.71 302.53C202.71 302.53 199.363 305.016 199.357 305.021C197.9 306.103 196.226 307.117 194.368 307.237C191.842 307.398 186.471 303.235 185.316 299.714Z" fill="#E3A5A2"/>
<path d="M204.156 299.688C203.77 299.132 203.115 298.369 202.486 297.883C201.838 297.363 201.134 296.998 200.428 296.79C199.719 296.587 199.021 296.492 198.287 296.587C197.57 296.627 196.821 296.874 196.082 297.13L196.011 297.154C194.309 297.742 192.451 296.838 191.863 295.135C191.275 293.433 192.179 291.576 193.882 290.987C194.087 290.916 194.314 290.865 194.522 290.837C195.865 290.661 197.236 290.556 198.649 290.778C200.047 290.939 201.439 291.44 202.65 292.134C203.87 292.831 204.909 293.751 205.731 294.769C206.135 295.285 206.508 295.812 206.825 296.37C207.16 296.944 207.401 297.445 207.685 298.189C208.059 299.172 207.568 300.272 206.586 300.648C205.75 300.967 204.828 300.659 204.341 299.954L204.156 299.688Z" fill="#E3A5A2"/>
<path d="M179.787 305.373C178.395 295.745 177.457 284.007 177.63 270.798C178.092 235.563 175.798 210.062 175.798 210.062C176.161 204.677 173.829 199.454 163.143 198.8L143.708 199.618C138.198 199.632 131.571 200.148 128.163 207.355C127.572 208.604 127.287 209.975 127.197 211.354C126.636 219.979 124.076 257.968 119.07 313.214C133.334 317.517 163.411 324.47 179.787 305.373Z" fill="#BB6FFC"/>
<path d="M175.544 269.406C165.073 260.568 154.789 251.443 147.18 239.946C143.27 234.037 141.224 226.383 136.58 221.056C133.679 217.729 129.645 217.563 126.633 219.726C126.367 223.564 126.022 228.433 125.594 234.237C125.841 234.637 126.324 235.431 127.01 236.524C139.727 251.029 151.513 269.406 175.544 269.406Z" fill="#9B51DB"/>
<path d="M131.937 208.479C133.248 203.859 136.451 201.147 143.853 199.61L143.708 199.617C138.198 199.632 131.571 200.147 128.163 207.355C127.572 208.603 127.287 209.974 127.197 211.354C126.636 219.979 124.076 257.968 119.07 313.215C122.352 314.166 127.196 315.6 132.749 316.579C133.052 312.994 130.797 212.498 131.937 208.479Z" fill="#9B51DB"/>
<path d="M149.239 198.909C149.239 198.909 148.397 204.126 154.425 206.331C160.453 208.536 163.175 204.008 163.175 204.008C163.175 204.008 164.08 195.435 169.624 188.192C169.335 183.92 159.636 179.438 154.955 183.288C153.626 190.902 149.239 198.909 149.239 198.909Z" fill="#E3A5A2"/>
<path d="M189.52 156.667C189.52 156.667 196.032 168.362 181.13 183.976L178.598 182.231L189.52 156.667Z" fill="#4B0D03"/>
<path d="M186.507 183.194C183.671 186.891 179.7 188.607 177.639 187.025C175.578 185.445 176.206 181.165 179.042 177.468C181.879 173.771 185.849 172.055 187.911 173.636C189.972 175.218 189.343 179.496 186.507 183.194Z" fill="#FFB9B6"/>
<path d="M156.087 147.002C162.169 143.426 184.05 146.607 186.941 152.799C190.415 160.238 187.74 171.088 183.124 178.755C176.858 189.158 169.111 201.151 161.304 198.65C149.692 194.931 143.273 177.417 147.382 165.584C148.775 161.57 152.295 149.231 156.087 147.002Z" fill="#FFB9B6"/>
<path d="M156.841 190.709C153.888 174.616 160.308 160.524 165.513 145.519C161.524 145.416 158.012 145.868 156.086 147C152.294 149.229 148.775 161.57 147.382 165.583C143.611 176.44 148.709 192.073 158.545 197.45C157.805 195.199 157.244 192.911 156.841 190.709Z" fill="#E3A5A2"/>
<path d="M159.831 144.133C152.051 138.698 143.753 147.598 141.901 153.529C135.34 174.55 144.406 183.087 146.913 181.798C146.913 181.798 146.482 177.969 146.659 168.568C146.659 168.568 151.891 182.053 158.683 159.782C158.338 160.914 178.416 170.665 188.071 166.991C199.139 162.782 192.649 133.647 159.831 144.133Z" fill="#4B0D03"/>
<path d="M144.309 166.645C143.885 171.286 145.637 175.239 148.225 175.476C150.811 175.712 153.254 172.143 153.678 167.502C154.103 162.861 152.35 158.908 149.763 158.671C147.175 158.435 144.734 162.006 144.309 166.645Z" fill="#E3A5A2"/>
<path d="M154.585 223.054L181.185 264.478L170.453 262.942L190.576 249.22L200.589 242.318L205.554 238.851C207.185 237.703 208.863 236.513 210.32 235.428L210.446 235.334C212.962 233.461 216.521 233.982 218.395 236.498C220.168 238.879 219.78 242.208 217.604 244.144C215.919 245.636 214.379 246.925 212.792 248.256L208.065 252.18L198.605 259.938L179.631 275.336C176.579 277.812 172.14 277.432 169.549 274.53L168.899 273.798L136.174 237.022C131.919 232.24 132.346 224.912 137.128 220.657C141.91 216.401 149.237 216.828 153.493 221.61C153.884 222.053 154.27 222.573 154.585 223.054Z" fill="#FFB9B6"/>
<path d="M216.402 224.086C216.263 224.654 216.125 225.467 216.18 226.122C216.218 226.804 216.369 227.433 216.637 227.975C216.913 228.518 217.213 228.99 217.656 229.399C218.052 229.815 218.57 230.168 219.077 230.501C220.804 231.633 221.286 233.952 220.152 235.678C219.02 237.405 216.701 237.887 214.976 236.753C214.496 236.439 214.113 236.035 213.834 235.576L213.677 235.314C213.073 234.313 212.528 233.277 212.176 232.121C211.788 230.997 211.645 229.759 211.671 228.59C211.699 227.41 211.969 226.275 212.388 225.264C212.824 224.227 213.337 223.399 214.128 222.499C214.628 221.93 215.494 221.873 216.062 222.373C216.458 222.721 216.606 223.246 216.49 223.725L216.402 224.086Z" fill="#FFB9B6"/>
<path d="M212.626 231.841C211.913 233.477 211.179 235.329 211.371 237.702C211.512 239.439 214.987 243.326 216.941 243.663C221.661 244.476 225.571 242.506 228.241 240.591C230.392 239.049 232.705 236.375 233.841 235.353C234.378 234.871 233.713 234.144 233.126 233.721L224.203 226.479C221.755 228.819 212.626 231.841 212.626 231.841Z" fill="#FFB9B6"/>
<path d="M222.231 227.787C222.11 227.889 222.158 227.852 222.145 227.866C222.137 227.878 222.157 227.858 222.168 227.85C222.191 227.832 222.219 227.809 222.256 227.769C222.323 227.706 222.401 227.617 222.481 227.529C222.638 227.346 222.803 227.143 222.964 226.922C223.29 226.489 223.605 226.003 223.915 225.514C224.53 224.523 225.103 223.465 225.659 222.392C226.756 220.232 227.753 217.981 228.695 215.702L228.699 215.694C229.026 214.906 229.931 214.53 230.719 214.858C231.455 215.162 231.829 215.979 231.609 216.726C230.889 219.148 230.111 221.562 229.191 223.963C228.719 225.163 228.225 226.36 227.645 227.558C227.348 228.157 227.045 228.756 226.682 229.363C226.506 229.667 226.31 229.973 226.093 230.287C225.981 230.445 225.87 230.603 225.73 230.774C225.668 230.855 225.592 230.946 225.506 231.042L225.365 231.193C225.294 231.261 225.288 231.279 225.107 231.431C224.1 232.225 222.642 232.051 221.848 231.046C221.052 230.04 221.225 228.58 222.231 227.787Z" fill="#FFB9B6"/>
<path d="M224.686 229.503C224.533 229.552 224.532 229.558 224.532 229.558C224.52 229.566 224.509 229.576 224.525 229.568C224.546 229.557 224.553 229.566 224.591 229.544C224.657 229.509 224.729 229.478 224.818 229.415C224.984 229.317 225.178 229.158 225.364 228.994C225.746 228.669 226.12 228.236 226.482 227.787C227.201 226.871 227.847 225.806 228.439 224.697C229.015 223.572 229.547 222.401 230.024 221.195C230.506 219.989 230.926 218.748 231.341 217.502L231.352 217.471C231.622 216.662 232.496 216.224 233.306 216.494C234.062 216.746 234.492 217.532 234.326 218.293C233.733 220.98 233.016 223.665 231.95 226.315C231.4 227.637 230.777 228.954 229.957 230.242C229.537 230.884 229.091 231.523 228.512 232.139C228.225 232.449 227.925 232.753 227.549 233.051C227.377 233.199 227.164 233.348 226.946 233.492C226.844 233.563 226.696 233.641 226.571 233.71C226.514 233.744 226.426 233.786 226.337 233.826C226.255 233.862 226.182 233.901 225.948 233.974C224.714 234.321 223.433 233.603 223.085 232.37C222.734 231.133 223.452 229.852 224.686 229.503Z" fill="#FFB9B6"/>
<path d="M227.762 231.905C227.53 232.042 227.606 232.006 227.559 232.038C227.527 232.07 227.55 232.05 227.55 232.05C227.55 232.05 227.577 232.038 227.609 232.007C227.662 231.972 227.742 231.878 227.816 231.803C227.97 231.627 228.137 231.42 228.298 231.182C228.626 230.723 228.932 230.178 229.231 229.627C229.819 228.505 230.324 227.276 230.806 226.037C231.744 223.532 232.512 220.911 233.202 218.261L233.205 218.249C233.42 217.424 234.264 216.928 235.09 217.143C235.866 217.346 236.35 218.11 236.226 218.887C235.772 221.667 235.237 224.445 234.483 227.226C234.087 228.616 233.665 230.007 233.093 231.407C232.795 232.108 232.488 232.809 232.078 233.524C231.881 233.881 231.651 234.244 231.383 234.617C231.235 234.809 231.105 234.992 230.909 235.2C230.824 235.297 230.725 235.402 230.594 235.52C230.526 235.58 230.492 235.619 230.388 235.701C230.271 235.784 230.28 235.803 229.973 235.984C228.846 236.595 227.437 236.178 226.826 235.051C226.218 233.924 226.636 232.516 227.762 231.905Z" fill="#FFB9B6"/>
<path d="M227.001 235.911C226.911 235.94 227.12 235.887 227.214 235.85C227.331 235.818 227.471 235.747 227.601 235.7C227.868 235.572 228.145 235.437 228.415 235.261C228.963 234.933 229.484 234.501 229.987 234.036C230.988 233.088 231.852 231.906 232.576 230.613C233.334 229.338 233.896 227.913 234.429 226.472L235.101 224.243L235.641 221.955L235.663 221.859C235.858 221.031 236.689 220.516 237.519 220.711C238.306 220.896 238.808 221.661 238.69 222.446L238.306 224.956C238.144 225.791 237.946 226.624 237.764 227.46C237.302 229.117 236.791 230.782 236.013 232.386C235.269 233.995 234.322 235.566 233.065 236.973C232.428 237.67 231.742 238.341 230.938 238.925C230.546 239.225 230.115 239.495 229.665 239.751C229.425 239.872 229.206 239.998 228.941 240.109C228.659 240.227 228.486 240.315 228.001 240.446C226.75 240.721 225.511 239.93 225.235 238.678C224.958 237.424 225.749 236.186 227.001 235.911Z" fill="#FFB9B6"/>
<path d="M154.859 258.857C160.076 254.855 165.304 250.474 171.04 247.107L155.443 220.334C155.443 220.334 152.008 198.625 144.97 200.164C137.932 201.703 134.308 204.62 134.308 204.62C134.308 204.62 116.952 218.501 152.168 260.944C153.066 260.25 153.958 259.549 154.859 258.857Z" fill="#BB6FFC"/>
<path d="M144.649 240.527C140.989 234.8 137.896 228.575 136.113 221.993C134.648 216.586 133.113 208.557 137.053 201.943C129.661 205.051 120.035 222.219 152.167 260.945C153.064 260.25 153.955 259.547 154.856 258.857C155.737 258.182 156.621 257.493 157.504 256.801C152.76 251.752 148.385 246.37 144.649 240.527Z" fill="#9B51DB"/>
<path d="M156.656 222.417C158.164 224.206 159.508 226.091 160.799 228.007C162.099 229.918 163.305 231.884 164.482 233.865C165.651 235.852 166.765 237.87 167.795 239.938C168.83 242.004 169.795 244.109 170.58 246.32C169.044 244.547 167.689 242.668 166.403 240.75C165.112 238.833 163.906 236.869 162.753 234.872C161.61 232.87 160.495 230.851 159.475 228.778C158.446 226.71 157.469 224.611 156.656 222.417Z" fill="#9343D6"/>
<path d="M148.986 256.171C146.187 253.733 143.718 250.946 141.436 248.022C139.166 245.086 137.075 241.994 135.318 238.7C133.587 235.4 132.028 231.978 131.045 228.355C130.075 224.743 129.566 220.963 129.973 217.272C130.384 220.964 131.297 224.473 132.512 227.885C133.763 231.286 135.359 234.55 137.079 237.744C137.537 238.528 137.962 239.333 138.403 240.128L139.815 242.464C140.751 244.027 141.735 245.564 142.738 247.09C144.754 250.139 146.831 253.16 148.986 256.171Z" fill="#9343D6"/>
<path d="M204.785 150.642L212.199 118.387L256.013 128.134L204.785 150.642Z" fill="#6072DB"/>
<path d="M331.934 132.624H213.083C206.08 132.624 200.402 126.946 200.402 119.943V12.6805C200.402 5.67756 206.08 0 213.083 0H331.934C338.937 0 344.615 5.67756 344.615 12.6805V119.943C344.615 126.946 338.937 132.624 331.934 132.624Z" fill="#6072DB"/>
<path d="M317.663 63.6668L317.662 58.8071C317.841 56.5887 316.089 54.6899 313.864 54.6899H268.918L259.221 49.3655C258.505 48.9734 257.702 48.7666 256.886 48.7666H230.325C228.573 48.7666 227.152 50.1873 227.152 51.9397V63.6668H317.663Z" fill="white"/>
<path d="M308.135 87.0084H239.379C238.372 87.0084 237.48 86.1906 237.387 85.1767L234.978 58.9496C234.872 57.7907 235.664 56.8467 236.748 56.8467H310.766C311.85 56.8467 312.642 57.7907 312.536 58.9496L310.127 85.1767C310.034 86.1906 309.142 87.0084 308.135 87.0084Z" fill="#6072DB"/>
<path d="M310.656 90.8627H237.041C235.963 90.8627 235.008 89.9872 234.909 88.9022L232.331 60.8219C232.216 59.5811 233.065 58.5713 234.225 58.5713H313.472C314.632 58.5713 315.481 59.5825 315.367 60.8219L312.789 88.9022C312.688 89.9872 311.733 90.8627 310.656 90.8627Z" fill="#6072DB"/>
<path d="M312.695 94.4538H235.007C233.87 94.4538 232.862 93.5299 232.756 92.3844L230.034 62.7505C229.914 61.4412 230.809 60.375 232.034 60.375H315.666C316.891 60.375 317.785 61.4412 317.666 62.7505L314.944 92.3844C314.839 93.5299 313.832 94.4538 312.695 94.4538Z" fill="#6072DB"/>
<path d="M283.11 3.56588L250.23 36.2041L294.714 81.016L327.593 48.3777L283.11 3.56588Z" fill="white"/>
<path d="M283.453 11.3738L258.035 36.6055L259.434 38.015L284.852 12.7833L283.453 11.3738Z" fill="#6072DB"/>
<path d="M286.465 14.4099L261.047 39.6416L262.446 41.0511L287.864 15.8194L286.465 14.4099Z" fill="#6072DB"/>
<path d="M280.96 25.9016L264.062 42.6748L265.462 44.0843L282.359 27.3111L280.96 25.9016Z" fill="#6072DB"/>
<path d="M292.492 20.4812L267.074 45.7129L268.473 47.1224L293.891 21.8907L292.492 20.4812Z" fill="#6072DB"/>
<path d="M295.508 23.5173L270.09 48.749L271.489 50.1585L296.907 24.9268L295.508 23.5173Z" fill="#6072DB"/>
<path d="M289.566 35.4405L273.102 51.7842L274.501 53.1937L290.965 36.85L289.566 35.4405Z" fill="#6072DB"/>
<path d="M301.535 29.5886L276.117 54.8203L277.516 56.2298L302.934 30.9981L301.535 29.5886Z" fill="#6072DB"/>
<path d="M295.597 41.5127L279.133 57.8564L280.532 59.266L296.996 42.9223L295.597 41.5127Z" fill="#6072DB"/>
<path d="M307.562 35.6609L282.145 60.8926L283.544 62.3021L308.962 37.0704L307.562 35.6609Z" fill="#6072DB"/>
<path d="M310.574 38.697L285.156 63.9287L286.555 65.3382L311.973 40.1065L310.574 38.697Z" fill="#6072DB"/>
<path d="M305.462 49.7999L288.172 66.9639L289.571 68.3734L306.862 51.2095L305.462 49.7999Z" fill="#6072DB"/>
<path d="M316.602 44.7683L291.184 70L292.583 71.4095L318.001 46.1778L316.602 44.7683Z" fill="#6072DB"/>
<path d="M311.49 55.8722L294.199 73.0361L295.598 74.4457L312.889 57.2818L311.49 55.8722Z" fill="#6072DB"/>
<path d="M313.966 121.018H230.861C228.813 121.018 227.152 119.358 227.152 117.309V60.3428H317.674V117.309C317.675 119.358 316.014 121.018 313.966 121.018Z" fill="white"/>
<path d="M98.88 263.19H58.6833C55.87 263.19 53.5898 260.909 53.5898 258.096V219.903C53.5898 217.09 55.87 214.81 58.6833 214.81H98.88C101.693 214.81 103.973 217.09 103.973 219.903V258.096C103.973 260.909 101.693 263.19 98.88 263.19Z" fill="#DB749B"/>
<path d="M96.4574 231.858C96.4574 227.222 92.5014 223.465 87.6214 223.465C82.7415 223.465 78.7842 227.222 78.7842 231.858C78.7842 227.222 74.8281 223.465 69.9469 223.465C65.067 223.465 61.111 227.222 61.111 231.858C61.111 231.858 60.2878 242.279 78.7842 254.534C97.2805 242.279 96.4574 231.858 96.4574 231.858Z" fill="white"/>
<path d="M278.955 175.122H257.656C256.166 175.122 254.957 173.914 254.957 172.423V152.186C254.957 150.696 256.166 149.487 257.656 149.487H278.955C280.446 149.487 281.654 150.696 281.654 152.186V172.424C281.654 173.914 280.446 175.122 278.955 175.122Z" fill="#DB749B"/>
<path d="M277.667 158.521C277.667 156.065 275.57 154.073 272.984 154.073C270.398 154.073 268.302 156.065 268.302 158.521C268.302 156.065 266.205 154.073 263.619 154.073C261.033 154.073 258.937 156.065 258.937 158.521C258.937 158.521 258.5 164.043 268.302 170.537C278.103 164.043 277.667 158.521 277.667 158.521Z" fill="white"/>
<path d="M281.747 361.031H241.55C238.737 361.031 236.457 358.751 236.457 355.938V317.746C236.457 314.932 238.737 312.652 241.55 312.652H281.747C284.56 312.652 286.841 314.932 286.841 317.746V355.939C286.841 358.751 284.56 361.031 281.747 361.031Z" fill="#3EAFDB"/>
<path d="M269.718 349.996H276.929C277.941 349.996 278.761 349.175 278.761 348.164V334.207C278.761 333.195 277.941 332.375 276.929 332.375H269.718C268.707 332.375 267.887 333.195 267.887 334.207V348.164C267.887 349.175 268.706 349.996 269.718 349.996Z" fill="white"/>
<path d="M246.498 331.852H254.224C255.05 331.852 255.719 331.169 255.719 330.326V328.976C255.722 328.912 255.724 328.848 255.727 328.785L255.953 325.898C256.051 324.649 257.071 323.687 258.297 323.687C259.596 323.687 260.649 324.762 260.649 326.09V328.85C260.649 329.31 260.778 329.762 261.022 330.15L261.675 331.253C262.002 331.809 262.435 332.291 262.948 332.674C263.781 333.295 264.994 334.206 264.994 334.206C265.487 334.584 265.777 335.176 265.777 335.806V344.26C265.777 344.891 265.486 345.486 264.989 345.864L263.469 347.021C263.13 347.278 262.721 347.417 262.3 347.417H249.447C249.052 347.417 248.66 347.292 248.333 347.064C247.103 346.202 247.025 345.169 247.213 344.404C247.379 343.731 247.188 343.049 246.738 342.531C246.163 341.87 246.096 341.145 246.178 340.575C246.267 339.959 246.159 339.323 245.783 338.832C245.168 338.035 245.166 337.22 245.293 336.634C245.418 336.07 245.248 335.487 244.913 335.021C243.979 333.697 244.902 331.852 246.498 331.852Z" fill="white"/>
<path d="M361.39 174.393H388.697C390.608 174.393 392.156 172.843 392.156 170.932V144.986C392.156 143.075 390.607 141.525 388.697 141.525H361.39C359.479 141.525 357.93 143.075 357.93 144.986V170.932C357.93 172.845 359.479 174.393 361.39 174.393Z" fill="#3EAFDB"/>
<path d="M369.562 166.895H364.663C363.975 166.895 363.418 166.337 363.418 165.651V156.169C363.418 155.482 363.975 154.926 364.663 154.926H369.562C370.249 154.926 370.806 155.483 370.806 156.169V165.651C370.806 166.339 370.249 166.895 369.562 166.895Z" fill="white"/>
<path d="M385.339 154.573H380.09C379.53 154.573 379.075 154.108 379.075 153.535V152.619C379.073 152.576 379.071 152.532 379.069 152.489L378.916 150.527C378.85 149.678 378.156 149.024 377.324 149.024C376.441 149.024 375.726 149.755 375.726 150.657V152.532C375.726 152.845 375.637 153.151 375.472 153.416L375.029 154.165C374.806 154.542 374.513 154.87 374.164 155.13C373.597 155.552 372.774 156.171 372.774 156.171C372.44 156.428 372.242 156.83 372.242 157.257V163.001C372.242 163.43 372.441 163.833 372.777 164.09L373.809 164.877C374.039 165.051 374.317 165.145 374.603 165.145H383.335C383.604 165.145 383.87 165.061 384.091 164.905C384.928 164.319 384.98 163.618 384.853 163.097C384.741 162.641 384.87 162.176 385.176 161.824C385.567 161.375 385.613 160.883 385.556 160.496C385.496 160.077 385.569 159.645 385.825 159.312C386.243 158.769 386.245 158.216 386.158 157.819C386.073 157.436 386.189 157.04 386.417 156.724C387.05 155.826 386.421 154.573 385.339 154.573Z" fill="white"/>
<path d="M122.11 145.208H81.9137C79.1005 145.208 76.8203 142.928 76.8203 140.115V101.922C76.8203 99.1083 79.1005 96.8281 81.9137 96.8281H122.11C124.924 96.8281 127.204 99.1083 127.204 101.922V140.115C127.203 142.928 124.922 145.208 122.11 145.208Z" fill="#FCBD55"/>
<path d="M117.374 116.303C120.403 125.828 114.103 136.831 102.013 136.831C89.9232 136.831 83.6226 125.828 86.6521 116.303C88.8248 109.472 95.4786 105.207 102.013 105.207C108.547 105.207 115.201 109.472 117.374 116.303Z" fill="white"/>
<path d="M109.925 125.97C109.149 127.288 107.811 128.2 106.426 128.775C105.025 129.363 103.512 129.616 102.009 129.641C100.505 129.642 98.9875 129.399 97.5775 128.822C96.1823 128.257 94.8314 127.342 94.0526 126.006C93.9532 125.835 94.0109 125.617 94.1815 125.516C94.305 125.443 94.4541 125.454 94.5642 125.529L94.5816 125.541C95.6895 126.301 96.9021 126.753 98.1576 127.067C99.4159 127.365 100.71 127.511 102.01 127.526C103.311 127.54 104.611 127.401 105.879 127.115C107.144 126.812 108.369 126.356 109.481 125.579L109.494 125.57C109.631 125.474 109.818 125.508 109.913 125.643C109.983 125.744 109.983 125.872 109.925 125.97Z" fill="#FCBD55"/>
<path d="M110.475 118.218C110.475 119.193 109.85 119.982 109.078 119.982C108.305 119.982 107.68 119.193 107.68 118.218C107.68 117.243 108.305 116.453 109.078 116.453C109.85 116.453 110.475 117.243 110.475 118.218Z" fill="#FCBD55"/>
<path d="M96.3388 118.218C96.3388 119.193 95.713 119.982 94.9409 119.982C94.1687 119.982 93.543 119.193 93.543 118.218C93.543 117.243 94.1687 116.453 94.9409 116.453C95.713 116.453 96.3388 117.243 96.3388 118.218Z" fill="#FCBD55"/>
<path d="M61.6294 348.294H29.5595C27.3156 348.294 25.4961 346.475 25.4961 344.231V313.759C25.4961 311.515 27.3156 309.695 29.5595 309.695H61.6294C63.8733 309.695 65.6929 311.515 65.6929 313.759V344.231C65.6929 346.475 63.8733 348.294 61.6294 348.294Z" fill="#FCBD55"/>
<path d="M57.8454 325.232C60.2625 332.831 55.2349 341.609 45.5906 341.609C35.9449 341.609 30.9186 332.831 33.3358 325.232C35.0694 319.783 40.3776 316.38 45.5906 316.38C50.8035 316.38 56.1131 319.781 57.8454 325.232Z" fill="white"/>
<path d="M51.9064 332.943C51.2874 333.995 50.2198 334.723 49.1146 335.182C47.9974 335.652 46.7902 335.853 45.591 335.873C44.3918 335.875 43.1806 335.68 42.0553 335.22C40.9421 334.77 39.8651 334.039 39.242 332.973C39.1628 332.836 39.2084 332.661 39.3441 332.582C39.4421 332.524 39.5616 332.533 39.6502 332.593L39.6637 332.602C40.5486 333.208 41.5155 333.569 42.5159 333.819C43.519 334.057 44.553 334.173 45.5897 334.186C47.6563 334.176 49.7699 333.843 51.5505 332.632L51.5626 332.624C51.6727 332.549 51.8218 332.578 51.897 332.687C51.9521 332.766 51.9521 332.866 51.9064 332.943Z" fill="#FCBD55"/>
<path d="M52.3451 326.759C52.3451 327.536 51.8456 328.166 51.2292 328.166C50.6128 328.166 50.1133 327.536 50.1133 326.759C50.1133 325.981 50.6128 325.352 51.2292 325.352C51.8456 325.352 52.3451 325.983 52.3451 326.759Z" fill="#FCBD55"/>
<path d="M41.0638 326.759C41.0638 327.536 40.5643 328.166 39.9479 328.166C39.3316 328.166 38.832 327.536 38.832 326.759C38.832 325.981 39.3316 325.352 39.9479 325.352C40.5643 325.352 41.0638 325.983 41.0638 326.759Z" fill="#FCBD55"/>
<path d="M236.316 239.595C237.349 240.481 238.378 241.344 239.4 242.189" stroke="#9A97F5" stroke-width="2" stroke-miterlimit="10"/>
<path d="M245.664 247.158C355.854 330.917 398.771 170.893 304.704 188.539C241.523 200.392 348.761 376.546 412.944 302.023C440.562 269.955 382.871 220.929 455.766 139.443" stroke="#9A97F5" stroke-width="2" stroke-miterlimit="10" stroke-dasharray="5.95 5.95"/>
<path d="M458.445 136.495C459.346 135.52 460.265 134.543 461.203 133.559" stroke="#9A97F5" stroke-width="2" stroke-miterlimit="10"/>
<path d="M474.119 168.186C495.82 168.186 513.413 150.594 513.413 128.892C513.413 107.19 495.82 89.5977 474.119 89.5977C452.417 89.5977 434.824 107.19 434.824 128.892C434.824 150.594 452.417 168.186 474.119 168.186Z" fill="#6373DB"/>
<path d="M474.093 133.763L494.647 111.292C494.179 111.097 493.668 110.985 493.129 110.985H455.107C454.301 110.985 453.592 111.285 452.965 111.698L474.093 133.763Z" fill="white"/>
<path d="M496.838 113.649L484.34 127.307L497.102 140.218V114.959C497.102 114.494 496.984 114.064 496.838 113.649Z" fill="white"/>
<path d="M463.522 127.361L451.223 114.514C451.204 114.667 451.133 114.801 451.133 114.958V140.574L463.522 127.361Z" fill="white"/>
<path d="M482.175 129.676L474.142 138.454L465.744 129.681L451.664 144.697C452.338 145.931 453.603 146.8 455.107 146.8H493.13C494.752 146.8 496.138 145.821 496.756 144.426L482.175 129.676Z" fill="white"/>
</svg>
