<svg width="70" height="70" viewBox="0 0 70 70" fill="none" xmlns="http://www.w3.org/2000/svg">
<path d="M65 49H62V12C62 10.897 61.103 10 60 10H10C8.897 10 8 10.897 8 12V49H5C3.897 49 3 49.897 3 51C3 55.962 7.037 60 12 60H58C62.963 60 67 55.962 67 51C67 49.897 66.103 49 65 49ZM10 12L60 11.999V49H10V12ZM65 51C65 54.86 61.86 58 58 58H12C8.14 58 5 54.86 5 51H61L61.007 50.999L65 51Z" fill="url(#paint0_linear_1746_6457)"/>
<path d="M45 25H42V23C42 19.14 38.86 16 35 16C31.14 16 28 19.14 28 23V25H25C24.7348 25 24.4804 25.1054 24.2929 25.2929C24.1054 25.4804 24 25.7348 24 26V43C24 44.103 24.897 45 26 45H44C45.103 45 46 44.103 46 43V26C46 25.7348 45.8946 25.4804 45.7071 25.2929C45.5196 25.1054 45.2652 25 45 25ZM30 23C30 20.243 32.243 18 35 18C37.757 18 40 20.243 40 23V25H30V23ZM44 43H26V27H28V30C28 30.2652 28.1054 30.5196 28.2929 30.7071C28.4804 30.8946 28.7348 31 29 31C29.2652 31 29.5196 30.8946 29.7071 30.7071C29.8946 30.5196 30 30.2652 30 30V27H40V30C40 30.2652 40.1054 30.5196 40.2929 30.7071C40.4804 30.8946 40.7348 31 41 31C41.2652 31 41.5196 30.8946 41.7071 30.7071C41.8946 30.5196 42 30.2652 42 30V27H44V43Z" fill="url(#paint1_linear_1746_6457)"/>
<defs>
<linearGradient id="paint0_linear_1746_6457" x1="67" y1="35" x2="3" y2="35" gradientUnits="userSpaceOnUse">
<stop stop-color="#2058FF"/>
<stop offset="1" stop-color="#004BC2"/>
</linearGradient>
<linearGradient id="paint1_linear_1746_6457" x1="46" y1="30.5" x2="24" y2="30.5" gradientUnits="userSpaceOnUse">
<stop stop-color="#2058FF"/>
<stop offset="1" stop-color="#004BC2"/>
</linearGradient>
</defs>
</svg>
