<svg width="70" height="70" viewBox="0 0 70 70" fill="none" xmlns="http://www.w3.org/2000/svg">
<path d="M58.6461 39.2708H58.642L40.8199 40.8538C39.4248 39.549 37.5573 38.7441 35.501 38.7441C33.4468 38.7441 31.5804 39.548 30.1852 40.8508L12.2676 39.2667C9.3192 39.2667 8 43.2007 8 47.0998C8 50.9968 9.31818 54.9288 12.3539 54.9288H12.358L23.1354 53.9771L21.8655 55.246C21.5349 55.5755 21.4692 56.0868 21.7053 56.4903C21.9415 56.8937 22.4199 57.0877 22.8695 56.9604L27.6895 55.6033L27.0058 59.991C26.937 60.4366 27.1659 60.8749 27.5725 61.072C27.7152 61.1419 27.8692 61.1757 28.0201 61.1757C28.2993 61.1757 28.5734 61.0628 28.7726 60.8482L34.8399 54.321C35.0575 54.3395 35.2762 54.3549 35.499 54.3549C35.7218 54.3549 35.9404 54.3395 36.1581 54.321L42.2254 60.8482C42.4245 61.0628 42.6986 61.1757 42.9779 61.1757C43.1288 61.1757 43.2828 61.1429 43.4255 61.072C43.832 60.876 44.061 60.4366 43.9922 59.991L43.3084 55.6033L48.1284 56.9604C48.5801 57.0888 49.0565 56.8937 49.2926 56.4903C49.5287 56.0868 49.463 55.5755 49.1325 55.246L47.8615 53.9771L58.7324 54.9329C61.6808 54.9329 63 50.9989 63 47.0998C63 43.2027 61.6818 39.2708 58.6461 39.2708ZM12.2676 52.8796C11.047 52.8796 10.0532 50.2874 10.0532 47.0998C10.0532 43.9121 11.047 41.3199 12.1773 41.3158L28.675 42.7736C28.0529 43.8937 27.6967 45.18 27.6967 46.5495C27.6967 47.4119 27.8435 48.2393 28.1022 49.0165L25.3991 51.7165L12.2676 52.8796ZM29.5508 56.9953L29.9645 54.3395C30.0179 53.9935 29.8926 53.6445 29.6308 53.4135C29.369 53.1815 29.0087 53.1014 28.6709 53.1928L26.1003 53.9165L26.6341 53.3837C26.6434 53.3734 26.6547 53.3652 26.6629 53.355L29.0641 50.9558C29.9214 52.2031 31.1307 53.1886 32.5485 53.7707L29.5508 56.9953ZM29.7489 46.5495C29.7489 45.0568 30.3248 43.6996 31.2611 42.6761C31.2878 42.6525 31.3083 42.6248 31.3319 42.5981C32.3811 41.4914 33.8595 40.7974 35.5 40.7974C38.6712 40.7974 41.2511 43.3783 41.2511 46.5495C41.2511 49.7207 38.6712 52.2996 35.5 52.2996C32.3288 52.2996 29.7489 49.7207 29.7489 46.5495ZM42.328 53.1917C41.9913 53.1004 41.631 53.1804 41.3681 53.4125C41.1074 53.6445 40.9811 53.9925 41.0345 54.3385L41.4482 56.9943L38.4505 53.7687C39.8683 53.1866 41.0786 52.2021 41.9348 50.9537L44.3361 53.3529C44.3453 53.3632 44.3556 53.3714 44.3648 53.3817L44.8987 53.9145L42.328 53.1917ZM60.2179 51.3787C59.9284 52.0635 59.4346 52.8796 58.8227 52.8837L45.6019 51.7165L42.8988 49.0165C43.1586 48.2404 43.3043 47.4129 43.3043 46.5495C43.3043 45.1821 42.9481 43.8967 42.328 42.7777L58.7324 41.3199C59.953 41.3199 60.9468 43.9121 60.9468 47.0998C60.9468 48.7249 60.6809 50.2833 60.2179 51.3787Z" fill="url(#paint0_linear_1746_6448)"/>
<path d="M35.5001 42.5624C33.3021 42.5624 31.5137 44.3508 31.5137 46.5498C31.5137 48.7478 33.3021 50.5362 35.5001 50.5362C37.6981 50.5362 39.4864 48.7478 39.4864 46.5498C39.4864 44.3508 37.6981 42.5624 35.5001 42.5624ZM35.5001 48.4829C34.4334 48.4829 33.567 47.6154 33.567 46.5498C33.567 45.4832 34.4334 44.6157 35.5001 44.6157C36.5667 44.6157 37.4332 45.4832 37.4332 46.5498C37.4332 47.6154 36.5667 48.4829 35.5001 48.4829ZM11.6045 21.3546L21.3903 25.6777V33.3023C21.3903 35.0425 23.8952 35.6728 26.3457 36.0598C28.7696 36.4428 32.0209 36.6532 35.5001 36.6532C41.937 36.6532 49.6099 36.0722 49.6099 33.3023V25.6777L52.6549 24.3328V25.306C51.9301 25.7526 51.4342 26.6499 51.4137 27.7268L50.885 32.0068C50.849 32.2993 50.9404 32.5919 51.1355 32.8126C51.3295 33.0334 51.6098 33.1596 51.9044 33.1596H55.4596C55.7542 33.1596 56.0345 33.0334 56.2285 32.8126C56.4236 32.5919 56.5149 32.2993 56.479 32.0068L55.9503 27.7268C55.9298 26.6499 55.4339 25.7516 54.7091 25.306V23.4253L59.3967 21.3546C59.7683 21.1903 60.0085 20.8218 60.0085 20.4152C60.0085 20.0087 59.7693 19.6411 59.3977 19.4769L35.9159 9.08855C35.651 8.97048 35.3492 8.97048 35.0843 9.08855L11.6035 19.4769C11.2319 19.6411 10.9927 20.0097 10.9927 20.4152C10.9927 20.8218 11.2329 21.1903 11.6045 21.3546ZM53.0655 31.1064L53.4587 27.9208C53.4638 27.8787 53.4659 27.8366 53.4659 27.7945C53.4659 27.4311 53.5932 27.1817 53.6805 27.0851C53.7677 27.1827 53.895 27.4321 53.895 27.7945C53.895 27.8366 53.8971 27.8787 53.9022 27.9208L54.2954 31.1064H53.0655ZM23.4425 22.2631C23.6221 21.4932 27.8046 20.1175 35.5001 20.1175C43.1956 20.1175 47.378 21.4932 47.5567 22.26V30.8713C44.4368 29.3899 38.5358 29.1764 35.5001 29.1764C32.4644 29.1764 26.5624 29.3899 23.4435 30.8713L23.4425 22.2631ZM23.5256 33.1802C24.1632 32.4482 28.0448 31.2296 35.5001 31.2296C42.9903 31.2296 46.8709 32.4595 47.4787 33.1781C46.5557 33.79 42.4195 34.599 35.5001 34.599C28.591 34.599 24.4568 33.7931 23.5256 33.1802ZM54.7081 21.18V19.6473L56.4421 20.4142L54.7081 21.18ZM35.5001 11.149L52.6549 18.7377V22.0855L49.6099 23.4304V22.258C49.6099 18.3651 38.8099 18.0622 35.5001 18.0622C32.1903 18.0622 21.3903 18.3651 21.3903 22.258V23.4304L14.5581 20.4121L35.5001 11.149Z" fill="url(#paint1_linear_1746_6448)"/>
<defs>
<linearGradient id="paint0_linear_1746_6448" x1="63" y1="49.9599" x2="8" y2="49.9599" gradientUnits="userSpaceOnUse">
<stop stop-color="#2058FF"/>
<stop offset="1" stop-color="#004BC2"/>
</linearGradient>
<linearGradient id="paint1_linear_1746_6448" x1="60.0085" y1="29.7681" x2="10.9927" y2="29.7681" gradientUnits="userSpaceOnUse">
<stop stop-color="#2058FF"/>
<stop offset="1" stop-color="#004BC2"/>
</linearGradient>
</defs>
</svg>
