<svg width="80" height="80" viewBox="0 0 80 80" fill="none" xmlns="http://www.w3.org/2000/svg">
<path d="M17.2105 45.4211V68.9474C17.2105 69.2265 17.3214 69.4943 17.5188 69.6917C17.7162 69.8891 17.984 70 18.2632 70H62.4737C62.7529 70 63.0206 69.8891 63.218 69.6917C63.4154 69.4943 63.5263 69.2265 63.5263 68.9474V45.4211C64.7565 44.9861 65.8218 44.1808 66.5758 43.1158C67.3298 42.0509 67.7354 40.7785 67.7368 39.4737V37.3684C67.7355 37.2499 67.7141 37.1325 67.6737 37.0211L63.4632 26.4947C63.3914 26.2893 63.2577 26.1112 63.0805 25.9849C62.9033 25.8586 62.6913 25.7903 62.4737 25.7895H61.4211V21.5789C61.4211 21.2998 61.3102 21.032 61.1128 20.8346C60.9153 20.6372 60.6476 20.5263 60.3684 20.5263H50.8947C50.8947 17.7346 49.7857 15.0572 47.8117 13.0831C45.8376 11.109 43.1602 10 40.3684 10C37.5767 10 34.8993 11.109 32.9252 13.0831C30.9511 15.0572 29.8421 17.7346 29.8421 20.5263H20.3684C20.0892 20.5263 19.8215 20.6372 19.6241 20.8346C19.4267 21.032 19.3158 21.2998 19.3158 21.5789V25.7895H18.2632C18.0523 25.7893 17.8463 25.8524 17.6718 25.9706C17.4972 26.0889 17.3622 26.2568 17.2842 26.4526L13.0737 36.9789C13.0247 37.1029 12.9997 37.2351 13 37.3684V39.4737C13.0015 40.7785 13.4071 42.0509 14.1611 43.1158C14.915 44.1808 15.9803 44.9861 17.2105 45.4211ZM15.1053 39.4737V38.4211H23.5263V39.4737C23.5263 40.5904 23.0827 41.6614 22.2931 42.451C21.5035 43.2406 20.4325 43.6842 19.3158 43.6842C18.1991 43.6842 17.1281 43.2406 16.3385 42.451C15.5489 41.6614 15.1053 40.5904 15.1053 39.4737ZM34.9895 27.8947L34.1474 36.3158H25.9895L28.5158 27.8947H34.9895ZM52.2105 27.8947L54.7369 36.3158H46.5895L45.7474 27.8947H52.2105ZM34.0526 39.4737C34.0526 40.5904 33.609 41.6614 32.8194 42.451C32.0298 43.2406 30.9588 43.6842 29.8421 43.6842C28.7254 43.6842 27.6544 43.2406 26.8648 42.451C26.0752 41.6614 25.6316 40.5904 25.6316 39.4737V38.4211H34.0526V39.4737ZM36.1579 38.4211H44.579V39.4737C44.579 40.5904 44.1353 41.6614 43.3457 42.451C42.5561 43.2406 41.4851 43.6842 40.3684 43.6842C39.2517 43.6842 38.1808 43.2406 37.3911 42.451C36.6015 41.6614 36.1579 40.5904 36.1579 39.4737V38.4211ZM46.6842 38.4211H55.1053V39.4737C55.1053 40.5904 54.6617 41.6614 53.872 42.451C53.0824 43.2406 52.0114 43.6842 50.8947 43.6842C49.778 43.6842 48.7071 43.2406 47.9174 42.451C47.1278 41.6614 46.6842 40.5904 46.6842 39.4737V38.4211ZM43.6211 27.8947L44.4632 36.3158H36.2737L37.1158 27.8947H43.6211ZM25.6316 67.8947V56.3158C25.6316 54.9199 26.1861 53.5812 27.1731 52.5942C28.1602 51.6071 29.4989 51.0526 30.8947 51.0526C32.2906 51.0526 33.6293 51.6071 34.6164 52.5942C35.6034 53.5812 36.1579 54.9199 36.1579 56.3158V67.8947H25.6316ZM61.4211 67.8947H38.2632V56.3158C38.2632 54.3616 37.4868 52.4874 36.105 51.1055C34.7232 49.7237 32.849 48.9474 30.8947 48.9474C28.9405 48.9474 27.0663 49.7237 25.6845 51.1055C24.3026 52.4874 23.5263 54.3616 23.5263 56.3158V67.8947H19.3158V45.7895C20.3587 45.7887 21.3851 45.5297 22.3035 45.0356C23.2219 44.5415 24.0036 43.8277 24.579 42.9579C25.1551 43.8264 25.9372 44.5389 26.8555 45.0317C27.7738 45.5246 28.7999 45.7825 29.8421 45.7825C30.8843 45.7825 31.9104 45.5246 32.8287 45.0317C33.7471 44.5389 34.5292 43.8264 35.1053 42.9579C35.6814 43.8264 36.4635 44.5389 37.3818 45.0317C38.3002 45.5246 39.3262 45.7825 40.3684 45.7825C41.4107 45.7825 42.4367 45.5246 43.355 45.0317C44.2734 44.5389 45.0555 43.8264 45.6316 42.9579C46.2077 43.8264 46.9898 44.5389 47.9081 45.0317C48.8265 45.5246 49.8525 45.7825 50.8947 45.7825C51.937 45.7825 52.963 45.5246 53.8813 45.0317C54.7997 44.5389 55.5818 43.8264 56.1579 42.9579C56.7332 43.8277 57.515 44.5415 58.4334 45.0356C59.3517 45.5297 60.3782 45.7887 61.4211 45.7895V67.8947ZM65.6316 39.4737C65.6316 40.5904 65.188 41.6614 64.3983 42.451C63.6087 43.2406 62.5378 43.6842 61.4211 43.6842C60.3044 43.6842 59.2334 43.2406 58.4438 42.451C57.6541 41.6614 57.2105 40.5904 57.2105 39.4737V38.4211H65.6316V39.4737ZM65.1263 36.3158H56.9368L54.4105 27.8947H61.779L65.1263 36.3158ZM21.4211 22.6316H30.8947C31.1739 22.6316 31.4417 22.5207 31.6391 22.3233C31.8365 22.1259 31.9474 21.8581 31.9474 21.5789C31.9474 19.3455 32.8346 17.2036 34.4138 15.6244C35.9931 14.0451 38.135 13.1579 40.3684 13.1579C42.6018 13.1579 44.7438 14.0451 46.323 15.6244C47.9023 17.2036 48.7895 19.3455 48.7895 21.5789C48.7895 21.8581 48.9004 22.1259 49.0978 22.3233C49.2952 22.5207 49.5629 22.6316 49.8421 22.6316H59.3158V25.7895H21.4211V22.6316ZM18.979 27.8947H26.3474L23.8211 36.3158H15.6105L18.979 27.8947Z" fill="url(#paint0_linear_1746_6471)"/>
<path d="M28.7894 58.4209C28.5103 58.4209 28.2425 58.5319 28.0451 58.7293C27.8477 58.9267 27.7368 59.1944 27.7368 59.4736V61.5788C27.7368 61.858 27.8477 62.1258 28.0451 62.3232C28.2425 62.5206 28.5103 62.6315 28.7894 62.6315C29.0686 62.6315 29.3364 62.5206 29.5338 62.3232C29.7312 62.1258 29.8421 61.858 29.8421 61.5788V59.4736C29.8421 59.1944 29.7312 58.9267 29.5338 58.7293C29.3364 58.5319 29.0686 58.4209 28.7894 58.4209ZM56.1579 48.9473H43.5263C43.2471 48.9473 42.9794 49.0582 42.782 49.2556C42.5846 49.453 42.4737 49.7207 42.4737 49.9999V62.6315C42.4737 62.9107 42.5846 63.1784 42.782 63.3758C42.9794 63.5732 43.2471 63.6841 43.5263 63.6841H56.1579C56.437 63.6841 56.7048 63.5732 56.9022 63.3758C57.0996 63.1784 57.2105 62.9107 57.2105 62.6315V49.9999C57.2105 49.7207 57.0996 49.453 56.9022 49.2556C56.7048 49.0582 56.437 48.9473 56.1579 48.9473ZM55.1052 61.5788H44.5789V51.0525H55.1052V61.5788Z" fill="url(#paint1_linear_1746_6471)"/>
<defs>
<linearGradient id="paint0_linear_1746_6471" x1="67.7369" y1="40" x2="13" y2="40" gradientUnits="userSpaceOnUse">
<stop stop-color="#2058FF"/>
<stop offset="1" stop-color="#004BC2"/>
</linearGradient>
<linearGradient id="paint1_linear_1746_6471" x1="57.2105" y1="56.3157" x2="27.7368" y2="56.3157" gradientUnits="userSpaceOnUse">
<stop stop-color="#2058FF"/>
<stop offset="1" stop-color="#004BC2"/>
</linearGradient>
</defs>
</svg>
