<svg width="48" height="48" viewBox="0 0 48 48" fill="none" xmlns="http://www.w3.org/2000/svg">
<path d="M39.6 0H8.4C3.76081 0 0 3.89049 0 8.68966V39.3103C0 44.1095 3.76081 48 8.4 48H39.6C44.2392 48 48 44.1095 48 39.3103V8.68966C48 3.89049 44.2392 0 39.6 0Z" fill="#330000"/>
<path d="M24.1579 29.8031H16.9999L15.1519 35.1391C15.1306 35.3151 15.0193 35.4031 14.8179 35.4031H11.4579C11.2339 35.4031 11.1559 35.2931 11.2239 35.0731L17.7079 15.8151C17.8911 15.2288 17.9815 14.6174 17.9759 14.0031C17.9723 13.976 17.975 13.9484 17.9838 13.9225C17.9925 13.8966 18.0072 13.873 18.0265 13.8537C18.0459 13.8343 18.0694 13.8197 18.0953 13.811C18.1212 13.8022 18.1488 13.7995 18.1759 13.8031H22.8799C23.0159 13.8031 23.0939 13.8591 23.1159 13.9671L30.3719 35.1071C30.4399 35.3071 30.3839 35.4031 30.2039 35.4031H26.4419C26.3724 35.4073 26.3031 35.3904 26.2432 35.3548C26.1833 35.3191 26.1355 35.2663 26.1059 35.2031L24.1579 29.8031ZM17.7999 26.2031H23.3759C23.2419 25.9091 20.7339 17.8171 20.5539 17.1351H20.5219L17.7999 26.2031ZM34.3819 17.8031C34.0666 17.8166 33.7517 17.7667 33.4559 17.6565C33.1602 17.5462 32.8895 17.3778 32.6599 17.1611C32.4353 16.9327 32.2606 16.6601 32.147 16.3605C32.0334 16.061 31.9833 15.7411 31.9999 15.4211C31.9851 15.0971 32.0376 14.7736 32.1544 14.4709C32.2711 14.1683 32.4494 13.8932 32.6779 13.6631C32.9094 13.4428 33.1826 13.2709 33.4814 13.1576C33.7802 13.0443 34.0986 12.9918 34.4179 13.0031C34.7379 12.9865 35.0578 13.0365 35.3574 13.1502C35.6569 13.2638 35.9295 13.4385 36.1579 13.6631C36.3766 13.8987 36.546 14.1755 36.6562 14.4774C36.7665 14.7793 36.8153 15.1001 36.7999 15.4211C36.8166 15.7411 36.7665 16.061 36.6529 16.3605C36.5393 16.6601 36.3646 16.9327 36.1399 17.1611C35.9044 17.3798 35.6276 17.5492 35.3257 17.6594C35.0238 17.7697 34.703 17.8185 34.3819 17.8031ZM32.3999 35.1031V19.6711C32.3946 19.6347 32.3978 19.5975 32.4093 19.5625C32.4209 19.5275 32.4405 19.4958 32.4665 19.4697C32.4926 19.4437 32.5244 19.4241 32.5593 19.4125C32.5943 19.4009 32.6315 19.3977 32.6679 19.4031H36.1319C36.1683 19.3982 36.2053 19.4017 36.2401 19.4134C36.2749 19.4251 36.3065 19.4447 36.3324 19.4706C36.3584 19.4966 36.378 19.5282 36.3897 19.563C36.4014 19.5978 36.4049 19.6348 36.3999 19.6711V35.1351C36.4053 35.1716 36.4021 35.2088 36.3906 35.2437C36.379 35.2787 36.3594 35.3105 36.3334 35.3365C36.3073 35.3626 36.2755 35.3822 36.2406 35.3937C36.2056 35.4053 36.1684 35.4085 36.1319 35.4031H32.6999C32.6592 35.4088 32.6178 35.4049 32.5788 35.3918C32.5398 35.3787 32.5044 35.3568 32.4753 35.3277C32.4463 35.2987 32.4243 35.2633 32.4113 35.2243C32.3982 35.1853 32.3943 35.1438 32.3999 35.1031Z" fill="#FF9A00"/>
</svg>
