<svg width="48" height="48" viewBox="0 0 48 48" fill="none" xmlns="http://www.w3.org/2000/svg">
<g clip-path="url(#clip0_104_416)">
<path fill-rule="evenodd" clip-rule="evenodd" d="M48 6.85714C48 3.06857 44.9314 0 41.1429 0H6.85714C3.06857 0 0 3.06857 0 6.85714V41.1429C0 44.9314 3.06857 48 6.85714 48H41.1429C44.9314 48 48 44.9314 48 41.1429V6.85714Z" fill="#161616"/>
<path fill-rule="evenodd" clip-rule="evenodd" d="M30.0086 18.0085C33.3257 18.0085 36.0171 20.7 36.0171 24.0171C36.0171 27.3343 33.3257 30.0257 30.0086 30.0257C26.6914 30.0257 24 27.3343 24 24.0171C24 20.7 26.6914 18.0085 30.0086 18.0085Z" fill="#0CC2FF"/>
<path fill-rule="evenodd" clip-rule="evenodd" d="M36.0001 12C36.0001 8.68286 33.3172 6 30.0001 6H17.9829C14.6658 6 11.9829 8.68286 11.9829 12C11.9829 15.3171 14.6658 18 17.9829 18H30.0001C33.3172 18 36.0001 15.3171 36.0001 12Z" fill="#FF7568"/>
<path fill-rule="evenodd" clip-rule="evenodd" d="M23.9915 18.0085H17.9829C16.3886 18.0085 14.8629 18.6428 13.7401 19.7657C12.6172 20.8885 11.9829 22.4143 11.9829 24.0085C11.9829 25.6028 12.6172 27.1285 13.7401 28.2514C14.8629 29.3743 16.3886 30.0085 17.9829 30.0085H23.9915V18.0085Z" fill="#AF5BFF"/>
<path fill-rule="evenodd" clip-rule="evenodd" d="M23.9915 6H17.9829C16.3886 6 14.8629 6.63429 13.7401 7.75714C12.6172 8.88 11.9829 10.4057 11.9829 12C11.9829 13.5943 12.6172 15.12 13.7401 16.2429C14.8629 17.3657 16.3886 18 17.9829 18H23.9915V6Z" fill="#FF4611"/>
<path fill-rule="evenodd" clip-rule="evenodd" d="M24.0003 29.9915H17.9917C16.3974 29.9915 14.8717 30.6257 13.7488 31.7486C12.626 32.8715 11.9917 34.3972 11.9917 35.9915C11.9917 37.5857 12.626 39.1115 13.7488 40.2343C14.8717 41.3572 16.3974 41.9915 17.9917 41.9915C19.586 41.9915 21.1117 41.3572 22.2346 40.2343C23.3574 39.1115 23.9917 37.5857 23.9917 35.9915V29.9915H24.0003Z" fill="#00E681"/>
</g>
<defs>
<clipPath id="clip0_104_416">
<rect width="48" height="48" fill="white"/>
</clipPath>
</defs>
</svg>
