<svg width="49" height="48" viewBox="0 0 49 48" fill="none" xmlns="http://www.w3.org/2000/svg">
<g clip-path="url(#clip0_110_131)">
<path d="M44.2598 37.3395C43.5591 38.9658 42.6921 40.5153 41.6727 41.9633C40.7251 43.4498 39.6175 44.828 38.3699 46.0734C37.2193 47.1904 35.697 47.8438 34.0947 47.9083C32.7327 47.8458 31.3946 47.5284 30.1497 46.9725C28.8085 46.4009 27.369 46.0956 25.9112 46.0734C24.4092 46.104 22.9269 46.4216 21.5442 47.0092C20.3532 47.5434 19.0824 47.8781 17.7828 48C16.9632 47.9863 16.1546 47.8087 15.4046 47.4779C14.6547 47.147 13.9784 46.6695 13.4158 46.0734C12.1162 44.8112 10.9537 43.415 9.94789 41.9083C8.37718 39.6515 7.14114 37.1794 6.27816 34.5688C5.28706 31.7812 4.7662 28.8483 4.73688 25.8899C4.6573 22.9855 5.38114 20.1156 6.82862 17.5963C7.85175 15.7227 9.35197 14.1529 11.1772 13.0459C12.9651 11.9784 15.0034 11.4024 17.0855 11.3761C18.6571 11.4738 20.2013 11.8335 21.6543 12.4404C22.8235 12.9603 24.0581 13.3183 25.324 13.5046C26.7002 13.2179 28.0458 12.8001 29.3424 12.2569C31.0873 11.5454 32.9639 11.2139 34.847 11.2844C36.6264 11.3345 38.3706 11.7923 39.9452 12.6226C41.5199 13.4529 42.8829 14.6334 43.9295 16.0734C42.2689 16.9498 40.8869 18.2737 39.94 19.8952C38.9931 21.5166 38.5191 23.3708 38.5717 25.2477C38.553 26.6827 38.8393 28.1052 39.4119 29.4212C39.9844 30.7371 40.8301 31.9163 41.8928 32.8807C42.8297 33.7878 43.9159 34.5264 45.1039 35.0642C44.8286 35.8349 44.5534 36.5688 44.2598 37.2844V37.3395ZM35.0121 0.93578C34.979 3.41808 34.0468 5.80414 32.3883 7.65138C31.5492 8.80713 30.4442 9.74395 29.1667 10.3827C27.8893 11.0214 26.4769 11.3433 25.0488 11.3211C25.0294 11.0217 25.0294 10.7214 25.0488 10.422C25.1272 7.90519 26.111 5.50114 27.8194 3.65138C28.7698 2.58369 29.9239 1.71657 31.2139 1.10092C32.4201 0.484537 33.7355 0.110516 35.0855 0C35.1032 0.317796 35.1032 0.636332 35.0855 0.954128L35.0121 0.93578Z" fill="black"/>
</g>
<defs>
<clipPath id="clip0_110_131">
<rect width="48" height="48" fill="white" transform="translate(0.730957)"/>
</clipPath>
</defs>
</svg>
