<svg width="48" height="48" viewBox="0 0 48 48" fill="none" xmlns="http://www.w3.org/2000/svg">
<path fill-rule="evenodd" clip-rule="evenodd" d="M18.86 17.9379H26.288V21.6379C27.358 19.5099 30.102 17.5979 34.224 17.5979C42.126 17.5979 44.002 21.8339 44.002 29.6059V43.9999H36.002V31.3759C36.002 26.9499 34.932 24.4539 32.208 24.4539C28.43 24.4539 26.86 27.1439 26.86 31.3739V43.9999H18.86V17.9379ZM5.14195 43.6599H13.142V17.5979H5.14195V43.6599ZM14.288 9.09988C14.2882 9.77043 14.1553 10.4343 13.8967 11.0531C13.6382 11.6718 13.2593 12.2329 12.782 12.7039C11.8148 13.6651 10.5056 14.2032 9.14195 14.1999C7.78073 14.199 6.47458 13.6623 5.50595 12.7059C5.03038 12.2333 4.65272 11.6715 4.39464 11.0527C4.13656 10.434 4.00311 9.77033 4.00195 9.09988C4.00195 7.74588 4.54195 6.44988 5.50795 5.49388C6.47572 4.53619 7.78243 3.99928 9.14395 3.99988C10.508 3.99988 11.816 4.53788 12.782 5.49388C13.746 6.44988 14.288 7.74588 14.288 9.09988Z" fill="#007FBC"/>
</svg>
