<svg width="49" height="48" viewBox="0 0 49 48" fill="none" xmlns="http://www.w3.org/2000/svg">
<path d="M8.60759 16.1261C7.08772 16.1253 5.85584 17.3602 5.85547 18.879L5.85734 30.405C5.85772 31.929 7.09034 33.159 8.61059 33.1586C10.1316 33.1586 11.3638 31.9286 11.3623 30.4053V18.8775C11.3616 17.3591 10.1282 16.1253 8.60759 16.1261ZM30.805 5.77535L32.7261 2.26722C32.8285 2.08385 32.7613 1.8506 32.5757 1.74672C32.3882 1.64735 32.1568 1.71485 32.0575 1.89935L30.1168 5.44422C28.4841 4.71747 26.6567 4.31022 24.7232 4.3121C22.795 4.31022 20.9683 4.71635 19.3423 5.43897L17.3995 1.9031C17.2986 1.71672 17.0661 1.64922 16.8827 1.75085C16.696 1.85172 16.6273 2.08535 16.7312 2.26835L18.6531 5.77422C14.8768 7.7216 12.3253 11.4303 12.3276 15.6885L37.1218 15.6855C37.1226 11.4289 34.5756 7.7276 30.805 5.77535ZM19.084 11.1967C18.5136 11.1956 18.0478 10.7313 18.0478 10.1576C18.0478 9.58647 18.5121 9.11697 19.0851 9.11735C19.66 9.11697 20.125 9.58647 20.1257 10.1576C20.1257 10.7306 19.6596 11.1963 19.084 11.1967ZM30.3737 11.1948C29.8007 11.1956 29.3342 10.731 29.3342 10.1557C29.3365 9.58572 29.8 9.11622 30.3741 9.11397C30.9445 9.11585 31.4121 9.58572 31.4117 10.1561C31.4128 10.7298 30.9467 11.1952 30.3737 11.1948ZM12.4288 16.6462L12.433 34.5093C12.4318 36.1342 13.7462 37.446 15.37 37.446L17.3698 37.4467L17.3721 43.5457C17.3717 45.0645 18.6062 46.299 20.1227 46.299C21.6437 46.299 22.876 45.0634 22.8763 43.5438L22.8748 37.4464L26.5907 37.4452L26.5922 43.5438C26.5922 45.0615 27.8271 46.2986 29.344 46.2956C30.865 46.2967 32.098 45.0611 32.0976 43.5416L32.0957 37.4445L34.1027 37.443C35.7227 37.4437 37.0405 36.1305 37.0412 34.5052L37.0378 16.6421L12.4288 16.6462ZM43.6041 18.8749C43.6037 17.3542 42.3718 16.122 40.8512 16.1227C39.3313 16.1212 38.0998 17.3553 38.0998 18.876L38.1021 30.4027C38.1017 31.9245 39.3332 33.1545 40.8542 33.1549C42.3745 33.1545 43.6056 31.9245 43.606 30.4012L43.6041 18.8749Z" fill="#A4C439"/>
</svg>
