<svg width="885" height="899" viewBox="0 0 885 899" fill="none" xmlns="http://www.w3.org/2000/svg">
<path d="M389.472 601.4L390.397 601.215L389.472 601.4ZM396.502 600.105C397.057 599.92 397.612 599.92 397.983 599.735C397.612 599.92 397.057 599.92 396.502 600.105ZM399.833 599.18C400.203 598.995 400.758 598.81 401.128 598.625C400.758 598.995 400.203 598.995 399.833 599.18ZM402.238 598.44C402.608 598.255 403.163 598.07 403.533 597.885C402.978 598.07 402.608 598.255 402.238 598.44ZM37.7448 538.122C37.3748 537.382 37.1897 536.642 36.6347 535.902C37.1897 536.642 37.3748 537.382 37.7448 538.122ZM31.269 523.691L30.1589 521.285C30.5289 522.026 30.899 522.766 31.269 523.691ZM25.3483 509.259C24.9783 508.334 24.6083 507.409 24.2382 506.484C24.6083 507.409 24.9783 508.334 25.3483 509.259ZM19.9827 494.642C19.6126 493.717 19.4276 492.792 19.0576 491.867C19.4276 492.977 19.7977 493.717 19.9827 494.642ZM15.5422 480.026C15.1721 478.915 14.9871 477.99 14.6171 476.695C14.8021 477.99 15.1721 479.1 15.5422 480.026ZM11.4717 465.594C11.2866 464.484 10.9166 463.374 10.7316 462.263C10.9166 463.374 11.2866 464.299 11.4717 465.594ZM8.14128 450.422C59.2073 599.55 255.886 633.039 389.472 601.4C377.445 603.065 365.604 600.845 354.132 594.924C338.035 586.598 327.304 573.092 322.864 555.514L314.168 520.915C314.538 522.396 315.093 523.876 314.168 520.915C313.242 517.955 313.798 519.435 314.168 520.915C312.872 516.105 311.392 511.479 310.097 507.039C285.674 420.634 279.198 359.576 279.198 293.708C279.198 215.999 294.555 151.982 321.198 102.581C346.361 55.9552 381.331 22.2812 423.145 1.74379C412.414 1.0037 401.868 0.633656 391.507 0.633656C127.665 0.448634 -36.449 230.801 8.14128 450.422Z" fill="url(#paint0_linear_1471_5049)"/>
<mask id="mask0_1471_5049" style="mask-type:luminance" maskUnits="userSpaceOnUse" x="0" y="0" width="424" height="613">
<path d="M389.472 601.4L390.397 601.215L389.472 601.4ZM396.502 600.105C397.057 599.92 397.612 599.92 397.983 599.735C397.612 599.92 397.057 599.92 396.502 600.105ZM399.833 599.18C400.203 598.995 400.758 598.81 401.128 598.625C400.758 598.995 400.203 598.995 399.833 599.18ZM402.238 598.44C402.608 598.255 403.163 598.07 403.533 597.885C402.978 598.07 402.608 598.255 402.238 598.44ZM37.7448 538.122C37.3748 537.382 37.1897 536.642 36.6347 535.902C37.1897 536.642 37.3748 537.382 37.7448 538.122ZM31.269 523.691L30.1589 521.285C30.5289 522.026 30.899 522.766 31.269 523.691ZM25.3483 509.259C24.9783 508.334 24.6083 507.409 24.2382 506.484C24.6083 507.409 24.9783 508.334 25.3483 509.259ZM19.9827 494.642C19.6126 493.717 19.4276 492.792 19.0576 491.867C19.4276 492.977 19.7977 493.717 19.9827 494.642ZM15.5422 480.026C15.1721 478.915 14.9871 477.99 14.6171 476.695C14.8021 477.99 15.1721 479.1 15.5422 480.026ZM11.4717 465.594C11.2866 464.484 10.9166 463.374 10.7316 462.263C10.9166 463.374 11.2866 464.299 11.4717 465.594ZM8.14128 450.422C59.2073 599.55 255.886 633.039 389.472 601.4C377.445 603.065 365.604 600.845 354.132 594.924C338.035 586.598 327.304 573.092 322.864 555.514L314.168 520.915C314.538 522.396 315.093 523.876 314.168 520.915C313.242 517.955 313.798 519.435 314.168 520.915C312.872 516.105 311.392 511.479 310.097 507.039C285.674 420.634 279.198 359.576 279.198 293.708C279.198 215.999 294.555 151.982 321.198 102.581C346.361 55.9552 381.331 22.2812 423.145 1.74379C412.414 1.0037 401.868 0.633656 391.507 0.633656C127.665 0.448634 -36.449 230.801 8.14128 450.422Z" fill="white"/>
</mask>
<g mask="url(#mask0_1471_5049)">
<path d="M542.302 609.726L406.311 -86.1416L-155.416 23.5764L-19.6099 719.444L542.302 609.726Z" fill="url(#paint1_linear_1471_5049)"/>
</g>
<path d="M426.476 141.435C399.833 187.876 394.467 256.334 402.238 324.977L567.278 324.052C563.022 309.435 558.397 294.449 553.216 279.092C544.705 253.559 557.287 225.99 582.079 215.629L583.56 215.074C597.251 209.338 611.128 209.523 624.635 215.629C638.141 221.735 647.392 232.096 652.018 246.158C662.194 276.871 670.705 306.29 678.106 334.783C715.665 478.915 719.181 594.554 696.793 681.329C671.445 779.576 614.273 842.669 534.899 871.532C527.498 874.122 519.542 876.528 511.216 878.748C493.269 883.558 475.137 886.889 457.19 889.479C449.234 890.589 441.093 891.329 433.137 892.069C437.392 892.625 441.833 893.18 446.273 893.735C1007.26 960.713 968.22 296.854 675.146 123.858C636.846 101.286 585.04 82.7834 536.934 82.7834C492.529 82.7834 451.084 98.5103 426.476 141.435Z" fill="url(#paint2_linear_1471_5049)"/>
<mask id="mask1_1471_5049" style="mask-type:luminance" maskUnits="userSpaceOnUse" x="398" y="82" width="487" height="817">
<path d="M426.476 141.435C399.833 187.876 394.467 256.334 402.238 324.977L567.278 324.052C563.022 309.435 558.397 294.449 553.216 279.092C544.705 253.559 557.287 225.99 582.079 215.629L583.56 215.074C597.251 209.338 611.128 209.523 624.635 215.629C638.141 221.735 647.392 232.096 652.018 246.158C662.194 276.871 670.705 306.29 678.106 334.783C715.665 478.915 719.181 594.554 696.793 681.329C671.445 779.576 614.273 842.669 534.899 871.532C527.498 874.122 519.542 876.528 511.216 878.748C493.269 883.558 475.137 886.889 457.19 889.479C449.234 890.589 441.093 891.329 433.137 892.069C437.392 892.625 441.833 893.18 446.273 893.735C1007.26 960.713 968.22 296.854 675.146 123.858C636.846 101.286 585.04 82.7834 536.934 82.7834C492.529 82.7834 451.084 98.5103 426.476 141.435Z" fill="white"/>
</mask>
<g mask="url(#mask1_1471_5049)">
<path d="M423.702 -48.0269L207.227 918.898L978.028 1091.52L1194.5 124.599L423.702 -48.0269Z" fill="url(#paint3_linear_1471_5049)"/>
</g>
<path d="M426.476 141.435C399.833 187.876 394.467 256.334 402.238 324.977L567.278 324.052C563.022 309.435 558.397 294.448 553.216 279.091C551.551 274.096 550.626 268.915 550.626 264.105C521.207 143.84 651.093 96.2898 731.577 165.673C714 149.761 695.313 135.514 675.33 123.673C637.031 101.1 585.225 82.5981 537.119 82.5981C492.529 82.7832 451.084 98.51 426.476 141.435Z" fill="url(#paint4_linear_1471_5049)"/>
<mask id="mask2_1471_5049" style="mask-type:luminance" maskUnits="userSpaceOnUse" x="398" y="82" width="334" height="243">
<path d="M426.476 141.435C399.833 187.876 394.467 256.334 402.238 324.977L567.278 324.052C563.022 309.435 558.397 294.448 553.216 279.091C551.551 274.096 550.626 268.915 550.626 264.105C521.207 143.84 651.093 96.2898 731.577 165.673C714 149.761 695.313 135.514 675.33 123.673C637.031 101.1 585.225 82.5981 537.119 82.5981C492.529 82.7832 451.084 98.51 426.476 141.435Z" fill="white"/>
</mask>
<g mask="url(#mask2_1471_5049)">
<path d="M778.204 315.726L718.442 17.6553L347.658 92.0341L407.42 390.104L778.204 315.726Z" fill="url(#paint5_linear_1471_5049)"/>
</g>
<path d="M439.056 422.114C441.832 427.664 444.607 433.03 447.382 438.581C459.594 462.263 454.783 490.387 437.206 508.889C438.501 513.699 439.981 518.51 441.277 523.506C449.973 554.219 434.061 586.228 404.457 597.699H404.272C387.25 604.175 370.228 603.25 353.946 594.924C337.849 586.598 327.118 573.091 322.677 555.514L322.307 553.849C206.114 577.717 69.7524 557.735 7.95508 450.422C25.9022 539.047 77.8934 625.823 170.959 695.206C202.228 718.334 244.598 739.611 290.299 754.228C373.743 729.805 459.594 695.761 504.554 677.999C553.03 658.942 582.818 630.078 599.655 596.034C605.391 536.272 595.585 471.699 585.039 419.893L439.056 422.114Z" fill="url(#paint6_linear_1471_5049)"/>
<mask id="mask3_1471_5049" style="mask-type:luminance" maskUnits="userSpaceOnUse" x="7" y="419" width="595" height="336">
<path d="M439.056 422.114C441.832 427.664 444.607 433.03 447.382 438.581C459.594 462.263 454.783 490.387 437.206 508.889C438.501 513.699 439.981 518.51 441.277 523.506C449.973 554.219 434.061 586.228 404.457 597.699H404.272C387.25 604.175 370.228 603.25 353.946 594.924C337.849 586.598 327.118 573.091 322.677 555.514L322.307 553.849C206.114 577.717 69.7524 557.735 7.95508 450.422C25.9022 539.047 77.8934 625.823 170.959 695.206C202.228 718.334 244.598 739.611 290.299 754.228C373.743 729.805 459.594 695.761 504.554 677.999C553.03 658.942 582.818 630.078 599.655 596.034C605.391 536.272 595.585 471.699 585.039 419.893L439.056 422.114Z" fill="white"/>
</mask>
<g mask="url(#mask3_1471_5049)">
<path d="M668.483 741.831L583.743 307.4L-54.7676 432.105L30.1575 866.536L668.483 741.831Z" fill="url(#paint7_linear_1471_5049)"/>
</g>
<path d="M439.056 422.114C441.832 427.664 444.607 433.03 447.382 438.581C459.594 462.263 454.783 490.387 437.206 508.889C438.501 513.699 439.981 518.51 441.277 523.506C449.973 554.219 434.061 586.228 404.457 597.699H404.272C387.25 604.175 370.228 603.25 353.946 594.924C337.849 586.598 327.118 573.091 322.677 555.514L322.307 553.849C206.114 577.717 69.7524 557.735 7.95508 450.422C42.5542 533.867 110.272 609.171 214.995 659.127C291.224 695.576 416.113 712.968 504.554 677.814C553.03 658.757 582.818 629.893 599.655 595.849C605.391 536.087 595.585 471.514 585.039 419.708L439.056 422.114Z" fill="url(#paint8_linear_1471_5049)"/>
<mask id="mask4_1471_5049" style="mask-type:luminance" maskUnits="userSpaceOnUse" x="7" y="419" width="595" height="278">
<path d="M439.056 422.114C441.832 427.664 444.607 433.03 447.382 438.581C459.594 462.263 454.783 490.387 437.206 508.889C438.501 513.699 439.981 518.51 441.277 523.506C449.973 554.219 434.061 586.228 404.457 597.699H404.272C387.25 604.175 370.228 603.25 353.946 594.924C337.849 586.598 327.118 573.091 322.677 555.514L322.307 553.849C206.114 577.717 69.7524 557.735 7.95508 450.422C42.5542 533.867 110.272 609.171 214.995 659.127C291.224 695.576 416.113 712.968 504.554 677.814C553.03 658.757 582.818 629.893 599.655 595.849C605.391 536.087 595.585 471.514 585.039 419.708L439.056 422.114Z" fill="white"/>
</mask>
<g mask="url(#mask4_1471_5049)">
<path d="M660.715 702.052L583.746 307.4L-46.9941 430.44L30.16 825.276L660.715 702.052Z" fill="url(#paint9_linear_1471_5049)"/>
</g>
<path d="M415.561 422.669C422.592 456.713 432.028 490.202 441.465 523.506C450.161 554.22 434.249 586.228 404.645 597.7H404.46C399.465 599.55 394.469 600.845 389.658 601.585C255.887 633.224 59.2092 599.735 8.32812 450.607C26.2753 539.233 78.2664 626.008 171.332 695.391C239.236 745.717 358.39 786.792 452.011 769.585C631.297 736.651 610.575 542.378 585.597 420.079L415.561 422.669Z" fill="url(#paint10_linear_1471_5049)"/>
<mask id="mask5_1471_5049" style="mask-type:luminance" maskUnits="userSpaceOnUse" x="8" y="420" width="594" height="354">
<path d="M415.561 422.669C422.592 456.713 432.028 490.202 441.465 523.506C450.161 554.22 434.249 586.228 404.645 597.7H404.46C399.465 599.55 394.469 600.845 389.658 601.585C255.887 633.224 59.2092 599.735 8.32812 450.607C26.2753 539.233 78.2664 626.008 171.332 695.391C239.236 745.717 358.39 786.792 452.011 769.585C631.297 736.651 610.575 542.378 585.597 420.079L415.561 422.669Z" fill="white"/>
</mask>
<g mask="url(#mask5_1471_5049)">
<path d="M812.063 631.744L368.01 112.202L-172.994 574.572L271.059 1094.11L812.063 631.744Z" fill="url(#paint11_linear_1471_5049)"/>
</g>
<g opacity="0.17">
<path d="M691.984 134.774C695.87 137.365 699.755 140.14 703.456 142.915C699.755 140.14 695.87 137.55 691.984 134.774Z" fill="#231F20"/>
<path d="M674.775 123.858C679.586 126.633 684.397 129.779 689.022 132.924C684.397 129.594 679.586 126.633 674.775 123.858Z" fill="#231F20"/>
<path d="M550.627 270.211C550.997 273.171 551.737 276.131 552.662 279.092C551.737 276.316 551.182 273.171 550.627 270.211Z" fill="#231F20"/>
<path d="M689.023 132.74C689.949 133.48 691.059 134.035 691.984 134.775C691.059 134.22 690.134 133.48 689.023 132.74Z" fill="#231F20"/>
<path d="M550.441 267.99C550.441 268.73 550.626 269.47 550.626 270.211C550.626 269.47 550.626 268.73 550.441 267.99Z" fill="#231F20"/>
<path d="M313.615 520.73C312.875 517.77 313.245 519.25 313.615 520.73C314.17 522.21 314.54 523.691 313.615 520.73Z" fill="#231F20"/>
<path d="M884.408 524.986C829.272 476.51 765.254 437.84 694.946 411.752C715.668 520.73 714.743 610.836 696.426 681.699C671.078 779.946 613.906 843.038 534.532 871.902C527.131 874.492 519.175 876.897 510.849 879.118C492.902 883.928 474.77 887.259 456.822 889.849C448.866 890.959 440.725 891.699 432.77 892.439C437.025 892.994 441.466 893.549 445.906 894.104C764.329 932.034 889.404 734.43 884.408 524.986Z" fill="#231F20"/>
<path d="M599.286 596.034C599.471 595.109 599.471 594.184 599.471 593.444C600.026 587.153 600.396 580.677 600.767 574.387C600.767 573.091 600.767 571.796 600.952 570.501C601.137 564.765 601.137 559.215 601.137 553.479C601.137 551.999 601.137 550.704 601.137 549.224C600.952 542.933 600.767 536.827 600.396 530.536C600.211 528.501 600.212 526.651 600.027 524.616C599.656 518.51 599.101 512.589 598.546 506.483C598.361 504.818 598.176 502.968 597.991 501.303C597.436 495.752 596.696 490.387 596.141 484.836C595.956 483.726 595.956 482.616 595.771 481.506C594.846 475.215 593.921 469.109 592.996 463.188C592.811 461.708 592.441 460.043 592.256 458.563C591.33 452.642 590.22 446.721 589.11 440.986C588.925 439.691 588.74 438.58 588.37 437.285C587.26 431.365 586.15 425.444 584.855 419.708L438.687 422.114L415.005 422.484C422.035 456.528 431.471 490.017 440.908 523.32C449.604 554.034 433.692 586.043 404.088 597.514H403.903C401.498 598.439 399.278 599.18 396.872 599.735C396.317 599.92 395.762 599.92 395.207 600.105C393.357 600.475 391.692 600.845 389.842 601.215C389.286 601.215 388.731 601.4 387.991 601.4C385.771 601.585 383.551 601.77 381.331 601.77C380.59 601.77 380.035 601.77 379.295 601.77C376.705 601.585 374.115 601.4 371.524 601.03C370.969 600.845 370.229 600.66 369.674 600.66C367.639 600.29 365.604 599.735 363.568 598.994C362.828 598.809 362.088 598.439 361.163 598.254C358.573 597.329 355.983 596.219 353.392 594.924C337.295 586.598 326.564 573.091 322.124 555.514L321.753 553.849L313.427 520.915C312.132 516.105 310.652 511.479 309.357 507.039C298.811 469.849 291.78 437.47 286.969 407.312C211.11 433.4 142.097 474.105 83.2602 526.281C78.0795 530.906 73.0839 535.532 68.0883 540.158C66.6082 541.453 65.313 542.748 63.8328 544.228C58.4672 549.409 53.2866 554.589 48.291 559.77C76.0443 608.801 116.194 655.056 170.22 695.391C174.291 698.351 178.361 701.312 182.802 704.087C185.577 705.937 188.538 707.787 191.498 709.638C193.163 710.563 194.643 711.673 196.309 712.598C199.639 714.633 203.154 716.483 206.67 718.519C207.965 719.259 209.26 719.999 210.74 720.739C214.256 722.774 218.141 724.624 221.842 726.475C223.137 727.215 224.617 727.955 225.912 728.51C229.613 730.36 233.313 732.025 237.198 733.875C238.864 734.616 240.529 735.356 242.194 736.096C245.709 737.761 249.41 739.241 252.925 740.721C255.146 741.646 257.181 742.571 259.401 743.312C262.546 744.607 265.692 745.717 268.837 747.012C271.798 748.122 274.943 749.232 277.903 750.342C280.309 751.268 282.714 752.008 285.119 752.748C286.599 753.303 288.079 753.858 289.56 754.228H289.745C342.846 771.065 400.573 778.651 450.714 769.4C554.511 750.157 591.33 677.444 599.286 596.034Z" fill="#231F20"/>
</g>
<defs>
<linearGradient id="paint0_linear_1471_5049" x1="0.863631" y1="306.306" x2="423.271" y2="306.306" gradientUnits="userSpaceOnUse">
<stop stop-color="#1599FF"/>
<stop offset="1" stop-color="#AA2AFF"/>
</linearGradient>
<linearGradient id="paint1_linear_1471_5049" x1="251.486" y1="614.115" x2="150.992" y2="99.303" gradientUnits="userSpaceOnUse">
<stop stop-color="#1599FF"/>
<stop offset="1" stop-color="#AA2AFF"/>
</linearGradient>
<linearGradient id="paint2_linear_1471_5049" x1="398.921" y1="490.765" x2="885.022" y2="490.765" gradientUnits="userSpaceOnUse">
<stop stop-color="#1599FF"/>
<stop offset="1" stop-color="#AA2AFF"/>
</linearGradient>
<linearGradient id="paint3_linear_1471_5049" x1="777.149" y1="180.676" x2="620.134" y2="882.004" gradientUnits="userSpaceOnUse">
<stop stop-color="#1599FF"/>
<stop offset="1" stop-color="#AA2AFF"/>
</linearGradient>
<linearGradient id="paint4_linear_1471_5049" x1="398.921" y1="203.883" x2="731.488" y2="203.883" gradientUnits="userSpaceOnUse">
<stop stop-color="#1599FF"/>
<stop offset="1" stop-color="#AA2AFF"/>
</linearGradient>
<linearGradient id="paint5_linear_1471_5049" x1="588.289" y1="330.383" x2="532.81" y2="54.04" gradientUnits="userSpaceOnUse">
<stop stop-color="#1599FF"/>
<stop offset="1" stop-color="#AA2AFF"/>
</linearGradient>
<linearGradient id="paint6_linear_1471_5049" x1="8.13547" y1="586.942" x2="601.513" y2="586.942" gradientUnits="userSpaceOnUse">
<stop stop-color="#1599FF"/>
<stop offset="1" stop-color="#AA2AFF"/>
</linearGradient>
<linearGradient id="paint7_linear_1471_5049" x1="309.947" y1="602.743" x2="209.453" y2="87.9308" gradientUnits="userSpaceOnUse">
<stop stop-color="#1599FF"/>
<stop offset="1" stop-color="#AA2AFF"/>
</linearGradient>
<linearGradient id="paint8_linear_1471_5049" x1="8.13547" y1="558.344" x2="601.513" y2="558.344" gradientUnits="userSpaceOnUse">
<stop stop-color="#1599FF"/>
<stop offset="1" stop-color="#AA2AFF"/>
</linearGradient>
<linearGradient id="paint9_linear_1471_5049" x1="313.769" y1="601.928" x2="213.276" y2="87.118" gradientUnits="userSpaceOnUse">
<stop stop-color="#1599FF"/>
<stop offset="1" stop-color="#AA2AFF"/>
</linearGradient>
<linearGradient id="paint10_linear_1471_5049" x1="8.13848" y1="596.491" x2="601.497" y2="596.491" gradientUnits="userSpaceOnUse">
<stop stop-color="#1599FF"/>
<stop offset="1" stop-color="#AA2AFF"/>
</linearGradient>
<linearGradient id="paint11_linear_1471_5049" x1="500.376" y1="814.726" x2="192.627" y2="454.641" gradientUnits="userSpaceOnUse">
<stop stop-color="#1599FF"/>
<stop offset="1" stop-color="#AA2AFF"/>
</linearGradient>
</defs>
</svg>
