<svg width="517" height="476" viewBox="0 0 517 476" fill="none" xmlns="http://www.w3.org/2000/svg">
<path d="M416.688 41.456C418.702 34.8986 415.02 27.9495 408.462 25.9347C401.905 23.9199 394.956 27.6025 392.941 34.1599C390.926 40.7173 394.609 47.6665 401.166 49.6813C407.724 51.696 414.673 48.0135 416.688 41.456Z" fill="#E6EDFF"/>
<path d="M514.004 329.041C513.229 325.92 512.2 323.033 510.954 320.342C500.939 298.718 477.17 292.508 459.732 279.817C452.29 274.402 446.307 266.231 445.758 257.043C445.106 246.134 451.91 236.406 457.435 226.977C464.496 214.93 469.943 201.611 470.743 187.669C471.543 173.728 467.218 159.08 457.132 149.424C445.502 138.29 428.206 135.289 412.12 135.971C371.19 137.709 333.444 154.921 301.019 119.411C278.041 94.2472 268.36 51.9315 244.61 26.9318C206.915 -12.7463 141.733 -6.01465 100.811 30.3649C63.8385 63.2331 51.8516 115.522 65.0295 162.435C73.5382 192.726 83.7701 223.501 62.6762 252.067C44.6252 276.513 16.0648 292.812 5.5178 322.571C-4.70747 351.424 -1.02214 387.107 23.4795 407.763C36.122 418.422 52.3187 423.91 68.4658 427.473C68.5859 427.5 68.7038 427.522 68.8239 427.548H396.746C448.442 419.761 530.396 395.065 514.004 329.041Z" fill="#D9E2FF"/>
<path d="M385.614 83.4462C390.751 70.9463 384.782 56.6488 372.283 51.5118C359.783 46.3748 345.485 52.3436 340.348 64.8435C335.211 77.3434 341.18 91.6409 353.68 96.7779C366.18 101.915 380.477 95.9461 385.614 83.4462Z" fill="#BFD2FF"/>
<path d="M58.2133 218.895C58.2133 227.103 51.5588 233.757 43.3508 233.757C35.1428 233.757 28.4883 227.103 28.4883 218.895C28.4883 210.687 35.1428 204.032 43.3508 204.032C51.5588 204.032 58.2133 210.687 58.2133 218.895Z" fill="#BFD2FF"/>
<path d="M127.719 424.603C132.668 425.599 137.629 426.533 142.599 427.421H147.796L127.719 424.603Z" fill="#BFD2FF"/>
<path d="M495.533 253.565C494.99 251.63 494.012 249.95 492.596 248.526C491.826 247.931 491.054 247.335 490.284 246.74C488.503 245.706 486.581 245.186 484.52 245.181H483.955C482.383 245.121 480.915 245.45 479.555 246.165C478.139 246.625 476.914 247.413 475.879 248.526C474.765 249.56 473.979 250.785 473.518 252.201C472.803 253.562 472.475 255.029 472.534 256.601C472.67 257.614 472.806 258.625 472.942 259.638C473.484 261.572 474.463 263.253 475.879 264.677C476.649 265.272 477.42 265.868 478.191 266.463C479.972 267.496 481.893 268.015 483.955 268.022H484.52C486.092 268.082 487.559 267.753 488.92 267.038C490.336 266.578 491.561 265.79 492.596 264.677C493.71 263.643 494.496 262.417 494.957 261.002C495.672 259.641 496 258.174 495.941 256.601C495.805 255.59 495.669 254.577 495.533 253.565Z" fill="#E6EDFF"/>
<path d="M360.227 423.027L100.015 421.786C94.0602 421.757 89.2566 416.907 89.2853 410.953L89.9816 264.954C90.0102 259 94.8601 254.195 100.814 254.224L361.026 255.465C366.98 255.494 371.784 260.344 371.755 266.298L371.059 412.297C371.03 418.251 366.181 423.055 360.227 423.027Z" fill="#63738F"/>
<path d="M232.196 258.219C232.193 258.931 231.614 259.506 230.901 259.503C230.189 259.5 229.614 258.92 229.617 258.207C229.621 257.495 230.2 256.921 230.913 256.924C231.626 256.927 232.2 257.508 232.196 258.219Z" fill="#333842"/>
<path d="M391.866 423.391L68.3752 421.848C68.3399 429.276 74.3323 435.326 81.7602 435.362L378.352 436.776C385.78 436.813 391.831 430.819 391.866 423.391Z" fill="#3E4D66"/>
<path d="M355.844 417.745L104.443 416.546C99.7903 416.524 96.0367 412.734 96.0587 408.081L96.7208 269.209C96.7429 264.556 100.533 260.802 105.186 260.824L356.587 262.024C361.239 262.046 364.993 265.836 364.971 270.489L364.309 409.361C364.287 414.015 360.497 417.769 355.844 417.745Z" fill="#FEFEFF"/>
<path d="M412.992 122.923V132.154H449.394V122.923H412.992Z" fill="#FFB861"/>
<path d="M412.992 108.65V117.882H467.208V108.65H412.992Z" fill="#96B3FF"/>
<path d="M412.992 94.3789V103.61H491.792V94.3789H412.992Z" fill="#FF6EA1"/>
<path d="M412.992 80.1064V89.3379H457.328V80.1064H412.992Z" fill="#3FD4C7"/>
<path d="M411.793 71.8818V138.671H497.582" stroke="#333842" stroke-width="0.6764" stroke-miterlimit="10" stroke-linecap="round"/>
<path d="M496.683 152.024H440.738V157.287H496.683V152.024Z" fill="#E0E9FF"/>
<path d="M496.683 161.922H440.738V167.184H496.683V161.922Z" fill="#E0E9FF"/>
<path d="M496.683 171.818H440.738V177.102H496.683V171.818Z" fill="#E0E9FF"/>
<path d="M435.996 152.024H411.793V177.101H435.996V152.024Z" fill="#E0E9FF"/>
<path d="M496.681 181.714H411.793V186.977H496.681V181.714Z" fill="#E0E9FF"/>
<path d="M496.681 191.61H411.793V196.873H496.681V191.61Z" fill="#E0E9FF"/>
<path d="M301.681 14.3983C299.949 14.7398 298.277 15.2444 296.684 15.8988C296.781 16.0222 296.887 16.1335 296.972 16.269C298.277 18.3557 297.644 21.1068 295.556 22.4123C293.468 23.7179 290.718 23.0844 289.413 20.9977C289.32 20.8501 289.26 20.6936 289.187 20.5405C287.869 21.6907 286.665 22.9665 285.593 24.3481C285.747 24.4098 285.905 24.4572 286.055 24.5365C288.23 25.6911 289.056 28.3904 287.901 30.5641C286.747 32.739 284.047 33.5653 281.874 32.4106C281.703 32.3203 281.556 32.2046 281.403 32.0966C280.835 33.7437 280.424 35.4603 280.184 37.2308C280.366 37.201 280.546 37.1614 280.736 37.1547C283.196 37.0677 285.262 38.9913 285.349 41.4515C285.436 43.9117 283.512 45.9775 281.052 46.0645C280.836 46.0722 280.628 46.0458 280.419 46.0238C280.76 47.7954 281.271 49.5031 281.938 51.1303C282.098 50.9948 282.255 50.8571 282.438 50.7425C284.526 49.437 287.275 50.0705 288.581 52.1583C289.887 54.2461 289.253 56.996 287.166 58.3016C286.968 58.4261 286.759 58.5164 286.551 58.6057C287.726 59.9586 289.031 61.1936 290.449 62.2877C290.522 62.075 290.597 61.8635 290.705 61.6586C291.86 59.4837 294.559 58.6574 296.733 59.8121C298.907 60.9667 299.734 63.666 298.579 65.8397C298.463 66.0601 298.319 66.2562 298.174 66.4468C299.855 67.0241 301.61 67.4405 303.419 67.6763C303.374 67.4471 303.332 67.218 303.323 66.9767C303.236 64.5165 305.161 62.4518 307.621 62.3637C310.082 62.2767 312.147 64.2003 312.234 66.6605C312.243 66.9117 312.218 67.1552 312.186 67.3965C313.977 67.045 315.702 66.5162 317.343 65.832C317.19 65.6568 317.039 65.4783 316.911 65.2756C315.606 63.1878 316.239 60.4379 318.326 59.1323C320.413 57.8267 323.164 58.4602 324.469 60.548C324.597 60.753 324.692 60.9678 324.783 61.1837C326.128 59.9994 327.354 58.685 328.44 57.2593C328.233 57.1866 328.026 57.115 327.827 57.0092C325.652 55.8546 324.826 53.1553 325.981 50.9816C327.135 48.8068 329.834 47.9805 332.008 49.1351C332.207 49.2409 332.381 49.372 332.556 49.5009C333.117 47.835 333.517 46.0987 333.743 44.3095C333.545 44.3436 333.351 44.3833 333.145 44.391C330.685 44.478 328.619 42.5544 328.532 40.0942C328.445 37.634 330.369 35.5682 332.83 35.4812C333.031 35.4735 333.224 35.501 333.418 35.5198C333.064 33.768 332.544 32.0801 331.871 30.4727C331.731 30.5851 331.6 30.7062 331.443 30.8032C329.357 32.1088 326.605 31.4753 325.3 29.3875C323.994 27.3008 324.628 24.5497 326.715 23.2441C326.868 23.1483 327.031 23.0844 327.191 23.0095C326.031 21.6984 324.748 20.5019 323.359 19.4376C323.299 19.5875 323.253 19.7406 323.176 19.886C322.021 22.0609 319.322 22.8872 317.148 21.7326C314.974 20.5779 314.147 17.8787 315.303 15.7049C315.382 15.5562 315.485 15.4295 315.577 15.2929C313.945 14.742 312.246 14.3465 310.497 14.1162C310.518 14.266 310.553 14.4115 310.559 14.5668C310.646 17.027 308.722 19.0928 306.262 19.1798C303.802 19.2669 301.736 17.3432 301.649 14.883C301.644 14.7178 301.67 14.5602 301.681 14.3983ZM306.287 22.744C316.314 22.3892 324.73 30.2292 325.085 40.2561C325.44 50.2831 317.6 58.6993 307.573 59.0541C297.546 59.4088 289.13 51.5688 288.775 41.5419C288.42 31.5149 296.26 23.0987 306.287 22.744Z" fill="#BFD2FF"/>
<path d="M134.73 150.47L134.73 25.4473L30.9497 25.4473L30.9497 150.47H134.73Z" fill="#E0E9FF"/>
<path d="M63.6016 74.791H52.0234V102.186H63.6016V74.791Z" fill="#3FD4C7"/>
<path d="M81.5001 61.3848H69.9219V102.186H81.5001V61.3848Z" fill="#FEFEFF"/>
<path d="M99.4063 42.8828H87.8281V102.185H99.4063V42.8828Z" fill="#96B3FF"/>
<path d="M117.305 68.8203H105.727V102.187H117.305V68.8203Z" fill="#628AEC"/>
<path d="M45.2109 43.9893V102.483H121.328" stroke="#333842" stroke-width="0.75" stroke-miterlimit="10" stroke-linecap="round"/>
<path d="M121.643 113.633H43.7148V121.095H121.643V113.633Z" fill="#FEFEFF"/>
<path d="M121.643 127.314H43.7148V134.778H121.643V127.314Z" fill="#FEFEFF"/>
<path d="M190.24 183.794L175.867 213.145L149.749 180.604L126.233 210.736L108.892 191.999L106.25 194.445L126.467 216.29L149.789 186.405L176.607 219.818L192.932 186.486L190.24 183.794Z" fill="white"/>
<path d="M181.053 216.482C181.053 213.929 178.984 211.86 176.432 211.86C173.879 211.86 171.809 213.929 171.809 216.482C171.809 219.035 173.878 221.104 176.432 221.104C178.984 221.104 181.053 219.035 181.053 216.482Z" fill="#FF6EA1"/>
<path d="M196.327 183.806C196.327 181.253 194.258 179.183 191.705 179.183C189.152 179.183 187.082 181.252 187.082 183.806C187.082 186.358 189.152 188.427 191.705 188.427C194.257 188.427 196.327 186.358 196.327 183.806Z" fill="#3FD4C7"/>
<path d="M149.591 188.427C152.143 188.427 154.212 186.358 154.212 183.805C154.212 181.253 152.143 179.184 149.591 179.184C147.038 179.184 144.969 181.253 144.969 183.805C144.969 186.358 147.038 188.427 149.591 188.427Z" fill="#333842"/>
<path d="M126.904 217.585C129.457 217.585 131.527 215.515 131.527 212.962C131.527 210.409 129.457 208.339 126.904 208.339C124.351 208.339 122.281 210.409 122.281 212.962C122.281 215.515 124.351 217.585 126.904 217.585Z" fill="#FFB861"/>
<path d="M113.198 194.098C113.198 191.546 111.129 189.477 108.575 189.477C106.021 189.477 103.953 191.546 103.953 194.098C103.953 196.651 106.022 198.72 108.575 198.72C111.128 198.72 113.198 196.651 113.198 194.098Z" fill="#628AEC"/>
<path d="M95.0664 172.532V234.257H198.969" stroke="#333842" stroke-width="0.75" stroke-miterlimit="10" stroke-linecap="round"/>
<path d="M157.313 400.752C176.769 397.626 190.008 379.32 186.883 359.864C183.757 340.407 165.451 327.168 145.995 330.294C126.538 333.419 113.299 351.726 116.425 371.182C119.55 390.639 137.857 403.877 157.313 400.752Z" fill="#BFC5D4"/>
<path d="M150.809 366.095L122.98 356.389C121.891 359.509 121.336 362.791 121.336 366.095C121.336 382.263 134.641 395.568 150.809 395.568C156.151 395.568 161.393 394.116 165.974 391.367L150.809 366.095Z" fill="#628AEC"/>
<path d="M152.336 365.545L167.695 390.699C172.005 388.067 175.568 384.371 178.04 379.966C180.511 375.561 181.809 370.594 181.809 365.544H152.336V365.545Z" fill="#E0E9FF"/>
<path d="M152.504 364.126L181.974 363.718C181.919 359.708 181.046 355.751 179.407 352.09C177.769 348.429 175.401 345.14 172.449 342.427L152.504 364.126Z" fill="#FEFEFF"/>
<path d="M192.959 307.082H110.352V311.655H192.959V307.082Z" fill="#333842"/>
<path d="M192.959 298.048H110.352V302.621H192.959V298.048Z" fill="#333842"/>
<path d="M192.959 289.015H110.352V293.588H192.959V289.015Z" fill="#333842"/>
<path d="M192.959 279.98H110.352V284.554H192.959V279.98Z" fill="#333842"/>
<path d="M192.959 315.466H110.352V320.039H192.959V315.466Z" fill="#333842"/>
<path d="M354.445 403.688H211.227V408.261H354.445V403.688Z" fill="#333842"/>
<path d="M354.445 394.654H211.227V399.228H354.445V394.654Z" fill="#333842"/>
<path d="M354.445 385.619H211.227V390.192H354.445V385.619Z" fill="#333842"/>
<path d="M203.958 91.6129C222.674 88.0305 234.942 69.9543 231.36 51.2384C227.778 32.5226 209.701 20.2545 190.986 23.8368C172.27 27.4192 160.002 45.4954 163.584 64.2113C167.166 82.9271 185.243 95.1952 203.958 91.6129Z" fill="#E0E9FF"/>
<path d="M196.647 58.2432L169.738 48.8574C168.686 51.8751 168.148 55.047 168.148 58.2432C168.148 73.8769 181.013 86.7408 196.647 86.7408C201.812 86.7408 206.882 85.3361 211.311 82.6787L196.647 58.2432Z" fill="#FF6EA1"/>
<path d="M198.125 57.7111L212.976 82.0331C217.144 79.4881 220.588 75.9141 222.978 71.6547C225.368 67.3954 226.623 62.594 226.623 57.71L198.125 57.7111Z" fill="#3FD4C7"/>
<path d="M198.293 56.34L226.788 55.9455C226.734 52.0685 225.891 48.2422 224.306 44.7023C222.723 41.1624 220.432 37.9827 217.578 35.3584L198.293 56.34Z" fill="#FEFEFF"/>
<path d="M393.846 98.5078H210.973V374.504H393.846V98.5078Z" fill="#E0E9FF"/>
<path d="M281.432 231.459H268.426V286.229H281.432V231.459Z" fill="#FFB861"/>
<path d="M337.319 204.657H324.312V286.23H337.319V204.657Z" fill="#FF6EA1"/>
<path d="M365.268 167.668H352.262V286.231H365.268V167.668Z" fill="#3FD4C7"/>
<path d="M238.5 227.08C266.497 219.761 317.655 192.783 340.819 166.957" stroke="#333842" stroke-width="0.75" stroke-miterlimit="10" stroke-linecap="round"/>
<path d="M342.689 164.799L341.206 168.891L340.626 167.077L338.766 166.681L342.689 164.799Z" fill="#333842"/>
<path d="M309.377 219.522H296.371V286.23H309.377V219.522Z" fill="#FEFEFF"/>
<path d="M253.487 237.797H240.48V286.229H253.487V237.797Z" fill="#628AEC"/>
<path d="M376.947 286.24H229.688V161.759" stroke="#333842" stroke-width="0.75" stroke-miterlimit="10" stroke-linecap="round"/>
<path d="M378.759 117.912H229.711V126.891H378.759V117.912Z" fill="#FEFEFF"/>
<path d="M347.246 132.421H261.223V141.4H347.246V132.421Z" fill="#FEFEFF"/>
<path d="M378.774 297.75H229.688V306.003H378.774V297.75Z" fill="#FEFEFF"/>
<path d="M378.774 312.881H229.688V321.134H378.774V312.881Z" fill="#FEFEFF"/>
<path d="M378.774 328.013H229.688V336.266H378.774V328.013Z" fill="#FEFEFF"/>
<path d="M295.889 344.363H229.688V352.616H295.889V344.363Z" fill="#FEFEFF"/>
<path d="M394.226 436.22C396.585 435.983 398.92 435.525 401.277 435.285C403.268 435.081 405.267 434.967 407.249 434.674C408.653 434.466 410.109 434.184 411.454 433.623C412.304 433.268 411.758 431.039 411.636 430.416C411.343 428.934 411.355 427.312 411.411 425.803C409.147 425.761 406.879 425.718 404.621 425.622C404.201 425.605 403.769 425.588 403.374 425.742C402.847 425.946 402.453 426.42 402.045 426.84C400.269 428.664 397.945 429.657 395.762 430.824C393.578 431.99 391.377 433.491 390.272 435.875C390.185 436.064 390.108 436.283 390.123 436.484C391.493 436.445 392.861 436.357 394.226 436.22Z" fill="#333842"/>
<path d="M434.944 307.615C434.921 307.587 434.896 307.558 434.873 307.529C432.124 304.248 427.68 302.83 423.77 303.987C413.49 307.028 413.474 322.821 412.409 332.083C411.281 341.879 410.109 351.669 408.893 361.453C406.583 380.044 405.019 407.172 402.391 425.711C403.963 426.588 405.494 426.678 407.282 426.902C410.389 427.29 411.424 427.007 412.44 426.224C415.467 409.367 422.371 384.422 425.819 367.663C427.632 358.854 428.964 354.596 430.892 345.816C432.332 339.259 432.873 332.494 434.625 326.011C435.423 323.062 437.419 320.294 437.754 317.35C438.145 313.898 437.055 310.187 434.944 307.615Z" fill="#4F5D7A"/>
<path d="M422.813 380.804L418.895 379.927" stroke="#333842" stroke-width="0.75" stroke-miterlimit="10" stroke-linecap="round" stroke-linejoin="round"/>
<path d="M422.777 380.793L418.062 382.979" stroke="#333842" stroke-width="0.75" stroke-miterlimit="10" stroke-linecap="round" stroke-linejoin="round"/>
<path d="M434.725 435.301C434.778 435.318 434.837 435.329 434.895 435.34C435.348 435.346 435.801 435.362 436.252 435.381C436.368 435.383 436.483 435.388 436.594 435.398C437.135 435.425 437.675 435.459 438.214 435.502C442.425 435.834 446.732 436.589 450.887 436.678C452.339 436.709 453.866 436.667 455.182 436.154C458.581 434.827 454.439 433.088 453.091 432.319C451.676 431.511 450.448 430.751 448.937 430.074C447.02 429.217 445.177 428.16 443.441 426.919C441.017 427.512 438.522 427.753 436.041 427.633C434.768 427.571 432.875 434.706 434.725 435.301Z" fill="#333842"/>
<path d="M447.299 326.202C446.702 322.057 443.597 307.756 438.886 306.977C435.797 306.467 431.832 307.597 429.687 310.204C428.023 312.227 427.117 314.899 426.719 317.596C426.05 322.127 426.368 326.945 426.543 331.511C426.822 338.751 428.286 352.428 428.286 352.428C428.286 352.428 435.43 412.532 434.903 427.367C437.636 431.162 445.788 427.622 445.823 427.19C446.778 415.51 446.759 389.092 446.986 380.051C447.231 370.319 448.692 335.873 447.299 326.202Z" fill="#616E87"/>
<path d="M427.831 348.757C427.322 341.419 426.814 334.082 426.305 326.743" stroke="#333842" stroke-width="0.75" stroke-miterlimit="10"/>
<path d="M447.169 325.407C446.341 320.487 443.327 307.712 438.881 306.977C437.545 306.757 436.044 306.844 434.598 307.225C431.834 304.166 427.554 302.868 423.769 303.987C416.637 306.096 414.447 314.341 413.418 322.286C417.215 324.947 421.782 326.359 426.367 327.012V327.016C426.459 327.029 426.551 327.036 426.643 327.049C427.134 327.115 427.624 327.173 428.114 327.224C428.283 327.242 428.451 327.258 428.62 327.274C429.198 327.326 429.774 327.372 430.347 327.404C430.439 327.409 430.528 327.411 430.619 327.416C431.126 327.441 431.63 327.459 432.13 327.47C432.294 327.473 432.457 327.477 432.62 327.479C433.172 327.485 433.721 327.487 434.262 327.479V327.477C434.285 327.477 434.309 327.477 434.333 327.477C438.713 327.401 443.007 326.673 447.169 325.407Z" fill="#3C4966"/>
<path d="M436.338 250.641C436.384 251.057 436.412 251.47 436.433 251.866C436.518 253.451 436.603 255.035 436.688 256.621C436.773 258.211 437.042 259.915 436.944 261.503C436.802 263.78 436.314 265.964 434.191 267.076C432.868 267.729 431.303 267.672 429.964 267.095C428.931 266.649 427.621 265.947 427.212 264.79C426.944 264.033 426.945 263.205 426.95 262.397C426.963 259.751 426.904 257.103 427.011 254.458C427.081 252.757 426.955 250.919 427.688 249.346C428.691 247.189 431.27 245.071 433.665 246.013C435.549 246.756 436.126 248.739 436.338 250.641Z" fill="#F7B699"/>
<path d="M433.515 256.983C435 255.39 435.974 253.39 436.385 251.263C436.37 251.055 436.36 250.852 436.337 250.641C436.125 248.739 435.548 246.756 433.664 246.014C431.27 245.072 428.692 247.189 427.687 249.347C426.954 250.919 427.08 252.757 427.011 254.459C426.952 255.89 426.943 257.324 426.946 258.756C429.137 259.541 431.976 258.635 433.515 256.983Z" fill="#C46E58"/>
<path d="M447.013 318.812L443.791 302.458L444.895 265.717C444.601 265.72 445.053 262.463 444.057 261.83C442.516 260.849 437.575 260.155 436.949 259.992C436.956 260.685 436.949 261.326 436.79 261.918C436.606 262.607 435.409 263.906 434.547 264.549C431.937 266.496 428.645 266.313 427.24 262.272C427.053 261.734 426.965 260.76 426.942 260.135C425.581 260.312 423.387 260.889 421.821 261.418C419.918 262.061 418.591 263.783 418.45 265.787L416.755 302.364L412.43 316.149C422.878 324.533 434.929 324.457 447.013 318.812Z" fill="white"/>
<path d="M429.215 305.188C435.728 301.832 441.265 296.603 444.987 290.292" stroke="#333842" stroke-width="0.2994" stroke-miterlimit="10" stroke-linecap="round"/>
<path d="M426.508 319.154C433.541 314.283 439.249 307.518 442.868 299.765" stroke="#333842" stroke-width="0.2994" stroke-miterlimit="10" stroke-linecap="round"/>
<path d="M429.199 267.46C431.062 268.45 433.439 268.4 435.258 267.331" stroke="#333842" stroke-width="0.2994" stroke-miterlimit="10" stroke-linecap="round"/>
<path d="M415.214 266.517C409.97 272.614 405.199 285.933 404.703 293.875C404.579 295.846 404.944 297.911 406.101 299.512C407.257 301.112 409.304 302.144 411.239 301.747C413.285 301.326 414.731 299.512 415.766 297.698C417.446 294.758 419.893 287.323 420.555 284.116C421.298 280.521 422.918 277.136 423.562 273.466C423.963 271.182 426.106 260.467 420.879 261.873C419.994 262.111 419.233 262.675 418.527 263.261C417.323 264.256 416.22 265.348 415.214 266.517Z" fill="#6C7995"/>
<path d="M415.823 326.066C416.52 326.419 417.233 326.731 417.951 327.024C420.268 309.447 426.593 260.292 426.59 260.157C425.226 260.327 423.367 260.855 421.782 261.366C419.848 261.989 418.443 263.671 418.22 265.649L416.689 286.822L414.586 306.636L409.625 321.6C411.436 323.378 413.508 324.889 415.823 326.066Z" fill="#6C7995"/>
<path d="M426.591 260.156L420.617 265.204L423.983 265.944L420.289 274.072L423.114 287.445L426.591 260.156Z" fill="#ABC0D4"/>
<path d="M420.534 268.336C420.534 268.336 417.244 277.192 417.183 281.39C417.149 283.813 414.902 304.755 414.902 304.755" stroke="#333842" stroke-width="0.2994" stroke-miterlimit="10"/>
<path d="M418.548 296.471C418.548 300.348 415.405 303.491 411.528 303.491C407.651 303.491 404.508 300.348 404.508 296.471C404.508 292.593 407.651 289.45 411.528 289.45C415.405 289.45 418.548 292.593 418.548 296.471Z" fill="#6C7995"/>
<path d="M409.398 290.289C411.57 289.639 414.061 290.189 415.757 291.693C417.452 293.197 418.296 295.604 417.909 297.838" stroke="#333842" stroke-width="0.2994" stroke-miterlimit="10"/>
<path d="M413.02 288.633C414.517 289.418 415.724 290.74 416.372 292.303" stroke="#333842" stroke-width="0.2994" stroke-miterlimit="10"/>
<path d="M442.82 328.083C446.485 327.261 447.209 326.729 450.716 325.258L447.255 306.993L445.135 265.579C444.835 265.582 445.158 262.379 444.13 261.764C442.674 260.892 438.701 260.273 437.586 260.057V329.011C439.358 328.781 441.109 328.467 442.82 328.083Z" fill="#6C7995"/>
<path d="M449.296 267.156C451.931 271.036 453.499 276.134 455.111 280.519C456.707 284.861 459.437 290.543 459.332 295.241C459.294 296.997 458.597 298.804 457.19 299.853C455.724 300.945 453.718 301.059 451.939 300.636C446.668 299.381 445.207 294.877 443.557 290.414C441.55 284.982 440.158 278.9 439.826 273.121C439.689 270.745 438.776 259.567 444.007 261.687C444.894 262.046 445.61 262.72 446.27 263.409C447.391 264.58 448.399 265.835 449.296 267.156Z" fill="#6C7995"/>
<path d="M444.042 291.917C443.194 288.993 442.347 286.069 441.5 283.145" stroke="#333842" stroke-width="0.2994" stroke-miterlimit="10"/>
<path d="M442.503 286.938C441.907 285.991 441.311 285.043 440.715 284.096" stroke="#333842" stroke-width="0.2994" stroke-miterlimit="10"/>
<path d="M437.582 260.048L442.883 265.799L439.451 266.114L442.107 274.638L437.643 287.557L437.582 260.048Z" fill="#ABC0D4"/>
<path d="M454.587 301.884L446.477 304.344C443.079 305.375 439.489 303.456 438.458 300.058C437.427 296.66 439.346 293.07 442.744 292.04L450.854 289.58C454.252 288.548 457.842 290.468 458.873 293.865C459.904 297.263 457.986 300.854 454.587 301.884Z" fill="#6C7995"/>
<path d="M438.879 293.597C441.858 292.515 444.838 291.433 447.817 290.351C450.374 289.423 453.138 288.792 455.756 289.947" stroke="#333842" stroke-width="0.2994" stroke-miterlimit="10" stroke-linecap="round"/>
<path d="M440.035 284.095H417.438V314.866H440.035V284.095Z" fill="#78C2F4"/>
<path d="M415.238 303.825C418.347 303.825 420.867 301.305 420.867 298.196C420.867 295.087 418.347 292.567 415.238 292.567C412.129 292.567 409.609 295.087 409.609 298.196C409.609 301.305 412.129 303.825 415.238 303.825Z" fill="#F7B699"/>
<path d="M435.925 300.052C435.776 303.158 438.172 305.796 441.278 305.946C444.384 306.094 447.021 303.698 447.171 300.592C447.32 297.486 444.924 294.849 441.818 294.699C438.712 294.55 436.074 296.948 435.925 300.052Z" fill="#F7B699"/>
<path d="M421.27 244.913C421.279 245.337 421.388 245.759 421.594 246.129C422.399 247.578 424.345 247.088 424.869 245.671C425.089 245.079 425.064 244.397 424.873 243.801C424.555 242.819 423.725 242.017 422.669 242.563C422.054 242.882 421.577 243.457 421.378 244.119C421.301 244.377 421.265 244.645 421.27 244.913Z" fill="#C46E58"/>
<path d="M426.539 235.743C428.005 234.959 431.204 233.926 434.228 234.358C437.538 234.694 439.064 236.32 439.409 238.34C440.002 241.81 439.865 245.98 438.333 249.078C438.076 249.597 437.543 250.919 437.235 251.409C434.777 255.319 430.223 255.666 427.938 255.114C425.207 254.455 423.725 252.176 423.262 248.987C423.179 248.414 423.158 246.545 423.15 245.967C423.095 242.411 424.995 236.567 426.539 235.743Z" fill="#F7B699"/>
<path d="M425.883 232.304C427.628 231.199 429.928 230.709 432.077 230.423C437.563 229.697 441.631 233.421 441.677 238.711C441.692 240.52 440.791 244.605 438.737 245.418C436.239 246.406 436.485 243.532 436.806 241.745C436.926 241.08 437.142 240.428 437.155 239.752C437.168 239.075 436.93 238.34 436.336 237.951C435.92 237.678 435.398 237.616 434.898 237.567C433.182 237.4 423.507 238.192 423.63 234.952C423.639 234.716 423.75 234.497 423.874 234.294C424.375 233.469 425.069 232.819 425.883 232.304Z" fill="#333842"/>
<path d="M427.078 238.089C429.457 238.598 432.219 238.393 434.321 237.115" stroke="#333842" stroke-width="0.75" stroke-miterlimit="10" stroke-linecap="round" stroke-linejoin="round"/>
<path d="M439.159 232.873C438.737 231.347 437.327 230.144 435.754 229.968" stroke="#333842" stroke-width="0.75" stroke-miterlimit="10" stroke-linecap="round" stroke-linejoin="round"/>
<path d="M440.577 232.864C440.204 232.608 439.641 232.685 439.352 233.034" stroke="#333842" stroke-width="0.75" stroke-miterlimit="10" stroke-linecap="round" stroke-linejoin="round"/>
<path d="M422.964 244.254C422.987 244.379 423.015 244.5 423.048 244.617C423.124 244.592 423.28 244.535 423.32 244.46C424.412 242.455 423.789 239.477 425.467 237.817C426.038 237.252 426.917 236.837 427 236.037C427.037 235.689 426.902 235.348 426.757 235.029C426.68 234.86 426.593 234.684 426.443 234.572C426.241 234.421 425.968 234.416 425.719 234.444C422.431 234.831 422.648 238.604 422.796 241.014C422.859 242.021 422.773 243.249 422.964 244.254Z" fill="#333842"/>
<path d="M437.534 247.243C438.208 248.214 439.489 248.547 440.367 247.63C440.768 247.212 440.954 246.632 441.053 246.062C441.141 245.554 441.17 245.023 441.022 244.528C440.822 243.854 440.268 243.4 439.616 243.179C437.415 242.435 436.536 245.803 437.534 247.243Z" fill="#F7B699"/>
<path d="M425.227 241.056C425.779 240.902 426.367 240.88 426.928 240.994" stroke="#333842" stroke-width="0.4761" stroke-miterlimit="10" stroke-linecap="round"/>
<path d="M427.645 249.916C428.511 250.418 429.588 250.541 430.544 250.245" stroke="#333842" stroke-width="0.4761" stroke-miterlimit="10" stroke-linecap="round"/>
<path d="M432.234 240.882C433.042 240.788 433.878 240.945 434.597 241.326" stroke="#333842" stroke-width="0.4761" stroke-miterlimit="10" stroke-linecap="round"/>
<path d="M433.005 244.072C433.005 244.471 432.681 244.794 432.281 244.794C431.881 244.794 431.559 244.47 431.559 244.072C431.559 243.672 431.883 243.348 432.281 243.348C432.681 243.348 433.005 243.672 433.005 244.072Z" fill="#333842"/>
<path d="M426.639 243.734C426.639 244.134 426.315 244.456 425.915 244.456C425.515 244.456 425.191 244.132 425.191 243.734C425.191 243.334 425.515 243.01 425.915 243.01C426.315 243.011 426.639 243.335 426.639 243.734Z" fill="#333842"/>
<path d="M428.428 248.001C427.762 247.895 426.813 247.417 427.172 246.618C427.267 246.407 427.425 246.231 427.565 246.045C427.999 245.471 428.282 244.785 428.38 244.072" stroke="#333842" stroke-width="0.4761" stroke-miterlimit="10" stroke-linecap="round"/>
<path d="M91.4689 297.009H68.8711V327.78H91.4689V297.009Z" fill="#FFB861"/>
<path d="M66.6718 316.739C69.7805 316.739 72.3006 314.219 72.3006 311.11C72.3006 308.002 69.7805 305.481 66.6718 305.481C63.5631 305.481 61.043 308.002 61.043 311.11C61.043 314.219 63.5631 316.739 66.6718 316.739Z" fill="#F7B699"/>
<path d="M87.362 312.967C87.2133 316.073 89.6096 318.711 92.7154 318.861C95.8212 319.009 98.4588 316.613 98.6086 313.507C98.7574 310.401 96.3611 307.764 93.2553 307.614C90.1494 307.465 87.5108 309.862 87.362 312.967Z" fill="#F7B699"/>
<path d="M46.5939 453.428C46.2314 451.633 45.7301 449.891 45.0437 448.3C43.9982 447.576 43.0055 446.751 42.1572 445.673C41.7649 445.175 41.3892 444.611 40.8725 444.377C40.4836 444.201 40.0528 444.231 39.6342 444.263C37.3811 444.434 35.1214 444.544 32.864 444.65C32.8662 446.476 32.821 448.439 32.4772 450.241C32.355 450.883 31.8911 452.93 32.2624 453.786L46.5939 453.428Z" fill="#333842"/>
<path d="M61.6507 325.871C61.6264 325.843 61.6022 325.815 61.578 325.788C58.7487 322.576 54.2701 321.27 50.3898 322.523C40.1876 325.819 40.5666 341.609 39.7315 350.893C38.8479 360.715 37.9203 370.532 36.9474 380.343C35.0998 398.985 34.2129 426.144 32.0469 444.743C33.64 445.58 35.1736 445.633 36.9673 445.812C40.083 446.122 41.1098 445.813 42.1058 445.006C44.7125 428.079 50.9935 402.969 54.0233 386.13C55.6164 377.278 56.8405 372.987 58.5504 364.163C59.8273 357.572 60.1997 350.795 61.7895 344.271C62.5133 341.303 64.4403 338.485 64.7014 335.535C65.0077 332.073 63.8255 328.39 61.6507 325.871Z" fill="#4F5D7A"/>
<path d="M51.345 399.34L47.4062 398.562" stroke="#333842" stroke-width="0.75" stroke-miterlimit="10" stroke-linecap="round" stroke-linejoin="round"/>
<path d="M51.3055 399.33L46.6484 401.632" stroke="#333842" stroke-width="0.75" stroke-miterlimit="10" stroke-linecap="round" stroke-linejoin="round"/>
<path d="M64.6065 453.522C64.6605 453.537 64.7189 453.546 64.7773 453.556C65.2301 453.552 65.6829 453.555 66.1357 453.564C66.2514 453.563 66.366 453.565 66.4772 453.572C67.0182 453.586 67.5592 453.605 68.1001 453.634C72.3176 453.862 76.6419 454.51 80.7977 454.495C82.2498 454.489 83.7757 454.41 85.0791 453.863C88.4438 452.452 84.2594 450.817 82.8932 450.081C81.4576 449.309 80.2116 448.58 78.6834 447.941C76.7466 447.131 74.8769 446.119 73.1108 444.923C70.7024 445.576 68.2136 445.879 65.7303 445.821C64.4578 445.793 62.7434 452.973 64.6065 453.522Z" fill="#333842"/>
<path d="M74.4603 344.146C73.7596 340.016 70.3001 325.797 65.5714 325.137C62.4711 324.704 58.5357 325.933 56.4567 328.592C54.8426 330.655 54.0042 333.348 53.6737 336.055C53.1184 340.602 53.5547 345.411 53.8445 349.97C54.3039 357.202 56.1074 370.838 56.1074 370.838C56.1074 370.838 64.7451 430.745 64.5886 445.589C67.4157 449.315 75.4772 445.574 75.5014 445.141C76.1647 433.439 75.4882 407.032 75.4904 397.987C75.4915 388.251 76.0941 353.78 74.4603 344.146Z" fill="#6C7995"/>
<path d="M55.5657 367.178C54.8749 359.854 54.1841 352.532 53.4922 345.209" stroke="#333842" stroke-width="0.75" stroke-miterlimit="10"/>
<path d="M46.1316 350.055C49.3707 350.939 52.7828 351.61 56.1211 351.96C62.6456 352.644 68.9564 351.603 75.0204 349.493C74.8716 347.32 74.6887 345.487 74.4618 344.146C73.7611 340.016 70.3016 325.797 65.5729 325.137C64.231 324.95 62.7337 325.075 61.2971 325.492C58.4579 322.501 54.1468 321.31 50.3898 322.525C41.3599 325.442 40.6185 338.144 39.9883 347.463C41.8359 348.682 43.9755 349.468 46.1316 350.055Z" fill="#3C4966"/>
<path d="M63.9977 268.138C64.044 268.555 64.0726 268.968 64.0935 269.364C64.1784 270.948 64.2632 272.533 64.348 274.119C64.4329 275.709 64.7017 277.413 64.6037 279.001C64.4626 281.278 63.9746 283.462 61.8515 284.574C60.5283 285.226 58.9627 285.17 57.6241 284.593C56.5907 284.147 55.2807 283.445 54.872 282.289C54.6042 281.531 54.6053 280.704 54.6097 279.896C54.623 277.25 54.5646 274.602 54.6714 271.957C54.7409 270.256 54.6153 268.418 55.3479 266.845C56.3516 264.688 58.9297 262.57 61.3249 263.512C63.2088 264.254 63.7862 266.237 63.9977 268.138Z" fill="#F7B699"/>
<path d="M69.7653 265.412L69.7851 265.383C69.7146 265.289 69.6507 265.209 69.5945 265.14C69.1924 264.469 68.8905 263.698 68.5468 263.003C68.5666 263.044 68.235 263.448 68.2008 263.528C68.0851 263.802 68.0576 264.141 68.0157 264.433C67.9243 265.068 67.8967 265.71 67.9342 266.35C67.9485 266.591 67.9772 266.847 68.1226 267.04C68.4619 267.49 69.6463 267.076 70.1101 267.01C70.2633 266.988 70.4451 266.944 70.4979 266.798C70.6566 266.358 70.0286 265.762 69.7653 265.412Z" fill="#F7B699"/>
<path d="M54.1163 256.227C55.3867 255.309 58.2986 253.956 61.3427 254.032C64.6479 253.984 66.479 255.376 67.237 257.279C68.3982 260.194 68.8698 263.352 68.8797 266.479C68.8841 268.047 68.7728 269.614 68.5602 271.168C68.363 272.608 67.7151 273.627 66.1705 273.89C64.7393 274.135 63.2884 274.245 61.8385 274.266C60.5461 274.285 58.9938 274.412 57.7543 274.034C55.6279 273.386 54.3984 271.286 53.6735 269.325C53.4729 268.784 53.0631 266.989 52.9342 266.434C52.1387 263.025 52.7788 257.192 54.1163 256.227Z" fill="#F7B699"/>
<path d="M66.0676 251.98C65.4683 250.513 63.9281 249.485 62.3438 249.495" stroke="#333842" stroke-width="0.75" stroke-miterlimit="10" stroke-linecap="round" stroke-linejoin="round"/>
<path d="M67.4738 251.802C67.0728 251.592 66.5241 251.735 66.2773 252.115" stroke="#333842" stroke-width="0.75" stroke-miterlimit="10" stroke-linecap="round" stroke-linejoin="round"/>
<path d="M61.5203 271.074C61.6536 271.043 61.766 270.99 61.8343 270.903C62.0414 270.635 61.9896 269.694 62.0348 269.347C62.1637 268.346 62.2926 267.343 62.4226 266.342C62.5041 265.712 62.4358 265.176 62.9547 264.781C63.423 264.424 64.0289 264.285 64.6084 264.283C66.6742 264.276 67.2041 264.518 66.9023 262.286C66.759 261.226 66.5045 260.141 66.7084 259.069C66.8384 258.384 67.0036 258.254 67.4069 257.79C68.0514 257.046 68.7565 256.797 68.9284 255.961C67.6647 251.635 63.5673 249.149 58.745 250.379C56.644 250.914 54.4184 251.673 52.8154 252.976C52.0673 253.584 51.4547 254.31 51.0548 255.187C50.9557 255.403 50.8708 255.633 50.8896 255.869C50.905 256.057 50.9535 256.226 51.0284 256.38C49.7592 258.324 50.5392 260.918 50.9215 263.018C51.1892 264.489 51.642 265.923 52.226 267.298C52.5179 267.986 52.844 268.66 53.1988 269.318C53.342 269.583 54.0405 271.185 54.251 271.195C56.3641 271.291 58.4828 271.268 60.5937 271.127C60.8427 271.11 61.2316 271.141 61.5203 271.074Z" fill="#333842"/>
<path d="M63.3057 266.366C64.089 267.252 65.4001 267.431 66.1647 266.418C66.5129 265.955 66.6297 265.358 66.6616 264.779C66.6902 264.264 66.655 263.734 66.4512 263.26C66.1724 262.614 65.5687 262.229 64.8966 262.087C62.6215 261.605 62.1445 265.054 63.3057 266.366Z" fill="#F7B699"/>
<path d="M64.2578 263.527C64.3041 263.228 64.7029 263.094 64.9817 263.215C65.2593 263.337 65.4279 263.621 65.5491 263.899C65.7507 264.361 65.873 264.859 65.9071 265.364C65.6504 265.274 65.3353 265.427 65.2483 265.683C65.1601 265.94 65.3155 266.254 65.5733 266.34" stroke="#333842" stroke-width="0.4761" stroke-miterlimit="10" stroke-linecap="round"/>
<path d="M67.3711 260.501C67.901 260.283 68.4828 260.192 69.0535 260.24" stroke="#333842" stroke-width="0.4761" stroke-miterlimit="10" stroke-linecap="round"/>
<path d="M69.0864 262.993C69.1337 263.39 68.8495 263.75 68.4529 263.796C68.0562 263.843 67.6971 263.559 67.6497 263.163C67.6023 262.766 67.8866 262.406 68.2832 262.359C68.6798 262.313 69.039 262.597 69.0864 262.993Z" fill="#333842"/>
<path d="M67.4102 269.167C67.6713 269.162 68.253 269.094 68.5009 269.061" stroke="#333842" stroke-width="0.4761" stroke-miterlimit="10" stroke-linecap="round"/>
<path d="M47.5034 321.089H40.5647C36.6281 321.089 33.4375 317.899 33.4375 313.962C33.4375 310.026 36.6281 306.835 40.5647 306.835H47.5034C51.44 306.835 54.6306 310.026 54.6306 313.962C54.6306 317.898 51.4389 321.089 47.5034 321.089Z" fill="#3D434F"/>
<path d="M43.6166 284.014C38.3723 290.111 33.6017 303.43 33.1048 311.372C32.9815 313.343 33.3461 315.408 34.503 317.009C35.6598 318.609 37.7068 319.641 39.6415 319.244C41.6874 318.823 43.1329 317.009 44.1696 315.195C45.8498 312.255 48.2968 304.82 48.9589 301.613C49.7015 298.018 51.3211 294.633 51.9656 290.963C52.3666 288.68 54.5095 277.964 49.2828 279.37C48.397 279.608 47.6379 280.172 46.9306 280.758C45.7242 281.753 44.6214 282.845 43.6166 284.014Z" fill="#4F5D7A"/>
<path d="M52.3594 278.545L54.3051 275.465L64.7639 275.141L67.277 278.707L52.3594 278.545Z" fill="white"/>
<path d="M74.914 324.49L72.7943 283.076C72.4946 283.079 72.8174 279.876 71.7895 279.261C70.333 278.389 66.3601 277.77 65.2452 277.554L54.2498 277.653C52.8858 277.823 51.0272 278.35 49.4418 278.861C47.5082 279.485 46.1035 281.166 45.8798 283.145L44.3495 304.317L42.2463 324.132L37.2852 339.096C39.0964 340.873 41.1677 342.383 43.4836 343.56C44.1799 343.914 44.8927 344.226 45.611 344.519C45.611 344.519 55.7735 348.607 65.2452 346.507C67.0168 346.276 68.7696 345.962 70.4795 345.579C74.1439 344.757 74.8678 344.223 78.3757 342.754L74.914 324.49Z" fill="#6C7995"/>
<path d="M87.9577 321.089H81.0178C77.0824 321.089 73.8906 317.899 73.8906 313.962C73.8906 310.026 77.0813 306.835 81.0178 306.835H87.9577C91.8931 306.835 95.0848 310.026 95.0848 313.962C95.0848 317.898 91.8931 321.089 87.9577 321.089Z" fill="#6C7995"/>
<path d="M76.9537 284.653C79.589 288.533 81.1579 293.631 82.7686 298.016C84.364 302.358 87.0941 308.04 86.9894 312.739C86.9509 314.494 86.2546 316.302 84.8465 317.35C83.3801 318.442 81.3738 318.556 79.5956 318.133C74.3238 316.878 72.8629 312.374 71.2136 307.911C69.2062 302.479 67.8147 296.398 67.482 290.618C67.3454 288.242 66.432 277.064 71.6631 279.184C72.55 279.543 73.2661 280.217 73.9261 280.906C75.0487 282.077 76.0568 283.332 76.9537 284.653Z" fill="#6C7995"/>
<path d="M74.5537 314.852C70.5004 306.57 70.0035 303.567 69.1562 300.643" stroke="#333842" stroke-width="0.2994" stroke-miterlimit="10"/>
<path d="M70.1631 304.435C69.5671 303.488 68.971 302.54 68.375 301.592" stroke="#333842" stroke-width="0.2994" stroke-miterlimit="10"/>
<path d="M355.068 343.283C345.45 345.183 345.188 356.236 346.024 364.147C347.789 380.856 352.645 420.416 352.645 420.416L361.892 468.946L368.356 469.306L364.924 420.2C364.924 420.2 366.564 384.424 368.207 371.961C370.873 354.508 367.849 340.756 355.068 343.283Z" fill="#4F5D7A"/>
<path d="M368.757 467.671C366.185 467.961 364.349 467.945 361.782 467.609C361.779 467.609 361.776 467.608 361.772 467.608C361.216 467.535 360.667 467.796 360.362 468.267C360.176 468.553 359.997 468.821 359.819 469.046C358.864 470.248 357.601 470.931 356.126 471.27C356.074 471.29 356.029 471.318 355.975 471.335C354.221 471.554 352.621 472.452 352.422 474.129H368.587C369.152 471.946 369.421 469.653 368.757 467.671Z" fill="#628AEC"/>
<path d="M368.884 473.876H352.418V476H368.884V473.876Z" fill="#333842"/>
<path d="M356.763 343.568C346.975 343.006 343.959 353.643 342.793 361.512C340.328 378.133 336.297 417.816 336.297 417.816L339.862 469.004L346.606 468.738L350.373 418.087C350.373 418.087 357.616 386.277 362.322 374.62C369.262 358.386 369.769 344.315 356.763 343.568Z" fill="#616E87"/>
<path d="M347.173 467.67C344.601 467.961 342.765 467.945 340.198 467.609C339.861 467.565 339.515 467.515 339.184 467.592C338.884 467.661 338.618 467.83 338.355 467.99C335.884 469.496 332.363 470.546 329.516 471.071C327.877 471.373 326.114 471.543 324.814 472.584C324.346 472.959 323.962 473.578 324.017 474.129H347.003C347.568 471.946 347.837 469.652 347.173 467.67Z" fill="#628AEC"/>
<path d="M346.957 473.875H323.48V475.999H346.957V473.875Z" fill="#333842"/>
<path d="M357.985 290.136C358.04 289.028 357.966 287.924 357.751 286.85C359.389 287.402 361.098 287.445 362.771 286.994C363.593 286.773 364.382 286.444 365.152 286.084C365.426 285.955 365.92 285.553 366.376 285.301C365.375 288.993 365.455 292.843 367.739 296.015C366.012 297.51 363.764 298.278 361.517 298.662C359.587 298.991 354.971 299.296 356.08 296.048C356.444 294.985 357.222 294.169 357.531 293.067C357.795 292.116 357.936 291.119 357.985 290.136Z" fill="#F7B699"/>
<path d="M362.454 287.068C360.883 287.431 359.285 287.367 357.749 286.85C357.964 287.924 358.038 289.028 357.983 290.136C357.934 291.12 357.793 292.116 357.528 293.066C357.5 293.165 357.465 293.26 357.43 293.354C357.62 293.331 357.811 293.298 358 293.262C360.185 291.791 361.682 289.553 362.454 287.068Z" fill="#C46E58"/>
<path d="M353.32 283.201C353.453 283.23 353.585 283.25 353.713 283.256C354.118 283.272 354.071 282.764 354.048 282.471C353.988 281.696 353.987 280.885 353.858 280.119C353.578 280.411 353.463 280.765 353.232 281.088C352.93 281.51 352.624 281.928 352.32 282.348C352.278 282.406 352.235 282.467 352.225 282.537C352.202 282.705 352.368 282.833 352.519 282.908C352.759 283.028 353.04 283.137 353.32 283.201Z" fill="#F7B699"/>
<path d="M367.858 282.892C368.543 281.288 368.901 279.549 368.851 277.81C368.794 275.927 368.179 274.038 366.974 272.589C365.219 270.475 362.228 269.473 359.553 270.103C358.867 270.265 358.207 270.534 357.597 270.888C356.11 271.753 354.381 273.494 354.137 275.289C354.082 275.693 354.164 276.078 354.087 276.486C353.973 277.091 353.845 277.692 353.751 278.3C353.565 279.513 353.458 280.744 353.515 281.971C353.583 283.407 353.759 284.861 354.323 286.183C354.888 287.508 355.784 288.401 356.876 288.969C358.923 290.033 361.396 289.7 363.317 288.42C365.318 287.088 366.905 285.122 367.858 282.892Z" fill="#F7B699"/>
<path d="M354.098 284.76C354.379 284.884 354.661 285.01 354.942 285.134" stroke="#333842" stroke-width="0.4827" stroke-miterlimit="10" stroke-linecap="round"/>
<path d="M329.3 309.044C329.434 308.325 329.975 307.697 330.665 307.456C331.377 307.208 332.584 307.206 332.822 306.489C332.941 306.13 333.059 305.996 332.771 305.752C332.484 305.507 332.097 305.407 331.72 305.384C330.562 305.312 329.389 305.964 328.838 306.984C328.668 307.298 328.424 307.709 328.081 307.609C327.919 307.562 327.813 307.406 327.747 307.251C327.344 306.307 327.901 305.25 328.441 304.377C328.865 303.689 329.319 302.974 330.022 302.575C330.81 302.128 331.772 302.158 332.676 302.219C334.502 302.345 336.415 302.484 337.957 303.57C338.361 303.854 338.73 304.186 339.134 304.473C340.168 305.206 341.391 305.618 342.595 306.019C342.22 307.324 341.844 308.627 341.468 309.932C341.448 309.999 341.425 310.073 341.365 310.109C341.302 310.148 341.22 310.131 341.149 310.113C338.933 309.572 336.376 309.12 334.155 308.772C332.562 308.569 330.874 308.772 329.3 309.044Z" fill="#F7B699"/>
<path d="M356.166 309.49C355.008 308.939 353.768 308.455 352.49 308.018C350.296 307.265 347.986 306.649 345.781 306.067C344.945 305.846 341.745 305.043 340.886 304.905C338.486 306.859 337.809 308.165 337.809 311.053C340.339 312.745 346.486 316.209 349.277 317.54C350.839 318.285 352.39 319.066 354.106 319.579C355.821 320.093 357.745 320.324 359.514 319.934C360.439 319.73 361.351 319.319 361.756 318.653C362.008 318.237 362.041 317.765 362.026 317.308C361.921 314.181 359.645 311.143 356.166 309.49Z" fill="#628AEC"/>
<path d="M314.468 322.69C313.517 321.002 313.297 318.892 313.995 317.086C314.254 316.417 314.689 315.748 315.372 315.531C316.193 315.269 317.091 315.767 317.61 316.454C318.129 317.141 318.373 317.99 318.705 318.784C319.063 319.643 319.533 320.455 320.098 321.195C320.684 321.963 321.399 322.704 321.569 323.655C321.703 324.409 321.444 325.224 320.898 325.762C318.867 327.762 315.452 324.436 314.468 322.69Z" fill="#F7B699"/>
<path d="M337.344 321.461L325.071 327.41L308.836 312.673L321.109 306.724L337.344 321.461Z" fill="#F4AE2D"/>
<path d="M335.341 320.846L324.801 325.955L310.773 313.222L321.314 308.112L335.341 320.846Z" fill="white"/>
<path d="M322.915 310.807L314.155 315.052L313.301 314.276L322.06 310.03L322.915 310.807Z" fill="#C8DDF7"/>
<path d="M327.391 314.867L318.632 319.114L317.777 318.338L326.537 314.092L327.391 314.867Z" fill="#C8DDF7"/>
<path d="M328.872 316.214L320.112 320.459L319.258 319.683L328.017 315.438L328.872 316.214Z" fill="#C8DDF7"/>
<path d="M330.357 317.56L321.597 321.806L320.742 321.03L329.502 316.784L330.357 317.56Z" fill="#C8DDF7"/>
<path d="M331.836 318.906L323.078 323.151L322.223 322.375L330.983 318.13L331.836 318.906Z" fill="#C8DDF7"/>
<path d="M333.321 320.25L324.561 324.496L323.707 323.721L332.466 319.475L333.321 320.25Z" fill="#C8DDF7"/>
<path d="M320.789 309.311L313.425 312.88L310.293 310.036L317.656 306.467L320.789 309.311Z" fill="#333842"/>
<path d="M315.74 321.343C315.617 321.486 315.505 321.638 315.405 321.798C314.478 323.288 316.274 324.673 317.416 325.477C320.012 327.304 323.182 328.178 326.192 329.055C327.89 329.549 332.811 328.338 331.452 325.668C330.525 323.846 327.78 322.796 325.975 322.31C324.1 321.958 322.5 321.178 321.797 319.279C321.485 318.435 321.358 317.534 321.084 316.677C321.017 316.466 320.934 316.249 320.771 316.1C320.607 315.952 320.338 315.897 320.164 316.033C320.066 316.11 320.015 316.233 319.972 316.351C319.447 317.816 320.39 318.901 318.585 319.76C317.986 320.046 317.328 320.203 316.747 320.525C316.366 320.734 316.024 321.014 315.74 321.343Z" fill="#F7B699"/>
<path d="M370.085 357.38C370.085 357.38 370.503 357.211 370.821 357.057C372.574 356.155 373.165 353.874 373.34 351.862C373.738 347.243 372.271 342.896 372.449 338.013C372.638 332.846 373.844 327.533 374.572 321.973C375.207 317.124 375.454 311.882 374.365 306.885C373.552 303.154 372.436 299.007 370.158 296.093C369.056 294.684 367.058 294.124 365.519 293.752C363.597 293.285 361.586 293.33 359.665 293.909C357.176 294.659 354.878 296.292 353.094 298.53C351.738 300.232 351.064 303.121 350.371 305.286C348.809 310.167 347.728 315.209 347.152 320.079C346.548 325.188 347.283 323.551 347.022 328.574C346.761 333.603 348.21 337.601 345.627 341.787C344.269 343.991 342.539 345.909 341.678 348.303C340.833 350.652 341.105 353.729 343.093 355.252C342.98 356.145 342.843 357.033 342.762 357.918C346.76 359.863 352.054 360.284 356.328 360.67C360.233 361.024 364.166 361.038 368.088 360.723C369.223 360.723 370.099 360.486 370.099 360.486L370.085 357.38Z" fill="#628AEC"/>
<path d="M369.857 357.449C364.229 358.091 358.537 357.837 352.992 356.695" stroke="#333842" stroke-width="0.2918" stroke-miterlimit="10" stroke-linecap="round"/>
<path d="M358.293 310.131C358.017 309.596 357.678 309.069 357.176 308.736C356.64 308.382 355.971 308.284 355.329 308.312C352.522 308.438 350.3 310.73 348.8 313.106C347.301 315.482 346.145 318.167 344.007 319.992C340.275 323.176 327.708 322.267 323.534 321.338C321.357 321.532 318.868 324.41 320.152 327.404C325.748 329.862 342.621 338.835 348.731 335.926C350.861 334.913 352.446 333.15 353.754 331.153C354.51 329.998 355.173 328.765 355.794 327.552C357.187 324.836 358.523 322.051 359.162 319.066C359.801 316.082 359.692 312.845 358.293 310.131Z" fill="#628AEC"/>
<path d="M360.776 300.026C358.912 298.043 355.715 297.829 353.465 299.242C352.149 300.067 351.481 301.772 350.801 303.124C349.969 304.78 349.259 306.498 348.68 308.258C348.082 310.08 347.622 311.944 347.062 313.777C346.142 316.781 344.943 319.704 344.254 322.769C343.566 325.834 343.414 329.125 344.567 332.048C346.214 336.222 351.707 334.005 354.155 331.682C356.262 329.683 357.273 326.819 358.211 324.069C359.154 321.307 360.097 318.545 361.041 315.783C361.836 313.452 362.748 310.367 362.914 307.381C363.066 304.622 362.58 301.945 360.776 300.026Z" fill="#628AEC"/>
<path d="M345.797 318.672C346.826 312.5 349.773 305.262 352.699 299.731" stroke="#333842" stroke-width="0.2918" stroke-miterlimit="10"/>
<path d="M362.674 312.124C361.469 315.368 360.264 318.61 359.058 321.854C358.192 324.184 357.37 327.161 355.729 329.082C354.094 330.996 352.57 333.088 350.566 334.661C348.616 336.192 346.959 336.65 344.492 336.409" stroke="#333842" stroke-width="0.2918" stroke-miterlimit="10" stroke-linecap="round"/>
<path d="M363.984 312.986C362.9 313.606 361.992 314.53 361.395 315.626" stroke="#333842" stroke-width="0.2918" stroke-miterlimit="10"/>
<path d="M326.201 311.567L324.754 312.353L325.488 310.88L334.212 301.845C334.402 301.648 334.716 301.642 334.913 301.832C335.11 302.023 335.115 302.336 334.925 302.533L326.201 311.567Z" fill="#333842"/>
<path d="M354.448 281.031C353.973 280.647 353.528 280.234 353.146 279.755C350.726 276.715 352.294 273.351 354.232 270.647C356.391 267.633 360.505 265.983 364.132 266.186C366.202 266.301 368.169 266.97 369.637 268.466C370.317 269.159 370.82 269.896 371.033 270.86C371.097 271.148 371.302 273.409 370.835 273.455C374.41 273.101 374.229 280.878 374.196 283.008C374.109 288.446 374.023 293.886 373.936 299.324C373.905 301.283 373.821 303.398 372.607 304.936C371.408 306.454 369.269 307.053 367.372 306.672C365.475 306.292 363.829 305.047 362.661 303.506C361.668 302.196 360.47 300.239 360.439 298.547C360.404 296.649 360.661 294.689 360.656 292.771C360.646 289.448 359.996 285.887 357.645 283.538C356.686 282.583 355.495 281.878 354.448 281.031Z" fill="#333842"/>
</svg>
