<svg width="538" height="385" viewBox="0 0 538 385" fill="none" xmlns="http://www.w3.org/2000/svg">
<path d="M463.87 376.751C463.87 376.751 610.734 -25.9336 341.223 1.32388C225.791 12.9986 247.34 83.8252 196.358 150.095C163.312 193.05 99.7556 157.91 75.9379 195.445C52.1206 232.981 80.1098 340.009 89.9279 376.751H463.87Z" fill="#D9E2FF"/>
<path d="M93.5606 376.533C93.5606 376.533 82.0831 330.75 53.4729 316.62C24.8626 302.491 -5.67334 321.835 2.08056 342.176C8.76669 359.716 36.2596 338.149 57.6507 346.63C79.0419 355.111 82.4139 376.533 82.4139 376.533H93.5606Z" fill="#40A87B"/>
<path d="M7.61133 329.978C7.61133 329.978 38.3175 312.479 61.0996 328.657C83.8816 344.836 91.0915 376.533 91.0915 376.533" stroke="#6ADB6A" stroke-width="4.8839" stroke-miterlimit="10"/>
<path d="M12.5625 321.794L19.7064 324.908" stroke="#6ADB6A" stroke-width="4.8839" stroke-miterlimit="10"/>
<path d="M22.8828 315.12L37.1125 321.794" stroke="#6ADB6A" stroke-width="4.8839" stroke-miterlimit="10"/>
<path d="M44.2598 315.12L51.6628 323.865" stroke="#6ADB6A" stroke-width="4.8839" stroke-miterlimit="10"/>
<path d="M58.291 320.98L61.6189 329.034" stroke="#6ADB6A" stroke-width="4.8839" stroke-miterlimit="10"/>
<path d="M16.1367 341.121L27.1037 322.977" stroke="#6ADB6A" stroke-width="4.8839" stroke-miterlimit="10"/>
<path d="M35.5117 338.52L45.5703 322.366" stroke="#6ADB6A" stroke-width="4.8839" stroke-miterlimit="10"/>
<path d="M52.5977 336.045L67.7195 334.166" stroke="#6ADB6A" stroke-width="4.8839" stroke-miterlimit="10"/>
<path d="M70.2012 345.208L78.8689 348.054" stroke="#6ADB6A" stroke-width="4.8839" stroke-miterlimit="10"/>
<path d="M112.032 376.666C112.032 376.666 120.131 223.203 46.832 242.979C-26.4668 262.755 104.009 345.464 103.898 376.666H112.032Z" fill="#6ADB6A"/>
<path d="M109.069 376.666C109.069 376.666 106.509 296.487 54.2598 256.841" stroke="#40A87B" stroke-width="4.8839" stroke-miterlimit="10"/>
<path d="M77.1787 280.09L75.873 252.441" stroke="#40A87B" stroke-width="4.8839" stroke-miterlimit="10"/>
<path d="M36.1855 268.633L71.5018 273.236" stroke="#40A87B" stroke-width="4.8839" stroke-miterlimit="10"/>
<path d="M49.918 292.23L87.2588 296.581" stroke="#40A87B" stroke-width="4.8839" stroke-miterlimit="10"/>
<path d="M68.5879 315.614L97.4291 319.69" stroke="#40A87B" stroke-width="4.8839" stroke-miterlimit="10"/>
<path d="M100.196 293.765L93.5859 309.826" stroke="#40A87B" stroke-width="4.8839" stroke-miterlimit="10"/>
<path d="M89.335 267.698L83.6992 290.31" stroke="#40A87B" stroke-width="4.8839" stroke-miterlimit="10"/>
<path d="M106.368 320.577L101.102 331.075" stroke="#40A87B" stroke-width="4.8839" stroke-miterlimit="10"/>
<path d="M83.6992 337.292L104.366 343.808" stroke="#40A87B" stroke-width="4.8839" stroke-miterlimit="10"/>
<path d="M467.504 376.565C467.504 376.565 476.232 341.748 497.99 331.003C519.747 320.257 542.969 334.968 537.072 350.437C531.988 363.776 511.08 347.375 494.813 353.824C478.545 360.274 475.981 376.565 475.981 376.565H467.504Z" fill="#40A87B"/>
<path d="M532.868 341.16C532.868 341.16 509.516 327.852 492.191 340.156C474.866 352.459 469.383 376.564 469.383 376.564" stroke="#6ADB6A" stroke-width="3.7141" stroke-miterlimit="10"/>
<path d="M529.101 334.937L523.668 337.305" stroke="#6ADB6A" stroke-width="3.7141" stroke-miterlimit="10"/>
<path d="M521.251 329.861L510.43 334.936" stroke="#6ADB6A" stroke-width="3.7141" stroke-miterlimit="10"/>
<path d="M504.997 329.861L499.367 336.512" stroke="#6ADB6A" stroke-width="3.7141" stroke-miterlimit="10"/>
<path d="M494.324 334.317L491.793 340.442" stroke="#6ADB6A" stroke-width="3.7141" stroke-miterlimit="10"/>
<path d="M526.383 349.635L518.043 335.837" stroke="#6ADB6A" stroke-width="3.7141" stroke-miterlimit="10"/>
<path d="M511.649 347.657L504 335.372" stroke="#6ADB6A" stroke-width="3.7141" stroke-miterlimit="10"/>
<path d="M498.656 345.774L487.156 344.345" stroke="#6ADB6A" stroke-width="3.7141" stroke-miterlimit="10"/>
<path d="M485.267 352.742L478.676 354.906" stroke="#6ADB6A" stroke-width="3.7141" stroke-miterlimit="10"/>
<path d="M455.272 376.666C455.272 376.666 449.113 259.961 504.855 275C560.597 290.039 461.374 352.938 461.458 376.666H455.272Z" fill="#6ADB6A"/>
<path d="M457.523 376.666C457.523 376.666 459.47 315.692 499.204 285.542" stroke="#40A87B" stroke-width="3.7141" stroke-miterlimit="10"/>
<path d="M481.777 303.222L482.77 282.196" stroke="#40A87B" stroke-width="3.7141" stroke-miterlimit="10"/>
<path d="M512.955 294.51L486.098 298.011" stroke="#40A87B" stroke-width="3.7141" stroke-miterlimit="10"/>
<path d="M502.51 312.454L474.113 315.762" stroke="#40A87B" stroke-width="3.7141" stroke-miterlimit="10"/>
<path d="M488.312 330.238L466.379 333.338" stroke="#40A87B" stroke-width="3.7141" stroke-miterlimit="10"/>
<path d="M464.273 313.621L469.3 325.835" stroke="#40A87B" stroke-width="3.7141" stroke-miterlimit="10"/>
<path d="M472.535 293.798L476.821 310.994" stroke="#40A87B" stroke-width="3.7141" stroke-miterlimit="10"/>
<path d="M459.578 334.012L463.583 341.995" stroke="#40A87B" stroke-width="3.7141" stroke-miterlimit="10"/>
<path d="M476.818 346.724L461.102 351.679" stroke="#40A87B" stroke-width="3.7141" stroke-miterlimit="10"/>
<path d="M45.4403 200.61C44.6043 204.603 46.647 208.58 50.2224 210.622L45.7473 231.998L48.3451 235.623L54.9312 231.499L52.9796 229.454L55.4055 228.38L53.6612 226.199L56.3104 224.649L54.5632 221.889L56.6406 211.966C60.7351 211.53 64.1984 208.72 65.037 204.713C66.0908 199.679 62.571 194.678 57.1543 193.544C51.7379 192.409 46.4941 195.576 45.4403 200.61ZM58.5233 199.621C58.2308 201.018 56.86 201.915 55.4633 201.622C54.0664 201.33 53.157 199.956 53.4495 198.559C53.7446 197.149 55.1286 196.256 56.5256 196.548C57.9222 196.841 58.8184 198.211 58.5233 199.621Z" fill="#E5F0F8"/>
<path d="M66.9573 98.4783C70.896 102.932 77.4077 103.7 82.2803 100.625L96.9007 117.155L99.7653 114.622L85.1468 98.0932C88.8086 93.6352 88.8318 87.0811 84.8865 82.6205C80.5107 77.6729 72.9423 77.1885 67.9947 81.5643C63.0471 85.9402 62.5815 93.5307 66.9573 98.4783ZM82.9381 84.3437C86.346 88.1966 85.9817 94.1373 82.1288 97.5452C78.254 100.972 72.3352 100.589 68.9273 96.7356C65.5005 92.861 65.8621 86.9615 69.7369 83.5344C73.5901 80.1267 79.5113 80.4691 82.9381 84.3437Z" fill="#E5F0F8"/>
<path d="M482.08 385.001H64.8127C62.1299 385.001 59.9551 382.826 59.9551 380.143V378.97C59.9551 376.287 62.1299 374.112 64.8127 374.112H482.08C484.763 374.112 486.938 376.287 486.938 378.97V380.143C486.938 382.826 484.763 385.001 482.08 385.001Z" fill="url(#paint0_linear_2034_14456)"/>
<path d="M465.754 79.6905L443.344 66.7491L465.754 53.8115L466.264 54.6956L445.383 66.7491L466.264 78.8065L465.754 79.6905Z" fill="white"/>
<path d="M444.361 69.7047C445.992 69.7047 447.315 68.3819 447.315 66.7503C447.315 65.1186 445.992 63.7959 444.361 63.7959C442.729 63.7959 441.406 65.1186 441.406 66.7503C441.406 68.3819 442.729 69.7047 444.361 69.7047Z" fill="white"/>
<path d="M466.878 56.9788C468.385 56.3544 469.101 54.6262 468.476 53.1187C467.852 51.6112 466.124 50.8953 464.616 51.5197C463.109 52.1442 462.393 53.8725 463.017 55.3799C463.642 56.8874 465.37 57.6033 466.878 56.9788Z" fill="white"/>
<path d="M468.661 79.7198C468.923 78.1092 467.829 76.5916 466.218 76.3302C464.608 76.0688 463.09 77.1626 462.829 78.7732C462.567 80.3838 463.661 81.9014 465.272 82.1627C466.882 82.4241 468.4 81.3304 468.661 79.7198Z" fill="white"/>
<path d="M454.311 129.534V360.097C454.311 368.476 447.519 375.268 439.141 375.268H109.957C101.579 375.268 94.7871 368.476 94.7871 360.097V129.534C94.7871 121.156 101.579 114.364 109.957 114.364H439.141C447.519 114.364 454.311 121.156 454.311 129.534Z" fill="#9593BF"/>
<path d="M422.512 129.481V360.16C422.512 360.346 422.481 360.531 422.419 360.702C422.203 361.507 421.46 362.096 420.577 362.096H109.904C108.82 362.096 107.953 361.228 107.953 360.16V129.481C107.953 128.397 108.82 127.53 109.904 127.53H420.577C421.645 127.53 422.512 128.397 422.512 129.481Z" fill="#E5F0F8"/>
<path d="M411.452 138.589H119.014V351.038H411.452V138.589Z" fill="white"/>
<path d="M438.457 270.496C434.774 270.496 431.762 267.483 431.762 263.801V225.83C431.762 222.147 434.774 219.135 438.457 219.135C442.139 219.135 445.151 222.147 445.151 225.83V263.801C445.151 267.483 442.139 270.496 438.457 270.496Z" fill="#D9E2FF"/>
<path d="M411.452 138.589H119.014V158.611H411.452V138.589Z" fill="#D9E2FF"/>
<path d="M392.965 154.359L404.483 142.841" stroke="white" stroke-width="6.9973" stroke-miterlimit="10" stroke-linecap="round" stroke-linejoin="round"/>
<path d="M404.483 154.359L392.965 142.841" stroke="white" stroke-width="6.9973" stroke-miterlimit="10" stroke-linecap="round" stroke-linejoin="round"/>
<path d="M188.334 158.61H119.014V351.038H188.334V158.61Z" fill="#E5F0F8"/>
<path d="M181.418 169.402H125.928V173.873H181.418V169.402Z" fill="white"/>
<path d="M181.418 181.217H125.928V185.688H181.418V181.217Z" fill="white"/>
<path d="M181.418 193.031H125.928V197.502H181.418V193.031Z" fill="white"/>
<path d="M181.418 204.846H125.928V209.317H181.418V204.846Z" fill="white"/>
<path d="M181.418 216.66H125.928V221.131H181.418V216.66Z" fill="white"/>
<path d="M181.418 228.476H125.928V232.946H181.418V228.476Z" fill="white"/>
<path d="M181.418 240.289H125.928V244.76H181.418V240.289Z" fill="white"/>
<path d="M285.012 346.462V277.968H195.96V346.462H285.012Z" fill="#E5F0F8"/>
<path d="M260.277 311.191L226.791 291.858V330.524L260.277 311.191Z" fill="white"/>
<path d="M285.011 342.733H195.959V346.461H285.011V342.733Z" fill="#E5F0F8"/>
<path d="M239.672 342.733H195.959V346.461H239.672V342.733Z" fill="#BBDBF3"/>
<path d="M242.849 346.462H237.325C236.3 346.462 235.461 345.623 235.461 344.598C235.461 343.572 236.3 342.733 237.325 342.733H242.849C243.875 342.733 244.713 343.572 244.713 344.598C244.713 345.623 243.875 346.462 242.849 346.462Z" fill="white"/>
<path d="M181.418 252.104H125.928V256.574H181.418V252.104Z" fill="white"/>
<path d="M181.418 263.918H125.928V268.389H181.418V263.918Z" fill="white"/>
<path d="M181.418 275.732H125.928V280.203H181.418V275.732Z" fill="white"/>
<path d="M404.286 183.452H196.043V273.11H404.286V183.452Z" fill="#E5F0F8"/>
<path d="M260.512 190.961H202.055V265.601H260.512V190.961Z" fill="white"/>
<path d="M231.279 238.212C237.998 238.212 243.445 231.234 243.445 222.626C243.445 214.019 237.998 207.041 231.279 207.041C224.56 207.041 219.113 214.019 219.113 222.626C219.113 231.234 224.56 238.212 231.279 238.212Z" fill="#E5F0F8"/>
<path d="M257.413 265.601H205.139C205.508 248.109 217.076 234.071 231.276 234.071C245.491 234.072 257.043 248.109 257.413 265.601Z" fill="#E5F0F8"/>
<path d="M314.466 190.961H268.361V194.824H314.466V190.961Z" fill="white"/>
<path d="M399.166 190.961H389.238V194.824H399.166V190.961Z" fill="white"/>
<path d="M386.244 190.961H376.316V194.824H386.244V190.961Z" fill="white"/>
<path d="M373.326 190.961H363.398V194.824H373.326V190.961Z" fill="white"/>
<path d="M341.784 207.017H268.361V210.88H341.784V207.017Z" fill="white"/>
<path d="M326.794 198.989H268.361V202.852H326.794V198.989Z" fill="white"/>
<path d="M278.942 217.695H268.361V221.031H278.942V217.695Z" fill="white"/>
<path d="M322.223 217.695H280.428V221.031H322.223V217.695Z" fill="white"/>
<path d="M360.082 217.695H323.883V221.031H360.082V217.695Z" fill="white"/>
<path d="M399.163 217.695H361.566V221.031H399.163V217.695Z" fill="white"/>
<path d="M290.309 224.062H268.361V227.398H290.309V224.062Z" fill="white"/>
<path d="M331.228 224.062H292.012V227.398H331.228V224.062Z" fill="white"/>
<path d="M399.163 224.062H332.93V227.398H399.163V224.062Z" fill="white"/>
<path d="M302.024 230.43H268.361V233.765H302.024V230.43Z" fill="white"/>
<path d="M351.075 230.43H303.422V233.765H351.075V230.43Z" fill="white"/>
<path d="M399.167 230.43H352.914V233.765H399.167V230.43Z" fill="white"/>
<path d="M309.603 236.797H268.361V240.132H309.603V236.797Z" fill="white"/>
<path d="M352.863 236.798H311.621V240.133H352.863V236.798Z" fill="white"/>
<path d="M399.09 236.798H354.719V240.133H399.09V236.798Z" fill="white"/>
<path d="M304.707 243.165H268.361V246.5H304.707V243.165Z" fill="white"/>
<path d="M358.477 243.165H306.219V246.5H358.477V243.165Z" fill="white"/>
<path d="M399.091 243.165H360.082V246.5H399.091V243.165Z" fill="white"/>
<path d="M287.219 249.532H268.361V252.868H287.219V249.532Z" fill="white"/>
<path d="M314.323 249.532H288.98V252.868H314.323V249.532Z" fill="white"/>
<path d="M356.556 249.532H316.262V252.868H356.556V249.532Z" fill="white"/>
<path d="M398.774 249.532H358.48V252.868H398.774V249.532Z" fill="white"/>
<path d="M310.74 255.898H268.361V259.234H310.74V255.898Z" fill="white"/>
<path d="M346.326 255.898H312.574V259.234H346.326V255.898Z" fill="white"/>
<path d="M376.403 255.898H348.422V259.234H376.403V255.898Z" fill="white"/>
<path d="M398.773 255.898H378.152V259.234H398.773V255.898Z" fill="white"/>
<path d="M298.965 262.266H268.361V265.601H298.965V262.266Z" fill="white"/>
<path d="M181.418 287.548H125.928V292.019H181.418V287.548Z" fill="white"/>
<path d="M181.418 299.361H125.928V303.832H181.418V299.361Z" fill="white"/>
<path d="M359.958 163.724H218.314V175.081H359.958V163.724Z" stroke="#BBDBF3" stroke-width="3.2928" stroke-miterlimit="10"/>
<path d="M359.957 163.724H337.312V175.081H359.957V163.724Z" fill="#BBDBF3" stroke="#BBDBF3" stroke-width="2.3021" stroke-miterlimit="10"/>
<path d="M404.289 163.724H381.645V175.081H404.289V163.724Z" fill="#BBDBF3" stroke="#BBDBF3" stroke-width="2.3021" stroke-miterlimit="10"/>
<path d="M344.72 171.71C346.35 172.621 348.361 172.173 349.486 170.754L355.538 174.136L356.124 173.087L350.073 169.706C350.695 168.004 350.021 166.059 348.388 165.146C346.576 164.134 344.282 164.777 343.27 166.588C342.258 168.4 342.909 170.698 344.72 171.71ZM347.989 165.859C349.4 166.648 349.909 168.447 349.121 169.857C348.328 171.276 346.534 171.777 345.123 170.989C343.704 170.196 343.199 168.41 343.991 166.991C344.78 165.58 346.571 165.067 347.989 165.859Z" fill="white"/>
<path d="M404.287 328.38H292.082V346.362H404.287V328.38Z" fill="#E5F0F8"/>
<path d="M309.962 337.371L298.445 330.722V344.02L309.962 337.371Z" fill="white"/>
<path d="M315.094 337.371H396.949" stroke="white" stroke-width="2.7709" stroke-miterlimit="10"/>
<path d="M316.606 334.346H315.094V340.394H316.606V334.346Z" fill="white"/>
<path d="M404.287 303.174H292.082V321.156H404.287V303.174Z" fill="#E5F0F8"/>
<path d="M309.962 312.165L298.445 305.516V318.813L309.962 312.165Z" fill="white"/>
<path d="M315.094 312.165H396.949" stroke="white" stroke-width="2.7709" stroke-miterlimit="10"/>
<path d="M316.606 309.141H315.094V315.189H316.606V309.141Z" fill="white"/>
<path d="M404.287 277.968H292.082V295.95H404.287V277.968Z" fill="#E5F0F8"/>
<path d="M309.962 286.959L298.445 280.311V293.608L309.962 286.959Z" fill="white"/>
<path d="M315.094 286.959H396.949" stroke="white" stroke-width="2.7709" stroke-miterlimit="10"/>
<path d="M316.606 283.936H315.094V289.984H316.606V283.936Z" fill="white"/>
<path d="M432.387 17.8877H33.5898V73.4939H432.387V17.8877Z" fill="white" stroke="#D9E2FF" stroke-width="12.2257" stroke-miterlimit="10"/>
<path d="M432.386 17.8877H345.969V73.4939H432.386V17.8877Z" fill="#C8D5FF" stroke="#D9E2FF" stroke-width="9.951" stroke-miterlimit="10"/>
<path d="M367.611 33.6494C371.589 27.4242 379.859 25.6332 386.061 29.627C391.649 33.2258 393.622 40.2944 391.047 46.2197L390.878 46.6094L391.235 46.8389L412.311 60.4102L410.459 63.3076L389.384 49.7363L389.025 49.5059L388.74 49.8232C384.444 54.6273 377.223 55.7849 371.646 52.1934C365.444 48.1997 363.632 39.8771 367.611 33.6494ZM384.977 31.3301C379.703 27.9348 372.693 29.4987 369.331 34.7607C365.951 40.0509 367.477 47.0677 372.748 50.4619C377.991 53.8382 385.013 52.3245 388.395 47.0322C391.756 41.7706 390.219 34.7061 384.977 31.3301Z" fill="white" stroke="#D9E2FF"/>
<path d="M144.255 285.971L132.578 287.84C131.613 287.995 130.704 287.338 130.55 286.372L129.544 280.089C129.389 279.123 130.047 278.215 131.013 278.061L142.69 276.191L144.255 285.971Z" fill="#F2BB16"/>
<path d="M193.301 294.616L168.191 301.097L170.329 309.379L195.439 302.899L193.301 294.616Z" fill="#F9E181"/>
<path d="M169.264 305.31L194.35 298.739L193.695 295.905L168.176 301.092L169.264 305.31Z" fill="#F2BB16"/>
<path d="M271.46 328.228C261.69 320.862 230.805 300.448 213.662 297.573C201.694 295.565 185.59 298.351 176.864 300.246L175.146 289.469C190.194 287.901 202.826 279.239 228.409 290.513C245.797 298.162 259.944 306.699 269.23 312.883L271.46 328.228Z" fill="#088CFC"/>
<path d="M175.146 289.469C171.381 289.873 167.475 289.83 163.161 288.917C142.098 284.464 142.089 261.749 142.098 260.754C142.103 260.731 142.103 260.731 142.103 260.731C146.464 255.381 152.958 251.443 160.628 250.23C161.212 250.121 161.763 250.052 162.337 249.989L162.347 249.943C162.347 249.943 164.83 249.829 168.743 249.411L175.146 289.469Z" fill="#F9E181"/>
<path d="M269.23 312.883C259.944 306.698 245.798 298.162 228.409 290.513C202.826 279.239 190.194 287.901 175.147 289.469L168.744 249.411C177.611 248.497 193.786 246.141 204.541 240.478C219.906 232.417 242.798 203.46 249.766 193.405L261.633 260.612L269.23 312.883Z" fill="#2EC6FC"/>
<path d="M272.493 328.438C277.452 327.644 276.609 296.625 270.609 259.155C264.61 221.685 255.726 191.954 250.767 192.748C245.807 193.542 246.651 224.561 252.65 262.031C258.65 299.501 267.534 329.233 272.493 328.438Z" fill="#F9ECB8"/>
<path d="M272.548 320.598C270.101 320.986 268.34 314.115 264.885 303.597C262.036 294.896 259.364 284.144 257.152 272.549C256.459 268.986 255.81 265.336 255.219 261.65C254.622 257.987 254.117 254.346 253.648 250.761C252.129 239.008 251.326 227.954 251.307 218.782C251.285 207.712 250.838 200.63 253.286 200.242C255.711 199.848 257.494 206.724 260.926 217.237C264.651 228.594 268.097 243.511 270.592 259.184C273.111 274.862 274.493 290.085 274.504 302.053C274.526 313.122 274.973 320.203 272.548 320.598Z" fill="#F2BB16"/>
<path d="M265.053 270.755L263.695 271.053L257.152 272.548C256.46 268.985 255.811 265.335 255.219 261.649C254.622 257.986 254.118 254.344 253.648 250.76L260.955 250.072L261.724 250.005C264.411 249.743 266.824 251.633 267.262 254.287L268.956 264.961C269.389 267.637 267.669 270.162 265.053 270.755Z" fill="#F9E181"/>
<path d="M192.316 300.963L172.17 307.713L193.277 370.709L213.423 363.959L192.316 300.963Z" fill="#F9E181"/>
<path d="M172.549 308.798L193.173 303.476L173.805 312.546L172.549 308.798Z" fill="#F2BB16"/>
<path d="M191.735 366.065L211.881 359.314L189.887 360.548L191.735 366.065Z" fill="#F2BB16"/>
<path d="M213.185 358.728L190.316 366.39L192.912 374.138L215.781 366.475L213.185 358.728Z" fill="#F9E181"/>
<path d="M265.052 270.756L263.695 271.053C261.243 262.954 260.858 255.279 260.955 250.072L261.724 250.005C264.41 249.743 266.823 251.633 267.262 254.287L268.955 264.961C269.388 267.638 267.668 270.163 265.052 270.756Z" fill="#F9ECB8"/>
<path d="M176.864 300.246C173.046 301.099 170.638 301.74 170.638 301.74L170.625 301.689C170.059 301.827 169.497 301.941 168.918 302.028C153.343 304.521 138.854 294.933 136.553 280.643C135.395 273.374 137.598 266.29 142.099 260.754C142.09 261.749 142.099 284.464 163.162 288.917C167.476 289.831 171.382 289.873 175.147 289.469L176.864 300.246Z" fill="#F2BB16"/>
<path d="M322.628 201.678L287.663 211.523L294.015 218.606L270.609 232.623L307.248 223.39L299.934 215.234L322.628 201.678Z" fill="#F9E181"/>
<path d="M342.837 288.722L308.336 277.356L309.647 286.779L282.404 285.331L317.951 298.14L316.441 287.289L342.837 288.722Z" fill="#F9E181"/>
<path d="M359.882 236.042L323.7 239.246L328.63 247.382L303.035 256.826L340.749 254.533L335.072 245.164L359.882 236.042Z" fill="#F9E181"/>
<path d="M128.808 210.383L114.287 210.137L115.048 194.889L115.411 187.598L115.431 187.235L126.793 182.458L127.163 187.611L127.438 191.367L128.808 210.383Z" fill="#FDAE97"/>
<path d="M100.408 257.581L94.3015 308.13C94.1096 309.408 94.116 310.736 94.3765 312.077C95.6034 318.388 101.714 322.51 108.026 321.283C114.338 320.056 116.753 315.183 117.887 307.936C120.063 294.024 127.663 252.283 127.663 252.283L100.408 257.581Z" fill="#088CFC"/>
<path d="M140.003 255.036L117.572 256.541L117.684 281.392L120.346 285.329L122.814 309.287L145.52 307.472L140.003 255.036Z" fill="#088CFC"/>
<path d="M90.9178 248.318L91.0043 248.347C94.8063 249.651 98.9839 247.608 100.288 243.806L110.913 212.828C112.217 209.026 110.174 204.848 106.372 203.544L106.285 203.515C102.483 202.211 98.3055 204.254 97.0015 208.056L86.3761 239.034C85.0718 242.836 87.1158 247.014 90.9178 248.318Z" fill="#F74242"/>
<path d="M121.737 204.006C127.065 204.124 129.334 201.475 130.019 200.435L128.026 199.535L114.851 198.872L113.268 199.379C113.936 200.622 116.294 203.886 121.737 204.006Z" fill="#FDAE97"/>
<path d="M140.644 237.156L140.959 258.946H99.9434L100.43 204.013L114.505 198.927C114.662 199.216 114.833 199.518 115.043 199.833L115.096 199.899C115.858 200.872 117.317 201.792 121.404 201.884C124.808 201.963 126.477 201.489 127.423 200.872L127.436 200.859C127.949 200.517 128.251 200.109 128.487 199.741L141.774 202.672L140.88 230.401L140.644 237.156Z" fill="#F74242"/>
<path d="M90.0508 359.436L111.15 359.422L117.51 310.322C118.174 303.923 113.535 298.194 107.145 297.52C100.746 296.856 95.0259 301.494 94.3522 307.884C94.2918 308.44 94.2844 308.982 94.3047 309.532L90.6318 352.628L90.0508 359.436Z" fill="#088CFC"/>
<path d="M157.787 245.562C154.15 247.416 149.658 245.957 147.805 242.32L132.908 213.095C131.055 209.458 132.513 204.966 136.15 203.112C139.787 201.259 144.279 202.718 146.132 206.354L161.029 235.579C162.883 239.216 161.424 243.708 157.787 245.562Z" fill="#F74242"/>
<path d="M127.423 200.872L121.404 210.387L115.096 199.899C115.858 200.872 117.317 201.792 121.404 201.884C124.807 201.963 126.477 201.49 127.423 200.872Z" fill="#D6EAFF"/>
<path d="M105.201 287.888C104.587 288.085 102.198 284.988 101.247 282.297C100.438 280.017 99.1407 274.56 98.7695 272.949L105.953 270.188C106.414 271.042 106.953 271.968 107.515 272.704C108.882 274.527 112.034 279.906 111.249 280.356C110.475 280.809 107.569 277.553 107.396 278.01C107.224 278.468 108.799 281.351 109.567 282.521C110.333 283.703 112.385 285.955 112.1 286.722C111.814 287.5 110.609 287.376 110.609 287.376C110.609 287.376 111.494 288.147 110.911 288.611C110.329 289.075 108.652 288.22 108.652 288.22C108.652 288.22 109.189 288.588 108.422 288.94C107.644 289.289 105.592 287.162 105.592 287.162C105.592 287.162 105.825 287.704 105.201 287.888Z" fill="#FDAE97"/>
<path d="M122.734 308.405L128.153 359.437H148.881L145.557 308.125C145.584 307.585 145.431 306.981 145.386 306.422C144.818 300.013 139.725 295.227 133.316 295.786C126.917 296.354 122.175 301.996 122.734 308.405Z" fill="#088CFC"/>
<path d="M108.726 270.27L106.896 263.013L105.232 256.445L100.808 238.916C99.6672 235.395 95.4743 233.563 91.4772 234.847C87.486 236.138 85.1485 240.079 86.2823 243.606L93.0257 260.889L95.4693 267.172L98.0002 273.662L108.726 270.27Z" fill="#F74242"/>
<path d="M127.836 196.924L119.674 190.973L127.436 191.368L127.836 196.924Z" fill="#EA9D85"/>
<path d="M127.062 174.26C127.062 174.26 128.247 178.993 129.087 182.352L129.782 185.127C130.331 187.32 130.53 190.727 128.25 192.097C125.979 193.466 122.331 193.287 119.326 191.313C116.319 189.331 108.175 179.055 114.395 172.95C120.622 166.842 126.609 173.169 127.062 174.26Z" fill="#FDAE97"/>
<path d="M115.319 190.597C115.319 190.597 119.4 184.626 117.331 181.126C115.262 177.626 117.43 176.809 118.932 177.107C120.433 177.405 123.056 177.39 124.129 177C124.129 177 120.933 177.002 119.594 176.18C119.594 176.18 125.88 176.84 127.292 175.182L127.601 176.418C127.601 176.418 129.993 171.126 126.61 169.804C123.226 168.482 121.775 169.858 121.775 169.858C121.775 169.858 122.911 167.697 121.36 167.246C119.809 166.796 118.305 169.929 118.305 169.929C118.305 169.929 116.181 167.165 113.859 169.789C111.537 172.412 112.422 174.883 112.422 174.883C112.422 174.883 109.734 177.009 110.937 180.467C112.139 183.926 115.109 187.235 115.319 190.597Z" fill="#322A28"/>
<path d="M117.271 186.242C118.463 187.369 118.928 188.255 118.044 189.191C117.159 190.127 115.356 190.353 114.164 189.226C112.972 188.099 112.723 186.428 113.608 185.492C114.492 184.557 116.08 185.116 117.271 186.242Z" fill="#FDAE97"/>
<path d="M122.047 182.059C122.174 182.568 122.544 182.913 122.873 182.831C123.202 182.748 123.366 182.269 123.239 181.761C123.111 181.252 122.741 180.906 122.412 180.989C122.083 181.071 121.92 181.55 122.047 182.059Z" fill="#332B27"/>
<path d="M128.202 180.518C128.329 181.027 128.165 181.506 127.836 181.589C127.507 181.671 127.137 181.325 127.01 180.817C126.883 180.308 127.046 179.829 127.375 179.747C127.704 179.664 128.074 180.01 128.202 180.518Z" fill="#332B27"/>
<path d="M123.836 185.18C123.796 185.687 122.948 186.034 121.941 185.955C120.934 185.876 120.149 185.402 120.189 184.895C120.229 184.389 121.077 184.042 122.084 184.121C123.091 184.199 123.875 184.674 123.836 185.18Z" fill="#E89780"/>
<path d="M129.085 182.351L129.537 184.155C128.798 184.434 128.123 184.38 127.918 184.01C127.687 183.569 128.207 182.828 129.085 182.351Z" fill="#E89780"/>
<path d="M115.112 187.975C115.904 187.61 116.626 187.596 116.626 187.596C115.539 186.396 114.498 186.828 114.498 186.828" stroke="#EA9D85" stroke-width="1.435" stroke-miterlimit="10" stroke-linecap="round" stroke-linejoin="round"/>
<path d="M123.875 187.74C123.875 187.74 125.191 189.242 127.329 188.278" stroke="#332B27" stroke-width="0.9179" stroke-miterlimit="10"/>
<path d="M124.664 181.777L126.6 184.745C126.796 185.045 126.762 185.441 126.518 185.704L126.139 186.111L125.752 186.528" stroke="#332B27" stroke-width="0.9179" stroke-miterlimit="10"/>
<path d="M121.041 181.211C121.041 181.211 121.861 179.861 123.22 179.89" stroke="#332B27" stroke-width="0.9179" stroke-miterlimit="10"/>
<path d="M128.358 178.8C128.358 178.8 127.281 178.191 126.225 179.047" stroke="#332B27" stroke-width="0.9179" stroke-miterlimit="10"/>
<path d="M127.993 199.069L121.406 201.888L124.867 206.093L128.808 199.879L127.993 199.069Z" fill="white"/>
<path d="M114.87 198.446L121.406 201.888L118.289 205.916L114.287 199.012L114.87 198.446Z" fill="white"/>
<path d="M131.143 367.412L130.588 359.437H146.118L146.724 367.412H131.143Z" fill="#FDAE97"/>
<path d="M146.393 363.049L130.588 359.437H146.118L146.393 363.049Z" fill="#EA9D85"/>
<path d="M108.093 367.412L108.688 359.424L92.7812 359.437L92.5117 367.412H108.093Z" fill="#FDAE97"/>
<path d="M108.354 363.879L92.7793 359.437L108.686 359.424L108.354 363.879Z" fill="#EA9D85"/>
<path d="M112.917 174.668C112.917 174.668 111.093 173.645 109.211 175.148C109.211 175.148 112.397 174.316 112.897 175.535C113.397 176.752 112.917 174.668 112.917 174.668Z" fill="#322A28"/>
<path d="M113.516 200.622L121.406 213.313L129.191 201.441" stroke="white" stroke-width="0.7468" stroke-miterlimit="10" stroke-linecap="round" stroke-linejoin="round"/>
<path d="M154.379 374.121H131.446L131.407 373.187L131.125 367.007H146.73C148.662 367.007 150.449 368.141 151.816 369.324C152.946 370.336 153.787 371.663 154.181 373.188C154.273 373.49 154.339 373.805 154.379 374.121Z" fill="#322A28"/>
<path d="M154.378 374.122H131.446L131.406 373.188H154.181C154.273 373.491 154.339 373.806 154.378 374.122Z" fill="#FFF1F0"/>
<path d="M147.198 368.278C147.198 368.278 145.216 364.799 143.881 366.174C142.546 367.55 147.198 368.278 147.198 368.278Z" stroke="#FFF1F0" stroke-width="1.1366" stroke-miterlimit="10" stroke-linecap="round" stroke-linejoin="round"/>
<path d="M146.5 368.971L147.198 368.278M147.198 368.278C147.198 368.278 149.18 364.799 150.515 366.174C151.85 367.55 147.198 368.278 147.198 368.278Z" stroke="#FFF1F0" stroke-width="1.1366" stroke-miterlimit="10" stroke-linecap="round" stroke-linejoin="round"/>
<path d="M147.732 368.971L147.199 368.278" stroke="#FFF1F0" stroke-width="1.1366" stroke-miterlimit="10" stroke-linecap="round" stroke-linejoin="round"/>
<path d="M84.9766 374.121H107.909L107.948 373.187L108.23 367.007H92.6251C90.6931 367.007 88.906 368.141 87.5392 369.324C86.4089 370.336 85.5679 371.663 85.1735 373.188C85.0819 373.49 85.0159 373.805 84.9766 374.121Z" fill="#322A28"/>
<path d="M84.9766 374.122H107.909L107.948 373.188H85.1735C85.0819 373.491 85.0159 373.806 84.9766 374.122Z" fill="#FFF1F0"/>
<path d="M92.1543 368.489C92.1543 368.489 94.1365 365.01 95.4714 366.385C96.8065 367.761 92.1543 368.489 92.1543 368.489Z" stroke="#FFF1F0" stroke-width="1.1366" stroke-miterlimit="10" stroke-linecap="round" stroke-linejoin="round"/>
<path d="M92.8531 369.181L92.1555 368.489M92.1555 368.489C92.1555 368.489 90.1733 365.01 88.8384 366.385C87.5035 367.761 92.1555 368.489 92.1555 368.489Z" stroke="#FFF1F0" stroke-width="1.1366" stroke-miterlimit="10" stroke-linecap="round" stroke-linejoin="round"/>
<path d="M91.623 369.182L92.1555 368.489" stroke="#FFF1F0" stroke-width="1.1366" stroke-miterlimit="10" stroke-linecap="round" stroke-linejoin="round"/>
<path d="M120.916 290.859L121.662 284.748L125.412 282.162L128.458 269.749" stroke="white" stroke-width="1.6462" stroke-miterlimit="10"/>
<path d="M146.724 353.184H131.975" stroke="white" stroke-width="1.6462" stroke-miterlimit="10"/>
<path d="M107.261 353.184H92.5117" stroke="white" stroke-width="1.6462" stroke-miterlimit="10"/>
<path d="M105.895 259.052L101.518 240.22L107.94 221.497" stroke="white" stroke-width="1.6462" stroke-miterlimit="10"/>
<path d="M202.372 250.415C202.556 249.796 199.41 247.472 196.699 246.578C194.403 245.818 188.92 244.635 187.301 244.298L184.691 251.538C185.556 251.981 186.492 252.501 187.24 253.046C189.092 254.375 194.536 257.413 194.97 256.619C195.406 255.836 192.089 252.999 192.543 252.817C192.997 252.635 195.912 254.149 197.099 254.892C198.296 255.633 200.591 257.637 201.352 257.336C202.124 257.034 201.974 255.832 201.974 255.832C201.974 255.832 202.764 256.7 203.216 256.108C203.667 255.515 202.776 253.858 202.776 253.858C202.776 253.858 203.156 254.386 203.491 253.612C203.824 252.827 201.655 250.821 201.655 250.821C201.655 250.821 202.201 251.042 202.372 250.415Z" fill="#FDAE97"/>
<path d="M147.877 237.142C146.777 241.19 148.811 245.316 152.386 246.276L170.932 250.796L177.502 252.383L184.345 254.052L186.645 247.613L188.276 243.042L188.439 242.599L181.494 240.209L175.13 238.011L156.392 231.544C152.817 230.585 148.976 233.094 147.877 237.142Z" fill="#F74242"/>
<path d="M147.973 159.395C175.779 181.984 216.758 177.738 239.347 149.931C261.92 122.13 257.689 81.1462 229.883 58.5576C202.081 35.9843 161.087 40.2353 138.509 68.0218C115.921 95.8279 120.172 136.822 147.973 159.395ZM143.401 71.9767C163.831 46.8241 200.771 43.0052 225.943 63.4448C251.08 83.8792 254.899 120.819 234.47 145.971C214.055 171.119 177.085 174.948 151.933 154.518C126.776 134.074 122.972 97.129 143.401 71.9767Z" fill="#586773"/>
<path d="M151.932 154.518C177.085 174.948 214.055 171.119 234.469 145.971C254.899 120.819 251.08 83.8794 225.943 63.4448C200.77 43.0049 163.831 46.8241 143.401 71.9766C122.972 97.129 126.775 134.074 151.932 154.518ZM145.876 73.9944C165.191 50.2135 200.124 46.5957 223.925 65.9206C247.69 85.2402 251.308 120.173 231.993 143.954C212.679 167.735 177.731 171.358 153.95 152.043C130.164 132.713 126.562 97.7752 145.876 73.9944Z" fill="#93ACBF"/>
<path opacity="0.3" d="M145.876 73.9941C165.191 50.2132 200.124 46.5954 223.925 65.9203C247.69 85.2399 251.308 120.173 231.994 143.954C212.679 167.735 177.731 171.357 153.95 152.042C130.164 132.713 126.562 97.7748 145.876 73.9941Z" fill="#E5F0F8"/>
<path d="M113.049 51.5832L115.198 48.7861L142.355 70.8589L140.045 73.5224L113.049 51.5832Z" fill="#586773"/>
<path d="M54.5448 1.58116C54.5517 1.5677 54.5617 1.56454 54.5686 1.55108C56.022 -0.249737 58.6628 -0.521904 60.4668 0.941822L116.796 46.7032L115.199 48.7852L114.225 50.062L113.05 51.5825L111.688 53.3537L55.1781 7.449C53.391 6.00269 53.1051 3.38858 54.5448 1.58116Z" fill="#93ACBF"/>
<path d="M54.5448 1.58105C54.5583 1.58792 54.5749 1.60482 54.5916 1.62198L114.224 50.0622L113.049 51.5826L111.687 53.3539L55.1781 7.44889C53.391 6.00259 53.1051 3.38847 54.5448 1.58105Z" fill="#586773"/>
<path d="M202.958 101.254L151.13 138.522C150.39 139.054 149.36 138.882 148.831 138.146L146 134.209C145.467 133.468 145.632 132.437 146.372 131.905L198.2 94.6367L202.958 101.254Z" fill="#F2BB16"/>
<path d="M168.102 139.103L166.052 140.578L169.166 144.909L165.918 147.245L163.599 144.019L161.549 145.494L163.868 148.719L161.605 150.346L150.957 135.538L163.599 126.447L174.247 141.255L171.216 143.435L168.102 139.103Z" fill="#F9E181"/>
<path d="M202.96 101.255L151.132 138.523C150.392 139.055 149.363 138.883 148.834 138.147L147.416 136.176L200.581 97.9463L202.96 101.255Z" fill="#F9E181"/>
<path d="M166.322 130.239L165.068 128.496L152.426 137.587L153.679 139.33L166.322 130.239Z" fill="#F2BB16"/>
<path d="M169.889 135.201L168.918 133.85L156.276 142.94L157.247 144.291L169.889 135.201Z" fill="#F2BB16"/>
<path d="M219.891 112.017L228.099 106.122C232.479 102.958 233.504 96.7709 230.342 92.381L230.271 92.2804L228.953 90.4487L228.907 90.3922L218.344 75.7146L217.64 74.7324L215.45 71.6835C214.115 69.819 212.238 68.5726 210.174 67.9945C210.166 67.9831 210.166 67.9831 210.166 67.9831C210.055 67.9607 209.946 67.928 209.835 67.9053C207.974 67.442 205.993 67.5103 204.154 68.1597C203.308 68.4667 202.479 68.8888 201.709 69.4408L201.486 69.601L201.485 69.6113L198 72.1135L197.431 72.5232L193.522 75.3276C192.585 75.9947 191.806 76.813 191.182 77.71C190.814 78.2448 190.505 78.8068 190.256 79.3857C189.344 81.4945 189.182 83.8819 189.839 86.1132C190.135 87.1533 190.611 88.1516 191.279 89.079L195.554 95.0213L196.098 95.7701L196.276 96.0162L198.653 99.3324L201.021 102.637L201.03 102.649L206.152 109.764C209.322 114.166 215.512 115.171 219.891 112.017ZM203.225 94.6174L202.646 93.8131L197.739 86.9888L196.528 85.3026C195.45 83.8056 195.802 81.6453 197.289 80.5661L201.377 77.6271L201.733 77.3787L203.608 76.0446L205.485 74.6901C206.714 73.7984 208.391 73.8816 209.546 74.7701C209.792 74.962 210.024 75.1933 210.211 75.4504L210.255 75.5169L215.395 82.6547L216.035 83.5583L220.301 89.4895L221.967 91.8016L223.552 94.0126L225.092 96.1569C226.162 97.6322 225.797 99.8121 224.323 100.872L216.135 106.769C214.639 107.836 212.468 107.483 211.401 105.987L203.225 94.6174Z" fill="#F9E181"/>
<path d="M217.073 108.087L225.261 102.193C227.467 100.603 227.981 97.4141 226.402 95.2092L225.38 93.7771L223.867 91.6939L211.515 74.5201C209.936 72.3151 206.748 71.7898 204.542 73.3803L203.433 74.1746L201.277 75.7249L196.354 79.2624C194.148 80.8531 193.634 84.0416 195.213 86.2465L210.089 106.934C211.669 109.139 214.867 109.666 217.073 108.087ZM211.399 105.99L196.522 85.3023C195.449 83.8072 195.804 81.6442 197.288 80.5701L201.736 77.3813L203.605 76.0403L205.486 74.689C206.97 73.6149 209.133 73.9692 210.207 75.4532L221.963 91.8039L223.553 94.0102L225.094 96.1537C226.156 97.6361 225.801 99.8102 224.318 100.873L216.13 106.767C214.634 107.839 212.471 107.485 211.399 105.99Z" fill="#F2BB16"/>
<path d="M293.321 87.7553C296.275 89.5688 300.176 88.6354 301.989 85.681L315.62 63.4744C317.434 60.52 316.5 56.619 313.546 54.8058C310.591 52.9923 306.691 53.9257 304.877 56.8801L291.246 79.0868C289.433 82.0409 290.366 85.9418 293.321 87.7553Z" fill="#F9E181"/>
<path d="M325.61 28.8037C325.61 28.8037 331.176 32.7691 331.706 41.1415C332.236 49.5139 341.891 50.7393 341.891 50.7393C341.891 50.7393 341.512 59.3725 330.88 61.1419C320.249 62.9113 320.371 45.283 320.371 45.283L325.61 28.8037Z" fill="#332B27"/>
<path d="M315.312 28.8037C315.312 28.8037 311.786 29.5925 311.352 35.9191C310.918 42.2457 314.987 51.6698 316.994 51.812C319.001 51.9543 323.285 29.7355 315.312 28.8037Z" fill="#332B27"/>
<path d="M326.003 51.2998L337.033 56.4945C337.033 56.4945 334.581 84.6899 334.327 87.7958C334.073 90.9017 335.024 95.5925 335.024 95.5925H308.591C308.591 95.5925 308.908 80.3792 307.133 76.1322C305.931 73.2552 305.105 71.5048 305.802 68.2085C306.5 64.9123 308.845 59.9681 308.021 54.2632L314.803 51.5374L326.003 51.2998Z" fill="#F9E181"/>
<path d="M314.801 38.7141V51.5392C314.801 51.5392 314.801 51.696 314.832 51.9465C314.964 52.9934 315.641 55.6825 319.126 55.6448C322.31 55.607 324.536 53.269 325.482 52.0405C325.827 51.6018 326.002 51.3009 326.002 51.3009L324.398 38.7139H314.801V38.7141Z" fill="#B37661"/>
<path d="M314.805 51.5367L320.507 44.2563L314.805 43.1582V51.5367Z" fill="#824C3A"/>
<path d="M313.738 45.1213C315.842 46.2522 319.099 45.923 321.706 44.0161C324.313 42.1091 330.79 34.3782 324.94 29.1798C319.082 23.9819 313.999 29.9247 313.644 30.9225C313.644 30.9225 312.926 34.5358 312.426 37.0834C312.294 37.7304 312.18 38.3064 312.095 38.7401C312.084 38.8108 312.065 38.8744 312.054 38.9372C311.662 40.9326 311.635 43.9981 313.738 45.1213Z" fill="#B37661"/>
<path d="M348.042 91.257C351.17 89.7627 352.507 85.9807 351.012 82.8529L339.779 59.342C338.285 56.2142 334.503 54.8777 331.375 56.3721C328.247 57.8664 326.911 61.6483 328.405 64.7761L339.638 88.2871C341.133 91.4149 344.914 92.7514 348.042 91.257Z" fill="#F9E181"/>
<path d="M327.443 198.51L322.786 199.331L321.957 196.378L319.951 199.831L308.965 201.768L315.895 192.887L325.733 190.987L327.443 198.51Z" fill="#322A28"/>
<path d="M318.996 194.296L314.602 195.056" stroke="#FFF1F0" stroke-width="1.4132" stroke-miterlimit="10"/>
<path d="M320.508 27.0756C320.508 27.0756 314.48 26.1894 312.676 31.793L315.692 32.4889C315.692 32.4889 315.999 30.5109 317.684 29.9249C317.684 29.9249 316.336 31.2342 316.439 32.7726L319.901 33.757C319.901 33.757 320.441 31.6462 320.404 30.7672C320.404 30.7672 320.904 32.8751 320.721 34.0471L323.079 35.1734C323.079 35.1734 322.702 37.1678 323.471 38.0468C324.241 38.9258 324.863 42.345 324.863 42.345C324.863 42.345 328.709 35.7484 327.976 33.2945C327.244 30.8409 325.859 26.8628 320.508 27.0756Z" fill="#332B27"/>
<path d="M318.203 195.998L313.809 196.759" stroke="#FFF1F0" stroke-width="1.4132" stroke-miterlimit="10"/>
<path d="M277.454 190.027L272.972 188.521L273.656 185.531L270.243 187.604L259.668 184.051L270.002 179.565L279.521 182.703L277.454 190.027Z" fill="#322A28"/>
<path d="M272.054 182.289L267.83 180.855" stroke="#FFF1F0" stroke-width="1.4132" stroke-miterlimit="10"/>
<path d="M270.54 183.402L266.316 181.968" stroke="#FFF1F0" stroke-width="1.4132" stroke-miterlimit="10"/>
<path d="M323.558 39.7962C322.958 40.9059 322.831 41.6656 323.702 42.1371C324.573 42.6085 325.946 42.3403 326.546 41.2306C327.147 40.1208 326.928 38.839 326.056 38.3675C325.185 37.8961 324.159 38.6864 323.558 39.7962Z" fill="#B37661"/>
<path d="M326.019 39.5874C326.019 39.5874 324.547 39.249 324.191 40.4823C324.191 40.4823 324.759 40.1235 325.477 40.3894" stroke="#724638" stroke-width="0.5937" stroke-miterlimit="10" stroke-linecap="round" stroke-linejoin="round"/>
<path d="M318.376 37.1029C318.292 37.5833 317.973 37.9286 317.662 37.8747C317.351 37.8206 317.167 37.3874 317.251 36.9073C317.334 36.4268 317.654 36.0816 317.964 36.1354C318.275 36.1895 318.459 36.6225 318.376 37.1029Z" fill="#332B27"/>
<path d="M314.337 36.016C314.253 36.4962 313.934 36.8417 313.623 36.7879C313.312 36.734 313.128 36.3006 313.212 35.8204C313.295 35.34 313.615 34.9944 313.925 35.0485C314.236 35.1024 314.42 35.5356 314.337 36.016Z" fill="#332B27"/>
<path d="M315.854 42.4006C315.252 42.4951 314.688 42.0838 314.594 41.4825L316.772 41.1406C316.866 41.7422 316.455 42.3063 315.854 42.4006Z" fill="white"/>
<path d="M319.639 36.3288C319.639 36.3288 318.883 34.964 317.684 35.2016" stroke="#332B27" stroke-width="0.8814" stroke-miterlimit="10"/>
<path d="M314.528 34.4319C314.528 34.4319 313.85 34.1795 312.973 34.8083" stroke="#332B27" stroke-width="0.8814" stroke-miterlimit="10"/>
<path d="M315.776 36.3379C315.776 36.3379 315.306 38.7081 313.859 38.7561C313.859 38.7561 314.233 39.2379 314.761 39.5011" stroke="#332B27" stroke-width="0.8814" stroke-miterlimit="10"/>
<path d="M318.819 40.3252C319.704 40.2611 320.394 39.8217 320.36 39.3439C320.325 38.8661 319.579 38.5307 318.694 38.5948C317.808 38.659 317.118 39.0983 317.152 39.5761C317.187 40.0539 317.933 40.3893 318.819 40.3252Z" fill="#A14C53"/>
<path d="M312.094 38.7407C312.6 38.8518 313.036 38.7658 313.194 38.4746C313.4 38.0942 313.062 37.5121 312.425 37.084C312.293 37.731 312.179 38.307 312.094 38.7407Z" fill="#A14C53"/>
<path d="M302.564 84.056C304.077 80.5713 302.798 76.6278 299.722 75.2924L271.678 67.3191C270.801 66.8479 269.817 66.2709 269.061 65.6936C267.303 64.3518 262.096 61.2705 261.658 62.0233C261.22 62.7764 264.359 65.6107 263.916 65.7762C263.473 65.9415 260.684 64.3999 259.548 63.6483C258.412 62.8968 256.235 60.8933 255.486 61.1659C254.738 61.4389 254.843 62.6075 254.843 62.6075C254.843 62.6075 254.106 61.7411 253.654 62.3055C253.202 62.8699 254.023 64.4986 254.023 64.4986C254.023 64.4986 253.662 63.9746 253.318 64.7208C252.974 65.4671 255.028 67.4701 255.028 67.4701C255.028 67.4701 254.499 67.2431 254.315 67.845C254.132 68.4468 257.12 70.7795 259.722 71.7182C262.044 72.5561 267.783 73.9337 268.99 74.2199L294.222 87.9641C297.297 89.2993 301.051 87.5407 302.564 84.056Z" fill="#B37661"/>
<path d="M334.843 78.2523L331.102 70.4219" stroke="#332B27" stroke-width="1.2206" stroke-miterlimit="10"/>
<path d="M332.972 163.31C332.49 168.228 316.467 167.818 304.662 158.983C292.858 150.148 272.636 158.253 270.653 140.029C268.671 121.804 308.624 125.993 309.636 127.729C310.649 129.464 328.729 154.777 329.163 155.211C329.597 155.645 332.562 160.165 332.562 160.165L332.972 163.31Z" fill="#40A87B"/>
<path d="M323.361 42.4821C323.274 42.9871 323.613 43.467 324.118 43.5541C324.623 43.6412 325.103 43.3025 325.19 42.7976C325.277 42.2926 324.938 41.8127 324.433 41.7256C323.929 41.6385 323.448 41.9771 323.361 42.4821Z" stroke="white" stroke-width="1.0053" stroke-miterlimit="10"/>
<path d="M307.227 76.3746C307.227 76.3746 305.24 72.1957 305.563 70.0253C305.885 67.8549 307.654 61.9903 307.887 60.1895" stroke="#332B27" stroke-width="1.2206" stroke-miterlimit="10"/>
<path d="M364.078 62.5774L365.418 59.7838C365.418 59.7838 367.539 57.2133 368.201 56.1993C368.574 55.6276 369.738 54.1931 370.014 54.0308C370.232 53.9022 370.808 54.03 370.831 54.2768C370.86 54.5978 370.161 56.2719 369.899 56.9334C369.651 57.5622 368.906 59.4483 368.906 59.4483C368.906 59.4483 373.074 56.4789 374.413 55.405C375.166 54.8008 377.292 52.9419 377.747 53.439C378.094 53.8175 376.131 55.9615 375.466 56.7017C374.855 57.3819 373.04 59.4404 373.04 59.4404C373.04 59.4404 375.989 57.0242 376.972 56.2189C377.687 55.6328 379.599 53.6177 380.124 54.1596C380.643 54.696 378.616 56.5441 378.008 57.2365C377.151 58.2137 374.578 61.1449 374.578 61.1449C374.578 61.1449 377.72 58.6873 378.767 57.8679C379.347 57.4147 380.898 55.8398 381.354 56.3799C381.818 56.93 380.049 58.314 379.523 58.8478C378.621 59.7624 375.916 62.5062 375.916 62.5062C375.916 62.5062 378.235 60.7919 379.008 60.2204C379.339 59.9762 380.346 59.2783 380.576 59.6096C380.889 60.0605 379.599 61.1031 379.205 61.4996L375.951 64.7776C375.688 65.0429 375.395 65.2755 375.08 65.47L369.389 69.2525L364.078 62.5774Z" fill="#B37661"/>
<path d="M340.73 89.8167C342.834 92.0074 346.208 92.3189 348.672 90.6994L369.385 69.2519L364.074 62.5771L340.268 80.4742C337.796 82.8521 338.352 87.3451 340.73 89.8167Z" fill="#B37661"/>
<path d="M296.552 144.052C296.981 145.543 298.225 148.879 299.867 153.138C305.477 167.642 315.894 192.895 315.894 192.895L325.731 190.996C325.731 190.996 323.639 173.639 322.051 160.766C321.697 157.977 321.376 155.402 321.107 153.257C320.314 146.96 318.318 139.901 315.594 134.419C312.043 127.285 307.258 122.833 302.281 126.245C299.846 127.907 298.172 129.506 297.067 131.094C294.17 135.256 295.179 139.311 296.552 144.052Z" fill="#B37661"/>
<path d="M270.002 179.57L279.507 182.692C279.507 182.692 286.447 162.792 290.706 150.466C291.167 149.136 291.596 147.892 291.983 146.776C293.678 141.841 294.868 136.07 295.212 130.76C295.834 121.255 293.742 113.242 286.962 114.229C276.385 115.774 275.162 120.977 273.982 127.703C273.95 127.906 273.907 128.142 273.875 128.411C273.574 130.481 273.209 134.482 272.813 139.363C271.536 154.951 270.002 179.57 270.002 179.57Z" fill="#B37661"/>
<path d="M296.552 144.052C296.981 145.544 298.225 148.88 299.867 153.139C306.979 152.849 317.835 158.47 322.051 160.766C321.697 157.977 321.375 155.402 321.107 153.257C320.313 146.96 318.318 139.901 315.593 134.419L297.067 131.094C294.17 135.256 295.179 139.311 296.552 144.052Z" fill="#824C3A"/>
<path d="M272.811 139.364C281.135 138.635 288.655 147.742 290.704 150.467C291.165 149.137 291.594 147.893 291.98 146.777C293.675 141.842 294.866 136.071 295.209 130.761L274.999 127.146C274.999 127.146 274.548 127.628 273.872 128.411C273.572 130.482 273.207 134.483 272.811 139.364Z" fill="#824C3A"/>
<path d="M308.593 95.5918C308.593 95.5918 281.244 111.452 275.718 119.194C270.193 126.936 270.541 139.155 270.541 139.155C270.541 139.155 274.779 133.369 287.073 141.469C299.367 149.569 308.742 154.382 321.484 156.242C334.225 158.103 332.972 163.31 332.972 163.31C332.972 163.31 334.42 151.313 329.018 139.878C323.616 128.444 337.748 114.132 338.662 107.262C339.577 100.391 335.025 95.5921 335.025 95.5921H308.593V95.5918Z" fill="#6ADB6A"/>
<path d="M295.211 137.417C295.211 137.417 293.581 127.149 297.631 118.905C301.681 110.66 312.591 103.717 314.802 97.7871" stroke="white" stroke-width="1.2206" stroke-miterlimit="10"/>
<path d="M316.398 100.319C316.398 100.778 316.771 101.151 317.23 101.151C317.69 101.151 318.062 100.778 318.062 100.319C318.062 99.8598 317.69 99.4873 317.23 99.4873C316.771 99.4876 316.398 99.8598 316.398 100.319Z" fill="white"/>
<path d="M313.137 104.151C313.137 104.61 313.509 104.983 313.968 104.983C314.428 104.983 314.8 104.61 314.8 104.151C314.8 103.692 314.428 103.319 313.968 103.319C313.509 103.319 313.137 103.692 313.137 104.151Z" fill="white"/>
<path d="M308.805 109.647C308.805 110.107 309.177 110.479 309.636 110.479C310.096 110.479 310.468 110.107 310.468 109.647C310.468 109.188 310.096 108.815 309.636 108.815C309.177 108.816 308.805 109.188 308.805 109.647Z" fill="white"/>
<path d="M304.012 114.978C304.012 115.438 304.384 115.81 304.843 115.81C305.303 115.81 305.675 115.438 305.675 114.978C305.675 114.519 305.303 114.146 304.843 114.146C304.384 114.147 304.012 114.519 304.012 114.978Z" fill="white"/>
<path d="M299.168 121.633C299.168 122.092 299.54 122.464 300 122.464C300.459 122.464 300.832 122.092 300.832 121.633C300.832 121.173 300.459 120.801 300 120.801C299.54 120.801 299.168 121.173 299.168 121.633Z" fill="white"/>
<path d="M298.336 128.312C298.336 128.772 298.708 129.144 299.168 129.144C299.627 129.144 299.999 128.772 299.999 128.312C299.999 127.853 299.627 127.48 299.168 127.48C298.708 127.48 298.336 127.853 298.336 128.312Z" fill="white"/>
<path d="M298.336 136.123C298.336 136.582 298.708 136.955 299.168 136.955C299.627 136.955 299.999 136.582 299.999 136.123C299.999 135.663 299.627 135.291 299.168 135.291C298.708 135.291 298.336 135.663 298.336 136.123Z" fill="white"/>
<path d="M300 142.776C300 143.235 300.372 143.608 300.832 143.608C301.291 143.608 301.664 143.235 301.664 142.776C301.664 142.317 301.291 141.944 300.832 141.944C300.372 141.945 300 142.317 300 142.776Z" fill="white"/>
<path d="M77.9356 138.127C77.9356 125.331 67.5621 114.957 54.7658 114.957C41.9692 114.957 31.5957 125.331 31.5957 138.127C31.5957 142.662 32.9185 146.879 35.1699 150.451L35.1525 150.462L54.7658 181.855L74.3791 150.462L74.3617 150.451C76.6131 146.879 77.9356 142.662 77.9356 138.127Z" fill="#F74242"/>
<path d="M54.7651 157.542C44.0602 157.542 35.3516 148.832 35.3516 138.127C35.3516 127.423 44.0602 118.714 54.7651 118.714C65.4699 118.714 74.1786 127.422 74.1786 138.127C74.1786 148.833 65.4702 157.542 54.7651 157.542Z" fill="white"/>
<path d="M63.9585 125.04L52.2735 145.165L52.1709 145.341L46.3835 136.554L42.5488 139.082L50.3785 150.963L52.2994 150.909L54.2813 150.854L67.9297 127.345L63.9585 125.04Z" fill="#D9E2FF"/>
<defs>
<linearGradient id="paint0_linear_2034_14456" x1="486.938" y1="379.556" x2="59.9551" y2="379.556" gradientUnits="userSpaceOnUse">
<stop stop-color="#2058FF"/>
<stop offset="1" stop-color="#004BC2"/>
</linearGradient>
</defs>
</svg>
