<svg width="563" height="353" viewBox="0 0 563 353" fill="none" xmlns="http://www.w3.org/2000/svg">
<g clip-path="url(#clip0_1996_15145)">
<path d="M536.53 352.187C504.333 352.187 35.2907 352.302 35.0191 351.46L34.9731 351.353C34.9731 351.353 34.9271 351.249 34.9271 351.198C34.7474 350.777 -37.3407 232.586 74.7297 150.308C118.58 118.113 71.9858 96.8612 106.856 61.0223C146.931 19.8378 190.664 65.3979 235.225 46.7223C243.1 43.4254 250.999 38.1197 258.909 29.9779C277.251 11.1137 302.419 2.38756 328.404 0.429094C378.196 -3.30142 434.228 17.6783 463.145 48.3435C468.967 54.5185 495.44 86.4677 474.572 130.381C461.395 158.108 516.594 184.588 536.207 216.25C586.074 296.747 536.984 351.138 536.53 352.187Z" fill="#EBF3FA"/>
<g opacity="0.5">
<g opacity="0.5">
<path d="M181.748 130.83C181.748 130.83 178.095 100.165 162.417 81.8645C160.333 79.4326 156.346 80.9805 156.413 84.1853C156.413 84.2377 156.415 84.2921 156.417 84.3466C156.62 89.8177 174.174 112.892 181.748 130.83Z" fill="#AEC3FF"/>
</g>
<g opacity="0.5">
<path d="M183.654 139.611C183.654 139.611 168.031 101.281 141.348 84.3296C139.72 83.2948 137.518 83.6697 136.427 85.2617C135.716 86.2985 135.396 87.9176 136.195 90.4458C138.32 97.1884 168.081 119.882 183.657 139.611H183.654Z" fill="#AEC3FF"/>
</g>
</g>
<path d="M378.253 129.864C378.253 129.864 364.264 121.232 371.398 110.6C371.398 110.6 377.022 104.123 382.821 102.638C382.821 102.638 379.095 118.779 382.134 119.288C385.172 119.797 384.993 101.002 384.993 101.002C384.993 101.002 400.378 94.3561 406.273 95.1751C406.273 95.1751 396.261 110.671 399.333 110.416C402.403 110.16 413.569 94.5195 413.569 94.5195C413.569 94.5195 429.155 92.2908 431.257 101.58C433.359 110.87 429.161 115.296 426.845 115.776C424.53 116.255 409.836 115.453 410.139 117.382C410.442 119.311 420.246 122.786 425.853 121.293C425.853 121.293 419.119 136.158 411.13 135.061C403.143 133.963 400.865 128.884 395.916 128.295C390.967 127.707 387.285 128.896 389.711 130.337C392.138 131.781 400.576 131.228 404.447 134.812C408.315 138.395 411.475 140.635 403.964 141.856C396.453 143.077 383.128 141.567 380.692 135.714L378.255 129.862L378.253 129.864Z" fill="#82B378"/>
<path d="M424.071 104.159C424.071 104.159 383.437 115.51 378.252 129.864C378.252 129.864 378.175 136.379 373.857 143.676L373.738 146.548C373.738 146.548 378.342 136.961 380.689 135.717C380.689 135.717 372.236 122.713 424.071 104.159Z" fill="#82B378"/>
<path d="M373.858 143.676C373.858 143.676 367.285 152.832 370.338 164.434L371.947 164.071C371.947 164.071 370.923 151.388 374.422 145.176C377.92 138.963 373.86 143.676 373.86 143.676H373.858Z" fill="#82B378"/>
<path d="M321.649 129.519C321.649 129.519 298.157 131.601 297.275 113.229C297.275 113.229 298.21 100.94 303.616 94.2458C303.616 94.2458 313.133 116.034 317.068 114.009C321.003 111.983 304.717 90.4964 304.717 90.4964C304.717 90.4964 316.746 69.6214 324.234 65.4992C324.234 65.4992 325.962 91.9459 329.279 89.0134C332.595 86.0789 332.073 58.476 332.073 58.476C332.073 58.476 348.11 42.515 358.48 51.4045C368.847 60.2941 367.8 68.9993 365.543 71.5401C363.288 74.0809 345.682 85.7877 347.682 87.7483C349.682 89.7088 363.94 85.285 369.121 78.7477C369.121 78.7477 374.084 101.652 363.947 107.253C353.809 112.854 346.844 108.963 340.641 112.538C334.441 116.114 331.216 120.648 335.245 120.223C339.274 119.798 348.518 111.91 356.037 112.712C363.556 113.512 369.111 113.376 361.508 121.239C353.905 129.1 337.268 138.813 329.459 134.169L321.647 129.523L321.649 129.519Z" fill="#A8D29F"/>
<path d="M352.415 60.5459C352.415 60.5459 315.338 108.538 321.649 129.52C321.649 129.52 327.133 137.087 328.403 149.201L330.723 152.609C330.723 152.609 327.822 137.615 329.461 134.166C329.461 134.166 308.604 126.457 352.415 60.5459Z" fill="#A8D29F"/>
<path d="M328.402 149.203C328.402 149.203 328.668 165.392 342.107 176.129L343.65 174.33C343.65 174.33 331.621 160.606 330.333 150.447C329.046 140.288 328.402 149.203 328.402 149.203Z" fill="#A8D29F"/>
<path d="M100.902 310.525C100.902 310.525 94.3214 302.832 100.497 297.945C100.497 297.945 105.007 295.21 108.685 295.432C108.685 295.432 103.475 304.189 105.159 305.061C106.846 305.932 110.263 294.883 110.263 294.883C110.263 294.883 120.526 293.886 123.828 295.476C123.828 295.476 115.054 302.673 116.902 303.1C118.749 303.527 128.227 296.466 128.227 296.466C128.227 296.466 137.779 298.096 137.269 303.936C136.759 309.776 133.468 311.579 132.022 311.424C130.576 311.269 122.114 308.031 121.93 309.218C121.746 310.406 126.839 314.29 130.406 314.47C130.406 314.47 123.673 321.914 119.196 319.765C114.72 317.616 114.34 314.212 111.55 312.934C108.76 311.657 106.378 311.661 107.531 312.964C108.683 314.266 113.732 315.532 115.328 318.361C116.923 321.189 118.354 323.097 113.725 322.4C109.094 321.702 101.569 318.305 101.237 314.417L100.906 310.528L100.902 310.525Z" fill="#BBD0FF"/>
<path d="M132.574 304.091C132.574 304.091 106.631 303.09 100.901 310.526C100.901 310.526 99.6347 314.329 95.7351 317.792L95.127 319.453C95.127 319.453 99.6221 314.702 101.231 314.415C101.231 314.415 98.7152 305.203 132.574 304.091Z" fill="#BBD0FF"/>
<path d="M95.7353 317.794C95.7353 317.794 90.1659 321.922 89.7793 329.298L90.7908 329.388C90.7908 329.388 92.5692 321.761 95.7833 318.778C98.9975 315.796 95.7353 317.794 95.7353 317.794Z" fill="#BBD0FF"/>
<path d="M77.8975 300.85C77.8975 300.85 88.3633 294.975 83.4794 287.003C83.4794 287.003 79.5715 282.108 75.3856 280.849C75.3856 280.849 77.6175 292.738 75.3856 293.018C73.1516 293.299 73.8496 279.59 73.8496 279.59C73.8496 279.59 62.8237 274.274 58.4978 274.695C58.4978 274.695 65.3357 286.305 63.1038 286.025C60.8718 285.744 53.1959 273.995 53.1959 273.995C53.1959 273.995 41.8921 271.896 40.0782 278.612C38.2642 285.325 41.1941 288.683 42.8702 289.104C44.5441 289.523 55.2899 289.382 55.012 290.781C54.732 292.181 47.4761 294.418 43.4282 293.159C43.4282 293.159 47.8941 304.21 53.756 303.649C59.6179 303.089 61.4319 299.453 65.0598 299.172C68.6877 298.892 71.3397 299.872 69.5258 300.85C67.7118 301.828 61.5719 301.171 58.6399 303.667C55.71 306.164 53.336 307.704 58.7799 308.822C64.2218 309.941 73.9917 309.241 75.9457 305.046L77.8996 300.85H77.8975Z" fill="#AEC3FF"/>
<path d="M45.2402 280.708C45.2402 280.708 74.5478 290.22 77.8978 300.85C77.8978 300.85 77.7577 305.605 80.6897 311.061V313.16C80.6897 313.16 77.6198 306.026 75.9438 305.047C75.9438 305.047 82.5037 295.817 45.2402 280.708Z" fill="#AEC3FF"/>
<path d="M80.6906 311.061C80.6906 311.061 85.2108 317.94 82.6341 326.314L81.4722 326.002C81.4722 326.002 82.6007 316.78 80.2371 312.14C77.8735 307.501 80.6927 311.061 80.6927 311.061H80.6906Z" fill="#AEC3FF"/>
<path d="M94.5487 292.748C94.5487 292.748 80.7518 285.004 87.1905 274.494C87.1905 274.494 92.3419 268.04 97.8611 266.381C97.8611 266.381 94.9186 282.053 97.8611 282.422C100.804 282.79 99.884 264.72 99.884 264.72C99.884 264.72 114.417 257.714 120.12 258.267C120.12 258.267 111.106 273.57 114.049 273.201C116.991 272.833 127.11 257.345 127.11 257.345C127.11 257.345 142.011 254.578 144.403 263.43C146.794 272.28 142.932 276.706 140.723 277.259C138.516 277.812 124.349 277.627 124.717 279.47C125.085 281.314 134.652 284.265 139.985 282.604C139.985 282.604 134.098 297.17 126.372 296.433C118.646 295.695 116.254 290.901 111.472 290.532C106.688 290.164 103.194 291.454 105.585 292.744C107.976 294.034 116.072 293.167 119.934 296.458C123.798 299.751 126.924 301.778 119.75 303.253C112.575 304.727 99.6981 303.806 97.1213 298.274L94.5467 292.742L94.5487 292.748Z" fill="#D2E0FF"/>
<path d="M137.595 266.196C137.595 266.196 98.9631 278.735 94.5473 292.748C94.5473 292.748 94.7313 299.017 90.8672 306.208V308.973C90.8672 308.973 94.9152 299.57 97.122 298.278C97.122 298.278 88.4764 286.108 137.593 266.194L137.595 266.196Z" fill="#D2E0FF"/>
<path d="M90.87 306.208C90.87 306.208 84.912 315.275 88.3079 326.314L89.8398 325.901C89.8398 325.901 88.3518 313.744 91.4698 307.628C94.5857 301.514 90.87 306.208 90.87 306.208Z" fill="#D2E0FF"/>
<path d="M94.086 350.252C109.014 350.252 121.114 338.124 121.114 323.162H67.0605C67.0605 338.122 79.1606 350.252 94.0881 350.252H94.086Z" fill="#C0D4FF"/>
<path d="M121.485 351.63H66.6855C66.6855 349.785 68.1777 348.287 70.0209 348.287H118.151C119.993 348.287 121.487 349.783 121.487 351.63H121.485Z" fill="#C0D4FF"/>
<path d="M121.728 323.162H66.1699V323.994H121.728V323.162Z" fill="#86A2E2"/>
<path d="M278.438 198.496L266.344 342.629C266.344 342.629 265.078 351.366 271.56 351.383C282.22 351.408 324.623 351.383 324.623 351.383C324.623 351.383 316.6 349.565 316.696 345.472C316.811 340.648 330.832 197.133 330.832 197.133L278.436 198.496H278.438Z" fill="#798EE8"/>
<path d="M328.617 348.761C326.521 348.767 285.468 348.836 275.086 348.702C270.562 348.645 269.768 344.67 269.73 342.095C269.711 340.862 269.868 339.951 269.868 339.951L270.181 336.205L270.984 326.658L271.692 318.223L272.602 307.383L273.368 298.234L281.962 195.818L334.358 194.454C334.358 194.454 328.452 254.515 324.276 298.234C323.81 303.104 323.367 307.775 322.956 312.136C322.822 313.529 322.694 314.888 322.571 316.214C322.184 320.351 321.829 324.149 321.522 327.502C321.359 329.27 321.211 330.912 321.075 332.416C320.542 338.313 320.228 342.077 320.224 342.793C320.224 343.21 320.258 343.599 320.327 343.96C321.188 348.553 327.831 348.761 328.617 348.761Z" fill="#AEC3FF"/>
<path d="M151.193 120.001L180.653 238.605L184.687 254.848L198.409 310.09H453.316L402.744 120.001H151.193Z" fill="#AEC3FF"/>
<path d="M151.195 120.001L147.113 121.365L192.981 314.216L198.41 310.092L151.195 120.001Z" fill="#798EE8"/>
<path d="M192.98 314.216H446.32L453.317 310.092H198.41L192.98 314.216Z" fill="#849DEF"/>
<path d="M281.946 351.375H336.797V348.763H281.946V351.375Z" fill="#AEC3FF"/>
<path d="M322.854 314.216L322.571 316.212L270.984 326.658L271.693 318.223L272.031 314.216H322.854Z" fill="#8C9DF4"/>
<g opacity="0.5">
<path d="M328.617 348.76C326.521 348.767 285.469 348.836 275.087 348.702C270.562 348.645 269.768 344.67 269.73 342.095L321.073 332.414C320.54 338.31 320.227 342.074 320.222 342.791C320.222 343.208 320.256 343.597 320.325 343.958C321.186 348.551 327.829 348.758 328.615 348.758L328.617 348.76Z" fill="#8C9DF4"/>
</g>
<path d="M151.193 120.001H402.744L443.558 272.774H189.138L151.193 120.001Z" fill="#8C9DF4"/>
<path d="M431.695 266.153H196.166L187.751 232.547L184.495 219.543L183.166 214.242L174.516 179.706L174.069 177.909L169.494 159.654L167.448 151.485L165.705 144.516L164.28 138.836L161.611 128.187H393.746L396.676 138.836L398.237 144.516L400.153 151.485L402.4 159.654L417.202 213.465V213.467L418.454 218.027L419.037 220.142L429.256 257.293L431.695 266.153Z" fill="#505ABA"/>
<path d="M338.347 260.066H217.163L210.505 227.354L207.928 217.069L206.879 212.874L200.035 185.554L199.682 184.132L196.062 169.691L194.445 163.229L193.065 157.718L191.937 153.223L189.828 144.799H308.404L338.347 260.066Z" fill="#5E6ECC"/>
<path d="M284.71 272.774L198.495 310.536L189.139 272.774H284.71Z" fill="#8C9DF4"/>
<path d="M481.048 189.579C481.061 189.24 481.324 185.575 486.893 185.382C486.893 185.382 484.154 185.709 483.681 186.917C483.681 186.917 485.545 185.426 487.065 185.905C488.584 186.385 489.476 189.052 489.485 189.929C489.493 190.807 488.649 193.635 487.685 193.876C487.32 193.966 486.9 193.943 486.517 193.876C486.774 194.278 487.025 194.72 487.265 195.214C489.487 199.787 487.196 204.256 485.313 203.762C484.106 203.446 483.765 205.509 483.765 205.509L472.041 195.995C472.041 195.995 476.348 187.064 481.046 189.577L481.048 189.579Z" fill="#2C3A64"/>
<path d="M449.098 246.756C450.078 247.625 452.678 244.64 453.037 244.245C453.056 244.207 453.075 244.188 453.075 244.188L452.283 241.978C452.283 241.978 448.872 241.846 448.306 242.412C447.741 242.979 448.024 245.83 449.098 246.756Z" fill="#FFB27D"/>
<path d="M476.967 324.299L479.458 325.229C479.458 325.229 490.275 310.191 491.606 296.964C491.844 294.601 491.355 289.595 491.541 288.525C491.627 288.026 491.731 287.425 491.853 286.736C492.204 284.717 492.688 281.954 493.24 278.808C494.513 271.567 496.162 262.313 497.443 255.507L496.772 255.291L489.512 252.943L488.011 248.168L482.605 246.741C482.605 246.741 481.397 249.108 480.319 260.295C480.12 261.762 479.938 263.381 479.803 265.136C479.383 270.492 479.351 277.134 480.317 284.729C480.565 286.673 481.594 294.314 481.474 296.681C480.929 307.496 476.969 324.303 476.969 324.303L476.967 324.299Z" fill="#2B478B"/>
<path d="M479.801 265.132L491.539 288.525C491.625 288.026 491.729 287.425 491.851 286.736C492.202 284.717 492.687 281.954 493.238 278.808C494.511 271.567 496.16 262.313 497.441 255.507L496.77 255.291L489.51 252.943L488.01 248.168L482.603 246.741C482.603 246.741 481.395 249.108 480.317 260.295C480.118 261.762 479.937 263.381 479.801 265.136V265.132Z" fill="#233862"/>
<path d="M484.967 249.741L485.238 247.406C489.792 248.618 501.957 244.019 501.957 244.019C501.957 244.019 506.369 247.904 505.79 257.219C505.508 261.766 504.991 281.085 504.452 286.803C504.258 288.875 505.599 294.208 506.139 295.647C511.432 309.783 505.324 327.192 505.324 327.192L503.74 326.551C503.74 326.551 493.713 290.111 492.678 286.25C490.724 278.953 489.151 269.458 488.102 262.129C487.957 262.135 484.971 249.741 484.971 249.741H484.967Z" fill="#2B478B"/>
<path d="M481.51 222.639C489.338 223.068 487.618 211.374 487.14 211.433C486.182 210.932 484.463 208.496 483.468 204.422L483.129 204.579L477.48 207.241C477.48 207.241 478.08 209.082 478.523 210.846C478.868 212.226 479.117 213.559 478.91 213.931C478.465 214.114 478.197 214.227 478.197 214.227C478.197 214.227 478.197 214.227 478.197 214.233C478.141 214.378 479.422 222.526 481.51 222.639Z" fill="#FFB27D"/>
<path d="M477.482 207.243C477.482 207.243 478.082 209.084 478.525 210.848C481.827 209.924 482.828 206.447 483.131 204.581L477.482 207.241V207.243Z" fill="#ED985F"/>
<path d="M476.788 209.192C476.788 209.192 484.687 207.359 483.473 202.447C482.259 197.535 482.461 193.989 477.366 194.952C472.271 195.914 471.759 198.031 471.766 199.77C471.774 201.509 474.702 209.544 476.788 209.194V209.192Z" fill="#FFB27D"/>
<path d="M471.323 196.979C472.171 195.199 473.17 195.293 473.797 195.609C477.509 192.168 481.149 194.979 481.149 194.979C482.549 198.372 485.586 199.757 485.586 199.757C485.586 199.757 484.372 201.003 480.856 200.974C479.782 200.965 478.702 200.471 477.72 199.79C479.615 201.705 481.839 202.869 481.839 202.869C477.435 202.025 474.485 196.917 474.182 196.374C473.81 196.927 473.095 198.102 473.034 199.093C472.953 200.442 473.417 203.06 472.646 203.159C472.646 203.159 470.05 199.648 471.325 196.977L471.323 196.979Z" fill="#2C3A64"/>
<path d="M496.105 328.488H508.649C508.649 328.488 508.949 326.572 508.293 325.118C507.666 323.723 506.682 323.089 506.918 321.402C506.122 322.226 504.822 323.145 503.008 322.902C502.787 323.262 501.575 325.196 500.833 325.73C500.013 326.32 496.358 326.109 496.105 328.488Z" fill="#233862"/>
<path d="M469.174 328.489H481.717C481.717 328.489 482.185 326.484 481.362 325.118C480.632 323.912 480.912 323.223 481.452 322.224C480.883 322.456 480.148 322.668 479.339 322.622C478.714 322.586 478.054 322.301 477.473 321.964C476.933 322.58 474.622 325.206 473.899 325.726C473.08 326.317 469.425 326.105 469.172 328.484L469.174 328.489Z" fill="#233862"/>
<path d="M502.188 229.167C501.513 226.974 500.817 224.871 500.11 222.93C498.505 218.516 497.483 216.212 496.618 214.428C494.972 211.032 487.607 211.246 487.607 211.246C486.188 216.369 482.291 219.561 482.291 219.561C480.213 218.338 478.665 214.038 478.665 214.038L474.117 216.464C474.101 216.48 472.709 217.303 471.482 220.839C469.658 226.101 466.696 233.57 464.642 235.856C464.164 236.388 462.759 237.194 461.06 238.051C461.025 238.107 460.995 238.137 460.977 238.137C461.085 238.388 461.583 239.573 462.381 240.778C463.029 241.756 463.881 242.745 464.891 243.256C465.666 242.881 467.062 242.33 467.654 241.966C469.793 240.654 472.983 238.763 475.476 234.779L476.172 244.15L477.43 261.102C479.365 261.705 481.206 262.177 482.953 262.539C483.068 261.119 483.526 259.418 483.526 259.418C483.507 260.31 484.545 262.015 485.162 262.943C501.224 265.522 508.754 258.5 508.754 258.5C508.129 252.284 505.423 239.712 502.183 229.172L502.188 229.167Z" fill="#8C9DF4"/>
<path d="M485.984 210.297C485.984 210.297 487.319 210.387 487.607 211.244C487.607 211.244 485.864 218.279 482.293 219.559L485.984 210.297Z" fill="#707FE5"/>
<path d="M482.292 219.56C482.292 219.56 478.881 213.389 478.894 212.556C478.894 212.556 477.596 213.708 477.682 214.562C477.682 214.562 480.555 219.175 482.292 219.56Z" fill="#707FE5"/>
<path d="M491.438 217.057C491.342 217.39 484.379 234.067 478.134 240.217C475.401 242.908 484.111 242.131 484.195 241.631C484.278 241.13 491.438 217.057 491.438 217.057Z" fill="#707FE5"/>
<path d="M476.395 244.675L476.99 254.084C496.035 249.649 494.436 219.248 494.436 219.248L484.873 239.04L476.48 244.538C476.48 244.538 476.449 244.585 476.395 244.673V244.675Z" fill="#707FE5"/>
<path d="M460.953 238.106C460.958 238.126 460.966 238.135 460.978 238.135C460.972 238.12 460.966 238.108 460.964 238.099C460.949 238.07 460.945 238.07 460.953 238.104V238.106Z" fill="#AEC3FF"/>
<path d="M470.375 225.15L474.168 242.092C474.772 244.789 472.735 246.976 469.615 246.976H378.561C375.443 246.976 372.426 244.789 371.822 242.092L368.029 225.15C368.006 225.046 367.985 224.945 367.974 224.84C367.584 222.285 369.584 220.266 372.583 220.266H463.636C466.635 220.266 469.539 222.287 470.292 224.84C470.327 224.945 470.352 225.046 470.375 225.15Z" fill="#F99746"/>
<path d="M378.762 239.337H377.869L375.51 228.797H376.402L378.762 239.337Z" fill="#EBF3FA"/>
<path d="M384.915 233.148H378.516L377.85 230.165H384.249L384.915 233.148Z" fill="#EBF3FA"/>
<path d="M387.897 237.424H379.473L378.807 234.439H387.231L387.897 237.424Z" fill="#EBF3FA"/>
<path d="M399.232 239.337H398.338L395.979 228.797H396.873L399.232 239.337Z" fill="#EBF3FA"/>
<path d="M400.599 233.148H394.2L393.531 230.165H399.93L400.599 233.148Z" fill="#EBF3FA"/>
<path d="M402.567 237.424H394.143L393.477 234.439H401.901L402.567 237.424Z" fill="#EBF3FA"/>
<path d="M419.701 239.337H418.807L416.447 228.797H417.342L419.701 239.337Z" fill="#EBF3FA"/>
<path d="M416.279 233.148H409.88L409.211 230.165H415.61L416.279 233.148Z" fill="#EBF3FA"/>
<path d="M417.235 237.424H408.811L408.143 234.439H416.567L417.235 237.424Z" fill="#EBF3FA"/>
<path d="M432.799 229.649H422.283L422.082 228.755H432.598L432.799 229.649Z" fill="#EBF3FA"/>
<path d="M426.812 230.489L428.248 236.903H425.272L423.836 230.489H426.812Z" fill="#EBF3FA"/>
<path d="M431.077 230.489L432.969 238.933H429.991L428.102 230.489H431.077Z" fill="#EBF3FA"/>
<path d="M449.349 234.515H438.833L438.633 233.62H449.149L449.349 234.515Z" fill="#EBF3FA"/>
<path d="M442.355 230.859L443.793 237.275H440.815L439.379 230.859H442.355Z" fill="#EBF3FA"/>
<path d="M446.394 229.846L448.285 238.289H445.307L443.418 229.846H446.394Z" fill="#EBF3FA"/>
<path d="M465.91 239.418H455.394L455.193 238.523H465.709L465.91 239.418Z" fill="#EBF3FA"/>
<path d="M457.968 231.194L459.404 237.608H456.428L454.992 231.194H457.968Z" fill="#EBF3FA"/>
<path d="M461.781 229.165L463.67 237.608H460.694L458.803 229.165H461.781Z" fill="#EBF3FA"/>
<path d="M461.229 245.46C462.267 245.455 463.904 245.384 464.85 245.02C464.85 245.02 461.826 244.976 462.468 244.019C462.585 243.845 464.088 243.977 465.768 243.977C466.455 243.977 468.156 244.921 468.069 244.965C469.285 244.804 470.39 244.567 470.748 244.49C470.842 244.471 470.879 244.452 470.879 244.452L471.954 247.588C471.954 247.588 471.728 247.644 471.331 247.72C470.332 247.965 468.278 248.495 466.336 249.251C463.622 250.328 461.626 248.989 460.721 248.042C460.146 247.441 459.695 246.645 459.726 246.067C459.76 245.435 460.593 245.464 461.227 245.46H461.229Z" fill="#FFB27D"/>
<path d="M468.525 245.701L469.186 248.118C469.186 248.118 470.015 247.967 471.334 247.722C471.729 247.644 471.955 247.588 471.955 247.588C473.01 247.38 474.272 247.098 475.647 246.794H475.668C478.024 246.228 480.661 245.548 482.887 244.792C483.085 244.722 483.282 244.651 483.474 244.582C484.788 244.096 482.247 237.406 481.098 238.237C480.793 238.46 480.467 238.688 480.124 238.922C478.218 240.221 475.79 241.666 473.635 242.883C472.58 243.489 471.581 244.035 470.751 244.49C469.414 245.227 468.527 245.699 468.527 245.699L468.525 245.701Z" fill="#FFB27D"/>
<path d="M480.123 238.922C480.123 238.922 479.985 243.491 484.251 245.711C489.183 243.926 491.82 236.555 493.855 231.493C494.137 230.795 494.403 230.096 494.664 229.415C495.607 226.885 496.361 224.39 496.812 222.237C497.095 220.953 491.611 214.474 490.913 216.005C489.839 218.441 488.708 221.596 487.653 224.731C487.068 226.451 486.503 228.171 485.937 229.756C485.615 230.72 485.295 231.625 484.995 232.456C484.409 234.044 483.883 235.328 483.413 236.141C483.11 236.671 482.244 237.406 481.095 238.237C480.79 238.459 480.464 238.688 480.121 238.922H480.123Z" fill="#8C9DF4"/>
<path d="M396.676 138.836H164.28L161.611 128.187H393.746L396.676 138.836Z" fill="#3D4CA5"/>
<path d="M176.056 133.606C176.359 134.561 175.755 135.341 174.711 135.347C173.664 135.353 172.571 134.586 172.27 133.631C171.967 132.676 172.571 131.897 173.616 131.891C174.66 131.884 175.755 132.651 176.056 133.606Z" fill="#EBF3FA"/>
<path d="M183.892 133.551C184.195 134.507 183.591 135.286 182.547 135.292C181.502 135.298 180.407 134.532 180.106 133.577C179.803 132.621 180.407 131.842 181.451 131.836C182.498 131.83 183.591 132.596 183.892 133.551Z" fill="#EBF3FA"/>
<path d="M191.73 133.497C192.033 134.452 191.429 135.231 190.384 135.237C189.337 135.244 188.244 134.477 187.943 133.522C187.64 132.567 188.244 131.788 189.289 131.781C190.336 131.775 191.429 132.542 191.73 133.497Z" fill="#EBF3FA"/>
<path d="M194.445 163.23C194.445 163.23 221.799 163.334 241.636 178.575C261.472 193.817 258.613 207.493 275.073 210.92C302.044 216.538 285.3 187.684 320.325 190.686L338.346 260.064H217.162L207.927 217.068L194.443 163.228L194.445 163.23Z" fill="#F99746"/>
<path d="M281.317 211.905C279.461 211.905 277.378 211.657 275.022 211.167C265.938 209.276 262.588 204.167 258.348 197.699C254.835 192.341 250.461 185.672 241.485 178.774C235.851 174.444 225.91 168.615 210.552 165.431C201.365 163.527 194.512 163.479 194.443 163.479V162.979C194.514 162.979 201.415 163.027 210.652 164.941C219.178 166.709 231.502 170.473 241.788 178.376C250.831 185.324 255.23 192.033 258.764 197.422C263.104 204.041 266.241 208.826 275.123 210.675C287.772 213.31 290.631 208.327 293.944 202.558C297.634 196.132 301.818 188.847 320.346 190.437L320.304 190.935C302.09 189.375 297.994 196.511 294.376 202.808C292.7 205.726 291.116 208.484 288.309 210.187C286.418 211.333 284.132 211.903 281.317 211.903V211.905Z" fill="white"/>
<path d="M200.834 188.581L207.789 216.356L217.164 260.066H338.348L332.237 237.371C332.237 237.371 314.298 227.35 289.971 236.085C265.643 244.819 238.712 236.757 236.979 217.112C235.025 194.959 214.719 184.289 200.834 188.583V188.581Z" fill="#ED7B2E"/>
<path d="M231.449 201.72C224.483 190.926 211.637 185.499 200.904 188.819L200.758 188.342C211.7 184.959 224.784 190.47 231.869 201.45L231.451 201.722L231.449 201.72Z" fill="white"/>
<path d="M276.982 209.17L273.045 208.762L272.638 212.708L276.575 213.116L276.982 209.17Z" fill="white"/>
<path d="M244.051 204.135L243.918 204.779L310.263 218.587L310.396 217.943L244.051 204.135Z" fill="white"/>
<path d="M242.867 204.351C242.932 203.725 243.49 203.27 244.115 203.335C244.74 203.4 245.193 203.959 245.129 204.586C245.064 205.212 244.506 205.667 243.881 205.602C243.256 205.537 242.803 204.977 242.867 204.351Z" fill="white"/>
<path d="M309.211 218.163C309.276 217.536 309.834 217.082 310.459 217.147C311.084 217.212 311.537 217.771 311.472 218.397C311.408 219.024 310.85 219.478 310.225 219.413C309.6 219.348 309.146 218.789 309.211 218.163Z" fill="white"/>
<path d="M231.025 170.284L228.145 167.562L225.429 170.449L228.31 173.171L231.025 170.284Z" fill="white"/>
<path d="M216.764 158.384L216.301 158.85L238.799 181.313L239.262 180.847L216.764 158.384Z" fill="white"/>
<path d="M215.65 157.892C216.045 157.404 216.762 157.329 217.249 157.725C217.735 158.121 217.811 158.839 217.416 159.327C217.021 159.815 216.304 159.89 215.817 159.495C215.33 159.099 215.255 158.38 215.65 157.892Z" fill="white"/>
<path d="M238.148 180.357C238.543 179.869 239.26 179.794 239.747 180.189C240.234 180.585 240.309 181.304 239.914 181.792C239.519 182.28 238.802 182.355 238.315 181.959C237.828 181.564 237.753 180.845 238.148 180.357Z" fill="white"/>
<path d="M303.015 189.879L301.469 193.531L305.112 195.081L306.659 191.43L303.015 189.879Z" fill="white"/>
<path d="M308.078 183.106L299.646 201.564L300.243 201.838L308.675 183.38L308.078 183.106Z" fill="white"/>
<path d="M299.572 202.763C298.979 202.56 298.659 201.915 298.862 201.318C299.062 200.723 299.708 200.403 300.304 200.606C300.897 200.807 301.217 201.454 301.014 202.051C300.812 202.646 300.168 202.967 299.572 202.763Z" fill="white"/>
<path d="M307.996 184.302C307.403 184.098 307.083 183.453 307.286 182.856C307.486 182.261 308.132 181.941 308.728 182.144C309.321 182.345 309.641 182.992 309.438 183.589C309.235 184.184 308.592 184.505 307.996 184.302Z" fill="white"/>
<path d="M324.446 151.2L330.605 176.715C330.868 177.806 329.84 178.692 328.308 178.692H264.953C263.422 178.692 261.967 177.806 261.704 176.715L255.545 151.2C255.282 150.109 256.31 149.223 257.842 149.223H321.197C322.728 149.223 324.183 150.109 324.446 151.2Z" fill="#D2E0FF"/>
<path d="M271.602 166.125H264.861L263.229 159.365H269.97L271.602 166.125Z" fill="#2B478B"/>
<path d="M275.79 169.503H269.046L267.416 162.746H274.158L275.79 169.503Z" fill="#2B478B"/>
<path d="M287.345 166.125H280.601L278.971 159.365H285.712L287.345 166.125Z" fill="#2B478B"/>
<path d="M291.53 169.503H284.788L283.156 162.746H289.9L291.53 169.503Z" fill="#739AF0"/>
<path d="M291.887 169.792H284.569L282.799 162.457H290.117L291.887 169.792ZM285.006 169.216H291.173L289.681 163.035H283.514L285.006 169.216Z" fill="#1F3B72"/>
<path d="M303.085 166.125H296.343L294.711 159.365H301.455L303.085 166.125Z" fill="#739AF0"/>
<path d="M303.442 166.413H296.124L294.354 159.078H301.672L303.442 166.413ZM296.56 165.835H302.727L301.235 159.654H295.068L296.56 165.835Z" fill="#2B478B"/>
<path d="M307.272 169.503H300.528L298.898 162.746H305.64L307.272 169.503Z" fill="#739AF0"/>
<path d="M307.63 169.792H300.311L298.541 162.457H305.86L307.63 169.792ZM300.748 169.216H306.915L305.423 163.035H299.256L300.748 169.216Z" fill="#2B478B"/>
<path d="M303.441 166.399H299.471L298.518 162.455H302.488L303.441 166.399Z" fill="#2B478B"/>
<path d="M318.829 166.125H312.085L310.455 159.365H317.197L318.829 166.125Z" fill="#2B478B"/>
<path d="M323.017 169.503H316.273L314.641 162.746H321.384L323.017 169.503Z" fill="#2B478B"/>
<path d="M318.639 165.961H315.55L314.809 162.893H317.897L318.639 165.961Z" fill="#739AF0"/>
<path d="M149.165 231.767H125.817C122.704 231.767 119.621 229.237 118.931 226.116L101.364 146.621C100.675 143.5 102.639 140.97 105.753 140.97H129.1C132.214 140.97 135.297 143.5 135.986 146.621L153.553 226.116C154.243 229.237 152.279 231.767 149.165 231.767Z" fill="#3D4CA5"/>
<path d="M138.704 158.848H104.082V158.998H138.704V158.848Z" fill="#AEC3FF"/>
<path d="M142.843 177.577H108.221V177.728H142.843V177.577Z" fill="#AEC3FF"/>
<path d="M146.983 196.31H112.361V196.46H146.983V196.31Z" fill="#AEC3FF"/>
<path d="M125.261 153.324C125.305 152.922 123.516 146.03 123.516 146.03L129.862 151.183L126.744 151.072L125.261 153.326V153.324Z" fill="white"/>
<path d="M144.387 223.623H132.09L129.369 211.315H141.666L144.384 223.623H144.387ZM132.64 222.936H143.536L141.12 211.998H130.224L132.64 222.936Z" fill="#D2E0FF"/>
<path d="M135.553 216.623H123.957L121.389 205H132.985L135.553 216.623Z" fill="#F77D48"/>
<path d="M141.002 211.344L131.975 222.967L132.756 223.577L141.784 211.954L141.002 211.344Z" fill="#F77D48"/>
<path d="M109.651 153.324C109.695 152.922 107.906 146.03 107.906 146.03L114.253 151.183L111.135 151.072L109.651 153.326V153.324Z" fill="#D2E0FF"/>
<path d="M112.109 166.978H111.175L110.805 165.305H117.147L117.503 166.911H116.568L116.42 166.241H111.946L112.109 166.978Z" fill="#D2E0FF"/>
<path d="M115.716 171.06H114.78L113.611 165.773H114.548L115.716 171.06Z" fill="#D2E0FF"/>
<path d="M116.556 171.393H114.086L113.879 170.457H116.349L116.556 171.393Z" fill="#D2E0FF"/>
<path d="M129.206 171.979L128.361 171.369L132.817 164.344L133.661 164.953L129.206 171.979Z" fill="#D2E0FF"/>
<path d="M118.499 188.354C116.715 188.354 114.942 186.9 114.547 185.112C114.152 183.323 115.283 181.869 117.066 181.869C118.848 181.869 120.623 183.323 121.018 185.112C121.412 186.9 120.282 188.354 118.499 188.354ZM117.254 182.724C115.941 182.724 115.11 183.794 115.4 185.11C115.691 186.425 116.995 187.495 118.307 187.495C119.619 187.495 120.451 186.425 120.161 185.11C119.87 183.794 118.566 182.724 117.254 182.724Z" fill="#D2E0FF"/>
<path d="M124.654 191.168C124.543 191.168 124.42 191.124 124.317 191.038L120.016 187.408C119.816 187.238 119.759 186.966 119.893 186.802C120.027 186.639 120.298 186.643 120.499 186.813L124.8 190.443C125.001 190.612 125.057 190.885 124.923 191.048C124.858 191.128 124.76 191.168 124.654 191.168Z" fill="#D2E0FF"/>
<path d="M133.975 181.569L135.576 184.506H138.659L136.567 186.322L138.168 189.261L135.273 187.445L133.181 189.261L133.484 186.322L130.59 184.506H133.672L133.975 181.569Z" fill="#D2E0FF"/>
<path d="M431.618 155.855C431.618 155.855 431.702 160.484 431.01 160.399C430.317 160.313 429.376 156.517 429.37 156.574C429.361 156.63 429.683 160.564 428.812 160.761C427.94 160.958 427.056 156.597 427.056 156.597C427.056 156.597 427.642 160.34 427.027 160.438C426.415 160.539 425.449 156.909 425.196 156.898C424.944 156.888 426.009 160.011 425.263 160.17C424.517 160.329 422.85 155.937 423.416 155.378C423.98 154.818 424.86 155.418 424.86 155.418C424.86 155.418 425.945 154.611 426.778 155.068C426.778 155.068 428.732 154.676 429.32 155.545C429.32 155.545 430.538 154.494 431.618 155.857V155.855Z" fill="#ED917E"/>
<path d="M444.223 138.124L460.066 195.382C460.743 197.833 459.197 199.819 456.612 199.819H349.67C347.085 199.819 344.439 197.833 343.762 195.382L327.919 138.124C327.242 135.673 328.788 133.688 331.373 133.688H438.315C440.9 133.688 443.546 135.673 444.223 138.124Z" fill="#D2E0FF"/>
<path d="M361.054 163.957H347.243L343.412 150.113H357.224L361.054 163.957Z" fill="#B3C2FF"/>
<path d="M356.733 160.566H349.688L347.734 153.505H354.779L356.733 160.566Z" fill="#505ABA"/>
<path d="M356.789 149.803L346.809 163.646L347.688 164.283L357.668 150.439L356.789 149.803Z" fill="#F77D48"/>
<path d="M351.224 156.452H337.413L333.582 142.61H347.394L351.224 156.452Z" fill="#F77D48"/>
<path d="M359.07 180.291H347.967L344.889 169.162H355.992L359.07 180.291Z" fill="#F77D48"/>
<path d="M370.07 180.291H358.967L355.889 169.162H366.992L370.07 180.291Z" fill="#ED7D2B"/>
<path d="M381.174 180.291H370.07L366.992 169.162H378.095L381.174 180.291Z" fill="#FF8939"/>
<path d="M392.279 180.291H381.174L378.096 169.162H389.199L392.279 180.291Z" fill="#739AF0"/>
<path d="M403.383 180.291H392.28L389.199 169.162H400.302L403.383 180.291Z" fill="#8C9DF4"/>
<path d="M414.486 180.291H403.383L400.303 169.162H411.406L414.486 180.291Z" fill="#6B80DD"/>
<path d="M425.59 180.291H414.487L411.406 169.162H422.509L425.59 180.291Z" fill="#505ABA"/>
<path d="M436.691 180.291H425.588L422.508 169.162H433.611L436.691 180.291Z" fill="#2B478B"/>
<path d="M362.15 191.42H351.047L347.967 180.291H359.07L362.15 191.42Z" fill="#A4B5FF"/>
<path d="M373.15 191.42H362.047L358.967 180.291H370.07L373.15 191.42Z" fill="#8C9DF4"/>
<path d="M384.254 191.42H373.151L370.07 180.291H381.173L384.254 191.42Z" fill="#505ABA"/>
<path d="M395.357 191.42H384.254L381.174 180.291H392.279L395.357 191.42Z" fill="#2B478B"/>
<path d="M437.236 147.384H379.074C378.276 147.384 377.44 146.729 377.219 145.928C376.997 145.128 377.469 144.473 378.27 144.473H436.431C437.23 144.473 438.066 145.128 438.287 145.928C438.509 146.729 438.036 147.384 437.236 147.384Z" fill="#FF8939"/>
<path d="M439.273 154.741H381.112C380.311 154.741 379.477 154.085 379.256 153.285C379.034 152.485 379.507 151.829 380.307 151.829H438.469C439.267 151.829 440.103 152.485 440.324 153.285C440.546 154.085 440.074 154.741 439.273 154.741Z" fill="#739AF0"/>
<path d="M441.308 162.095H383.147C382.348 162.095 381.512 161.439 381.291 160.639C381.069 159.839 381.542 159.184 382.34 159.184H440.502C441.3 159.184 442.136 159.839 442.357 160.639C442.579 161.439 442.107 162.095 441.306 162.095H441.308Z" fill="#505ABA"/>
<path d="M369.186 143.786H370.937C371.856 143.786 372.533 144.28 372.742 145.041C372.922 145.688 372.642 146.076 372.134 146.233L373.608 147.724H372.795L371.438 146.352H370.586L370.966 147.724H370.276L369.188 143.786H369.186ZM371.426 145.738C371.919 145.738 372.164 145.479 372.049 145.068C371.932 144.647 371.566 144.415 371.054 144.415H370.049L370.414 145.736H371.424L371.426 145.738Z" fill="#505ABA"/>
<path d="M371.205 153.189C370.9 152.088 371.483 151.153 372.668 151.153C373.353 151.153 373.826 151.344 374.325 151.687L374.033 152.211C373.659 151.951 373.316 151.79 372.816 151.79C372.093 151.79 371.719 152.425 371.93 153.191C372.154 154.002 372.852 154.597 373.654 154.597C374.024 154.597 374.329 154.48 374.52 154.299L374.315 153.562H373.31L373.142 152.961H374.814L375.272 154.616C374.977 154.947 374.499 155.229 373.803 155.229C372.574 155.229 371.523 154.352 371.201 153.193L371.205 153.189Z" fill="#505ABA"/>
<path d="M373.4 159.021H375.162C375.611 159.021 375.998 159.144 376.286 159.37C376.508 159.544 376.658 159.758 376.734 160.034C376.863 160.508 376.665 160.759 376.416 160.912C376.92 161.069 377.313 161.333 377.463 161.88C377.657 162.583 377.183 162.96 376.307 162.96H374.489L373.4 159.023V159.021ZM375.48 160.679C375.923 160.679 376.171 160.506 376.069 160.133C375.983 159.823 375.685 159.632 375.239 159.632H374.247L374.535 160.679H375.478H375.48ZM376.144 162.345C376.617 162.345 376.851 162.158 376.75 161.794C376.658 161.463 376.341 161.266 375.795 161.266H374.7L374.999 162.347H376.144V162.345Z" fill="#505ABA"/>
<path d="M222.574 145.077C222.267 145.431 222.227 145.827 222.38 146.248C222.38 146.248 222.38 146.252 222.382 146.254C222.664 147.035 223.596 147.907 224.676 148.778C224.814 148.889 224.937 148.992 225.044 149.086C225.071 149.111 225.1 149.136 225.128 149.159C225.149 149.178 225.169 149.199 225.19 149.216C226.2 150.148 225.819 150.362 227.631 152.253C229.698 154.408 231.121 154.446 231.527 154.251C231.869 154.084 231.173 152.94 230.402 151.656C230.365 151.593 230.329 151.532 230.289 151.47C230.187 151.298 230.085 151.126 229.982 150.954C229.079 149.409 229.311 148.682 229.525 146.382C229.698 144.511 232.427 135.934 232.427 135.934L228.467 135.251C228.467 135.251 227.274 142.082 225.959 143.133C225.257 143.694 224.469 143.701 223.794 144.115C223.746 144.145 223.7 144.174 223.654 144.203C223.27 144.459 222.879 144.721 222.57 145.077H222.574Z" fill="#FFB27D"/>
<path d="M222.574 145.078C222.267 145.432 222.227 145.827 222.38 146.248C222.38 146.248 222.38 146.253 222.382 146.255C222.726 147.034 223.636 147.903 224.68 148.77C224.816 148.883 224.937 148.988 225.044 149.087C225.071 149.112 225.1 149.137 225.128 149.16C225.149 149.179 225.169 149.2 225.19 149.217C226.2 150.149 225.819 150.362 227.631 152.254C229.698 154.409 231.121 154.447 231.527 154.252C231.869 154.084 231.173 152.941 230.402 151.657C229.999 151.508 228.131 150.748 226.718 148.936C225.518 147.403 224.705 145.446 223.888 144.248C223.799 144.231 223.744 144.221 223.656 144.204C223.272 144.46 222.881 144.721 222.572 145.078H222.574Z" fill="#233862"/>
<path d="M254.508 142.598C254.752 143.823 256.495 143.618 258.443 143.142C260.391 142.665 259.927 143.232 262.698 142.924C265.469 142.616 266.309 141.582 266.393 141.169C266.468 140.802 265.099 140.673 263.63 140.503C263.446 140.482 263.26 140.459 263.074 140.436C261.417 140.226 260.203 139.154 258.696 138.274C257.269 137.441 255.141 134.041 255.141 134.041L251.342 134.343C251.342 134.343 253.336 137.378 254.107 138.697C254.56 139.474 254.537 140.501 254.481 141.293C254.451 141.724 254.424 142.164 254.51 142.595L254.508 142.598Z" fill="#FFB27D"/>
<path d="M258.444 143.142C260.392 142.665 259.928 143.232 262.699 142.924C265.47 142.616 266.31 141.582 266.394 141.169C266.469 140.802 265.1 140.673 263.631 140.503L263.616 140.532C263.616 140.532 261.955 141.714 259.648 141.768C257.767 141.814 255.778 141.274 254.478 141.295C254.448 141.726 254.421 142.166 254.507 142.598C254.751 143.823 256.494 143.618 258.442 143.142H258.444Z" fill="#233862"/>
<path d="M239.946 118.243L236.394 127.824L231.756 140.333C231.756 140.333 230.498 140.455 229.293 140.107C228.183 139.785 226.91 138.945 226.91 138.945C226.91 138.945 228.197 125.512 230.601 117.801C231.217 115.822 231.907 114.222 232.668 113.321C236.392 108.91 239.949 118.241 239.949 118.241L239.946 118.243Z" fill="#E58638"/>
<path d="M236.333 103.028C234.31 102.374 229.035 103.017 223.311 104.056C221.729 104.343 220.137 103.618 219.303 102.242L204.9 101.115C204.9 101.115 200.148 111.678 202.749 118.408C203.132 119.397 203.972 120.015 205.266 120.036C205.266 120.036 213.968 120.049 216.751 120.049C223.913 120.049 231.909 115.114 232.943 114.906C234.636 114.567 235.313 117.96 237.006 121.523C238.698 125.086 252.92 137.304 252.92 137.304C252.92 137.304 255.105 137.325 256.008 136.986C256.98 136.621 257.335 136.146 257.335 136.146C257.335 136.146 241.578 104.722 236.328 103.026L236.333 103.028Z" fill="#F99746"/>
<path d="M217.775 59.8514C216.705 59.2125 215.662 59.1162 215.025 59.1329C214.58 59.1455 214.137 59.1162 213.696 59.0513C208.2 58.2427 204.889 66.2463 204.695 68.6635C204.34 73.102 201.995 73.7806 198.697 76.5602C192.085 82.134 194.024 88.6126 197.64 91.0193C199.809 92.4625 203.633 91.0193 203.633 91.0193C203.688 91.057 214.091 85.19 219.219 82.3602C226.908 81.2647 220.862 61.6926 217.773 59.8493L217.775 59.8514Z" fill="#152949"/>
<path d="M214.922 79.9533C214.945 79.9679 212.4 80.8393 210.697 80.0831C209.096 79.373 207.882 76.7317 207.905 76.7317C208.634 76.6982 209.432 76.0594 210.049 71.8701L210.358 71.9811L215.574 73.8621C215.574 73.8621 215.196 75.5399 214.951 77.136C214.747 78.4766 214.636 79.7606 214.92 79.9512L214.922 79.9533Z" fill="#FFB27D"/>
<path d="M215.576 73.8624C215.576 73.8624 215.367 74.7673 215.064 76.4576C212.067 75.9172 210.782 73.6048 210.359 71.9814L215.576 73.8624Z" fill="#ED975D"/>
<path d="M216.354 75.5278C216.354 75.5278 209.217 74.5684 209.882 70.1216C210.546 65.6768 210.074 62.5579 214.659 62.9831C219.244 63.4083 219.873 65.2369 220.011 66.7744C220.149 68.3118 218.228 75.6618 216.354 75.5257V75.5278Z" fill="#FFB27D"/>
<path d="M219.749 64.3404C219.749 64.3404 215.181 68.2867 212.073 68.6051C208.966 68.9235 207.789 67.9243 207.789 67.9243C207.789 67.9243 209.62 66.3994 210.723 63.9404C211.047 63.2156 211.735 62.7171 212.525 62.6501C214.744 62.4574 218.951 62.3715 219.749 64.3425V64.3404Z" fill="#152949"/>
<path d="M216.895 63.986C216.895 63.986 218.422 65.4669 218.905 66.5665C219.369 67.6264 219.509 70.163 219.139 71.1684C219.139 71.1684 221.519 66.5267 220.171 64.2729C218.742 61.883 216.895 63.986 216.895 63.986Z" fill="#152949"/>
<path d="M220.932 90.4898C220.717 104.97 220.873 101.943 219.294 103.317C218.913 103.648 217.843 103.845 216.433 103.939C212.002 104.235 204.216 103.502 203.921 102.683C202.899 99.8444 203.62 98.9626 202.767 94.6141C202.68 94.1512 202.569 93.6506 202.439 93.106C201.729 90.1212 201.037 89.1053 203.557 84.3086C205.843 79.9644 208.22 76.4391 208.433 76.5648C214.466 80.155 214.953 77.1366 214.953 77.1366C214.953 77.1366 221.036 83.4247 220.932 90.4877V90.4898Z" fill="#8C9DF4"/>
<path d="M236.394 127.824L231.756 140.333C231.756 140.333 230.498 140.454 229.293 140.106C228.183 139.784 226.91 138.944 226.91 138.944C226.91 138.944 228.197 125.511 230.601 117.801L236.396 127.821L236.394 127.824Z" fill="#F99746"/>
<path d="M214.955 77.1387C214.955 77.1387 221.164 78.1944 221.891 80.8734C222.621 83.5524 225.02 99.8129 225.02 99.8129C225.02 99.8129 223.268 101.526 221.812 100.064C220.353 98.6022 217.225 84.8511 217.225 84.8511L214.955 77.1387Z" fill="#8C9DF4"/>
<path d="M216.433 103.939C212.002 104.234 204.216 103.501 203.921 102.682C202.899 99.8437 203.62 98.9618 202.768 94.6134L204.903 88.583C204.903 88.583 204.55 95.2984 206.525 97.0641C208.498 98.8299 214.615 100.474 215.574 101.949C216.038 102.657 216.341 103.367 216.431 103.937L216.433 103.939Z" fill="#707FE5"/>
<path d="M211.355 101.113C211.355 101.113 215.725 100.137 216.432 100.526C217.136 100.916 218.86 102.33 219.075 102.824C219.291 103.316 217.506 102.449 216.925 102.294C216.549 102.194 215.558 102.537 215.069 102.703C213.006 103.392 211.742 103.038 211.742 103.038L211.355 101.115V101.113Z" fill="#FFB27D"/>
<path d="M208.43 76.5625C208.43 76.5625 202.562 76.9249 200.531 79.7652C197.672 83.7617 191.998 100.799 195.25 103.07C198.911 105.63 211.912 103.74 211.912 103.74C211.912 103.74 212.345 101.713 211.743 100.732C211.141 99.752 201.358 98.1685 200.907 97.7161C200.456 97.2636 206.552 88.8914 206.552 87.5341C206.552 86.1768 208.43 76.5646 208.43 76.5646V76.5625Z" fill="#8C9DF4"/>
<path d="M216.643 101.746C216.643 101.746 217.558 102.93 217.859 103.072C218.16 103.212 218.352 103.179 218.352 103.179L217.736 102.067L216.643 101.748V101.746Z" fill="#FFB27D"/>
<path d="M216.432 100.526L219.094 101.823C219.094 101.823 218.981 102.009 218.653 101.993C218.325 101.978 217.5 101.674 217.5 101.674L216.434 100.526H216.432Z" fill="#FFB27D"/>
<path d="M239.165 103.575H211.355V104.189H238.918L239.165 103.575Z" fill="#152949"/>
<path d="M217.859 104.189H238.918L245.253 88.3994H224.227L217.859 104.189Z" fill="#152949"/>
<path d="M233.602 96.2945C233.76 95.7394 233.441 95.2891 232.887 95.2891C232.333 95.2891 231.756 95.7394 231.597 96.2945C231.439 96.8496 231.758 97.2999 232.312 97.2999C232.866 97.2999 233.443 96.8496 233.602 96.2945Z" fill="#EBF3FA"/>
<path d="M233.668 202.468L231.508 200.584L229.628 202.749L231.788 204.633L233.668 202.468Z" fill="white"/>
<path d="M203.898 238.849C203.467 237.414 203.252 237.285 203.252 237.285C203.252 237.285 189.863 238.958 187.591 238.809C186.243 238.721 170.162 233.347 170.162 233.347L160.398 242.731C160.398 242.731 184.613 246.729 188.026 246.467C193.666 246.034 202.274 241.044 202.274 241.044C202.274 241.044 204.236 239.972 203.898 238.845V238.849Z" fill="#E58638"/>
<path d="M167.301 345.979C167.301 345.979 167.489 350.526 168.358 351.632L180.479 351.704C180.394 351.234 180.343 350.149 178.667 349.856C176.55 349.487 174.061 348.007 172.78 345.2C171.43 342.248 167.299 345.979 167.299 345.979H167.301Z" fill="#214C7F"/>
<path d="M143.514 345.323C143.514 345.323 142.67 351.364 143.817 351.471C143.97 351.485 148.701 351.561 150.751 351.594C153.161 351.634 157.121 351.55 157.121 351.55C157.618 351.571 157.944 351.031 157.691 350.599C157.414 350.128 156.883 349.623 155.871 349.428C153.761 349.022 150.243 347.468 149.01 344.64C147.713 341.666 143.518 345.323 143.518 345.323H143.514Z" fill="#214C7F"/>
<path d="M173.601 283.41C173.601 283.41 170.23 295.23 160.571 315.757C150.912 336.283 150.494 346.175 150.494 346.175C150.494 346.175 149.031 346.693 147.092 346.488C144.993 346.263 143.512 345.325 143.512 345.325C143.512 345.325 144.137 320.893 148.701 310.535C153.263 300.178 154.193 271.831 154.193 271.831L173.601 283.412V283.41Z" fill="#707FE5"/>
<path d="M179.015 273.241C179.015 273.241 179.282 291.544 176.125 314.017C172.965 336.491 174.442 346.941 174.442 346.941C174.442 346.941 173.604 347.552 171.03 347.542C168.014 347.529 166.47 346.281 166.47 346.281C166.47 346.281 161.947 323.799 163.243 312.551C164.539 301.303 157.051 273.954 157.051 273.954L179.015 273.239V273.241Z" fill="#8C9DF4"/>
<path d="M171.675 227.616C171.644 229.053 171.452 230.615 170.879 231.382L167.663 233.074L164.098 230.425C164.098 230.425 165.404 227.522 165.084 223.276C165.053 223.02 164.925 221.393 164.925 221.361L166.708 222.254L171.548 224.679C171.548 224.679 171.548 224.776 171.579 224.903C171.611 225.383 171.675 226.434 171.675 227.616Z" fill="#FFB27D"/>
<path d="M153.859 275.501C155.025 280.851 180.003 278.503 179.677 275.237C179.664 275.128 179.599 273.616 179.51 271.58C179.319 267.173 179.031 260.288 178.995 259.75C178.995 259.741 178.993 259.731 178.993 259.723C178.544 255.175 178.111 250.728 178.084 247.823C178.059 245.303 177.712 242.729 177.253 240.389C176.828 238.232 176.306 236.271 175.852 234.744C175.533 233.668 174.937 232.723 174.149 231.979C173.587 231.451 172.929 231.024 172.204 230.735C172.005 230.651 171.804 230.582 171.597 230.524C168.659 229.669 165.694 228.58 164.592 228.904C161.608 229.784 158.285 235.084 156.716 241.799C153.778 254.367 153.098 272.018 153.861 275.503L153.859 275.501Z" fill="#F99746"/>
<path d="M171.674 227.616C169.86 226.883 166.389 225.222 165.434 223.339C165.02 222.509 165.658 222.254 166.707 222.254L171.547 224.679C171.547 224.679 171.547 224.776 171.578 224.904C171.61 225.383 171.674 226.435 171.674 227.616Z" fill="#FCA56B"/>
<path d="M173.877 224.382C173.877 224.382 165.185 227.099 163.58 221.649C161.975 216.198 159.772 212.876 165.254 210.912C170.736 208.947 172.43 210.706 173.408 212.395C174.386 214.083 176.096 223.536 173.877 224.382Z" fill="#FFB27D"/>
<path d="M173.068 211.869C173.068 211.869 172.514 218.211 171.204 217.937C169.895 217.663 168.708 217.457 168.899 219.37C169.091 221.282 169.151 223.58 165.118 223.919C161.085 224.259 157.039 213.742 158.146 211.766C161.344 206.071 177.686 204.921 173.066 211.869H173.068Z" fill="#163560"/>
<path d="M179.509 271.578C179.319 267.171 179.031 260.286 178.995 259.748C178.995 259.739 178.993 259.729 178.993 259.72L164.239 250.879C164.239 250.879 163.668 271.521 179.511 271.58L179.509 271.578Z" fill="#E58638"/>
<path d="M230.412 201.496L233.07 203.815C233.07 203.815 228.512 208.706 228.937 213.852L222.132 219.61L216.498 214.694L221.208 206.863C221.208 206.863 226.26 206.678 230.41 201.496H230.412Z" fill="#163560"/>
<path d="M223.497 209.862C224.047 209.229 225.002 209.162 225.633 209.713C226.264 210.264 226.331 211.221 225.781 211.854C225.232 212.486 224.277 212.553 223.646 212.002C223.015 211.452 222.948 210.494 223.497 209.862Z" fill="white"/>
<path d="M231.957 202.855L231.521 202.476L223.485 211.729L223.92 212.108L231.957 202.855Z" fill="white"/>
<path d="M222.116 219.612L216.48 214.696L215.249 216.115L220.884 221.031L222.116 219.612Z" fill="#6C7AFF"/>
<path d="M159.251 286.621L158.977 286.383C157.496 285.09 157.341 282.841 158.628 281.356L215.266 216.112L220.903 221.028L164.265 286.272C162.975 287.757 160.731 287.912 159.249 286.621H159.251Z" fill="#163560"/>
<path d="M191.12 252.887C191.12 252.887 192.209 251.918 192.464 251.249C192.551 251.017 193.293 249.965 194.56 250.058C195.715 250.143 197.772 247.674 197.772 247.674C198.07 248.327 199.103 250.776 197.625 252.016C196.422 253.028 193.521 254.781 191.761 255.933C189.872 257.171 191.118 252.885 191.118 252.885L191.12 252.887Z" fill="#FFB27D"/>
<path d="M191.265 252.526C191.265 252.526 176.63 255.02 175.333 254.386C173.264 253.376 176.135 238.492 176.135 238.492C176.135 238.492 176.258 235.119 172.327 234.323C168.911 233.632 165.615 236.196 165.615 236.196C165.615 236.196 162.618 238.883 163.001 241.866C163.849 248.475 165.17 261.918 169.579 263.979C175.268 266.637 191.729 256.61 191.729 256.61C191.729 256.61 192.277 255.938 192.199 254.687C192.13 253.586 191.263 252.526 191.263 252.526H191.265Z" fill="#F99746"/>
<path d="M204.508 239.918C204.508 239.918 208.203 238.569 207.877 236.675C207.551 234.782 206.399 235.02 205.705 235.674C205.009 236.327 205.396 239.679 204.508 239.918Z" fill="#FFB27D"/>
<path d="M192.209 251.917C192.209 251.917 192.713 250.434 193.25 249.798C193.787 249.161 194.015 248.084 194.259 248.442C194.504 248.801 194.065 250.091 194.259 250.581C194.456 251.071 192.209 251.917 192.209 251.917Z" fill="#FFB27D"/>
<path d="M519.492 328.488H453.316V351.525H519.492V328.488Z" fill="#AEC3FF"/>
<path d="M562.335 351.375H0.664561C0.297534 351.375 0 351.673 0 352.041V352.334C0 352.702 0.297534 353 0.664561 353H562.335C562.702 353 563 352.702 563 352.334V352.041C563 351.673 562.702 351.375 562.335 351.375Z" fill="#233862"/>
</g>
<defs>
<clipPath id="clip0_1996_15145">
<rect width="563" height="353" fill="white"/>
</clipPath>
</defs>
</svg>
