<svg width="48" height="48" viewBox="0 0 48 48" fill="none" xmlns="http://www.w3.org/2000/svg">
<g clip-path="url(#clip0_1279_3330)">
<mask id="mask0_1279_3330" style="mask-type:luminance" maskUnits="userSpaceOnUse" x="0" y="0" width="48" height="48">
<path d="M0 0H48V48H0V0Z" fill="white"/>
</mask>
<g mask="url(#mask0_1279_3330)">
<path d="M9.166 34.6396C7.106 32.4556 6 29.9996 6 26.0196C6 19.4556 10.322 13.5296 16.756 10.2596C17.1161 10.0828 17.5289 10.0459 17.9146 10.156C18.3004 10.2661 18.6315 10.5154 18.844 10.8556C19.384 11.6896 19.092 12.7996 18.26 13.3416C12.96 16.7916 11.828 20.9416 11.352 23.6416C12.426 23.0876 13.832 22.8936 15.21 23.0216C18.818 23.3556 21.662 26.3176 21.662 29.9996C21.662 31.8561 20.9245 33.6366 19.6117 34.9493C18.299 36.2621 16.5185 36.9996 14.662 36.9996C13.6352 36.9903 12.6204 36.7769 11.6769 36.3718C10.7333 35.9666 9.87981 35.3778 9.166 34.6396ZM29.166 34.6396C27.106 32.4556 26 29.9996 26 26.0196C26 19.4556 30.324 13.5296 36.756 10.2596C37.1161 10.0828 37.5289 10.0459 37.9146 10.156C38.3004 10.2661 38.6315 10.5154 38.844 10.8556C39.384 11.6896 39.092 12.7996 38.26 13.3416C32.96 16.7916 31.828 20.9416 31.352 23.6416C32.426 23.0876 33.832 22.8936 35.21 23.0216C38.818 23.3556 41.662 26.3176 41.662 29.9996C41.662 31.8561 40.9245 33.6366 39.6117 34.9493C38.299 36.2621 36.5185 36.9996 34.662 36.9996C33.6352 36.9903 32.6204 36.7769 31.6769 36.3718C30.7333 35.9666 29.8798 35.3778 29.166 34.6396Z" fill="#4BBA72"/>
</g>
</g>
<defs>
<clipPath id="clip0_1279_3330">
<rect width="48" height="48" fill="white"/>
</clipPath>
</defs>
</svg>
